<?xml version="1.0" encoding="utf-8"?>
<!-- Generator: Adobe Illustrator 25.3.1, SVG Export Plug-In . SVG Version: 6.00 Build 0)  -->
<svg version="1.1" id="Camada_1" xmlns="http://www.w3.org/2000/svg" xmlns:xlink="http://www.w3.org/1999/xlink" x="0px" y="0px"
	 width="108.834px" height="119.46px" viewBox="0 0 108.834 119.46" enable-background="new 0 0 108.834 119.46"
	 xml:space="preserve">
<g>
	<path fill="none" stroke="#000000" stroke-miterlimit="10" d="M54.42,56.85C24.64,56.85,0.5,70.75,0.5,87.9
		c0,3.79,1.18,7.41,3.34,10.78c1.81,2.82,4.31,5.43,7.39,7.8c0.7,0.53,1.42,1.07,2.17,1.56c9.9,6.69,24.61,10.92,41.021,10.92
		c16.42,0,31.12-4.23,41.02-10.92c0.75-0.49,1.47-1.03,2.17-1.56c3.07-2.37,5.58-4.98,7.39-7.8c2.16-3.37,3.33-6.99,3.33-10.78
		C108.329,70.75,84.2,56.85,54.42,56.85z"/>
	<path opacity="0.6" fill="#CEEEFB" enable-background="new    " d="M54.42,0.5C24.64,0.5,0.5,14.4,0.5,31.55
		c0,3.79,1.18,7.41,3.34,10.78c1.81,2.82,4.31,5.43,7.39,7.8c0.7,0.53,1.42,1.07,2.17,1.56c9.9,6.69,24.61,10.92,41.021,10.92
		c16.42,0,31.12-4.23,41.02-10.92c0.75-0.49,1.47-1.03,2.17-1.56c3.07-2.37,5.58-4.98,7.39-7.8c2.16-3.37,3.33-6.99,3.33-10.78
		C108.329,14.4,84.2,0.5,54.42,0.5z"/>
	<path opacity="0.6" fill="#CEEEFB" enable-background="new    " d="M108.331,31.551c-0.001,3.79-1.17,7.409-3.33,10.779
		c-1.81,2.82-4.32,5.43-7.39,7.8c-0.7,0.53-1.42,1.07-2.17,1.56c-9.9,6.69-24.6,10.92-41.02,10.92
		C38.01,62.61,23.3,58.38,13.4,51.69c-0.75-0.49-1.47-1.03-2.17-1.56c-3.08-2.37-5.58-4.98-7.39-7.8
		c-2.155-3.363-3.334-6.974-3.339-10.755v56.336c0,17.161,24.14,31.048,53.922,31.048c29.771,0,53.911-13.887,53.911-31.048v-56.36
		H108.331z"/>
	<path opacity="0.4" fill="#95B3D1" enable-background="new    " d="M104.995,60.646c0,3.01-0.8,5.92-2.29,8.66
		c-6.42,11.79-25.61,20.34-48.29,20.34c-22.67,0-41.87-8.55-48.29-20.34c-1.49-2.74-2.29-5.65-2.29-8.66c0-2.18,0.42-4.3,1.22-6.34
		c5.04-12.96,25.229-22.65,49.36-22.65c24.14,0,44.32,9.69,49.37,22.65C104.575,56.346,104.995,58.466,104.995,60.646z"/>
	<g>
		
			<ellipse fill="none" stroke="#000000" stroke-linecap="round" stroke-linejoin="round" stroke-miterlimit="10" cx="54.418" cy="76.838" rx="38.533" ry="22.195"/>
		<path opacity="0.6" fill="#CEEEFB" enable-background="new    " d="M103.829,13.955l-0.463-1.465
			c-0.364-1.157-1.598-1.807-2.755-1.444l-14.33,4.527c0,0-4.441,2.336-9.058,0.683c-0.011-0.011-0.011-0.011-0.022-0.011
			c-6.38-2.711-14.259-4.298-22.789-4.298c-8.529,0-16.408,1.587-22.788,4.298c-0.011,0-0.011,0-0.022,0.011
			c-4.617,1.653-9.058-0.683-9.058-0.683l-14.33-4.527c-1.157-0.364-2.391,0.286-2.755,1.444l-0.452,1.465
			c-0.364,1.157,0.275,2.403,1.444,2.755l11.751,3.734c0,0,0.397,3.647-1.113,8.144c-0.011,0.044-0.033,0.077-0.044,0.121
			c-0.353,0.782-0.617,1.576-0.804,2.38c-0.242,1.003-0.364,2.017-0.364,3.052c0,9.862,11.185,18.226,26.645,21.113
			c6.292,0.882,7.317-5.168,7.317-5.168l1.598,0.088v13.338c0,1.223,0.992,2.204,2.204,2.204h1.543c1.212,0,2.204-0.981,2.204-2.204
			V50.174l1.598-0.088c0,0,1.025,6.05,7.317,5.168c15.461-2.887,26.646-11.251,26.646-21.113c0-1.036-0.121-2.05-0.364-3.052
			c-0.187-0.804-0.452-1.598-0.804-2.38c-0.011-0.044-0.033-0.077-0.044-0.121c-1.51-4.496-1.113-8.144-1.113-8.144l11.751-3.734
			C103.542,16.357,104.192,15.112,103.829,13.955z"/>
		<path opacity="0.6" fill="#CEEEFB" enable-background="new    " d="M92.905,35.229c-0.788,9.385-11.707,17.245-26.595,20.026
			c-6.292,0.882-7.317-5.168-7.317-5.168l-1.598,0.088v13.338c0,1.223-0.992,2.204-2.204,2.204h-1.543
			c-1.212,0-2.204-0.981-2.204-2.204V50.174l-1.598-0.088c0,0-1.025,6.05-7.317,5.168c-15.46-2.887-26.645-11.251-26.645-21.113
			v42.697c0,12.258,17.252,22.195,38.533,22.195S92.95,89.096,92.95,76.838L92.905,35.229z"/>
		<path id="changecolor_1_" opacity="0.6" fill="#CD3038" enable-background="new    " d="M91.456,61.871
			c0,2.204-0.586,4.335-1.677,6.341c-4.701,8.633-18.753,14.894-35.361,14.894c-16.6,0-30.66-6.261-35.361-14.894
			c-1.091-2.006-1.677-4.137-1.677-6.341c0-1.596,0.307-3.149,0.893-4.643c3.691-9.49,18.474-16.586,36.145-16.586
			c17.677,0,32.454,7.096,36.152,16.586C91.148,58.722,91.456,60.274,91.456,61.871z"/>
		<path id="changecolor" opacity="0.75" fill="#CD3038" enable-background="new    " d="M91.456,61.871v13.38
			c0,4.716-2.68,9.065-7.206,12.58c-6.744,5.25-17.596,8.648-29.833,8.648c-12.236,0-23.088-3.405-29.833-8.648
			c-4.533-3.522-7.205-7.864-7.205-12.58v-13.38c0,2.204,0.586,4.335,1.677,6.341c4.701,8.633,18.761,14.894,35.361,14.894
			c16.608,0,30.66-6.261,35.361-14.894C90.87,66.205,91.456,64.075,91.456,61.871z"/>
		<path fill="none" stroke="#000000" stroke-linecap="round" stroke-linejoin="round" stroke-miterlimit="10" d="M92.905,35.229
			c-0.788,9.385-11.707,17.245-26.595,20.026c-6.292,0.882-7.317-5.168-7.317-5.168l-1.598,0.088v13.338
			c0,1.223-0.992,2.204-2.204,2.204h-1.543c-1.212,0-2.204-0.981-2.204-2.204V50.174l-1.598-0.088c0,0-1.025,6.05-7.317,5.168
			c-15.46-2.887-26.645-11.251-26.645-21.113v42.697c0,12.258,17.252,22.195,38.533,22.195S92.95,89.096,92.95,76.838L92.905,35.229
			z"/>
	</g>
	<path opacity="0.75" fill="#95B3D1" enable-background="new    " d="M104.995,60.646v27.151c0,6.44-3.66,12.38-9.84,17.18
		c-9.21,7.17-24.03,11.81-40.74,11.81s-31.53-4.65-40.74-11.81c-6.19-4.81-9.84-10.74-9.84-17.18V60.646c0,3.01,0.8,5.92,2.29,8.66
		c6.42,11.79,25.62,20.34,48.29,20.34c22.68,0,41.87-8.55,48.29-20.34C104.195,66.565,104.995,63.656,104.995,60.646z"/>
	
		<linearGradient id="SVGID_1_" gradientUnits="userSpaceOnUse" x1="101.475" y1="36.4153" x2="101.475" y2="88.7028" gradientTransform="matrix(1 0 0 -1 0 122)">
		<stop  offset="0" style="stop-color:#FFFFFF;stop-opacity:0"/>
		<stop  offset="0.9988" style="stop-color:#FFFFFF;stop-opacity:0.6"/>
	</linearGradient>
	<path fill="url(#SVGID_1_)" d="M106.117,95.234V40.37c-0.339,0.661-0.703,1.316-1.116,1.96c-1.81,2.82-4.32,5.43-7.39,7.8
		c-0.255,0.193-0.517,0.387-0.778,0.58v44.524c0,0.325,2.076,0.587,4.642,0.587C104.045,95.821,106.117,95.558,106.117,95.234z"/>
	<path opacity="0.2" fill="#006AD1" enable-background="new    " d="M9.291,48.532c-2.2-1.931-4.038-4.001-5.45-6.202
		c-2.155-3.363-3.334-6.974-3.339-10.755v56.336c0,6.272,3.241,12.098,8.79,16.975V48.532H9.291z"/>
	<g>
		<path fill="none" stroke="#000000" stroke-linecap="round" stroke-linejoin="round" stroke-miterlimit="10" d="M108.331,31.551
			c-0.001,3.79-1.17,7.409-3.33,10.779c-1.81,2.82-4.32,5.43-7.39,7.8c-0.7,0.53-1.42,1.07-2.17,1.56
			c-9.9,6.69-24.6,10.92-41.02,10.92C38.01,62.61,23.3,58.38,13.4,51.69c-0.75-0.49-1.47-1.03-2.17-1.56
			c-3.08-2.37-5.58-4.98-7.39-7.8c-2.155-3.363-3.334-6.974-3.339-10.755v56.336c0,17.161,24.14,31.048,53.922,31.048
			c29.771,0,53.911-13.887,53.911-31.048v-56.36H108.331z"/>
	</g>
	<g>
		<path opacity="0.6" fill="#CEEEFB" enable-background="new    " d="M54.42,0.5C24.64,0.5,0.5,14.4,0.5,31.55
			c0,3.79,1.18,7.41,3.34,10.78c1.81,2.82,4.31,5.43,7.39,7.8c0.7,0.53,1.42,1.07,2.17,1.56c9.9,6.69,24.61,10.92,41.021,10.92
			c16.42,0,31.12-4.23,41.02-10.92c0.75-0.49,1.47-1.03,2.17-1.56c3.07-2.37,5.58-4.98,7.39-7.8c2.16-3.37,3.33-6.99,3.33-10.78
			C108.329,14.4,84.2,0.5,54.42,0.5z M96.705,47.543c-0.4,0.35-0.82,0.7-1.25,1.04c-0.49,0.4-1,0.78-1.53,1.16
			c-0.19,0.13-0.38,0.27-0.57,0.4c-9.28,6.43-23.27,10.54-38.94,10.54c-15.66,0-29.66-4.11-38.94-10.54
			c-0.73-0.51-1.44-1.02-2.1-1.56c-6-4.78-9.54-10.67-9.54-17.03c0-16.08,22.65-29.12,50.58-29.12c8.02,0,15.6,1.07,22.34,2.99
			c9.51,2.7,17.33,7.07,22.32,12.44c3.781,4.08,5.92,8.74,5.92,13.69C104.995,37.453,101.945,42.953,96.705,47.543z"/>
		<path fill="none" stroke="#000000" stroke-linecap="round" stroke-linejoin="round" stroke-miterlimit="10" d="M54.42,0.5
			C24.64,0.5,0.5,14.4,0.5,31.55c0,3.79,1.18,7.41,3.34,10.78c1.81,2.82,4.31,5.43,7.39,7.8c0.7,0.53,1.42,1.07,2.17,1.56
			c9.9,6.69,24.61,10.92,41.021,10.92c16.42,0,31.12-4.23,41.02-10.92c0.75-0.49,1.47-1.03,2.17-1.56c3.07-2.37,5.58-4.98,7.39-7.8
			c2.16-3.37,3.33-6.99,3.33-10.78C108.329,14.4,84.2,0.5,54.42,0.5z M96.705,47.543c-0.4,0.35-0.82,0.7-1.25,1.04
			c-0.49,0.4-1,0.78-1.53,1.16c-0.19,0.13-0.38,0.27-0.57,0.4c-9.28,6.43-23.27,10.54-38.94,10.54c-15.66,0-29.66-4.11-38.94-10.54
			c-0.73-0.51-1.44-1.02-2.1-1.56c-6-4.78-9.54-10.67-9.54-17.03c0-16.08,22.65-29.12,50.58-29.12c8.02,0,15.6,1.07,22.34,2.99
			c9.51,2.7,17.33,7.07,22.32,12.44c3.781,4.08,5.92,8.74,5.92,13.69C104.995,37.453,101.945,42.953,96.705,47.543z"/>
	</g>
	<g>
		<path opacity="0.6" fill="#CEEEFB" enable-background="new    " d="M103.829,13.955l-0.463-1.465
			c-0.364-1.157-1.598-1.807-2.755-1.444l-14.33,4.527c0,0-4.441,2.336-9.058,0.683c-0.011-0.011-0.011-0.011-0.022-0.011
			c-6.38-2.711-14.259-4.298-22.789-4.298c-8.529,0-16.408,1.587-22.788,4.298c-0.011,0-0.011,0-0.022,0.011
			c-4.617,1.653-9.058-0.683-9.058-0.683l-14.33-4.527c-1.157-0.364-2.391,0.286-2.755,1.444l-0.452,1.465
			c-0.364,1.157,0.275,2.403,1.444,2.755l11.751,3.734c0,0,0.397,3.647-1.113,8.144c-0.011,0.044-0.033,0.077-0.044,0.121
			c-0.353,0.782-0.617,1.576-0.804,2.38c-0.242,1.003-0.364,2.017-0.364,3.052c0,9.862,11.185,18.226,26.645,21.113
			c6.292,0.882,7.317-5.168,7.317-5.168l1.598,0.088v13.338c0,1.223,0.992,2.204,2.204,2.204h1.543c1.212,0,2.204-0.981,2.204-2.204
			V50.174l1.598-0.088c0,0,1.025,6.05,7.317,5.168c15.461-2.887,26.646-11.251,26.646-21.113c0-1.036-0.121-2.05-0.364-3.052
			c-0.187-0.804-0.452-1.598-0.804-2.38c-0.011-0.044-0.033-0.077-0.044-0.121c-1.51-4.496-1.113-8.144-1.113-8.144l11.751-3.734
			C103.542,16.357,104.192,15.112,103.829,13.955z M90.743,34.14c0,8.424-10.217,16.215-24.846,18.947
			c-0.216,0.028-2.375,0.05-2.66,0.05c-3.131,0-3.828-2.864-3.937-3.439L58.944,47.8l-9.22-0.023l-0.328,1.941
			c-0.105,0.555-0.803,3.42-3.933,3.42c-0.285,0-2.32-0.022-2.635-0.066c-14.53-2.716-24.747-10.507-24.747-18.931
			c0-0.867,0.099-1.696,0.301-2.532c0.162-0.697,0.387-1.362,0.673-1.996l0.083-0.184l0.016-0.068
			c0.014-0.036,0.026-0.073,0.038-0.11c1.311-3.926,1.302-6.986,1.239-8.235c0.179-0.376,1.772-3.688,3.38-4.917
			c1.187,0.438,2.088,2.954,4.284,2.954c1.357,0,2.668-0.202,3.903-0.602h0.075l0.314-0.133l0.371-0.133l0.048-0.044
			c6.28-2.61,13.742-3.988,21.605-3.988c7.843,0,15.285,1.371,21.557,3.967l0.045,0.045l0.422,0.152l0.315,0.134h0.075
			c1.235,0.4,2.546,0.602,3.903,0.602c2.195,0,3.099-2.516,4.286-2.954c1.574,1.207,3.177,4.485,3.379,4.917
			c-0.061,1.263-0.063,4.307,1.222,8.186l0.023,0.093l0.035,0.082l0.013,0.053l0.084,0.186c0.284,0.629,0.508,1.293,0.666,1.974
			C90.645,32.444,90.743,33.273,90.743,34.14z"/>
		<path fill="none" stroke="#000000" stroke-linecap="round" stroke-linejoin="round" stroke-miterlimit="10" d="M103.829,13.955
			l-0.463-1.465c-0.364-1.157-1.598-1.807-2.755-1.444l-14.33,4.527c0,0-4.441,2.336-9.058,0.683
			c-0.011-0.011-0.011-0.011-0.022-0.011c-6.38-2.711-14.259-4.298-22.789-4.298c-8.529,0-16.408,1.587-22.788,4.298
			c-0.011,0-0.011,0-0.022,0.011c-4.617,1.653-9.058-0.683-9.058-0.683l-14.33-4.527c-1.157-0.364-2.391,0.286-2.755,1.444
			l-0.452,1.465c-0.364,1.157,0.275,2.403,1.444,2.755l11.751,3.734c0,0,0.397,3.647-1.113,8.144
			c-0.011,0.044-0.033,0.077-0.044,0.121c-0.353,0.782-0.617,1.576-0.804,2.38c-0.242,1.003-0.364,2.017-0.364,3.052
			c0,9.862,11.185,18.226,26.645,21.113c6.292,0.882,7.317-5.168,7.317-5.168l1.598,0.088v13.338c0,1.223,0.992,2.204,2.204,2.204
			h1.543c1.212,0,2.204-0.981,2.204-2.204V50.174l1.598-0.088c0,0,1.025,6.05,7.317,5.168c15.461-2.887,26.646-11.251,26.646-21.113
			c0-1.036-0.121-2.05-0.364-3.052c-0.187-0.804-0.452-1.598-0.804-2.38c-0.011-0.044-0.033-0.077-0.044-0.121
			c-1.51-4.496-1.113-8.144-1.113-8.144l11.751-3.734C103.542,16.357,104.192,15.112,103.829,13.955z M90.743,34.14
			c0,8.424-10.217,16.215-24.846,18.947c-0.216,0.028-2.375,0.05-2.66,0.05c-3.131,0-3.828-2.864-3.937-3.439L58.944,47.8
			l-9.22-0.023l-0.328,1.941c-0.105,0.555-0.803,3.42-3.933,3.42c-0.285,0-2.32-0.022-2.635-0.066
			c-14.53-2.716-24.747-10.507-24.747-18.931c0-0.867,0.099-1.696,0.301-2.532c0.162-0.697,0.387-1.362,0.673-1.996l0.083-0.184
			l0.016-0.068c0.014-0.036,0.026-0.073,0.038-0.11c1.311-3.926,1.302-6.986,1.239-8.235c0.179-0.376,1.772-3.688,3.38-4.917
			c1.187,0.438,2.088,2.954,4.284,2.954c1.357,0,2.668-0.202,3.903-0.602h0.075l0.314-0.133l0.371-0.133l0.048-0.044
			c6.28-2.61,13.742-3.988,21.605-3.988c7.843,0,15.285,1.371,21.557,3.967l0.045,0.045l0.422,0.152l0.315,0.134h0.075
			c1.235,0.4,2.546,0.602,3.903,0.602c2.195,0,3.099-2.516,4.286-2.954c1.574,1.207,3.177,4.485,3.379,4.917
			c-0.061,1.263-0.063,4.307,1.222,8.186l0.023,0.093l0.035,0.082l0.013,0.053l0.084,0.186c0.284,0.629,0.508,1.293,0.666,1.974
			C90.645,32.444,90.743,33.273,90.743,34.14z"/>
		
			<line fill="none" stroke="#000000" stroke-linecap="round" stroke-linejoin="round" stroke-miterlimit="10" x1="18.202" y1="20.443" x2="20.431" y2="21.014"/>
		
			<line fill="none" stroke="#000000" stroke-linecap="round" stroke-linejoin="round" stroke-miterlimit="10" x1="90.623" y1="20.443" x2="88.395" y2="21.014"/>
	</g>
</g>
</svg>
