<?xml version="1.0" encoding="utf-8"?>
<!-- Generator: Adobe Illustrator 27.8.1, SVG Export Plug-In . SVG Version: 6.00 Build 0)  -->
<svg version="1.1" id="Camada_1" xmlns="http://www.w3.org/2000/svg" xmlns:xlink="http://www.w3.org/1999/xlink" x="0px" y="0px"
	 width="131.678px" height="94.604px" viewBox="0 0 131.678 94.604" enable-background="new 0 0 131.678 94.604"
	 xml:space="preserve">
<g>
	<g>
		<path fill="#EDBB21" stroke="#000000" stroke-linecap="round" stroke-linejoin="round" stroke-miterlimit="10" d="M20.104,94.104
			h91.469c10.827,0,19.604-8.777,19.604-19.604c0-10.827-8.777-19.604-19.604-19.604H20.104C9.277,54.896,0.5,63.673,0.5,74.5
			C0.5,85.327,9.277,94.104,20.104,94.104z"/>
		<path fill="none" stroke="#000000" stroke-linecap="round" stroke-linejoin="round" stroke-miterlimit="10" d="M20.104,94.104
			h91.469c10.827,0,19.604-8.777,19.604-19.604c0-10.827-8.777-19.604-19.604-19.604H20.104C9.277,54.896,0.5,63.673,0.5,74.5
			C0.5,85.327,9.277,94.104,20.104,94.104z"/>
		<path fill="#A15B00" stroke="#000000" stroke-linecap="round" stroke-linejoin="round" stroke-miterlimit="10" d="M20.104,57.761
			h91.47c9.229,0,16.738,7.509,16.738,16.739s-7.509,16.739-16.738,16.739h-91.47c-9.229,0-16.738-7.509-16.738-16.739
			S10.875,57.761,20.104,57.761z M111.574,88.373c7.649,0,13.873-6.223,13.873-13.873s-6.223-13.873-13.873-13.873h-91.47
			c-7.649,0-13.873,6.223-13.873,13.873s6.223,13.873,13.873,13.873H111.574z"/>
		<path fill="#F3D169" stroke="#000000" stroke-linecap="round" stroke-linejoin="round" stroke-miterlimit="10" d="M111.574,63.492
			c6.07,0,11.007,4.938,11.007,11.008s-4.938,11.008-11.007,11.008h-91.47c-6.07,0-11.007-4.938-11.007-11.008
			s4.938-11.008,11.007-11.008H111.574z"/>
	</g>
	<g>
		<path fill="#A15B00" stroke="#000000" stroke-linecap="round" stroke-linejoin="round" stroke-miterlimit="10" d="M4.629,4.391
			C3.897,3.521,3.36,2.3,2.948,0.5l0,0c0.906,3.951,3.544,3.943,8.414,4.965c4.973,1.043,5.871,1.323,8.371,4.963
			c1.736,2.523,2.746,2.695,4.282,2.959c0.944,0.162,2.014,0.347,3.395,1.044c4.182,2.112,5.292,5.764,6.469,9.63
			c0.97,3.19,1.974,6.493,4.721,9.612c3.848,4.378,6.604,2.75,11.168,0.054c2.226-1.314,4.748-2.804,7.876-3.856
			c10-3.365,14.677,3.764,14.721,3.833l-1.361,0.87c-0.164-0.251-4.077-6.121-12.845-3.171c-2.968,0.998-5.413,2.442-7.57,3.716
			c-4.546,2.685-8.471,5.004-13.203-0.378c-2.97-3.401-4.08-7.011-5.053-10.209c-1.166-3.832-2.089-6.86-5.651-8.658
			c-1.165-0.589-2.069-0.744-2.942-0.895c-1.657-0.286-3.221-0.553-5.338-3.635c-2.207-3.214-2.697-3.316-7.372-4.296
			C7.96,6.401,5.969,5.984,4.629,4.391z"/>
		<path fill="#F38B24" stroke="#000000" stroke-linecap="round" stroke-linejoin="round" stroke-miterlimit="10" d="M80.851,49.677
			c1.81-11.868-7.446-12.143-10.032-12.852c-2.399-0.658-3.957-2.773-3.486-4.405c0.525-1.818,2.783-3.084,5.575-2.613
			c10.079,1.698,17.643,5.8,15.327,20.996c-0.311,2.039-2.361,4.504-4.411,4.275C80.952,54.758,80.645,51.028,80.851,49.677z"/>
		<path fill="#F35A24" d="M69.069,33.683c-0.172-0.309-0.241-0.614-0.183-0.815c0.284-0.985,1.766-1.804,3.754-1.469
			c6.83,1.151,10.766,3.261,12.76,6.843c1.646,2.956,2.051,6.984,1.238,12.316c-0.216,1.414-1.669,3.02-2.636,2.913
			c-0.343-0.038-0.742-0.161-1.09-0.786c-0.475-0.853-0.559-2.155-0.465-2.765c0.556-3.643,0.18-6.67-1.116-8.998
			c-2.28-4.095-6.713-4.972-9.094-5.442c-0.391-0.077-0.729-0.142-0.991-0.214C70.119,34.957,69.382,34.246,69.069,33.683z"/>
	</g>
</g>
</svg>
