<?xml version="1.0" encoding="utf-8"?>
<!-- Generator: Adobe Illustrator 22.0.0, SVG Export Plug-In . SVG Version: 6.00 Build 0)  -->
<svg version="1.1" id="Layer_1" xmlns="http://www.w3.org/2000/svg" xmlns:xlink="http://www.w3.org/1999/xlink" x="0px" y="0px"
	 width="164.265px" height="113.11px" viewBox="0 0 164.265 113.11" enable-background="new 0 0 164.265 113.11"
	 xml:space="preserve">
<path fill="#864687" stroke="#000000" stroke-width="3.8175" stroke-linecap="round" stroke-linejoin="round" stroke-miterlimit="10" d="
	M-71.395-344.61c-0.003-0.013-0.006-0.025-0.009-0.035c-2.623-11.067-1.444-20.176,3.504-27.077
	c7.406-10.325,20.45-11.662,21.002-11.715c1.467-0.138,2.776,0.934,2.911,2.41c0.139,1.469-0.938,2.772-2.407,2.91
	c-0.199,0.021-11.259,1.234-17.189,9.546c-3.986,5.585-4.866,13.219-2.621,22.691c0.341,1.437-0.548,2.878-1.982,3.218
	C-69.61-342.326-71.038-343.196-71.395-344.61z"/>
<g>
	<g>
		<g>
			<g>
				<g>
					<g>
						
							<polygon fill="#75B34B" stroke="#000000" stroke-width="2.6825" stroke-linecap="round" stroke-linejoin="round" stroke-miterlimit="10" points="
							245.627,-706.211 222.185,-690.602 222.185,-690.602 222.185,-690.602 219.611,-656.079 240.479,-637.166 263.922,-652.775 
							266.496,-687.298 						"/>
						<g>
							
								<path fill="#864687" stroke="#000000" stroke-width="2.2361" stroke-linecap="round" stroke-linejoin="round" stroke-miterlimit="10" d="
								M233.937-652.539c-0.97,0-1.863-0.633-2.147-1.612c-0.345-1.186,0.336-2.426,1.522-2.771l6.881-2.002l-6.37-0.323
								c-1.074-0.055-1.957-0.867-2.103-1.93c-0.144-1.066,0.487-2.083,1.507-2.424l9.294-3.11l-8.195-0.675
								c-1.057-0.087-1.906-0.904-2.035-1.954c-0.131-1.053,0.496-2.05,1.498-2.391l10.017-3.411l-9.486-0.808
								c-1.055-0.09-1.902-0.906-2.029-1.957c-0.129-1.05,0.496-2.046,1.498-2.387l9.453-3.219l-8.875-0.566
								c-1.234-0.079-2.168-1.142-2.09-2.374c0.081-1.232,1.149-2.153,2.374-2.09l20.121,1.284c1.066,0.068,1.935,0.88,2.074,1.937
								c0.14,1.057-0.485,2.068-1.496,2.411l-10.017,3.411l9.486,0.808c1.055,0.09,1.902,0.906,2.029,1.957
								c0.129,1.05-0.496,2.046-1.498,2.387l-9.947,3.387l8.335,0.686c1.059,0.087,1.909,0.906,2.037,1.961
								c0.127,1.055-0.504,2.053-1.511,2.389l-8.403,2.81l7.807,0.397c1.09,0.057,1.981,0.891,2.107,1.974
								c0.127,1.085-0.548,2.103-1.596,2.406l-19.618,5.708C234.354-652.568,234.142-652.539,233.937-652.539z"/>
						</g>
						
							<rect x="228.518" y="-643.744" transform="matrix(-0.9972 -0.0744 0.0744 -0.9972 521.7639 -1202.0122)" fill="#ADBDBD" stroke="#000000" stroke-width="2.6825" stroke-linecap="round" stroke-linejoin="round" stroke-miterlimit="10" width="19.978" height="66.05"/>
						<g>
							
								<path fill="#C96100" stroke="#000000" stroke-width="2.6825" stroke-linecap="round" stroke-linejoin="round" stroke-miterlimit="10" d="
								M185.883-548.181c0.474,0.036,0.947-0.201,1.192-0.644l28.101-50.83l10.988,21.782c0.311,0.619,1.066,0.869,1.686,0.555
								c0.619-0.312,0.867-1.067,0.555-1.686l-12.057-23.903c-0.21-0.416-0.621-0.682-1.097-0.69
								c-0.465-0.009-0.897,0.24-1.122,0.648c0,0-29.366,54.279-28.759,54.614C185.533-548.244,185.708-548.194,185.883-548.181z"/>
							
								<path fill="#E17A11" stroke="#000000" stroke-width="2.6825" stroke-linecap="round" stroke-linejoin="round" stroke-miterlimit="10" d="
								M173.726-549.087c0.424,0.032,0.854-0.153,1.118-0.526l36.059-50.843l15.341,22.72c0.388,0.575,1.168,0.726,1.742,0.338
								c0.575-0.387,0.726-1.168,0.338-1.742l-16.355-24.223c-0.23-0.342-0.616-0.548-1.026-0.553
								c-0.412-0.005-0.8,0.193-1.038,0.529c0,0-37.376,53.671-36.811,54.072C173.287-549.178,173.506-549.104,173.726-549.087z"/>
							
								<path fill="#C96100" stroke="#000000" stroke-width="2.6825" stroke-linecap="round" stroke-linejoin="round" stroke-miterlimit="10" d="
								M281.276-541.068c-0.474-0.035-0.907-0.339-1.083-0.814l-20.252-54.436l-14.096,19.912c-0.4,0.566-1.183,0.701-1.75,0.299
								c-0.566-0.4-0.699-1.184-0.299-1.75l15.469-21.851c0.269-0.38,0.715-0.583,1.187-0.519c0.461,0.06,0.851,0.371,1.013,0.807
								c0,0,20.992,58.034,20.342,58.275C281.631-541.079,281.45-541.055,281.276-541.068z"/>
							
								<path fill="#E17A11" stroke="#000000" stroke-width="2.6825" stroke-linecap="round" stroke-linejoin="round" stroke-miterlimit="10" d="
								M293.433-540.162c-0.424-0.032-0.822-0.278-1.028-0.686l-28.121-55.629l-18.54,20.194c-0.469,0.511-1.263,0.544-1.773,0.076
								c-0.511-0.468-0.544-1.262-0.076-1.773l19.766-21.53c0.278-0.304,0.69-0.451,1.096-0.394
								c0.408,0.056,0.762,0.309,0.948,0.677c0,0,29.004,58.621,28.385,58.933C293.88-540.187,293.653-540.145,293.433-540.162z"/>
						</g>
						
							<path fill="#F38B24" stroke="#000000" stroke-width="2.6825" stroke-linecap="round" stroke-linejoin="round" stroke-miterlimit="10" d="
							M230.053-641.823l21.428,1.598c0.971,0.072,1.817-0.656,1.889-1.627c0.072-0.971-0.656-1.817-1.627-1.889l-21.428-1.598
							c-0.971-0.072-1.817,0.656-1.889,1.627C228.353-642.741,229.082-641.896,230.053-641.823z"/>
						<g>
							
								<linearGradient id="SVGID_1_" gradientUnits="userSpaceOnUse" x1="1290.2557" y1="-452.1253" x2="1316.0959" y2="-452.1253" gradientTransform="matrix(-0.9972 -0.0744 -0.0744 0.9972 1502.0026 -30.0139)">
								<stop  offset="0" style="stop-color:#A4BABA"/>
								<stop  offset="0.3237" style="stop-color:#BECCCC"/>
								<stop  offset="0.7895" style="stop-color:#4C6A74"/>
								<stop  offset="1" style="stop-color:#9AAEAE"/>
							</linearGradient>
							<path fill="url(#SVGID_1_)" d="M224.848-576.794l22.137,1.651c1.003,0.075,1.877-0.678,1.951-1.681
								c0.075-1.003-0.678-1.877-1.681-1.951l-22.137-1.651c-1.003-0.075-1.877,0.678-1.951,1.681
								C223.093-577.743,223.845-576.869,224.848-576.794z"/>
							
								<path fill="#F38B24" stroke="#000000" stroke-width="2.6825" stroke-linecap="round" stroke-linejoin="round" stroke-miterlimit="10" d="
								M199.263-547.087c0.588,0.044,1.158-0.304,1.369-0.887l18.183-50.115l7.197,20.105c0.252,0.703,1.025,1.069,1.727,0.816
								c0.703-0.251,1.068-1.025,0.816-1.727l-8.46-23.635c-0.192-0.536-0.703-0.899-1.268-0.896
								c-0.57-0.001-1.078,0.355-1.273,0.89c0,0-19.354,55.115-18.653,55.369C199.021-547.121,199.142-547.096,199.263-547.087z"/>
							
								<path fill="#F38B24" stroke="#000000" stroke-width="2.6825" stroke-linecap="round" stroke-linejoin="round" stroke-miterlimit="10" d="
								M267.881-541.97c-0.588-0.044-1.1-0.473-1.223-1.08l-10.55-52.258l-10.099,18.816c-0.353,0.658-1.172,0.906-1.829,0.551
								c-0.658-0.353-0.904-1.172-0.551-1.829l11.871-22.119c0.269-0.502,0.828-0.785,1.387-0.698
								c0.563,0.083,1.014,0.511,1.127,1.069c0,0,10.967,57.375,10.236,57.523C268.126-541.969,268.002-541.961,267.881-541.97z"/>
							
								<path fill="#F38B24" stroke="#000000" stroke-width="2.6825" stroke-linecap="round" stroke-linejoin="round" stroke-miterlimit="10" d="
								M224.848-576.794l22.137,1.651c1.003,0.075,1.877-0.678,1.951-1.681c0.075-1.003-0.678-1.877-1.681-1.951l-22.137-1.651
								c-1.003-0.075-1.877,0.678-1.951,1.681C223.093-577.743,223.845-576.869,224.848-576.794z"/>
						</g>
					</g>
				</g>
			</g>
		</g>
	</g>
	<g>
		
			<path fill="#F3D169" stroke="#000000" stroke-width="2.6825" stroke-linecap="round" stroke-linejoin="round" stroke-miterlimit="10" d="
			M56.886-441.386c0,0,2.351-77.569,41.598-100.023s106.938-22.303,165.256-7.406c58.318,14.898,140.421,13.123,169.717,8.427
			c29.297-4.696,72.903-9.151,72.903-9.151l59.505-1.103c0,0,117.997-8.329,142.694-16.714c24.697-8.384,46.449-9.529,55.109-9.122
			s44.482,13.812,60.141,31.474c15.659,17.662,20.726,48.278,19.131,72.939c-1.595,24.661-28.296,66.366-57.257,82.361
			s-110.356,30.388-146.724,37.788c-36.368,7.4-121.853,7.28-160.284,12.413c-38.431,5.133-182,3.579-229.157,0.49
			s-131.695-4.901-159.564-30.515S56.288-432.743,56.886-441.386z"/>
		
			<radialGradient id="SVGID_2_" cx="464.2854" cy="-441.1831" r="574.0596" gradientTransform="matrix(1 0 0 0.5 0 -220.5916)" gradientUnits="userSpaceOnUse">
			<stop  offset="0" style="stop-color:#FFB089"/>
			<stop  offset="1" style="stop-color:#D76E44"/>
		</radialGradient>
		<path fill="url(#SVGID_2_)" d="M376.234-344.209c-48.044,0-101.113-1.192-126.189-2.832c-5.315-0.348-11.105-0.681-17.232-1.032
			c-45.71-2.622-114.788-6.583-137.411-27.378c-25.033-23.006-31.025-57.632-30.487-65.379l0.016-0.306
			c0.021-0.731,2.698-73.348,37.55-93.286c19.189-10.979,46.894-16.781,80.119-16.781c25.694,0,53.064,3.523,79.15,10.185
			c40.979,10.471,89.286,12.032,114.434,12.032c23.155,0,45.042-1.291,58.547-3.455c27.396-4.393,68.032-8.634,72.116-9.056
			l59.377-1.103l0.207-0.016c4.862-0.343,119.325-8.498,144.717-17.119c23.957-8.134,43.74-8.765,49.234-8.765
			c1.1,0,2.075,0.024,2.91,0.063c7.086,0.333,40.584,13.083,54.494,28.774c14.764,16.651,18.453,46.543,17.122,67.081
			c-1.404,21.706-26.189,60.964-53.116,75.836c-23.949,13.224-88.733,25.961-127.441,33.571c-6.329,1.244-12.074,2.373-16.999,3.377
			c-20.048,4.079-55.937,5.826-90.645,7.518c-26.82,1.305-52.155,2.538-69.099,4.802
			C462.053-345.401,425.103-344.209,376.234-344.209z"/>
		<g>
			<g>
				
					<path fill="#8181FF" stroke="#000000" stroke-width="2.3346" stroke-linecap="round" stroke-linejoin="round" stroke-miterlimit="10" d="
					M487.504-422.75c-0.824,0.061-2.107-0.251-3.339-0.797c-1.245-0.541-2.502-1.292-3.701-2.148
					c-2.397-1.725-4.602-3.867-6.371-6.221c-1.755-2.327-3.126-5.015-3.307-7.313c-0.173-2.262,0.753-3.694,3.034-4.906
					c4.547-2.205,11.489-1.731,16.629,0.33c5.609,2.373,10.765,6.238,16.033,10.181c5.281,3.932,10.755,8.136,17.345,10.959
					c3.277,1.401,6.841,2.393,10.498,2.715c1.833,0.157,3.65,0.173,5.503,0.011c1.889-0.161,3.789-0.556,5.611-1.21
					c3.663-1.287,6.902-3.645,9.357-6.457c2.483-2.817,4.286-6.026,5.652-9.315c1.362-3.3,2.298-6.702,2.934-10.134
					c0.318-1.713,0.557-3.44,0.723-5.172c0.148-1.752,0.309-3.395,0.213-5.407c-0.214-3.816-1.24-7.338-2.666-10.649
					c-1.45-3.302-3.339-6.408-5.765-9.179c-2.428-2.742-5.435-5.252-9.301-6.607c-1.921-0.666-4.056-0.98-6.166-0.8
					c-2.11,0.177-4.139,0.842-5.914,1.78c-1.787,0.952-3.309,2.14-4.682,3.455c-1.388,1.325-2.631,2.883-3.596,4.636
					c-1.989,3.497-2.596,7.736-2.04,11.528l6.245-0.84c-0.379-2.729,0.031-5.365,1.31-7.635c1.209-2.236,3.452-4.34,5.709-5.576
					c2.285-1.209,4.681-1.426,7.082-0.592c2.402,0.828,4.697,2.623,6.619,4.812c3.8,4.395,6.506,10.376,6.873,15.99
					c0.07,1.29-0.061,2.945-0.199,4.479c-0.148,1.552-0.362,3.102-0.648,4.632c-0.563,3.062-1.398,6.058-2.559,8.864
					c-2.278,5.599-6.101,10.461-11.303,12.251c-1.286,0.46-2.644,0.747-4.044,0.867c-1.435,0.126-2.931,0.117-4.385-0.011
					c-2.928-0.259-5.808-1.048-8.598-2.237c-5.602-2.384-10.76-6.256-16.033-10.202c-5.281-3.932-10.763-8.128-17.356-10.941
					c-3.539-1.459-7.104-2.096-10.763-2.251c-3.646-0.094-7.461,0.268-11.182,2.113c-1.823,0.926-3.663,2.316-4.935,4.36
					c-1.284,2.027-1.721,4.524-1.519,6.657c0.425,4.339,2.405,7.663,4.549,10.598c2.2,2.919,4.786,5.429,7.745,7.565
					c1.49,1.059,3.077,2.024,4.856,2.8c1.787,0.749,3.753,1.425,6.249,1.312"/>
				
					<path fill="#8181FF" stroke="#000000" stroke-width="2.3346" stroke-linecap="round" stroke-linejoin="round" stroke-miterlimit="10" d="
					M524.187-463.471c0.521,3.832,1.968,7.298,3.786,10.41c1.822,3.121,4.052,5.904,6.518,8.424
					c4.97,4.992,10.837,9.102,17.767,11.433c3.425,1.129,7.385,1.734,11.255,1.062c3.881-0.601,7.69-2.659,10.34-5.469
					c2.685-2.792,4.464-6.009,5.938-9.151c1.461-3.16,2.62-6.318,3.809-9.346c1.191-3.021,2.41-5.955,3.959-8.397
					c1.55-2.458,3.407-4.208,5.649-4.789c1.134-0.313,2.397-0.369,3.733-0.228c1.426,0.16,2.848,0.45,4.185,0.9
					c2.691,0.882,5.11,2.384,7.233,4.386c4.266,4.036,7.253,9.758,10.304,15.572c3.115,5.81,6.107,12.067,11.594,17.279
					c2.793,2.557,6.328,4.475,10.129,5.28c3.795,0.83,7.743,0.556,11.334-0.493c3.644-1.096,6.721-2.727,9.728-4.599
					c2.973-1.887,5.748-4.062,8.278-6.546c2.518-2.488,4.817-5.286,6.604-8.526c0.884-1.621,1.638-3.359,2.172-5.2
					c0.543-1.805,0.82-3.899,0.839-5.672c0.21-7.353-2.171-14.575-6.272-20.5c-4.098-5.926-9.98-10.737-16.987-13.114
					c-3.49-1.183-7.245-1.712-10.958-1.476c-1.843,0.091-3.768,0.486-5.291,0.782c-1.581,0.304-3.103,0.564-4.572,0.691
					c-2.932,0.304-5.703-0.121-6.742-1.35c-0.271-0.264-0.618-0.802-0.675-0.994c-0.057-0.142-0.07-0.297-0.024-0.442
					c-0.066-0.108,0.754-1.071,1.881-1.684l-3.217-5.418c-0.861,0.514-1.725,1.107-2.571,1.928
					c-0.421,0.412-0.831,0.871-1.217,1.442c-0.396,0.587-0.746,1.294-0.955,2.002c-0.438,1.433-0.335,3.011,0.21,4.404
					c0.543,1.346,1.153,2.192,2.016,3.125c1.725,1.818,4.039,2.73,6.056,3.086c2.055,0.376,3.969,0.335,5.785,0.177
					c3.639-0.276,7.014-1.324,9.709-1.457c2.878-0.186,5.786,0.221,8.549,1.156c5.536,1.865,10.424,5.802,13.814,10.721
					c3.408,4.915,5.333,10.868,5.164,16.745c0.001,5.554-3.401,10.797-7.741,15.078c-4.332,4.223-9.843,7.852-15.339,9.587
					c-5.486,1.667-11.345,0.471-15.474-3.407c-4.184-3.912-7.204-9.747-10.241-15.53c-3.089-5.803-6.202-12.098-11.568-17.236
					c-2.672-2.535-5.981-4.615-9.575-5.783c-1.792-0.599-3.628-0.973-5.477-1.184c-1.942-0.209-4.03-0.15-6.094,0.417
					c-2.06,0.561-4.003,1.647-5.537,3.006c-1.564,1.346-2.754,2.909-3.761,4.474c-1.98,3.15-3.265,6.368-4.503,9.48
					c-2.419,6.155-4.55,12.378-8.406,16.41c-3.728,4.018-9.527,4.741-15.126,2.804c-5.619-1.869-10.91-5.494-15.215-9.852
					c-4.261-4.349-7.781-9.753-8.558-15.259"/>
				
					<path fill="#8181FF" stroke="#000000" stroke-width="2.3346" stroke-linecap="round" stroke-linejoin="round" stroke-miterlimit="10" d="
					M629.702-495.227c2.292-1.337,5.352-2.256,8.317-2.855c1.518-0.287,2.966-0.531,4.317-0.494c1.52-0.019,3.056,0.086,4.592,0.24
					c6.149,0.667,12.293,2.517,18.099,5.014c2.873,1.258,5.789,2.726,8.344,4.317c2.552,1.621,4.802,3.556,6.584,5.832
					c3.615,4.531,5.1,10.541,5.695,16.83c0.276,3.102,0.453,6.647,1.101,10.105c0.638,3.474,1.765,7.214,4.154,10.441
					c2.357,3.249,5.796,5.489,9.199,6.859c3.408,1.373,6.944,2.173,10.58,2.445c7.277,0.535,14.493-1.355,20.744-4.498
					c1.574-0.781,3.104-1.639,4.582-2.559c0.748-0.47,1.446-0.912,2.209-1.443c0.788-0.544,1.536-1.14,2.248-1.776
					c2.838-2.545,5.033-5.765,6.38-9.345c1.333-3.573,1.785-7.544,1.115-11.376c-0.156-0.924-0.379-1.915-0.758-2.952
					c-0.369-0.988-0.816-1.894-1.313-2.732c-0.99-1.675-2.143-3.142-3.397-4.487c-2.506-2.676-5.349-4.92-8.608-6.681
					c-1.628-0.873-3.377-1.624-5.322-2.109c-0.965-0.24-1.984-0.416-3.072-0.455c-1.061-0.057-2.381,0.091-3.283,0.325l1.407,6.147
					c2.002-0.565,4.742,0.286,7.293,1.647c2.555,1.37,4.967,3.267,6.967,5.413c1.001,1.074,1.888,2.224,2.578,3.39
					c0.345,0.58,0.622,1.167,0.832,1.722c0.193,0.508,0.346,1.136,0.463,1.838c0.47,2.68,0.162,5.502-0.809,8.108
					c-0.976,2.603-2.603,4.995-4.686,6.853c-0.516,0.467-1.063,0.9-1.636,1.293c-0.588,0.414-1.285,0.86-1.936,1.266
					c-1.322,0.825-2.675,1.581-4.061,2.269c-5.513,2.765-11.552,4.288-17.493,3.852c-5.839-0.49-12.142-2.548-15.153-6.761
					c-1.573-2.112-2.479-4.843-3.028-7.836c-0.564-3.042-0.723-6.106-1.025-9.577c-0.332-3.422-0.899-6.908-1.972-10.353
					c-1.072-3.438-2.73-6.831-5.038-9.754c-2.289-2.93-5.132-5.346-8.152-7.256c-3.051-1.901-6.056-3.393-9.227-4.79
					c-6.31-2.703-12.951-4.729-19.938-5.497c-1.751-0.181-3.514-0.296-5.296-0.274c-1.953-0.031-3.785,0.288-5.506,0.611
					c-3.48,0.733-6.865,1.652-10.31,3.623"/>
				
					<path fill="#8181FF" stroke="#000000" stroke-width="2.3346" stroke-linecap="round" stroke-linejoin="round" stroke-miterlimit="10" d="
					M487.902-416.456c2.633-0.232,4.488-1.296,6.137-2.399c1.631-1.145,3.024-2.461,4.26-3.99c0.611-0.768,1.183-1.586,1.695-2.529
					c0.255-0.467,0.49-0.966,0.699-1.523c0.188-0.527,0.339-1,0.468-1.553c0.259-1.07,0.404-2.321,0.202-3.657
					c-0.191-1.339-0.793-2.663-1.529-3.645c-1.508-1.982-3.128-2.968-4.55-3.958c-1.402-0.941-2.925-1.864-4.306-2.7
					c-2.778-1.688-5.439-3.362-7.343-5.326c-1.937-1.999-2.716-3.938-2.254-6.164c0.519-2.394,2.017-5.068,3.887-7.299
					c3.808-4.555,9.114-8.228,14.682-10.861c5.609-2.556,11.819-4.321,17.625-4.002c2.887,0.161,5.668,0.916,7.954,2.309
					c2.307,1.385,4.156,3.508,5.813,6.085c1.668,2.569,3.165,5.537,5.04,8.487c1.858,2.937,3.943,5.697,6.194,8.306
					c4.515,5.204,9.702,9.822,15.54,13.586c5.833,3.738,12.39,6.649,19.501,7.73c3.543,0.544,7.208,0.593,10.804,0.052
					c3.551-0.542,7.037-1.547,10.323-3.081c6.617-3.029,11.994-8.136,16.109-13.676c4.167-5.564,7.331-11.573,10.384-17.454
					c1.521-2.942,3.012-5.865,4.56-8.711c1.523-2.76,3.196-5.403,5.136-7.769c1.927-2.371,4.103-4.486,6.533-6.143
					c2.508-1.73,4.883-2.804,7.695-3.113c5.642-0.647,11.882,1.095,17.669,3.458c5.792,2.39,11.235,5.746,16.344,9.597
					c5.113,3.866,9.914,8.226,14.558,12.797c4.644,4.571,9.132,9.363,13.695,14.162c4.622,4.988,10.373,9.638,17.284,12.071
					c3.437,1.225,7.103,1.853,10.745,1.87c3.506-0.069,6.708-0.13,10.28-0.542c3.495-0.426,7.212-1.25,10.637-3.254
					c3.4-1.992,6.259-5.199,7.642-9.015c1.373-3.755,1.546-7.66,0.915-11.397c-0.658-3.723-2.13-7.415-4.865-10.459
					c-2.696-3.078-6.735-4.884-10.408-5.461c-3.714-0.636-7.209-0.49-10.475-0.449c-3.203,0.055-6.387-0.052-9.546-0.351
					c-1.574-0.153-3.152-0.344-4.713-0.599c-0.779-0.133-1.565-0.248-2.335-0.41l-1.166-0.228l-0.731-0.14l-0.69-0.106
					c-1.691-0.233-3.235-0.426-4.641-0.742c-0.032-0.008-0.057-0.017-0.09-0.024c0.17-0.107,0.338-0.217,0.526-0.317
					c1.138-0.621,2.541-1.141,3.819-1.437l-1.407-6.147c-1.93,0.465-3.657,1.097-5.423,2.047c-0.879,0.482-1.762,1.038-2.668,1.86
					c-0.831,0.806-2.003,2.008-2.205,4.216c-0.048,1.116,0.178,2.047,0.75,3.02l0.066,0.102l0.203,0.281
					c0.126,0.166,0.345,0.405,0.411,0.463c0.207,0.194,0.411,0.368,0.588,0.489c0.375,0.276,0.691,0.441,1,0.6
					c1.187,0.56,2.115,0.775,3.047,0.999c1.82,0.408,3.56,0.612,5.135,0.833l0.534,0.081l0.483,0.093l1.264,0.248
					c0.845,0.176,1.692,0.307,2.541,0.45c1.695,0.272,3.401,0.481,5.11,0.649c3.416,0.325,6.839,0.432,10.241,0.38
					c3.322-0.058,6.471-0.146,9.279,0.35c2.816,0.483,5.128,1.578,6.83,3.489c3.422,3.798,4.538,10.501,2.712,15.422
					c-0.87,2.41-2.661,4.428-4.932,5.781c-2.297,1.355-5.156,2.066-8.189,2.43c-2.989,0.357-6.404,0.433-9.495,0.494
					c-2.961-0.015-5.888-0.517-8.676-1.511c-5.612-1.985-10.505-5.815-14.821-10.471c-4.532-4.77-9.076-9.621-13.838-14.31
					c-4.764-4.691-9.758-9.234-15.186-13.336c-5.421-4.085-11.305-7.739-17.732-10.391c-6.358-2.54-13.242-4.695-20.839-3.89
					c-1.883,0.236-3.786,0.687-5.606,1.447c-1.856,0.79-3.347,1.68-4.89,2.726c-3.03,2.065-5.626,4.616-7.858,7.359
					c-2.246,2.747-4.115,5.71-5.775,8.729c-1.614,2.953-3.121,5.913-4.631,8.837c-3.022,5.826-6.061,11.546-9.824,16.565
					c-3.735,5.014-8.283,9.249-13.73,11.745c-2.699,1.263-5.622,2.11-8.593,2.564c-2.938,0.438-5.948,0.405-8.932-0.049
					c-5.979-0.904-11.778-3.428-17.038-6.803c-5.265-3.391-10.044-7.637-14.177-12.405c-2.06-2.391-3.962-4.913-5.639-7.558
					c-1.672-2.623-3.152-5.565-5.074-8.541c-1.89-2.954-4.426-6.007-7.821-8.042c-3.369-2.043-7.163-3.005-10.861-3.22
					c-7.448-0.357-14.303,1.726-20.659,4.584c-6.321,3.017-12.179,6.988-16.884,12.564c-2.309,2.844-4.294,6.012-5.208,10.09
					c-0.439,2.096-0.299,4.504,0.498,6.583c0.792,2.088,2.061,3.804,3.409,5.185c2.727,2.775,5.768,4.587,8.602,6.33
					c1.448,0.877,2.743,1.66,4.088,2.563c1.291,0.852,2.473,1.741,2.953,2.428c0.439,0.653,0.508,0.986,0.282,2.123
					c-0.057,0.248-0.155,0.565-0.247,0.816c-0.08,0.215-0.195,0.464-0.337,0.721c-0.276,0.516-0.647,1.057-1.068,1.579
					c-0.835,1.043-1.866,2.009-2.939,2.759c-1.052,0.751-2.252,1.251-2.934,1.282"/>
			</g>
			<path fill="#8181FF" d="M720.224-480.526l-1.605-3.63c0.895-0.398,5.543-2.333,8.626-1.308l-1.252,3.767
				C724.775-482.102,721.83-481.238,720.224-480.526z"/>
			<path fill="#8181FF" d="M627.052-494.45l-3.064-2.526c0.26-0.32,2.659-3.14,5.933-3.989l1,3.84
				C629.186-496.673,627.506-495.002,627.052-494.45z"/>
			<path fill="#8181FF" d="M526.02-460.614c-0.05-0.154-1.23-3.806-0.739-7.133l3.924,0.574c-0.348,2.376,0.577,5.295,0.588,5.323
				L526.02-460.614z"/>
		</g>
		
			<path fill="none" stroke="#000000" stroke-width="2.6825" stroke-linecap="round" stroke-linejoin="round" stroke-miterlimit="10" d="
			M376.234-344.209c-48.044,0-101.113-1.192-126.189-2.832c-5.315-0.348-11.105-0.681-17.232-1.032
			c-45.71-2.622-114.788-6.583-137.411-27.378c-25.033-23.006-31.025-57.632-30.487-65.379l0.016-0.306
			c0.021-0.731,2.698-73.348,37.55-93.286c19.189-10.979,46.894-16.781,80.119-16.781c25.694,0,53.064,3.523,79.15,10.185
			c40.979,10.471,89.286,12.032,114.434,12.032c23.155,0,45.042-1.291,58.547-3.455c27.396-4.393,68.032-8.634,72.116-9.056
			l59.377-1.103l0.207-0.016c4.862-0.343,119.325-8.498,144.717-17.119c23.957-8.134,43.74-8.765,49.234-8.765
			c1.1,0,2.075,0.024,2.91,0.063c7.086,0.333,40.584,13.083,54.494,28.774c14.764,16.651,18.453,46.543,17.122,67.081
			c-1.404,21.706-26.189,60.964-53.116,75.836c-23.949,13.224-88.733,25.961-127.441,33.571c-6.329,1.244-12.074,2.373-16.999,3.377
			c-20.048,4.079-55.937,5.826-90.645,7.518c-26.82,1.305-52.155,2.538-69.099,4.802
			C462.053-345.401,425.103-344.209,376.234-344.209z"/>
		
			<path fill="none" stroke="#000000" stroke-width="2.6825" stroke-linecap="round" stroke-linejoin="round" stroke-miterlimit="10" d="
			M56.886-441.386c0,0,2.351-77.569,41.598-100.023s106.938-22.303,165.256-7.406c58.318,14.898,140.421,13.123,169.717,8.427
			c29.297-4.696,72.903-9.151,72.903-9.151l59.505-1.103c0,0,117.997-8.329,142.694-16.714c24.697-8.384,46.449-9.529,55.109-9.122
			s44.482,13.812,60.141,31.474c15.659,17.662,20.726,48.278,19.131,72.939c-1.595,24.661-28.296,66.366-57.257,82.361
			s-110.356,30.388-146.724,37.788c-36.368,7.4-121.853,7.28-160.284,12.413c-38.431,5.133-182,3.579-229.157,0.49
			s-131.695-4.901-159.564-30.515S56.288-432.743,56.886-441.386z"/>
	</g>
</g>
<g>
	<g>
		<g>
			<g>
				<g>
					
						<polygon fill="#75B34B" stroke="#000000" stroke-width="2.6825" stroke-linecap="round" stroke-linejoin="round" stroke-miterlimit="10" points="
						-359.894,-508.643 -383.336,-493.034 -383.336,-493.034 -383.336,-493.034 -385.91,-458.511 -365.042,-439.598 
						-341.599,-455.208 -339.025,-489.73 					"/>
					
						<rect x="-377.003" y="-446.176" transform="matrix(-0.9972 -0.0744 0.0744 -0.9972 -702.2916 -852.4467)" fill="#ADBDBD" stroke="#000000" stroke-width="2.6825" stroke-linecap="round" stroke-linejoin="round" stroke-miterlimit="10" width="19.978" height="66.05"/>
					
						<path fill="#F38B24" stroke="#000000" stroke-width="2.6825" stroke-linecap="round" stroke-linejoin="round" stroke-miterlimit="10" d="
						M-375.468-444.255l21.428,1.598c0.971,0.072,1.817-0.656,1.889-1.627s-0.656-1.817-1.627-1.889l-21.428-1.598
						c-0.971-0.072-1.817,0.656-1.889,1.627S-376.439-444.328-375.468-444.255z"/>
					<g>
						
							<linearGradient id="SVGID_3_" gradientUnits="userSpaceOnUse" x1="1879.4103" y1="-210.0811" x2="1905.2506" y2="-210.0811" gradientTransform="matrix(-0.9972 -0.0744 -0.0744 0.9972 1502.0026 -30.0139)">
							<stop  offset="0" style="stop-color:#A4BABA"/>
							<stop  offset="0.3237" style="stop-color:#BECCCC"/>
							<stop  offset="0.7895" style="stop-color:#4C6A74"/>
							<stop  offset="1" style="stop-color:#9AAEAE"/>
						</linearGradient>
						<path fill="url(#SVGID_3_)" d="M-380.673-379.226l22.137,1.651c1.003,0.075,1.877-0.678,1.951-1.681
							c0.075-1.003-0.678-1.877-1.681-1.951l-22.137-1.651c-1.003-0.075-1.877,0.678-1.951,1.681
							C-382.428-380.175-381.676-379.301-380.673-379.226z"/>
						
							<path fill="#F38B24" stroke="#000000" stroke-width="2.6825" stroke-linecap="round" stroke-linejoin="round" stroke-miterlimit="10" d="
							M-380.673-379.226l22.137,1.651c1.003,0.075,1.877-0.678,1.951-1.681c0.075-1.003-0.678-1.877-1.681-1.951l-22.137-1.651
							c-1.003-0.075-1.877,0.678-1.951,1.681C-382.428-380.175-381.676-379.301-380.673-379.226z"/>
					</g>
				</g>
			</g>
		</g>
	</g>
</g>
<g>
	<path fill="#864687" stroke="#000000" stroke-linecap="round" stroke-linejoin="round" stroke-miterlimit="10" d="M47.508,23.182
		c-0.002-0.007-0.004-0.015-0.005-0.021c-1.532-6.463-0.843-11.782,2.046-15.813c4.325-6.03,11.943-6.81,12.265-6.841
		c0.857-0.081,1.621,0.545,1.7,1.407c0.081,0.858-0.548,1.619-1.406,1.7c-0.116,0.012-6.575,0.721-10.038,5.574
		c-2.327,3.262-2.841,7.719-1.53,13.251c0.199,0.839-0.32,1.681-1.158,1.879C48.55,24.516,47.716,24.008,47.508,23.182z"/>
	<path fill="#864687" stroke="#000000" stroke-linecap="round" stroke-linejoin="round" stroke-miterlimit="10" d="M117.237,96.752
		c-0.006,0.005-0.011,0.01-0.016,0.014c-5.073,4.287-10.129,6.078-15.03,5.321c-7.334-1.133-11.473-7.575-11.646-7.849
		c-0.459-0.728-0.246-1.693,0.487-2.152c0.729-0.46,1.691-0.243,2.151,0.486c0.063,0.098,3.614,5.539,9.51,6.435
		c3.961,0.602,8.17-0.954,12.512-4.624c0.659-0.557,1.644-0.474,2.2,0.183C117.956,95.22,117.88,96.193,117.237,96.752z"/>
	<path fill="#F38B24" stroke="#000000" stroke-linecap="round" stroke-linejoin="round" stroke-miterlimit="10" d="M75.435,64
		c0.31-0.148,0.497-0.489,0.435-0.843L70.563,32.6l9.445,8.07c0.33,0.282,0.827,0.244,1.108-0.087
		c0.282-0.33,0.243-0.826-0.087-1.108l-11.103-9.487c-0.252-0.215-0.615-0.251-0.899-0.086c-0.288,0.164-0.442,0.491-0.385,0.817
		c0,0,6.16,33.419,6.588,33.345C75.303,64.052,75.371,64.03,75.435,64z"/>
	<path fill="#F38B24" stroke="#000000" stroke-linecap="round" stroke-linejoin="round" stroke-miterlimit="10" d="M61.88,112.607
		c0.342-0.033,0.634-0.289,0.697-0.644l5.452-30.531l6.12,10.811c0.214,0.378,0.694,0.511,1.071,0.297
		c0.378-0.214,0.511-0.693,0.297-1.071L68.323,78.76c-0.163-0.288-0.492-0.446-0.816-0.388c-0.327,0.056-0.583,0.311-0.641,0.636
		c0,0-5.628,33.513-5.201,33.589C61.738,112.611,61.81,112.613,61.88,112.607z"/>
	<path fill="#F38B24" stroke="#000000" stroke-linecap="round" stroke-linejoin="round" stroke-miterlimit="10" d="M0.636,38.963
		c0.25,0.235,0.636,0.285,0.944,0.099l26.537-16.053l-4.084,11.733c-0.143,0.41,0.074,0.859,0.484,1c0.41,0.143,0.858-0.074,1-0.484
		l4.801-13.792c0.109-0.313,0.01-0.664-0.247-0.869c-0.257-0.209-0.618-0.233-0.901-0.062c0,0-28.893,17.889-28.668,18.26
		C0.539,38.859,0.585,38.915,0.636,38.963z"/>
	<path fill="#F38B24" stroke="#000000" stroke-linecap="round" stroke-linejoin="round" stroke-miterlimit="10" d="M108.537,37.828
		c-0.275,0.206-0.663,0.213-0.949-0.006l-24.6-18.887l2.762,12.112c0.096,0.423-0.168,0.845-0.591,0.941
		c-0.423,0.097-0.844-0.168-0.941-0.591L80.97,17.158c-0.074-0.323,0.063-0.661,0.342-0.836c0.279-0.179,0.64-0.163,0.903,0.038
		c0,0,26.739,20.972,26.475,21.317C108.644,37.735,108.593,37.786,108.537,37.828z"/>
	<path fill="#F38B24" stroke="#000000" stroke-linecap="round" stroke-linejoin="round" stroke-miterlimit="10" d="M129.906,101.399
		c-0.167-0.3-0.122-0.686,0.134-0.94l22.027-21.833l-12.374,1.106c-0.433,0.039-0.815-0.28-0.853-0.713
		c-0.039-0.432,0.28-0.814,0.713-0.853l14.546-1.301c0.33-0.03,0.646,0.152,0.783,0.451c0.14,0.3,0.076,0.656-0.159,0.889
		c0,0-24.381,23.672-24.687,23.364C129.983,101.518,129.94,101.46,129.906,101.399z"/>
	<g>
		<path fill="#864687" stroke="#000000" stroke-linecap="round" stroke-linejoin="round" stroke-miterlimit="10" d="M116.62,43.211
			c-0.566,0-1.088-0.37-1.254-0.941c-0.201-0.692,0.196-1.417,0.889-1.618l4.018-1.169l-3.72-0.189
			c-0.627-0.032-1.143-0.506-1.228-1.127c-0.084-0.622,0.284-1.217,0.88-1.416l5.427-1.816l-4.786-0.394
			c-0.617-0.051-1.113-0.528-1.189-1.141c-0.077-0.615,0.289-1.197,0.875-1.396l5.85-1.992l-5.54-0.472
			c-0.616-0.052-1.111-0.529-1.185-1.143c-0.075-0.613,0.289-1.195,0.875-1.394l5.52-1.88l-5.183-0.33
			c-0.721-0.046-1.266-0.667-1.22-1.386c0.047-0.719,0.671-1.257,1.386-1.22l11.75,0.75c0.622,0.04,1.13,0.514,1.211,1.131
			c0.082,0.617-0.283,1.208-0.874,1.408l-5.85,1.992l5.54,0.472c0.616,0.052,1.111,0.529,1.185,1.143
			c0.075,0.613-0.289,1.195-0.875,1.394l-5.809,1.978l4.868,0.4c0.618,0.051,1.115,0.529,1.19,1.145
			c0.074,0.616-0.295,1.199-0.882,1.395l-4.907,1.641l4.559,0.232c0.636,0.033,1.157,0.52,1.231,1.153
			c0.074,0.634-0.32,1.228-0.932,1.405l-11.457,3.333C116.863,43.194,116.74,43.211,116.62,43.211z"/>
	</g>
	<g>
		<path fill="#864687" stroke="#000000" stroke-linecap="round" stroke-linejoin="round" stroke-miterlimit="10" d="M1.806,85.808
			c-0.566,0-1.088-0.37-1.254-0.941c-0.201-0.692,0.196-1.417,0.889-1.618L5.46,82.08l-3.72-0.189
			c-0.627-0.032-1.143-0.506-1.228-1.127c-0.084-0.622,0.284-1.217,0.88-1.416l5.427-1.816l-4.786-0.394
			c-0.617-0.051-1.113-0.528-1.189-1.141C0.768,75.382,1.134,74.799,1.72,74.6l5.85-1.992l-5.54-0.472
			c-0.616-0.052-1.111-0.529-1.185-1.143C0.77,70.381,1.134,69.799,1.72,69.6l5.52-1.88l-5.183-0.33
			c-0.721-0.046-1.266-0.667-1.22-1.386c0.047-0.719,0.671-1.257,1.386-1.22l11.75,0.75c0.622,0.04,1.13,0.514,1.211,1.131
			c0.082,0.617-0.283,1.208-0.874,1.408l-5.85,1.992l5.54,0.472c0.616,0.052,1.111,0.529,1.185,1.143
			c0.075,0.613-0.289,1.195-0.875,1.394l-5.809,1.978l4.868,0.4c0.618,0.051,1.115,0.529,1.19,1.145
			c0.074,0.616-0.295,1.199-0.882,1.395L8.77,79.632l4.559,0.232c0.636,0.033,1.157,0.52,1.231,1.153
			c0.074,0.634-0.32,1.228-0.932,1.405L2.171,85.756C2.05,85.792,1.926,85.808,1.806,85.808z"/>
	</g>
	<g>
		<g>
			<g>
				<g>
					<g>
						<polygon fill="#75B34B" stroke="#000000" stroke-linecap="round" stroke-linejoin="round" stroke-miterlimit="10" points="
							41.755,36.066 28.065,45.182 28.065,45.182 28.065,45.182 26.562,65.342 38.749,76.387 52.439,67.272 53.942,47.111 						"/>
						
							<rect x="31.764" y="72.546" transform="matrix(-0.9972 -0.0744 0.0744 -0.9972 68.262 186.2057)" fill="#ADBDBD" stroke="#000000" stroke-linecap="round" stroke-linejoin="round" stroke-miterlimit="10" width="11.667" height="38.572"/>
						<path fill="#F38B24" stroke="#000000" stroke-linecap="round" stroke-linejoin="round" stroke-miterlimit="10" d="
							M32.66,73.668l12.514,0.933c0.567,0.042,1.061-0.383,1.103-0.95s-0.383-1.061-0.95-1.103l-12.514-0.933
							c-0.567-0.042-1.061,0.383-1.103,0.95C31.667,73.131,32.093,73.625,32.66,73.668z"/>
						<g>
							
								<linearGradient id="SVGID_4_" gradientUnits="userSpaceOnUse" x1="1443.7468" y1="249.6801" x2="1458.837" y2="249.6801" gradientTransform="matrix(-0.9972 -0.0744 -0.0744 0.9972 1502.0026 -30.0139)">
								<stop  offset="0" style="stop-color:#A4BABA"/>
								<stop  offset="0.3237" style="stop-color:#BECCCC"/>
								<stop  offset="0.7895" style="stop-color:#4C6A74"/>
								<stop  offset="1" style="stop-color:#9AAEAE"/>
							</linearGradient>
							<path fill="url(#SVGID_4_)" d="M29.62,111.643l12.927,0.964c0.586,0.044,1.096-0.396,1.14-0.981
								c0.044-0.586-0.396-1.096-0.981-1.14l-12.927-0.964c-0.586-0.044-1.096,0.396-1.14,0.981
								C28.595,111.089,29.035,111.6,29.62,111.643z"/>
							<path fill="#F38B24" stroke="#000000" stroke-linecap="round" stroke-linejoin="round" stroke-miterlimit="10" d="
								M29.62,111.643l12.927,0.964c0.586,0.044,1.096-0.396,1.14-0.981c0.044-0.586-0.396-1.096-0.981-1.14l-12.927-0.964
								c-0.586-0.044-1.096,0.396-1.14,0.981C28.595,111.089,29.035,111.6,29.62,111.643z"/>
						</g>
					</g>
				</g>
			</g>
		</g>
	</g>
	<g>
		<g>
			<g>
				<g>
					<g>
						<polygon fill="#75B34B" stroke="#000000" stroke-linecap="round" stroke-linejoin="round" stroke-miterlimit="10" points="
							88.416,73.466 101.565,83.346 101.565,83.346 101.565,83.346 121.078,78.061 127.443,62.895 114.294,53.015 94.781,58.3 
													"/>
						
							<rect x="136.558" y="39.56" transform="matrix(0.2614 0.9652 -0.9652 0.2614 161.9623 -93.9785)" fill="#ADBDBD" stroke="#000000" stroke-linecap="round" stroke-linejoin="round" stroke-miterlimit="10" width="11.667" height="38.572"/>
						<path fill="#F38B24" stroke="#000000" stroke-linecap="round" stroke-linejoin="round" stroke-miterlimit="10" d="
							M126.902,69.542l-3.281-12.112c-0.149-0.549-0.714-0.873-1.263-0.724c-0.549,0.149-0.873,0.714-0.724,1.263l3.281,12.112
							c0.149,0.549,0.714,0.873,1.263,0.724C126.726,70.656,127.051,70.09,126.902,69.542z"/>
						<g>
							
								<linearGradient id="SVGID_5_" gradientUnits="userSpaceOnUse" x1="1368.3412" y1="104.8466" x2="1383.4314" y2="104.8466" gradientTransform="matrix(0.2614 0.9652 0.9652 -0.2614 -299.9177 -1246.8136)">
								<stop  offset="0" style="stop-color:#A4BABA"/>
								<stop  offset="0.3237" style="stop-color:#BECCCC"/>
								<stop  offset="0.7895" style="stop-color:#4C6A74"/>
								<stop  offset="1" style="stop-color:#9AAEAE"/>
							</linearGradient>
							<path fill="url(#SVGID_5_)" d="M163.728,59.781l-3.389-12.512c-0.154-0.567-0.738-0.902-1.305-0.748
								c-0.567,0.154-0.902,0.738-0.748,1.305l3.389,12.512c0.154,0.567,0.738,0.902,1.305,0.748
								C163.546,60.932,163.882,60.348,163.728,59.781z"/>
							<path fill="#F38B24" stroke="#000000" stroke-linecap="round" stroke-linejoin="round" stroke-miterlimit="10" d="
								M163.728,59.781l-3.389-12.512c-0.154-0.567-0.738-0.902-1.305-0.748c-0.567,0.154-0.902,0.738-0.748,1.305l3.389,12.512
								c0.154,0.567,0.738,0.902,1.305,0.748C163.546,60.932,163.882,60.348,163.728,59.781z"/>
						</g>
					</g>
				</g>
			</g>
		</g>
	</g>
</g>
</svg>
