<?xml version="1.0" encoding="utf-8"?>
<!-- Generator: Adobe Illustrator 16.0.0, SVG Export Plug-In . SVG Version: 6.00 Build 0)  -->
<!DOCTYPE svg PUBLIC "-//W3C//DTD SVG 1.1//EN" "http://www.w3.org/Graphics/SVG/1.1/DTD/svg11.dtd">
<svg version="1.1" id="Layer_1" xmlns="http://www.w3.org/2000/svg" xmlns:xlink="http://www.w3.org/1999/xlink" x="0px" y="0px"
	 width="528.58px" height="170.372px" viewBox="0 0 528.58 170.372" enable-background="new 0 0 528.58 170.372"
	 xml:space="preserve">
<g>
	<g>
		<rect x="2.584" y="20.395" fill="#FFDBB7" width="508" height="78"/>
	</g>
	<g>
		<g>
			<g>
				<path fill="#F9B39A" stroke="#000000" stroke-width="1.5" stroke-miterlimit="10" d="M2.917,169.503v-9.279
					c7.241,0,13.133-11.75,13.133-26.196s-5.892-26.198-13.133-26.198v-9.278c45.001,0,64.243-2.286,65.535,35.477
					C69.806,173.587,41.789,169.503,2.917,169.503z"/>
				<path fill="#D79D95" d="M53.59,169.503v-9.279c7.24,0,13.133-11.75,13.133-26.196s-5.893-26.198-13.133-26.198v-9.278
					c9.807,0,19.196,15.915,19.196,35.477C72.786,153.59,63.396,169.503,53.59,169.503z"/>
				<path fill="#F8B4AA" stroke="#000000" stroke-width="1.5" stroke-miterlimit="10" d="M53.59,98.551
					c-12.039,0-48.605-0.462-50.822,0s-3.425,9.328,0.807,9.328c4.23,0,48.734-0.05,50.016-0.05
					C54.869,107.829,56.559,98.551,53.59,98.551z"/>
				<path fill="#F8B4AA" stroke="#000000" stroke-width="1.5" stroke-miterlimit="10" d="M53.59,160.224
					c-12.039,0-48.605-0.461-50.822,0c-2.217,0.463-3.425,9.33,0.807,9.33c4.23,0,48.734-0.051,50.016-0.051
					C54.869,169.503,56.559,160.224,53.59,160.224z"/>
			</g>
			<g>
				<path fill="#F9B39A" d="M53.551,169.503v-9.279c7.24,0,13.132-11.75,13.132-26.196s-5.892-26.198-13.132-26.198v-9.278
					c44.998,0,64.242-2.286,65.535,35.477C120.438,173.587,92.422,169.503,53.551,169.503z"/>
				<path fill="#D79D95" d="M104.223,169.503v-9.279c7.24,0,13.133-11.75,13.133-26.196s-5.893-26.198-13.133-26.198v-9.278
					c9.806,0,19.197,15.915,19.197,35.477C123.42,153.59,114.028,169.503,104.223,169.503z"/>
				<path fill="#F8B4AA" stroke="#000000" stroke-width="1.5" stroke-miterlimit="10" d="M104.223,98.551
					c-12.039,0-48.606-0.462-50.822,0c-2.218,0.462-3.426,9.328,0.807,9.328c4.23,0,48.734-0.05,50.016-0.05
					C105.503,107.829,107.191,98.551,104.223,98.551z"/>
				<path fill="#F8B4AA" stroke="#000000" stroke-width="1.5" stroke-miterlimit="10" d="M104.223,160.224
					c-12.039,0-48.606-0.461-50.822,0c-2.218,0.463-3.426,9.33,0.807,9.33c4.23,0,48.734-0.051,50.016-0.051
					C105.503,169.503,107.191,160.224,104.223,160.224z"/>
			</g>
			<ellipse fill="#CC8D84" cx="26.334" cy="103.11" rx="5.016" ry="2.112"/>
			<ellipse fill="#CC8D84" cx="81.326" cy="103.11" rx="5.015" ry="2.112"/>
			<ellipse fill="#CC8D84" cx="26.334" cy="164.786" rx="5.016" ry="2.111"/>
			<ellipse fill="#CC8D84" cx="81.326" cy="164.786" rx="5.015" ry="2.111"/>
		</g>
		<g>
			<g>
				<path fill="#F9B39A" d="M104.02,169.503v-9.279c7.24,0,13.133-11.75,13.133-26.196s-5.893-26.198-13.133-26.198v-9.278
					c45,0,64.244-2.286,65.535,35.477C170.908,173.587,142.891,169.503,104.02,169.503z"/>
				<path fill="#D79D95" d="M154.691,169.503v-9.279c7.242,0,13.133-11.75,13.133-26.196s-5.891-26.198-13.133-26.198v-9.278
					c9.807,0,19.197,15.915,19.197,35.477C173.889,153.59,164.498,169.503,154.691,169.503z"/>
				<path fill="#F8B4AA" stroke="#000000" stroke-width="1.5" stroke-miterlimit="10" d="M154.691,98.551
					c-12.039,0-48.605-0.462-50.822,0s-3.425,9.328,0.808,9.328c4.231,0,48.734-0.05,50.015-0.05
					C155.973,107.829,157.662,98.551,154.691,98.551z"/>
				<path fill="#F8B4AA" stroke="#000000" stroke-width="1.5" stroke-miterlimit="10" d="M154.691,160.224
					c-12.039,0-48.605-0.461-50.822,0c-2.217,0.463-3.425,9.33,0.808,9.33c4.231,0,48.734-0.051,50.015-0.051
					C155.973,169.503,157.662,160.224,154.691,160.224z"/>
			</g>
			<g>
				<path fill="#F9B39A" d="M154.652,169.503v-9.279c7.241,0,13.133-11.75,13.133-26.196s-5.892-26.198-13.133-26.198v-9.278
					c45,0,64.243-2.286,65.535,35.477C221.541,173.587,193.523,169.503,154.652,169.503z"/>
				<path fill="#D79D95" d="M205.325,169.503v-9.279c7.241,0,13.132-11.75,13.132-26.196s-5.891-26.198-13.132-26.198v-9.278
					c9.806,0,19.197,15.915,19.197,35.477C224.522,153.59,215.131,169.503,205.325,169.503z"/>
				<path fill="#F8B4AA" stroke="#000000" stroke-width="1.5" stroke-miterlimit="10" d="M205.325,98.551
					c-12.039,0-48.605-0.462-50.823,0c-2.216,0.462-3.424,9.328,0.807,9.328c4.232,0,48.736-0.05,50.017-0.05
					S208.295,98.551,205.325,98.551z"/>
				<path fill="#F8B4AA" stroke="#000000" stroke-width="1.5" stroke-miterlimit="10" d="M205.325,160.224
					c-12.039,0-48.605-0.461-50.823,0c-2.216,0.463-3.424,9.33,0.807,9.33c4.232,0,48.736-0.051,50.017-0.051
					S208.295,160.224,205.325,160.224z"/>
			</g>
			<ellipse fill="#CC8D84" cx="127.437" cy="103.11" rx="5.016" ry="2.112"/>
			<ellipse fill="#CC8D84" cx="182.428" cy="103.11" rx="5.016" ry="2.112"/>
			<ellipse fill="#CC8D84" cx="127.437" cy="164.786" rx="5.016" ry="2.111"/>
			<ellipse fill="#CC8D84" cx="182.428" cy="164.786" rx="5.016" ry="2.111"/>
		</g>
		<g>
			<g>
				<path fill="#F9B39A" d="M205.121,169.503v-9.279c7.242,0,13.134-11.75,13.134-26.196s-5.892-26.198-13.134-26.198v-9.278
					c45.001,0,64.244-2.286,65.536,35.477C272.011,173.587,243.994,169.503,205.121,169.503z"/>
				<path fill="#D79D95" d="M255.795,169.503v-9.279c7.241,0,13.133-11.75,13.133-26.196s-5.892-26.198-13.133-26.198v-9.278
					c9.807,0,19.196,15.915,19.196,35.477C274.991,153.59,265.602,169.503,255.795,169.503z"/>
				<path fill="#F8B4AA" stroke="#000000" stroke-width="1.5" stroke-miterlimit="10" d="M255.795,98.551
					c-12.039,0-48.605-0.462-50.822,0s-3.426,9.328,0.806,9.328s48.735-0.05,50.017-0.05S258.765,98.551,255.795,98.551z"/>
				<path fill="#F8B4AA" stroke="#000000" stroke-width="1.5" stroke-miterlimit="10" d="M255.795,160.224
					c-12.039,0-48.605-0.461-50.822,0c-2.217,0.463-3.426,9.33,0.806,9.33s48.735-0.051,50.017-0.051
					S258.765,160.224,255.795,160.224z"/>
			</g>
			<g>
				<path fill="#F9B39A" d="M255.755,169.503v-9.279c7.241,0,13.134-11.75,13.134-26.196s-5.893-26.198-13.134-26.198v-9.278
					c45,0,64.243-2.286,65.536,35.477C322.645,173.587,294.627,169.503,255.755,169.503z"/>
				<path fill="#D79D95" d="M306.427,169.503v-9.279c7.242,0,13.134-11.75,13.134-26.196s-5.892-26.198-13.134-26.198v-9.278
					c9.807,0,19.197,15.915,19.197,35.477C325.624,153.59,316.233,169.503,306.427,169.503z"/>
				<path fill="#F8B4AA" stroke="#000000" stroke-width="1.5" stroke-miterlimit="10" d="M306.427,98.551
					c-12.037,0-48.604-0.462-50.821,0s-3.426,9.328,0.807,9.328c4.23,0,48.734-0.05,50.015-0.05
					C307.708,107.829,309.397,98.551,306.427,98.551z"/>
				<path fill="#F8B4AA" stroke="#000000" stroke-width="1.5" stroke-miterlimit="10" d="M306.427,160.224
					c-12.037,0-48.604-0.461-50.821,0c-2.217,0.463-3.426,9.33,0.807,9.33c4.23,0,48.734-0.051,50.015-0.051
					C307.708,169.503,309.397,160.224,306.427,160.224z"/>
			</g>
			<ellipse fill="#CC8D84" cx="228.54" cy="103.11" rx="5.015" ry="2.112"/>
			<ellipse fill="#CC8D84" cx="283.53" cy="103.11" rx="5.016" ry="2.112"/>
			<ellipse fill="#CC8D84" cx="228.54" cy="164.786" rx="5.015" ry="2.111"/>
			<ellipse fill="#CC8D84" cx="283.53" cy="164.786" rx="5.016" ry="2.111"/>
		</g>
		<g>
			<g>
				<path fill="#F9B39A" d="M306.225,169.503v-9.279c7.24,0,13.133-11.75,13.133-26.196s-5.893-26.198-13.133-26.198v-9.278
					c44.999,0,64.244-2.286,65.536,35.477C373.113,173.587,345.097,169.503,306.225,169.503z"/>
				<path fill="#D79D95" d="M356.896,169.503v-9.279c7.241,0,13.135-11.75,13.135-26.196s-5.894-26.198-13.135-26.198v-9.278
					c9.808,0,19.198,15.915,19.198,35.477C376.095,153.59,366.704,169.503,356.896,169.503z"/>
				<path fill="#F8B4AA" stroke="#000000" stroke-width="1.5" stroke-miterlimit="10" d="M356.896,98.551
					c-12.038,0-48.604-0.462-50.821,0s-3.425,9.328,0.807,9.328s48.735-0.05,50.015-0.05
					C358.179,107.829,359.867,98.551,356.896,98.551z"/>
				<path fill="#F8B4AA" stroke="#000000" stroke-width="1.5" stroke-miterlimit="10" d="M356.896,160.224
					c-12.038,0-48.604-0.461-50.821,0c-2.217,0.463-3.425,9.33,0.807,9.33s48.735-0.051,50.015-0.051
					C358.179,169.503,359.867,160.224,356.896,160.224z"/>
			</g>
			<g>
				<path fill="#F9B39A" d="M356.858,169.503v-9.279c7.241,0,13.132-11.75,13.132-26.196s-5.891-26.198-13.132-26.198v-9.278
					c44.999,0,64.243-2.286,65.534,35.477C423.747,173.587,395.73,169.503,356.858,169.503z"/>
				<path fill="#D79D95" d="M407.531,169.503v-9.279c7.241,0,13.132-11.75,13.132-26.196s-5.891-26.198-13.132-26.198v-9.278
					c9.806,0,19.195,15.915,19.195,35.477C426.727,153.59,417.337,169.503,407.531,169.503z"/>
				<path fill="#F8B4AA" stroke="#000000" stroke-width="1.5" stroke-miterlimit="10" d="M407.531,98.551
					c-12.039,0-48.605-0.462-50.823,0c-2.217,0.462-3.424,9.328,0.806,9.328c4.232,0,48.735-0.05,50.018-0.05
					C408.811,107.829,410.499,98.551,407.531,98.551z"/>
				<path fill="#F8B4AA" stroke="#000000" stroke-width="1.5" stroke-miterlimit="10" d="M407.531,160.224
					c-12.039,0-48.605-0.461-50.823,0c-2.217,0.463-3.424,9.33,0.806,9.33c4.232,0,48.735-0.051,50.018-0.051
					C408.811,169.503,410.499,160.224,407.531,160.224z"/>
			</g>
			<ellipse fill="#CC8D84" cx="329.643" cy="103.11" rx="5.015" ry="2.112"/>
			<ellipse fill="#CC8D84" cx="384.634" cy="103.11" rx="5.015" ry="2.112"/>
			<ellipse fill="#CC8D84" cx="329.643" cy="164.786" rx="5.015" ry="2.111"/>
			<ellipse fill="#CC8D84" cx="384.634" cy="164.786" rx="5.015" ry="2.111"/>
		</g>
		<g>
			<g>
				<path fill="#F9B39A" d="M407.327,169.503v-9.279c7.241,0,13.132-11.75,13.132-26.196s-5.891-26.198-13.132-26.198v-9.278
					c44.999,0,64.245-2.286,65.536,35.477C474.216,173.587,446.199,169.503,407.327,169.503z"/>
				<path fill="#D79D95" d="M458,169.503v-9.279c7.241,0,13.132-11.75,13.132-26.196s-5.891-26.198-13.132-26.198v-9.278
					c9.806,0,19.198,15.915,19.198,35.477C477.198,153.59,467.806,169.503,458,169.503z"/>
				<path fill="#F8B4AA" stroke="#000000" stroke-width="1.5" stroke-miterlimit="10" d="M429.388,98.38
					c-11.119-0.06-21.086-0.063-22.211,0.171c-2.217,0.462-3.424,9.328,0.809,9.328c4.229,0,48.734-0.05,50.015-0.05
					c1.282,0,2.971-9.278,0-9.278C452.068,98.551,440.185,98.438,429.388,98.38"/>
				<path fill="#F8B4AA" stroke="#000000" stroke-width="1.5" stroke-miterlimit="10" d="M458,160.224
					c-12.039,0-48.605-0.461-50.823,0c-2.217,0.463-3.424,9.33,0.809,9.33c4.229,0,48.734-0.051,50.015-0.051
					C459.282,169.503,460.971,160.224,458,160.224z"/>
			</g>
			<g>
				<path fill="#F9B39A" d="M457.959,169.503v-9.279c7.243,0,13.135-11.75,13.135-26.196s-5.892-26.198-13.135-26.198v-9.278
					c45.002,0,64.245-2.286,65.537,35.477C524.849,173.587,496.832,169.503,457.959,169.503z"/>
				
					<path fill="#D79D95" stroke="#000000" stroke-width="1.5" stroke-linecap="round" stroke-linejoin="round" stroke-miterlimit="10" d="
					M508.632,169.503v-9.279c7.243,0,13.135-11.75,13.135-26.196s-5.892-26.198-13.135-26.198v-9.278
					c9.808,0,19.198,15.915,19.198,35.477C527.83,153.59,518.439,169.503,508.632,169.503z"/>
				<path fill="#F8B4AA" stroke="#000000" stroke-width="1.5" stroke-miterlimit="10" d="M508.632,98.551
					c-12.038,0-48.604-0.462-50.82,0s-3.427,9.328,0.806,9.328s48.735-0.05,50.015-0.05
					C509.914,107.829,511.603,98.551,508.632,98.551z"/>
				<path fill="#F8B4AA" stroke="#000000" stroke-width="1.5" stroke-miterlimit="10" d="M508.632,160.224
					c-12.038,0-48.604-0.461-50.82,0c-2.217,0.463-3.427,9.33,0.806,9.33s48.735-0.051,50.015-0.051
					C509.914,169.503,511.603,160.224,508.632,160.224z"/>
			</g>
			<ellipse fill="#CC8D84" cx="430.745" cy="103.11" rx="5.016" ry="2.112"/>
			<ellipse fill="#CC8D84" cx="485.736" cy="103.11" rx="5.016" ry="2.112"/>
			<ellipse fill="#CC8D84" cx="430.745" cy="164.786" rx="5.016" ry="2.111"/>
			<ellipse fill="#CC8D84" cx="485.736" cy="164.786" rx="5.016" ry="2.111"/>
		</g>
	</g>
	<g>
		<g>
			<g>
				<path fill="#BAE1DB" d="M517.36,20.55h-68.188c-5.413,0-9.801-4.387-9.801-9.8c0-5.412,4.388-9.8,9.801-9.8h68.188
					c5.412,0,9.8,4.388,9.8,9.8C527.16,16.163,522.772,20.55,517.36,20.55z"/>
			</g>
			<path fill="none" stroke="#000000" stroke-width="1.47" stroke-miterlimit="10" d="M517.36,20.888h-68.188
				c-5.413,0-9.801-4.388-9.801-9.8c0-5.413,4.388-9.8,9.801-9.8h68.188c5.412,0,9.8,4.387,9.8,9.8
				C527.16,16.5,522.772,20.888,517.36,20.888z"/>
			<g>
				<path opacity="0.6" fill="#00A675" d="M491.41,10.75c0,2.792-3.647,5.059-8.145,5.059c-4.496,0-8.144-2.267-8.144-5.059
					c0-2.791,3.647-5.059,8.144-5.059C487.763,5.691,491.41,7.959,491.41,10.75z"/>
				<ellipse opacity="0.3" fill="#00A675" cx="482.51" cy="11.458" rx="6.427" ry="3.86"/>
				
					<radialGradient id="SVGID_1_" cx="485.2578" cy="8.7852" r="4.2772" gradientTransform="matrix(1 0 0 0.636 0 3.1982)" gradientUnits="userSpaceOnUse">
					<stop  offset="0.4731" style="stop-color:#7DCAB6"/>
					<stop  offset="1" style="stop-color:#00A675;stop-opacity:0"/>
				</radialGradient>
				<ellipse opacity="0.6" fill="url(#SVGID_1_)" cx="485.258" cy="8.786" rx="4.45" ry="2.672"/>
			</g>
		</g>
		<g>
			<g>
				<path fill="#BAE1DB" d="M444.339,20.55h-68.188c-5.412,0-9.8-4.387-9.8-9.8c0-5.412,4.388-9.8,9.8-9.8h68.188
					c5.412,0,9.801,4.388,9.801,9.8C454.14,16.163,449.751,20.55,444.339,20.55z"/>
			</g>
			<path fill="none" stroke="#000000" stroke-width="1.47" stroke-miterlimit="10" d="M444.339,20.888h-68.188
				c-5.412,0-9.8-4.388-9.8-9.8c0-5.413,4.388-9.8,9.8-9.8h68.188c5.412,0,9.801,4.387,9.801,9.8
				C454.14,16.5,449.751,20.888,444.339,20.888z"/>
			<g>
				<path opacity="0.6" fill="#00A675" d="M418.39,10.75c0,2.792-3.647,5.059-8.145,5.059c-4.496,0-8.144-2.267-8.144-5.059
					c0-2.791,3.647-5.059,8.144-5.059C414.742,5.691,418.39,7.959,418.39,10.75z"/>
				<ellipse opacity="0.3" fill="#00A675" cx="409.49" cy="11.458" rx="6.427" ry="3.86"/>
				
					<radialGradient id="SVGID_2_" cx="412.2373" cy="8.7852" r="4.2772" gradientTransform="matrix(1 0 0 0.636 0 3.1982)" gradientUnits="userSpaceOnUse">
					<stop  offset="0.4731" style="stop-color:#7DCAB6"/>
					<stop  offset="1" style="stop-color:#00A675;stop-opacity:0"/>
				</radialGradient>
				<ellipse opacity="0.6" fill="url(#SVGID_2_)" cx="412.237" cy="8.786" rx="4.45" ry="2.672"/>
			</g>
		</g>
		<g>
			<g>
				<path fill="#BAE1DB" d="M371.319,20.55h-68.188c-5.413,0-9.801-4.387-9.801-9.8c0-5.412,4.388-9.8,9.801-9.8h68.188
					c5.411,0,9.8,4.388,9.8,9.8C381.119,16.163,376.73,20.55,371.319,20.55z"/>
			</g>
			<path fill="none" stroke="#000000" stroke-width="1.47" stroke-miterlimit="10" d="M371.319,20.888h-68.188
				c-5.413,0-9.801-4.388-9.801-9.8c0-5.413,4.388-9.8,9.801-9.8h68.188c5.411,0,9.8,4.387,9.8,9.8
				C381.119,16.5,376.73,20.888,371.319,20.888z"/>
			<g>
				<path opacity="0.6" fill="#00A675" d="M345.369,10.75c0,2.792-3.647,5.059-8.145,5.059c-4.496,0-8.144-2.267-8.144-5.059
					c0-2.791,3.647-5.059,8.144-5.059C341.722,5.691,345.369,7.959,345.369,10.75z"/>
				<ellipse opacity="0.3" fill="#00A675" cx="336.469" cy="11.458" rx="6.427" ry="3.86"/>
				
					<radialGradient id="SVGID_3_" cx="339.2168" cy="8.7852" r="4.2772" gradientTransform="matrix(1 0 0 0.636 0 3.1982)" gradientUnits="userSpaceOnUse">
					<stop  offset="0.4731" style="stop-color:#7DCAB6"/>
					<stop  offset="1" style="stop-color:#00A675;stop-opacity:0"/>
				</radialGradient>
				<ellipse opacity="0.6" fill="url(#SVGID_3_)" cx="339.217" cy="8.786" rx="4.45" ry="2.672"/>
			</g>
		</g>
		<g>
			<g>
				<path fill="#BAE1DB" d="M298.298,20.55H230.11c-5.412,0-9.8-4.387-9.8-9.8c0-5.412,4.388-9.8,9.8-9.8h68.188
					c5.412,0,9.801,4.388,9.801,9.8C308.099,16.163,303.71,20.55,298.298,20.55z"/>
			</g>
			<path fill="none" stroke="#000000" stroke-width="1.47" stroke-miterlimit="10" d="M298.298,20.888H230.11
				c-5.412,0-9.8-4.388-9.8-9.8c0-5.413,4.388-9.8,9.8-9.8h68.188c5.412,0,9.801,4.387,9.801,9.8
				C308.099,16.5,303.71,20.888,298.298,20.888z"/>
			<g>
				<path opacity="0.6" fill="#00A675" d="M272.349,10.75c0,2.792-3.647,5.059-8.145,5.059c-4.496,0-8.144-2.267-8.144-5.059
					c0-2.791,3.647-5.059,8.144-5.059C268.701,5.691,272.349,7.959,272.349,10.75z"/>
				<ellipse opacity="0.3" fill="#00A675" cx="263.449" cy="11.458" rx="6.427" ry="3.86"/>
				
					<radialGradient id="SVGID_4_" cx="266.1963" cy="8.7852" r="4.2772" gradientTransform="matrix(1 0 0 0.636 0 3.1982)" gradientUnits="userSpaceOnUse">
					<stop  offset="0.4731" style="stop-color:#7DCAB6"/>
					<stop  offset="1" style="stop-color:#00A675;stop-opacity:0"/>
				</radialGradient>
				<ellipse opacity="0.6" fill="url(#SVGID_4_)" cx="266.196" cy="8.786" rx="4.45" ry="2.672"/>
			</g>
		</g>
		<g>
			<g>
				<path fill="#BAE1DB" d="M225.278,20.55h-68.188c-5.413,0-9.801-4.387-9.801-9.8c0-5.412,4.388-9.8,9.801-9.8h68.188
					c5.411,0,9.8,4.388,9.8,9.8C235.078,16.163,230.689,20.55,225.278,20.55z"/>
			</g>
			<path fill="none" stroke="#000000" stroke-width="1.47" stroke-miterlimit="10" d="M225.278,20.888h-68.188
				c-5.413,0-9.801-4.388-9.801-9.8c0-5.413,4.388-9.8,9.801-9.8h68.188c5.411,0,9.8,4.387,9.8,9.8
				C235.078,16.5,230.689,20.888,225.278,20.888z"/>
			<g>
				<path opacity="0.6" fill="#00A675" d="M199.328,10.75c0,2.792-3.647,5.059-8.145,5.059c-4.496,0-8.144-2.267-8.144-5.059
					c0-2.791,3.647-5.059,8.144-5.059C195.681,5.691,199.328,7.959,199.328,10.75z"/>
				<ellipse opacity="0.3" fill="#00A675" cx="190.428" cy="11.458" rx="6.427" ry="3.86"/>
				
					<radialGradient id="SVGID_5_" cx="193.1758" cy="8.7852" r="4.2772" gradientTransform="matrix(1 0 0 0.636 0 3.1982)" gradientUnits="userSpaceOnUse">
					<stop  offset="0.4731" style="stop-color:#7DCAB6"/>
					<stop  offset="1" style="stop-color:#00A675;stop-opacity:0"/>
				</radialGradient>
				<ellipse opacity="0.6" fill="url(#SVGID_5_)" cx="193.176" cy="8.786" rx="4.45" ry="2.672"/>
			</g>
		</g>
		<g>
			<g>
				<path fill="#BAE1DB" d="M152.257,20.55H84.069c-5.412,0-9.8-4.387-9.8-9.8c0-5.412,4.388-9.8,9.8-9.8h68.188
					c5.412,0,9.801,4.388,9.801,9.8C162.058,16.163,157.669,20.55,152.257,20.55z"/>
			</g>
			<path fill="none" stroke="#000000" stroke-width="1.47" stroke-miterlimit="10" d="M152.257,20.888H84.069
				c-5.412,0-9.8-4.388-9.8-9.8c0-5.413,4.388-9.8,9.8-9.8h68.188c5.412,0,9.801,4.387,9.801,9.8
				C162.058,16.5,157.669,20.888,152.257,20.888z"/>
			<g>
				<path opacity="0.6" fill="#00A675" d="M126.308,10.75c0,2.792-3.647,5.059-8.145,5.059c-4.496,0-8.144-2.267-8.144-5.059
					c0-2.791,3.647-5.059,8.144-5.059C122.66,5.691,126.308,7.959,126.308,10.75z"/>
				<ellipse opacity="0.3" fill="#00A675" cx="117.408" cy="11.458" rx="6.427" ry="3.86"/>
				
					<radialGradient id="SVGID_6_" cx="120.1553" cy="8.7852" r="4.2772" gradientTransform="matrix(1 0 0 0.636 0 3.1982)" gradientUnits="userSpaceOnUse">
					<stop  offset="0.4731" style="stop-color:#7DCAB6"/>
					<stop  offset="1" style="stop-color:#00A675;stop-opacity:0"/>
				</radialGradient>
				<ellipse opacity="0.6" fill="url(#SVGID_6_)" cx="120.155" cy="8.786" rx="4.45" ry="2.672"/>
			</g>
		</g>
		<g>
			<g>
				<path fill="#BAE1DB" d="M79.236,20.55H11.049c-5.412,0-9.8-4.387-9.8-9.8c0-5.412,4.388-9.8,9.8-9.8h68.188
					c5.412,0,9.801,4.388,9.801,9.8C89.037,16.163,84.648,20.55,79.236,20.55z"/>
			</g>
			<path fill="none" stroke="#000000" stroke-width="1.47" stroke-miterlimit="10" d="M79.236,20.888H11.049
				c-5.412,0-9.8-4.388-9.8-9.8c0-5.413,4.388-9.8,9.8-9.8h68.188c5.412,0,9.801,4.387,9.801,9.8
				C89.037,16.5,84.648,20.888,79.236,20.888z"/>
			<g>
				<path opacity="0.6" fill="#00A675" d="M53.287,10.75c0,2.792-3.647,5.059-8.145,5.059c-4.496,0-8.144-2.267-8.144-5.059
					c0-2.791,3.647-5.059,8.144-5.059C49.64,5.691,53.287,7.959,53.287,10.75z"/>
				<ellipse opacity="0.3" fill="#00A675" cx="44.387" cy="11.458" rx="6.427" ry="3.86"/>
				
					<radialGradient id="SVGID_7_" cx="47.1348" cy="8.7852" r="4.2772" gradientTransform="matrix(1 0 0 0.636 0 3.1982)" gradientUnits="userSpaceOnUse">
					<stop  offset="0.4731" style="stop-color:#7DCAB6"/>
					<stop  offset="1" style="stop-color:#00A675;stop-opacity:0"/>
				</radialGradient>
				<ellipse opacity="0.6" fill="url(#SVGID_7_)" cx="47.135" cy="8.786" rx="4.45" ry="2.672"/>
			</g>
		</g>
	</g>
</g>
</svg>
