<?xml version="1.0" encoding="utf-8"?>
<!-- Generator: Adobe Illustrator 16.0.0, SVG Export Plug-In . SVG Version: 6.00 Build 0)  -->
<!DOCTYPE svg PUBLIC "-//W3C//DTD SVG 1.1//EN" "http://www.w3.org/Graphics/SVG/1.1/DTD/svg11.dtd">
<svg version="1.1" id="Layer_1" xmlns="http://www.w3.org/2000/svg" xmlns:xlink="http://www.w3.org/1999/xlink" x="0px" y="0px"
	 width="284.097px" height="294.16px" viewBox="0 0 284.097 294.16" enable-background="new 0 0 284.097 294.16"
	 xml:space="preserve">
<path fill="none" stroke="#000000" stroke-width="0.5224" stroke-linecap="round" stroke-linejoin="round" stroke-miterlimit="10" d="
	M38.814,261.182c0,0,0.304,6.646,3.132,7.666"/>
<g>
	<path fill="#CC8A3A" d="M131.055,155.525c0,0,4.702,22.165-2.776,30.314c-2.901,3.161-31.535,12.376-41.824,36.721
		c-2.809,6.648-29.464,15.226-25.166,49.973c0,0-0.669-27.82,19.524-40.973c8.222-5.354,11.879-13.855,15.314-18.136
		c3.614-4.504,7.022-7.145,12.897-9.135c5.227-1.767,7.277,10.202,8.464,20.554c0.794,6.943,1.15,12.35,0.537,13.568
		c-1.531,3.034-4.406,4.561-7.121,8.999c-2.45,4.009-5.019,10.215-1.969,25.122c0,0,3.58-28.659,15.761-29.017
		c12.18-0.357,16.984,23.287,16.984,23.287s4.152-22.928-16.984-27.943c0,0-5.373-29.733-2.15-34.751
		c1.612-2.506,7.515-5.07,11.733-9.626c15.18-16.389,9.267-42.853,9.761-41.241S135.712,144.386,131.055,155.525z"/>
	
		<path fill="none" stroke="#000000" stroke-width="0.512" stroke-linecap="round" stroke-linejoin="round" stroke-miterlimit="10" d="
		M131.055,155.525c0,0,4.702,22.165-2.776,30.314c-2.901,3.161-31.535,12.376-41.824,36.721
		c-2.809,6.648-29.464,15.226-25.166,49.973c0,0-0.669-27.82,19.524-40.973c8.222-5.354,11.879-13.855,15.314-18.136
		c3.614-4.504,7.022-7.145,12.897-9.135c5.227-1.767,7.277,10.202,8.464,20.554c0.794,6.943,1.15,12.35,0.537,13.568
		c-1.531,3.034-4.406,4.561-7.121,8.999c-2.45,4.009-5.019,10.215-1.969,25.122c0,0,3.58-28.659,15.761-29.017
		c12.18-0.357,16.984,23.287,16.984,23.287s4.152-22.928-16.984-27.943c0,0-5.373-29.733-2.15-34.751
		c1.612-2.506,7.515-5.07,11.733-9.626c15.18-16.389,9.267-42.853,9.761-41.241S135.712,144.386,131.055,155.525z"/>
	<g>
		<path fill="#DDA447" d="M122.189,142.138V86.254c0,0,0.358-14.329,17.554-15.404c17.196-1.075,16.48,14.687,16.48,14.687v56.601
			c0,0,3.277,9.056,10.028,13.611c6.751,4.557,20.701,13.972,20.701,13.972s23.002,3.584,33.033,6.449
			c10.031,2.864,15.765-3.583,29.377,2.864c13.61,6.448,18.625-3.224,31.522,7.167c0,0-14.685-3.942-25.075-1.793
			s-12.179-5.017-22.568-4.299c-10.391,0.719-13.256,0.87-13.256,0.87l19.704,18.475c0,0,10.388-4.656,22.21,1.793
			c11.821,6.448,10.936,7.073,16.479,6.448c0,0-2.778,4.16-16.21-2.062c-16.475-7.629-19.973-1.521-19.973-1.521
			s1.156,5.056,5.464,8.507c4.308,3.45,16.389,14.421,16.389,14.421s-21.136-10.391-26.15-20.421s-16.481-20.421-23.285-23.286
			c-6.806-2.865-20.419-1.074-20.419-1.074s-5.018,18.988,22.211,37.258c0,0,6.806,2.148,5.729,11.463
			c-1.072,9.313,15.048,7.521,18.271,13.611c3.226,6.092,1.437,7.883,8.241,12.54l-6.805-4.657l2.863,15.404
			c0,0-3.583-21.495-11.821-24.002c-8.239-2.509-9.568-4.283-9.568-4.283s-0.846,4.974,0.568,10.64
			c1.758,7.067,5.896,15.137,6.494,15.137c1.072,0-13.615-11.463-10.392-35.106c0,0,1.434-3.94-10.387-9.671
			c-11.822-5.732-22.009-17.913-22.646-29.377c0,0-6.6,12.259-5.791,24.894c0.808,12.631,8.062,13.303,5.791,22.394
			c-2.503,10.012,1.432,19.704,3.659,21.493c0,0-7.299-1.03-7.299-19.971c0-3.076-1.555-4.89-1.656-9.045
			c0,0-0.646,7.953-8.018,15.224c-4.68,4.617-6.67,24.898-6.67,24.898s-2.039-22.745,3.984-27.182
			c6.023-4.438,8.866-11.017,5.688-19.389c-1.05-2.766-1.653-11.165,0.09-19.301c2.237-10.466,6.549-20.835,4.565-24.251
			c-4.508-7.78-22.925-22.363-33.671-25.944c-10.749-3.583-53.737,30.447-61.618,36.539c-7.881,6.087-18.629,12.896-19.344,17.195
			c-0.436,2.619,0.969,25.393-12.986,34.881c-10.075,6.852-12.753,20.181-10.658,21.717c5.374,3.941-2.507,21.493,1.792,25.793
			c0,0-2.167-1.569-2.956-6.806c-0.687-4.563,0.059-12.782-0.771-13.971c-0.797-1.142-3.261,0.437-5.14,1.209
			c-2.318,0.951-4.03,1.297-4.03,1.297s6.134-4.3,6.583-9.895c0.448-5.596-0.025-16.551,11.418-21.494
			c11.444-4.942,14.24-30.897,10.865-34.121c0,0-8.519-9.018-18.229,18.527c-3.651,10.355-17.965,8.973-19.906,13.848
			c-1.747,4.387,2.552,11.553-0.672,13.702c-1.831,1.221-4.712,3.359-7.12,7.12c-1.83,2.859-1.161,7.16-0.851,11.956
			c0,0-2.374-4.03-2.104-9.673c0.268-5.643,7.836-10.965,7.836-10.965s-2.6-17.271,4.971-17.835
			c16.254-1.209,16.611-33.397,35.151-33.889l23.285-17.195c0,0-34.392-2.509-39.048,0c-4.656,2.506-12.313,14.146-16.12,22.568
			c-1.918,4.242-4.925,4.388-7.612,15.001c-1.335,5.271,3.314,15.807-10.299,17.24c0,0,7.873,0.928,8.284-15.092
			c0.269-10.479,1.4-7.896,6.403-17.149c0,0-5.427-1.054-17.957,11.775c-4.035,4.134-1.388,10.076-1.388,10.076
			s-14.33-10.029,20.419-26.149c0,0,11.104-21.138,20.419-22.569c0,0-16.433-0.462-29.016-3.585c0,0,20.553,0.986,32.017,2.062
			c11.464,1.074,39.629,1.523,39.629,1.523s25.793-16.481,29.733-22.929C122.546,149.301,122.189,142.138,122.189,142.138z"/>
	</g>
	<g>
		<path fill="#D89E50" d="M20.362,220.546c2.687-10.613,5.693-10.759,7.612-15.001c3.808-8.423,11.464-20.063,16.12-22.568
			c4.27-2.301,33.51-0.386,38.351-0.051c1.205-0.994,2.44-1.946,3.737-2.812c0.767-0.513,1.566-0.968,2.354-1.442
			c-3.2-0.055-28.562-0.512-39.292-1.518c-11.464-1.075-32.017-2.062-32.017-2.062c12.583,3.123,29.016,3.585,29.016,3.585
			c-9.314,1.432-20.419,22.569-20.419,22.569c-34.75,16.12-20.419,26.149-20.419,26.149s-2.646-5.942,1.388-10.076
			c12.53-12.829,17.957-11.775,17.957-11.775c-5.002,9.253-6.134,6.671-6.403,17.149c-0.279,10.906-4.017,13.953-6.375,14.787
			C23.187,235.28,19.095,225.55,20.362,220.546z"/>
	</g>
	<g>
		<path fill="#CC8A3A" d="M102.736,170.579c6.063-3.958,11.458-8.79,17.413-12.889c4.846-3.336,10.335-6.379,12.982-11.935
			c2.709-5.682,3.468-12.01,1.771-18.086c-0.823-2.944-2.353-7.085-0.928-10.106c0.816-1.726,1.782-2.826,3.408-3.87
			c3.534-2.271-0.944-2.604-3.023-3.822c-1.451-0.849-0.978-3.08,0.071-4.034c1.801-1.64,4.11-2.638,6.524-2.946
			c1.448-0.185,6.653-0.511,2.627-1.141c-1.984-0.31-3.955-0.371-5.945-0.594c-6.905-0.771-11.165-7.42-8.717-13.832
			c1.222-3.196,4.804-5.78,8.096-6.392c2.549-0.473,5.068-0.546,7.644-0.796c4.139-0.401,6.301-1.627,9.153-3.384
			c-2.167-3.403-6.26-6.393-14.07-5.904c-17.195,1.075-17.554,15.404-17.554,15.404v55.884c0,0,0.357,7.163-3.583,13.611
			c-3.123,5.113-19.966,16.519-26.82,21.032C95.462,174.757,99.217,172.876,102.736,170.579z"/>
	</g>
	<g>
		<path fill="#CC8A3A" d="M62.45,213.882c-0.106-0.155-0.226-0.296-0.334-0.444c0.028,2.953-0.362,6.632-1.211,10.36
			C62.763,220.74,64.833,217.338,62.45,213.882z"/>
	</g>
	<g>
		<path fill="#CC8A3A" d="M48.958,243.248c2.682-2.295,6.27-4.713,7.628-8.166c-1.768,2.92-3.976,5.257-6.67,6.419
			c-10.961,4.736-10.99,14.97-11.368,20.745c0.379-1.86,0.909-3.638,1.684-5.477C42.232,252.014,44.969,246.66,48.958,243.248z"/>
	</g>
	<g>
		<path fill="#CC8A3A" d="M186.952,238.502c1.295-5.188-0.509-7.638-2.448-11.126c-0.864-0.736-1.698-1.482-2.46-2.264
			c-3.098-3.166-5.404-7.116-6.362-11.425c-0.207,4.906,0.28,9.057,0.959,10.844c3.179,8.372,0.336,14.95-5.688,19.389
			c-6.023,4.437-3.984,27.182-3.984,27.182s1.99-20.281,6.67-24.898c7.372-7.271,8.018-15.224,8.018-15.224
			c0.102,4.155,1.656,5.969,1.656,9.045c0,18.94,7.299,19.971,7.299,19.971C188.384,258.206,184.449,248.514,186.952,238.502z"/>
	</g>
	<g>
		<path fill="#CC8A3A" d="M240.404,244.591c-3.223-6.091-19.343-4.299-18.271-13.611c1.076-9.314-5.729-11.463-5.729-11.463
			c-3.682-2.471-6.754-4.952-9.349-7.399c-7.359-3.992-14.039-9.391-19.252-15.967c2.748,9.877,11.662,19.528,21.795,24.441
			c11.82,5.73,10.387,9.671,10.387,9.671c-2.546,18.674,6.059,29.716,9.267,33.546c-1.513-2.681-4.08-8.392-5.369-13.576
			c-1.414-5.666-0.568-10.64-0.568-10.64s1.329,1.774,9.568,4.283c7.084,2.155,10.721,18.337,11.605,22.835l-2.647-14.237
			l6.805,4.657C241.841,252.474,243.63,250.683,240.404,244.591z"/>
	</g>
	<g>
		<path fill="#CC8A3A" d="M243.067,206.522c-1.613-0.969-3.141-2.087-4.51-3.483c-3.55-3.618-6.385-7.029-10.226-9.341
			c3.813,3.913,7.328,8.451,9.565,12.921c5.015,10.03,26.15,20.421,26.15,20.421s-12.081-10.971-16.389-14.421
			C245.254,210.692,243.856,208.29,243.067,206.522z"/>
	</g>
	
		<path fill="none" stroke="#000000" stroke-width="2.1494" stroke-linecap="round" stroke-linejoin="round" stroke-miterlimit="10" d="
		M130.095,160.729"/>
	
		<path fill="none" stroke="#000000" stroke-width="2.1494" stroke-linecap="round" stroke-linejoin="round" stroke-miterlimit="10" d="
		M130.095,160.729"/>
	
		<path fill="none" stroke="#000000" stroke-width="0.512" stroke-linecap="round" stroke-linejoin="round" stroke-miterlimit="10" d="
		M108.89,199.727c0,0,4.651,5.021,5.988,10.643"/>
	
		<path fill="none" stroke="#000000" stroke-width="0.512" stroke-linecap="round" stroke-linejoin="round" stroke-miterlimit="10" d="
		M121.786,232.903c0,0-0.127,5.186-4.967,7.361"/>
	<path fill="none" stroke="#000000" stroke-width="0.735" stroke-miterlimit="10" d="M122.189,100.851c0,0,14.239,4.836,27.941,0"/>
	<path fill="none" stroke="#000000" stroke-width="0.735" stroke-miterlimit="10" d="M130.095,111.598
		c0,0,13.063,3.224,26.127-3.224"/>
	<path fill="none" stroke="#000000" stroke-width="0.735" stroke-miterlimit="10" d="M122.189,117.777c0,0,12.627,6.18,27.941,1.493
		"/>
	
		<path fill="none" stroke="#000000" stroke-width="0.512" stroke-linecap="round" stroke-linejoin="round" stroke-miterlimit="10" d="
		M239.663,199.864c0,0,0.339,0.529-3.154-1.082"/>
	
		<path fill="none" stroke="#000000" stroke-width="0.512" stroke-linecap="round" stroke-linejoin="round" stroke-miterlimit="10" d="
		M244.704,179.976c0,0,2.335,3.803,15.905,1.979"/>
	
		<path fill="none" stroke="#000000" stroke-width="0.512" stroke-linecap="round" stroke-linejoin="round" stroke-miterlimit="10" d="
		M92.257,180.658c0,0-0.007,2.663-10.093,2.157"/>
	
		<path fill="none" stroke="#000000" stroke-width="0.735" stroke-linecap="round" stroke-linejoin="round" stroke-miterlimit="10" d="
		M122.189,142.138V86.254c0,0,0.358-14.329,17.554-15.404c17.196-1.075,16.48,14.687,16.48,14.687v56.601
		c0,0,3.277,9.056,10.028,13.611c6.751,4.557,20.701,13.972,20.701,13.972s23.002,3.584,33.033,6.449
		c10.031,2.864,15.765-3.583,29.377,2.864c13.61,6.448,18.625-3.224,31.522,7.167c0,0-14.685-3.942-25.075-1.793
		s-12.179-5.017-22.568-4.299c-10.391,0.719-13.256,0.87-13.256,0.87l19.704,18.475c0,0,10.388-4.656,22.21,1.793
		c11.821,6.448,10.936,7.073,16.479,6.448c0,0-2.778,4.16-16.21-2.062c-16.475-7.629-19.973-1.521-19.973-1.521
		s1.156,5.056,5.464,8.507c4.308,3.45,16.389,14.421,16.389,14.421s-21.136-10.391-26.15-20.421s-16.481-20.421-23.285-23.286
		c-6.806-2.865-20.419-1.074-20.419-1.074s-5.018,18.988,22.211,37.258c0,0,6.806,2.148,5.729,11.463
		c-1.072,9.313,15.048,7.521,18.271,13.611c3.226,6.092,1.437,7.883,8.241,12.54l-6.805-4.657l2.863,15.404
		c0,0-3.583-21.495-11.821-24.002c-8.239-2.509-9.568-4.283-9.568-4.283s-0.846,4.974,0.568,10.64
		c1.758,7.067,5.896,15.137,6.494,15.137c1.072,0-13.615-11.463-10.392-35.106c0,0,1.434-3.94-10.387-9.671
		c-11.822-5.732-22.009-17.913-22.646-29.377c0,0-6.6,12.259-5.791,24.894c0.808,12.631,8.062,13.303,5.791,22.394
		c-2.503,10.012,1.432,19.704,3.659,21.493c0,0-7.299-1.03-7.299-19.971c0-3.076-1.555-4.89-1.656-9.045
		c0,0-0.646,7.953-8.018,15.224c-4.68,4.617-6.67,24.898-6.67,24.898s-2.039-22.745,3.984-27.182
		c6.023-4.438,8.866-11.017,5.688-19.389c-1.05-2.766-1.653-11.165,0.09-19.301c2.237-10.466,6.549-20.835,4.565-24.251
		c-4.508-7.78-22.925-22.363-33.671-25.944c-10.749-3.583-53.737,30.447-61.618,36.539c-7.881,6.087-18.629,12.896-19.344,17.195
		c-0.436,2.619,0.969,25.393-12.986,34.881c-10.075,6.852-12.753,20.181-10.658,21.717c5.374,3.941-2.507,21.493,1.792,25.793
		c0,0-2.167-1.569-2.956-6.806c-0.687-4.563,0.059-12.782-0.771-13.971c-0.797-1.142-3.261,0.437-5.14,1.209
		c-2.318,0.951-4.03,1.297-4.03,1.297s6.134-4.3,6.583-9.895c0.448-5.596-0.025-16.551,11.418-21.494
		c11.444-4.942,14.24-30.897,10.865-34.121c0,0-8.519-9.018-18.229,18.527c-3.651,10.355-17.965,8.973-19.906,13.848
		c-1.747,4.387,2.552,11.553-0.672,13.702c-1.831,1.221-4.712,3.359-7.12,7.12c-1.83,2.859-1.161,7.16-0.851,11.956
		c0,0-2.374-4.03-2.104-9.673c0.268-5.643,7.836-10.965,7.836-10.965s-2.6-17.271,4.971-17.835
		c16.254-1.209,16.611-33.397,35.151-33.889l23.285-17.195c0,0-34.392-2.509-39.048,0c-4.656,2.506-12.313,14.146-16.12,22.568
		c-1.918,4.242-4.925,4.388-7.612,15.001c-1.335,5.271,3.314,15.807-10.299,17.24c0,0,7.873,0.928,8.284-15.092
		c0.269-10.479,1.4-7.896,6.403-17.149c0,0-5.427-1.054-17.957,11.775c-4.035,4.134-1.388,10.076-1.388,10.076
		s-14.33-10.029,20.419-26.149c0,0,11.104-21.138,20.419-22.569c0,0-16.433-0.462-29.016-3.585c0,0,20.553,0.986,32.017,2.062
		c11.464,1.074,39.629,1.523,39.629,1.523s25.793-16.481,29.733-22.929C122.546,149.301,122.189,142.138,122.189,142.138z"/>
	
		<path fill="#76A647" stroke="#000000" stroke-width="0.735" stroke-linecap="round" stroke-linejoin="round" stroke-miterlimit="10" d="
		M151.516,17.631c-2.862,5.305-6.47,10.921-11.099,14.417c-2.232,1.685-3.031-8.129-3.222-10.041
		c-0.601-6.023,3.423-19.315,2.911-18.73c-7.499,8.583-7.777,20.87-7.397,32.233c-2.574-1.524-8.734-2.044-8.507-1.67
		c3.291,5.419,4.979,9.665,4.294,16.514c-0.322,3.211-0.963,6.584-0.59,9.832c0.77,6.651,4.414,13.406,10.116,15.968
		c0.268,0.12,20.232-2.151,9.578-29.892C144.367,37.847,152.024,16.693,151.516,17.631z"/>
	<path fill="#6E9A3D" d="M128.755,50.046c-0.288,3.11-0.86,6.377-0.527,9.525c0.287,2.694,1.044,5.385,2.175,7.81
		c2.203-2.086,4.14-4.414,5.604-7.083c2.906-5.302,2.926-11.951,0.637-18.122c-2.168-5.853-4.129-6.513-7.292-7.697
		c-2.255-0.534-4.562-0.671-4.43-0.433C127.859,39.296,129.365,43.41,128.755,50.046z"/>
	
		<path fill="#9AB847" stroke="#000000" stroke-width="0.735" stroke-linecap="round" stroke-linejoin="round" stroke-miterlimit="10" d="
		M131.028,75.173c-2.634-1.268,5.283,5.911,13.061,0l-30.104-50.501L131.028,75.173z"/>
	
		<path fill="#9AB847" stroke="#000000" stroke-width="0.735" stroke-linecap="round" stroke-linejoin="round" stroke-miterlimit="10" d="
		M147.201,75.173c2.632-1.268-9.583,5.911-17.362,0l34.404-50.501L147.201,75.173z"/>
	
		<path fill="#76A647" stroke="#000000" stroke-width="0.735" stroke-linecap="round" stroke-linejoin="round" stroke-miterlimit="10" d="
		M138.819,31.09c0,0,8.197,12.05,5.95,18.755"/>
	
		<path fill="none" stroke="#000000" stroke-width="0.735" stroke-linecap="round" stroke-linejoin="round" stroke-miterlimit="10" d="
		M132.709,35.51c0,0,10.349,10.352,2.915,25.459"/>
</g>
</svg>
