<?xml version="1.0" encoding="utf-8"?>
<!-- Generator: Adobe Illustrator 16.0.0, SVG Export Plug-In . SVG Version: 6.00 Build 0)  -->
<!DOCTYPE svg PUBLIC "-//W3C//DTD SVG 1.1//EN" "http://www.w3.org/Graphics/SVG/1.1/DTD/svg11.dtd">
<svg version="1.1" id="Layer_1" xmlns="http://www.w3.org/2000/svg" xmlns:xlink="http://www.w3.org/1999/xlink" x="0px" y="0px"
	 width="383.619px" height="383.62px" viewBox="0 0 383.619 383.62" enable-background="new 0 0 383.619 383.62"
	 xml:space="preserve">
<g>
	<defs>
		<circle id="SVGID_1_" cx="191.81" cy="191.811" r="191.31"/>
	</defs>
	<clipPath id="SVGID_2_">
		<use xlink:href="#SVGID_1_"  overflow="visible"/>
	</clipPath>
	<g clip-path="url(#SVGID_2_)">
		<circle fill="#E8E8E8" cx="191.81" cy="191.811" r="191.31"/>
		<g>
			<polygon fill="#CCCCCC" points="295.631,151.867 136.015,157.493 136.015,50.538 143.054,45.544 			"/>
			<g>
				<g>
					<g>
						<path fill="#FFFFFF" d="M297.564,149.935c0,1.062-0.87,1.933-1.934,1.933H143.054c-1.063,0-1.933-0.871-1.933-1.933V47.478
							c0-1.062,0.869-1.934,1.933-1.934h152.577c1.063,0,1.934,0.871,1.934,1.934V149.935z"/>
					</g>
					<linearGradient id="SVGID_3_" gradientUnits="userSpaceOnUse" x1="141.1211" y1="98.7056" x2="297.5645" y2="98.7056">
						<stop  offset="0" style="stop-color:#C6E9FA"/>
						<stop  offset="0.9967" style="stop-color:#A0C3E7"/>
					</linearGradient>
					<path opacity="0.8" fill="url(#SVGID_3_)" d="M297.564,149.935c0,1.062-0.87,1.933-1.934,1.933H143.054
						c-1.063,0-1.933-0.871-1.933-1.933V47.478c0-1.062,0.869-1.934,1.933-1.934h152.577c1.063,0,1.934,0.871,1.934,1.934V149.935z"
						/>
					<path fill="none" stroke="#000000" stroke-linecap="round" stroke-linejoin="round" stroke-miterlimit="10" d="
						M297.564,149.935c0,1.062-0.87,1.933-1.934,1.933H143.054c-1.063,0-1.933-0.871-1.933-1.933V47.478
						c0-1.062,0.869-1.934,1.933-1.934h152.577c1.063,0,1.934,0.871,1.934,1.934V149.935z"/>
					<linearGradient id="SVGID_4_" gradientUnits="userSpaceOnUse" x1="145.8442" y1="98.7061" x2="292.8418" y2="98.7061">
						<stop  offset="0" style="stop-color:#C6E9FA"/>
						<stop  offset="0.9967" style="stop-color:#A4C2D1"/>
					</linearGradient>
					<rect x="145.844" y="49.454" opacity="0.8" fill="url(#SVGID_4_)" width="146.998" height="98.504"/>
					<linearGradient id="SVGID_5_" gradientUnits="userSpaceOnUse" x1="144.3965" y1="98.7061" x2="294.2891" y2="98.7061">
						<stop  offset="0" style="stop-color:#C6E9FA"/>
						<stop  offset="0.9967" style="stop-color:#A0C3E7"/>
					</linearGradient>
					<path opacity="0.8" fill="url(#SVGID_5_)" d="M154.01,48.629c-1.063,0-2.548,0.614-3.299,1.365l-4.948,4.949
						c-0.751,0.752-1.367,2.237-1.367,3.3v88.607c0,1.063,0.87,1.933,1.932,1.933h146.027c1.063,0,1.934-0.869,1.934-1.933V50.562
						c0-1.064-0.87-1.934-1.934-1.934H154.01z"/>
					<path fill="none" stroke="#000000" stroke-linecap="round" stroke-linejoin="round" stroke-miterlimit="10" d="M154.01,48.629
						c-1.063,0-2.548,0.614-3.299,1.365l-4.948,4.949c-0.751,0.752-1.367,2.237-1.367,3.3v88.607c0,1.063,0.87,1.933,1.932,1.933
						h146.027c1.063,0,1.934-0.869,1.934-1.933V50.562c0-1.064-0.87-1.934-1.934-1.934H154.01z"/>
					<path fill="#C6E9FA" d="M149.066,144.939V59.588c0-0.451,0.365-1.33,0.684-1.648l4.783-4.783
						c0.319-0.319,1.197-0.684,1.648-0.684h133.437v92.467H149.066z"/>
					<g>
						<g>
							
								<circle fill="#FFFFFF" stroke="#000000" stroke-linecap="round" stroke-linejoin="round" stroke-miterlimit="10" cx="162.935" cy="131.167" r="15.635"/>
							<linearGradient id="SVGID_6_" gradientUnits="userSpaceOnUse" x1="148.0771" y1="131.168" x2="177.792" y2="131.168">
								<stop  offset="0" style="stop-color:#C6E9FA"/>
								<stop  offset="0.9967" style="stop-color:#A0C3E7"/>
							</linearGradient>
							<circle fill="url(#SVGID_6_)" cx="162.935" cy="131.167" r="14.856"/>
							<circle fill="#C6E9FA" cx="162.935" cy="131.168" r="12.182"/>
						</g>
						<g>
							
								<circle fill="#FFFFFF" stroke="#000000" stroke-linecap="round" stroke-linejoin="round" stroke-miterlimit="10" cx="200.541" cy="131.167" r="15.634"/>
							<linearGradient id="SVGID_7_" gradientUnits="userSpaceOnUse" x1="185.6826" y1="131.168" x2="215.3975" y2="131.168">
								<stop  offset="0" style="stop-color:#C6E9FA"/>
								<stop  offset="0.9967" style="stop-color:#A0C3E7"/>
							</linearGradient>
							<circle fill="url(#SVGID_7_)" cx="200.54" cy="131.167" r="14.856"/>
							<circle fill="#C6E9FA" cx="200.541" cy="131.168" r="12.182"/>
						</g>
						<g>
							
								<circle fill="#FFFFFF" stroke="#000000" stroke-linecap="round" stroke-linejoin="round" stroke-miterlimit="10" cx="238.145" cy="131.167" r="15.634"/>
							<linearGradient id="SVGID_8_" gradientUnits="userSpaceOnUse" x1="223.2881" y1="131.168" x2="253.0029" y2="131.168">
								<stop  offset="0" style="stop-color:#C6E9FA"/>
								<stop  offset="0.9967" style="stop-color:#A0C3E7"/>
							</linearGradient>
							<circle fill="url(#SVGID_8_)" cx="238.146" cy="131.167" r="14.855"/>
							<circle fill="#C6E9FA" cx="238.146" cy="131.168" r="12.182"/>
						</g>
						<g>
							
								<circle fill="#FFFFFF" stroke="#000000" stroke-linecap="round" stroke-linejoin="round" stroke-miterlimit="10" cx="275.751" cy="131.167" r="15.634"/>
							<linearGradient id="SVGID_9_" gradientUnits="userSpaceOnUse" x1="260.8926" y1="131.168" x2="290.6084" y2="131.168">
								<stop  offset="0" style="stop-color:#C6E9FA"/>
								<stop  offset="0.9967" style="stop-color:#A0C3E7"/>
							</linearGradient>
							<circle fill="url(#SVGID_9_)" cx="275.75" cy="131.167" r="14.856"/>
							<circle fill="#C6E9FA" cx="275.751" cy="131.168" r="12.182"/>
						</g>
					</g>
					<g>
						<g>
							
								<circle fill="#FFFFFF" stroke="#000000" stroke-linecap="round" stroke-linejoin="round" stroke-miterlimit="10" cx="162.935" cy="98.282" r="15.634"/>
							<linearGradient id="SVGID_10_" gradientUnits="userSpaceOnUse" x1="148.0771" y1="98.2812" x2="177.792" y2="98.2812">
								<stop  offset="0" style="stop-color:#C6E9FA"/>
								<stop  offset="0.9967" style="stop-color:#A0C3E7"/>
							</linearGradient>
							<circle fill="url(#SVGID_10_)" cx="162.935" cy="98.281" r="14.856"/>
							<circle fill="#C6E9FA" cx="162.935" cy="98.282" r="12.182"/>
						</g>
						<g>
							
								<circle fill="#FFFFFF" stroke="#000000" stroke-linecap="round" stroke-linejoin="round" stroke-miterlimit="10" cx="200.541" cy="98.282" r="15.633"/>
							<linearGradient id="SVGID_11_" gradientUnits="userSpaceOnUse" x1="185.6826" y1="98.2812" x2="215.3975" y2="98.2812">
								<stop  offset="0" style="stop-color:#C6E9FA"/>
								<stop  offset="0.9967" style="stop-color:#A0C3E7"/>
							</linearGradient>
							<circle fill="url(#SVGID_11_)" cx="200.54" cy="98.281" r="14.856"/>
							<circle fill="#C6E9FA" cx="200.54" cy="98.282" r="12.182"/>
						</g>
						<g>
							
								<circle fill="#FFFFFF" stroke="#000000" stroke-linecap="round" stroke-linejoin="round" stroke-miterlimit="10" cx="238.145" cy="98.282" r="15.633"/>
							<linearGradient id="SVGID_12_" gradientUnits="userSpaceOnUse" x1="223.2881" y1="98.2812" x2="253.0029" y2="98.2812">
								<stop  offset="0" style="stop-color:#C6E9FA"/>
								<stop  offset="0.9967" style="stop-color:#A0C3E7"/>
							</linearGradient>
							<circle fill="url(#SVGID_12_)" cx="238.146" cy="98.281" r="14.855"/>
							<circle fill="#C6E9FA" cx="238.146" cy="98.282" r="12.182"/>
						</g>
						<g>
							
								<circle fill="#FFFFFF" stroke="#000000" stroke-linecap="round" stroke-linejoin="round" stroke-miterlimit="10" cx="275.751" cy="98.282" r="15.634"/>
							<linearGradient id="SVGID_13_" gradientUnits="userSpaceOnUse" x1="260.8926" y1="98.2812" x2="290.6084" y2="98.2812">
								<stop  offset="0" style="stop-color:#C6E9FA"/>
								<stop  offset="0.9967" style="stop-color:#A0C3E7"/>
							</linearGradient>
							<circle fill="url(#SVGID_13_)" cx="275.75" cy="98.281" r="14.856"/>
							<circle fill="#C6E9FA" cx="275.75" cy="98.282" r="12.182"/>
						</g>
					</g>
					<g>
						<g>
							
								<circle fill="#FFFFFF" stroke="#000000" stroke-linecap="round" stroke-linejoin="round" stroke-miterlimit="10" cx="162.935" cy="65.396" r="15.635"/>
							<linearGradient id="SVGID_14_" gradientUnits="userSpaceOnUse" x1="148.0771" y1="65.3955" x2="177.792" y2="65.3955">
								<stop  offset="0" style="stop-color:#C6E9FA"/>
								<stop  offset="0.9967" style="stop-color:#A0C3E7"/>
							</linearGradient>
							<circle fill="url(#SVGID_14_)" cx="162.935" cy="65.395" r="14.856"/>
							<path fill="#C6E9FA" d="M173.35,71.715c-3.491,5.753-10.984,7.585-16.735,4.095c-5.751-3.489-7.583-10.982-4.093-16.735
								c3.491-5.749,10.983-7.582,16.735-4.092C175.006,58.474,176.84,65.964,173.35,71.715z"/>
						</g>
						<g>
							
								<circle fill="#FFFFFF" stroke="#000000" stroke-linecap="round" stroke-linejoin="round" stroke-miterlimit="10" cx="200.541" cy="65.396" r="15.634"/>
							<linearGradient id="SVGID_15_" gradientUnits="userSpaceOnUse" x1="185.6826" y1="65.3955" x2="215.3975" y2="65.3955">
								<stop  offset="0" style="stop-color:#C6E9FA"/>
								<stop  offset="0.9967" style="stop-color:#A0C3E7"/>
							</linearGradient>
							<circle fill="url(#SVGID_15_)" cx="200.54" cy="65.395" r="14.856"/>
							<path fill="#C6E9FA" d="M210.953,71.715c-3.489,5.753-10.981,7.585-16.733,4.095c-5.752-3.489-7.583-10.982-4.094-16.735
								c3.491-5.749,10.982-7.582,16.733-4.092C212.61,58.474,214.443,65.964,210.953,71.715z"/>
						</g>
						<g>
							
								<circle fill="#FFFFFF" stroke="#000000" stroke-linecap="round" stroke-linejoin="round" stroke-miterlimit="10" cx="238.145" cy="65.396" r="15.634"/>
							<linearGradient id="SVGID_16_" gradientUnits="userSpaceOnUse" x1="223.2881" y1="65.3955" x2="253.0029" y2="65.3955">
								<stop  offset="0" style="stop-color:#C6E9FA"/>
								<stop  offset="0.9967" style="stop-color:#A0C3E7"/>
							</linearGradient>
							<circle fill="url(#SVGID_16_)" cx="238.146" cy="65.395" r="14.855"/>
							<path fill="#C6E9FA" d="M248.56,71.715c-3.492,5.753-10.983,7.585-16.735,4.095c-5.751-3.489-7.583-10.982-4.093-16.735
								c3.49-5.749,10.982-7.582,16.733-4.092C250.217,58.474,252.049,65.964,248.56,71.715z"/>
						</g>
						<g>
							
								<circle fill="#FFFFFF" stroke="#000000" stroke-linecap="round" stroke-linejoin="round" stroke-miterlimit="10" cx="275.751" cy="65.396" r="15.635"/>
							<linearGradient id="SVGID_17_" gradientUnits="userSpaceOnUse" x1="260.8926" y1="65.3955" x2="290.6084" y2="65.3955">
								<stop  offset="0" style="stop-color:#C6E9FA"/>
								<stop  offset="0.9967" style="stop-color:#A0C3E7"/>
							</linearGradient>
							<circle fill="url(#SVGID_17_)" cx="275.75" cy="65.395" r="14.856"/>
							<path fill="#C6E9FA" d="M286.164,71.715c-3.491,5.753-10.983,7.585-16.734,4.095c-5.751-3.489-7.584-10.982-4.094-16.735
								c3.491-5.749,10.983-7.582,16.734-4.092C287.822,58.474,289.654,65.964,286.164,71.715z"/>
						</g>
					</g>
				</g>
				<g>
					<path fill="#DDDDDD" d="M150.859,102.145c-0.287-1.193,0.789-2.476,2.405-2.866l18.112-4.368
						c1.618-0.39,3.161,0.263,3.448,1.455c0.288,1.194-0.788,2.476-2.405,2.867l-18.113,4.368
						C152.69,103.988,151.147,103.34,150.859,102.145z"/>
					<path fill="#FFFFFF" d="M166.408,98.396c-0.159-0.661,0.436-1.37,1.33-1.586l3.996-0.965c0.893-0.217,1.746,0.146,1.904,0.806
						c0.161,0.659-0.436,1.368-1.328,1.585l-3.996,0.963C167.42,99.417,166.568,99.053,166.408,98.396z"/>
					<path fill="none" stroke="#000000" stroke-linecap="round" stroke-linejoin="round" stroke-miterlimit="10" d="
						M150.859,102.145c-0.287-1.193,0.789-2.476,2.405-2.866l18.112-4.368c1.618-0.39,3.161,0.263,3.448,1.455
						c0.288,1.194-0.788,2.476-2.405,2.867l-18.113,4.368C152.69,103.988,151.147,103.34,150.859,102.145z"/>
				</g>
				<g>
					<path fill="#DDDDDD" d="M263.768,102.145c-0.287-1.193,0.789-2.476,2.406-2.866l18.113-4.368
						c1.617-0.39,3.16,0.263,3.447,1.455c0.288,1.194-0.789,2.476-2.405,2.867l-18.113,4.368
						C265.599,103.988,264.056,103.34,263.768,102.145z"/>
					<path fill="#FFFFFF" d="M279.315,98.396c-0.159-0.661,0.436-1.37,1.331-1.586l3.996-0.965c0.893-0.217,1.746,0.146,1.904,0.806
						c0.162,0.659-0.437,1.368-1.328,1.585l-3.995,0.963C280.328,99.417,279.477,99.053,279.315,98.396z"/>
					<path fill="none" stroke="#000000" stroke-linecap="round" stroke-linejoin="round" stroke-miterlimit="10" d="
						M263.768,102.145c-0.287-1.193,0.789-2.476,2.406-2.866l18.113-4.368c1.617-0.39,3.16,0.263,3.447,1.455
						c0.288,1.194-0.789,2.476-2.405,2.867l-18.113,4.368C265.599,103.988,264.056,103.34,263.768,102.145z"/>
				</g>
				<g>
					<path fill="#DDDDDD" d="M191.965,108.109c-0.882-0.857-0.658-2.514,0.498-3.709l12.961-13.385
						c1.158-1.194,2.811-1.471,3.691-0.616c0.884,0.854,0.66,2.514-0.496,3.709l-12.963,13.386
						C194.498,108.686,192.848,108.964,191.965,108.109z"/>
					<path fill="#FFFFFF" d="M203.092,96.622c-0.487-0.474-0.365-1.391,0.275-2.052l2.859-2.955c0.639-0.66,1.553-0.812,2.04-0.34
						c0.489,0.473,0.364,1.391-0.274,2.051l-2.859,2.953C204.492,96.941,203.579,97.09,203.092,96.622z"/>
					<path fill="none" stroke="#000000" stroke-linecap="round" stroke-linejoin="round" stroke-miterlimit="10" d="
						M191.965,108.109c-0.882-0.857-0.658-2.514,0.498-3.709l12.961-13.385c1.158-1.194,2.811-1.471,3.691-0.616
						c0.884,0.854,0.66,2.514-0.496,3.709l-12.963,13.386C194.498,108.686,192.848,108.964,191.965,108.109z"/>
				</g>
				<g>
					<path fill="#DDDDDD" d="M227.151,93.681c0.558-1.097,2.207-1.372,3.689-0.621l16.62,8.424c1.483,0.753,2.234,2.248,1.68,3.343
						c-0.555,1.097-2.205,1.374-3.689,0.623l-16.621-8.426C227.35,96.271,226.596,94.776,227.151,93.681z"/>
					<path fill="#FFFFFF" d="M241.416,100.914c0.309-0.607,1.221-0.762,2.042-0.346l3.667,1.859
						c0.819,0.413,1.234,1.241,0.928,1.848c-0.306,0.605-1.221,0.759-2.04,0.344l-3.665-1.858
						C241.525,102.345,241.112,101.516,241.416,100.914z"/>
					<path fill="none" stroke="#000000" stroke-linecap="round" stroke-linejoin="round" stroke-miterlimit="10" d="M227.151,93.681
						c0.558-1.097,2.207-1.372,3.689-0.621l16.62,8.424c1.483,0.753,2.234,2.248,1.68,3.343c-0.555,1.097-2.205,1.374-3.689,0.623
						l-16.621-8.426C227.35,96.271,226.596,94.776,227.151,93.681z"/>
				</g>
				<circle opacity="0.8" fill="#D94732" cx="275.75" cy="98.282" r="13.603"/>
				<circle opacity="0.8" fill="#D94732" cx="238.145" cy="98.282" r="13.604"/>
				<circle opacity="0.8" fill="#D94732" cx="200.541" cy="98.282" r="13.604"/>
				<circle opacity="0.8" fill="#D94732" cx="162.935" cy="98.282" r="13.604"/>
			</g>
		</g>
		<g>
			<polygon fill="#CCCCCC" points="293.408,334.278 133.792,339.904 133.792,232.949 140.831,227.955 			"/>
			<g>
				<g>
					<g>
						<path fill="#FFFFFF" d="M295.012,332.346c0,1.063-0.871,1.933-1.934,1.933H140.5c-1.063,0-1.932-0.869-1.932-1.933V229.889
							c0-1.06,0.869-1.934,1.932-1.934h152.578c1.062,0,1.934,0.874,1.934,1.934V332.346z"/>
					</g>
					<linearGradient id="SVGID_18_" gradientUnits="userSpaceOnUse" x1="138.5679" y1="281.1172" x2="295.0117" y2="281.1172">
						<stop  offset="0" style="stop-color:#C6E9FA"/>
						<stop  offset="0.9967" style="stop-color:#A4C2D1"/>
					</linearGradient>
					<path opacity="0.8" fill="url(#SVGID_18_)" d="M295.012,332.346c0,1.063-0.871,1.933-1.934,1.933H140.5
						c-1.063,0-1.932-0.869-1.932-1.933V229.889c0-1.06,0.869-1.934,1.932-1.934h152.578c1.062,0,1.934,0.874,1.934,1.934V332.346z"
						/>
					<path fill="none" stroke="#000000" stroke-linecap="round" stroke-linejoin="round" stroke-miterlimit="10" d="
						M295.012,332.346c0,1.063-0.871,1.933-1.934,1.933H140.5c-1.063,0-1.932-0.869-1.932-1.933V229.889
						c0-1.06,0.869-1.934,1.932-1.934h152.578c1.062,0,1.934,0.874,1.934,1.934V332.346z"/>
					<linearGradient id="SVGID_19_" gradientUnits="userSpaceOnUse" x1="143.2905" y1="281.1172" x2="290.2871" y2="281.1172">
						<stop  offset="0" style="stop-color:#C6E9FA"/>
						<stop  offset="0.9967" style="stop-color:#A4C2D1"/>
					</linearGradient>
					<rect x="143.291" y="231.865" opacity="0.8" fill="url(#SVGID_19_)" width="146.997" height="98.504"/>
					<linearGradient id="SVGID_20_" gradientUnits="userSpaceOnUse" x1="141.8423" y1="281.1172" x2="291.7344" y2="281.1172">
						<stop  offset="0" style="stop-color:#C6E9FA"/>
						<stop  offset="0.9967" style="stop-color:#A4C2D1"/>
					</linearGradient>
					<path opacity="0.8" fill="url(#SVGID_20_)" d="M151.457,231.04c-1.063,0-2.548,0.613-3.301,1.365l-4.946,4.949
						c-0.752,0.752-1.368,2.235-1.368,3.299v88.608c0,1.063,0.87,1.933,1.933,1.933h146.028c1.062,0,1.932-0.869,1.932-1.933v-96.29
						c0-1.062-0.869-1.932-1.932-1.932H151.457z"/>
					<path fill="none" stroke="#000000" stroke-linecap="round" stroke-linejoin="round" stroke-miterlimit="10" d="M151.457,231.04
						c-1.063,0-2.548,0.613-3.301,1.365l-4.946,4.949c-0.752,0.752-1.368,2.235-1.368,3.299v88.608c0,1.063,0.87,1.933,1.933,1.933
						h146.028c1.062,0,1.932-0.869,1.932-1.933v-96.29c0-1.062-0.869-1.932-1.932-1.932H151.457z"/>
					<path fill="#C6E9FA" d="M146.514,327.352v-85.353c0-0.451,0.363-1.329,0.683-1.648l4.784-4.785
						c0.319-0.317,1.197-0.68,1.647-0.68h133.437v92.466H146.514z"/>
					<g>
						
							<circle fill="#FFFFFF" stroke="#000000" stroke-linecap="round" stroke-linejoin="round" stroke-miterlimit="10" cx="167.359" cy="258.859" r="22.264"/>
						<linearGradient id="SVGID_21_" gradientUnits="userSpaceOnUse" x1="146.2002" y1="258.8594" x2="188.5166" y2="258.8594">
							<stop  offset="0" style="stop-color:#C6E9FA"/>
							<stop  offset="0.9967" style="stop-color:#A4C2D1"/>
						</linearGradient>
						<path fill="url(#SVGID_21_)" d="M185.443,269.834c-6.062,9.988-19.073,13.171-29.061,7.108
							c-9.988-6.062-13.171-19.074-7.109-29.061c6.062-9.987,19.072-13.17,29.061-7.107
							C188.322,246.833,191.506,259.846,185.443,269.834z"/>
						<path fill="#C6E9FA" d="M181.795,267.619c-4.973,8.189-15.64,10.801-23.831,5.829c-8.19-4.972-10.801-15.641-5.831-23.831
							c4.971-8.188,15.64-10.8,23.831-5.829C184.154,248.76,186.765,259.429,181.795,267.619z"/>
						<path opacity="0.8" fill="#D94732" d="M174.743,254.905c4.491-0.904-15.116,0.344-19.7,2.242
							c-4.584,1.899-6.589,5.295-4.587,8.273c2.001,2.977,7.287,5.106,11.756,1.803c4.468-3.305,9.617-5.594,14.262-6.297
							c4.646-0.708,5.778-2.45,5.936-3.779c0.159-1.326-4.738,0.736-9.479,2.877c-4.741,2.14-15.732,5.574-16.593,3.273
							C155.475,260.998,157.591,258.352,174.743,254.905z"/>
					</g>
					<g>
						
							<circle fill="#FFFFFF" stroke="#000000" stroke-linecap="round" stroke-linejoin="round" stroke-miterlimit="10" cx="216.642" cy="258.859" r="22.265"/>
						<linearGradient id="SVGID_22_" gradientUnits="userSpaceOnUse" x1="195.4844" y1="258.8594" x2="237.8008" y2="258.8594">
							<stop  offset="0" style="stop-color:#C6E9FA"/>
							<stop  offset="0.9967" style="stop-color:#A4C2D1"/>
						</linearGradient>
						<path fill="url(#SVGID_22_)" d="M234.728,269.834c-6.062,9.988-19.073,13.171-29.062,7.108
							c-9.988-6.062-13.17-19.074-7.107-29.061c6.062-9.987,19.071-13.17,29.061-7.107
							C237.605,246.833,240.79,259.846,234.728,269.834z"/>
						<path fill="#C6E9FA" d="M231.078,267.619c-4.971,8.189-15.641,10.801-23.83,5.829s-10.801-15.641-5.831-23.831
							c4.972-8.188,15.642-10.8,23.831-5.829C233.439,248.76,236.049,259.429,231.078,267.619z"/>
					</g>
					<g>
						
							<circle fill="#FFFFFF" stroke="#000000" stroke-linecap="round" stroke-linejoin="round" stroke-miterlimit="10" cx="265.927" cy="258.859" r="22.265"/>
						<linearGradient id="SVGID_23_" gradientUnits="userSpaceOnUse" x1="244.7686" y1="258.8594" x2="287.085" y2="258.8594">
							<stop  offset="0" style="stop-color:#C6E9FA"/>
							<stop  offset="0.9967" style="stop-color:#A4C2D1"/>
						</linearGradient>
						<path fill="url(#SVGID_23_)" d="M284.012,269.834c-6.061,9.988-19.072,13.171-29.062,7.108
							c-9.987-6.062-13.171-19.074-7.108-29.061c6.062-9.987,19.072-13.17,29.061-7.107
							C286.89,246.833,290.074,259.846,284.012,269.834z"/>
						<path fill="#C6E9FA" d="M280.361,267.619c-4.971,8.189-15.64,10.801-23.83,5.829c-8.189-4.972-10.8-15.641-5.828-23.831
							c4.971-8.188,15.639-10.8,23.83-5.829C282.723,248.76,285.334,259.429,280.361,267.619z"/>
					</g>
					<g>
						<path fill="#FFFFFF" stroke="#000000" stroke-linecap="round" stroke-linejoin="round" stroke-miterlimit="10" d="
							M186.392,316.795c-6.38,10.511-20.073,13.863-30.585,7.479c-10.511-6.376-13.86-20.07-7.48-30.584
							c6.379-10.51,20.073-13.859,30.584-7.48C189.421,292.588,192.771,306.284,186.392,316.795z"/>
						<linearGradient id="SVGID_24_" gradientUnits="userSpaceOnUse" x1="146.2002" y1="305.2432" x2="188.5166" y2="305.2432">
							<stop  offset="0" style="stop-color:#C6E9FA"/>
							<stop  offset="0.9967" style="stop-color:#A4C2D1"/>
						</linearGradient>
						<path fill="url(#SVGID_24_)" d="M185.443,316.218c-6.062,9.991-19.073,13.171-29.061,7.109
							c-9.988-6.062-13.171-19.072-7.109-29.061c6.062-9.986,19.072-13.168,29.061-7.109
							C188.322,293.22,191.506,306.231,185.443,316.218z"/>
						<circle fill="#C6E9FA" cx="166.964" cy="305.004" r="17.348"/>
					</g>
					<g>
						<path fill="#FFFFFF" stroke="#000000" stroke-linecap="round" stroke-linejoin="round" stroke-miterlimit="10" d="
							M235.676,316.795c-6.381,10.511-20.072,13.863-30.585,7.479c-10.512-6.376-13.861-20.07-7.482-30.584
							c6.38-10.51,20.074-13.859,30.585-7.48C238.705,292.588,242.056,306.284,235.676,316.795z"/>
						<linearGradient id="SVGID_25_" gradientUnits="userSpaceOnUse" x1="195.4844" y1="305.2432" x2="237.8008" y2="305.2432">
							<stop  offset="0" style="stop-color:#C6E9FA"/>
							<stop  offset="0.9967" style="stop-color:#A4C2D1"/>
						</linearGradient>
						<path fill="url(#SVGID_25_)" d="M234.728,316.218c-6.062,9.991-19.073,13.171-29.062,7.109
							c-9.988-6.062-13.17-19.072-7.107-29.061c6.062-9.986,19.071-13.168,29.061-7.109
							C237.605,293.22,240.79,306.231,234.728,316.218z"/>
						<circle fill="#C6E9FA" cx="216.248" cy="305.004" r="17.348"/>
					</g>
					<g>
						<path fill="#FFFFFF" stroke="#000000" stroke-linecap="round" stroke-linejoin="round" stroke-miterlimit="10" d="
							M284.961,316.795c-6.38,10.511-20.074,13.863-30.586,7.479c-10.512-6.376-13.861-20.07-7.481-30.584
							c6.38-10.51,20.073-13.859,30.585-7.48S291.34,306.284,284.961,316.795z"/>
						<linearGradient id="SVGID_26_" gradientUnits="userSpaceOnUse" x1="244.7686" y1="305.2432" x2="287.085" y2="305.2432">
							<stop  offset="0" style="stop-color:#C6E9FA"/>
							<stop  offset="0.9967" style="stop-color:#A4C2D1"/>
						</linearGradient>
						<path fill="url(#SVGID_26_)" d="M284.012,316.218c-6.061,9.991-19.072,13.171-29.062,7.109
							c-9.987-6.062-13.171-19.072-7.108-29.061c6.062-9.986,19.072-13.168,29.061-7.109
							C286.89,293.22,290.074,306.231,284.012,316.218z"/>
						<circle fill="#C6E9FA" cx="265.532" cy="305.004" r="17.347"/>
					</g>
				</g>
				<g>
					<path fill="#DDDDDD" d="M151.352,262.625c-0.374-1.557,1.029-3.227,3.133-3.735l23.597-5.693
						c2.107-0.505,4.118,0.342,4.492,1.896c0.375,1.557-1.027,3.228-3.133,3.736l-23.599,5.69
						C153.738,265.027,151.727,264.177,151.352,262.625z"/>
					<path fill="#FFFFFF" d="M171.607,257.74c-0.207-0.86,0.567-1.784,1.733-2.067l5.206-1.257c1.162-0.28,2.275,0.192,2.482,1.05
						c0.207,0.859-0.57,1.783-1.732,2.065l-5.205,1.254C172.926,259.068,171.816,258.599,171.607,257.74z"/>
					<path fill="none" stroke="#000000" stroke-linecap="round" stroke-linejoin="round" stroke-miterlimit="10" d="
						M151.352,262.625c-0.374-1.557,1.029-3.227,3.133-3.735l23.597-5.693c2.107-0.505,4.118,0.342,4.492,1.896
						c0.375,1.557-1.027,3.228-3.133,3.736l-23.599,5.69C153.738,265.027,151.727,264.177,151.352,262.625z"/>
				</g>
			</g>
		</g>
		<g>
			<path fill="#D8D8D8" d="M187.332,188.91c-1.052-0.625-3.142,0.197-4.667,1.836l-6.675,7.177
				c-1.946-2.062-3.775-3.908-4.529-4.406c-2.063-1.362-9.728,2.186-19.951,5.297c-10.222,3.115-25.685,4.705-36.769,5.79
				c-1.377,0.135-3.271,0.327-5.544,0.562c-0.44-0.206-0.95-0.369-1.544-0.479c0.016-0.012,13.573-11.099-3.355-9.659
				c0,0-6.002,0.674-14.079,2.934c-3.656,1.022-7.602,2.149-11.263,3.329c-0.117,0.038-0.232,0.076-0.348,0.113
				c-0.475,0.154-0.943,0.31-1.406,0.465c-0.131,0.045-0.263,0.089-0.393,0.133c-0.479,0.163-0.948,0.326-1.41,0.491
				c-0.088,0.031-0.178,0.062-0.265,0.094c-1.088,0.39-2.123,0.784-3.088,1.181c-0.124,0.051-0.243,0.102-0.364,0.152
				c-0.344,0.145-0.679,0.289-1.003,0.434c-0.139,0.062-0.276,0.124-0.411,0.186c-0.307,0.142-0.601,0.283-0.886,0.424
				c-0.116,0.058-0.236,0.115-0.348,0.172c-0.382,0.195-0.748,0.392-1.083,0.587c-2.801,1.636-6.429,3.61-8.902,4.938
				c-3.747,0.446-6.674,0.815-8.29,1.058c-8.48,1.276-36.03,5.49-41.917,6.207c-5.888,0.716-36.661,2.927-39.887,3.276
				c-3.22,0.347-12.288-0.646-21.894,7.226c4.374,4.865,9.195,4.647,14.542,4.397c5.346-0.252,23.895-3.469,30.095-4.207
				c3.604-0.429,12.714-1.417,21.178-2.241c4.093-0.397,9.357-0.887,12.979-1.139c0.066-0.004,0.134-0.009,0.2-0.014
				c0.142-0.01,0.279-0.019,0.416-0.027c0.153-0.01,0.302-0.02,0.447-0.028c0.086-0.005,0.174-0.011,0.258-0.016
				c0.235-0.014,0.462-0.026,0.673-0.037c1.58-0.081,4.68-0.33,8.662-0.686c-5.849,3.546-11.514,6.774-14.609,7.928
				c-8.051,3.001-15.139,7.205-20.12,11.431c-2.756,2.338-3.492,4.202-3.492,4.202s-2.777,2.488-3.589,5.961
				c-2.809,4.264-3.254,8.056-3.934,12.366c-0.678,4.311-0.176,15.644-0.416,29.842c-0.171,10.197-3.33,22.977-5.597,30.466h0
				l0,0.001c-0.891,2.938-1.644,5.062-2.025,5.896h-0.001h0.001v0.001c0,0-5.347,4.805-1.944,5.525
				c2.788,0.587,14.622,6.241,32.87,3.88c0.038-0.006,0.076-0.012,0.114-0.017c0.717-0.094,1.444-0.201,2.18-0.32
				c0.171-0.028,0.345-0.059,0.518-0.088c0.612-0.104,1.23-0.217,1.856-0.339c0.23-0.045,0.461-0.092,0.694-0.14
				c0.585-0.12,1.177-0.251,1.773-0.389c0.253-0.058,0.505-0.114,0.761-0.177c0.621-0.149,1.25-0.312,1.883-0.482
				c0.225-0.06,0.446-0.115,0.672-0.178c0.86-0.238,1.729-0.49,2.61-0.767c0,0,26.666-22.33,41.866-44.954
				c15.198-22.622,15.983-28.487,16.812-29.968c0.512-0.915,0.757-1.555,0.87-1.913c0.191-0.028,0.384-0.061,0.58-0.094
				c0.051-0.009,0.101-0.016,0.152-0.024c0.002-0.004,0.002-0.004,0.002-0.004l0,0.001c1.417-0.254,2.918-0.639,4.226-1.234
				c3.849-1.751,7.117-7.312,4.723-13.65c0.287,0.027,0.583,0.034,0.884,0.029l0.005,0.001l-0.003-0.001
				c4.033-0.062,9.228-2.832,10.337-5.3c0.938-2.087-1.547-12.054-4.392-17.185c1.412-2.012,4.045-5.971,6.352-9.798
				c0.023-0.038,0.042-0.075,0.065-0.113c11.165-2.227,22.896-4.669,28.257-5.847c9.871-2.169,20.108-5.909,25.292-8.152
				c5.183-2.243,6.44-1.639,8.099-0.56c0.336,0.22,0.98,0.685,1.781,1.276l-7.048,7.577c-1.524,1.64-1.907,3.473-0.854,4.098
				c1.056,0.626,3.145-0.195,4.669-1.837l6.717-7.219c2.669,2.027,5.303,4.058,5.303,4.058s-2.052-2.418-4.377-5.054l1.211-1.303
				c2.201,1.605,4.075,2.987,4.075,2.987s-1.485-1.673-3.375-3.739l7.536-8.101C188.007,191.368,188.388,189.535,187.332,188.91z"/>
			<g>
				<g>
					<polygon fill="#FCDCCE" points="31.805,255.565 0.578,295.485 24.256,338.964 33.661,339.304 70.888,276.724 					"/>
					<path fill="#F1C3B3" d="M29.469,339.152l4.192,0.151l37.227-62.58l-39.083-21.158l-31.227,39.92l0.794,1.459
						c5.129-6.082,13.496-15.923,16.591-19.119c4.592-4.742,20.8,5.906,27.553,12.062s4.322,14.53-1.081,23.984
						C41.241,319.462,34.471,330.808,29.469,339.152z"/>
					<polygon fill="none" stroke="#000000" stroke-linecap="round" stroke-linejoin="round" stroke-miterlimit="10" points="
						31.805,255.565 0.578,295.485 24.256,338.964 33.661,339.304 70.888,276.724 					"/>
				</g>
				<g>
					<g>
						<path fill="#C4D2D2" d="M101.32,156.85c0,0,10.667,0.752,14.958,5.105c4.29,4.354,16.536,17.486,19.785,21.007
							c3.25,3.519,6.837,22.284,5.664,24.832c-1.175,2.549-6.722,3.82-10.515,1.927c2.04,7.951-1.132,13.023-4.736,13.621
							c-3.603,0.597-8.735-1.412-8.735-1.412s-2.961,4.099-10.599-0.729c-9.882,0.555-14.746-3.589-14.994-3.82
							c-0.248-0.235-24.651-11.487-24.651-11.487l10.701-28.366L101.32,156.85z"/>
						<g>
							<path fill="#B1BFBF" d="M113.059,169.151c0,0-0.108,0.199-0.288,0.532C112.976,169.354,113.059,169.151,113.059,169.151z"/>
							<path fill="#B1BFBF" d="M92.148,217.381c0.249,0.231,5.111,4.375,14.994,3.82c7.638,4.828,10.6,0.729,10.6,0.729
								s2.235,0.875,4.792,1.299c0.001-0.002,0.001-0.002,0.002-0.002c-5.167-4.121-2.189-11.403-2.189-11.403l2.335-17.007
								c0,0,0.461-4.822-0.74-6.716s-3.789-1.747-3.789-1.747s-1.089-2.562-2.577-3.122c-1.487-0.562-2.049-3.864-2.049-3.864
								s-1.201,0.225-1.826-0.148c-0.626-0.374,2.619-6.136,1.953-7.322c-0.666-1.184-3.939,5.988-4.375,5.46
								c-0.365-0.446,2.546-5.925,3.493-7.673c-0.542,0.859-1.951,2.592-5.106,3.906c-4.363,1.818-15.331-5.876-15.331-5.876
								l-4.375,4.923l-11.173,25.327l-0.573,11.058l14.855,7.819C91.728,217.158,92.118,217.349,92.148,217.381z"/>
						</g>
						<path fill="none" stroke="#000000" stroke-linecap="round" stroke-linejoin="round" stroke-miterlimit="10" d="M101.32,156.85
							c0,0,10.667,0.752,14.958,5.105c4.29,4.354,16.536,17.486,19.785,21.007c3.25,3.519,6.837,22.284,5.664,24.832
							c-1.175,2.549-6.722,3.82-10.515,1.927c2.04,7.951-1.132,13.023-4.736,13.621c-3.603,0.597-8.735-1.412-8.735-1.412
							s-2.961,4.099-10.599-0.729c-9.882,0.555-14.746-3.589-14.994-3.82c-0.248-0.235-24.651-11.487-24.651-11.487l10.701-28.366
							L101.32,156.85z"/>
						<path fill="none" stroke="#000000" stroke-linecap="round" stroke-linejoin="round" stroke-miterlimit="10" d="
							M132.032,210.07c0,0-7.952-6.146-9.738-9.275c-1.788-3.132-7.925-11.501-8.941-11.967c-1.015-0.469-2.693-0.163-2.917-1.344
							c-0.226-1.184-1.535-3.016-2.362-3.552c-0.831-0.537-3.711-2.632-3.711-2.632s-18.23-0.686-22.196-2.23"/>
						<path fill="none" stroke="#000000" stroke-linecap="round" stroke-linejoin="round" stroke-miterlimit="10" d="
							M117.741,221.93c0,0-5.705-7.561-8.252-11.043c-2.547-3.479-8.164-11.992-9.373-14.204c-1.209-2.209-5.747-5.378-7.086-6.149
							c-1.334-0.77-4.438-2.047-4.438-2.047l-9.29-3.205"/>
						<path fill="none" stroke="#000000" stroke-linecap="round" stroke-linejoin="round" stroke-miterlimit="10" d="
							M104.363,181.301c0,0,1.801,0.008,3.423-1.948c1.621-1.953,5.302-7.788,5.868-7.456c0.569,0.335-1.386,8.709-4.596,8.855"/>
						<path fill="none" stroke="#000000" stroke-linecap="round" stroke-linejoin="round" stroke-miterlimit="10" d="
							M106.688,182.973c0,0,5.104-1.071,8.035-4.936"/>
						<path fill="none" stroke="#000000" stroke-linecap="round" stroke-linejoin="round" stroke-miterlimit="10" d="
							M113.353,188.828c0,0,3.455,0.062,6.17-4.258"/>
						<path fill="none" stroke="#000000" stroke-linecap="round" stroke-linejoin="round" stroke-miterlimit="10" d="M96.71,191.453
							c0,0,5.651-0.334,6.888-7.123"/>
						<path fill="none" stroke="#000000" stroke-linecap="round" stroke-linejoin="round" stroke-miterlimit="10" d="
							M100.651,186.424c0,0-0.659,4.559-5.573,4.275"/>
					</g>
					<g>
						<path fill="#C4D2D2" d="M44.277,172.523c-2.611,1.643-3.342,3.47-3.342,3.47s-2.634,1.804-3.479,5.406
							c-2.712,3.782-3.227,7.872-3.972,12.462c-0.743,4.59-0.587,17.465-1.195,33.289c-0.606,15.826-6.701,35.212-8.032,38.042
							c0,0-5.072,3.488-1.947,5.502c3.128,2.011,18.527,17.294,42.423,17.388c0,0,25.251-15.566,39.913-35.527
							c14.661-19.959,15.545-26.252,16.352-27.618c0.806-1.365,0.949-2.177,0.949-2.177s1.766-1.805,1.624-2.875
							c-0.138-1.07-0.373-3.635,0.119-4.748c0.49-1.116,1.059-1.881,1.061-2.936c0.001-1.055,1.354-4.405,2.626-6.225
							c1.272-1.82,1.808-5.696,1.808-5.696s2.4-1.62,2.599-2.397c0.2-0.778,0.2-0.778,0.2-0.778s0.971-0.806,1.288-1.883
							c0.317-1.077,3.255-6.346,4.068-7.256c0.812-0.909,4.118-5.341,6.932-9.71c2.813-4.37,3.512-9.198-1.088-12.008
							c0,0,12.855-7.622-2.838-12.013c0,0-5.565-1.374-13.091-1.705c-7.526-0.333-16.384-0.602-20.789,0.802
							c-4.404,1.402-10.997,3.056-10.997,3.056c-0.811-0.107-24.764,9.952-32.285,10.461
							C55.66,167.357,48.996,169.555,44.277,172.523z M87.263,195.673c0,0,4.098-4.751,5.014-5.641
							c0.917-0.891,1.475-1.563,2.372-3.649c0.9-2.083,9.872-7.172,12.928-9.049c3.058-1.877,5.238-3.431,6.669-4.503
							c1.126,0.205,1.308-0.192,2.489-0.765c1.832,0.368,5.408-1.396,5.408-1.396c-6.415,6.293-17.636,25.091-17.636,25.091
							s-2.366,2.987-4.348,5.26c-1.979,2.274-4.884,4.028-6.956,3.8C91.128,204.596,87.263,195.673,87.263,195.673z"/>
						<g>
							<path fill="#B1BFBF" d="M118.396,152.267l-12.391,1.212c0.155-0.05,0.309-0.097,0.458-0.146
								C109.192,152.464,113.628,152.236,118.396,152.267z"/>
						</g>
						<g>
							<path fill="#B1BFBF" d="M74.026,204.386c-5.758-1.574,6.792-0.064,8.46-1.29c1.259-0.928-3.756-4.661-4.357-5.005
								c-2.861-1.646-5.76-3.245-8.695-4.769c-3.044-1.583-8.047-0.668-10.471-3.467c2.821-0.167,5.045-0.36,7.713,0.758
								c1.541,0.648,2.978,1.477,4.559,2.058c1.28,0.472,2.647,1.394,4.055,1.388c2.157-0.008,0.848-3.186,0.013-4.137
								c-2.068-2.362-5.202-3.855-7.807-5.533c-1.24-0.799-2.464-1.508-3.786-2.122c-1.489-0.692-3.358-1.019-4.714-1.994
								c1.918-0.998,4.737,0.955,6.307,1.966c1.974,1.271,3.874,2.65,5.858,3.903c1.483,0.937,3.695,2.73,5.483,2.362
								c1.321-0.273,2.375-1.075,2.469-2.482c0.084-1.244-0.727-3.996-1.72-4.773c2.401,1.879,2.776-0.219,2.776-0.219
								c3.099,3.845,10.903,5.493,13.494-3.883c6.772-1.589,17.185-3.869,20.729-11.47c0.339,0.747,2.254,1.234,3.313-1.273
								c3.147,1.138,22.748-0.957,25.378-3.509c-3.568,3.718-4.098,3.758-4.098,3.758s-8.599-1.59-17.117,6.295
								c0.094-0.094,0.187-0.188,0.277-0.277c0,0-3.577,1.765-5.409,1.398c-1.182,0.57-1.361,0.968-2.489,0.762
								c-1.431,1.072-3.613,2.627-6.669,4.504c-3.055,1.877-12.027,6.966-12.927,9.049c-0.898,2.085-1.455,2.759-2.372,3.65
								c-0.917,0.887-5.015,5.639-5.015,5.639s3.866,8.924,5.939,9.148C93.203,204.82,79.784,205.957,74.026,204.386z"/>
							<path fill="#B1BFBF" d="M116.081,178.065c-0.002,0.001-0.002,0.004-0.003,0.004c-1.682,2.697-3.457,5.247-5.241,7.63
								C112.479,183.199,114.29,180.533,116.081,178.065z"/>
						</g>
						<g>
							<path fill="#B1BFBF" d="M111.251,214.676c-0.1,0.014-0.156,0.021-0.156,0.021S111.152,214.689,111.251,214.676z"/>
							<path fill="#B1BFBF" d="M46.193,284.861l0.195-0.357c0,0,17.464,3.727,16.653-1.912c-4.497-0.544-9.181-1.438-9.183-1.439
								c6.02,1.15,17.948-2.338,21.83-7.215c-3.247-1.209-7.687-0.55-11.249-1.101c-7.781-1.204-18.061,0.413-24.68-4.735
								c2.849-1.15,6.302-0.057,9.382,0.29c2.888,0.326,5.897-0.077,8.739-0.165c3.368-0.103,6.605-0.299,9.936-0.571
								c7.041-0.574,13.91-0.168,19.772-4.84c10.301-8.206,20.081-20.903,24.527-33.326c-0.291,0.411-3.653-1.755-5.962-2.048
								c-2.305-0.292,7.28-2.205,10.384-5.018c3.105-2.81,3.908-6.658,0.733-7.428c-2.75-0.666-5.373-0.402-6.021-0.32
								c1.101-0.153,7.934-1.255,9.761-4.779c1.991-3.839-0.374-5.312,0.563-7.016c0.935-1.703,1.527-1.888,1.408-1.92
								c-0.116-0.032-2.285-1.562-1.458-1.896c0.826-0.332,2.36-1.846,0.601-3.23c2.408,0.378,3.188,0.831,3.34-0.041
								c0.153-0.871-3.87-3.567-3.155-4.914c0.714-1.347,5.837,2.41,6.843,1.325c1.005-1.085,1.501-5.812,2.514-8.575
								c1.015-2.762,4.417-4.906,8.394-9.004c3.978-4.101,4.292-6.503,2.537-8.719c0.304-0.109,0.703-0.117,1.168-0.041
								c-0.357,0.246-0.586,0.382-0.586,0.382c4.599,2.81,3.9,7.639,1.087,12.008c-2.814,4.37-6.12,8.801-6.932,9.711
								c-0.812,0.91-3.75,6.179-4.068,7.256c-0.316,1.078-1.287,1.884-1.287,1.884s0,0-0.201,0.777
								c-0.198,0.777-2.598,2.398-2.598,2.398s-0.536,3.875-1.807,5.696c-1.272,1.818-2.626,5.169-2.626,6.224
								c-0.002,1.053-0.57,1.819-1.062,2.936c-0.491,1.114-0.256,3.678-0.118,4.748c0.141,1.07-1.625,2.874-1.625,2.874
								s-0.144,0.812-0.949,2.178c-0.805,1.367-1.69,7.659-16.351,27.618c-14.662,19.959-39.913,35.527-39.913,35.527
								C57.806,288.054,51.599,286.745,46.193,284.861z"/>
						</g>
						<path fill="none" stroke="#000000" stroke-linecap="round" stroke-linejoin="round" stroke-miterlimit="10" d="
							M44.277,172.523c-2.611,1.643-3.342,3.47-3.342,3.47s-2.634,1.804-3.479,5.406c-2.712,3.782-3.227,7.872-3.972,12.462
							c-0.743,4.59-0.587,17.465-1.195,33.289c-0.606,15.826-6.701,35.212-8.032,38.042c0,0-5.072,3.488-1.947,5.502
							c3.128,2.011,18.527,17.294,42.423,17.388c0,0,25.251-15.566,39.913-35.527c14.661-19.959,15.545-26.252,16.352-27.618
							c0.806-1.365,0.949-2.177,0.949-2.177s1.766-1.805,1.624-2.875c-0.138-1.07-0.373-3.635,0.119-4.748
							c0.49-1.116,1.059-1.881,1.061-2.936c0.001-1.055,1.354-4.405,2.626-6.225c1.272-1.82,1.808-5.696,1.808-5.696
							s2.4-1.62,2.599-2.397c0.2-0.778,0.2-0.778,0.2-0.778s0.971-0.806,1.288-1.883c0.317-1.077,3.255-6.346,4.068-7.256
							c0.812-0.909,4.118-5.341,6.932-9.71c2.813-4.37,3.512-9.198-1.088-12.008c0,0,12.855-7.622-2.838-12.013
							c0,0-5.565-1.374-13.091-1.705c-7.526-0.333-16.384-0.602-20.789,0.802c-4.404,1.402-10.997,3.056-10.997,3.056
							c-0.811-0.107-24.764,9.952-32.285,10.461C55.66,167.357,48.996,169.555,44.277,172.523z M87.263,195.673
							c0,0,4.098-4.751,5.014-5.641c0.917-0.891,1.475-1.563,2.372-3.649c0.9-2.083,9.872-7.172,12.928-9.049
							c3.058-1.877,5.238-3.431,6.669-4.503c1.126,0.205,1.308-0.192,2.489-0.765c1.832,0.368,5.408-1.396,5.408-1.396
							c-6.415,6.293-17.636,25.091-17.636,25.091s-2.366,2.987-4.348,5.26c-1.979,2.274-4.884,4.028-6.956,3.8
							C91.128,204.596,87.263,195.673,87.263,195.673z"/>
						<path fill="none" stroke="#000000" stroke-linecap="round" stroke-linejoin="round" stroke-miterlimit="10" d="
							M122.143,170.669c0,0,11.01-10.882,21.04-4.421"/>
						<path fill="none" stroke="#000000" stroke-linecap="round" stroke-linejoin="round" stroke-miterlimit="10" d="
							M87.263,195.673c0,0-10.628-14.608-13.272-20.374"/>
						<path fill="none" stroke="#000000" stroke-linecap="round" stroke-linejoin="round" stroke-miterlimit="10" d="
							M83.559,160.894"/>
						<path fill="none" stroke="#000000" stroke-linecap="round" stroke-linejoin="round" stroke-miterlimit="10" d="
							M84.044,191.152c0,0-3.771-10.333-5.379-13.583"/>
						<path fill="none" stroke="#000000" stroke-linecap="round" stroke-linejoin="round" stroke-miterlimit="10" d="
							M94.801,186.114c0,0-0.712-10.224-2.544-13.694"/>
						<path fill="none" stroke="#000000" stroke-linecap="round" stroke-linejoin="round" stroke-miterlimit="10" d="
							M114.246,172.831c-0.006-0.45,1.66-5.218-0.42-9.219"/>
						<path fill="none" stroke="#000000" stroke-linecap="round" stroke-linejoin="round" stroke-miterlimit="10" d="
							M116.735,172.066c0,0,3.488-9.437-2.337-14.74"/>
						<path fill="none" stroke="#000000" stroke-linecap="round" stroke-linejoin="round" stroke-miterlimit="10" d="
							M111.279,150.019"/>
						<path fill="none" stroke="#000000" stroke-linecap="round" stroke-linejoin="round" stroke-miterlimit="10" d="
							M92.783,204.679c-0.154-0.103-11.379-5.265-15.048-7.554c-3.671-2.289-6.693-3.647-8.468-5.452"/>
						<path fill="none" stroke="#000000" stroke-linecap="round" stroke-linejoin="round" stroke-miterlimit="10" d="
							M90.762,202.377c0,0-8.018-7.095-11.698-10.055c-3.682-2.958-10.914-8.957-10.914-8.957"/>
						<path fill="none" stroke="#000000" stroke-linecap="round" stroke-linejoin="round" stroke-miterlimit="10" d="
							M131.983,197.104c0,0-3.925-2.984-5.83-4.411c-1.905-1.425-4.279-2.834-3.84-1.814c0.438,1.018,4.316,4.112,5.091,4.613"/>
						<path fill="none" stroke="#000000" stroke-linecap="round" stroke-linejoin="round" stroke-miterlimit="10" d="
							M115.733,191.36c0,0,8.416,6.833,13.451,8.92"/>
						<path fill="none" stroke="#000000" stroke-linecap="round" stroke-linejoin="round" stroke-miterlimit="10" d="
							M127.807,202.418c0,0-10.421-3.427-10.401-2.221"/>
						<path fill="none" stroke="#000000" stroke-linecap="round" stroke-linejoin="round" stroke-miterlimit="10" d="
							M133.474,190.545c0,0-1.204-7.713-5.008-10.924"/>
						<path fill="none" stroke="#000000" stroke-linecap="round" stroke-linejoin="round" stroke-miterlimit="10" d="
							M121.947,222.76c0,0-6.506,1.68-7.925,2.238"/>
						<path fill="none" stroke="#000000" stroke-linecap="round" stroke-linejoin="round" stroke-miterlimit="10" d="
							M122.421,214.314c0,0-8.972-1.14-14.412,1.395"/>
						<path fill="none" stroke="#000000" stroke-linecap="round" stroke-linejoin="round" stroke-miterlimit="10" d="
							M24.256,265.191c0,0,20.975,13.469,35.69,12.808"/>
						<path fill="none" stroke="#000000" stroke-linecap="round" stroke-linejoin="round" stroke-miterlimit="10" d="
							M26.289,259.303c0,0,3.519,12.682,28.111,11.119"/>
						<path fill="none" stroke="#000000" stroke-linecap="round" stroke-linejoin="round" stroke-miterlimit="10" d="M73.687,281.96
							c0,0-6.672,0.681-10.646,0.632c-3.973-0.055-16.535-3.075-16.535-3.075"/>
					</g>
					<g>
						<g>
							<g>
								<path fill="#666666" d="M212.186,192.901c0,0-8.221-10.736-9.75-12.506c-1.532-1.771-2.695-2.88-7.537-2.127
									c-4.839,0.753-14.391,1.468-23.588,0.546c-9.198-0.927-38.518-4.381-47.6-6.021c-9.083-1.641-47.497-11.025-54.448-13.14
									c-6.952-2.116-27.874-7.079-33.64-8.358c-5.771-1.28-23.047-3.977-28.02-5.515c-4.974-1.534-9.456-2.93-13.479-9.868
									c9.092-5.415,17.445-1.088,20.43-0.335c2.99,0.753,31.49,9.186,36.951,10.47c5.46,1.284,31.037,6.33,38.908,7.908
									s49.053,12.002,59.323,14.714c10.272,2.714,24.605,6.413,34.139,6.547c9.531,0.138,16.711-1.12,18.581,1.139
									C204.201,178.463,212.186,192.901,212.186,192.901z"/>
								<path fill="none" stroke="#000000" stroke-linecap="round" stroke-linejoin="round" stroke-miterlimit="10" d="
									M212.186,192.901c0,0-8.221-10.736-9.75-12.506c-1.532-1.771-2.695-2.88-7.537-2.127
									c-4.839,0.753-14.391,1.468-23.588,0.546c-9.198-0.927-38.518-4.381-47.6-6.021c-9.083-1.641-47.497-11.025-54.448-13.14
									c-6.952-2.116-27.874-7.079-33.64-8.358c-5.771-1.28-23.047-3.977-28.02-5.515c-4.974-1.534-9.456-2.93-13.479-9.868
									c9.092-5.415,17.445-1.088,20.43-0.335c2.99,0.753,31.49,9.186,36.951,10.47c5.46,1.284,31.037,6.33,38.908,7.908
									s49.053,12.002,59.323,14.714c10.272,2.714,24.605,6.413,34.139,6.547c9.531,0.138,16.711-1.12,18.581,1.139
									C204.201,178.463,212.186,192.901,212.186,192.901z"/>
								
									<line fill="none" stroke="#000000" stroke-linecap="round" stroke-linejoin="round" stroke-miterlimit="10" x1="51.349" y1="146.008" x2="49.607" y2="154.578"/>
							</g>
							
								<circle fill="#212121" stroke="#000000" stroke-linecap="round" stroke-linejoin="round" stroke-miterlimit="10" cx="141.507" cy="171.023" r="0.746"/>
						</g>
						<g>
							<path fill="#FFFFFF" d="M193.635,193.04c-0.657-1.281,0.213-3.038,1.944-3.929l19.405-9.994
								c1.732-0.891,3.668-0.578,4.325,0.701c0.659,1.28-0.21,3.037-1.94,3.93l-19.406,9.992
								C196.23,194.633,194.295,194.319,193.635,193.04z"/>
							<path fill="none" stroke="#000000" stroke-linecap="round" stroke-linejoin="round" stroke-miterlimit="10" d="
								M193.635,193.04c-0.657-1.281,0.213-3.038,1.944-3.929l19.405-9.994c1.732-0.891,3.668-0.578,4.325,0.701
								c0.659,1.28-0.21,3.037-1.94,3.93l-19.406,9.992C196.23,194.633,194.295,194.319,193.635,193.04z"/>
						</g>
						<g>
							<g>
								<path fill="#9F9F9F" d="M211.254,196.354c0,0-8.051-10.861-9.553-12.658c-1.502-1.796-2.646-2.921-7.498-2.245
									c-4.853,0.678-14.415,1.238-23.596,0.17c-9.183-1.07-38.444-4.991-47.499-6.774c-9.056-1.784-47.314-11.78-54.233-14.003
									c-6.918-2.229-27.758-7.522-33.505-8.892c-5.75-1.372-22.979-4.344-27.927-5.956c-4.948-1.616-9.409-3.082-13.319-10.083
									c9.176-5.271,17.458-0.812,20.434-0.013c2.976,0.805,31.34,9.685,36.779,11.056c5.44,1.373,30.932,6.823,38.778,8.525
									c7.845,1.703,48.853,12.778,59.082,15.656c10.228,2.873,24.5,6.799,34.029,7.087c9.529,0.286,16.727-0.856,18.561,1.435
									C203.498,181.793,211.254,196.354,211.254,196.354z"/>
								<g>
									
										<linearGradient id="SVGID_27_" gradientUnits="userSpaceOnUse" x1="-5842.3555" y1="1760.8154" x2="-5880.5098" y2="1800.9518" gradientTransform="matrix(-0.8484 0.5294 0.5294 0.8484 -5864.625 1740.5106)">
										<stop  offset="0" style="stop-color:#FFFFFF"/>
										<stop  offset="1" style="stop-color:#FFFFFF;stop-opacity:0"/>
									</linearGradient>
									<path fill="url(#SVGID_27_)" d="M49.302,155.455l1.878-8.541c0.05,0.012,0.111,0.028,0.157,0.041
										c5.44,1.373,30.932,6.823,38.778,8.525c7.845,1.703,48.853,12.778,59.082,15.656c10.228,2.873,24.5,6.799,34.029,7.087
										c9.529,0.286,16.727-0.856,18.561,1.435c1.711,2.135,9.467,16.695,9.467,16.695s-8.051-10.861-9.553-12.658
										c-1.502-1.796-2.646-2.921-7.498-2.245c-4.853,0.678-14.415,1.238-23.596,0.17c-9.183-1.07-38.444-4.991-47.499-6.774
										c-9.056-1.784-47.314-11.78-54.233-14.003C63.477,159.102,49.302,155.455,49.302,155.455z"/>
								</g>
								<path fill="none" stroke="#000000" stroke-linecap="round" stroke-linejoin="round" stroke-miterlimit="10" d="
									M211.254,196.354c0,0-8.051-10.861-9.553-12.658c-1.502-1.796-2.646-2.921-7.498-2.245
									c-4.853,0.678-14.415,1.238-23.596,0.17c-9.183-1.07-38.444-4.991-47.499-6.774c-9.056-1.784-47.314-11.78-54.233-14.003
									c-6.918-2.229-27.758-7.522-33.505-8.892c-5.75-1.372-22.979-4.344-27.927-5.956c-4.948-1.616-9.409-3.082-13.319-10.083
									c9.176-5.271,17.458-0.812,20.434-0.013c2.976,0.805,31.34,9.685,36.779,11.056c5.44,1.373,30.932,6.823,38.778,8.525
									c7.845,1.703,48.853,12.778,59.082,15.656c10.228,2.873,24.5,6.799,34.029,7.087c9.529,0.286,16.727-0.856,18.561,1.435
									C203.498,181.793,211.254,196.354,211.254,196.354z"/>
								<g>
									<g>
										<path fill="#6D6D6D" d="M75.727,161.346c0.138-0.088,0.244-0.228,0.28-0.399l1.358-6.374
											c0.071-0.336-0.143-0.665-0.478-0.738c-0.337-0.07-0.667,0.145-0.739,0.48l-1.359,6.373
											c-0.07,0.336,0.144,0.667,0.479,0.738C75.432,161.461,75.594,161.428,75.727,161.346z"/>
									</g>
									<g>
										<path fill="#6D6D6D" d="M78.675,162.07c0.138-0.087,0.242-0.225,0.278-0.396l1.359-6.375
											c0.07-0.335-0.144-0.666-0.479-0.736c-0.336-0.072-0.666,0.142-0.739,0.478l-1.358,6.374
											c-0.071,0.336,0.144,0.666,0.479,0.739C78.379,162.187,78.542,162.152,78.675,162.07z"/>
									</g>
									<g>
										<path fill="#6D6D6D" d="M81.621,162.797c0.139-0.085,0.244-0.226,0.281-0.397l1.357-6.374
											c0.072-0.336-0.143-0.666-0.479-0.74c-0.336-0.07-0.667,0.145-0.738,0.481l-1.36,6.374
											c-0.069,0.336,0.143,0.665,0.48,0.736C81.327,162.914,81.49,162.881,81.621,162.797z"/>
									</g>
									<g>
										<path fill="#6D6D6D" d="M84.57,163.523c0.137-0.086,0.241-0.228,0.279-0.398l1.358-6.373
											c0.071-0.336-0.142-0.668-0.479-0.74c-0.333-0.07-0.666,0.145-0.738,0.479l-1.357,6.375
											c-0.072,0.338,0.144,0.667,0.478,0.739C84.274,163.637,84.437,163.604,84.57,163.523z"/>
									</g>
									<g>
										<path fill="#6D6D6D" d="M87.517,164.25c0.138-0.085,0.241-0.228,0.28-0.397l1.357-6.375
											c0.072-0.336-0.143-0.667-0.479-0.741c-0.335-0.068-0.666,0.145-0.737,0.482l-1.359,6.373
											c-0.071,0.336,0.144,0.664,0.48,0.738C87.222,164.364,87.383,164.332,87.517,164.25z"/>
									</g>
									<g>
										<path fill="#6D6D6D" d="M90.463,164.975c0.139-0.086,0.243-0.226,0.279-0.4l1.359-6.373
											c0.072-0.335-0.143-0.664-0.479-0.738c-0.334-0.07-0.667,0.145-0.738,0.482l-1.357,6.371
											c-0.071,0.338,0.142,0.667,0.479,0.738C90.17,165.09,90.332,165.058,90.463,164.975z"/>
									</g>
									<g>
										<path fill="#6D6D6D" d="M93.411,165.701c0.138-0.087,0.244-0.228,0.28-0.398l1.357-6.375
											c0.072-0.336-0.144-0.664-0.479-0.738c-0.336-0.072-0.666,0.146-0.738,0.48l-1.359,6.373
											c-0.069,0.335,0.144,0.668,0.479,0.739C93.115,165.814,93.279,165.783,93.411,165.701z"/>
									</g>
									<g>
										<path fill="#6D6D6D" d="M96.356,166.426c0.141-0.086,0.244-0.226,0.28-0.398l1.359-6.374
											c0.072-0.336-0.143-0.665-0.478-0.737c-0.335-0.072-0.667,0.145-0.739,0.479l-1.359,6.375
											c-0.071,0.336,0.143,0.665,0.479,0.739C96.062,166.543,96.226,166.509,96.356,166.426z"/>
									</g>
									<g>
										<path fill="#6D6D6D" d="M99.302,167.152c0.141-0.088,0.245-0.227,0.281-0.398l1.36-6.374
											c0.071-0.336-0.142-0.665-0.48-0.737c-0.334-0.073-0.666,0.141-0.74,0.479l-1.355,6.374
											c-0.071,0.337,0.141,0.667,0.478,0.737C99.011,167.27,99.172,167.234,99.302,167.152z"/>
									</g>
									<g>
										<path fill="#6D6D6D" d="M102.252,167.877c0.14-0.086,0.244-0.227,0.279-0.396l1.36-6.374
											c0.07-0.337-0.143-0.668-0.479-0.738c-0.335-0.072-0.667,0.141-0.738,0.479l-1.358,6.373
											c-0.071,0.336,0.142,0.666,0.478,0.738C101.958,167.991,102.12,167.96,102.252,167.877z"/>
									</g>
									<g>
										<path fill="#6D6D6D" d="M105.2,168.604c0.138-0.085,0.242-0.227,0.278-0.397l1.36-6.373
											c0.07-0.338-0.143-0.667-0.479-0.739c-0.335-0.07-0.665,0.141-0.738,0.48l-1.359,6.373
											c-0.071,0.336,0.143,0.666,0.481,0.739C104.905,168.721,105.066,168.686,105.2,168.604z"/>
									</g>
									<g>
										<path fill="#6D6D6D" d="M108.146,169.33c0.138-0.086,0.244-0.227,0.28-0.397l1.358-6.376
											c0.071-0.336-0.143-0.664-0.479-0.737s-0.666,0.144-0.736,0.479l-1.36,6.375c-0.072,0.336,0.142,0.666,0.481,0.738
											C107.852,169.446,108.015,169.412,108.146,169.33z"/>
									</g>
									<g>
										<path fill="#6D6D6D" d="M111.093,170.057c0.139-0.088,0.243-0.23,0.279-0.4l1.36-6.372
											c0.072-0.336-0.142-0.667-0.479-0.739c-0.335-0.07-0.664,0.143-0.737,0.48l-1.359,6.375
											c-0.072,0.335,0.144,0.663,0.478,0.735C110.798,170.172,110.96,170.138,111.093,170.057z"/>
									</g>
									<g>
										<path fill="#6D6D6D" d="M114.042,170.781c0.139-0.086,0.242-0.227,0.279-0.398l1.359-6.374
											c0.07-0.335-0.145-0.665-0.48-0.737c-0.336-0.07-0.666,0.143-0.737,0.479l-1.359,6.375
											c-0.071,0.335,0.143,0.666,0.479,0.739C113.745,170.897,113.909,170.864,114.042,170.781z"/>
									</g>
									<g>
										<path fill="#6D6D6D" d="M116.99,171.507c0.137-0.085,0.241-0.226,0.277-0.397l1.359-6.376
											c0.069-0.333-0.142-0.665-0.479-0.735c-0.336-0.074-0.667,0.145-0.738,0.479l-1.358,6.373
											c-0.072,0.336,0.144,0.667,0.479,0.738C116.693,171.623,116.857,171.59,116.99,171.507z"/>
									</g>
									<g>
										<path fill="#6D6D6D" d="M119.936,172.234c0.137-0.086,0.242-0.229,0.279-0.398l1.358-6.375
											c0.072-0.334-0.142-0.666-0.479-0.737c-0.336-0.072-0.667,0.146-0.738,0.478L119,171.577
											c-0.072,0.336,0.142,0.664,0.478,0.738C119.642,172.349,119.804,172.317,119.936,172.234z"/>
									</g>
									<g>
										<path fill="#6D6D6D" d="M122.884,172.959c0.138-0.086,0.243-0.227,0.279-0.399l1.359-6.374
											c0.071-0.333-0.145-0.665-0.479-0.737c-0.336-0.07-0.667,0.146-0.739,0.479l-1.358,6.375
											c-0.072,0.335,0.142,0.668,0.479,0.736C122.587,173.075,122.751,173.042,122.884,172.959z"/>
									</g>
									<g>
										<path fill="#6D6D6D" d="M125.831,173.685c0.137-0.085,0.242-0.226,0.279-0.396l1.359-6.376
											c0.072-0.335-0.143-0.666-0.479-0.737c-0.337-0.07-0.667,0.146-0.739,0.479l-1.357,6.373
											c-0.073,0.338,0.142,0.667,0.477,0.739C125.537,173.799,125.698,173.767,125.831,173.685z"/>
									</g>
									<g>
										<path fill="#6D6D6D" d="M128.779,174.41c0.137-0.086,0.24-0.227,0.279-0.399l1.358-6.374
											c0.071-0.334-0.144-0.665-0.48-0.735c-0.336-0.074-0.666,0.143-0.737,0.479l-1.359,6.371
											c-0.071,0.336,0.142,0.667,0.479,0.74C128.482,174.524,128.646,174.494,128.779,174.41z"/>
									</g>
									<g>
										<path fill="#6D6D6D" d="M131.725,175.137c0.14-0.088,0.242-0.227,0.278-0.399l1.36-6.374
											c0.071-0.335-0.144-0.664-0.479-0.737c-0.337-0.069-0.668,0.146-0.739,0.479l-1.359,6.374
											c-0.07,0.338,0.143,0.667,0.479,0.739C131.429,175.255,131.593,175.22,131.725,175.137z"/>
									</g>
									<g>
										<path fill="#6D6D6D" d="M134.671,175.862c0.138-0.087,0.242-0.226,0.279-0.399l1.359-6.372
											c0.072-0.337-0.144-0.666-0.479-0.74c-0.333-0.068-0.665,0.145-0.738,0.48l-1.359,6.373
											c-0.071,0.336,0.144,0.668,0.479,0.737C134.377,175.979,134.54,175.945,134.671,175.862z"/>
									</g>
								</g>
								
									<line fill="none" stroke="#000000" stroke-linecap="round" stroke-linejoin="round" stroke-miterlimit="10" x1="51.18" y1="146.914" x2="49.302" y2="155.455"/>
							</g>
							<path fill="#212121" stroke="#000000" stroke-linecap="round" stroke-linejoin="round" stroke-miterlimit="10" d="
								M140.298,173.753c0.218,0.348,0.677,0.453,1.027,0.237c0.351-0.218,0.458-0.68,0.239-1.029
								c-0.218-0.351-0.681-0.457-1.028-0.236C140.187,172.94,140.08,173.401,140.298,173.753z"/>
							
								<line fill="none" stroke="#000000" stroke-linecap="round" stroke-linejoin="round" stroke-miterlimit="10" x1="175.656" y1="177.452" x2="175.096" y2="182.017"/>
							
								<line fill="none" stroke="#000000" stroke-linecap="round" stroke-linejoin="round" stroke-miterlimit="10" x1="179.931" y1="178.003" x2="179.35" y2="182.194"/>
						</g>
					</g>
					<g>
						<path fill="#C4D2D2" d="M70.668,281.514l3.785-13.236l-12.209-5.792l2.843-33.187l5.886-15.696l18.439-2.116
							c0,0,1.097-2.681,4.395-6.656c5.637-0.957,9.808-7.957,13.03-12.872c3.221-4.915,13.594-19.718,13.594-19.718
							c14.335-11.804,22.751-5.992,22.751-5.992c4.6,2.81,3.901,7.638,1.088,12.008c-2.814,4.369-6.12,8.801-6.932,9.71
							c-0.812,0.91-3.75,6.179-4.068,7.256c-0.316,1.077-1.288,1.883-1.288,1.883s0,0-0.2,0.778
							c-0.198,0.777-2.599,2.397-2.599,2.397s-0.536,3.876-1.808,5.696c-1.272,1.819-2.625,5.17-2.626,6.225
							c-0.002,1.055-0.571,1.819-1.061,2.936c-0.492,1.113-0.257,3.678-0.119,4.748c0.142,1.07-1.624,2.875-1.624,2.875
							s-0.144,0.812-0.949,2.177c-0.806,1.366-1.69,7.659-16.352,27.618c-14.662,19.961-39.913,35.527-39.913,35.527"/>
						<path fill="#B1BFBF" d="M116.081,178.065c-0.002,0.001-0.002,0.004-0.003,0.004c-1.682,2.697-3.457,5.247-5.241,7.63
							C112.479,183.199,114.29,180.533,116.081,178.065z"/>
						<path fill="#B1BFBF" d="M111.251,214.676c-0.1,0.014-0.156,0.021-0.156,0.021S111.152,214.689,111.251,214.676z"/>
						<path fill="#B1BFBF" d="M67.818,267.655c7.041-0.574,13.91-0.168,19.772-4.84c10.301-8.206,20.081-20.903,24.527-33.325
							c-0.291,0.41-3.653-1.756-5.961-2.049c-2.305-0.292,7.28-2.205,10.384-5.018c3.105-2.81,3.908-6.658,0.733-7.428
							c-2.75-0.666-5.373-0.402-6.021-0.32c1.101-0.153,7.934-1.255,9.761-4.779c1.991-3.839-0.374-5.312,0.563-7.016
							c0.935-1.703,1.527-1.888,1.408-1.92c-0.116-0.032-2.285-1.562-1.458-1.896c0.826-0.332,2.36-1.846,0.601-3.23
							c2.408,0.378,3.188,0.831,3.34-0.041c0.152-0.871-3.87-3.567-3.155-4.914c0.714-1.347,5.837,2.41,6.843,1.325
							c1.005-1.085,1.501-5.812,2.514-8.575c1.015-2.762,4.417-4.906,8.394-9.004c3.978-4.101,4.292-6.503,2.537-8.719
							c0.304-0.109,0.703-0.117,1.168-0.041c-0.357,0.246-0.586,0.382-0.586,0.382c4.599,2.81,3.9,7.639,1.087,12.008
							c-2.814,4.37-6.12,8.801-6.932,9.711c-0.812,0.91-3.75,6.179-4.068,7.256c-0.316,1.078-1.287,1.884-1.287,1.884
							s0,0-0.201,0.777c-0.198,0.777-2.598,2.398-2.598,2.398s-0.536,3.875-1.807,5.696c-1.272,1.818-2.626,5.169-2.626,6.224
							c-0.002,1.053-0.57,1.819-1.062,2.936c-0.491,1.114-0.257,3.678-0.118,4.748c0.141,1.07-1.625,2.874-1.625,2.874
							s-0.144,0.812-0.949,2.178c-0.805,1.367-1.69,7.659-16.351,27.618c-14.662,19.959-39.913,35.527-39.913,35.527"/>
						<path fill="none" stroke="#000000" stroke-linecap="round" stroke-linejoin="round" stroke-miterlimit="10" d="
							M64.733,288.082c0,0,25.251-15.566,39.913-35.527c14.661-19.959,15.545-26.252,16.352-27.618
							c0.806-1.365,0.949-2.177,0.949-2.177s1.766-1.805,1.624-2.875c-0.138-1.07-0.373-3.635,0.119-4.748
							c0.49-1.116,1.059-1.881,1.061-2.936c0.001-1.055,1.354-4.405,2.626-6.225c1.272-1.82,1.808-5.696,1.808-5.696
							s2.4-1.62,2.599-2.397c0.2-0.778,0.2-0.778,0.2-0.778s0.971-0.806,1.288-1.883c0.317-1.077,3.255-6.346,4.068-7.256
							c0.812-0.909,4.118-5.341,6.932-9.71c2.813-4.37,3.512-9.198-1.088-12.008c0,0-7.485-5.646-21.04,4.421"/>
						<g>
							<path fill="#C4D2D2" d="M22.033,268.596c0,0-3.68-0.247-3.271,3.012c0,0,21.675,24.911,38.236,28.466
								c0,0,3.748-1.605,4.157-5.841c0,0,4.059-1.925,4.468-6.832C65.623,287.4,47.115,285.635,22.033,268.596z"/>
							<g>
								<path fill="none" stroke="#000000" stroke-linecap="round" stroke-linejoin="round" stroke-miterlimit="10" d="
									M22.033,268.596c0,0-3.68-0.247-3.271,3.012c0,0,21.675,24.911,38.236,28.466c0,0,3.748-1.605,4.157-5.841
									c0,0,4.059-1.925,4.468-6.832C65.623,287.4,47.115,285.635,22.033,268.596z"/>
								<path fill="none" stroke="#000000" stroke-linecap="round" stroke-linejoin="round" stroke-miterlimit="10" d="
									M21.293,270.555c0,0,17.43,17.636,39.862,23.678"/>
							</g>
						</g>
						<path fill="none" stroke="#000000" stroke-linecap="round" stroke-linejoin="round" stroke-miterlimit="10" d="M93.203,204.82
							c2.072,0.229,4.977-1.525,6.956-3.8c1.982-2.272,4.348-5.26,4.348-5.26s11.221-18.798,17.636-25.091"/>
						<path fill="none" stroke="#000000" stroke-linecap="round" stroke-linejoin="round" stroke-miterlimit="10" d="
							M131.983,197.104c0,0-3.925-2.984-5.83-4.411c-1.905-1.425-4.279-2.834-3.84-1.814c0.438,1.018,4.316,4.112,5.091,4.613"/>
						<path fill="none" stroke="#000000" stroke-linecap="round" stroke-linejoin="round" stroke-miterlimit="10" d="
							M115.733,191.36c0,0,8.416,6.833,13.451,8.92"/>
						<path fill="none" stroke="#000000" stroke-linecap="round" stroke-linejoin="round" stroke-miterlimit="10" d="
							M127.807,202.418c0,0-10.421-3.427-10.401-2.221"/>
						<path fill="none" stroke="#000000" stroke-linecap="round" stroke-linejoin="round" stroke-miterlimit="10" d="
							M133.474,190.545c0,0-1.204-7.713-5.008-10.924"/>
						<path fill="none" stroke="#000000" stroke-linecap="round" stroke-linejoin="round" stroke-miterlimit="10" d="
							M121.947,222.76c0,0-6.506,1.68-7.925,2.238"/>
						<path fill="none" stroke="#000000" stroke-linecap="round" stroke-linejoin="round" stroke-miterlimit="10" d="
							M122.421,214.314c0,0-8.972-1.14-14.412,1.395"/>
					</g>
				</g>
			</g>
		</g>
		<g>
			<path fill="#BBBBBB" stroke="#000000" stroke-linecap="round" stroke-linejoin="round" stroke-miterlimit="10" d="
				M94.892,356.773c28.424,16.736,61.546,26.347,96.917,26.347c35.372,0,68.494-9.61,96.919-26.347H94.892z"/>
			<path fill="#666666" stroke="#000000" stroke-linecap="round" stroke-linejoin="round" stroke-miterlimit="10" d="
				M261.751,369.905H121.868c21.665,8.52,45.251,13.215,69.941,13.215S240.086,378.425,261.751,369.905z"/>
		</g>
	</g>
</g>
<circle fill="none" stroke="#000000" stroke-linecap="round" stroke-linejoin="round" stroke-miterlimit="10" cx="191.81" cy="191.811" r="191.31"/>
</svg>
