<?xml version="1.0" encoding="utf-8"?>
<!-- Generator: Adobe Illustrator 16.0.0, SVG Export Plug-In . SVG Version: 6.00 Build 0)  -->
<!DOCTYPE svg PUBLIC "-//W3C//DTD SVG 1.1//EN" "http://www.w3.org/Graphics/SVG/1.1/DTD/svg11.dtd">
<svg version="1.1" id="Layer_1" xmlns="http://www.w3.org/2000/svg" xmlns:xlink="http://www.w3.org/1999/xlink" x="0px" y="0px"
	 width="365.088px" height="182.18px" viewBox="0 0 365.088 182.18" enable-background="new 0 0 365.088 182.18"
	 xml:space="preserve">
<g>
	<polygon opacity="0.2" fill-rule="evenodd" clip-rule="evenodd" fill="#006AD1" points="18.181,153.544 18.181,181.635 0.5,156.23 
		0.5,134.735 5.377,132.415 13.303,141.209 18.181,153.544 18.181,153.544 	"/>
	<polygon fill="none" stroke="#000000" stroke-linecap="round" stroke-linejoin="round" stroke-miterlimit="10" points="
		18.181,153.544 18.181,181.635 0.5,156.23 0.5,134.735 5.377,132.415 13.303,141.209 18.181,153.544 18.181,153.544 	"/>
	<polygon fill-rule="evenodd" clip-rule="evenodd" fill="#32B2D1" points="20.668,152.316 20.668,152.316 18.181,153.537 
		18.181,153.904 18.181,181.635 20.668,180.291 20.668,152.316 20.668,152.316 	"/>
	<path fill-rule="evenodd" clip-rule="evenodd" fill="#BEBEBE" d="M362.892,9.714C228.887,59.85,228.887,59.85,228.887,59.85
		c-5.495-0.325-5.495-0.325-5.495-0.325C17.041,136.68,17.041,136.68,17.041,136.68c0.61-0.325,0.916-1.628,0.61-2.931
		c-0.61-1.301-1.525-2.278-2.137-1.953c206.351-77.155,206.351-77.155,206.351-77.155c4.013-4.603,4.013-4.603,4.013-4.603
		C359.883-0.096,359.839,0.599,359.839,0.599l0,0c1.526-0.651,3.663,0.977,4.273,3.582C365.028,6.785,364.418,9.063,362.892,9.714
		L362.892,9.714z"/>
	<path fill-rule="evenodd" clip-rule="evenodd" fill="#5A5A5A" d="M228.815,59.741c1.533-0.651,2.146-3.258,1.227-5.539
		c-0.612-2.605-2.76-4.234-4.293-3.909c0,0.326,0,0.326,0,0.326c-3.986,3.909-3.986,3.909-3.986,3.909c-0.307,0-0.307,0-0.307,0l0,0
		c0.92-0.326,2.146,0.651,2.453,1.954c0.613,1.304,0.307,2.607-0.613,2.932l0,0l0,0C228.815,59.741,228.815,59.741,228.815,59.741
		L228.815,59.741z"/>
	<linearGradient id="SVGID_1_" gradientUnits="userSpaceOnUse" x1="1.7441" y1="158.4473" x2="15.5146" y2="158.4473">
		<stop  offset="0" style="stop-color:#FFFFFF;stop-opacity:0"/>
		<stop  offset="0.9089" style="stop-color:#FFFFFF;stop-opacity:0.9629"/>
		<stop  offset="0.9439" style="stop-color:#FFFFFF"/>
	</linearGradient>
	<polygon fill-rule="evenodd" clip-rule="evenodd" fill="url(#SVGID_1_)" points="1.744,141.833 1.744,155.515 15.515,175.061 
		3.572,154.904 1.744,141.833 1.744,141.833 	"/>
	<polygon fill="none" stroke="#000000" stroke-linecap="round" stroke-linejoin="round" stroke-miterlimit="10" points="
		18.225,153.589 18.225,181.68 0.545,156.275 0.545,134.78 5.422,132.459 13.348,141.253 18.225,153.589 18.225,153.589 	"/>
	<polygon opacity="0.2" fill="#006AD1" points="7.876,131.127 15.822,139.919 20.713,152.373 20.713,180.336 18.268,181.68 
		18.268,153.595 13.377,141.262 5.431,132.47 7.876,131.127 7.876,131.127 	"/>
	<polygon fill="none" stroke="#000000" stroke-linecap="round" stroke-linejoin="round" stroke-miterlimit="10" points="
		7.876,131.127 15.822,139.919 20.713,152.373 20.713,180.336 18.268,181.68 18.268,153.595 13.377,141.262 5.431,132.47 
		7.876,131.127 7.876,131.127 	"/>
	
		<line fill="none" stroke="#000000" stroke-linecap="round" stroke-linejoin="round" stroke-miterlimit="10" x1="13.338" y1="141.255" x2="15.827" y2="139.922"/>
	
		<line fill="none" stroke="#000000" stroke-linecap="round" stroke-linejoin="round" stroke-miterlimit="10" x1="18.225" y1="153.604" x2="20.713" y2="152.36"/>
	<path fill="#BEBEBE" d="M14.576,134.723c-0.615-1.297-0.308-2.592,0.615-2.916c0.922-0.325,1.845,0.647,2.46,1.944
		c0.307,1.295,0,2.592-0.616,2.916C16.113,136.99,14.883,136.019,14.576,134.723L14.576,134.723z"/>
	<path fill="none" stroke="#000000" stroke-linecap="round" stroke-linejoin="round" stroke-miterlimit="10" d="M225.765,50.338
		c1.542-0.326,3.7,1.303,4.316,3.909c0.926,2.28,0.31,4.886-1.233,5.538"/>
	<path fill="none" stroke="#000000" stroke-linecap="round" stroke-linejoin="round" stroke-miterlimit="10" d="M221.5,54.693
		c0.934-0.329,2.177,0.655,2.488,1.965c0.621,1.311,0.311,2.622-0.622,2.949"/>
	<path fill="none" stroke="#000000" stroke-linecap="round" stroke-linejoin="round" stroke-miterlimit="10" d="M362.936,9.759
		C228.931,59.894,228.931,59.894,228.931,59.894c-5.494-0.326-5.494-0.326-5.494-0.326
		C17.086,136.724,17.086,136.724,17.086,136.724c0.61-0.325,0.916-1.628,0.61-2.93c-0.61-1.302-1.526-2.279-2.137-1.953
		c206.35-77.156,206.35-77.156,206.35-77.156c3.969-3.906,3.969-4.646,3.969-4.646C359.883-0.097,359.883,0.644,359.883,0.644l0,0
		c1.526-0.651,3.664,0.978,4.274,3.582C365.073,6.83,364.462,9.108,362.936,9.759L362.936,9.759z"/>
	<path fill="#BEBEBE" d="M16.46,135.416c0.305,0,0.61-0.649,0.305-1.3c0-0.651-0.609-1.301-0.914-0.976c-0.304,0-0.304,0-0.304,0
		c-6.702,2.275-6.702,2.275-6.702,2.275c0,0.326-0.305,0.326-0.305,0.651c-2.132,2.928-2.132,2.928-2.132,2.928s0,0.325,0,0.65
		c0,11.059,0,11.059,0,11.059c0,0.65,0.305,1.302,1.219,1.302c0.609,0,1.218-0.651,1.218-1.302c0,0,0-9.758,0-10.733
		c0.305-0.325,0.914-1.627,1.219-2.276C10.978,137.694,16.46,135.416,16.46,135.416L16.46,135.416z"/>
	<path fill="#BEBEBE" stroke="#000000" stroke-miterlimit="10" d="M14.576,134.723c-0.615-1.297-0.308-2.592,0.615-2.916
		c0.922-0.325,1.845,0.647,2.46,1.944c0.307,1.295,0,2.592-0.616,2.916C16.113,136.99,14.883,136.019,14.576,134.723L14.576,134.723
		z"/>
	<path fill="#BEBEBE" stroke="#000000" stroke-miterlimit="10" d="M16.46,135.416c0.305,0,0.61-0.649,0.305-1.3
		c0-0.651-0.609-1.301-0.914-0.976c-0.304,0-0.304,0-0.304,0c-6.702,2.275-6.702,2.275-6.702,2.275c0,0.326-0.305,0.326-0.305,0.651
		c-2.132,2.928-2.132,2.928-2.132,2.928s0,0.325,0,0.65c0,11.059,0,11.059,0,11.059c0,0.65,0.305,1.302,1.219,1.302
		c0.609,0,1.218-0.651,1.218-1.302c0,0,0-9.758,0-10.733c0.305-0.325,0.914-1.627,1.219-2.276
		C10.978,137.694,16.46,135.416,16.46,135.416L16.46,135.416z"/>
</g>
</svg>
