<?xml version="1.0" encoding="utf-8"?>
<!-- Generator: Adobe Illustrator 24.0.1, SVG Export Plug-In . SVG Version: 6.00 Build 0)  -->
<svg version="1.1" id="Camada_1" xmlns="http://www.w3.org/2000/svg" xmlns:xlink="http://www.w3.org/1999/xlink" x="0px" y="0px"
	 width="351.79px" height="364.74px" viewBox="0 0 351.79 364.74" enable-background="new 0 0 351.79 364.74" xml:space="preserve">
<g>
	<g>
		<linearGradient id="SVGID_1_" gradientUnits="userSpaceOnUse" x1="308.8239" y1="132.5473" x2="38.0508" y2="220.0203">
			<stop  offset="0" style="stop-color:#E1D7C8"/>
			<stop  offset="0.5168" style="stop-color:#F0E6D7"/>
			<stop  offset="1" style="stop-color:#DACEBC"/>
		</linearGradient>
		<path fill="url(#SVGID_1_)" d="M351.29,333.25c0,0-18.91,0.81-27.71,3.32c-16.05,4.58-29.67,2.36-46.05,1.18
			c-25.49-1.84-51.02,5.53-76.58,10.58c-35.48,7-71.72,9.58-108.14,11.22c-4.88,0.22-72.5,4.7-72.5,4.7s-2.31-23.21-1.36-34.63
			c1.47-17.58-2.37-35.34-3.66-52.99c-2.94-40.39-2.5-80.97-3.53-121.45C11.5,144.4,0.5,17.73,0.5,17.73s57.93-0.99,84.48-7.46
			c18.39-4.48,37.83-3.21,56.68-3.74c21.34-0.6,42.57-1.37,63.7-2.29c6.41-0.28,86.51-3.74,86.51-3.74s7.13,51.73,12.44,76.49
			c8.82,41.14,16.5,81.7,22.62,123.38c4.23,28.82,10.36,56.84,15.97,85.25C343.44,288.27,351.29,333.25,351.29,333.25z"/>
	</g>
	<g>
		<path fill="none" stroke="#000000" stroke-linecap="round" stroke-linejoin="round" stroke-miterlimit="10" d="M351.29,333.25
			c0,0-18.91,0.81-27.71,3.32c-16.05,4.58-29.67,2.36-46.05,1.18c-25.49-1.84-51.02,5.53-76.58,10.58
			c-35.48,7-71.72,9.58-108.14,11.22c-4.88,0.22-72.5,4.7-72.5,4.7s-2.31-23.21-1.36-34.63c1.47-17.58-2.37-35.34-3.66-52.99
			c-2.94-40.39-2.5-80.97-3.53-121.45C11.5,144.4,0.5,17.73,0.5,17.73s57.93-0.99,84.48-7.46c18.39-4.48,37.83-3.21,56.68-3.74
			c21.34-0.6,42.57-1.37,63.7-2.29c6.41-0.28,86.51-3.74,86.51-3.74s7.13,51.73,12.44,76.49c8.82,41.14,16.5,81.7,22.62,123.38
			c4.23,28.82,10.36,56.84,15.97,85.25C343.44,288.27,351.29,333.25,351.29,333.25z"/>
	</g>
	<g>
		
			<path id="changecolor_10_" fill="#231F20" stroke="#000000" stroke-linecap="round" stroke-linejoin="round" stroke-miterlimit="10" d="
			M108.18,120.69c0.3-0.06,0.66-0.33,0.79-0.57c0.57-1.06,0.9-2.23,1.32-3.35c0.4-1.06,0.9-1.9,1.41-2.91
			c0.05-0.1,0.1-0.24,0.03-0.33c-0.04-0.06-0.12-0.08-0.19-0.09c-0.3-0.07-0.6-0.11-0.9-0.12c-0.07,0-0.15,0-0.2,0.04
			c-0.28,0.21-0.09,0.68-0.15,0.96c-0.07,0.28-0.28,0.57-0.41,0.84c-0.34,0.67-0.66,1.35-0.98,2.03c-0.41,0.87-1.13,2-1.2,2.98
			C107.67,120.63,107.9,120.75,108.18,120.69z M177.98,85.73c-2.81,0.1-5.24,0.37-5.83,0.46c-1.45,0.22-2.85,0.24-4.22,0.84
			c-0.54,0.24-1.76,0.87-0.67,1.26c0.74,0.26,2.3-0.52,3.02-0.7c0.92-0.23,5.66-1.65,5.9,0.09c0.11,0.77-0.69,1.83-1.07,2.43
			c-0.13,0.21-0.99,1.77-1.22,1.77c-0.27,0-0.51,0.2-0.54,0.47c-0.01,0.1,0.01,0.2,0.05,0.28c-0.87,1.35-1.44,3.01-2.69,4.07
			c-0.79,0.67-1.45,0.52-2.44,0.54c-1.22,0.02-2.44,0.07-3.66,0.22c-0.3,0.04-0.51,0.31-0.47,0.61c0.03,0.28,0.27,0.48,0.54,0.48
			c0.02,0,0.04,0,0.07,0c1.68-0.21,3.42-0.22,5.1-0.23c1.19-0.01,2.42-0.02,3.64-0.09c1.84-0.12,3.29-0.28,4.57-0.53
			c0.72-0.14,1.44-0.3,2.14-0.52c0.38-0.12,0.77-0.34,1.15-0.42c0.22-0.04,0.63,0.01,0.78-0.09c0.77-0.51,1.54-1.03,2.22-1.65
			c0.34-0.31,0.67-0.67,0.79-1.12c0.13-0.44,0-0.99-0.4-1.23c-0.13-0.07-0.28-0.12-0.35-0.24c-0.3-0.5,1.14-1.08,1.42-1.23
			c0.87-0.46,1.72-1.02,2.22-1.9C189.94,85.94,183.29,85.54,177.98,85.73z M178.63,87.47c0.89-0.41,1.93-0.41,2.96-0.27
			c1.02,0.14,2.11,0.28,3.09,0.59c2.28,0.73,0.6,2.35-0.92,2.76c-1.56,0.42-3.15,0.73-4.73,1.04c-0.84,0.16-3.14,0.81-3.13-0.67
			c0-0.93,0.94-1.73,1.46-2.42C177.73,88.02,178.16,87.69,178.63,87.47z M174.72,93.51c0.56-0.29,1.18-0.4,1.96-0.4
			c1.27,0,2.53-0.1,3.78-0.29c0.2,0.04,0.41,0.07,0.62,0.1c0.62,0.09,1.26,0.17,1.64,0.52c0.34,0.31,0.31,0.53,0.31,0.6
			c-0.04,0.37-0.47,0.85-1.09,1.21c-1.33,0.77-2.88,1.14-4.08,1.37c-0.91,0.18-1.9,0.39-2.83,0.31c-0.39-0.03-2.1-0.02-2.23-0.29
			c-0.23-0.48,0.41-1.78,0.72-2.13C173.91,94.06,174.3,93.73,174.72,93.51z M203.9,134.19c0.62,0.06,1.28,0.11,1.95,0.11
			c0.61,0,1.48,0.15,2.05,0.08c0.43-0.06,1.17-1.12,0.98-1.11c-1.62,0.02-3.27-0.02-4.88-0.16c-2.72-0.24-6.11-1.87-5.88-5.13
			c0.13-1.8,0.75-4.15,2.24-5.29c1.16-0.88,3.23-2.36,4.73-1.48c0.51,0.29,0.71,1.54,1.33,1.35c0.48-0.15,0.64-1.2,0.48-1.58
			c-0.33-0.77-1.55-0.99-2.26-1.26c-1.04-0.39-2.16-0.34-3.07,0.13c-0.69,0.36-1.24,0.91-1.72,1.44c-1.91,2.13-2.33,4.45-2.96,7.11
			c-0.6,2.49,0.75,3.76,2.85,4.85C201.02,133.91,202.5,134.06,203.9,134.19z M239.15,250.16c0.73,0.29,1.27,1.11,1.89,1.59
			c1.31,1.03,22.39,5.76,26.6,6.7c3.03,0.67,6.24,1.12,9.1,2.35c0.41,0.18,0.8,0.41,1.2,0.59c0.96,0.42,2.02,0.53,3.06,0.61
			c0.5,0.04,1.03,0.06,1.49-0.15c2.36-1.07-2.86-1.87-3.5-2.01c-2.07-0.46-4.15-0.92-6.22-1.37c-0.99-0.22-1.97-0.28-2.95-0.45
			c-1.47-0.26-2.95-0.99-4.39-1.41c-2.87-0.83-5.79-1.49-8.74-1.95c-1.96-0.31-4.39-0.17-6.21-0.97c-1.72-0.76-3.58-1.11-5.31-1.9
			c-1.02-0.46-3.52-1.25-3.81-2.51c-0.34-1.48,2.97-1.92,3.84-2.17c1.61-0.45,3.21-0.9,4.82-1.35c4.19-1.19,8.37-2.39,12.54-3.62
			c4.43-1.3,9.41-2.24,13.59-4.25c1.85-0.89,3.79-1.62,5.74-2.25c0.86-0.28,5.91-0.82,4.24-2.64c-2.35,0.49-4.6,1.64-6.85,2.46
			c-1.25,0.46-2.34,0.44-3.6,0.69c-3.26,0.64-6.55,2.34-9.69,3.43c-6.46,2.26-13.01,4.33-19.75,5.58c-3.33,0.62-6.12,2.74-9.55,2.92
			c-2.24,0.12-4.29-0.87-6.22-1.9c-1.05-0.56-2.09-1.11-3.14-1.67c-1.57-0.83-3.13-1.67-4.7-2.5c-0.72-0.38-1.47-1.44-2.21-1.96
			c-0.86-0.61-1.75-1.17-2.65-1.7c-1.75-1.04-3.56-1.98-5.36-2.95c-0.64-0.34-1.87-1.43-1.21-2.23c0.38-0.46,2.03-0.62,2.61-0.77
			c3.04-0.79,6.48-1.68,9.34-2.14c1.64-0.27,3.25-0.67,4.85-1.09c1.69-0.45,3.29-0.72,4.97-1.06c1.73-0.35,3.51-0.71,4.97-1.69
			c0.32-0.22,0.66-0.55,0.58-0.93c-0.26-1.12-5.72,1.14-6.52,1.39c-2.96,0.91-5.96,1.82-9.02,2.32c-3,0.49-6.11,1.11-8.93,2.2
			c-1.15,0.44-5.28,1.13-5.44-0.91c-0.12-1.62,1.38-3.1,2.14-4.39c0.83-1.43,1.66-2.86,2.51-4.27c1.22-2.03,7.53-10,7.6-10.08
			c0.19-0.24,0.15-0.58-0.09-0.76c-0.24-0.19-0.58-0.15-0.76,0.09c-0.26,0.33-6.42,8.1-7.68,10.19c-1.23,2.05-2.43,4.13-3.63,6.19
			c-1.48,2.54-2.33,4.47-5.47,4.99c-7.86,1.31-16.01,3.18-24.01,2.92c-4.63-0.15-11.3,1.23-16.16,2.25
			c-1.79,0.37-3.34,0.7-4.49,0.88c-3.6,0.58-7.11,1.71-10.61,2.7c-1.39,0.39-2.52,0.57-3.08-1.02c-0.45-1.27-0.26-2.73-0.26-4.06
			c0-0.97-0.13-2.46-0.29-4.19c-0.26-2.88-0.58-6.46-0.5-9.72c0.06-2.46,0.03-9.99-0.02-17.96c-0.01-2.75-0.14-5.5,0.18-8.24
			c0.34-2.87,0.67-5.74,1.01-8.61c0.03-0.29,0.08-0.61,0.27-0.83c0.14-0.17,0.35-0.26,0.56-0.34c6.5-2.77,13.12-5.36,19.99-6.98
			c1.33-0.31,2.67-0.59,3.99-0.92c2.85-0.7,5.65-1.6,8.44-2.51c1.24-0.37,2.51-0.64,3.73-1.07c0.55-0.19,1.24-0.72,1.78-0.81
			c0.64-0.11,1.42,0.41,2.1,0.43c0.26,0.01,0.52-0.02,0.79-0.03c0.85-0.05,1.06,0.38,1.8,0.73c3.38,1.6,7.25,1.99,10.53,3.8
			c1.58,0.87,2.97,2.04,4.4,3.13c1.05,0.79,3.14,2.7,4.61,2.29c0.39-0.11,0.71-0.43,0.81-0.82c0.03-0.1,0.04-0.2,0.01-0.3
			c-0.03-0.13-0.14-0.24-0.23-0.34c-0.86-0.85-1.84-1.57-2.88-2.18c-1.01-0.59-1.92-1.29-2.94-1.87c-1.69-0.96-3.53-1.66-5.43-2.07
			c-1.36-0.29-2.4-1.06-3.68-1.58c-1.73-0.71-4.48-1.15-5.34-3.01c-0.94-2.03,0.05-4.35,1.04-6.16c1.09-2.01,2.02-3.96,2.84-6.08
			c0.47-1.19,0.76-2.52,1.63-3.43c0.56-0.58,0.8-1.75,0.9-2.52c0.05-0.36,0.15-1.1-0.15-1.39c-0.44-0.43-1.35,0.01-1.71,0.37
			c-0.45,0.45-0.44,1.04-0.67,1.6c-0.25,0.6-0.63,1.17-0.89,1.77c-1.03,2.38-2.16,4.7-3.05,7.15c-0.89,2.46-1.72,5.02-2.92,7.31
			c-0.4,0.75-0.58,1.46-1.37,1.79c-2.8,1.18-5.91,1.9-8.83,2.69c-1.41,0.38-2.82,0.76-4.26,1.01c-2.74,0.48-8.54,2.22-12.38,3.38
			c-1.29,0.39-2.3,0.69-2.82,0.83c-1.46,0.4-2.9,0.9-4.33,1.37c-1.01,0.33-2.01,0.66-3.02,1c-1.38,0.46-2.93,0.78-3.44-0.98
			c-1-3.48-1.33-7.11-1.62-10.71c-0.13-1.62-0.49-3.19-0.66-4.82c-0.2-1.82-0.38-3.65-0.59-5.47c-0.07-0.61-0.06-1.25-0.32-1.81
			c-0.2-0.45-0.39-0.84-0.51-1.32c-0.18-0.71-0.58-2.13,0.16-2.66c0.44-0.32,1.39-0.31,1.92-0.41c0.72-0.14,1.43-0.27,2.15-0.4
			c2.24-0.41,4.55-0.97,6.83-1.11c0.07,0,0.14-0.01,0.21-0.01c1.65,0,11.79-1.33,12.64-1.44l3.34,0.07
			c0.29,0.02,0.55-0.23,0.56-0.53c0.01-0.3-0.23-0.55-0.53-0.56l-3.39-0.08c-0.03,0-0.06,0-0.08,0c-0.11,0.01-10.92,1.44-12.54,1.44
			c-1.32,0-2.69,0.33-3.99,0.56c-0.98,0.17-1.97,0.32-2.94,0.52c-0.56,0.12-1.35,0.55-1.9,0.22c-1.02-0.61,0.45-1.57,0.96-1.96
			c1.65-1.27,3.6-2.09,5.22-3.4c1.38-1.12,2.47-2.55,3.68-3.86c1.15-1.25,2.42-2.4,3.78-3.42c0.98-0.73,2.01-1.41,2.85-2.3
			c0.98-1.03,1.53-1.78,3.02-1.92c1.18-0.11,2.37,0.2,3.45,0.57c0.73,0.25,1.48,0.46,2.21,0.71c0.73,0.25,1.35,0.71,2.02,1.1
			c1.58,0.91,3.17,1.81,4.75,2.72c0.58,0.33,1.17,0.67,1.7,1.08c0.18,0.14,0.36,0.3,0.44,0.52c0.21,0.6-1.18,1.75-1.55,2.16
			c-0.47,0.53-0.95,1.14-1.51,1.58c-0.23,0.12-0.34,0.4-0.26,0.65c0.08,0.23,0.29,0.37,0.52,0.37c0.06,0,0.11-0.01,0.17-0.03
			c0.96-0.32,1.96-1.9,2.58-2.63c0.39-0.45,0.87-1.01,1.37-1.32c0.5-0.31,1.08-0.41,1.06-1.17c-0.01-0.57-0.08-0.84,0.12-1.41
			c0.41-1.2,1.18-2.37,1.76-3.5c0.14-0.27,0.03-0.6-0.24-0.73c-0.27-0.14-0.6-0.03-0.73,0.24c-0.07,0.14-1.63,3.18-2.22,4.49
			c-0.05-0.06-0.09-0.12-0.14-0.19c-0.45-0.59-2.03-1.46-4.22-2.62c-0.54-0.28-1.01-0.54-1.34-0.72c-1.04-0.59-2.26-0.94-3.37-1.35
			c-0.74-0.27-4.25-1.01-4.22-1.91c0.03-1.06,1.94-1.17,2.71-1.4c1.17-0.34,2.33-0.68,3.5-1.02c2.9-0.84,5.83-1.88,8.83-2.25
			c0.99-0.12,1.99-0.2,3-0.23c0.3-0.01,0.59-0.01,0.88,0.05c0.2,0.05,0.4,0.13,0.61,0.14c0.29,0.02,0.57-0.11,0.85-0.19
			c0.64-0.2,1.65-0.45,2.13,0.14c0.38,0.46,0.4,1.3,0.55,1.87c0.07,0.24,0.29,0.39,0.52,0.39c0.05,0,0.1-0.01,0.15-0.02
			c0.29-0.08,0.46-0.38,0.37-0.67c-0.25-0.88-0.62-1.79-0.45-2.72c0.14-0.74,0.08-0.54-0.32-1.14c-0.17-0.26-0.2-0.43-0.27-0.72
			c-0.3-1.26-0.77-2.73-0.77-4.02c-0.04-0.3-0.32-0.5-0.62-0.46c-0.3,0.04-0.5,0.32-0.46,0.62c0.11,0.79,0.4,2.68,0.59,3.09
			c0.84,2.11-1.98,1.84-3.24,2.03c-1.35,0.2-2.7,0.4-4.03,0.66c-2.1,0.42-4.18,1.11-6.24,1.7c-1.42,0.41-2.85,0.82-4.27,1.23
			c-0.9,0.26-3.01,1.35-3.63,0.19c-0.2-0.38-0.15-0.85,0.03-1.24c0.48-1.04,1.66-1.68,2.54-2.34c1.15-0.86,2.29-1.75,3.32-2.76
			c0.77-0.74,1.71-1.19,2.46-1.95c0.8-0.81,0.85-1.89,1.61-2.72c0.8-0.87,1.79-1.69,3.04-1.66c0.28,0.01,0.57,0.07,0.85,0.08
			c0.49,0.01,0.94-0.03,1.43,0.05c0.39,0.07,1.14,0.42,1.44-0.05c0.11-0.17,0.06-0.42-0.08-0.57c-0.29-0.3-1.21-0.44-1.63-0.62
			c-0.73-0.32-1.45-0.64-2.18-0.95c-0.03-0.07-0.07-0.14-0.12-0.2c-0.15-0.15-0.35-0.18-0.54-0.13c-1.04-0.66-2.68-2.3-3.29-2.96
			c-0.21-0.22-0.55-0.23-0.77-0.03c-0.22,0.21-0.23,0.55-0.03,0.77c0.63,0.68,2.72,2.03,2.35,3.11c-0.06,0.17-0.16,0.32-0.27,0.46
			c-0.25,0.34-0.5,0.68-0.74,1.02c-1.58,2.17-3.32,4.02-5.26,5.87c-2.06,1.95-4.3,3.65-6.39,5.59c-0.74,0.69-1.54,1.56-1.39,2.57
			c0.03,0.21,0.1,0.42,0.07,0.63c-0.03,0.2-0.15,0.37-0.28,0.53c-0.99,1.24-2.72,2.57-4.28,2.92c-0.14,0.03-0.29,0.06-0.42,0.14
			c-0.14,0.1-0.22,0.25-0.29,0.4c-1.16,2.19-3.16,3.37-4.91,5.04c-2.13,2.01-4.32,4.09-5.02,4.59c-1.58,1.12-3.34,3.02-5.24,3.36
			c-0.14,0.03-0.29,0.05-0.42,0c-0.62-0.26-0.67-1.93-0.77-2.49c-0.18-1.04-0.3-2.09-0.37-3.15c-0.18-2.32-0.2-4.68-0.03-6.99
			c0.08-1.14-0.2-2.37-0.31-3.51c-0.12-1.21-0.21-2.41-0.3-3.62c-0.08-1.21-0.22-2.45-0.19-3.66c0.02-0.91-0.35-1.96-0.11-2.83
			c0.09-0.33,0.27-0.62,0.46-0.91c0.35-0.54,0.71-1.06,1.08-1.58c0.31-0.43,0.59-1.19,1.02-1.46c2.13-1.38,4.52-2.05,6.85-2.96
			c5.56-2.19,11.21-4.11,16.84-6.12c0.69-0.24,1.37-0.49,2.01-0.85c0.65-0.36,1.29-0.85,2.03-1c0.78-0.16,1.39,0.3,2.12,0.25
			c0.31-0.02,0.6-0.2,0.77-0.46c-0.06-0.14-0.13-0.28-0.26-0.36c-0.07-0.05-0.16-0.06-0.25-0.08c-0.85-0.16-1.42-0.37-2.17-0.76
			c-0.21-0.11-2.17-0.68-2.17-0.87c-0.4-0.22-2.38-1.87-3.52-2.87c-0.23-0.2-0.57-0.17-0.77,0.06c-0.2,0.23-0.17,0.57,0.06,0.77
			c0.77,0.67,1.56,1.34,2.35,1.98c0.4,0.33,1.03,0.63,1.38,0.98c0.45,0.47-0.08,1.01-0.62,1.33c-0.22,0.12-0.46,0.18-0.7,0.25
			c-1.58,0.44-3.11,1.19-4.64,1.78c-1.96,0.76-3.91,1.51-5.87,2.26c-3.74,1.44-7.28,2.79-8.07,3.13c-0.86,0.37-1.76,0.64-2.65,0.93
			c-0.94,0.31-3.58,1.43-2.33-0.73c0.67-1.16,1.49-2.26,2.33-3.29c1.52-1.88,2.92-3.86,4.11-5.96c0.59-1.05,1-2.26,1.64-3.27
			c0.35-0.55,0.71-1.15,1.4-1.28c0.89-0.17,1.32-0.03,1.9,0.7c0.11,0.13,0.27,0.2,0.43,0.2c0.12,0,0.24-0.04,0.34-0.12
			c0.23-0.19,0.27-0.53,0.09-0.76c-0.14-0.18-1.2-1.25-2.41-1.87c-0.03-0.15-0.12-0.28-0.26-0.36c-0.19-0.11-0.4-0.08-0.57,0.03
			c-0.04-0.01-0.09-0.03-0.13-0.04c-1.41-0.34-5.72,0.16-6.2,0.22c-0.3,0.04-0.51,0.31-0.48,0.6c0.04,0.3,0.31,0.51,0.6,0.48
			c0.82-0.1,1.64-0.17,2.46-0.24c0.62-0.05,1.8-0.32,2.35,0.1c0.84,0.64-0.45,2.04-0.8,2.66c-0.44,0.78-0.87,1.55-1.31,2.33
			c-0.16,0.22-1.3,1.85-1.93,3.02c-0.74,1.38-1.93,2.62-2.89,3.84c-0.72,0.91-1.45,1.83-2.19,2.73c-0.43,0.54-0.89,1.39-1.63,1.54
			c-0.88,0.17-1.63-0.8-1.99-1.48c-0.84-1.57-1.68-3.15-2.52-4.72c-1.09-2.04-2.17-4.07-3.26-6.11c-0.15-0.29-0.31-0.58-0.43-0.89
			c-0.25-0.64-0.35-1.34-0.51-2.01c-0.23-0.99-0.62-1.95-1.13-2.84c-0.32-0.54-0.65-1.24,0.04-1.55c0.41-0.19,1.29-0.25,1.77-0.3
			c0.29-0.01,0.52-0.25,0.52-0.54c0-0.3-0.24-0.54-0.54-0.54c-0.33,0-2.86,0.62-4.93,1.15c-0.02,0.01-0.04,0.01-0.06,0.02
			l-6.57,2.45c-0.28,0.1-0.42,0.42-0.32,0.7c0.08,0.22,0.29,0.35,0.51,0.35c0.06,0,0.13-0.01,0.19-0.03c1.33-0.5,2.67-0.99,4-1.49
			c0.78-0.29,1.68-0.79,2.5-0.92c1.25-0.2,1.4,1.16,1.65,2.05c0.32,1.14,0.7,2.26,1.12,3.37c0.92,2.41,2.28,4.69,3.54,6.93
			c0.75,1.33,1.52,2.65,2.3,3.96c0.53,0.89,1.2,1.69,1.59,2.66c0.47,1.15-0.45,1.37-1.49,1.25c-2.17-0.25-4.24-1.04-6.29-1.82
			c-1.78-0.68-3.55-1.35-5.33-2.03c-1.17-0.44-2.35-0.89-3.59-1.1c-1.12-0.19-2.26-0.17-3.39-0.31c-0.94-0.12-3.03-0.62-3.71,0.25
			c-0.09,0.12-0.17,0.26-0.18,0.42c-0.01,0.25,0.15,0.48,0.35,0.61c0.21,0.14,0.46,0.19,0.7,0.24c1.45,0.27,2.94,0.23,4.41,0.32
			c0.7,0.04,1.51,0.05,2.18,0.27c2.95,0.97,5.82,2.32,8.78,3.33c1.87,0.64,3.79,1.23,5.77,1.27c0.64,0.01,1.31-0.03,1.9,0.22
			c1.77,0.76,1.31,3.54,1.38,5.07c0.11,2.28,0.22,4.56,0.32,6.84c0.16,3.54,0.3,7.08,0.41,10.62c0.04,1.42,0.08,2.84,0.11,4.25
			c0.01,0.65,0.13,1.24,0.2,1.87c0.09,0.85-0.65,1.13-1.42,1.2c-1.12,0.11-2.26-0.05-3.31-0.44c-0.42-0.16-0.8-0.41-1.21-0.58
			c-0.45-0.18-0.97-0.19-1.46-0.27c-1.12-0.18-2.23-0.46-3.3-0.82c-0.62-0.21-1.22-0.45-1.86-0.61c-1.2-0.29-2.3-0.44-3.43-0.94
			c-1.16-0.5-2.64-0.52-3.89-0.85c-3.08-0.81-5.99-2.31-9.16-2.6c-0.31-0.03-0.64-0.04-0.93,0.08s-0.53,0.4-0.51,0.72
			c0.04,0.42,0.51,0.65,0.91,0.79c2.82,0.99,5.69,1.83,8.6,2.52c0.77,0.19,1.55,0.24,2.33,0.39c0.6,0.11,1.19,0.38,1.78,0.56
			c1.53,0.46,3.07,0.88,4.58,1.37c0.69,0.21,4.87,1.1,4.85,1.66c-0.01,0.18-0.2,0.28-0.37,0.33c-0.17,0.04-0.37,0.07-0.48,0.2
			c0.6,0.28,1.23,0.49,1.87,0.64c0.28,0.93-2.72,1.31-3.39,1.51c-0.89,0.27-1.8,0.53-2.66,0.88c-1.34,0.56-5.82,2.11-10.57,3.76
			c-3.06,1.06-5.89,2.39-9.16,2.79c-0.93,0.11-1.89,0.17-2.8-0.07c-1.16-0.3-2.18-1.13-2.29-2.36c-0.13-1.45-0.81-2.9-1.21-4.31
			c-0.89-3.17-1.55-6.39-2.43-9.56c-0.18-0.65-0.37-1.3-0.7-1.89c-0.35-0.62-0.84-1.17-1.01-1.86c-0.14-0.58-0.05-1.24-0.38-1.74
			c-0.21-0.32-0.55-0.51-0.85-0.74c-0.36-0.27-0.66-0.61-0.91-0.98c-0.13-0.2-0.24-0.43-0.24-0.67c0.02-0.81,1.91-1.17,2.49-1.34
			c0.26-0.08,0.53-0.15,0.77-0.29c0.01-0.01,0.02-0.01,0.03-0.02c0.43-0.26,0.76-0.9,0.32-1.32c-0.32-0.3-0.78-0.15-1.13,0
			c-0.96,0.43-1.87,1.05-2.78,1.58c-1.17,0.68-2.37,1.38-3.14,1.8c-1.64,0.89-8.04,3.98-8.1,4.01c-0.44,0.21-0.37,0.79,0,1.01
			c0.42,0.25,1.03,0.11,1.44-0.07c0.86-0.36,1.73-0.73,2.53-1.21c0.5-0.3,0.97-0.63,1.45-0.95c0.72-0.48,1.46-0.92,2.23-1.32
			c0.6-0.32,1.23-0.8,1.93-0.79c0.99,0.02,1.49,1.57,1.91,2.29c0.64,1.11,1.28,2.22,1.91,3.33c0.31,0.53,0.38,1.4,0.54,2
			c0.18,0.67,0.35,1.34,0.54,2c0.37,1.24,0.74,2.44,0.96,3.74c0.16,0.93,0.13,1.8,0.34,2.73c0.46,2.05,0.94,4.12,1.88,6
			c0.25,0.51,0.54,1,0.72,1.53c0.2,0.58,0.63,2.84-0.56,2.56c-0.49-0.12-0.56-0.64-0.57-1.08c0-0.31,0-0.65-0.16-0.92
			c-0.15-0.25-0.41-0.4-0.68-0.52c-0.95-0.42-2-0.53-3.03-0.63c-4.64-0.46-9.28-0.92-13.93-1.39c-2.29-0.23-4.58-0.46-6.85-0.81
			c-0.62-0.1-2.69-0.31-2.8,0.7c-0.03,0.3,0.18,0.57,0.48,0.6c8.95,1,23.53,2.73,24.53,3.17c0.9,0.39,1.32,2.01,0.55,2.71
			c-0.48,0.43-1.2,0.74-1.74,1.1c-2.61,1.71-5.3,3.48-6.3,4.01c-2.09,1.12-8.41,6.18-9.71,7.55c-0.98,1.04-2.11,1.96-3.19,2.9
			c-0.97,0.84-1.93,2.25-3.3,2.45c-0.84,0.12-1.06-0.58-1.52-1.16c-0.36-0.45-0.72-0.9-1.07-1.35c-0.19-0.24-0.53-0.27-0.76-0.09
			c-0.24,0.19-0.27,0.53-0.09,0.76c0.81,1.01,1.62,2.03,2.42,3.04c0.59,0.74,1.2,1.46,1.8,2.19c0.65,0.78,1.09,1.71,1.77,2.49
			c0.06,0.07,0.13,0.14,0.21,0.19c0.23,0.13,0.55,0.01,0.7-0.21c0.49-0.76-0.92-2.03-1.4-2.54c-0.24-0.25-0.61-0.42-0.64-0.8
			c-0.04-0.46,0.46-0.99,0.74-1.29c0.91-1,1.82-1.99,2.73-2.99c0.9-0.98,1.94-1.92,2.73-2.98c1.41-1.88,3.6-3.2,5.44-4.64
			c1.13-0.89,2.12-1.77,3.43-2.47c1.31-0.7,2.67-1.3,3.97-2.02c1.42-0.79,2.76-1.73,4.16-2.57c3.32-2.01,6.91-3.51,10.5-4.99
			c1.73-0.72,3.48-0.93,5.23-1.57c2.38-0.87,4.71-1.9,7.06-2.83c3.9-1.55,7.89-2.85,11.95-3.89c1.38-0.35,2.85-0.68,4.27-0.4
			c0.73,0.14,1.15,0.33,1.44,1.04c0.23,0.57,0.28,1.19,0.36,1.79c0.13,1.04,0.28,2.08,0.43,3.11c0.4,2.77,0.83,5.53,1.25,8.3
			c0.4,2.57,0.8,5.13,1.17,7.71c0.13,0.87,0.18,1.74,0.33,2.61c0.12,0.66,0.12,1.48-0.29,2.05c-0.32,0.45-0.96,0.47-1.49,0.56
			c-1.46,0.24-2.94,0.23-4.41,0.06c-1.51-0.17-3.04-0.14-4.57-0.16c-2.75-0.04-5.5-0.25-8.24-0.46c0.06-2.38,1.49-4.47,2.53-6.61
			c1.3-2.69,2.03-5.65,2.12-8.63c0.02-0.77,0-1.56-0.2-2.3c-0.26-0.93-0.97-1.87-1.94-1.89c-0.4-0.01-0.78,0.15-1.13,0.35
			c-0.79,0.46-1.46,1.25-1.5,2.17c-0.05,1.01,0.64,1.89,0.93,2.86c0.47,1.53-0.07,3.16-0.6,4.66c-0.44,1.26-0.89,2.53-1.56,3.69
			c-0.64,1.1-1.47,2.08-1.96,3.26c-0.19,0.45-0.2,1.06-0.61,1.35c-0.45,0.32-1.24,0.3-1.74,0.18c-0.59-0.14-1.13-0.44-1.66-0.74
			c-0.87-0.49-1.74-0.98-2.62-1.46c-1.04-0.58-2.11-1.18-3.29-1.37c-1.09-0.18-2.21,0.01-3.27,0.3c-0.62,0.17-1.25,0.39-1.75,0.8
			c-0.52,0.43-0.86,1.04-1.19,1.63c-0.11,0.21-0.23,0.43-0.22,0.67c0.01,0.3,0.22,0.55,0.45,0.74c0.63,0.52,1.47,0.72,2.28,0.77
			c0.82,0.05,1.63-0.04,2.45-0.03c1.9,0.02,3.74,0.6,5.55,1.16c0.93,0.29,1.88,0.59,2.62,1.22c0.74,0.63,1.22,1.67,0.91,2.58
			c-0.11,0.33-0.32,0.63-0.52,0.92c-1.12,1.62-2.1,3.35-2.91,5.15c-0.16,0.36-0.32,0.75-0.23,1.13c0.17,0.7,1.12,0.94,1.77,0.64
			c0.65-0.3,1.07-0.94,1.44-1.55c1.21-1.95,2.41-3.9,3.62-5.85c0.55-0.88,1.11-1.78,1.91-2.44c1.22-1,2.57-0.78,4.03-0.78
			c3.12,0,6.21-0.3,9.32,0.2c1.54,0.25,3.03,0.94,4.62,0.85c0.58-0.03,1.16-0.12,1.23,0.62c0.06,0.61-0.46,0.99-0.66,1.51
			c-0.17,0.44-0.17,0.94-0.08,1.39c0.13,0.68,0.45,1.3,0.73,1.94c0.71,1.62,0.45,3.42,0.46,5.16c0.01,1.93,0.08,3.82,0.22,5.73
			c0.16,2.05-0.42,4.35-0.61,6.41c-0.47,5.1,0.1,10.35,0.05,15.51c-0.02,1.51-0.3,2.7-0.03,4.22c0.3,1.66,0.77,3.31,0.77,5.01
			c0,1.47,0.19,3.87-0.4,5.23c-0.55,1.27-1.72,1.22-2.63,0.36c-1.53-1.46-3.66-2.1-5.73-2.51c-2.07-0.42-4.21-0.67-6.14-1.56
			c-2.58-1.19-4.53-3.39-6.74-5.17c-0.8-0.65-1.85-1.5-2.91-1.66c-1.02-0.15-1.76,1.17-0.76,1.17c0.45,0.13,2.09,1.88,2.96,2.81
			c0.43,0.46,0.83,0.88,1.14,1.2c1.12,1.12,3.5,2.1,5.81,3.05c0.44,0.18,0.88,0.36,1.31,0.54c1.21,0.51,2.56,0.77,3.87,1.02
			c1.64,0.31,3.34,0.64,4.82,1.46c1.26,0.69,2.49,1.45,3.76,2.11c1.61,0.84,1.02,2.84-0.39,3.58c-0.87,0.46-0.04,3.33-0.49,4.41
			c-0.44,1.08-0.97,2.16-1.44,3.26c-2.31,5.46-4.92,10.82-7.97,15.89c-2.37,3.94-4.38,8.16-7.12,11.87
			c-1.71,2.32-2.92,5.41-5.31,7.14c-0.39,0.28-0.82,0.54-1.09,0.94c-0.27,0.4-0.32,1,0.04,1.33c1.67,1.54,2.81-1.57,3.36-2.52
			c1.84-3.22,4.08-6.26,6.12-9.36c2.16-3.28,4.7-6.57,6.35-10.13c1.89-4.09,4.02-7.96,5.92-12.06c1.47-3.18,2.97-6.36,4.86-9.31
			c0.76-1.18,1.56-2.55,2.5-3.59c0.84-0.92,2.24-1.08,3.4-1.41c2.8-0.79,5.64-1.64,8.52-2.1c1.17-0.19,2.73-0.51,4.54-0.89
			c4.81-1,11.4-2.38,15.91-2.23c3.91,0.13,7.87-0.33,11.76-0.71c4.58-0.44,9.43-1.53,14.03-1.3c2.07,0.11,3.59,1.13,5.4,2.09
			c2.09,1.12,4.18,2.24,6.26,3.38c3.27,1.79,6.93,3.45,9.85,5.78c1.57,1.25,3.24,2.33,4.42,3.96c2.28,3.14,4.85,6.07,6.82,9.39
			c1.64,2.76,3.27,5.51,4.87,8.29c1.24,2.17,3.93,6.34,6.3,10.02c1.91,2.96,3.56,5.52,4.11,6.5c0.81,1.44,2.48,2.82,3.01,4.33
			c0.07,0.19,0,0.77,0.07,1.05c0.11,0.45,0.35,0.88,0.46,1.35c0.96,4.21-0.9,9.05-1.82,13.15c-0.78,3.46-0.26,9.72-4.94,10.13
			c-2.74,0.24-4.66-0.52-4.68-0.52c-0.28-0.11-0.6,0.02-0.71,0.3c-0.11,0.28,0.02,0.6,0.3,0.71c0.07,0.03,1.63,0.65,3.99,0.65
			c0.38,0,0.78-0.02,1.19-0.05c1.12-0.1,1.93-0.15,2.52-0.16c0.04,0.04,0.08,0.08,0.14,0.11c0.08,0.04,0.16,0.06,0.24,0.06
			c0.15,0,0.29-0.06,0.39-0.17c0.52,0.01,0.71,0.07,0.78,0.1c0.26,0.14,0.59,0.05,0.74-0.22c0.36-0.67-0.44-0.58-0.61-0.9
			c-0.57-1.09-0.1-2.16,0.2-3.21c0.36-1.23,0.58-2.52,0.86-3.77c0.36-1.59,0.72-3.18,1.07-4.78c0.38-1.7,1.92-14.54,5.81-11.19
			c0.86,0.74,1.49,1.99,2.1,2.94c0.95,1.46,3.23,4.09,3.23,5.93c0,1.36,0.65,7.15,1.12,8.57c0.3,0.91,0.48,1.78,0.56,2.23
			c-0.26,0.06-0.52,0.12-0.78,0.17c-2.43,0.45-4.71,0.82-4.73,0.82c-0.3,0.05-0.5,0.33-0.45,0.62c0.04,0.27,0.27,0.46,0.54,0.46
			c0.03,0,0.06,0,0.09-0.01c0.02,0,2.32-0.37,4.76-0.82c1.69-0.31,3.33-0.87,4.3-1.21c0.32-0.11,0.65-0.22,0.75-0.24
			c0.28-0.02,0.5-0.26,0.5-0.54c0-1.09-1.56-0.15-2.05-0.16c-0.99-0.02-1.49-0.75-1.75-1.61c-0.95-3.12-0.52-6.3-1.22-9.41
			c-0.25-1.1-0.97-2.03-1.68-2.91c-1.08-1.36-2.17-2.72-3.25-4.07c-1.02-1.28-2.38-2.99-0.56-4.15c1.24-0.79,2.82-0.68,4.19-1.08
			c1.65-0.49,3.55-0.48,5.25-0.62c1.07-0.09,2.17-0.25,3.23-0.25c4.4,0.02,7.31,3.7,10.89,5.65c0.34,0.19,0.69,0.38,1.06,0.51
			c2.64,0.95-2.65,6.2-3.65,7.44c-0.19,0.23-0.15,0.58,0.08,0.76c0.1,0.08,0.22,0.12,0.34,0.12c0.16,0,0.32-0.07,0.42-0.2
			c0.93-1.15,1.84-2.3,2.75-3.47c0.59-0.76,1.19-1.52,1.74-2.32c0.3-0.43,0.43-0.7,0.88-0.94c0.55-0.29,1.19-0.12,1.64-0.67
			c0.44-0.53,0.32-1.3,0.17-1.97c-0.23-1.06-0.06-1.78,0.47-2.69c0.78-1.37,1.31-2.3,1.46-2.7c0.11-0.28-0.04-0.59-0.32-0.7
			c-0.28-0.1-0.59,0.04-0.7,0.32c-0.33,0.89-0.78,1.72-1.11,2.61c-0.34,0.88-0.97,1.83-1.93,2.09c-1.28,0.36-2.26-0.64-3.23-1.3
			c-0.62-0.42-1.31-0.63-2.01-0.94c-1.35-0.6-2.63-1.34-3.98-1.91c-1.77-0.74-3.52-0.9-5.42-0.77c-2.7,0.19-5.74,0.12-8.35,0.88
			c-0.81,0.24-1.67,0.45-2.51,0.58c-0.97,0.15-1.66,0.52-2.61,0.8c-1.96,0.58-5.11-0.1-6.65-1.47c-1.33-1.18-1.95-2.84-2.74-4.38
			c-0.87-1.7-2.21-2.87-2.97-4.63c-0.92-2.14-2.24-4.18-3.62-6.04c-0.9-1.21-1.88-2.37-2.71-3.64c-0.77-1.17-1.41-2.43-2.05-3.68
			c-0.99-1.94-1.78-3.98-2.8-5.9c-0.92-1.72-2.61-3.17-3.34-4.94C234.28,249.37,237.59,249.53,239.15,250.16z M78.59,135.85
			c0.16-0.59,0.25-1.21,0.25-1.87c0-1.35-0.45-1.81-1.41-2.63c-1.73-1.48-3.89-1.97-6.01-2.65c-1.51-0.49-2.76-0.05-4.3-0.18
			c-1.83-0.16-3.93,0.67-5.7,1.25c-0.46,0.15-0.93,0.35-1.27,0.69c-0.16,0.17-0.3,0.44-0.15,0.62c0.19,0.25,0.57,0.06,0.83-0.11
			c0.52-0.33,1.12-0.49,1.71-0.66c1.06-0.29,3.77-1.58,4.78-0.63c0.95,0.9-0.09,3.09-0.42,4.08c-0.56,1.68-1.13,3.36-1.69,5.04
			c-0.71,2.13-1.43,4.27-2.14,6.4c-0.1,0.28,0.06,0.59,0.34,0.69c0.06,0.02,0.12,0.03,0.17,0.03c0.23,0,0.44-0.14,0.52-0.37
			c0.86-2.56,1.94-4.93,2.9-7.44c0.94-2.46,0.88-8.68,5.13-7.75c1.49,0.33,2.96,0.87,4.02,2.01c0.42,0.45,0.79,1,0.87,1.61
			c0.05,0.36-0.01,0.72-0.06,1.07c-0.59,4.02-2.83,7.67-6.3,9.87c-2.73,1.39-5.25,2.48-8.36,2.69c-1.5,0.1-3.01,0.02-4.49-0.25
			c-1.6-0.29-2.72-0.92-4.13-1.73c-0.23-0.13-0.46-0.27-0.72-0.32c-0.26-0.05-0.55,0-0.73,0.19c0.4,2.97,6.65,3.23,8.84,3.23
			c3.57,0,7.14-0.97,10.18-2.9c2.06-1.31,3.65-3.15,4.9-5.22C77.08,139.05,78.12,137.57,78.59,135.85z M141.14,280.53
			c-0.58-0.1-1.17-0.18-1.78-0.13c-1.18,0.1-2.32,0.43-3.48,0.65c-1.92,0.37-3.79,0.97-5.59,1.74c-3.86,1.65-7.37,4.1-10.34,7.05
			c-1.54,1.53-3.44,3.61-4.47,6.08c-0.86,2.05-1.43,4.46-0.8,6.66c0.52,1.81,1.82,2.9,3.61,3.17c2,0.3,3.81,0.92,5.89,0.92
			c0.05,0,0.1,0,0.15,0c7.26-0.03,14.37-2.38,19.12-8.09c1.7-2.04,3.53-4.18,4.4-6.73c0.38-1.12,0.6-2.28,0.78-3.45
			c0.28-1.81-0.21-3.38-1.41-4.8c-1.3-1.53-2.88-2.54-4.88-2.85C141.94,280.68,141.54,280.6,141.14,280.53z M145.18,293.99
			c-0.18,0.49-0.3,0.96-0.48,1.48c-0.33,0.98-1.13,1.81-1.8,2.57c-0.63,0.72-1.26,1.43-1.97,2.07c-5.15,4.67-14.57,7.07-21.14,4.46
			c-0.76-0.3-1.53-0.62-2.13-1.16c-2.3-2.1-1.33-5.04-0.08-7.42c1.25-2.38,2.66-4.76,4.55-6.7c0.78-0.8,1.53-1.22,2.49-1.71
			c1.02-0.53,1.84-1.38,2.79-2.03c2.02-1.38,4.37-2.54,6.71-3.28c2.05-0.64,4.8-0.64,6.95-0.55c1.12,0.05,2.73,0.21,3.82,1.14
			c1.23,1.04,1.75,2.28,1.95,3.81c0.05,0.4,0.16,0.79,0.2,1.19c0.21,1.9-0.76,3.76-1.56,5.41
			C145.36,293.51,145.26,293.76,145.18,293.99z M130.97,289.29c0.47-0.17,1.31-0.39,1.26,0.44c-0.02,0.29-0.72,0.92-0.9,1.16
			c-0.65,0.86-1.28,1.75-1.86,2.66c-0.8,1.23-1.59,2.47-2.98,3.03c-1.76,0.72-3.67,0.35-5.4-0.3c-0.45-0.17-3.05-1.05-2.56,0.28
			c0.13,0.35,0.52,0.58,0.84,0.65c2.36,0.52,4.75,0.91,7.16,1.17c2.06,0.23,4.13,0.37,6.21,0.41c0.3,0,0.54-0.24,0.54-0.53
			c0.02-0.88-3.69-0.24-4.09-1.99c-0.22-0.96,0.72-1.42,1.18-2.14c1.1-1.7,2.33-3.33,3.66-4.85c0.69-0.79,1.42-1.53,2.15-2.28
			c0.55-0.57,1.47-1.12,1.55-1.97c0.03-0.3-3.42,1.53-3.67,1.67c-1.11,0.62-2.27,1.13-3.47,1.56c-1.97,0.7-4,1.43-5.68,2.76
			c-0.24,0.19-0.28,0.53-0.09,0.76c0.19,0.24,0.53,0.28,0.76,0.09C127.13,290.66,128.99,290,130.97,289.29z M72.5,154.8
			c-0.03-0.24-0.13-0.44-0.35-0.55c-0.36-0.17-0.9,0.16-0.92,0.55c-0.03,0.48-1.24,7.21-2.04,11.62c-0.15,0.81,0.69,0.68,1,0.24
			c0.44-0.62,0.62-1.35,0.72-2.09c0.2-1.5,0.35-3.02,0.56-4.52c0.2-1.45,0.63-2.87,0.94-4.31C72.46,155.51,72.54,155.12,72.5,154.8z
			"/>
		<g>
			<g id="changecolor_9_">
				<path fill="#231F20" stroke="#000000" stroke-linecap="round" stroke-linejoin="round" stroke-miterlimit="10" d="M70.77,42.18
					c0.36-0.86,0.84-1.81,1.01-2.74c0.16-0.86,0.27-1.55,0.66-2.37c0.31-0.65,0.67-1.28,0.89-1.97c0.27-0.85,0.65-2.28,0.08-3.08
					c-0.43-0.6-2.92,0.71-3.54,0.95c-1.37,0.53-2.71,1.11-4.03,1.75c-0.23,0.11-0.69,0.34-0.84,0.83c-0.31,1.07,1.07,1.69,1.39,2.54
					c0.16,0.42,0.03,0.87,0.45,1.16c0.43,0.3,0.97,0.11,1.11-0.38c0.3-1.02-1.71-1.81-1.51-2.87c0.14-0.74,1.59-1.1,2.16-1.34
					c0.6-0.26,3.96-2.16,3.69-0.63c-0.17,0.97-0.51,1.9-0.69,2.88c-0.2,1.11-0.54,2.2-0.94,3.25c-0.41,1.07-0.9,2.11-1.48,3.1
					c-0.54,0.93-1.29,1.76-1.73,2.74c-0.5,1.11-2.02,3.9-3.63,3.04c-0.43-0.23-0.73-0.63-1-1.02c-0.25-0.36-0.5-0.73-0.64-1.15
					c-0.08-0.22-0.12-0.45-0.23-0.66s-0.29-0.39-0.53-0.42c-0.26-0.03-0.5,0.16-0.61,0.39c-0.11,0.23-0.1,0.51-0.06,0.76
					c0.09,0.51,0.31,0.98,0.56,1.43c0.58,1.03,1.76,2.38,3.06,2.41c1.14,0.03,1.75-1.15,2.42-1.9c0.75-0.84,1.39-1.79,1.97-2.76
					C69.53,44.85,70.21,43.53,70.77,42.18z"/>
				<path fill="#231F20" stroke="#000000" stroke-linecap="round" stroke-linejoin="round" stroke-miterlimit="10" d="M137.23,44.18
					c0.33,0.6,1.7-0.14,2.14-0.27c0.57-0.17,1.91-0.48,2.45-0.18c0.99,0.55-0.41,1.96-0.7,2.58c-0.26,0.56-0.28,1.04-0.07,1.44
					c0.6,1.11,2.92,0.77,3.95,0.73c1.65-0.07,3.32-0.32,4.87-0.91c0.2-0.08,0.41-0.17,0.52-0.36c0.05-0.09,0.06-0.21-0.02-0.27
					c-0.05-0.04-0.12-0.03-0.18-0.02c-1.17,0.13-2.35,0.3-3.53,0.34c-0.62,0.02-1.22-0.04-1.83-0.07c-0.31-0.01-0.78,0.08-1.06-0.04
					c-2.35-0.93,0.93-3.26-0.02-4.62c-0.34-0.48-2.45,0-3.05,0.04c-0.61,0.04-1.53,0.24-0.96-0.67c0.3-0.48,1.55-1.92,0.59-2.31
					c-0.44-0.18-1.31,0.36-1.7,0.52c-0.65,0.26-1.29,0.52-1.92,0.82c-0.38,0.18-1.65,0.93-1.94,0.39c-0.23-0.44,0.6-1.72,0.8-2.1
					c0.75-1.41,1.71-2.7,2.67-3.97c0.14-0.18,0.28-0.37,0.39-0.57c0.24-0.42,0.35-0.9,0.56-1.34c0.62-1.28,1.7-2.58,2.72-3.57
					c0.31-0.3,0.85-1.56-0.1-1.12c-0.18,0.08-0.31,0.24-0.44,0.4c-1.28,1.57-2.45,3.23-3.68,4.83c-0.96,1.26-1.7,2.62-2.61,3.94
					c-1.93,2.79-4.41,5.13-6.91,7.41c-0.8,0.73-1.23,0.78-2.19,1.09c-1.06,0.34-1.92,0.85-3.04,0.32c-0.44-0.21-0.59-0.49-1.15-0.53
					c-0.45-0.03-0.92,0.06-1.36,0.14c-0.36,0.06-1.54,0.72-1.73,0.46c-0.13-0.18-0.1-0.44-0.06-0.66c0.11-0.63,0.39-1.4-0.51-1.2
					c-0.51,0.12-1.04,0.42-1.48,0.69c-1.37,0.86-2.79,1.63-4.25,2.31c-0.38,0.18-3.36,1.59-3.22,0.22c0.07-0.72,1.42-2.08,0.79-2.78
					c-0.79-0.88-1.85,0.97-2.34,1.33c-0.52,0.39-1.02,0.48-1.65,0.56c-0.54,0.06-1.06,0.27-1.62,0.34c-0.42,0.05-1.2,0.06-1.64-0.39
					c-0.36-0.37-0.38-0.84-0.27-1.31c0.08-0.33,0.45-0.87,0.41-1.2c-0.09-0.8-1.24,0.03-1.49-0.46c-0.16-0.32,0.17-1.18,0.26-1.51
					c0.13-0.44,0.32-0.87,0.53-1.28c0.31-0.58,0.59-1.28,1.18-1.64c0.58-0.36,3.6-0.05,3.61-1.1c0-0.16-0.2-0.23-0.36-0.25
					c-0.85-0.09-2.35,0.62-2.03-0.81c0.2-0.91,1.02-1.48,1.31-2.34c0.17-0.5,0.15-0.9-0.51-0.8c-0.48,0.07-0.52,0.35-0.73,0.72
					c-0.32,0.56-1.69,3.33-2.38,3.36c-3.04,0.13-6.06,0.43-9.05,0.92c0.31-0.61,2.49-3.34,1.71-3.7c-1.18-0.54-2.66,3.12-3.04,3.94
					c-0.12,0.26-2.5,0.49-2.87,0.57c-1.89,0.41-3.78,0.97-5.48,1.93c-0.29,0.17-0.61,0.44-0.55,0.77c1.27,0.04,2.09-0.62,3.23-0.91
					c0.88-0.23,1.77-0.44,2.66-0.64c0.3-0.07,2.4-0.3,2.48-0.51c-0.85,2.09-1.36,4.35-1.8,6.55c-0.11,0.54-0.22,1.1-0.18,1.65
					c0.03,0.55,0.23,1.12,0.65,1.49c1.26,1.12,3.25-0.29,4.29-1.1c0.85-0.67,1.51-1.69,2.2-2.54c0-0.27,0.8-0.99,0.98-1.21
					c0.35-0.44,0.74-0.86,1.07-1.32c0.28-0.4,0.55-0.82,0.86-1.2c0.16-0.19,0.33-0.37,0.51-0.54c0.09-0.08,0.45-0.41,0.51-0.13
					c0.02,0.09-0.05,0.27-0.07,0.36c-0.03,0.15-0.07,0.29-0.12,0.43c-0.18,0.57-0.44,1.13-0.54,1.73c-0.05,0.3-0.1,0.61-0.04,0.91
					c0.06,0.3,0.26,0.6,0.55,0.68c0.21,0.06,0.42,0.01,0.64,0c0.67-0.02,0.69,0.82,1.09,1.23c0.57,0.59,1.47,0.84,2.55,0.72
					c0.68-0.08,1.39-0.48,2.08-0.42c0.73,0.07,1.03,0.76,1.53,1.17c0.52,0.43,1.27,0.34,1.91,0.23c1.53-0.26,2.87-1.08,4.17-1.89
					c0.59-0.37,3.06-2.34,3.4-0.87c0.36,1.53,1.16,1.58,2.45,1.02c0.31-0.13,0.62-0.24,0.95-0.31c0.83-0.19,0.8,0.44,1.36,0.72
					c0.61,0.31,1.77-0.1,2.35-0.33c1.71-0.67,3.12-1.7,4.6-2.73c1.43-1,2.42-2.57,3.89-3.57c0.02-0.01-0.22,0.79-0.26,0.88
					c-0.13,0.27-0.28,0.54-0.42,0.81c-0.54,1.09-0.95,2.01-1.24,3.17c-0.26,1.05-0.72,2.03-1.35,2.91
					c-0.61,0.86-0.81,1.91-0.74,2.99c0,0.06,0.01,0.12,0.04,0.17c0.13,0.19,0.41-0.02,0.52-0.22c0.95-1.6,1.9-3.2,2.85-4.8
					c0.52-0.88,1.03-1.66,1.48-2.57c0.47-0.95,1.17-1.82,2.02-2.47c0.66-0.5,1.85-1.28,2.68-1.4c0.08,0.23,0.01,0.47-0.14,0.66
					c-0.44,0.57-1.66,1.49-1.39,2.35C137.21,44.13,137.22,44.16,137.23,44.18z M96.48,46.36c-0.02,0.03-0.05,0.06-0.07,0.1
					c-1.01,1.34-2.2,2.59-3.74,3.31c-2.98,1.38-1.62-3.85-1.32-5.2c0.28-1.25,0.42-2.62,1.4-3.55c1.08-1.04,3.18-0.9,4.6-1.06
					c0.57-0.06,2.72-0.62,3.16-0.13c0.56,0.62-0.89,2.35-1.23,2.86C98.4,43.97,97.41,45.13,96.48,46.36z"/>
				<path fill="#231F20" stroke="#000000" stroke-linecap="round" stroke-linejoin="round" stroke-miterlimit="10" d="M119.16,33.71
					c0.49,0,0.95-0.34,0.98-0.89c0,0,0.04-0.56,0.04-0.57c0.02-0.27-1.27,0.3-1.37,0.38c-0.41,0.3-0.66,0.72-0.07,0.99
					C118.88,33.68,119.02,33.71,119.16,33.71z"/>
			</g>
			<g>
				<path fill="none" stroke="#000000" stroke-linecap="round" stroke-linejoin="round" stroke-miterlimit="10" d="M70.77,42.18
					c0.36-0.86,0.84-1.81,1.01-2.74c0.16-0.86,0.27-1.55,0.66-2.37c0.31-0.65,0.67-1.28,0.89-1.97c0.27-0.85,0.65-2.28,0.08-3.08
					c-0.43-0.6-2.92,0.71-3.54,0.95c-1.37,0.53-2.71,1.11-4.03,1.75c-0.23,0.11-0.69,0.34-0.84,0.83c-0.31,1.07,1.07,1.69,1.39,2.54
					c0.16,0.42,0.03,0.87,0.45,1.16c0.43,0.3,0.97,0.11,1.11-0.38c0.3-1.02-1.71-1.81-1.51-2.87c0.14-0.74,1.59-1.1,2.16-1.34
					c0.6-0.26,3.96-2.16,3.69-0.63c-0.17,0.97-0.51,1.9-0.69,2.88c-0.2,1.11-0.54,2.2-0.94,3.25c-0.41,1.07-0.9,2.11-1.48,3.1
					c-0.54,0.93-1.29,1.76-1.73,2.74c-0.5,1.11-2.02,3.9-3.63,3.04c-0.43-0.23-0.73-0.63-1-1.02c-0.25-0.36-0.5-0.73-0.64-1.15
					c-0.08-0.22-0.12-0.45-0.23-0.66s-0.29-0.39-0.53-0.42c-0.26-0.03-0.5,0.16-0.61,0.39c-0.11,0.23-0.1,0.51-0.06,0.76
					c0.09,0.51,0.31,0.98,0.56,1.43c0.58,1.03,1.76,2.38,3.06,2.41c1.14,0.03,1.75-1.15,2.42-1.9c0.75-0.84,1.39-1.79,1.97-2.76
					C69.53,44.85,70.21,43.53,70.77,42.18z"/>
				<path fill="none" stroke="#000000" stroke-linecap="round" stroke-linejoin="round" stroke-miterlimit="10" d="M137.23,44.18
					c0.33,0.6,1.7-0.14,2.14-0.27c0.57-0.17,1.91-0.48,2.45-0.18c0.99,0.55-0.41,1.96-0.7,2.58c-0.26,0.56-0.28,1.04-0.07,1.44
					c0.6,1.11,2.92,0.77,3.95,0.73c1.65-0.07,3.32-0.32,4.87-0.91c0.2-0.08,0.41-0.17,0.52-0.36c0.05-0.09,0.06-0.21-0.02-0.27
					c-0.05-0.04-0.12-0.03-0.18-0.02c-1.17,0.13-2.35,0.3-3.53,0.34c-0.62,0.02-1.22-0.04-1.83-0.07c-0.31-0.01-0.78,0.08-1.06-0.04
					c-2.35-0.93,0.93-3.26-0.02-4.62c-0.34-0.48-2.45,0-3.05,0.04c-0.61,0.04-1.53,0.24-0.96-0.67c0.3-0.48,1.55-1.92,0.59-2.31
					c-0.44-0.18-1.31,0.36-1.7,0.52c-0.65,0.26-1.29,0.52-1.92,0.82c-0.38,0.18-1.65,0.93-1.94,0.39c-0.23-0.44,0.6-1.72,0.8-2.1
					c0.75-1.41,1.71-2.7,2.67-3.97c0.14-0.18,0.28-0.37,0.39-0.57c0.24-0.42,0.35-0.9,0.56-1.34c0.62-1.28,1.7-2.58,2.72-3.57
					c0.31-0.3,0.85-1.56-0.1-1.12c-0.18,0.08-0.31,0.24-0.44,0.4c-1.28,1.57-2.45,3.23-3.68,4.83c-0.96,1.26-1.7,2.62-2.61,3.94
					c-1.93,2.79-4.41,5.13-6.91,7.41c-0.8,0.73-1.23,0.78-2.19,1.09c-1.06,0.34-1.92,0.85-3.04,0.32c-0.44-0.21-0.59-0.49-1.15-0.53
					c-0.45-0.03-0.92,0.06-1.36,0.14c-0.36,0.06-1.54,0.72-1.73,0.46c-0.13-0.18-0.1-0.44-0.06-0.66c0.11-0.63,0.39-1.4-0.51-1.2
					c-0.51,0.12-1.04,0.42-1.48,0.69c-1.37,0.86-2.79,1.63-4.25,2.31c-0.38,0.18-3.36,1.59-3.22,0.22c0.07-0.72,1.42-2.08,0.79-2.78
					c-0.79-0.88-1.85,0.97-2.34,1.33c-0.52,0.39-1.02,0.48-1.65,0.56c-0.54,0.06-1.06,0.27-1.62,0.34c-0.42,0.05-1.2,0.06-1.64-0.39
					c-0.36-0.37-0.38-0.84-0.27-1.31c0.08-0.33,0.45-0.87,0.41-1.2c-0.09-0.8-1.24,0.03-1.49-0.46c-0.16-0.32,0.17-1.18,0.26-1.51
					c0.13-0.44,0.32-0.87,0.53-1.28c0.31-0.58,0.59-1.28,1.18-1.64c0.58-0.36,3.6-0.05,3.61-1.1c0-0.16-0.2-0.23-0.36-0.25
					c-0.85-0.09-2.35,0.62-2.03-0.81c0.2-0.91,1.02-1.48,1.31-2.34c0.17-0.5,0.15-0.9-0.51-0.8c-0.48,0.07-0.52,0.35-0.73,0.72
					c-0.32,0.56-1.69,3.33-2.38,3.36c-3.04,0.13-6.06,0.43-9.05,0.92c0.31-0.61,2.49-3.34,1.71-3.7c-1.18-0.54-2.66,3.12-3.04,3.94
					c-0.12,0.26-2.5,0.49-2.87,0.57c-1.89,0.41-3.78,0.97-5.48,1.93c-0.29,0.17-0.61,0.44-0.55,0.77c1.27,0.04,2.09-0.62,3.23-0.91
					c0.88-0.23,1.77-0.44,2.66-0.64c0.3-0.07,2.4-0.3,2.48-0.51c-0.85,2.09-1.36,4.35-1.8,6.55c-0.11,0.54-0.22,1.1-0.18,1.65
					c0.03,0.55,0.23,1.12,0.65,1.49c1.26,1.12,3.25-0.29,4.29-1.1c0.85-0.67,1.51-1.69,2.2-2.54c0-0.27,0.8-0.99,0.98-1.21
					c0.35-0.44,0.74-0.86,1.07-1.32c0.28-0.4,0.55-0.82,0.86-1.2c0.16-0.19,0.33-0.37,0.51-0.54c0.09-0.08,0.45-0.41,0.51-0.13
					c0.02,0.09-0.05,0.27-0.07,0.36c-0.03,0.15-0.07,0.29-0.12,0.43c-0.18,0.57-0.44,1.13-0.54,1.73c-0.05,0.3-0.1,0.61-0.04,0.91
					c0.06,0.3,0.26,0.6,0.55,0.68c0.21,0.06,0.42,0.01,0.64,0c0.67-0.02,0.69,0.82,1.09,1.23c0.57,0.59,1.47,0.84,2.55,0.72
					c0.68-0.08,1.39-0.48,2.08-0.42c0.73,0.07,1.03,0.76,1.53,1.17c0.52,0.43,1.27,0.34,1.91,0.23c1.53-0.26,2.87-1.08,4.17-1.89
					c0.59-0.37,3.06-2.34,3.4-0.87c0.36,1.53,1.16,1.58,2.45,1.02c0.31-0.13,0.62-0.24,0.95-0.31c0.83-0.19,0.8,0.44,1.36,0.72
					c0.61,0.31,1.77-0.1,2.35-0.33c1.71-0.67,3.12-1.7,4.6-2.73c1.43-1,2.42-2.57,3.89-3.57c0.02-0.01-0.22,0.79-0.26,0.88
					c-0.13,0.27-0.28,0.54-0.42,0.81c-0.54,1.09-0.95,2.01-1.24,3.17c-0.26,1.05-0.72,2.03-1.35,2.91
					c-0.61,0.86-0.81,1.91-0.74,2.99c0,0.06,0.01,0.12,0.04,0.17c0.13,0.19,0.41-0.02,0.52-0.22c0.95-1.6,1.9-3.2,2.85-4.8
					c0.52-0.88,1.03-1.66,1.48-2.57c0.47-0.95,1.17-1.82,2.02-2.47c0.66-0.5,1.85-1.28,2.68-1.4c0.08,0.23,0.01,0.47-0.14,0.66
					c-0.44,0.57-1.66,1.49-1.39,2.35C137.21,44.13,137.22,44.16,137.23,44.18z M96.48,46.36c-0.02,0.03-0.05,0.06-0.07,0.1
					c-1.01,1.34-2.2,2.59-3.74,3.31c-2.98,1.38-1.62-3.85-1.32-5.2c0.28-1.25,0.42-2.62,1.4-3.55c1.08-1.04,3.18-0.9,4.6-1.06
					c0.57-0.06,2.72-0.62,3.16-0.13c0.56,0.62-0.89,2.35-1.23,2.86C98.4,43.97,97.41,45.13,96.48,46.36z"/>
				<path fill="none" stroke="#000000" stroke-linecap="round" stroke-linejoin="round" stroke-miterlimit="10" d="M119.16,33.71
					c0.49,0,0.95-0.34,0.98-0.89c0,0,0.04-0.56,0.04-0.57c0.02-0.27-1.27,0.3-1.37,0.38c-0.41,0.3-0.66,0.72-0.07,0.99
					C118.88,33.68,119.02,33.71,119.16,33.71z"/>
			</g>
		</g>
	</g>
</g>
</svg>
