<?xml version="1.0" encoding="utf-8"?>
<!-- Generator: Adobe Illustrator 16.0.0, SVG Export Plug-In . SVG Version: 6.00 Build 0)  -->
<!DOCTYPE svg PUBLIC "-//W3C//DTD SVG 1.1//EN" "http://www.w3.org/Graphics/SVG/1.1/DTD/svg11.dtd">
<svg version="1.1" id="Layer_1" xmlns="http://www.w3.org/2000/svg" xmlns:xlink="http://www.w3.org/1999/xlink" x="0px" y="0px"
	 width="366.471px" height="366.469px" viewBox="0 0 366.471 366.469" enable-background="new 0 0 366.471 366.469"
	 xml:space="preserve">
<g>
	<g>
		<defs>
			<circle id="SVGID_1_" cx="183.236" cy="183.234" r="182.736"/>
		</defs>
		<clipPath id="SVGID_2_">
			<use xlink:href="#SVGID_1_"  overflow="visible"/>
		</clipPath>
		<g clip-path="url(#SVGID_2_)">
			<g>
				<path fill="#FFFFFF" d="M82.955,109.758c0,0-7.658-14.329-5.188-23.964s5.226-4.693,7.06-7.164s-8.041-3.458-7.55-17.293
					s6.73-36.81,11.763-43.975s57.484-30.79,115.955-25.456c58.47,5.334,110.804,47,128.804,70.667s34.333,60.28,38.333,83.807
					s-2.667,100.705-2.667,100.705H180.242c0,0-0.842-100.652-2.644-106.082s-3.298-14.096-13.883-30.763
					c0,0,2.416,13.983-2.251,19.658S98.446,116.275,82.955,109.758z"/>
				<path fill="#D8D8D8" d="M149.188,69.048c-0.178-1.319-1.643,17.994-8.482,18.746s-19.825-3.276-28.186-5.978
					s-20.239,0.45-27.693-8.359c-2.792-3.299-5.338-5.996-7.457-8.844c1.027,10.732,9.134,11.758,7.457,14.017
					c-1.834,2.471-4.589-2.471-7.06,7.164c-1.604,6.255,1.061,14.483,3.127,19.49c3.084-2.085,6.075-4.086,8.145-5.421
					c6.312-4.072-8.091-7.183,0-12.069s6.748-2.917,18.714-1.554s28.041,4.631,36.036,8.655s19.112,13.771,16.419,7.612
					S149.365,70.367,149.188,69.048z"/>
				<g>
					<path fill="#D8D8D8" d="M304.571,247.085h26.125l-29.604-203.58c0,0,3.474,54.001,5.359,70.688s11.317,118.174,3.772,128.124
						C308.614,244.439,306.702,246.056,304.571,247.085z"/>
					<path fill="#D8D8D8" d="M275.881,229.537c-12.649-21.691-45.767-62.859-56.7-80.659s-33.445-87.681-35.946-88.624
						s2.972,43.854,10.044,57.043c7.074,13.189,18.347,80.398,11.714,65.938s-15.015-46.591-24.652-62.623
						c-9.638-16.032-9.695-23.105-14.103-41.371s-15.397-60.482-18.337-69.913c-1.363-4.372-4.784-9.047-8.542-12.599
						c-4.104,0.942-8.029,1.966-11.752,3.038c1.841,3.903,4.946,8.555,8.095,12.861c6.552,8.959-5.932,2.543-13.141,2.279
						s3.289,6.209,13.141,13.334s12.199,33.898,12.199,33.898l6.47,64.171c6.518,1.159,5.909,5.027,7.093,3.588
						c4.667-5.675,2.251-19.658,2.251-19.658c10.585,16.667,12.082,25.333,13.883,30.763s2.644,106.082,2.644,106.082h112.741
						C287.463,244.771,281.525,239.213,275.881,229.537z"/>
				</g>
				<path fill="none" stroke="#000000" stroke-miterlimit="10" d="M82.955,109.758c0,0-7.658-14.329-5.188-23.964
					s5.226-4.693,7.06-7.164s-8.041-3.458-7.55-17.293s6.73-36.81,11.763-43.975s57.484-30.79,115.955-25.456
					c58.47,5.334,110.804,47,128.804,70.667s34.333,60.28,38.333,83.807s-2.667,100.705-2.667,100.705H180.242
					c0,0-0.842-100.652-2.644-106.082s-3.298-14.096-13.883-30.763c0,0,2.416,13.983-2.251,19.658S98.446,116.275,82.955,109.758z"
					/>
				<path fill="none" stroke="#000000" stroke-miterlimit="10" d="M163.715,110.24c-3.585-8-7.859-16.668-12.389-30.334
					s-4.345-63.999-17.271-76.999"/>
				<path fill="none" stroke="#000000" stroke-miterlimit="10" d="M127.615,14.907c0,0,11.5,0.001,16.175,13.334"/>
				<path fill="none" stroke="#000000" stroke-miterlimit="10" d="M84.827,77.393c0,0,6.304,6.182,12.304,5.515
					s20.195-0.334,25.431,3.333"/>
				<path fill="none" stroke="#000000" stroke-miterlimit="10" d="M157.516,96.349c-4.719-2.774-23.386-7.108-18.386-10.108
					s8.875-1.667,8.771-7"/>
				<path fill="none" stroke="#000000" stroke-miterlimit="10" d="M301.091,31.626c0,0,24.372,200.301,24.039,214.291"/>
				<circle fill="none" stroke="#000000" stroke-miterlimit="10" cx="283.797" cy="45.574" r="5"/>
				<circle fill="none" stroke="#000000" stroke-miterlimit="10" cx="290.342" cy="134.898" r="5"/>
			</g>
			<path fill="#FFFFFF" d="M80.615,183.37c0,0-11.167-19.032-10.167-36.99s7.333-37.626,10.167-43.292s26.833-11,35-10
				s39.5,19.667,45.833,28.667c6.334,9-2.333,47.23-4.999,58.115C153.781,190.755,94.448,191.985,80.615,183.37z"/>
			<path fill="#D8D8D8" d="M161.448,121.755c-4.433-6.3-21.11-17.33-33.522-23.729c9.444,6.767,20.971,15.76,24.637,21.729
				c4.212,6.858,0.481,21.805-2.721,31.609c-13.529-12.298-35.729-28.885-55.394-26.957c-24.342,2.387-23.143,17.145-23.721,29.9
				c1.769,15.216,9.887,29.062,9.887,29.062c13.833,8.615,73.167,7.385,75.834-3.5C159.115,168.985,167.782,130.755,161.448,121.755
				z"/>
			<path fill="none" stroke="#000000" stroke-linecap="round" stroke-linejoin="round" stroke-miterlimit="10" d="M152.519,113.434
				c4.07,3.101,7.313,6.025,8.929,8.321c6.334,9-2.333,47.23-4.999,58.115c-2.667,10.885-62,12.115-75.834,3.5
				c0,0-11.167-19.032-10.167-36.99s7.333-37.626,10.167-43.292c1.598-3.195,9.927-6.284,18.351-8.192"/>
			<path fill="#BBBBBB" stroke="#000000" stroke-linecap="round" stroke-linejoin="round" stroke-miterlimit="10" d="M79.115,180.95
				c0,0-9.333-24.862,0-43.695s69.09,1.36,72.212,28.264S87.448,199.812,79.115,180.95z"/>
			<g>
				<path fill="#FFCFBA" d="M92.115,129.755c0,0-13,4-13.75,15.5s0.75,13.428-1.25,24.339s-1,31.661,3.5,40.911l71.75-29.555
					c0,0,3.378-28.301-17.75-35.695c-5-1.75-13.5-5-17.25-8S105.865,126.505,92.115,129.755z"/>
				<path fill="#F0B899" d="M149.66,160.173c-9.623,6.5-20.969-0.994-18.649-8.098c1.058-3.238,3.219-5.082,5.336-6.138
					c-0.56-0.241-1.133-0.474-1.732-0.683c-4.184-1.465-10.809-3.979-15.061-6.519c2.201,4.938,3.373,10.347,4.46,12.696
					c1.905,4.116-0.217,13.532-3.249,3.097s-13.085-8.149-13.085-8.149c6.903,4.896,6.807,12.516,6.807,12.516s0,0,1.482,0.965
					s4.795,5.411,4.795,5.411l-7.566,5.218l-31.759,0.607c0,0-0.46,0.468-0.826,2.996s6.044,30.97,6.044,30.97l3.146,1.657
					l62.56-25.77C152.365,180.95,153.645,170.167,149.66,160.173z"/>
				<path fill="none" stroke="#000000" stroke-linecap="round" stroke-linejoin="round" stroke-miterlimit="10" d="M92.115,129.755
					c0,0-13,4-13.75,15.5s0.75,13.428-1.25,24.339s-1,31.661,3.5,40.911l71.75-29.555c0,0,3.378-28.301-17.75-35.695
					c-5-1.75-13.5-5-17.25-8S105.865,126.505,92.115,129.755z"/>
				<path fill="none" stroke="#000000" stroke-linecap="round" stroke-linejoin="round" stroke-miterlimit="10" d="M117.365,137.255
					c0,0,7.5,7.5,6.75,18.25"/>
				<path fill="none" stroke="#000000" stroke-linecap="round" stroke-linejoin="round" stroke-miterlimit="10" d="M127.615,152.075
					c0,0,3.443-7.285,8.347-6.303"/>
			</g>
			<g>
				<g>
					<polygon fill="#444444" stroke="#000000" stroke-linecap="round" stroke-linejoin="round" stroke-miterlimit="10" points="
						441.349,324.713 176.336,440.667 21.117,218.28 21.117,215.177 269.206,117.297 441.349,321.609 					"/>
					<polygon fill="#999999" stroke="#000000" stroke-linecap="round" stroke-linejoin="round" stroke-miterlimit="10" points="
						441.349,321.609 176.336,437.563 21.117,215.177 269.206,114.193 					"/>
				</g>
				<linearGradient id="SVGID_3_" gradientUnits="userSpaceOnUse" x1="229.9966" y1="262.2412" x2="255.9664" y2="391.4155">
					<stop  offset="0.346" style="stop-color:#FFFFFF"/>
					<stop  offset="1" style="stop-color:#CCCCCC"/>
				</linearGradient>
				
					<polygon fill="url(#SVGID_3_)" stroke="#000000" stroke-linecap="round" stroke-linejoin="round" stroke-miterlimit="10" points="
					430.349,318.636 178.378,429.281 32.117,218.15 267.164,122.476 				"/>
				<g>
					<path opacity="0.2" d="M215.097,158.904l-1.21-1.816c-3.452-5.188-6.608-9.913-7.297-10.735
						c-1.023-1.224-2.21-1.077-2.767-0.801l-1.889,0.773c-0.535-0.368-1.238-0.47-1.886-0.205l-95.375,38.822
						c-0.744,0.303-1.202,1.004-1.239,1.757c-1.152,0.568-2.14,1.073-2.476,2.103c-0.205,0.627-0.112,1.299,0.283,2.054
						c0.656,1.255,3.879,5.777,6.85,9.918c0.614,0.856,1.103,1.538,1.362,1.907c0.786,1.117,2.396,3.409,5.159,3.408
						c0.768,0,1.626-0.177,2.58-0.606l95.378-38.823c1.319-0.542,3.136-1.466,3.672-3.221
						C216.64,162.139,216.265,160.656,215.097,158.904z M214.331,162.854c-0.217,0.709-1.041,1.349-2.517,1.955l-95.408,38.836
						c-2.432,1.095-3.792,0.055-5.314-2.114c-0.262-0.372-0.754-1.059-1.374-1.923c-2.117-2.951-6.058-8.443-6.703-9.678
						c-0.155-0.297-0.17-0.458-0.154-0.507c0.081-0.246,0.884-0.646,1.492-0.946c0.32,0.204,0.692,0.319,1.076,0.319
						c0.251,0,0.507-0.048,0.753-0.148l95.375-38.822c0.722-0.294,1.17-0.962,1.231-1.688l1.888-0.776
						c0.026-0.014,0.172,0.025,0.381,0.275c0.675,0.807,4.896,7.151,7.165,10.56l1.211,1.818
						C214.236,161.218,214.538,162.174,214.331,162.854z"/>
					<g>
						<path fill="#CCCCCC" stroke="#000000" stroke-miterlimit="10" d="M102.855,187.354c-0.789,0-1.537-0.471-1.853-1.247
							c-0.417-1.022,0.076-2.189,1.099-2.606l95.375-38.822c1.024-0.419,2.189,0.075,2.606,1.099
							c0.416,1.022-0.075,2.189-1.099,2.606l-95.375,38.822C103.362,187.307,103.107,187.354,102.855,187.354z"/>
						<path fill="#CCCCCC" stroke="#000000" stroke-miterlimit="10" d="M200.209,146.812l2.623-1.084
							c0.025-0.017,0.172,0.025,0.381,0.275c0.681,0.812,4.935,7.206,7.22,10.642l1.156,1.736c0.804,1.204,1.105,2.16,0.897,2.84
							c-0.216,0.708-1.04,1.348-2.517,1.955l-26.998,10.989c-2.24,0.911-3.68,0.841-5.495,0.749
							c-2.453-0.123-5.502-0.274-11.287,2.203c-5.039,2.156-8.466,5.218-10.733,7.244c-1.108,0.989-2.064,1.844-2.656,2.085
							l-38.239,15.565c-2.433,1.094-3.791,0.054-5.314-2.114c-0.262-0.372-0.754-1.059-1.374-1.923
							c-2.117-2.951-6.058-8.443-6.703-9.678c-0.155-0.297-0.17-0.458-0.154-0.507c0.083-0.251,0.921-0.665,1.534-0.967l0.368-0.182
							c0.494-0.247,0.695-0.848,0.448-1.342c-0.248-0.494-0.848-0.692-1.341-0.447l-0.358,0.177
							c-1.184,0.584-2.207,1.088-2.551,2.14c-0.205,0.627-0.112,1.299,0.283,2.054c0.656,1.255,3.879,5.777,6.85,9.918
							c0.614,0.856,1.103,1.538,1.362,1.907c0.786,1.117,2.396,3.409,5.159,3.408c0.768,0,1.626-0.177,2.58-0.606l38.206-15.552
							c0.912-0.371,1.886-1.241,3.234-2.445c2.3-2.055,5.45-4.869,10.188-6.897c5.361-2.295,8.04-2.163,10.4-2.043
							c1.901,0.094,3.698,0.185,6.349-0.896l27.001-10.99c1.32-0.542,3.137-1.466,3.673-3.222c0.396-1.299,0.021-2.782-1.146-4.533
							l-1.155-1.735c-3.34-5.02-6.658-9.989-7.352-10.816c-1.023-1.223-2.21-1.076-2.767-0.801l-2.498,1.055
							C199.482,144.974,200.367,145.608,200.209,146.812z"/>
					</g>
				</g>
				<g>
					<g>
						<path stroke="#000000" stroke-width="0.75" stroke-linecap="round" stroke-linejoin="round" stroke-miterlimit="10" d="
							M104.501,242.229c1.228-0.516,2.358-0.723,3.39-0.623c1.031,0.1,2.013,0.448,2.946,1.045c0.934,0.598,1.838,1.409,2.711,2.433
							c0.874,1.026,1.758,2.209,2.654,3.55c1.066,1.597,1.9,3.024,2.5,4.284c0.6,1.26,0.925,2.366,0.978,3.322
							c0.052,0.957-0.182,1.784-0.702,2.48c-0.521,0.697-1.37,1.293-2.549,1.787l-5.576,2.342l-12.15-18.186L104.501,242.229z
							 M114.16,258.003c0.622-0.261,1.048-0.581,1.277-0.96c0.229-0.378,0.284-0.868,0.165-1.471
							c-0.12-0.603-0.42-1.336-0.902-2.198c-0.482-0.863-1.137-1.914-1.965-3.153c-0.692-1.036-1.332-1.931-1.919-2.685
							s-1.156-1.346-1.707-1.779c-0.55-0.43-1.114-0.693-1.692-0.789c-0.577-0.095-1.201-0.002-1.872,0.28l-1.498,0.629
							l8.542,12.786L114.16,258.003z"/>
						<path stroke="#000000" stroke-width="0.75" stroke-linecap="round" stroke-linejoin="round" stroke-miterlimit="10" d="
							M115.909,237.179l2.009,3.006l-3.39,1.423l-2.009-3.006L115.909,237.179z M119.041,241.865l9.155,13.703l-3.39,1.423
							l-9.155-13.703L119.041,241.865z"/>
						<path stroke="#000000" stroke-width="0.75" stroke-linecap="round" stroke-linejoin="round" stroke-miterlimit="10" d="
							M130.37,249.502c0.397,0.595,0.869,1.011,1.416,1.249c0.547,0.237,1.107,0.236,1.681-0.004
							c0.524-0.221,0.851-0.531,0.98-0.935c0.13-0.401,0.013-0.875-0.35-1.419c-0.295-0.44-0.641-0.725-1.041-0.851
							c-0.399-0.127-0.808-0.188-1.226-0.188l-2.978,0.109c-1.16,0.053-2.186-0.132-3.074-0.552
							c-0.889-0.42-1.657-1.115-2.304-2.083c-0.375-0.56-0.639-1.128-0.793-1.704c-0.155-0.578-0.161-1.136-0.017-1.674
							c0.144-0.538,0.448-1.047,0.915-1.525c0.467-0.479,1.134-0.9,2.002-1.265c1.539-0.646,2.904-0.784,4.094-0.415
							c1.191,0.371,2.201,1.176,3.029,2.415l0.374,0.561l-3.046,1.279c-0.476-0.714-0.936-1.189-1.378-1.428
							c-0.442-0.239-0.942-0.241-1.499-0.007c-0.426,0.179-0.716,0.458-0.871,0.838c-0.155,0.381-0.067,0.816,0.261,1.309
							c0.228,0.341,0.534,0.603,0.92,0.789c0.386,0.185,0.929,0.252,1.626,0.197l2.516-0.143c1.314-0.072,2.394,0.099,3.238,0.516
							c0.845,0.418,1.614,1.145,2.305,2.18c0.488,0.73,0.788,1.414,0.9,2.052s0.069,1.228-0.126,1.766
							c-0.196,0.539-0.542,1.01-1.037,1.413c-0.496,0.404-1.104,0.758-1.824,1.06c-0.95,0.399-1.802,0.638-2.558,0.715
							c-0.755,0.079-1.442,0.008-2.06-0.211c-0.618-0.219-1.179-0.565-1.684-1.038c-0.505-0.473-0.979-1.041-1.421-1.703
							l-0.323-0.484l3.046-1.278L130.37,249.502z"/>
						<path stroke="#000000" stroke-width="0.75" stroke-linecap="round" stroke-linejoin="round" stroke-miterlimit="10" d="
							M141.267,237.589c-0.256-0.305-0.526-0.566-0.809-0.785c-0.282-0.219-0.575-0.368-0.88-0.446
							c-0.304-0.079-0.62-0.05-0.948,0.088c-0.409,0.172-0.68,0.411-0.811,0.716c-0.131,0.306-0.135,0.677-0.011,1.113
							c0.125,0.438,0.358,0.959,0.7,1.564c0.343,0.607,0.781,1.31,1.314,2.107c0.567,0.85,1.077,1.565,1.528,2.146
							c0.452,0.582,0.874,1.042,1.266,1.377c0.392,0.336,0.766,0.543,1.123,0.621c0.356,0.079,0.723,0.04,1.1-0.118
							c0.573-0.241,0.82-0.671,0.742-1.291c-0.079-0.62-0.492-1.489-1.241-2.61l3.243-1.361c1.203,1.8,1.729,3.336,1.581,4.604
							c-0.148,1.27-1.123,2.282-2.924,3.038c-0.852,0.357-1.664,0.562-2.436,0.615c-0.772,0.053-1.552-0.11-2.338-0.487
							c-0.786-0.376-1.594-0.981-2.426-1.817c-0.831-0.836-1.706-1.943-2.625-3.318c-0.941-1.409-1.59-2.632-1.947-3.667
							c-0.356-1.035-0.481-1.929-0.375-2.68c0.106-0.751,0.413-1.375,0.92-1.871c0.508-0.495,1.155-0.908,1.941-1.238
							c1.572-0.66,3.072-0.681,4.502-0.063c1.43,0.618,2.688,1.74,3.778,3.371l-3.243,1.361
							C141.765,238.218,141.522,237.895,141.267,237.589z"/>
						<path stroke="#000000" stroke-width="0.75" stroke-linecap="round" stroke-linejoin="round" stroke-miterlimit="10" d="
							M144.095,225.606l3.931,5.884l0.049-0.021c-0.128-1.447,0.554-2.483,2.044-3.109c1.081-0.453,2.115-0.497,3.105-0.129
							c0.99,0.367,1.943,1.238,2.863,2.614l6.789,10.162l-3.39,1.423l-6.313-9.449c-0.476-0.713-0.923-1.162-1.339-1.346
							c-0.417-0.185-0.878-0.169-1.385,0.044c-1.196,0.502-1.289,1.508-0.279,3.02l6.075,9.093l-3.39,1.423l-12.15-18.186
							L144.095,225.606z"/>
						<path stroke="#000000" stroke-width="0.75" stroke-linecap="round" stroke-linejoin="round" stroke-miterlimit="10" d="
							M158.544,230.238c-0.533-0.798-0.855-1.517-0.968-2.155c-0.111-0.637-0.069-1.21,0.128-1.716
							c0.195-0.507,0.528-0.95,0.996-1.332c0.469-0.382,1.023-0.707,1.662-0.975c1.015-0.426,1.901-0.668,2.659-0.726
							c0.758-0.057,1.436,0.029,2.028,0.258c0.593,0.229,1.124,0.577,1.593,1.043s0.908,1.005,1.316,1.616l4.815,7.209
							c0.431,0.646,0.794,1.134,1.091,1.467c0.295,0.332,0.66,0.668,1.096,1.006l-3.242,1.361c-0.262-0.173-0.504-0.37-0.725-0.593
							c-0.223-0.221-0.437-0.439-0.646-0.658l-0.05,0.021c0.085,0.879-0.061,1.532-0.435,1.961s-0.971,0.815-1.789,1.158
							c-0.59,0.248-1.161,0.352-1.712,0.312s-1.074-0.196-1.568-0.467c-0.496-0.27-0.957-0.614-1.383-1.034
							c-0.428-0.418-0.794-0.857-1.1-1.315c-0.432-0.646-0.737-1.229-0.918-1.751c-0.182-0.522-0.247-1.005-0.198-1.449
							c0.049-0.445,0.209-0.865,0.479-1.261c0.27-0.396,0.643-0.803,1.118-1.221l1.558-1.34c0.418-0.349,0.645-0.683,0.683-1.004
							c0.038-0.319-0.097-0.708-0.403-1.167c-0.352-0.526-0.745-0.889-1.181-1.086c-0.437-0.197-0.94-0.176-1.514,0.064
							c-0.524,0.221-0.81,0.547-0.856,0.979c-0.046,0.434,0.113,0.921,0.476,1.465l0.255,0.381l-3.046,1.279L158.544,230.238z
							 M166.286,231.373c-0.188,0.222-0.372,0.402-0.551,0.542c-0.586,0.44-0.906,0.902-0.963,1.383s0.119,1.025,0.527,1.637
							c0.352,0.527,0.751,0.937,1.197,1.228c0.445,0.291,0.898,0.34,1.357,0.147c0.229-0.096,0.44-0.233,0.635-0.413
							c0.195-0.181,0.338-0.397,0.43-0.653c0.09-0.256,0.111-0.547,0.061-0.874c-0.051-0.326-0.201-0.677-0.45-1.05l-1.804-2.7
							C166.621,230.902,166.474,231.154,166.286,231.373z"/>
						<path stroke="#000000" stroke-width="0.75" stroke-linecap="round" stroke-linejoin="round" stroke-miterlimit="10" d="
							M171.039,220.034l1.226,1.834l0.049-0.021c-0.098-0.807-0.035-1.513,0.189-2.117c0.225-0.605,0.689-1.056,1.394-1.352
							c0.099-0.042,0.202-0.079,0.314-0.116c0.112-0.036,0.224-0.066,0.333-0.091l2.246,3.362c-0.191,0.059-0.375,0.12-0.553,0.184
							s-0.357,0.133-0.537,0.209c-0.295,0.123-0.562,0.289-0.799,0.498c-0.238,0.21-0.415,0.463-0.531,0.76
							c-0.114,0.3-0.141,0.637-0.078,1.013s0.247,0.793,0.553,1.252l5.497,8.227l-3.39,1.423l-9.155-13.703L171.039,220.034z"/>
						<path stroke="#000000" stroke-width="0.75" stroke-linecap="round" stroke-linejoin="round" stroke-miterlimit="10" d="
							M194.57,226.821c1.18,1.766,1.643,3.268,1.39,4.504c-0.254,1.237-1.371,2.271-3.353,3.104
							c-1.441,0.604-2.764,0.752-3.967,0.442s-2.195-1.052-2.979-2.223l3.242-1.361c0.295,0.441,0.699,0.718,1.215,0.828
							c0.242,0.05,0.48,0.069,0.715,0.059c0.232-0.011,0.456-0.062,0.669-0.151c0.688-0.289,1.019-0.721,0.99-1.296
							s-0.269-1.203-0.722-1.882l-1.209-1.809l-0.049,0.021c-0.004,0.654-0.153,1.238-0.448,1.754
							c-0.296,0.516-0.714,0.887-1.254,1.114c-1.343,0.563-2.708,0.457-4.097-0.319c-1.389-0.775-2.917-2.412-4.584-4.908
							c-0.533-0.798-1.033-1.631-1.498-2.501c-0.467-0.87-0.78-1.701-0.942-2.492c-0.161-0.79-0.109-1.514,0.156-2.169
							c0.264-0.654,0.855-1.174,1.772-1.56c0.475-0.199,1.057-0.27,1.746-0.21c0.688,0.059,1.436,0.375,2.239,0.95l0.05-0.021
							l-1.021-1.528l3.242-1.361L194.57,226.821z M184.925,225.261c0.324,0.408,0.658,0.751,1.003,1.031
							c0.345,0.279,0.691,0.47,1.043,0.572c0.353,0.103,0.708,0.078,1.067-0.073c0.36-0.151,0.594-0.374,0.701-0.669
							s0.117-0.641,0.029-1.04c-0.088-0.397-0.265-0.851-0.53-1.358c-0.267-0.508-0.592-1.051-0.978-1.629
							c-1.112-1.664-2.027-2.79-2.746-3.38c-0.72-0.59-1.414-0.743-2.086-0.462c-0.377,0.158-0.623,0.371-0.738,0.636
							c-0.116,0.267-0.111,0.618,0.013,1.056c0.124,0.437,0.378,0.982,0.763,1.636c0.385,0.654,0.883,1.439,1.496,2.357
							C184.28,224.412,184.601,224.854,184.925,225.261z"/>
						<path stroke="#000000" stroke-width="0.75" stroke-linecap="round" stroke-linejoin="round" stroke-miterlimit="10" d="
							M196.822,220.07c0.272,0.408,0.564,0.791,0.877,1.148c0.313,0.357,0.634,0.658,0.964,0.9c0.329,0.242,0.66,0.407,0.991,0.496
							c0.333,0.089,0.654,0.069,0.966-0.062c0.573-0.24,0.849-0.629,0.827-1.163s-0.273-1.256-0.753-2.162l3.046-1.278
							c1,1.622,1.402,3.009,1.205,4.157s-1.106,2.062-2.728,2.743c-1.229,0.516-2.328,0.705-3.3,0.569
							c-0.971-0.136-1.854-0.483-2.646-1.041c-0.794-0.56-1.516-1.257-2.167-2.091c-0.652-0.836-1.269-1.687-1.847-2.552
							c-0.613-0.918-1.142-1.825-1.586-2.727c-0.444-0.9-0.704-1.759-0.776-2.576c-0.075-0.816,0.102-1.564,0.528-2.244
							s1.214-1.26,2.36-1.741c0.982-0.412,1.898-0.585,2.75-0.52c0.852,0.067,1.66,0.326,2.422,0.777
							c0.764,0.453,1.496,1.079,2.201,1.882c0.703,0.802,1.407,1.729,2.111,2.783l0.526,0.789l-6.706,2.815L196.822,220.07z
							 M197.132,214.086c-0.316-0.379-0.629-0.683-0.938-0.91c-0.311-0.229-0.625-0.368-0.941-0.42
							c-0.318-0.052-0.648-0.006-0.992,0.139s-0.572,0.345-0.687,0.598c-0.112,0.255-0.147,0.54-0.103,0.858
							c0.045,0.319,0.146,0.65,0.305,0.997c0.158,0.348,0.346,0.682,0.561,1.004l0.357,0.535l3.463-1.454
							C197.791,214.913,197.449,214.464,197.132,214.086z"/>
						<path stroke="#000000" stroke-width="0.75" stroke-linecap="round" stroke-linejoin="round" stroke-miterlimit="10" d="
							M205.974,206.396c-0.654-1.215-1.05-2.326-1.188-3.334c-0.138-1.006,0.029-1.909,0.503-2.706
							c0.475-0.797,1.375-1.474,2.701-2.03s2.539-0.767,3.637-0.63s2.134,0.534,3.107,1.19c0.973,0.656,1.91,1.541,2.81,2.652
							s1.81,2.354,2.728,3.73c0.931,1.393,1.72,2.691,2.369,3.897c0.648,1.206,1.042,2.313,1.18,3.321
							c0.139,1.007-0.037,1.896-0.528,2.668s-1.399,1.436-2.727,1.992c-1.326,0.557-2.53,0.779-3.61,0.668
							c-1.082-0.111-2.108-0.495-3.082-1.152c-0.974-0.656-1.908-1.537-2.802-2.64c-0.895-1.103-1.807-2.351-2.737-3.743
							C207.416,208.904,206.628,207.61,205.974,206.396z M214.042,211.879c0.629,0.834,1.209,1.481,1.738,1.944
							s1.037,0.751,1.52,0.862c0.484,0.112,0.988,0.058,1.512-0.162s0.863-0.52,1.018-0.9c0.156-0.379,0.141-0.874-0.045-1.48
							c-0.186-0.607-0.536-1.352-1.051-2.233c-0.517-0.881-1.183-1.934-2-3.156c-0.816-1.223-1.537-2.246-2.162-3.071
							c-0.624-0.824-1.203-1.473-1.738-1.944c-0.535-0.471-1.045-0.762-1.528-0.874s-0.987-0.059-1.512,0.161
							s-0.862,0.521-1.019,0.901c-0.154,0.38-0.137,0.878,0.055,1.493s0.541,1.36,1.051,2.232c0.51,0.873,1.174,1.921,1.99,3.144
							C212.688,210.018,213.412,211.046,214.042,211.879z"/>
						<path stroke="#000000" stroke-width="0.75" stroke-linecap="round" stroke-linejoin="round" stroke-miterlimit="10" d="
							M222.423,198.462l1.225,1.834l0.05-0.021c-0.099-0.807-0.036-1.514,0.188-2.118c0.226-0.604,0.689-1.056,1.395-1.352
							c0.098-0.041,0.203-0.079,0.314-0.116c0.113-0.036,0.224-0.066,0.333-0.091l2.246,3.362c-0.191,0.06-0.376,0.12-0.554,0.184
							s-0.356,0.134-0.537,0.209c-0.295,0.124-0.561,0.29-0.799,0.498c-0.238,0.21-0.414,0.463-0.529,0.761
							c-0.115,0.299-0.142,0.637-0.079,1.012c0.063,0.377,0.247,0.793,0.554,1.252l5.495,8.227l-3.39,1.424l-9.154-13.703
							L222.423,198.462z"/>
						<path stroke="#000000" stroke-width="0.75" stroke-linecap="round" stroke-linejoin="round" stroke-miterlimit="10" d="
							M242.276,205.814c0.054,0.804-0.066,1.431-0.363,1.882c-0.297,0.449-0.789,0.82-1.477,1.108
							c-1.392,0.585-2.784,0.463-4.177-0.367c-1.393-0.828-2.939-2.516-4.642-5.062c-1.701-2.547-2.602-4.522-2.7-5.927
							c-0.1-1.404,0.547-2.398,1.938-2.983c0.639-0.268,1.273-0.36,1.905-0.277s1.31,0.319,2.033,0.711l0.049-0.021l-3.847-5.756
							l3.391-1.423l12.149,18.186l-3.242,1.361l-0.97-1.452L242.276,205.814z M237.594,205.188c0.726,0.663,1.457,0.839,2.194,0.529
							c0.753-0.316,0.988-0.897,0.704-1.746c-0.283-0.849-0.924-2.02-1.924-3.515c-0.997-1.493-1.859-2.572-2.586-3.235
							c-0.725-0.662-1.465-0.836-2.218-0.52c-0.737,0.31-0.964,0.889-0.681,1.736c0.284,0.849,0.926,2.021,1.923,3.514
							C236.006,203.446,236.869,204.524,237.594,205.188z"/>
						<path stroke="#000000" stroke-width="0.75" stroke-linecap="round" stroke-linejoin="round" stroke-miterlimit="10" d="
							M248.207,198.497c0.272,0.408,0.564,0.791,0.877,1.148c0.313,0.358,0.634,0.658,0.964,0.9c0.329,0.243,0.66,0.408,0.991,0.496
							c0.333,0.09,0.654,0.069,0.966-0.062c0.572-0.24,0.849-0.628,0.827-1.162c-0.021-0.535-0.273-1.256-0.753-2.162l3.046-1.279
							c1,1.622,1.402,3.009,1.205,4.157s-1.106,2.062-2.728,2.743c-1.229,0.516-2.328,0.705-3.3,0.57
							c-0.972-0.137-1.854-0.483-2.646-1.042c-0.794-0.56-1.516-1.256-2.168-2.091s-1.268-1.686-1.846-2.551
							c-0.613-0.918-1.142-1.826-1.586-2.728c-0.444-0.899-0.704-1.759-0.777-2.575c-0.074-0.817,0.103-1.565,0.529-2.244
							c0.427-0.68,1.214-1.26,2.359-1.741c0.983-0.412,1.899-0.585,2.751-0.52c0.852,0.067,1.659,0.326,2.422,0.777
							c0.764,0.452,1.496,1.079,2.201,1.881c0.703,0.803,1.407,1.73,2.11,2.784l0.527,0.789l-6.706,2.814L248.207,198.497z
							 M248.517,192.514c-0.316-0.379-0.629-0.683-0.938-0.91c-0.311-0.229-0.624-0.369-0.941-0.421s-0.648-0.005-0.992,0.14
							s-0.572,0.344-0.686,0.597c-0.113,0.255-0.147,0.541-0.103,0.858c0.045,0.319,0.146,0.651,0.304,0.997
							c0.159,0.348,0.346,0.682,0.562,1.004l0.357,0.535l3.463-1.453C249.174,193.341,248.833,192.892,248.517,192.514z"/>
						<path stroke="#000000" stroke-width="0.75" stroke-linecap="round" stroke-linejoin="round" stroke-miterlimit="10" d="
							M254.256,185.098l1.225,1.834l0.05-0.021c-0.099-0.806-0.036-1.513,0.189-2.117c0.225-0.604,0.688-1.056,1.394-1.352
							c0.098-0.041,0.202-0.079,0.314-0.116c0.112-0.036,0.224-0.066,0.333-0.091l2.246,3.362c-0.191,0.06-0.376,0.12-0.554,0.184
							s-0.356,0.134-0.537,0.209c-0.294,0.124-0.561,0.29-0.799,0.498c-0.237,0.21-0.414,0.463-0.53,0.761
							c-0.114,0.299-0.141,0.637-0.078,1.012c0.062,0.377,0.247,0.793,0.553,1.252l5.496,8.227l-3.39,1.423l-9.154-13.703
							L254.256,185.098z"/>
						<path stroke="#000000" stroke-width="0.75" stroke-linecap="round" stroke-linejoin="round" stroke-miterlimit="10" d="
							M268.14,191.662c0.397,0.595,0.869,1.011,1.416,1.248c0.547,0.238,1.106,0.237,1.681-0.004c0.523-0.22,0.851-0.53,0.979-0.934
							c0.13-0.401,0.014-0.875-0.35-1.419c-0.295-0.44-0.642-0.725-1.041-0.851c-0.398-0.127-0.808-0.189-1.226-0.188l-2.979,0.108
							c-1.159,0.054-2.185-0.132-3.073-0.551c-0.889-0.42-1.657-1.115-2.304-2.083c-0.374-0.56-0.639-1.128-0.793-1.704
							c-0.154-0.578-0.16-1.136-0.017-1.674s0.448-1.047,0.915-1.525s1.134-0.9,2.002-1.265c1.539-0.646,2.904-0.784,4.095-0.415
							c1.19,0.37,2.2,1.176,3.028,2.415l0.374,0.561l-3.046,1.278c-0.476-0.714-0.936-1.188-1.378-1.427
							c-0.442-0.239-0.942-0.241-1.499-0.007c-0.426,0.179-0.716,0.458-0.87,0.838c-0.155,0.38-0.067,0.816,0.261,1.309
							c0.228,0.341,0.533,0.603,0.92,0.789c0.386,0.185,0.928,0.252,1.626,0.196l2.516-0.142c1.313-0.073,2.394,0.098,3.237,0.515
							c0.846,0.418,1.614,1.145,2.306,2.18c0.488,0.731,0.788,1.415,0.899,2.053c0.112,0.638,0.069,1.227-0.126,1.766
							s-0.541,1.01-1.037,1.413c-0.496,0.404-1.104,0.758-1.824,1.06c-0.949,0.399-1.802,0.637-2.558,0.715
							c-0.755,0.078-1.441,0.008-2.06-0.212c-0.618-0.218-1.18-0.564-1.684-1.037c-0.505-0.474-0.979-1.041-1.422-1.703
							l-0.323-0.484l3.046-1.278L268.14,191.662z"/>
					</g>
				</g>
				
					<line fill="#CCCCCC" stroke="#000000" stroke-linecap="round" stroke-linejoin="round" stroke-miterlimit="10" x1="75.448" y1="239.6" x2="267.164" y2="160.267"/>
				
					<line fill="#CCCCCC" stroke="#000000" stroke-linecap="round" stroke-linejoin="round" stroke-miterlimit="10" x1="71.172" y1="232.449" x2="262.887" y2="153.116"/>
				<path fill="#FFFFFF" stroke="#000000" stroke-linecap="round" stroke-linejoin="round" stroke-miterlimit="10" d="
					M48.858,242.317c0,0-11.15-16.662-14.235-28.423c0,0,18.286-4.207,26.114-7.394"/>
			</g>
			<g>
				<g>
					<path fill="#FFCFBA" d="M80.615,164.005c0,0,2.75,6,6.75,7.75s8.5,2.73,12.25,8.115s11.75,6.885,18.25,8.135
						s23.25-1,27.75-1.75s8.75-13,2.75-16.25s-15.75-6.25-27.75-6l-4.644,1.25"/>
					<path fill="#F0B899" d="M149.906,171.288c-1.054,2.098-1.322,5.613-1.35,7.381c-0.041,2.632-13.711,0-20.941,0
						s-17.913-2-19.861-2.486s-5.337-3.799-11.765-3.728c-3.839,0.042-8.564-1.671-11.757-3.06c0.916,0.977,1.97,1.85,3.134,2.359
						c4,1.75,8.5,2.73,12.25,8.115s11.75,6.885,18.25,8.135s23.25-1,27.75-1.75C149.648,185.583,153.475,175.676,149.906,171.288z"
						/>
					<path fill="none" stroke="#000000" stroke-linecap="round" stroke-linejoin="round" stroke-miterlimit="10" d="M80.615,164.005
						c0,0,2.75,6,6.75,7.75s8.5,2.73,12.25,8.115s11.75,6.885,18.25,8.135s23.25-1,27.75-1.75s8.75-13,2.75-16.25
						s-15.75-6.25-27.75-6l-4.644,1.25"/>
					<path fill="none" stroke="#000000" stroke-linecap="round" stroke-linejoin="round" stroke-miterlimit="10" d="
						M120.615,164.005c0,0-4.75-5.5-10-6.75"/>
					<path fill="none" stroke="#000000" stroke-linecap="round" stroke-linejoin="round" stroke-miterlimit="10" d="
						M114.488,158.896c0,0,0.376-7.891-8.374-13.641"/>
					<path fill="#FFDED2" stroke="#000000" stroke-linecap="round" stroke-linejoin="round" stroke-miterlimit="10" d="
						M140.615,169.755c-2.774-0.345-5.25-0.5-6.25,3.5s-2,10.25,0,11.25s10.5,1.25,12.5-1.25s2.75-8.75,0-11
						S142.345,169.97,140.615,169.755z"/>
					<path fill="none" stroke="#000000" stroke-linecap="round" stroke-linejoin="round" stroke-miterlimit="10" d="
						M108.365,176.183c0,0-2.75,6.498,0,9.535"/>
				</g>
				<path fill="none" stroke="#000000" stroke-linecap="round" stroke-linejoin="round" stroke-miterlimit="10" d="M80.615,169.739
					c0,0,3.599,2.898,8.424,2.707"/>
			</g>
		</g>
	</g>
	<circle fill="none" stroke="#000000" stroke-miterlimit="10" cx="183.236" cy="183.234" r="182.736"/>
</g>
</svg>
