<?xml version="1.0" encoding="utf-8"?>
<!-- Generator: Adobe Illustrator 27.0.0, SVG Export Plug-In . SVG Version: 6.00 Build 0)  -->
<svg version="1.1" id="Camada_1" xmlns="http://www.w3.org/2000/svg" xmlns:xlink="http://www.w3.org/1999/xlink" x="0px" y="0px"
	 width="258.51px" height="258.512px" viewBox="0 0 258.51 258.512" enable-background="new 0 0 258.51 258.512"
	 xml:space="preserve">
<g>
	<g>
		<path fill="#CB9A80" d="M258.01,129.25c0,55.77-35.46,103.26-85.06,121.15c-1.98,0.72-3.98,1.39-6.01,2
			c-2.02,0.63-4.06,1.2-6.13,1.71c-0.69,0.17-1.38,0.34-2.07,0.5c-0.14,0.04-0.28,0.07-0.42,0.1c-0.54,0.13-1.1,0.26-1.66,0.37
			c-1.35,0.29-2.71,0.56-4.08,0.81c-0.12,0.02-0.24,0.04-0.36,0.06c-1.09,0.2-2.19,0.38-3.29,0.55c-0.19,0.03-0.38,0.06-0.57,0.09
			c-0.09,0.01-0.19,0.03-0.29,0.04c-1.38,0.2-2.76,0.38-4.15,0.54c-0.58,0.07-1.15,0.13-1.73,0.18c-0.87,0.09-1.74,0.17-2.61,0.24
			c-3.41,0.28-6.85,0.42-10.32,0.42c-7.31,0-14.48-0.61-21.45-1.78c-3.92-0.66-7.77-1.49-11.56-2.49
			C41.13,239.16,0.5,188.95,0.5,129.25C0.5,58.14,58.15,0.5,129.26,0.5S258.01,58.14,258.01,129.25z"/>
		<path fill="#FFCFBA" stroke="#000000" stroke-linecap="round" stroke-linejoin="round" stroke-miterlimit="10" d="M258.01,129.252
			c0,55.77-35.46,103.26-85.06,121.15c-1.98,0.72-3.98,1.39-6.01,2c-2.02,0.63-4.06,1.2-6.13,1.71c-0.69,0.17-1.38,0.34-2.07,0.5
			c-0.14,0.04-0.28,0.07-0.42,0.1c-0.54,0.13-1.1,0.26-1.66,0.37c-1.35,0.29-2.71,0.56-4.08,0.81c-0.12,0.02-0.24,0.04-0.36,0.06
			c-1.09,0.2-2.19,0.38-3.29,0.55c-0.19,0.03-0.38,0.06-0.57,0.09c-0.09,0.01-0.19,0.03-0.29,0.04c-1.38,0.2-2.76,0.38-4.15,0.54
			c-0.58,0.07-1.15,0.13-1.73,0.18c-0.87,0.09-1.74,0.17-2.61,0.24c-3.41,0.28-6.85,0.42-10.32,0.42c-7.31,0-14.48-0.61-21.45-1.78
			c-3.92-0.66-7.77-1.49-11.56-2.49c-55.12-14.58-95.75-64.79-95.75-124.49c0-71.11,57.65-128.75,128.76-128.75
			c23.39,0,45.32,6.24,64.23,17.14c7.63,4.4,14.77,9.56,21.31,15.37c0.01,0.01,0.02,0.02,0.02,0.03
			C241.32,56.622,258.01,90.982,258.01,129.252z"/>
		
			<radialGradient id="SVGID_1_" cx="124.3964" cy="138.0686" r="89.4685" gradientTransform="matrix(1 0 0 -0.4351 0 205.0236)" gradientUnits="userSpaceOnUse">
			<stop  offset="0" style="stop-color:#CE775E"/>
			<stop  offset="0.9368" style="stop-color:#FFCFBA"/>
		</radialGradient>
		<ellipse fill="url(#SVGID_1_)" cx="124.396" cy="144.95" rx="81.332" ry="40.333"/>
		<path fill="#FFE6DB" d="M46.86,142.203c7.76-1.009,12.277,3.645,28.839,7.862s48.992,6.473,73.314,2.218
			c24.322-4.256,49.731-18.655,49.731-18.655l-123.277-3.784l-22.585,5.328l-4.909,4.142
			C47.973,139.314,44.424,142.52,46.86,142.203z"/>
		<path fill="none" stroke="#000000" stroke-linecap="round" stroke-linejoin="round" stroke-miterlimit="10" d="M258.01,129.25
			c0,55.77-35.46,103.26-85.06,121.15c-1.98,0.72-3.98,1.39-6.01,2c-2.02,0.63-4.06,1.2-6.13,1.71c-0.69,0.17-1.38,0.34-2.07,0.5
			c-0.14,0.04-0.28,0.07-0.42,0.1c-0.54,0.13-1.1,0.26-1.66,0.37c-1.35,0.29-2.71,0.56-4.08,0.81c-0.12,0.02-0.24,0.04-0.36,0.06
			c-1.09,0.2-2.19,0.38-3.29,0.55c-0.19,0.03-0.38,0.06-0.57,0.09c-0.09,0.01-0.19,0.03-0.29,0.04c-1.38,0.2-2.76,0.38-4.15,0.54
			c-0.58,0.07-1.15,0.13-1.73,0.18c-0.87,0.09-1.74,0.17-2.61,0.24c-3.41,0.28-6.85,0.42-10.32,0.42c-7.31,0-14.48-0.61-21.45-1.78
			c-3.92-0.66-7.77-1.49-11.56-2.49C41.13,239.16,0.5,188.95,0.5,129.25C0.5,58.14,58.15,0.5,129.26,0.5S258.01,58.14,258.01,129.25
			z"/>
		
			<linearGradient id="SVGID_00000119094397360207832580000006256523527427874455_" gradientUnits="userSpaceOnUse" x1="141.0679" y1="227.3328" x2="141.0679" y2="169.8221" gradientTransform="matrix(1 0 0 -1 0 289.7086)">
			<stop  offset="0.1868" style="stop-color:#FFCFBA"/>
			<stop  offset="1" style="stop-color:#CE775E"/>
		</linearGradient>
		<path fill="url(#SVGID_00000119094397360207832580000006256523527427874455_)" d="M179.019,66.382
			c-17.276-3.665-34.606-3.423-52.05-1.926c-15.634,1.342-31.187,11.288-44.111,19.573c-7.256,4.651-10.323,10.957-15.54,17.342
			c-6.529,7.992-11.834,17.025-17.018,25.918c-1,1.715-2.022,3.53-2.059,5.515c-0.109,5.787,4.352,3.321,7.425,2.446
			c3.152-0.898,6.362-0.456,9.559-0.056c13.959,1.746,27.872,3.828,41.781,5.944c20.659,3.143,36.531-0.953,57.341-2.927
			c24.658-2.338,60.478-2.806,68.676-32.045c3.392-12.097-3.512-24.311-13.602-30.823c-5.204-3.359-11.397-5.377-17.627-5.157
			C193.901,70.464,186.816,68.037,179.019,66.382z"/>
		<g>
			<g>
				<path fill="none" stroke="#000000" stroke-linecap="round" stroke-linejoin="round" stroke-miterlimit="10" d="M197.551,133.423
					c0,0-23.136-49.341-75.791-49.341c-52.672,0-63.866,29.596-76.932,51.831c-2.636,4.485,0.656,6.985,3.493,4.828
					c2.838-2.156,4.994-1.928,9.759-0.342c4.68,1.56,23.604,9.667,58.559,9.667C164.532,150.065,197.551,133.423,197.551,133.423z"
					/>
				<g>
					<path fill="#F6B7D2" d="M197.551,133.423c0,0-23.136-49.341-75.791-49.341c-52.672,0-63.866,29.596-76.932,51.831
						c-2.636,4.485,0.656,6.985,3.493,4.828c2.838-2.156,4.994-1.928,9.759-0.342c4.68,1.56,23.604,9.667,58.559,9.667
						C164.532,150.065,197.551,133.423,197.551,133.423z"/>
					<path fill="#FFFFFF" d="M121.76,84.082c52.655,0,72.967,50.18,72.967,50.18s-30.195,15.804-78.088,15.804
						c-34.955,0-53.878-8.107-58.559-9.667c-0.932-0.31-1.738-0.55-2.494-0.748c-5.93-1.922-8.573-3.635-7.3-9.795
						C60.203,108.666,73.753,84.082,121.76,84.082z"/>
					<g>
						<path id="changecolor" fill="#75B34B" d="M88.082,117.015c0,16.258,13.193,29.454,29.493,29.454
							c16.292,0,29.485-13.197,29.485-29.454c0-16.345-13.193-29.542-29.485-29.542C101.275,87.473,88.082,100.669,88.082,117.015z"
							/>
						
							<radialGradient id="SVGID_00000139263780533936397740000017785639441530652818_" cx="117.5714" cy="172.7377" r="29.4935" gradientTransform="matrix(1 0 0 -1 0 289.7086)" gradientUnits="userSpaceOnUse">
							<stop  offset="0.538" style="stop-color:#000000;stop-opacity:0.3"/>
							<stop  offset="1" style="stop-color:#000000;stop-opacity:0.8"/>
						</radialGradient>
						<path fill="url(#SVGID_00000139263780533936397740000017785639441530652818_)" d="M88.082,117.015
							c0,16.258,13.193,29.454,29.493,29.454c16.292,0,29.485-13.197,29.485-29.454c0-16.345-13.193-29.542-29.485-29.542
							C101.275,87.473,88.082,100.669,88.082,117.015z"/>
						<path fill="none" stroke="#000000" stroke-miterlimit="10" d="M88.082,117.015c0,16.258,13.193,29.454,29.493,29.454
							c16.292,0,29.485-13.197,29.485-29.454c0-16.345-13.193-29.542-29.485-29.542C101.275,87.473,88.082,100.669,88.082,117.015z"
							/>
						<path stroke="#000000" stroke-miterlimit="10" d="M101.419,116.995c0,8.905,7.225,16.134,16.155,16.134
							c8.923,0,16.149-7.229,16.149-16.134c0-8.953-7.227-16.181-16.149-16.181C108.643,100.814,101.419,108.042,101.419,116.995z"
							/>
						<path fill="#FFFFFF" d="M126.603,110.022c0,2.78,2.257,5.037,5.036,5.037c2.782,0,5.038-2.257,5.038-5.037
							c0-2.782-2.256-5.038-5.038-5.038C128.859,104.984,126.603,107.24,126.603,110.022z"/>
						<path fill="#FFFFFF" d="M101.561,126.506c0,1.438,1.166,2.604,2.604,2.604c1.438,0,2.604-1.167,2.604-2.604
							c0-1.438-1.166-2.604-2.604-2.604C102.727,123.903,101.561,125.069,101.561,126.506z"/>
					</g>
					<path opacity="0.3" fill="#0F1821" enable-background="new    " d="M117.573,89.792c-41.11,0-62.89,29.711-69.321,40.212
						c-0.071,0.352-0.124,0.704-0.177,1.023c6.167-8.036,27.979-26.768,69.495-26.768c54.149,0,79.05,27.948,79.949,29.18h0.017
						c0.017-0.017,0.017-0.017,0.017-0.017s-0.034-0.052-0.07-0.141C195.88,130.585,170.948,89.792,117.573,89.792z"/>
					<path fill="#FCDCCE" d="M121.767,84.082c-48.017,0-61.569,24.582-73.48,45.78c-0.017,0.052-0.017,0.105-0.034,0.141
						c6.431-10.501,28.211-40.212,69.321-40.212c53.374,0,78.307,40.794,79.911,43.489
						C196.075,130.391,172.78,84.082,121.767,84.082z"/>
					<path fill="none" stroke="#000000" stroke-linecap="round" stroke-linejoin="round" stroke-miterlimit="10" d="
						M197.551,133.423c0,0-23.136-49.341-75.791-49.341c-52.672,0-63.866,29.596-76.932,51.831
						c-2.636,4.485,0.656,6.985,3.493,4.828c2.838-2.156,4.994-1.928,9.759-0.342c4.68,1.56,23.604,9.667,58.559,9.667
						C164.532,150.065,197.551,133.423,197.551,133.423z"/>
					<path fill="none" stroke="#000000" stroke-linecap="round" stroke-linejoin="round" stroke-miterlimit="10" d="
						M197.551,133.423c0,0-24.795-43.63-79.981-43.63c-49.938,0-71.368,43.834-71.368,43.834"/>
				</g>
			</g>
			<path stroke="#000000" stroke-linecap="round" stroke-linejoin="round" stroke-miterlimit="10" d="M51.259,124.614
				c0,0,28.104-31.589,66.311-31.589s60.754,19.506,66.747,26.093c5.993,6.586,8.971,11.207,14.427,14.51
				c0,0-19.903-44.356-78.038-44.356C73.045,89.272,51.259,124.614,51.259,124.614z"/>
			<path stroke="#000000" stroke-linecap="round" stroke-linejoin="round" stroke-miterlimit="10" d="M189.586,124.365
				c0,0,8.755,16.479,30.899,6.085c-15.449,3.439-22.538-0.226-28.869-7.233C191.597,123.192,189.586,124.365,189.586,124.365z"/>
			<path stroke="#000000" stroke-linecap="round" stroke-linejoin="round" stroke-miterlimit="10" d="M185.124,117.849
				c0,0,10.538,2.773,20.482-3.653c-7.386,2.527-18.355,1.61-22.489-1.268C183.41,116.239,185.124,117.849,185.124,117.849z"/>
			<path stroke="#000000" stroke-linecap="round" stroke-linejoin="round" stroke-miterlimit="10" d="M188.792,123.713
				c0,0,9.486,5.364,20.737,1.681c-7.786,0.564-18.16-3.115-21.426-6.95C187.545,121.721,188.792,123.713,188.792,123.713z"/>
			<path stroke="#000000" stroke-linecap="round" stroke-linejoin="round" stroke-miterlimit="10" d="M160.398,102.315
				c0,0,12.853,2.455,19.341-10.679c-6.329,4.589-11.149,7.993-19.341,6.291C158.377,98.915,160.398,102.315,160.398,102.315z"/>
			<path stroke="#000000" stroke-linecap="round" stroke-linejoin="round" stroke-miterlimit="10" d="M171.51,107.46
				c0,0,9.652,0.417,14.716-10.393c-0.789,10.619-9.831,14.384-9.831,14.384L171.51,107.46z"/>
			<path stroke="#000000" stroke-linecap="round" stroke-linejoin="round" stroke-miterlimit="10" d="M143.279,93.33
				c0,0,11.917-1.753,17.525-9.464c-4.732,8.587-10.527,12.225-10.527,12.225L143.279,93.33z"/>
			<path stroke="#000000" stroke-linecap="round" stroke-linejoin="round" stroke-miterlimit="10" d="M158.52,97.599
				c0,0,7.574-8.108,7.716-15.66c-3.416,9.113-14.195,13.845-14.195,13.845L158.52,97.599z"/>
			<path stroke="#000000" stroke-linecap="round" stroke-linejoin="round" stroke-miterlimit="10" d="M131.64,91.636
				c0,0,5.892-4.491,6.358-14.104c-2.154,6.335-6.451,10.394-13.602,13.521C127.092,91.834,131.64,91.636,131.64,91.636z"/>
		</g>
		<g>
			<path fill="#603723" d="M220.32,42.382c-0.44-0.4-14.71-13.3-35.59-16.28c-21.21-3.03-52,0-86.36,19.32
				c-15.3,8.6-45.83,25.75-66.66,24.24c0.75-7.96,9.33-20.98,9.33-20.98s28.92-8.19,52.03-17.2c23.1-9.01,53.4-22.42,86.35-17.5
				c5.32,0.79,9.99,2.07,14.07,3.66c7.63,4.4,14.77,9.56,21.31,15.37c0.01,0.01,0.02,0.02,0.02,0.03
				C218.79,38.072,220.24,42.132,220.32,42.382z"/>
			<path fill="none" stroke="#000000" stroke-linecap="round" stroke-linejoin="round" stroke-miterlimit="10" d="M220.32,42.382
				c-0.44-0.4-14.71-13.3-35.59-16.28c-21.21-3.03-52,0-86.36,19.32c-15.3,8.6-45.83,25.75-66.66,24.24
				c0.75-7.96,9.33-20.98,9.33-20.98s28.92-8.19,52.03-17.2c23.1-9.01,53.4-22.42,86.35-17.5c5.32,0.79,9.99,2.07,14.07,3.66
				c7.63,4.4,14.77,9.56,21.31,15.37c0.01,0.01,0.02,0.02,0.02,0.03C218.79,38.072,220.24,42.132,220.32,42.382z"/>
		</g>
	</g>
	<g>
		<path fill="#FFC03B" d="M87.15,175.952c-0.57,1.45-1.39,2.39-2.24,2.99l-0.01,0.01c-1.3,0.91-2.64,1.04-3.1,1.14
			c-1.31,0.27-1.06,0.52-2.07,1.54c-0.63,0.64-1.46,1.1-2.3,1.41c-0.93,0.35-1.86,0.53-2.79,0.56c-2.14,0.09-4.23-0.65-5.99-2.12
			c-1.89,1.29-4.37,1.66-6.56,0.98c-2.18-0.68-4.02-2.4-4.84-4.54c-1.82,0.73-3.99,0.51-5.63-0.57c-0.84-0.56-1.6-1.35-2.14-2.26
			v-0.01c-0.51-0.85-0.83-1.78-0.86-2.73c-0.36-0.05-0.71-0.13-1.05-0.26c-1.19-0.4-2.25-1.21-2.93-2.28
			c-0.87-1.37-1.11-3.12-0.63-4.67c-1.61-0.33-3.16-1.34-3.73-2.87c-0.07-0.19-0.12-0.38-0.15-0.58c-0.22-1.42,0.54-3.02,1.91-3.47
			c-0.23-0.03-0.46-0.08-0.68-0.14c-1.42-0.46-2.55-1.77-2.84-3.25c-0.33-1.71,0.38-3.55,1.68-4.72c1.29-1.17,3.09-1.7,4.83-1.6
			c1.89,0.11,3.93,1.18,4.33,3.03c2.01-0.93,5-0.54,6.28,1.27c0.39,0.55,0.74,1.24,1.4,1.39c0.41,0.1,0.84-0.06,1.24-0.2
			c1.85-0.67,3.89-1.16,5.78-0.6c1.89,0.57,3.48,2.53,2.99,4.44c1.66-0.91,3.77-0.39,5.44,0.5c1.68,0.89,2.85,2.65,3.03,4.53
			c1.85-0.69,4.55,0.4,6.05,1.52c1.88,1.4,1.29,3.81,0.65,5.68C83.7,170.462,89.4,170.092,87.15,175.952z"/>
		<path fill="#EEA500" d="M51.39,171.302c0.55,0.67,1.36,1.09,2.2,1.3c-0.62-0.11-1.25-0.19-1.88-0.11
			c-0.74,0.1-1.49,0.45-1.89,1.08c-0.28,0.44-0.37,0.98-0.34,1.51c-0.51-0.85-0.83-1.78-0.86-2.73c-0.36-0.05-0.71-0.13-1.05-0.26
			h0.06C48.98,172.142,50.21,172.052,51.39,171.302z"/>
		<path fill="#EEA500" d="M44.2,158.272c0.36-0.03,0.71-0.09,1.06-0.17c-0.78,0.2-1.59,0.32-2.36,0.56
			c-1.18,0.36-2.37,1.12-2.68,2.31c-0.06,0.23-0.09,0.48-0.09,0.72c-0.22-1.42,0.54-3.02,1.91-3.47c-0.23-0.03-0.46-0.08-0.68-0.14
			c0.24,0.01,0.48,0.08,0.73,0.12C42.79,158.312,43.49,158.342,44.2,158.272z"/>
		<path fill="#EEA500" d="M54.795,159.696c0.667,1.236,0.704,2.731,0.421,4.107c-0.226,1.097-0.674,2.195-1.522,2.927
			c0.966-0.853,1.939-1.712,3.049-2.368c1.11-0.656,2.376-1.104,3.665-1.058c-1.31-0.512-2.511-1.391-3.217-2.608
			c-0.707-1.217-0.861-2.788-0.221-4.041c-0.541,0.777-1.619,0.947-2.563,0.89c-0.559-0.034-1.244-0.234-1.798-0.134
			c-0.128,0.023-0.431,0.071-0.401,0.282c0.02,0.141,0.388,0.165,0.504,0.205C53.598,158.2,54.353,158.876,54.795,159.696z"/>
		<path fill="#EEA500" d="M84.9,178.952c-1.3,0.91-2.64,1.04-3.1,1.14c-1.31,0.27-1.06,0.52-2.07,1.54c-0.63,0.64-1.46,1.1-2.3,1.41
			c-0.93,0.35-1.86,0.53-2.79,0.56c0.53-0.18,1.06-0.35,1.58-0.55c0.92-0.36,1.81-0.83,2.44-1.58s0.96-1.81,0.64-2.73
			c0.16,0.38,0.52,0.65,0.91,0.78s0.82,0.13,1.23,0.11c0.67-0.02,1.34-0.11,2-0.25C83.91,179.282,84.41,179.042,84.9,178.952z"/>
		<path fill="#EEA500" d="M72.953,166.907c0,0-1.179,1.838,0.24,4.991l-0.192,0.557c0,0-2.348,0.205-4.422,2.347
			c0,0,1.962-1.465,2.605-3.287C71.827,169.695,72.953,166.907,72.953,166.907z"/>
		<path fill="none" stroke="#000000" stroke-linecap="round" stroke-linejoin="round" stroke-miterlimit="10" d="M87.145,175.948
			c2.259-5.852-3.443-5.482-4.925-5.877c0.639-1.87,1.228-4.282-0.651-5.679c-1.504-1.119-4.202-2.21-6.054-1.516
			c-0.177-1.885-1.35-3.648-3.022-4.537c-1.671-0.89-3.783-1.405-5.445-0.499c0.487-1.91-1.103-3.871-2.992-4.434
			c-1.889-0.563-3.925-0.07-5.78,0.595c-0.4,0.143-0.825,0.297-1.239,0.201c-0.656-0.152-1.005-0.84-1.395-1.389
			c-1.284-1.81-4.272-2.202-6.287-1.273c-0.401-1.847-2.435-2.915-4.322-3.025c-1.741-0.102-3.546,0.428-4.839,1.598
			c-1.293,1.17-2.009,3.005-1.675,4.717s1.788,3.194,3.521,3.397c-1.557,0.504-2.334,2.514-1.761,4.047
			c0.573,1.533,2.124,2.54,3.729,2.863c-0.478,1.552-0.239,3.309,0.636,4.677c0.875,1.368,2.369,2.322,3.979,2.54
			c0.049,1.961,1.364,3.919,3.001,4.998c1.637,1.08,3.809,1.301,5.63,0.574c0.82,2.136,2.654,3.857,4.838,4.539
			s4.672,0.309,6.561-0.981c2.518,2.103,5.704,2.704,8.778,1.558c0.835-0.312,1.67-0.768,2.301-1.406
			c1.009-1.021,0.76-1.271,2.07-1.546C82.556,179.93,85.702,179.686,87.145,175.948z"/>
		<path fill="none" stroke="#000000" stroke-linecap="round" stroke-linejoin="round" stroke-miterlimit="10" d="M50.213,169.19
			c0,0,2.554,6.105,9.558,2.831"/>
		<path fill="none" stroke="#000000" stroke-linecap="round" stroke-linejoin="round" stroke-miterlimit="10" d="M68.222,175.172
			c0,0,3.179-3.683,7.115-2.568"/>
		<path fill="none" stroke="#000000" stroke-linecap="round" stroke-linejoin="round" stroke-miterlimit="10" d="M73.088,166.595
			c0,0-1.341,2.502,0.335,5.793"/>
		<path fill="none" stroke="#000000" stroke-linecap="round" stroke-linejoin="round" stroke-miterlimit="10" d="M50.669,157.643
			c2.185-0.011,4.284,1.554,4.898,3.65c0.614,2.097-0.309,4.546-2.154,5.716c0.114-0.038,0.228-0.076,0.342-0.114"/>
		<path fill="#FFDB6D" d="M47.095,164.531c2.338,2.687,8.069-0.404,5.443-3.686C50.021,157.7,44.39,161.423,47.095,164.531z"/>
		<path fill="#FFDB6D" d="M41.623,155.375c0.018,0.575,0.71,0.853,1.28,0.925c1.103,0.14,2.262,0.041,3.251-0.465
			c1.225-0.627,3.283-3.985,0.743-4.028c-0.896-0.015-1.722,0.73-2.354,1.261C43.916,153.594,41.597,154.536,41.623,155.375z"/>
		<path fill="#FFDB6D" d="M69.871,177.092c-0.215,0.487-0.356,1.024-0.284,1.553c0.071,0.528,0.385,1.043,0.875,1.253
			c0.78,0.333,1.657-0.182,2.274-0.764c0.617-0.582,1.211-1.29,2.045-1.446c1.112-0.207,2.322,0.65,3.334,0.145
			c0.617-0.308,0.92-1.08,0.786-1.756c-0.354-1.792-2.731-2.225-4.247-2.11C72.64,174.117,70.709,175.192,69.871,177.092z"/>
		<path fill="#FFDB6D" d="M75.55,166.114c-1.018,1.022-1.439,2.599-1.065,3.992c0.654-0.506,1.322-1.021,2.101-1.297
			c0.779-0.276,1.703-0.278,2.378,0.199c0.248,0.175,0.463,0.413,0.754,0.501c0.297,0.09,0.623,0.005,0.897-0.143
			c1.879-1.015,0.983-3.19-0.455-4.065C78.702,164.414,76.737,164.923,75.55,166.114z"/>
		<path fill="#FFDB6D" d="M80.729,176.799c0.866,0.172,1.782,0.189,2.616-0.102c0.834-0.291,1.575-0.921,1.863-1.755
			c0.289-0.834,0.049-1.862-0.664-2.383c-0.971-0.709-1.91-0.219-2.251,0.683C81.788,174.576,81.856,175.695,80.729,176.799z"/>
		<path fill="#FFDB6D" d="M66.235,161.25c-0.636,0.351-1.241,0.865-1.426,1.567c-0.184,0.703,0.238,1.585,0.96,1.661
			c0.546,0.058,1.026-0.325,1.494-0.613c0.746-0.461,1.616-0.719,2.492-0.742c1.278-0.033,3.657-0.815,1.679-2.165
			C70.035,160.004,67.598,160.497,66.235,161.25z"/>
		<path fill="#FFDB6D" d="M61.649,158.071c0.076,0.309,0.112,0.663,0.357,0.865c0.377,0.31,0.94,0.046,1.329-0.248
			c0.543-0.411,1.084-0.955,1.105-1.636c0.029-0.919-0.909-1.587-1.807-1.784c-0.473-0.104-3.203-0.223-3.061,0.744
			c0.034,0.23,0.953,0.508,1.163,0.674C61.175,157.036,61.514,157.522,61.649,158.071z"/>
		<path fill="#FFDB6D" d="M64.576,169.655c-0.256,0.585-0.343,1.328,0.073,1.812c0.452,0.526,1.28,0.502,1.94,0.289
			c0.807-0.261,1.542-0.739,2.107-1.371c0.393-0.439,0.715-0.992,0.685-1.58C69.227,165.766,65.2,168.227,64.576,169.655z"/>
		<path fill="#FFDB6D" d="M63.881,178.425c0.339-0.041,0.677-0.126,1.017-0.099c0.34,0.027,0.698,0.198,0.821,0.517
			c0.135,0.348-0.063,0.754-0.362,0.977c-0.299,0.223-0.677,0.306-1.042,0.382c-1.002,0.211-2.04,0.422-3.039,0.199
			c-0.999-0.223-1.95-1.008-2.02-2.029c-0.068-0.978,0.716-2.004,1.624-2.281C61.238,177.622,62.131,178.635,63.881,178.425z"/>
		<path fill="#FFDB6D" d="M58.757,167.828c1.305,0.2,2.766-0.23,3.479-1.407c0.533-0.881,0.594-1.805-0.534-1.952
			C60.283,164.285,55.752,167.368,58.757,167.828z"/>
		<path fill="#FFDB6D" d="M56.678,174.882c0.121,0.484-0.39,0.876-0.842,1.087c-0.76,0.354-4.868,0.87-3.786-1.091
			C52.483,174.092,56.476,174.075,56.678,174.882z"/>
		<path fill="#EEA500" d="M62.551,172.275c0.501,0.768,1.391,1.245,2.305,1.325c-0.979,0.14-2.066,0.257-2.875-0.313
			c-0.597-0.421-0.923-1.195-0.807-1.916c0.051-0.317,0.899-1.761,1.075-1.234c0.078,0.233-0.128,0.786-0.088,1.081
			C62.212,171.593,62.345,171.958,62.551,172.275z"/>
	</g>
	<g>
		<path fill="#FFC03B" d="M101.272,196.033c0,0-3.137,0.455-5.14-2.953c-0.985-1.834-0.827-4.619,0.383-6.314
			c-1.601-1.304-2.406-3.517-2.017-5.544s1.956-3.785,3.926-4.404c0.121-2.24,1.676-4.338,3.784-5.104s4.647-0.158,6.179,1.481
			c3.455-2.324,8.459-2.004,11.59,0.74c0,0,4.016-4.672,9.444,0.012c0,0,6.143-2.316,10,1.827c0,0,7.286-8.512,16.286-1.827
			c0,0,4.857-3.735,9.857-1.525c0,0,12.429-2.933,10.571,7.638c0,0,6.286,10-4.571,13.714c0,0-1.286,13-17.857,9.143
			c0,0-3.143,5.264-10.286,2.132c0,0-3.857,8.582-13.143,4.153c0,0-6,1.714-7.429-2.429c0,0-8.143,7-14.143-0.857
			C108.706,205.917,99.409,203.72,101.272,196.033z"/>
		<path fill="#EEA500" d="M117.754,180.754c1.827-0.343,4.708,0.619,5.633,2.232c0.924,1.613,1.01,3.04,0.589,4.606
			c2.403-1.54,3.476-1.474,6.328-1.355c-1.781-0.035-3.512-1.226-4.082-2.914c-0.57-1.688,0.142-3.747,1.685-4.636
			c-1.089,1.076-2.819,1.443-4.251,0.903c-0.801-0.302-2.513-2.83-2.923-2.747c-0.242,0.049-0.863,1.635-1.095,1.918
			C119.133,179.376,118.487,180.439,117.754,180.754z"/>
		<path fill="#EEA500" d="M140.33,182.559c-0.904,1.42-1.229,1.79-2.545,2.84c3.271-1.185,5.979-1.041,8.562,1.29
			c-0.865-1.042-1.089-2.577-0.558-3.823c0.531-1.246,1.794-2.146,3.145-2.243c-1.707-0.146-3.448-0.314-5.012-1.012
			c-1.121-0.501-2.747-1.283-3.45-2.281C141.002,178.568,141.155,181.264,140.33,182.559z"/>
		<path fill="#EEA500" d="M128.818,201.025c1.883-0.94,3.187-1.943,5.286-2.09c2.099-0.147,4.296,0.35,5.937,1.667
			c-1.039-0.835-1.806-1.492-2.731-2.551c-0.53-0.607-1.804-2.678-2.62-2.519c-0.628,0.122-2.795,2.214-3.46,2.76
			C130.04,199.269,129.381,200.302,128.818,201.025z"/>
		<path fill="#EEA500" d="M153.379,197.976c0.973-2.298,3.445-3.513,5.722-4.534c-3.739,0.915-7.806,0.413-11.211-1.383
			c0.374,0.197-0.157,2.222-1.145,3.64c-1.024,1.47-2.514,2.331-2.514,2.331c0.683,0.505,3.628-0.48,4.494-0.523
			C150.288,197.428,151.864,197.583,153.379,197.976z"/>
		<path fill="#EEA500" d="M163.385,185.801c-0.23,2.068-1.392,3.926-2.779,5.477c1.831-2.196,5.49-2.536,7.694-0.715
			c-2.013-1.163-3.013-3.826-2.262-6.026c0.751-2.2,3.17-3.697,5.474-3.387c-1.451,0.089-2.948,0.07-4.302-0.461
			c-1.371-0.537-2.424-1.613-2.81-3.037c-0.714,1.091-2.618,2.043-2.36,3.401C162.37,182.792,163.606,183.817,163.385,185.801z"/>
		<path fill="#EEA500" d="M107.599,190.202c-0.871-1.034-0.003-4.818,1.234-5.364c-0.562,0.248-1.153,0.917-1.686,1.284
			c-0.667,0.46-1.385,0.846-2.135,1.151c-1.536,0.625-3.072,0.768-4.7,0.84c0.522,0.945,0.856,1.834,1.041,2.904
			c0.111,0.644,0.649,4.207,0.652,3.348c0.001-0.251,1.528-2.041,2.158-2.368C105.052,191.534,106.594,190.155,107.599,190.202z"/>
		<path fill="none" stroke="#000000" stroke-linecap="round" stroke-linejoin="round" stroke-miterlimit="10" d="M101.272,196.033
			c0,0-3.137,0.455-5.14-2.953c-0.985-1.834-0.827-4.619,0.383-6.314c-1.601-1.304-2.406-3.517-2.017-5.544s1.956-3.785,3.926-4.404
			c0.121-2.24,1.676-4.338,3.784-5.104s4.647-0.158,6.179,1.481c3.455-2.324,8.459-2.004,11.59,0.74c0,0,4.016-4.672,9.444,0.012
			c0,0,6.143-2.316,10,1.827c0,0,7.286-8.512,16.286-1.827c0,0,4.857-3.735,9.857-1.525c0,0,12.429-2.933,10.571,7.638
			c0,0,6.286,10-4.571,13.714c0,0-1.286,13-17.857,9.143c0,0-3.143,5.264-10.286,2.132c0,0-3.857,8.582-13.143,4.153
			c0,0-6,1.714-7.429-2.429c0,0-8.143,7-14.143-0.857C108.706,205.917,99.409,203.72,101.272,196.033z"/>
		<path fill="none" stroke="#000000" stroke-linecap="round" stroke-linejoin="round" stroke-miterlimit="10" d="M140.563,199.488
			c0,0,8.286-1.429,7.429-9.286"/>
		<path fill="none" stroke="#000000" stroke-linecap="round" stroke-linejoin="round" stroke-miterlimit="10" d="M163.42,188.168
			c0,0-4.72,9.503-15.431,4.198"/>
		<path fill="none" stroke="#000000" stroke-linecap="round" stroke-linejoin="round" stroke-miterlimit="10" d="M139.42,175.774
			c2,1.714,2.714,7.429-2.286,10"/>
		<path fill="none" stroke="#000000" stroke-linecap="round" stroke-linejoin="round" stroke-miterlimit="10" d="M108.992,184.631
			c0,0-5.429,6.547,3.571,9.345"/>
		<path fill="none" stroke="#000000" stroke-linecap="round" stroke-linejoin="round" stroke-miterlimit="10" d="M101.272,196.033
			c1.292-4.402,6.328-5.83,6.328-5.83"/>
		<path fill="none" stroke="#000000" stroke-linecap="round" stroke-linejoin="round" stroke-miterlimit="10" d="M119.657,196.033
			c0,0,3.236,3.313,0,6.17"/>
		<path fill="none" stroke="#000000" stroke-linecap="round" stroke-linejoin="round" stroke-miterlimit="10" d="M149.278,179.917
			c0,0,5.857,6.286,11.286,0"/>
		<path fill="none" stroke="#000000" stroke-linecap="round" stroke-linejoin="round" stroke-miterlimit="10" d="M117.563,180.774
			c0,0,8.286-0.784,6.286,7.394"/>
		<path fill="none" stroke="#000000" stroke-linecap="round" stroke-linejoin="round" stroke-miterlimit="10" d="M167.935,189.875
			c-2.028-1.812-2.204-4.924-0.392-6.953c0.906-1.014,2.137-1.565,3.395-1.636"/>
		<path fill="#FFDB6D" d="M112.623,183.845c-1.308,0.852-2.225,2.364-2.156,3.924c0.044,1,0.568,2.049,1.505,2.403
			c0.861,0.326,1.849-0.009,2.589-0.557s1.31-1.29,1.975-1.927c0.529-0.506,1.165-0.978,1.893-1.139
			c0.532-0.118,1.397,0.23,1.852-0.04c0.746-0.442,0.448-1.506,0.057-2.11C118.915,182.201,114.514,182.613,112.623,183.845z"/>
		<path fill="#FFDB6D" d="M98.281,179.127c-0.912,0.717-1.433,1.99-1.055,3.086c0.377,1.097,1.78,1.786,2.799,1.231
			c0.888-0.483,1.225-1.64,2.089-2.164c0.615-0.373,1.401-0.477,1.417-1.345c0.01-0.557-0.699-1.344-1.166-1.59
			C101.217,177.741,99.211,178.396,98.281,179.127z"/>
		<path fill="#FFDB6D" d="M114.011,173.602c-1.073-0.058-2.179,0.019-3.163,0.45c-0.985,0.431-1.837,1.26-2.09,2.305
			c-0.254,1.045,0.211,2.277,1.186,2.73c0.987,0.458,2.133,0.062,3.183-0.223c0.825-0.224,1.673-0.378,2.464-0.705
			c0.79-0.327,1.537-0.856,1.91-1.625C118.8,173.857,115.711,173.695,114.011,173.602z"/>
		<path fill="#FFDB6D" d="M101.126,174.459c-0.201,0.206-0.389,0.506-0.261,0.764c0.164,0.329,0.647,0.261,0.995,0.143
			c0.635-0.216,3.32-0.649,2.306-1.81C103.475,172.763,101.653,173.914,101.126,174.459z"/>
		<path fill="#FFDB6D" d="M133.309,180.013c-0.025,0.754-0.256,1.633,0.271,2.173c0.344,0.352,0.89,0.403,1.38,0.36
			c0.891-0.077,1.773-0.405,2.438-1.002c0.665-0.598,1.093-1.477,1.061-2.371c-0.04-1.124-0.794-2.134-1.751-2.725
			c-0.957-0.591-2.094-0.818-3.213-0.925C129.715,175.162,133.366,178.274,133.309,180.013z"/>
		<path fill="#FFDB6D" d="M142.896,194.498c1.016-0.463,1.877-1.337,2.155-2.418c0.277-1.081-0.119-2.349-1.062-2.948
			c-2.23-1.416-6.323,0.398-7.012,2.885C136.071,195.288,140.94,195.389,142.896,194.498z"/>
		<path fill="#FFDB6D" d="M133.868,201.945c-1.114,0.136-1.964,1.261-1.932,2.383c0.031,1.122,0.836,2.141,1.868,2.582
			c1.032,0.441,2.24,0.353,3.276-0.079c1.074-0.448,4.185-2.48,2.026-3.472c-0.787-0.361-1.858-0.289-2.719-0.657
			C135.569,202.353,134.801,201.831,133.868,201.945z"/>
		<path fill="#FFDB6D" d="M125.158,191.944c-0.874,0.645-1.633,1.662-1.446,2.731c0.209,1.195,1.482,1.891,2.666,2.155
			c1.188,0.265,2.46,0.27,3.593-0.174c2.018-0.791,3.695-3.877,1.641-5.587C130.001,189.729,126.582,190.894,125.158,191.944z"/>
		<path fill="#FFDB6D" d="M116.735,204.026c-0.848-0.264-1.643-0.709-2.519-0.851c-0.876-0.142-1.916,0.124-2.308,0.92
			c-0.404,0.821,0.094,1.872,0.886,2.329s1.775,0.439,2.672,0.261c1.565-0.311,3.477-1.158,4.419-2.482
			C118.821,204.341,117.773,204.349,116.735,204.026z"/>
		<path fill="#FFDB6D" d="M104.637,196.199c-0.534,1.187-0.219,2.716,0.776,3.554c0.996,0.838,2.598,0.871,3.594,0.032
			C112.041,197.23,106.636,191.757,104.637,196.199z"/>
		<path fill="#FFDB6D" d="M161.668,196.204c-0.767,0.616-1.621,1.171-2.587,1.353c-0.578,0.109-1.334,0.205-1.46,0.78
			c-0.132,0.601,0.596,1.012,1.199,1.138c3.009,0.626,7.014-0.631,8.341-3.622c0.444-1.001,0.534-2.015-0.712-2.259
			C164.669,193.246,162.887,195.225,161.668,196.204z"/>
		<path fill="#FFDB6D" d="M147.102,173.882c-1.037,0.317-1.991,0.985-2.515,1.935c-0.339,0.616-0.463,1.441-0.016,1.984
			c0.465,0.565,1.354,0.574,2.025,0.28c0.952-0.417,1.615-1.285,2.417-1.945c0.777-0.639,3.142-1.001,2.313-1.901
			C150.483,173.32,148.085,173.582,147.102,173.882z"/>
		<path fill="#FFDB6D" d="M156.624,176.464c-0.189,0.742,0.116,1.631,0.807,1.961c0.784,0.375,1.716-0.048,2.407-0.576
			c1.04-0.794,2.033-2.729,0.339-3.433C158.855,173.868,156.947,175.195,156.624,176.464z"/>
		<path fill="#FFDB6D" d="M156.098,187.177c-0.824-0.077-1.618-0.375-2.444-0.429s-1.764,0.216-2.143,0.952
			c-0.288,0.558-0.171,1.268,0.186,1.784c0.358,0.516,0.922,0.859,1.514,1.071c1.488,0.532,3.236,0.266,4.499-0.683
			c0.59-0.443,2.2-2.152,1.75-3.019C159.105,186.169,156.999,187.261,156.098,187.177z"/>
		<path fill="#FFDB6D" d="M168.758,187.059c0.517,1.038,1.816,1.45,2.974,1.393c2.465-0.122,5.324-3.083,2.373-4.856
			C171.955,182.305,167.241,184.013,168.758,187.059z"/>
		<path fill="#FFDB6D" d="M166.598,174.886c-0.647,0.168-1.377,0.522-1.468,1.183c-0.076,0.551,0.371,1.069,0.896,1.255
			s1.103,0.113,1.65,0.012c0.547-0.102,1.103-0.231,1.655-0.154c0.941,0.131,1.81,0.854,2.737,0.65
			c1.687-0.37,1.231-2.473-0.061-2.957C170.49,174.305,168.118,174.492,166.598,174.886z"/>
	</g>
	<g>
		<path fill="#FFC03B" d="M190.644,167.798c0,0-2.629-7.686,4.646-12.057c0,0,0.299-5.4,5.209-4.939c0,0,3.797-6.809,8.588-2.677
			c0,0,0.712-5.286,6.16-4.085c0,0,2.257-7.676,9.579-3.59c0,0,3.838-8.575,9.359-6.021c5.521,2.554,2.467,7.197,2.467,7.197
			s5.077,5.247,0.921,9.587c0,0,2.308,5.079-2.32,7.363c0,0,1.544,5.165-4.799,6.682c0,0,0.225,6.729-6.201,5.852
			c0,0-2.306,6.774-8.866,4.23c0,0-4.451,8.111-11.859,3.26c0,0-4.507,4.54-9.184-0.005
			C194.345,178.593,185.14,176.508,190.644,167.798z"/>
		<path fill="#EEA500" d="M200.681,169.142c-1.387-0.474-2.881-0.633-4.336-0.463c2.46-0.952,5.09-2.041,6.484-4.281
			c2.574,0.947,5.448,0.453,8.078-0.327c-0.984,0.175-1.867,0.849-2.294,1.752c-0.427,0.904-0.388,2.013,0.101,2.885
			c-1.908-1.02-4.362-0.931-6.19,0.226c-0.771,0.487-1.419,1.158-1.901,1.93c-0.36,0.575-0.595,2.114-1.1,2.396
			C198.876,171.935,199.568,170.004,200.681,169.142z"/>
		<path fill="#EEA500" d="M223.796,164.238c0.951-0.682,2.18-0.824,3.35-0.841c-0.996-0.459-1.669-1.544-1.638-2.641
			c0.031-1.097,0.765-2.141,1.786-2.543c-0.849-0.033-1.698-0.065-2.547-0.098c0.361,0.014-0.458,2.711-0.576,2.946
			c-0.491,0.978-1.238,1.699-2.154,2.277c-0.621,0.391-1.686,0.956-1.345,1.881c0.28,0.76,1.647,1.414,2.194,2.055
			C222.319,166.212,222.879,164.896,223.796,164.238z"/>
		<path fill="#EEA500" d="M222.895,153.524c-0.758-0.845-0.708-2.218-0.076-3.161s1.728-1.492,2.841-1.714
			c-2.073-0.194-4.074-1.096-5.593-2.52c0.72,0.914,0.874,2.24,0.382,3.294c-0.355,0.761-2.225,1.733-1.502,2.346
			c0.386,0.327,1.527,0.443,2.028,0.663C221.649,152.73,222.294,153.095,222.895,153.524z"/>
		<path fill="#EEA500" d="M226.699,146.993c0.759-0.844,1.671-1.583,2.742-1.959c1.071-0.376,2.317-0.354,3.287,0.236
			c-0.939-0.571-2.298-0.684-3.31-1.248c-0.568-0.316-2.135-1.878-2.713-1.582C227.236,144.053,227.778,145.39,226.699,146.993z"/>
		<path fill="#EEA500" d="M207.665,154.892c-1.229,0.138-2.439,0.567-3.414,1.328s-1.7,1.866-1.901,3.086
			c0.177-1.069,0.301-2.168,0.323-3.251c0.023-1.108-0.298-2.163-0.372-3.21C203.875,154.044,205.666,154.823,207.665,154.892z"/>
		<path fill="none" stroke="#000000" stroke-linecap="round" stroke-linejoin="round" stroke-miterlimit="10" d="M190.644,167.798
			c0,0-2.629-7.686,4.646-12.057c0,0,0.299-5.4,5.209-4.939c0,0,3.797-6.809,8.588-2.677c0,0,0.712-5.286,6.16-4.085
			c0,0,2.257-7.676,9.579-3.59c0,0,3.838-8.575,9.359-6.021c5.521,2.554,2.467,7.197,2.467,7.197s5.077,5.247,0.921,9.587
			c0,0,2.308,5.079-2.32,7.363c0,0,1.544,5.165-4.799,6.682c0,0,0.225,6.729-6.201,5.852c0,0-2.306,6.774-8.866,4.23
			c0,0-4.451,8.111-11.859,3.26c0,0-4.507,4.54-9.184-0.005C194.345,178.593,185.14,176.508,190.644,167.798z"/>
		<path fill="none" stroke="#000000" stroke-linecap="round" stroke-linejoin="round" stroke-miterlimit="10" d="M194.953,168.833
			c0,0,9.273-0.859,7.371-8.493"/>
		<path fill="none" stroke="#000000" stroke-linecap="round" stroke-linejoin="round" stroke-miterlimit="10" d="M212.796,161.588
			c0,0-2.307,5.588-10.506,2.595"/>
		<path fill="none" stroke="#000000" stroke-linecap="round" stroke-linejoin="round" stroke-miterlimit="10" d="M229.46,151.288
			c-1.733-0.476-2.752-2.268-2.276-4.001c0.476-1.733,2.268-2.752,4.001-2.276c0.433,0.119,0.822,0.32,1.154,0.582"/>
		<path fill="none" stroke="#000000" stroke-linecap="round" stroke-linejoin="round" stroke-miterlimit="10" d="M210.469,171.823
			c-0.704,3.273-3.928,5.356-7.201,4.652c-1.637-0.352-2.976-1.334-3.817-2.637"/>
		<path fill="none" stroke="#000000" stroke-linecap="round" stroke-linejoin="round" stroke-miterlimit="10" d="M223.183,155.402
			c1.507,1.19,2.24,3.208,1.699,5.177c-0.721,2.625-3.434,4.168-6.058,3.447"/>
		<path fill="none" stroke="#000000" stroke-linecap="round" stroke-linejoin="round" stroke-miterlimit="10" d="M208.531,155.084
			c-1.096-1.577-1.211-3.721-0.121-5.447c1.453-2.302,4.497-2.989,6.799-1.536"/>
		<path fill="none" stroke="#000000" stroke-linecap="round" stroke-linejoin="round" stroke-miterlimit="10" d="M203.529,178.598
			c1.173-1.06,1.172-1.989,1.172-1.989"/>
		<path fill="#FFDB6D" d="M217.935,159.542c-0.184,0.495-0.231,1.068,0.011,1.537c0.276,0.535,0.878,0.834,1.473,0.925
			c1.698,0.26,4.59-1.682,3.289-3.604C221.475,156.578,218.564,157.851,217.935,159.542z"/>
		<path fill="#FFDB6D" d="M209.133,160.255c-0.601,0.055-1.2-0.081-1.794-0.186c-0.594-0.105-1.215-0.179-1.792-0.004
			c-0.577,0.175-1.099,0.66-1.14,1.262c-0.031,0.463,0.229,0.913,0.598,1.195c0.368,0.282,0.831,0.416,1.291,0.476
			c1.216,0.158,2.49-0.182,3.466-0.925c0.476-0.362,1.749-1.57,1.601-2.269C211.185,158.96,209.767,160.196,209.133,160.255z"/>
		<path fill="#FFDB6D" d="M210.066,151.59c-0.283,0.724-0.298,1.604,0.168,2.226c0.466,0.622,1.49,0.82,2.037,0.268
			c0.363-0.367,0.43-0.924,0.501-1.435c0.07-0.511,0.195-1.073,0.617-1.371c0.229-0.162,0.513-0.22,0.768-0.338
			c1.424-0.66-0.335-1.663-1.176-1.555C211.715,149.548,210.536,150.387,210.066,151.59z"/>
		<path fill="#FFDB6D" d="M220.327,141.195c-0.508,0.045-1.027,0.155-1.442,0.45c-0.415,0.295-0.704,0.812-0.609,1.313
			c0.098,0.517,0.572,0.891,1.07,1.06c0.499,0.169,1.035,0.18,1.556,0.257c0.521,0.077,1.062,0.24,1.412,0.633
			c0.203,0.228,0.326,0.516,0.495,0.771c0.169,0.255,0.413,0.492,0.717,0.521c0.377,0.037,0.707-0.252,0.924-0.562
			c0.651-0.927,0.819-2.843-0.152-3.669C223.406,141.21,221.431,141.096,220.327,141.195z"/>
		<path fill="#FFDB6D" d="M229.739,137.753c-0.575,0.362-1.095,0.862-1.311,1.506c-0.216,0.644-0.057,1.442,0.497,1.835
			c0.603,0.428,1.439,0.268,2.121-0.019s1.347-0.689,2.086-0.704c0.553-0.011,1.151,0.192,1.633-0.079
			c1.056-0.594,0.414-2.505-0.438-3.001C233.023,136.533,230.926,137.006,229.739,137.753z"/>
		<path fill="#FFDB6D" d="M230.133,147.408c-0.604,0.38-1.146,1.029-1.035,1.734c0.113,0.718,0.852,1.172,1.563,1.326
			c0.856,0.185,1.772,0.074,2.559-0.31c1.145-0.56,1.899-2.172,0.678-3.11C232.935,146.308,231.03,146.844,230.133,147.408z"/>
		<path fill="#FFDB6D" d="M232.481,154.626c-0.26,0.043-0.527,0.102-0.743,0.252c-0.217,0.15-0.375,0.414-0.327,0.673
			c0.066,0.358,0.46,0.543,0.81,0.64c0.727,0.202,1.503,0.273,2.236,0.096c0.742-0.179,2.718-1.405,1.711-2.299
			c-0.479-0.425-0.992-0.035-1.449,0.148C233.989,154.429,233.25,154.498,232.481,154.626z"/>
		<path fill="#FFDB6D" d="M228.795,160.208c-0.326-0.019-0.68,0.07-0.889,0.321c-0.285,0.341-0.205,0.883,0.075,1.228
			c0.28,0.345,0.71,0.531,1.135,0.663c0.942,0.292,3.612,0.412,3.466-1.228c-0.064-0.724-0.524-0.632-1.096-0.624
			C230.543,160.582,229.713,160.261,228.795,160.208z"/>
		<path fill="#FFDB6D" d="M224.69,166.55c-0.216,0.417-0.317,0.922-0.141,1.357c0.183,0.453,0.64,0.754,1.118,0.859
			c0.897,0.197,1.912-0.287,2.281-1.128c0.326-0.742,0.038-2.141-0.815-2.469C226.249,164.828,225.061,165.835,224.69,166.55z"/>
		<path fill="#FFDB6D" d="M214.217,170.196c-0.386,0.301-0.449,0.89-0.261,1.343c0.188,0.452,0.572,0.792,0.966,1.083
			c1.005,0.742,2.176,1.204,3.436,0.926c0.882-0.195,1.837-0.757,1.656-1.805c-0.197-1.138-1.349-0.875-2.222-1.004
			C216.864,170.602,215.071,169.531,214.217,170.196z"/>
		<path fill="#FFDB6D" d="M194.121,161.394c-0.303,0.519-0.5,1.126-0.409,1.721c0.126,0.829,0.82,1.508,1.625,1.74
			c0.805,0.232,1.691,0.061,2.428-0.338c1.327-0.719,3.177-3.404,1.731-4.803C197.922,158.191,195,159.889,194.121,161.394z"/>
		<path fill="#FFDB6D" d="M205.169,149.737c-0.19,0.448-0.28,0.941-0.531,1.357c-0.251,0.417-0.744,0.752-1.209,0.611
			c-0.505-0.154-0.711-0.814-0.533-1.311c0.178-0.497,0.625-0.846,1.083-1.109c0.541-0.31,1.172-0.583,1.799-0.608
			C205.728,149.068,205.335,149.344,205.169,149.737z"/>
		<path fill="#FFDB6D" d="M194.277,174.279c-0.726-0.179-1.324-0.798-1.478-1.53c-0.053-0.252-0.07-0.54-0.265-0.709
			c-0.223-0.194-0.576-0.128-0.827,0.029c-0.683,0.427-0.884,1.404-0.57,2.146c0.315,0.742,1.041,1.249,1.813,1.477
			s1.595,0.212,2.399,0.159c-0.324,0.799,0.206,1.751,0.973,2.145c0.767,0.394,1.685,0.348,2.531,0.18
			c0.464-0.092,1.028-0.358,0.988-0.829c-0.025-0.297-0.305-0.515-0.592-0.592c-0.287-0.077-0.591-0.052-0.888-0.076
			c-0.868-0.071-1.657-0.64-2.075-1.393c-0.16-0.288-0.202-0.944-0.495-1.096C195.447,174.012,194.717,174.387,194.277,174.279z"/>
		<path fill="#FFDB6D" d="M202.766,172.337c-0.406,0.107-0.789,0.443-0.792,0.863c-0.003,0.447,0.402,0.785,0.802,0.986
			c0.803,0.404,1.742,0.53,2.624,0.368c0.576-0.106,1.97-0.496,1.996-1.242c0.025-0.718-0.936-0.991-1.477-1.018
			C205.026,172.25,203.624,172.11,202.766,172.337z"/>
	</g>
	<g>
		<path fill="#FFC03B" d="M89,73.392c0,0-0.02,8.79-10.3,8.65c0,0-0.04,0.12-0.14,0.32c-0.4,0.9-1.73,3.48-4.31,4.94
			c-1.38,0.8-3.13,1.26-5.29,0.98c0,0-0.9,6.47-6.66,5.21c0,0-1.36,6.58-6.48,2.9c0,0-2.13,10.5-10.51,5.96
			c-4.17-2.84,1.68-10.43,1.68-10.43s-2.61-9.11,5.62-11.54c0,0-0.84-7.48,7.21-8.67c0,0,1.61-4.13,5.4-5.08h0.03
			c1.07-0.26,2.32-0.26,3.76,0.16c0,0,0.36-0.92,1.13-1.92c1.28-1.65,3.67-3.51,7.38-1.69c0,0,3.45-4.96,7.71-1.65
			c0.05,0.02,0.09,0.06,0.14,0.1c0,0,4.01-2.5,7.81,0.04c0.76,0.52,1.52,1.24,2.24,2.23C96.59,66.052,96.26,70.772,89,73.392z"/>
		<path fill="#EEA500" d="M53.011,90.493c1.125-2.616,3.846-4.466,6.693-4.55c-2.216-1.512-3.048-4.743-1.838-7.138
			c-0.517,1.024-0.985,1.924-1.857,2.708c-0.706,0.635-2.22,1.021-2.363,1.944c-0.151,0.972,0.659,2.365,0.59,3.478
			C54.157,88.202,53.746,89.454,53.011,90.493z"/>
		<path fill="#EEA500" d="M78.56,82.362c-0.4,0.9-1.73,3.48-4.31,4.94c-1.37,0.62-2.94,0.83-4.35,0.36
			c2.14,0.21,4.31-1.41,4.71-3.52c0.34-1.84-0.7-3.84-2.35-4.69c-1.08-0.56-2.19-0.5-3.33-0.17c-0.66,0.18-1.32,0.61-2.02,0.44
			c0.59-2.08,2.61-1.55,4.23-1.74c1.88-0.23,3.32-1.06,4.82-2.15c-1.03,0.75-1.24,2.29-0.74,3.46s1.56,2.01,2.68,2.61
			C78.13,82.032,78.38,82.172,78.56,82.362z"/>
		<path fill="#EEA500" d="M68.35,68.912c-0.29,1.44,0,2.99,0.77,4.24c-0.81-0.57-1.03-1.67-1.11-2.67
			c-0.08-0.99-0.12-2.07-0.75-2.84c-0.49-0.6-1.22-0.88-2.01-1.01c1.07-0.26,2.32-0.26,3.76,0.16c0,0,0.36-0.92,1.13-1.92
			c0.11,0.12,0.18,0.25,0.2,0.41c0.06,0.42-0.91,1.19-1.15,1.56C68.78,67.472,68.49,68.172,68.35,68.912z"/>
		<path fill="#EEA500" d="M93.18,61.672c-0.27,0.09-0.59,0.1-0.87,0.11c-2.24,0.08-4.43,1.05-5.99,2.66
			c-1.56,1.6-2.47,3.82-2.48,6.06c-1.6-1.17-4.12-0.77-5.27,0.85c-0.28-1.65,0.91-3.19,2.24-4.21c1.33-1.01,2.89-1.79,3.88-3.13
			c0.56-0.76,0.58-1.64,0.54-2.48c0.05,0.02,0.09,0.06,0.14,0.1C85.37,61.632,89.38,59.132,93.18,61.672z"/>
		<path fill="none" stroke="#000000" stroke-linecap="round" stroke-linejoin="round" stroke-miterlimit="10" d="M55.823,96.388
			c0,0-2.135,10.508-10.517,5.967c-4.17-2.846,1.69-10.436,1.69-10.436s-2.61-9.106,5.614-11.537c0,0-0.835-7.48,7.209-8.674
			c0,0,2.663-6.841,9.19-4.916c0,0,2.577-6.529,8.509-3.615c0,0,3.535-5.072,7.849-1.551c0,0,5.796-3.62,10.051,2.278
			c1.172,2.144,0.842,6.866-6.42,9.489c0,0-0.012,8.79-10.3,8.644c0,0-2.649,7.169-9.732,6.239c0,0-0.901,6.475-6.667,5.216
			C62.297,93.493,60.942,100.076,55.823,96.388z"/>
		<path fill="none" stroke="#000000" stroke-linecap="round" stroke-linejoin="round" stroke-miterlimit="10" d="M65.908,85.937
			c0,0-1.13-4.416,2.697-7.27"/>
		<path fill="none" stroke="#000000" stroke-linecap="round" stroke-linejoin="round" stroke-miterlimit="10" d="M84.397,65.595
			c-3.309,4.348,1.336,9.384,4.598,7.799"/>
		<path fill="none" stroke="#000000" stroke-linecap="round" stroke-linejoin="round" stroke-miterlimit="10" d="M57.969,79.334
			c0,0-2.429,4.274,1.88,6.491c0,0-5.688,0.273-6.053,5.207"/>
		<path fill="none" stroke="#000000" stroke-linecap="round" stroke-linejoin="round" stroke-miterlimit="10" d="M78.696,82.038
			c-1.867,0.132-4.257-2.534-2.863-5.782"/>
		<path fill="#FFDB6D" d="M71.139,81.893c-0.648-0.362-1.484-0.402-2.132-0.039c-0.648,0.362-1.059,1.14-0.927,1.87
			c0.167,0.922,1.099,1.539,2.025,1.684c0.858,0.134,2.935-0.173,3.201-1.239C73.544,83.217,71.832,82.28,71.139,81.893z"/>
		<path fill="#FFDB6D" d="M69.293,68.877c-0.316,0.854-0.268,1.862,0.234,2.621c0.502,0.759,1.485,1.206,2.365,0.975
			c0.814-0.213,1.406-0.926,1.773-1.683c0.637-1.311,2.228-3.898,0.181-4.624C72.088,65.542,69.873,67.312,69.293,68.877z"/>
		<path fill="#FFDB6D" d="M60.05,79.605c-0.287,0.566-0.443,1.283-0.096,1.814c0.324,0.496,1.005,0.664,1.582,0.528
			c1.385-0.325,3.722-2.615,2.469-4.112C62.774,76.366,60.636,78.451,60.05,79.605z"/>
		<path fill="#FFDB6D" d="M62.314,71.64c-0.125,0.21-0.238,0.437-0.247,0.681c-0.009,0.244,0.111,0.507,0.337,0.599
			c0.196,0.08,0.418,0.018,0.62-0.045c0.957-0.296,5.961-1.42,3.582-3.346C65.24,68.425,62.933,70.605,62.314,71.64z"/>
		<path fill="#FFDB6D" d="M86.067,68.63c0.364,0.694,1.213,0.996,1.997,1.02c2.356,0.074,8.503-3.851,4.252-5.606
			C89.945,63.065,84.392,65.439,86.067,68.63z"/>
		<path fill="#FFDB6D" d="M81.021,74.113c-0.273,0.532-0.284,1.19-0.03,1.731c0.187,0.397,0.499,0.719,0.747,1.08
			c0.248,0.362,0.438,0.808,0.328,1.232c-0.101,0.393-0.447,0.688-0.83,0.821c-0.383,0.132-0.8,0.125-1.204,0.082
			c-0.647-0.069-1.297-0.229-1.849-0.574c-0.552-0.345-0.999-0.893-1.12-1.532c-0.142-0.751,0.169-1.514,0.549-2.177
			c0.478-0.835,1.105-1.625,1.964-2.058c0.459-0.231,1.768-0.598,2.195-0.124C82.377,73.263,81.347,73.478,81.021,74.113z"/>
		<path fill="#FFDB6D" d="M56.421,90.262c-0.494,1.227-0.106,2.753,0.914,3.595c0.574,0.474,1.37,0.734,2.079,0.509
			c0.714-0.227,1.214-0.903,1.421-1.622c0.346-1.201,0.393-3.832-1.073-4.39C58.481,87.866,56.87,89.145,56.421,90.262z"/>
		<path fill="#FFDB6D" d="M48.518,88.073c0.021,0.347,0.085,0.709,0.301,0.981c0.216,0.273,0.622,0.42,0.925,0.25
			c0.223-0.126,0.335-0.38,0.433-0.617c0.366-0.894,2.526-4.34,0.563-4.638C49.129,83.805,48.447,86.944,48.518,88.073z"/>
		<path fill="#FFDB6D" d="M48.043,97.053c0.595,0.505,1.465,0.577,2.219,0.375c0.754-0.202,1.419-0.641,2.065-1.078
			c0.245-0.165,0.518-0.339,0.812-0.307c0.337,0.037,0.589,0.341,0.697,0.662c0.2,0.594,0.016,1.265-0.339,1.781
			c-0.356,0.516-0.865,0.903-1.377,1.265c-0.904,0.638-1.911,1.245-3.018,1.253c-1.382,0.009-2.696-1.056-2.974-2.41
			c-0.2-0.974,0.239-2.738,1.314-2.994C47.47,96.128,47.62,96.693,48.043,97.053z"/>
	</g>
	<g>
		<path fill="#FFC03B" d="M199.53,92.132c-6.97,1.82-8.25-5.78-8.25-5.78c-7.5,4.5-9.33-2.58-9.33-2.58c-4.71,0-5.67-4.17-5.67-4.17
			c-6.43,1.71-9.54-3.11-9.54-3.11c-4.82,3.11-10.5-2.95-10.5-2.95c-0.19,0.1-0.38,0.19-0.57,0.27l-0.01,0.01
			c-4.47,2-7.72,0.06-9.61-1.82c-1.26-1.25-1.92-2.48-1.92-2.48c-1.71,5.25-7.28,2.79-7.28,2.79c-6.65,3.75-8.9-2.25-8.9-2.25
			s-4.17,2.57-7.07-1.82c-1.22-1.86-0.82-3.54,0.06-4.87c1.19-1.81,3.26-2.95,3.26-2.95c-0.62-2.44,0.09-4.08,1.29-5.18
			c2.34-2.13,6.54-2.22,6.54-2.22c3.32-6.64,7.82-1.92,7.82-1.92c6.64-5.25,12.21,0.24,12.21,0.24c0.21-0.15,0.4-0.29,0.61-0.4
			l0.02-0.01c0.05-0.04,0.1-0.07,0.16-0.1h0.01c6.09-3.56,13.45,1.98,13.45,1.98c7.93-4.61,12.22,3.11,12.22,3.11
			c8.25-1.18,9.1,6.75,9.1,6.75c6.65-1.29,6.97,5.78,6.97,5.78c8.03,2.04,4.18,8.9,4.18,8.9c2.78,3.42-0.33,5.67-0.33,5.67
			C201.45,84.742,202.95,91.062,199.53,92.132z"/>
		<path fill="#EEA500" d="M152.51,51.182c-0.76,1.21-1.05,2.72-0.68,4.11c-2.24-0.03-4.41,1.5-5.12,3.63
			c-0.95-2.51-3.01-3.9-5.43-4.76c2.48,0.15,4.77,0.25,7.2-0.62c1.2-0.43,2.34-1.02,3.37-1.76
			C152.08,51.622,152.3,51.412,152.51,51.182z"/>
		<path fill="#EEA500" d="M152.85,50.832c-0.11,0.12-0.22,0.24-0.34,0.35c0.05-0.08,0.11-0.16,0.16-0.24l0.02-0.01
			C152.74,50.892,152.79,50.862,152.85,50.832z"/>
		<path fill="#EEA500" d="M160.31,67.142c-1.31,0.24-2.66,0.5-3.74,1.28c-1.09,0.79-1.81,2.27-1.3,3.52
			c0.22,0.55,0.67,1.08,0.5,1.65c-0.02,0.08-0.06,0.15-0.1,0.22l-0.01,0.01c-4.47,2-7.72,0.06-9.61-1.82
			c2.59,0.54,5.44-0.13,7.48-1.84c0.93-0.79,1.68-1.78,2.22-2.88c0.5-1.03,0.41-2.36,0.88-3.32
			C157.83,61.492,159.17,67.142,160.31,67.142z"/>
		<path fill="#EEA500" d="M174.582,69.299c-1.203,1.576-3.15,2.557-5.133,2.586c-0.358,2.472-2.325,4.631-4.752,5.219
			c2.132-0.431,3.576-2.392,5.48-3.444c1.258-0.694,2.694-0.978,4.049-1.454c1.355-0.477,2.718-1.227,3.382-2.501
			c0.53-1.016,0.538-2.249,0.214-3.349c-0.256-0.868-1.093-2.875-1.881-1.252c-0.254,0.524-0.116,1.47-0.293,2.071
			C175.424,67.94,175.066,68.665,174.582,69.299z"/>
		<path fill="#EEA500" d="M128.1,62.282c-2-0.48-3.93-0.07-5.87,0.78c-0.47,0.21-0.9,0.31-1.29,0.31c1.19-1.81,3.26-2.95,3.26-2.95
			c-0.62-2.44,0.09-4.08,1.29-5.18c-0.48,1.05-0.63,2.25-0.38,3.38C125.47,60.212,126.63,61.592,128.1,62.282z"/>
		<path fill="#EEA500" d="M129.31,62.672c-0.42-0.08-0.83-0.21-1.21-0.39C128.5,62.372,128.91,62.502,129.31,62.672z"/>
		<path fill="none" stroke="#000000" stroke-linecap="round" stroke-linejoin="round" stroke-miterlimit="10" d="M124.204,60.42
			c0,0-6.214,3.429-3.321,7.821c2.893,4.393,7.071,1.821,7.071,1.821s2.25,6,8.893,2.25c0,0,5.571,2.464,7.286-2.786
			c0,0,4.286,8.037,12.107,4.019c0,0,5.679,6.053,10.5,2.946c0,0,3.107,4.821,9.536,3.107c0,0,0.964,4.179,5.679,4.179
			c0,0,1.821,7.071,9.321,2.571c0,0,1.286,7.607,8.25,5.786c3.429-1.071,1.929-7.393-1.071-9.107c0,0,3.107-2.25,0.321-5.679
			c0,0,3.857-6.857-4.179-8.893c0,0-0.321-7.071-6.964-5.786c0,0-0.857-7.929-9.107-6.75c0,0-4.286-7.714-12.214-3.107
			c0,0-8.036-6.042-14.25-1.467c0,0-5.571-5.497-12.214-0.247c0,0-4.5-4.714-7.821,1.929
			C132.026,53.027,122.383,53.241,124.204,60.42z"/>
		<path fill="none" stroke="#000000" stroke-linecap="round" stroke-linejoin="round" stroke-miterlimit="10" d="M127.954,70.063
			c-1.446-2.25,2.089-6.857,5.411-5.357"/>
		<path fill="none" stroke="#000000" stroke-linecap="round" stroke-linejoin="round" stroke-miterlimit="10" d="M156.24,73.546
			c-2.304-2.519,0.482-6.537,3-6.537"/>
		<path fill="none" stroke="#000000" stroke-linecap="round" stroke-linejoin="round" stroke-miterlimit="10" d="M170.383,71.455
			c0,0,8.25-1.714,4.232-9.536"/>
		<path fill="none" stroke="#000000" stroke-linecap="round" stroke-linejoin="round" stroke-miterlimit="10" d="M178.311,58.92
			c0.589,1.5,0.279,4.604-2.834,5.195"/>
		<path fill="none" stroke="#000000" stroke-linecap="round" stroke-linejoin="round" stroke-miterlimit="10" d="M180.668,73.546
			c0,0,6.589-3.804,8.357,3.749"/>
		<path fill="none" stroke="#000000" stroke-linecap="round" stroke-linejoin="round" stroke-miterlimit="10" d="M131.972,59.08
			c0,0,2.946-9.161,12-3.857"/>
		<path fill="none" stroke="#000000" stroke-linecap="round" stroke-linejoin="round" stroke-miterlimit="10" d="M146.168,64.411
			c0.214,0.009,6.422-8.134,12.571-0.634"/>
		<path fill="#FFDB6D" d="M151.459,68.518c-0.496,0.793-1.41,1.47-2.312,1.224c-0.938-0.255-1.378-1.424-1.152-2.369
			c0.226-0.945,0.929-1.696,1.64-2.358c0.707-0.658,3.876-3.081,4.274-1.087c0.145,0.725-0.665,1.389-1.018,1.89
			C152.295,66.665,152.004,67.646,151.459,68.518z"/>
		<path fill="#FFDB6D" d="M136.568,66.695c-0.021,0.934,0.522,1.909,1.407,2.21c0.958,0.325,2.126-0.306,2.379-1.285
			c0.25-0.967-0.046-3.757-1.313-3.971C137.668,63.415,136.594,65.597,136.568,66.695z"/>
		<path fill="#FFDB6D" d="M154.109,57.114c0.573,0.729,1.594,0.925,2.521,0.923c2.38-0.005,7.687-2.654,3.882-4.996
			C158.183,51.608,151.548,53.853,154.109,57.114z"/>
		<path fill="#FFDB6D" d="M169.413,55.027c-0.392,0.23-0.767,0.522-0.975,0.926c-0.208,0.404-0.212,0.939,0.088,1.28
			c0.183,0.208,0.448,0.32,0.704,0.425c1.222,0.502,2.445,1.004,3.667,1.507c2.49,1.023,3.577-1.874,2.27-3.727
			C173.986,53.764,170.929,54.139,169.413,55.027z"/>
		<path fill="#FFDB6D" d="M164.193,67.107c1.463,2.231,7.731,2.573,7.804-0.881c0.06-2.859-3.173-4.914-5.725-3.952
			C164.424,62.971,162.961,65.228,164.193,67.107z"/>
		<path fill="#FFDB6D" d="M162.573,73.032c0.302,0.146,0.602,0.325,0.795,0.6c0.193,0.274,0.254,0.665,0.067,0.944
			c-0.197,0.296-0.593,0.378-0.948,0.396c-0.753,0.037-1.514-0.109-2.2-0.422c-0.999-0.456-2.603-2.267-1.33-3.355
			c0.724-0.618,0.728,0.156,1.328,0.688C160.928,72.453,161.816,72.666,162.573,73.032z"/>
		<path fill="#FFDB6D" d="M180.011,77.204c-0.484,0.59-0.817,1.402-0.544,2.115c0.312,0.816,1.275,1.174,2.145,1.25
			c1.643,0.145,6.649-1.167,4.968-3.678C185.127,74.721,181.425,75.479,180.011,77.204z"/>
		<path fill="#FFDB6D" d="M188.064,64.856c-1.465,0.336-2.768,1.186-3.893,2.183c-0.258,0.228-0.516,0.477-0.638,0.799
			c-0.267,0.702,0.247,1.519,0.943,1.803s1.492,0.152,2.202-0.094s1.383-0.602,2.115-0.772c0.68-0.158,1.388-0.152,2.074-0.283
			c0.686-0.131,1.388-0.439,1.746-1.038C194.031,65.081,189.355,64.559,188.064,64.856z"/>
		<path fill="#FFDB6D" d="M195.993,75.166c0.668,1.684,2.693-0.932,2.216-2.174c-0.55-1.433-3.126-2.182-4.319-1.216
			c-0.351,0.284-0.526,0.827-0.276,1.203c0.467,0.701,1.831,0.26,2.213,1.011C196.008,74.347,195.846,74.795,195.993,75.166z"/>
		<path fill="#FFDB6D" d="M194.098,88.541c0.309,0.657,0.949,1.105,1.627,1.365c0.831,0.319,1.783,0.391,2.606,0.052
			c2.164-0.892,1.846-4.147-0.313-4.798C196.104,84.583,193.022,86.253,194.098,88.541z"/>
		<path fill="#FFDB6D" d="M137.613,59.879c-0.362,0.226-0.733,0.456-1.148,0.557c-0.415,0.101-0.89,0.053-1.212-0.228
			c-0.397-0.347-0.456-0.974-0.248-1.459s0.631-0.845,1.081-1.12c1.076-0.657,3.267-1.247,4.453-0.505
			c0.866,0.541,0.534,0.529-0.286,1.105C139.409,58.822,138.489,59.332,137.613,59.879z"/>
		<path fill="#FFDB6D" d="M122.898,66.096c0.135,0.712,0.699,1.36,1.416,1.465c0.703,0.102,1.403-0.324,1.808-0.908
			c0.405-0.584,0.565-1.301,0.668-2.003C127.369,60.688,122.354,63.217,122.898,66.096z"/>
	</g>
</g>
</svg>
