<?xml version="1.0" encoding="utf-8"?>
<!-- Generator: Adobe Illustrator 25.4.1, SVG Export Plug-In . SVG Version: 6.00 Build 0)  -->
<svg version="1.1" id="Camada_1" xmlns="http://www.w3.org/2000/svg" xmlns:xlink="http://www.w3.org/1999/xlink" x="0px" y="0px"
	 width="258.647px" height="298.299px" viewBox="0 0 258.647 298.299" enable-background="new 0 0 258.647 298.299"
	 xml:space="preserve">
<g>
	<path fill="#F1C3B3" d="M224.908,0.5H4.077c-4.133,21.785-9.632,75.548,15.358,148.242c0,0-3.853,21.847,4.711,39.403
		c0,0-10.28,40.69-11.567,109.654h167.471c0,0,0-26.987,3.003-32.126c2.417-4.159,23.589-39.088,32.748-53.238
		c14.483-10.858,40.042-32.161,41.977-72.694C261.413,63.746,237.254,18.45,224.908,0.5z"/>
	<path fill="#ECAD97" d="M257.779,139.741c-1.935,40.532-27.495,61.836-41.977,72.694c-9.159,14.15-30.331,49.078-32.748,53.238
		c-3.003,5.14-3.003,32.126-3.003,32.126h-17.11c0.131-7.863,0.683-24.938,3.038-28.957c2.487-4.264,21.216-33.291,30.612-47.8
		c14.859-11.147,48.483-40.497,50.47-82.08c0.735-15.367,0.219-29.491-1.182-42.406c-0.009-0.035-0.009-0.07-0.009-0.105
		c-5.201-47.966-22.617-79.208-33.807-95.451c-0.009-0.009-0.009-0.009-0.009-0.009l-0.333-0.49h13.187
		C237.254,18.45,261.413,63.746,257.779,139.741z"/>
	<g>
		<path fill="#F3D169" d="M245.879,96.555c-0.009-0.035-0.009-0.07-0.009-0.105c-2.601-55.068-25.428-85.907-33.807-95.451
			c-0.009-0.009-0.009-0.009-0.009-0.009c-0.149-0.175-0.298-0.333-0.429-0.49H8.788c-0.14,0.49-0.271,0.981-0.403,1.48
			C8.28,2.391,8.175,2.812,8.07,3.232C4.778,16.454,3.815,31.208,4.279,46.093c0.114,3.949,0.333,7.898,0.648,11.838
			c0.455,5.989,1.112,11.935,1.9,17.74c0.552,4.028,1.165,7.994,1.821,11.865c3.231,19.027,7.547,35.751,10.612,46.451
			c0.079,0.271,0.158,0.534,0.228,0.797c0.009,0.026,0.018,0.053,0.026,0.079c2.093,7.259,3.538,11.514,3.538,11.514
			c0.744,8.432-0.481,23.055,8.686,36.995c8.038,12.224,22.722,18.134,26.593,19.465c1.427,0.482,3.205,1.007,4.816,1.383
			c-0.044,0.07-0.061,0.105-0.061,0.105s23.125,21.181,70.084,9.063c0,0-0.123-0.184-0.342-0.499
			c2.758,1.06,4.842,3.152,4.842,3.152c12.241,3.126,14.185-1.436,14.474-3.31c0.359,0.377,0.709,0.727,1.042,1.033
			c2.82,1.918,6.698,0,6.698,0c0.053-0.63,0.053-1.313,0.035-2.023c0.307,0.35,0.561,0.569,0.561,0.569
			c2.854,2.504,5.297,3.975,7.259,4.833c0.026,0.009,0.053,0.026,0.079,0.035c0.228,0.096,0.447,0.184,0.657,0.263
			c0.981,0.377,1.821,0.595,2.513,0.709c0.088,0.018,0.175,0.035,0.254,0.044c0.166,0.026,0.324,0.044,0.464,0.061
			c0.131,0.009,0.245,0.018,0.359,0.026c0.832,0.044,1.269-0.061,1.269-0.061c0.351-0.044,0.71-0.096,1.06-0.149
			c0.227-0.026,0.455-0.061,0.674-0.096c0.044-0.009,0.087-0.009,0.131-0.026c0.192-0.018,0.377-0.053,0.561-0.088
			c0.254-0.035,0.499-0.079,0.744-0.123c0.394-0.061,0.779-0.131,1.165-0.21c0.666-0.123,1.322-0.263,1.979-0.412
			c0.359-0.079,0.709-0.158,1.068-0.245c0.368-0.088,0.736-0.175,1.095-0.271c0.088-0.017,0.175-0.044,0.263-0.07
			c0.385-0.096,0.77-0.201,1.156-0.315c0.683-0.184,1.366-0.385,2.04-0.595c0.438-0.131,0.876-0.271,1.304-0.42
			c1.226-0.403,2.434-0.849,3.643-1.322c0.534-0.21,1.068-0.429,1.602-0.657c0.49-0.21,0.981-0.42,1.471-0.648
			c0.464-0.21,0.928-0.42,1.384-0.639c0.035-0.018,0.062-0.026,0.097-0.044c0.481-0.228,0.954-0.464,1.427-0.709
			c0.394-0.201,0.788-0.403,1.182-0.613c0.639-0.333,1.278-0.683,1.909-1.042c0.28-0.166,0.552-0.324,0.823-0.482
			c0.307-0.175,0.613-0.359,0.92-0.552c0.385-0.228,0.77-0.464,1.147-0.709c0.35-0.219,0.7-0.447,1.05-0.674
			c0.455-0.298,0.911-0.604,1.366-0.919c0.455-0.307,0.902-0.622,1.348-0.946c0.446-0.324,0.893-0.648,1.331-0.981
			c0.455-0.333,0.902-0.683,1.348-1.033c2.172-1.707,4.273-3.555,6.304-5.551c0.831-0.81,1.645-1.649,2.449-2.504
			c0.094-0.099,0.188-0.197,0.281-0.297c0.791-0.849,1.569-1.72,2.334-2.611c0.074-0.086,0.147-0.172,0.22-0.258
			c13.798-16.201,23.227-39.359,25.293-68.354C246.186,114.041,246.273,105.014,245.879,96.555z"/>
		<g>
			<path opacity="0.2" fill="#FD9B00" enable-background="new    " d="M243.927,137.201c-4.194,26.05-14.737,46.548-29.001,60.479
				c-2.031,1.979-4.133,3.826-6.304,5.551c-0.447,0.35-0.893,0.7-1.348,1.033c-0.438,0.333-0.885,0.657-1.331,0.981
				c-0.446,0.324-0.893,0.639-1.348,0.946c-0.455,0.315-0.911,0.622-1.366,0.919c-0.35,0.228-0.7,0.455-1.05,0.674
				c-0.377,0.245-0.762,0.482-1.147,0.709c-0.307,0.193-0.613,0.377-0.92,0.552c-0.271,0.158-0.543,0.315-0.823,0.482
				c-0.63,0.359-1.269,0.709-1.909,1.042c-0.394,0.21-0.788,0.412-1.182,0.613c-0.473,0.245-0.946,0.482-1.427,0.709
				c-0.035,0.018-0.062,0.026-0.097,0.044c-0.455,0.219-0.919,0.429-1.384,0.639c-0.49,0.228-0.98,0.438-1.471,0.648
				c-0.534,0.228-1.068,0.447-1.602,0.657c-1.208,0.473-2.417,0.919-3.643,1.322c-0.429,0.149-0.867,0.289-1.304,0.42
				c-0.674,0.21-1.357,0.412-2.04,0.595c-0.385,0.114-0.77,0.219-1.156,0.315c-0.088,0.026-0.175,0.053-0.263,0.07
				c-0.359,0.096-0.727,0.184-1.095,0.271c-0.359,0.088-0.709,0.166-1.068,0.245c-0.657,0.149-1.313,0.289-1.979,0.412
				c-0.385,0.079-0.77,0.149-1.165,0.21c-0.245,0.044-0.49,0.088-0.744,0.123c-0.228,0.044-0.464,0.079-0.692,0.114
				c-0.219,0.035-0.447,0.07-0.674,0.096c-0.35,0.053-0.709,0.105-1.06,0.149c0,0-0.438,0.105-1.269,0.061
				c-0.114-0.009-0.228-0.018-0.359-0.026c-0.14-0.018-0.298-0.035-0.464-0.061c-0.079-0.009-0.166-0.026-0.254-0.044
				c-0.692-0.114-1.532-0.333-2.513-0.709c-0.21-0.079-0.429-0.166-0.657-0.263c-0.026-0.009-0.053-0.026-0.079-0.035
				c-1.962-0.858-4.405-2.329-7.259-4.833c0,0-0.254-0.219-0.561-0.569c0.018,0.709,0.018,1.392-0.035,2.023
				c0,0-3.879,1.918-6.698,0c-0.333-0.306-0.683-0.657-1.042-1.033c-0.289,1.874-2.233,6.436-14.474,3.31
				c0,0-2.084-2.093-4.842-3.152c0.219,0.315,0.342,0.499,0.342,0.499c-46.96,12.119-70.084-9.063-70.084-9.063
				s0.018-0.035,0.061-0.105c-1.611-0.377-3.389-0.902-4.816-1.383c-3.87-1.331-18.554-7.241-26.593-19.465
				c-9.167-13.94-7.942-28.563-8.686-36.995c0,0-1.445-4.256-3.538-11.514c-0.009-0.026-0.017-0.053-0.026-0.079
				c-0.07-0.263-0.149-0.525-0.228-0.797c-3.065-10.7-7.381-27.424-10.612-46.451c-0.657-3.87-1.27-7.837-1.821-11.865
				c-0.788-5.805-1.445-11.751-1.9-17.74c-0.315-3.94-0.534-7.889-0.648-11.838C3.815,31.208,4.778,16.454,8.07,3.232
				c0.105-0.42,0.21-0.841,0.315-1.252C8.517,1.481,8.648,0.99,8.788,0.5h4.615c-0.307,0.639-0.595,1.296-0.867,1.953
				C9.962,8.678,8.42,15.324,7.597,22.032c-0.377,3.056-0.604,6.129-0.718,9.176c-0.175,4.851,0.175,9.676,0.762,14.492
				c0.534,4.352,1.269,8.695,1.979,13.038c0.569,3.459,1.13,6.909,1.576,10.367c0.184,1.427,0.351,2.863,0.482,4.29
				c0.289,3.047,0.333,6.121,0.359,9.185c0.035,4.457,0.018,8.905,0.648,13.318c1.007,7.075,3.87,13.703,7.215,19.964
				c3.345,6.261,7.39,12.119,11.313,18.047c0.981,1.471,1.944,2.942,2.898,4.431c0,0,0,0.009,0,0.018
				c1.725,2.688,3.38,5.429,4.895,8.24c0.919,1.716,1.786,3.459,2.592,5.245c0.928,2.066,1.751,4.22,2.583,6.383
				c2.61,6.734,5.359,13.467,11.874,17.337c1.173,0.7,2.425,1.27,3.721,1.725c4.343,1.576,9.211,1.979,13.729,2.312
				c0.359,0.018,0.7,0.044,1.051,0.07c2.627,0.193,5.306,0.219,7.986,0.219c0.56,0.009,1.129,0.009,1.69,0.009
				c1.646,0.009,3.292,0.018,4.93,0.07c7.662-1.217,15.577-5.683,22.083-18.773l3.371-10.315l11.926,0.981l12.836,1.06l2.215,1.813
				l3.739,3.056l1.742,1.427l1.445,1.173l10.595,8.66l3.424,2.793l5.525,4.518l19.684,16.085c0,0-3.091,9.702,8.178,10.218
				c2.277,0.105,5.402-1.068,9.045-3.52c1.821-1.226,3.774-2.784,5.814-4.667c4.746-4.361,9.947-10.49,15.078-18.397
				c2.084-3.214,4.151-6.725,6.164-10.525C236.344,157.446,240.424,148.007,243.927,137.201z"/>
			<path fill="#FFC13B" d="M24.12,0.5c-0.666,1.524-1.287,3.047-1.927,4.466c-2.303,5.087-4.615,10.656-8.555,14.737
				c-1.506,1.559-3.502,2.776-5.744,2.391c-0.105-0.018-0.202-0.035-0.298-0.061c-0.946-0.201-1.795-0.604-2.513-1.147
				C5.723,14.738,6.696,8.818,8.07,3.232c0.105-0.42,0.21-0.841,0.315-1.252C8.517,1.481,8.648,0.99,8.788,0.5H24.12z"/>
			<path fill="#FFC13B" d="M4.75,57.854c-0.258-3.919-0.441-7.841-0.531-11.742c1.172-0.475,2.505-0.612,3.974-0.32
				c2.796,0.553,5.353,2.665,6.253,5.381c1.167,3.521-1.946,7.431-5.468,7.647C7.565,58.907,6.111,58.529,4.75,57.854z"/>
			<path fill="#FFC13B" d="M8.048,87.807c-0.616-4.114-1.185-8.306-1.684-12.549c2.643,2.254,4.481,5.683,4.291,9.116
				C10.554,86.172,9.496,87.27,8.048,87.807z"/>
			<path fill="#FFC13B" d="M33.174,97.92c2.957,3.894,1.03,13.165-4.991,12.082c-5.536-0.994-8.958-7.932-7.629-13.149
				c0.488-0.464,1.064-0.884,1.748-1.241C25.788,93.793,30.786,94.772,33.174,97.92z"/>
			<path fill="#FFC13B" d="M240.008,124.046c2.957,3.894,1.03,13.165-4.991,12.082c-5.536-0.994-8.958-7.932-7.629-13.149
				c0.488-0.464,1.064-0.884,1.748-1.241C232.621,119.919,237.619,120.898,240.008,124.046z"/>
			<path fill="#FFC13B" d="M231.225,164.075c2.957,3.894,1.03,13.165-4.991,12.082c-5.536-0.994-8.958-7.932-7.629-13.149
				c0.488-0.464,1.064-0.884,1.748-1.241C223.839,159.948,228.837,160.926,231.225,164.075z"/>
			<path fill="#FFC13B" d="M213.651,5.488c2.957,3.894,1.03,13.165-4.991,12.082c-5.536-0.994-8.958-7.932-7.629-13.149
				c0.488-0.464,1.064-0.884,1.748-1.241C206.265,1.361,211.263,2.339,213.651,5.488z"/>
			<path fill="#FFC13B" d="M72.296,173.079c2.957,3.894,1.03,13.165-4.991,12.082c-5.536-0.994-8.958-7.932-7.629-13.149
				c0.488-0.464,1.064-0.884,1.748-1.241C64.91,168.953,69.908,169.931,72.296,173.079z"/>
			<path fill="#FFC13B" d="M43.611,149.519c2.957,3.894,1.03,13.165-4.991,12.082c-5.536-0.994-8.958-7.932-7.629-13.149
				c0.488-0.464,1.064-0.884,1.748-1.241C36.225,145.392,41.223,146.37,43.611,149.519z"/>
			<path fill="#FFC13B" d="M20.465,72.027c2.957,3.894,1.03,13.165-4.991,12.082c-5.536-0.994-8.958-7.932-7.629-13.149
				c0.488-0.464,1.064-0.884,1.748-1.241C13.079,67.9,18.077,68.879,20.465,72.027z"/>
			<path fill="#FFC13B" d="M19.229,134.03c1.11-1.577,2.654-2.702,4.811-2.908c3.722-0.352,7.436,2.301,9.305,5.344
				c2.488,4.049-0.523,8.677-5.467,7.449C23.915,142.93,20.663,138.493,19.229,134.03z"/>
			<path fill="#FFC13B" d="M71.806,198.05c0.112,0.499,0.128,0.983,0.068,1.435c-0.846,0.452-1.128,0.628-2.953,0.026
				c-1.893-0.624-2.431,0.49-2.301,1.868c-1.213-0.844-2.146-2.215-2.832-3.404c-0.948-1.64-1.771-4.115-1.759-6.382
				C66.447,188.936,70.789,193.468,71.806,198.05z"/>
			<path fill="#FFC13B" d="M91.005,184.209c-1.391,1.578-2.437,2.902-2.882,3.829c-0.413,0.868-0.692,1.842-0.892,2.86
				c-0.106-0.017-0.21-0.035-0.318-0.06c-4.418-1.006-6.5-7.608-4.236-11.195C85.866,179.978,88.884,181.431,91.005,184.209z"/>
			<path fill="#FFC13B" d="M96.44,162.621c2.493,0.35,4.622,1.81,6.25,4.418c0.55,0.879,0.968,1.912,1.105,2.947
				c-1.18,1.497-2.493,3.025-3.848,4.538c-1.396-0.054-2.836-0.725-3.821-1.571c-2.352-2.023-4.062-7.572-0.321-9.146
				C96.33,163.587,96.509,163.072,96.44,162.621z"/>
			<path fill="#FFC13B" d="M207.621,201.662c-1.25-0.708-2.293-1.79-2.97-3.044c-1.14-2.114-0.095-3.869,1.508-5.076
				c0.008,0,0.014,0,0.023-0.001c2.338,0.042,5.042,0.806,7.075,2.261C211.472,197.865,209.592,199.82,207.621,201.662z"/>
			<path fill="#FFC13B" d="M167.74,217.142c-1.479-0.915-2.323-2.168-1.513-3.704c0.412-0.78-0.286-1.498-0.948-1.484
				c0.273-0.095,0.556-0.18,0.855-0.25c3.056-0.71,6.523,0.279,9.08,1.981c1.41,0.939,2.498,2.7,1.822,3.935
				c-1.219,0.235-2.451,0.443-3.704,0.603C173.333,218.224,171.332,218.709,167.74,217.142z"/>
			<path fill="#FFC13B" d="M232.842,129.87c1.798,3.065-2.611,3.963-4.767,3.655c-2.77-0.395-5.919-2.377-7.449-5
				c1.382-2.077,3.47-3.203,6.207-2.713C229.215,126.239,231.61,127.769,232.842,129.87z"/>
			<path fill="#FFC13B" d="M199.649,118.633c0.279-0.763,0.545-1.472,0.798-2.155c0.155-0.167,0.323-0.334,0.527-0.497
				c0.064-0.053,0.118-0.109,0.16-0.167c0.606-0.396,1.309-0.635,2.138-0.615c1.892,0.046,3.58,1.601,4.454,3.159
				c0.876,1.565,0.605,3.174-1.2,3.767C203.953,122.969,199.955,121.035,199.649,118.633z"/>
			<path fill="#FFC13B" d="M184.885,55.191c1.401,2.011,0.754,3.945-2.016,3.455c-2.127-0.376-5.56-2.883-6.58-5.524
				c0.678-0.849,1.601-1.422,2.881-1.439C181.423,51.654,183.66,53.435,184.885,55.191z"/>
			<path fill="#FFC13B" d="M201.135,39.71c0.738,2.188-0.758,4.007-3.031,4.003c-2.662-0.007-5.458-2.976-6.246-5.648
				c1.248-1.664,2.957-2.889,5.201-2.342C198.959,36.186,200.525,37.905,201.135,39.71z"/>
			<path fill="#FFC13B" d="M211.153,25.659c0.34-0.072,0.541-0.266,0.638-0.504c1.272,3.736,2.609,7.743,3.984,11.946
				c-1.401-0.088-2.777-0.396-4.063-0.981C208.036,34.451,206.273,26.709,211.153,25.659z"/>
			<path fill="#FFC13B" d="M190.689,10.352c-1.526-1.622-0.859-3.811,0.307-5.38c0.135-0.183,0.189-0.365,0.187-0.532
				c2.116,0.309,4.129,1.076,5.476,2.169c2.273,1.846,0.366,4.642-1.966,5.286C193.196,12.31,191.665,11.388,190.689,10.352z"/>
			<path fill="#FFC13B" d="M167.643,0.5c-0.061,0.044-0.114,0.07-0.175,0.096c-0.21,0.114-0.42,0.219-0.613,0.306
				c-1.769,0.832-8.782,2.425-9.089-0.403H167.643z"/>
			<path fill="#FFC13B" d="M143.904,6.225c1.022,1.333,0.717,3.018,0.062,4.439c-1.091,2.365-3.571,2.888-5.946,2.687
				c-3.052-0.26-7.701-2.703-8.316-5.958C132.452,3.136,140.719,2.074,143.904,6.225z"/>
			<path fill="#FFC13B" d="M186.098,27.127c0.786,0.744,0.359,1.531-0.384,2.1c-2.023,1.541-3.843-0.192-3.7-2.318
				C183.247,26.068,184.797,25.892,186.098,27.127z"/>
			<path fill="#FFC13B" d="M168.3,18.682c2.73,3.034,1.298,7.825-3.009,7.938c-4.488,0.117-11.466-4-9.614-9.231
				c0.175-0.489-0.043-0.862-0.387-1.054c0.9-0.671,2.01-1.137,3.373-1.308C162.16,14.594,165.959,16.08,168.3,18.682z"/>
			<path fill="#FFC13B" d="M210.937,68.493c-0.956,0.208-2.065-0.008-3.056-0.499c0.247-0.152,0.437-0.412,0.46-0.78
				c0.109-1.71,0.627-4.249,2.713-4.522c1.315-0.173,2.786,0.621,3.214,1.901C214.899,66.477,212.449,68.164,210.937,68.493z"/>
			<path fill="#FFC13B" d="M214.279,76.311c0.151-0.31,0.13-0.611,0.015-0.861c3.173-1.69,6.586-1.685,9.813,0.602
				c2.948,2.093,5.011,5.944,5.038,9.556c0.035,4.863-5.07,5.499-8.598,3.669C216.402,87.131,211.961,81.084,214.279,76.311z"/>
			<path fill="#FFC13B" d="M217.103,143.577c1.015,1.336,1.463,3.812,0.232,5.139c-1.93,2.078-6.286,0.776-8.415-0.202
				c-1.333-0.612-2.471-1.46-3.02-2.435c1.446-2.015,3.725-3.45,6.216-4.002C213.904,141.681,215.95,142.063,217.103,143.577z"/>
			<path fill="#FFC13B" d="M213.014,173.138c1.841,2.859-1.994,5.307-4.562,4.942c-4.028-0.573-5.288-5.37-2.412-7.961
				c0.184-0.165,0.277-0.351,0.305-0.536C208.876,169.719,211.627,170.98,213.014,173.138z"/>
			<path fill="#FFC13B" d="M236.318,147.154c1.841,2.859-1.994,5.307-4.562,4.942c-4.028-0.573-5.288-5.37-2.412-7.961
				c0.184-0.165,0.277-0.351,0.305-0.536C232.18,143.734,234.931,144.995,236.318,147.154z"/>
			<path fill="#FFC13B" d="M241.801,109.378c1.841,2.859-1.994,5.307-4.562,4.942c-4.028-0.573-5.288-5.37-2.412-7.961
				c0.184-0.165,0.277-0.351,0.305-0.536C237.662,105.958,240.413,107.22,241.801,109.378z"/>
			<path fill="#FFC13B" d="M224.654,24.444c1.841,2.859-1.994,5.307-4.562,4.942c-4.028-0.573-5.288-5.37-2.412-7.961
				c0.184-0.165,0.277-0.351,0.305-0.536C220.515,21.024,223.266,22.286,224.654,24.444z"/>
			<path fill="#FFC13B" d="M179.322,169.687c0.911-1.652,2.058-3.749,3.518-5.856c0.617,1.109,1.114,2.231,1.461,3.238
				c0.647,1.875,0.888,4.297-0.895,5.62C181.055,174.428,179.471,171.921,179.322,169.687z"/>
			<path fill="#FFC13B" d="M51.389,116.178c2.861-0.562,6.217,1.234,7.73,3.61c0.741,1.164,0.873,2.565,0.305,3.825
				c-1.108,2.464-3.239,2.711-5.232,1.151c-2.19-1.712-4.039-4.789-4.615-7.877C50.092,116.566,50.683,116.317,51.389,116.178z"/>
			<path fill="#FFC13B" d="M49.486,171.564c2.14,3.973-2.353,6.905-5.983,5.73c-3.025-0.979-6.217-4.542-6.895-8.062
				c0.771-1.903,2.212-3.288,4.802-3.162C44.68,166.229,47.978,168.766,49.486,171.564z"/>
		</g>
		<path fill="none" stroke="#000000" stroke-linecap="round" stroke-linejoin="round" stroke-miterlimit="10" d="M8.788,0.5
			c-0.14,0.49-0.271,0.981-0.403,1.48C8.28,2.391,8.175,2.812,8.07,3.232C4.778,16.454,3.815,31.208,4.279,46.093
			c0.114,3.949,0.333,7.898,0.648,11.838c0.455,5.989,1.112,11.935,1.9,17.74c0.552,4.028,1.165,7.994,1.821,11.865
			c3.231,19.027,7.547,35.751,10.612,46.451c0.079,0.271,0.158,0.534,0.228,0.797c0.009,0.026,0.018,0.053,0.026,0.079
			c2.093,7.259,3.538,11.514,3.538,11.514c0.744,8.432-0.481,23.055,8.686,36.995c8.038,12.224,22.722,18.134,26.593,19.465
			c1.427,0.482,3.205,1.007,4.816,1.383c-0.044,0.07-0.061,0.105-0.061,0.105s23.125,21.181,70.084,9.063
			c0,0-0.123-0.184-0.342-0.499c2.758,1.06,4.842,3.152,4.842,3.152c12.241,3.126,14.185-1.436,14.474-3.31
			c0.359,0.377,0.709,0.727,1.042,1.033c2.82,1.918,6.698,0,6.698,0c0.053-0.63,0.053-1.313,0.035-2.023
			c0.307,0.35,0.561,0.569,0.561,0.569c2.854,2.504,5.297,3.975,7.259,4.833c0.026,0.009,0.053,0.026,0.079,0.035
			c0.228,0.096,0.447,0.184,0.657,0.263c0.981,0.377,1.821,0.595,2.513,0.709c0.088,0.018,0.175,0.035,0.254,0.044
			c0.166,0.026,0.324,0.044,0.464,0.061c0.131,0.009,0.245,0.018,0.359,0.026c0.832,0.044,1.269-0.061,1.269-0.061
			c0.351-0.044,0.71-0.096,1.06-0.149c0.227-0.026,0.455-0.061,0.674-0.096c0.044-0.009,0.087-0.009,0.131-0.026
			c0.192-0.018,0.377-0.053,0.561-0.088c0.254-0.035,0.499-0.079,0.744-0.123c0.394-0.061,0.779-0.131,1.165-0.21
			c0.666-0.123,1.322-0.263,1.979-0.412c0.359-0.079,0.709-0.158,1.068-0.245c0.368-0.088,0.736-0.175,1.095-0.271
			c0.088-0.017,0.175-0.044,0.263-0.07c0.385-0.096,0.77-0.201,1.156-0.315c0.683-0.184,1.366-0.385,2.04-0.595
			c0.438-0.131,0.876-0.271,1.304-0.42c1.226-0.403,2.434-0.849,3.643-1.322c0.534-0.21,1.068-0.429,1.602-0.657
			c0.49-0.21,0.981-0.42,1.471-0.648c0.464-0.21,0.928-0.42,1.384-0.639c0.035-0.018,0.062-0.026,0.097-0.044
			c0.481-0.228,0.954-0.464,1.427-0.709c0.394-0.201,0.788-0.403,1.182-0.613c0.639-0.333,1.278-0.683,1.909-1.042
			c0.28-0.166,0.552-0.324,0.823-0.482c0.307-0.175,0.613-0.359,0.92-0.552c0.385-0.228,0.77-0.464,1.147-0.709
			c0.35-0.219,0.7-0.447,1.05-0.674c0.455-0.298,0.911-0.604,1.366-0.919c0.455-0.307,0.902-0.622,1.348-0.946
			c0.446-0.324,0.893-0.648,1.331-0.981c0.455-0.333,0.902-0.683,1.348-1.033c2.172-1.707,4.273-3.555,6.304-5.551
			c0.831-0.81,1.645-1.649,2.449-2.504c0.094-0.099,0.188-0.197,0.281-0.297c0.791-0.849,1.569-1.72,2.334-2.611
			c0.074-0.086,0.147-0.172,0.22-0.258c13.798-16.201,23.227-39.359,25.293-68.354c0.683-9.614,0.77-18.642,0.376-27.1
			c-0.009-0.035-0.009-0.07-0.009-0.105c-2.601-55.068-25.428-85.907-33.807-95.451c-0.009-0.009-0.009-0.009-0.009-0.009
			c-0.149-0.175-0.298-0.333-0.429-0.49"/>
	</g>
	<path fill="#914D4D" d="M227.307,123.349c-0.394-11.068-2.653-23.729-4.737-33.335c-1.927-8.887-3.695-15.166-3.695-15.166
		l-0.508-0.578l-5.692-6.558l-3.388-3.896l-10.052-11.584l-12.626-14.535l-20.962-24.132l-0.026-0.035v-0.009l-0.447-0.508
		l-1.637-1.874l-0.771-0.893l-4.904-5.639l-0.254-0.298l-3.31-3.809H28.271c-3.809,7.924-15.673,37.039-0.464,65.47
		c0,0-1.13,17.486,6.672,30.086c7.801,12.591,27.301,10.919,27.301,10.919l56.67,38.019l8.091,6.865l4.693,3.984
		c0,0-6.252,14.456-1.988,19.876c4.255,5.429,4.956,10.831,28.589,3.853c3.266-0.963,6.698-2.031,10.227-3.214
		c3.923-1.305,7.951-2.749,11.978-4.308h0.009c1.567-0.604,3.143-1.235,4.702-1.883c10.648-4.369,20.928-9.562,28.676-15.385
		c4.553-3.415,8.222-7.049,10.587-10.866c1.637-2.644,2.583-6.313,3.03-10.604v-0.009c0.193-1.751,0.289-3.608,0.315-5.543v-0.009
		c0.009-0.604,0.009-1.208,0-1.83v-0.009C227.36,125.065,227.342,124.216,227.307,123.349z"/>
	<path fill="none" stroke="#000000" stroke-linecap="round" stroke-miterlimit="10" d="M157.608,4.309l0.254,0.298l4.904,5.639
		l0.771,0.893l1.637,1.874l0.447,0.508v0.009l0.026,0.035l20.962,24.132l12.626,14.535l10.052,11.584l3.388,3.896l5.692,6.558
		l0.508,0.578c0,0,1.769,6.278,3.695,15.166c2.084,9.606,4.343,22.267,4.737,33.335c0.035,0.867,0.053,1.716,0.053,2.566v0.009
		c0.009,0.622,0.009,1.226,0,1.83v0.009c-0.026,1.935-0.122,3.791-0.315,5.543v0.009c-0.447,4.291-1.393,7.959-3.03,10.604
		c-2.364,3.818-6.033,7.452-10.587,10.866c-7.749,5.823-18.029,11.015-28.676,15.385c-1.558,0.648-3.134,1.278-4.702,1.883h-0.009
		c-4.027,1.559-8.055,3.003-11.978,4.308c-3.529,1.182-6.961,2.25-10.227,3.214c-23.633,6.979-24.333,1.576-28.589-3.853
		c-4.264-5.42,1.988-19.876,1.988-19.876l-4.693-3.984l-8.091-6.865l-56.67-38.019c0,0-19.5,1.672-27.301-10.919
		c-7.802-12.6-6.672-30.086-6.672-30.086C12.597,37.539,24.462,8.424,28.271,0.5"/>
	<g>
		<path fill="#F2E8D9" d="M81.629,155.016c-4.917-7.691-15.223-15.055-19.989-23.02c-2.742-4.582-15.569-22.632-21.759-17.201
			c-4.957,4.349-0.346,18.318,1.519,23.204c6.205,16.232,19.34,29.619,36.689,33.584C90.678,174.457,90.16,168.366,81.629,155.016z"
			/>
		<path fill="#DCD0BD" d="M53.901,121.627c3.551,3.994,6.566,8.411,7.738,10.37c4.068,6.797,12.168,13.155,17.511,19.655
			c-4.781-2.667-9.227-5.902-13.153-9.802c-4.059-4.03-6.912-8.442-8.907-13.759C56.253,125.854,55.337,123.502,53.901,121.627z"/>
		<path fill="#DCD0BD" d="M85.453,171.996c-1.59,0.477-4.008,0.354-7.365-0.412C60.74,167.619,47.605,154.232,41.399,138
			c-1.34-3.513-4.102-11.721-3.703-17.675c1.545,0.656,3.024,1.682,4.026,2.384c3.268,2.291,5.507,5.596,7.3,9.11
			c3.723,7.305,4.185,15.689,7.275,23.217c2.742,6.683,8.687,10.244,15.124,12.912C75.928,169.815,80.667,171.012,85.453,171.996z"
			/>
		<path fill="none" stroke="#000000" stroke-linecap="round" stroke-linejoin="round" stroke-miterlimit="10" d="M84.082,172.238
			c-0.23,0.019-0.47,0.032-0.723,0.034c-0.028,0.002-0.056,0.003-0.085,0.003c-0.241,0.002-0.491-0.004-0.75-0.018
			c-0.046-0.003-0.09-0.004-0.137-0.005c-0.248-0.016-0.505-0.038-0.772-0.066c-0.064-0.006-0.125-0.01-0.19-0.017
			c-0.257-0.03-0.525-0.066-0.8-0.108c-0.08-0.011-0.157-0.02-0.239-0.032c-0.272-0.043-0.56-0.095-0.853-0.151
			c-0.088-0.016-0.171-0.03-0.26-0.046c-0.381-0.075-0.776-0.157-1.185-0.251c-17.348-3.965-30.484-17.351-36.69-33.584
			c-0.073-0.194-0.152-0.408-0.234-0.63c-0.023-0.057-0.045-0.117-0.067-0.177c-0.074-0.202-0.149-0.411-0.228-0.631
			c-0.014-0.037-0.025-0.074-0.04-0.109c-0.089-0.257-0.182-0.522-0.278-0.799c-0.023-0.068-0.046-0.137-0.068-0.208
			c-0.079-0.229-0.158-0.468-0.237-0.711c-0.024-0.068-0.045-0.137-0.069-0.204c-0.098-0.303-0.194-0.613-0.294-0.933
			c-0.018-0.06-0.038-0.123-0.056-0.186c-0.084-0.268-0.167-0.541-0.247-0.82c-0.025-0.088-0.051-0.173-0.076-0.263
			c-0.098-0.339-0.195-0.68-0.292-1.031c-0.008-0.035-0.018-0.071-0.026-0.109c-0.088-0.315-0.169-0.637-0.252-0.96
			c-0.024-0.097-0.048-0.193-0.072-0.289c-0.081-0.332-0.163-0.663-0.238-1c-0.008-0.037-0.017-0.071-0.025-0.109
			c-0.083-0.364-0.159-0.73-0.235-1.098c-0.019-0.095-0.039-0.193-0.057-0.29c-0.06-0.306-0.116-0.614-0.169-0.924
			c-0.014-0.073-0.026-0.148-0.041-0.223c-0.061-0.368-0.116-0.735-0.167-1.103c-0.011-0.083-0.02-0.168-0.031-0.251
			c-0.039-0.303-0.075-0.6-0.104-0.897c-0.011-0.091-0.019-0.18-0.028-0.271c-0.034-0.363-0.061-0.722-0.079-1.079
			c-0.004-0.057-0.005-0.111-0.006-0.168c-0.014-0.306-0.022-0.608-0.023-0.904c0-0.092,0-0.182,0-0.271
			c0.026-2.764,0.627-5.159,2.221-6.556c3.545-3.111,9.264,1.481,14.022,6.832c-0.001,0-0.001-0.001-0.001-0.001
			c0.004,0.003,0.006,0.006,0.009,0.01c0.217,0.244,0.432,0.491,0.646,0.739c0.004,0.004,0.007,0.007,0.011,0.012
			c0.649,0.752,1.274,1.511,1.871,2.262c0.006,0.004,0.009,0.01,0.012,0.013c0.595,0.75,1.16,1.489,1.689,2.199
			c0.004,0.004,0.008,0.01,0.011,0.013c0.172,0.235,0.342,0.463,0.505,0.689c0.006,0.009,0.013,0.016,0.017,0.025
			c0.326,0.449,0.634,0.88,0.92,1.292c0.011,0.013,0.021,0.027,0.029,0.041c0.137,0.196,0.271,0.388,0.398,0.574
			c0.014,0.022,0.028,0.044,0.044,0.064c0.125,0.186,0.248,0.365,0.364,0.54c0.009,0.011,0.015,0.024,0.024,0.036
			c0.113,0.167,0.219,0.33,0.321,0.486c0.011,0.013,0.018,0.028,0.029,0.042c0.1,0.154,0.194,0.299,0.285,0.44
			c0.018,0.029,0.034,0.055,0.052,0.081c0.088,0.137,0.167,0.265,0.244,0.388c0.014,0.023,0.026,0.043,0.039,0.065
			c0.079,0.125,0.152,0.246,0.218,0.356c0.231,0.386,0.478,0.77,0.736,1.154c0.041,0.063,0.083,0.127,0.126,0.192
			c0.246,0.365,0.504,0.727,0.772,1.089c0.055,0.074,0.109,0.148,0.164,0.222c0.274,0.364,0.553,0.727,0.843,1.089
			c0.037,0.047,0.074,0.092,0.113,0.138c0.275,0.341,0.559,0.682,0.848,1.022c0.053,0.06,0.102,0.119,0.152,0.18
			c0.3,0.348,0.607,0.697,0.918,1.046c0.082,0.088,0.164,0.178,0.247,0.271c0.299,0.334,0.606,0.667,0.918,0.999
			c0.093,0.099,0.187,0.199,0.279,0.298c0.259,0.276,0.522,0.55,0.786,0.825c0.144,0.151,0.291,0.302,0.436,0.453
			c0.226,0.233,0.454,0.467,0.683,0.7c3.279,3.341,6.746,6.642,9.489,9.978l0.002,0.002l0,0c0.919,1.116,1.757,2.236,2.478,3.365
			c6.537,10.226,8.36,16.189,3.198,17.128c-0.006,0-0.011,0.001-0.017,0.002c-0.216,0.039-0.443,0.07-0.682,0.091
			C84.114,172.238,84.099,172.241,84.082,172.238z"/>
	</g>
	<g>
		<path fill="#F2E8D9" d="M170.594,1.507h-0.009l-0.009,0.009c-0.245,0.245-0.648,0.473-1.296,0.7c-0.009,0-0.009,0-0.009,0
			c-0.42,0.149-0.928,0.298-1.567,0.447c-0.009,0.009-0.018,0.009-0.027,0.009c-1.366,0.324-5.131,1.051-9.816,1.935
			c-4.115,0.771-8.949,1.664-13.484,2.495c-5.674,1.042-10.875,1.979-13.607,2.478c-1.138,0.201-1.847,0.333-1.988,0.35
			c-0.009,0-0.018,0.009-0.026,0.009c-0.307,0.114-4.536,0.893-3.862-2.005c0.552-2.355,3.135-2.968,2.758-7.434h43.159
			C170.935,0.859,170.918,1.183,170.594,1.507z"/>
		<path fill="#F2E8D9" d="M197.887,0.5c1.174,1.357,2.189,3.292,0.692,5.805c-0.35,0.578-0.692,1.095-1.024,1.541
			c-2.215,2.959-4.212,3.056-6.462,0.14c-0.315-0.412-0.622-0.928-0.937-1.532c-0.823-1.602-1.646-3.783-2.505-5.954H197.887z"/>
		<g>
			<path fill="#DCD0BD" d="M170.594,1.507h-0.009c-0.018,0-0.027-0.009-0.044-0.009c-1.051-0.219-2.084-0.517-3.074-0.902
				c-0.088-0.026-0.175-0.061-0.254-0.096h3.599C170.935,0.859,170.918,1.183,170.594,1.507z"/>
		</g>
		<path fill="none" stroke="#000000" stroke-linecap="round" stroke-linejoin="round" stroke-miterlimit="10" d="M170.812,0.5
			c0.123,0.359,0.105,0.683-0.219,1.007h-0.009l-0.009,0.009c-0.245,0.245-0.648,0.473-1.296,0.7c-0.009,0-0.009,0-0.009,0
			c-0.42,0.149-0.928,0.298-1.567,0.447c-0.009,0.009-0.018,0.009-0.027,0.009c-1.366,0.324-5.131,1.051-9.816,1.935
			c-4.115,0.771-8.949,1.664-13.484,2.495c-5.674,1.042-10.875,1.979-13.607,2.478c-1.138,0.201-1.847,0.333-1.988,0.35
			c-0.009,0-0.018,0.009-0.026,0.009c-0.307,0.114-4.536,0.893-3.862-2.005c0.552-2.355,3.135-2.968,2.758-7.434"/>
		<path fill="none" stroke="#000000" stroke-linecap="round" stroke-linejoin="round" stroke-miterlimit="10" d="M197.887,0.5
			c1.174,1.357,2.189,3.292,0.692,5.805c-0.35,0.578-0.692,1.095-1.024,1.541c-2.215,2.959-4.212,3.056-6.462,0.14
			c-0.315-0.412-0.622-0.928-0.937-1.532c-0.823-1.602-1.646-3.783-2.505-5.954"/>
		<path fill="#C2D6D6" d="M169.892,2.325c0,0-39.199,6.091-41.895,7.957c-2.699,1.866-1.367,8.477,2.407,7.921
			c3.773-0.553,32.071-5.492,38.986-9.285C176.305,5.124,169.892,2.325,169.892,2.325z"/>
		<path fill="none" stroke="#000000" stroke-linecap="round" stroke-linejoin="round" stroke-miterlimit="10" d="M169.892,2.325
			c0,0-39.199,6.091-41.895,7.957c-2.699,1.866-1.367,8.477,2.407,7.921c3.773-0.553,32.071-5.492,38.986-9.285
			C176.305,5.124,169.892,2.325,169.892,2.325z"/>
		<path fill="#F2E8D9" d="M134.178,17.649c0,0,29.414-6.745,31.821-8.758c2.407-2.011-0.383-7.036,7.166-7.996
			c7.546-0.958,8.374,4.848,9.811,6.815c1.434,1.969,11.775,5.525,18.092,4.631c6.315-0.898,13.551,1.392,14.622,3.727
			c1.069,2.332-2.354,4.411-0.063,8.343c2.292,3.932,9.652,8.99,12.16,13.068c2.508,4.08,2.102,9.948,4.604,14.753
			c2.504,4.805,4.716,9.46,5.32,16.354c0.6,6.892,4.606,14.317,3.696,19.894c-0.91,5.579-4.66,22.589-6.883,28.955
			c-2.223,6.365-1.816,10.354-3.813,15.489c-1.995,5.133-1.162,10.505-3.946,14.327c-2.785,3.822-8.998,10.448-11.383,9.632
			c-2.386-0.815-3.153-5.099-1.611-7.841c1.544-2.746,9.484-7.837,10.476-14.498c0.991-6.663,1.684-12.022,0.479-15.731
			c-1.205-3.707-7.792-15.285-8.268-19.493c-0.477-4.21-1.112-16.685-4.572-19.176c-3.464-2.49-6.876-1.865-8.168-3.396
			c-1.296-1.531-10.014-9.064-18.783-9.563c-8.772-0.5-25.584-1.639-31.258-8.93s-3.626-9.743-1.56-14.802
			c-5.834-5.118-14.686-14.103-16.764-17.816C133.276,21.923,130.185,18.053,134.178,17.649z"/>
		<path fill="#DCD0BD" d="M135.756,26.296c0.709,0.262,1.437,0.54,2.208,0.862c18.071,7.53,27.728-15.25,27.728-15.25
			s0.016,14.343-4.474,20.565c-4.491,6.221-9.104,10.978-10.89,19.951c2.514,7.441,24.191-17.229,39.335-14.529
			c15.146,2.7,7.273,17.065,9.813,23.837c2.537,6.769,7.335,8.468,12.753,11.096c5.415,2.631,4.227,26.491,4.227,26.491
			c-0.477-4.21-1.112-16.685-4.572-19.176c-3.464-2.49-6.876-1.865-8.168-3.396c-1.296-1.531-10.014-9.064-18.783-9.563
			c-8.772-0.5-25.584-1.639-31.258-8.93s-3.626-9.743-1.56-14.802C146.599,38.613,138.394,30.326,135.756,26.296z"/>
		<path fill="none" stroke="#000000" stroke-linecap="round" stroke-linejoin="round" stroke-miterlimit="10" d="M134.178,17.649
			c0,0,29.414-6.745,31.821-8.758c2.407-2.011-0.383-7.036,7.166-7.996c7.546-0.958,8.374,4.848,9.811,6.815
			c1.434,1.969,11.775,5.525,18.092,4.631c6.315-0.898,13.551,1.392,14.622,3.727c1.069,2.332-2.354,4.411-0.063,8.343
			c2.292,3.932,9.652,8.99,12.16,13.068c2.508,4.08,2.102,9.948,4.604,14.753c2.504,4.805,4.716,9.46,5.32,16.354
			c0.6,6.892,4.606,14.317,3.696,19.894c-0.91,5.579-4.66,22.589-6.883,28.955c-2.223,6.365-1.816,10.354-3.813,15.489
			c-1.995,5.133-1.162,10.505-3.946,14.327c-2.785,3.822-8.998,10.448-11.383,9.632c-2.386-0.815-3.153-5.099-1.611-7.841
			c1.544-2.746,9.484-7.837,10.476-14.498c0.991-6.663,1.684-12.022,0.479-15.731c-1.205-3.707-7.792-15.285-8.268-19.493
			c-0.477-4.21-1.112-16.685-4.572-19.176c-3.464-2.49-6.876-1.865-8.168-3.396c-1.296-1.531-10.014-9.064-18.783-9.563
			c-8.772-0.5-25.584-1.639-31.258-8.93s-3.626-9.743-1.56-14.802c-5.834-5.118-14.686-14.103-16.764-17.816
			C133.276,21.923,130.185,18.053,134.178,17.649z"/>
		<path fill="#DCD0BD" d="M227.845,91.194c0,0-4.621,8.846-0.127,17.291c3.617,0.843,6.458-4.277,6.49-8.598
			C234.208,99.887,232.897,87.488,227.845,91.194z"/>
		<path fill="none" stroke="#000000" stroke-linecap="round" stroke-linejoin="round" stroke-miterlimit="10" d="M227.845,91.194
			c0,0-4.621,8.846-0.127,17.291c3.617,0.843,6.458-4.277,6.49-8.598"/>
		<path fill="#DCD0BD" d="M197.264,22.849c0,0-4.771-2.605-5.132-0.856c-0.363,1.752,2.423,4.108,5.073,9.152
			c2.651,5.042,9.162,9.414,12.906,8.508c3.744-0.907-1.944-5.506-1.944-5.506C206.613,32.14,203.806,26.212,197.264,22.849z"/>
		<path fill="none" stroke="#000000" stroke-linecap="round" stroke-linejoin="round" stroke-miterlimit="10" d="M208.167,34.147
			c0,0,5.688,4.599,1.944,5.506c-3.744,0.906-10.255-3.466-12.906-8.508c-2.65-5.044-5.436-7.4-5.073-9.152
			c0.361-1.749,5.132,0.856,5.132,0.856"/>
		<path fill="none" stroke="#000000" stroke-linecap="round" stroke-linejoin="round" stroke-miterlimit="10" d="M182.975,7.71
			c0,0,0.826,2.772,3.612,5.48"/>
		<path fill="none" stroke="#000000" stroke-linecap="round" stroke-linejoin="round" stroke-miterlimit="10" d="M165.999,8.891
			c0,0-0.798,20.638-8.699,30.501"/>
		<path fill="none" stroke="#000000" stroke-linecap="round" stroke-linejoin="round" stroke-miterlimit="10" d="M230.125,80.579
			c0,0-3.122,3.716-4.232,0.669c-1.107-3.046,0.689-9.108,0.964-14.482"/>
		<path fill="none" stroke="#000000" stroke-linecap="round" stroke-linejoin="round" stroke-miterlimit="10" d="M225.386,57.068
			c0,0,1.177-12.37-6.204-15.359"/>
	</g>
	<g>
		<path fill="#C33B3B" d="M153.185,213.768c-4.936-4.635-13.287-16.866-9.737-21.063c2.937-3.47,9.575-7.987,17.578-12.924
			c7.534-4.649,16.074-9.917,22.501-15.273c13.635-11.364,17.108-27.518,17.249-28.2l0.272-1.342l-1.082-0.836
			c-0.085-0.066-8.499-6.697-8.499-17.523l-0.018-2.466l-2.451,0.295c-0.134,0.016-3.349,0.372-5.976-1.959
			c-2.429-2.154-3.661-5.948-3.661-11.277v-1.651l-1.588-0.454c-0.033-0.009-3.45-1.041-6.629-3.92
			c-4.299-3.893-6.166-9.203-5.549-15.781c0.538-5.736,6.018-11.699,15.453-11.997c8.725-0.292,18.969,5.08,21.473,20.938
			l0.199,1.223l1.145,0.465c0.925,0.377,22.541,9.553,10.894,38.419l-0.452,1.142l0.726,0.984
			c0.429,0.581,10.348,14.449-3.313,33.169c-13.958,19.126-25.567,23.652-37.858,28.443l-1.339,0.522
			c-15.721,5.866-12.172,15.238-12.64,21.066C159.884,213.768,156.005,215.684,153.185,213.768z"/>
		<path fill="#97212D" d="M162.318,184.505c14.241-9.035,30.505-19.756,35.735-28.472c5.229-8.716,10.168-23.533,10.168-23.533
			c-8.135,1.453-10.749-5.811-10.168-13.945c0.581-8.135,9.297-11.621,9.297-11.621c-8.135,1.743-13.074,5.229-13.074,5.229
			s-8.425-3.486-8.425-11.331s16.871-11.277,16.871-11.277c-14.506,0.054-21.81,7.5-21.81,7.5
			c-6.682-2.905-11.04-19.175,3.196-21.79c5.028-0.923,9.653-0.54,13.537,0.339c-4.42-6.127-10.837-8.403-16.596-8.211
			c-9.435,0.298-14.915,6.261-15.453,11.997c-0.617,6.578,1.25,11.888,5.549,15.781c3.178,2.879,6.595,3.91,6.629,3.92l1.588,0.454
			v1.651c0,5.329,1.231,9.123,3.661,11.277c2.628,2.331,5.842,1.975,5.976,1.959l2.451-0.295l0.018,2.466
			c0,10.826,8.414,17.458,8.499,17.523l1.082,0.836l-0.272,1.342c-0.141,0.682-3.614,16.836-17.249,28.2
			c-6.427,5.356-14.967,10.625-22.501,15.273c-8.003,4.938-14.641,9.454-17.578,12.924c-3.55,4.197,4.801,16.429,9.737,21.063
			c0,0-1.906-5.149-3.669-12.106C147.753,194.705,148.077,193.541,162.318,184.505z"/>
		<path fill="#D99B9A" d="M151.458,214.209c-1.86-1.744-18.564-16.048-11.376-24.544c3.387-4.003,9.976-8.262,18.644-13.61
			c7.41-4.572,15.81-9.754,21.997-14.91c10.372-8.644,14.39-20.674,15.454-24.505c-2.479-2.286-8.207-8.516-8.998-17.868
			c-1.885-0.186-4.583-0.856-6.991-2.957c-3.177-2.773-4.913-7.157-5.172-13.044c-6.079-2.412-15.102-9.69-13.78-23.786
			c0.835-8.916,9.11-15.63,19.674-15.964c5.911-0.19,11.632,1.775,16.095,5.524c4.901,4.116,8.221,10.303,9.642,17.947
			c2.788,1.402,9.893,5.689,13.619,14.417c3.409,7.989,3.061,17.445-1.032,28.119c2.386,4.041,9.391,18.97-3.978,37.29
			c-14.712,20.16-27.468,25.133-39.806,29.941l-1.333,0.52c-10.525,4.118-13.195,9.976-13.641,15.531
			c-0.034,0.421-0.627,1.864-0.594,1.458c0.468-5.828-3.081-15.2,12.64-21.066l1.339-0.522c12.291-4.791,23.901-9.317,37.858-28.443
			c13.661-18.721,3.743-32.588,3.313-33.169l-0.726-0.984l0.452-1.142c11.647-28.867-9.969-38.043-10.894-38.419l-1.145-0.465
			l-0.199-1.223c-2.505-15.858-12.748-21.23-21.473-20.938c-9.435,0.298-14.915,6.261-15.453,11.997
			c-0.617,6.578,1.25,11.888,5.549,15.781c3.178,2.879,6.595,3.91,6.629,3.92l1.588,0.454v1.651c0,5.329,1.231,9.123,3.661,11.277
			c2.628,2.331,5.842,1.975,5.976,1.959l2.451-0.295l0.018,2.466c0,10.826,8.414,17.458,8.499,17.523l1.082,0.836l-0.272,1.342
			c-0.141,0.682-3.614,16.836-17.249,28.2c-6.427,5.356-14.967,10.625-22.501,15.273c-8.003,4.938-14.641,9.454-17.578,12.924
			c-3.55,4.197,4.8,16.429,9.737,21.063L151.458,214.209z"/>
		<path fill="none" stroke="#000000" stroke-linecap="round" stroke-linejoin="round" stroke-miterlimit="10" d="M151.458,214.209
			c-1.86-1.744-18.564-16.048-11.376-24.544c3.387-4.003,9.976-8.262,18.644-13.61c7.41-4.572,15.81-9.754,21.997-14.91
			c10.372-8.644,14.39-20.674,15.454-24.505c-2.479-2.286-8.207-8.516-8.998-17.868c-1.885-0.186-4.583-0.856-6.991-2.957
			c-3.177-2.773-4.913-7.157-5.172-13.044c-6.079-2.412-15.102-9.69-13.78-23.786c0.835-8.916,9.11-15.63,19.674-15.964
			c5.911-0.19,11.632,1.775,16.095,5.524c4.901,4.116,8.221,10.303,9.642,17.947c2.788,1.402,9.893,5.689,13.619,14.417
			c3.409,7.989,3.061,17.445-1.032,28.119c2.386,4.041,9.391,18.97-3.978,37.29c-14.712,20.16-27.468,25.133-39.806,29.941
			l-1.333,0.52c-10.525,4.118-13.195,9.976-13.641,15.531c-0.034,0.421-0.627,1.864-0.594,1.458
			c0.468-5.828-3.081-15.2,12.64-21.066l1.339-0.522c12.291-4.791,23.901-9.317,37.858-28.443
			c13.661-18.721,3.743-32.588,3.313-33.169l-0.726-0.984l0.452-1.142c11.647-28.867-9.969-38.043-10.894-38.419l-1.145-0.465
			l-0.199-1.223c-2.505-15.858-12.748-21.23-21.473-20.938c-9.435,0.298-14.915,6.261-15.453,11.997
			c-0.617,6.578,1.25,11.888,5.549,15.781c3.178,2.879,6.595,3.91,6.629,3.92l1.588,0.454v1.651c0,5.329,1.231,9.123,3.661,11.277
			c2.628,2.331,5.842,1.975,5.976,1.959l2.451-0.295l0.018,2.466c0,10.826,8.414,17.458,8.499,17.523l1.082,0.836l-0.272,1.342
			c-0.141,0.682-3.614,16.836-17.249,28.2c-6.427,5.356-14.967,10.625-22.501,15.273c-8.003,4.938-14.641,9.454-17.578,12.924
			c-3.55,4.197,4.8,16.429,9.737,21.063L151.458,214.209z"/>
		<path fill="none" stroke="#000000" stroke-linecap="round" stroke-linejoin="round" stroke-miterlimit="10" d="M159.884,213.768
			c0,0-3.879,1.916-6.699,0.001"/>
	</g>
	<g>
		<path fill="#DE8988" d="M187.869,126.423c-6.287-9.439-13.047-15.586-16.269-27.328c-3.222-11.751,0.157-8.064-5.604-14.159
			c0,0,9.991,1.357,15.253-9.063c1.331-2.644,2.233-5.665,2.356-8.765c0.114-2.995-0.49-6.059-2.137-8.931
			c-1.095-1.935-2.662-3.783-4.789-5.473c-2.82-2.233-6.62-4.177-11.619-5.639c-2.679-0.797-5.709-1.445-9.115-1.926
			c0,0-0.648-1.033-1.944-2.478c-1.97-2.207-5.447-5.385-10.359-7.285c-0.009,0-0.009,0-0.009,0s0-0.009-0.009-0.009
			c-3.827-1.489-8.529-2.207-14.08-1.121c0,0-2.329-11.392-8.905-13.642c0,0-1.664-12.18-5.656-20.104H32.78
			c-4.133,8.021-16.733,36.872-0.701,64.332c0,0-2.872,18.37,6.305,28.939c9.185,10.56,33.65,13.021,37.503,3.126
			c3.844-9.886,1.62-23.764,14.045-31.767c12.425-8.003,16.147-5.656,18.528-13.773c0,0,8.073,14.334,21.269,14.43
			c0,0,5.893,12.119,16.129,14.807l0.009,0.009c0.263,0.385,8.73,12.784,13.16,19.535c4.299,6.567,4.974,21.847,12.311,30.962
			c0,0-4.615,0.14-6.112,6.646c-1.13,4.938-3.73,8.87-7.39,10.017c-4.728,1.48-10.902,3.345-16.243,6.97
			c-3.318,2.242-6.322,5.166-8.45,9.106c-4.142,7.653-0.201,14.316,7.574,15.411c4.168,0.587,12.968-2.531,21.821-7.408
			c7.679-4.22,15.402-9.763,20.157-15.332C192.939,144.53,194.165,135.853,187.869,126.423z"/>
		<g>
			<path fill="#F6A0A0" d="M87.638,34.816c-1.068,2.215-1.48,4.273-1.62,5.805c-1.497,0.482-3.065,1.095-4.667,1.891
				c-0.429,0.21-0.849,0.438-1.261,0.665c0.333-0.219,0.631-0.499,0.867-0.858c0.929-1.383,0.552-3.249-0.832-4.168
				c-6.296-4.203-3.905-11.462-3.783-11.803c0.552-1.559-0.263-3.275-1.821-3.835c-1.567-0.561-3.284,0.254-3.844,1.821
				c-0.596,1.655-1.033,4.142-0.832,6.874c-5.937-0.762-17.364-3.625-21.225-14.386C46.238,10.184,46.842,4.633,48.27,0.5h8.362
				c0.026,0.718,0.307,1.427,0.85,1.979c0.298,0.307,5.937,6.016,13.8,8.695c-5.017,0.604-10.026,3.1-14.938,7.478
				c-1.243,1.103-1.348,3.004-0.245,4.238c0.508,0.569,1.182,0.902,1.882,0.989c0.823,0.096,1.69-0.149,2.364-0.744
				c4.886-4.361,9.701-6.401,14.307-6.059c4.615,0.333,7.959,2.986,9.387,4.343C83.864,27.478,86.176,32.364,87.638,34.816z"/>
			<path fill="#F6A0A0" d="M64.338,0.5c2.977,2.338,8.222,5.709,13.966,6.016c3.082,0.166,5.49-1.051,7.373-3.721
				c0.543-0.779,0.972-1.585,1.296-2.294H64.338z"/>
			<path fill="#F6A0A0" d="M116.227,16.156c-2.644-0.604-3.599-1.515-5.805-3.634c-3.1-2.995-11.121-6.427-17.521-4.798
				c-3.669,0.928-6.278,3.371-7.609,7.031c-1.235-0.841-2.723-1.681-4.439-2.355c7.434-1.007,11.269-7.539,12.556-11.9h17.871
				C113.424,4.589,115.176,10.745,116.227,16.156z"/>
			<path fill="#F6A0A0" d="M178.325,59.228c-0.359-0.692-2.478-3.222-2.959-3.861c-2.951-2.837-7.329-5.052-12.985-6.576
				c-0.683-0.184-1.384-0.359-2.11-0.525c0.175,0.508,0.342,1.033,0.473,1.576c0.386,1.427,0.613,2.951,0.596,4.579
				c2.706-0.061,6.418,0.447,10.578,2.618c0.114,0.096,2.154,1.48,3.739,2.566c0.989,0.674,1.795,1.235,1.865,1.296
				c1.252,1.086,1.392,2.977,0.307,4.238c-0.683,0.779-1.681,1.13-2.636,1.016c-0.578-0.07-1.138-0.306-1.602-0.709
				c-0.998-0.867-1.961-1.585-2.907-2.18c-0.026-0.017-0.053-0.035-0.079-0.052c-4.667-2.951-8.555-2.968-10.481-2.697
				c-0.245,0.63-0.525,1.27-0.858,1.918c-0.254,0.534-0.552,1.068-0.876,1.62c-0.63,1.051-1.804,1.576-2.951,1.436
				c-0.403-0.044-0.806-0.175-1.174-0.403c-1.427-0.849-1.891-2.697-1.042-4.115c0.42-0.701,0.762-1.366,1.051-2.014
				c0.946-2.172,1.191-4.089,0.954-5.963c-0.289-2.347-1.322-4.615-2.653-7.206c-0.026-0.035-0.052-0.088-0.105-0.14
				c-0.149-0.236-0.429-0.622-0.814-1.103c-2.531-3.108-9.816-10.332-21.645-8.327c-4.851,4.054-2.837,12.784-2.82,12.872
				c0.385,1.611-0.604,3.231-2.215,3.625c-0.359,0.087-0.727,0.105-1.068,0.061c-1.208-0.149-2.25-1.016-2.557-2.268
				c-0.123-0.499-2.741-11.663,4.045-18.213c-0.937-3.17-3.082-8.336-6.295-9.614c-7.364-0.876-9.089-2.207-12.854-5.84
				c-1.769-1.716-7.776-4.334-11.856-3.292c-1.821,0.464-2.959,1.611-3.59,3.599c-1.558,4.956-0.446,9.352,0.797,12.232
				c0.919-0.893,1.979-1.769,3.222-2.609c1.366-0.928,3.24-0.569,4.168,0.806c0.928,1.375,0.569,3.24-0.797,4.168
				c-3.747,2.539-5.254,5.411-5.858,7.539c4.028-0.438,6.769,0.035,6.961,0.07c1.638,0.298,2.714,1.865,2.425,3.494
				c-0.298,1.629-1.848,2.723-3.485,2.417c-0.386-0.061-3.66-0.561-8.108,0.42c-0.21,0.088-0.438,0.158-0.674,0.193
				c-0.061,0.009-0.122,0.009-0.175,0.018c-4.518,1.156-10.078,3.888-15.025,9.999c-0.026,0.026-0.044,0.053-0.061,0.07
				c-4.483,5.569-8.476,13.922-10.753,26.452c-0.28,1.567-1.743,2.636-3.31,2.443l-0.184-0.026
				c-1.629-0.298-2.714-1.856-2.417-3.494c0.359-1.979,0.806-4.045,1.34-6.164c-2.251-0.473-5.184-0.657-6.769,0.814
				c-0.683,0.622-1.558,0.876-2.408,0.771c-0.683-0.088-1.34-0.403-1.838-0.946c-1.13-1.217-1.051-3.117,0.166-4.247
				c3.774-3.476,9.15-2.986,12.539-2.189c1.313-3.958,3.021-7.933,5.193-11.646c-1.059,0-2.084-0.053-3.082-0.175
				c-3.599-0.438-6.821-1.638-9.658-3.275c-2.049,0.823-6.865,3.511-11.173,11.444c-2.172,3.993-2.329,8.336-0.481,12.907
				c1.471,3.643,3.703,6.077,3.73,6.103c1.13,1.217,1.059,3.117-0.149,4.247c-0.674,0.63-1.567,0.893-2.417,0.788
				c-0.21-0.026-0.42-0.088-0.622-0.158c0,0-0.665-0.683-1.541-1.699c-0.946-1.068-2.136-2.496-3.039-3.818
				c-2.723-4.807-5.394-12.714-0.762-21.242c3.695-6.795,7.916-10.516,11.138-12.53c-4.142-3.835-7.04-8.467-8.651-12.215
				c-5.99-3.415-9.124-8.94-9.063-16.059c0.044-5.797,2.688-13.423,5.061-14.57c1.024-0.49,2.294-0.368,3.196,0.333
				c1.313,1.024,1.55,2.916,0.525,4.22c-0.105,0.131-0.219,0.254-0.333,0.368c-0.972,1.646-3.388,7.907-2.04,13.327
				c0.841,3.345,2.925,5.823,6.383,7.565c0.666,0.333,1.182,0.911,1.454,1.602c0.21,0.543,3.502,8.774,10.674,13.52
				c0.096,0.052,0.184,0.114,0.271,0.184c3.905,2.495,8.922,3.94,15.183,2.618c2.644-3.091,5.771-5.797,9.465-7.889
				c-0.534,0.271-1.13,0.385-1.725,0.306c-0.447-0.052-0.893-0.21-1.305-0.482c-2.469-1.646-4.133-3.643-5.219-5.735
				c-0.63-0.044-1.375-0.105-2.224-0.21c-2.25-0.28-5.21-0.814-8.344-1.856c-8.993-2.986-15.236-8.686-18.038-16.497
				c-2.592-7.215-2.32-13.432-0.998-18.353h-7.022c-3.196,6.129-14.22,30.148-4.685,54.429c0.85-3.791,1.804-7.986,2.417-10.542
				c0.753-3.187-2.995-5.175-3.152-5.262c-1.471-0.762-2.058-2.566-1.304-4.037c0.753-1.471,2.539-2.066,4.019-1.322
				c2.819,1.419,7.767,5.753,6.287,12.005c-1.252,5.254-3.984,17.504-4.255,18.747c-0.149,1.033-1.611,12.46,2.496,21.47
				c0.797,1.909,2.136,3.958,3.292,5.122c5.709,6.357,17.749,9.194,25.533,7.837c2.075-0.359,5.7-1.357,6.725-4.002
				c1.059-2.715,1.629-5.875,2.242-9.22c1.506-8.292,3.213-17.696,12.985-23.983c4.719-3.047,8.274-4.667,10.866-5.849
				c4.264-1.953,5.271-2.408,6.401-6.243c0.009-0.035,0.027-0.07,0.035-0.096c0.009-0.026,0.009-0.044,0.018-0.07
				c6.383-17.898-1.961-25.305-2.049-25.384c-1.261-1.077-1.401-2.968-0.324-4.229c1.077-1.261,2.977-1.41,4.238-0.333
				c0.464,0.403,11.059,9.798,4.264,30.559c2.04,3.038,8.511,11.506,17.609,11.812c1.068-0.342,4.641-1.716,6.821-5.411
				c2.233-3.791,2.47-8.966,0.7-15.393c-0.438-1.602,0.499-3.257,2.102-3.695c1.278-0.35,2.583,0.193,3.284,1.235
				c0.972-0.42,2.136-0.324,3.03,0.376c1.313,1.016,1.55,2.907,0.525,4.212l-1.944,2.496c0.587,5.411-0.28,10.087-2.592,13.94
				c-2.093,3.476-4.947,5.543-7.215,6.733c2.224,3.398,6.611,8.87,12.539,10.429c0.122,0.035,0.254,0.07,0.368,0.123
				c0,0,0,0,0.009,0c4.431,1.813,9.912,2.644,14.737,3.389c1.664,0.245,3.231,0.49,4.694,0.753
				c0.534,0.061,8.029,0.709,12.145-7.443c0.666-1.313,1.725-3.826,1.988-6.812C179.98,64.481,179.691,61.837,178.325,59.228z"/>
			<path fill="#F6A0A0" d="M184.486,127.344c-1.684-2.524-3.429-4.843-5.116-7.085c-4.663-6.194-9.068-12.045-11.554-21.115
				c-1.024-3.738-1.744-5.47-1.722-8.253c0.025-3.124-2.43-3.769-6.036-4.616c-3.167-0.744-9.546-3.11-8.618-0.398
				c1.419,3.414,2.96,4.126,4.754,6.678c2.943,4.188,6.37,8.698,7.47,14.148c1.552,7.702,4.502,18.304,9.847,22.524
				c2.691,2.119,3.835,2.616,5.644,6.898c2.368,5.606-4.753,10.331-10.475,14.127c-1.355,0.899-2.636,1.749-3.449,2.398
				c-1.75,1.396-3.977,1.977-6.336,2.591c-4.355,1.135-9.292,2.422-13.464,9.025c-0.558,0.883-1.501,1.377-2.472,1.399
				c-0.572,0.013-1.153-0.136-1.673-0.464c-1.286-0.812-1.731-2.436-1.116-3.782c-0.088-2.23-1.158-2.205-2.245-1.089
				c-1.161,1.257-2.191,2.644-3.027,4.191c-1.456,2.693-1.7,5.278-0.691,7.28c0.994,1.968,3.198,3.329,6.048,3.732
				c6.429,0.909,29.489-10.278,39.273-21.721C190.07,141.481,189.135,134.313,184.486,127.344z"/>
			<path fill="#F6A0A0" d="M173.572,138.357c-0.77-1.759-2.048-3.183-3.085-4.139c-0.596,0.808-1.316,2.169-1.841,4.395
				c-0.278,1.18-0.443,2.179-0.588,3.06c-0.124,0.747-0.26,1.416-0.42,2.031C170.139,141.971,173.284,139.606,173.572,138.357z"/>
		</g>
		<path fill="none" stroke="#000000" stroke-linecap="round" stroke-linejoin="round" stroke-miterlimit="10" d="M114.983,0.5
			c3.993,7.924,5.656,20.104,5.656,20.104c6.576,2.25,8.905,13.642,8.905,13.642c5.551-1.086,10.253-0.368,14.08,1.121
			c0.009,0,0.009,0.009,0.009,0.009s0,0,0.009,0c4.912,1.9,8.388,5.079,10.359,7.285c1.296,1.445,1.944,2.478,1.944,2.478
			c3.406,0.482,6.436,1.13,9.115,1.926c5,1.462,8.8,3.406,11.619,5.639c2.127,1.69,3.695,3.538,4.789,5.473
			c1.646,2.872,2.251,5.937,2.137,8.931c-0.123,3.1-1.024,6.121-2.356,8.765c-5.262,10.42-15.253,9.063-15.253,9.063
			c5.762,6.094,2.382,2.408,5.604,14.159c3.222,11.742,9.982,17.889,16.269,27.328c6.296,9.43,5.07,18.108-5.175,30.086
			c-4.755,5.569-12.478,11.112-20.157,15.332c-8.852,4.877-17.653,7.994-21.821,7.408c-7.775-1.095-11.716-7.758-7.574-15.411
			c2.128-3.94,5.131-6.865,8.45-9.106c5.341-3.625,11.515-5.49,16.243-6.97c3.66-1.147,6.261-5.079,7.39-10.017
			c1.497-6.506,6.112-6.646,6.112-6.646c-7.338-9.115-8.012-24.395-12.311-30.962c-4.431-6.751-12.898-19.15-13.16-19.535
			l-0.009-0.009c-10.236-2.688-16.129-14.807-16.129-14.807c-13.195-0.096-21.269-14.43-21.269-14.43
			c-2.381,8.117-6.103,5.77-18.528,13.773c-12.425,8.003-10.201,21.882-14.045,31.767c-3.853,9.895-28.318,7.434-37.503-3.126
			c-9.176-10.569-6.305-28.939-6.305-28.939C16.047,37.372,28.647,8.521,32.78,0.5"/>
		<path fill="none" stroke="#000000" stroke-linecap="round" stroke-linejoin="round" stroke-miterlimit="10" d="M32.08,64.835
			c0,0,2.96-13.302,4.287-18.895s-4.711-8.625-4.711-8.625"/>
		<path fill="none" stroke="#000000" stroke-linecap="round" stroke-linejoin="round" stroke-miterlimit="10" d="M74.277,26.208
			c0,0-3.473,9.687,4.953,15.309"/>
		<path fill="none" stroke="#000000" stroke-linecap="round" stroke-linejoin="round" stroke-miterlimit="10" d="M74.32,35.35
			c0,0-0.009,0-0.018,0c-0.692,0-21.768-0.035-27.74-16.645C43.927,11.358,44.584,5.158,46.177,0.5"/>
		<path fill="none" stroke="#000000" stroke-linecap="round" stroke-linejoin="round" stroke-miterlimit="10" d="M99.527,43.171
			c0,0-30.092-5.474-38.274,39.567"/>
		<path fill="none" stroke="#000000" stroke-linecap="round" stroke-linejoin="round" stroke-miterlimit="10" d="M63.279,73.993
			c0,0-8.137-3.335-12.454,0.646"/>
		<path fill="none" stroke="#000000" stroke-linecap="round" stroke-linejoin="round" stroke-miterlimit="10" d="M37.161,11.049
			c-0.512-0.4-9.971,18.236,5.026,25.787c0,0,8.959,23.354,30.553,17.966"/>
		<path fill="none" stroke="#000000" stroke-linecap="round" stroke-linejoin="round" stroke-miterlimit="10" d="M54.16,51.865
			c0,0-7.803,1.52-14.196,13.289s3.693,22.496,3.693,22.496"/>
		
			<line fill="none" stroke="#000000" stroke-linecap="round" stroke-linejoin="round" stroke-miterlimit="10" x1="41.342" y1="84.531" x2="40.003" y2="89.096"/>
		<path fill="none" stroke="#000000" stroke-linecap="round" stroke-linejoin="round" stroke-miterlimit="10" d="M89.779,43.766
			c0,0-1.157-7.785,7.49-13.644"/>
		<path fill="none" stroke="#000000" stroke-linecap="round" stroke-linejoin="round" stroke-miterlimit="10" d="M91.912,35.538
			c0,0-6.41-8.24-3.21-18.427c3.2-10.187,16.968-4.886,20.403-1.569c3.435,3.317,4.621,4.295,11.531,5.064"/>
		<path fill="none" stroke="#000000" stroke-linecap="round" stroke-linejoin="round" stroke-miterlimit="10" d="M105.54,22.684
			c0,0,10.067,8.624,2.921,28.673"/>
		<path fill="none" stroke="#000000" stroke-linecap="round" stroke-linejoin="round" stroke-miterlimit="10" d="M129.732,65.787
			c0,0,15.845-3.568,10.057-24.617"/>
		
			<line fill="none" stroke="#000000" stroke-linecap="round" stroke-linejoin="round" stroke-miterlimit="10" x1="140.757" y1="45.721" x2="143.461" y2="42.25"/>
		<path fill="none" stroke="#000000" stroke-linecap="round" stroke-linejoin="round" stroke-miterlimit="10" d="M125.039,50.659
			c0,0-2.765-11.308,4.506-16.416"/>
		<path fill="none" stroke="#000000" stroke-linecap="round" stroke-linejoin="round" stroke-miterlimit="10" d="M155.945,45.141
			c2.74,5.317,5.168,10.634,0.629,18.231"/>
		<path fill="none" stroke="#000000" stroke-linecap="round" stroke-linejoin="round" stroke-miterlimit="10" d="M158.583,58.825
			c0,0,8.199-3.052,17.74,5.207"/>
		<path fill="none" stroke="#000000" stroke-linecap="round" stroke-linejoin="round" stroke-miterlimit="10" d="M177.798,59.007
			c0,0-2.281-0.068-4.742,2.583"/>
		<path fill="none" stroke="#000000" stroke-linecap="round" stroke-linejoin="round" stroke-miterlimit="10" d="M145.853,80.596
			c6.37,2.603,14.367,3.274,20.14,4.337"/>
		<path fill="none" stroke="#000000" stroke-linecap="round" stroke-linejoin="round" stroke-miterlimit="10" d="M171.342,131.099
			c0,0,4.102,2.613,5.931,6.94c1.829,4.328-9.131,9.896-13.03,13.006c-3.899,3.11-13.387,1.157-20.466,12.361"/>
		<path fill="none" stroke="#000000" stroke-linecap="round" stroke-linejoin="round" stroke-miterlimit="10" d="M148.196,158.169
			c0,0-2.655-1.431-7.07,0.996"/>
		<path fill="none" stroke="#000000" stroke-linecap="round" stroke-linejoin="round" stroke-miterlimit="10" d="M87.893,21.163
			c0,0-11.858-14.486-28.782,0.594"/>
		<path fill="none" stroke="#000000" stroke-linecap="round" stroke-linejoin="round" stroke-miterlimit="10" d="M65.857,5.613
			c3.362,2.216,7.99,4.5,13.058,4.768c8.45,0.447,11.567-7.293,12.369-9.88"/>
	</g>
	<g>
		<path fill="#D19090" d="M87.231,190.898c0,0-0.321,3.539-8.125,4.793c-12.23,1.965-16.025,8.64-16.025,8.64
			s23.132,21.181,70.093,9.058c0,0-6.549-9.754-12.402-12.402s-7.246-6.131-6.967-8.361l-13.517,6.41c0,0-10.033,9.197-11.566-2.369
			L87.231,190.898z"/>
		<path fill="#E3A29B" d="M123.141,212.691c-5.156,1.672-8.082,1.533-17.976,0.418s-9.058,1.672-17.14-0.418
			s-11.287-7.525-20.763-7.525c-1.345,0-2.511-0.118-3.549-0.306c3.988,3.2,26.968,19.498,69.462,8.528c0,0-0.009-0.013-0.024-0.034
			C130.586,212.547,126.44,211.621,123.141,212.691z"/>
		<path fill="none" stroke="#000000" stroke-linecap="round" stroke-linejoin="round" stroke-miterlimit="10" d="M87.231,190.898
			c0,0-0.321,3.539-8.125,4.793c-12.23,1.965-16.025,8.64-16.025,8.64s23.132,21.181,70.093,9.058c0,0-6.549-9.754-12.402-12.402
			s-7.246-6.131-6.967-8.361l-13.517,6.41c0,0-10.033,9.197-11.566-2.369L87.231,190.898z"/>
	</g>
	<g>
		<linearGradient id="SVGID_1_" gradientUnits="userSpaceOnUse" x1="81.5411" y1="190.0454" x2="88.1264" y2="177.1654">
			<stop  offset="0" style="stop-color:#D19090"/>
			<stop  offset="0.9974" style="stop-color:#EF8C9A"/>
		</linearGradient>
		<path fill="url(#SVGID_1_)" d="M164.496,135.326c-1.69,6.48-5.247,9.548-18.655,15.736c-14.646,6.76-17.149,16.897-15.101,23.857
			c2.047,6.961-6.438,11.166-11.556,15.67c-5.118,4.504-6.345,14.458-6.345,14.458s-4.975-1.116-8.33-1.755
			c-4.299-0.822-10.087,1.14-10.087,1.14c-0.935,0.146,29.921-40.34,30.809-46.023c0.887-5.682,20.646-31.294-21.81-52.326
			c0,0-32.591-16.623-13.871-38.384c11.672-13.569,42.123-9.569,67.1,30.557C165.98,113.248,165.257,132.408,164.496,135.326z"/>
		<path opacity="0.2" fill="#FFFFFF" enable-background="new    " d="M125.501,71.801c-9.99-12.031-21.552-7.297-21.552-7.297
			C118.182,65.477,125.502,71.801,125.501,71.801z"/>
		<path fill="#D18488" d="M97.935,202.619c2.228-2.852,29.313-39.398,30.201-45.081c0.887-5.682,20.646-31.294-21.81-52.326
			c0,0-32.591-16.623-13.871-38.384c2.58-2.999,5.57-5.039,8.823-6.272c-4.384,0.997-8.397,3.272-11.728,7.144
			c-18.72,21.76,13.871,38.384,13.871,38.384c42.457,21.032,22.698,46.644,21.81,52.326c-0.888,5.683-31.744,46.17-30.809,46.023
			L97.935,202.619z"/>
		<path fill="none" stroke="#000000" stroke-linecap="round" stroke-linejoin="round" stroke-miterlimit="10" d="M94.422,204.433
			c0,0,29.921-40.34,30.809-46.023c0.887-5.682,20.646-31.294-21.81-52.326c0,0-32.591-16.623-13.871-38.384
			c11.672-13.569,42.123-9.569,67.1,30.557c9.331,14.991,8.608,34.15,7.847,37.069c-1.69,6.48-5.247,9.548-18.655,15.736
			c-14.646,6.76-17.149,16.897-15.101,23.857c2.047,6.961-6.438,11.166-11.556,15.67c-5.118,4.504-6.345,14.458-6.345,14.458"/>
		
			<linearGradient id="SVGID_00000181067330134021949280000017361934389710219163_" gradientUnits="userSpaceOnUse" x1="95.4031" y1="199.4026" x2="99.18" y2="189.8152">
			<stop  offset="0" style="stop-color:#D19090"/>
			<stop  offset="0.9902" style="stop-color:#A72133"/>
		</linearGradient>
		<path fill="url(#SVGID_00000181067330134021949280000017361934389710219163_)" d="M100.82,203.033
			c-0.721,0.411,1.855-0.474,4.049-3.751c1.565-2.336,2.52-8.063,4.093-10.272c1.575-2.208,3.35-5.349,6.647-7.401
			c3.298-2.051,4.364-12.265,6.963-12.822c2.599-0.562,5.692-6.328,7.004-9.462c1.312-3.644,6.933-6.267,8.433-7.548
			c1.5-1.28-0.335-4.631,1.819-8.061c0.495-0.789,1.474-3.509,0.778-5.469c-0.763-2.16,0.644-3.903-0.461-6.546
			c-2.261-5.402-1.968-8.746-0.729-9.256c1.676-0.875,2.865,4.152,4.816,3.658c3.01-0.763,2.452-6.325,1.985-8.481
			c-2.355-7.371-12.192-19.013-20.948-25.025c-8.759-6.009-24.79-4.493-23.949-12.055c0.839-7.562,18.375,5.162,22.257,8.212
			c3.881,3.047,19.032,16.063,23.221,25.537c1.647,3.297,5.571,15.485,9.237,15.005c5.612-1.385-1.765-15.197,3.353-9.767
			c7.525,11.148,1.074,20.757-4.082,22.012c-5.295,0.836-7.507-2.624-11.304,2.851c-3.417,6.408,0.205,6.051-7.386,11.009
			c-7.592,4.957-6.982,12.543-11.023,15.302c-4.043,2.76-5.402,6.27-6.284,11.068c-0.884,4.799-2.933,5.72-6.563,8.714
			c-3.634,2.997-5.124,13.168-5.124,13.168L100.82,203.033z"/>
		<g>
			<path fill="#8E192D" d="M100.92,203.042l-0.1-0.009C100.616,203.149,100.682,203.157,100.92,203.042z"/>
			<path fill="#8E192D" d="M156.733,129.014c0.171,0.019,0.342,0.025,0.512,0.003c3.855-0.951,1.582-7.765,1.438-10.18
				C155.2,115.698,160.736,126.778,156.733,129.014z"/>
			<path fill="#8E192D" d="M125.268,92.598c8.757,6.012,18.594,17.653,20.949,25.025c0.466,1.775,1.028,6.742-1.321,8.186
				c0.177,0.046,0.358,0.063,0.548,0.015c3.01-0.763,3.119-6.954,1.985-8.481c-2.355-7.371-12.192-19.013-20.949-25.025
				c-8.758-6.009-24.79-4.493-23.949-12.056c0.12-1.08,0.589-1.734,1.301-2.074c-1.397,0.062-2.335,0.746-2.513,2.354
				C100.478,88.105,116.509,86.588,125.268,92.598z"/>
			<path fill="#8E192D" d="M148.336,141.24c1.895-0.158,3.921,0.782,6.969,0.301c0.217-0.053,0.436-0.125,0.656-0.207
				C152.59,141.696,150.502,140.38,148.336,141.24z"/>
			<path fill="#8E192D" d="M102.132,202.763c-0.239,0.115-0.304,0.107-0.1-0.009L102.132,202.763
				c0.608-0.292,2.374-1.407,3.949-3.76c1.566-2.336,2.52-8.063,4.093-10.272c1.575-2.208,3.35-5.349,6.647-7.401
				c3.298-2.051,4.364-12.265,6.963-12.822c2.599-0.562,5.692-6.328,7.004-9.462c1.312-3.644,6.933-6.267,8.433-7.548
				c1.5-1.28-0.336-4.631,1.819-8.061c0.495-0.789,1.474-3.509,0.778-5.469c-0.763-2.16,0.644-3.903-0.461-6.546
				c-1.996-4.768-2.001-7.93-1.122-8.958c-0.263-0.137-0.533-0.168-0.818-0.019c-1.239,0.51-1.533,3.854,0.729,9.257
				c1.106,2.642-0.301,4.385,0.462,6.546c0.696,1.96-0.283,4.68-0.778,5.469c-2.154,3.43-0.319,6.781-1.819,8.061
				c-1.5,1.281-7.121,3.904-8.433,7.548c-1.312,3.134-4.405,8.9-7.004,9.462c-2.6,0.556-3.665,10.771-6.963,12.822
				c-3.296,2.053-5.072,5.193-6.647,7.401c-1.573,2.209-2.528,7.936-4.093,10.272c-1.575,2.353-3.342,3.468-3.949,3.76
				L102.132,202.763z"/>
		</g>
		<path fill="none" stroke="#000000" stroke-linecap="round" stroke-linejoin="round" stroke-miterlimit="10" d="M100.82,203.033
			c-0.721,0.411,1.855-0.474,4.049-3.751c1.565-2.336,2.52-8.063,4.093-10.272c1.575-2.208,3.35-5.349,6.647-7.401
			c3.298-2.051,4.364-12.265,6.963-12.822c2.599-0.562,5.692-6.328,7.004-9.462c1.312-3.644,6.933-6.267,8.433-7.548
			c1.5-1.28-0.335-4.631,1.819-8.061c0.495-0.789,1.474-3.509,0.778-5.469c-0.763-2.16,0.644-3.903-0.461-6.546
			c-2.261-5.402-1.968-8.746-0.729-9.256c1.676-0.875,2.865,4.152,4.816,3.658c3.01-0.763,2.452-6.325,1.985-8.481
			c-2.355-7.371-12.192-19.013-20.948-25.025c-8.759-6.009-24.79-4.493-23.949-12.055c0.839-7.562,18.375,5.162,22.257,8.212
			c3.881,3.047,19.032,16.063,23.221,25.537c1.647,3.297,5.571,15.485,9.237,15.005c5.612-1.385-1.765-15.197,3.353-9.767
			c7.525,11.148,1.074,20.757-4.082,22.012c-5.295,0.836-7.507-2.624-11.304,2.851c-3.417,6.408,0.205,6.051-7.386,11.009
			c-7.592,4.957-6.982,12.543-11.023,15.302c-4.043,2.76-5.402,6.27-6.284,11.068c-0.884,4.799-2.933,5.72-6.563,8.714
			c-3.634,2.997-5.124,13.168-5.124,13.168"/>
	</g>
	<g>
		
			<linearGradient id="SVGID_00000076576312551186414020000009904050918515288762_" gradientUnits="userSpaceOnUse" x1="59.3729" y1="178.9424" x2="68.0887" y2="166.7403">
			<stop  offset="0" style="stop-color:#D19090"/>
			<stop  offset="0.9902" style="stop-color:#F9BEB6"/>
		</linearGradient>
		<path fill="url(#SVGID_00000076576312551186414020000009904050918515288762_)" d="M88.678,201.031
			c2.633-8.034,6.866-11.662,11.076-16.699c2.048-2.453,3.637-4.428,5.312-6.464c5.172-6.279,13.723-21.873,13.723-21.873
			c20.808-3.152,19.331-14.727,19.331-14.727c0.168-6.41,1.345-36.265-35.086-40.476c-36.433-4.212-47.394,7.234-47.394,7.234
			c-3.378,4.435,1.611,9.944,6.966,15.642c4.799,5.11,9.849,10.586,10.106,12.002c0.543,2.998,9.671,18.367,18.025,20.107
			c8.355,1.74,15.844,0.504,17.025,5.058c0.776,2.995-7.849,13.379-14.956,20.366c-3.057,3.007-6.832,8.295-8.58,12.905
			c-0.46,1.029-0.701,2.862-0.701,2.862L88.678,201.031z"/>
		<path fill="none" stroke="#000000" stroke-linecap="round" stroke-linejoin="round" stroke-miterlimit="10" d="M88.678,201.031
			c2.633-8.034,6.866-11.662,11.076-16.699c2.048-2.453,3.637-4.428,5.312-6.464c5.172-6.279,13.723-21.873,13.723-21.873
			c20.808-3.152,19.331-14.727,19.331-14.727c0.168-6.41,1.345-36.265-35.086-40.476c-36.433-4.212-47.394,7.234-47.394,7.234
			c-3.378,4.435,1.611,9.944,6.966,15.642c4.799,5.11,9.849,10.586,10.106,12.002c0.543,2.998,9.671,18.367,18.025,20.107
			c8.355,1.74,15.844,0.504,17.025,5.058c0.776,2.995-7.849,13.379-14.956,20.366c-3.057,3.007-6.832,8.295-8.58,12.905
			c-0.394,1.039-0.606,2.002-0.701,2.862"/>
		<path fill="#8C1D28" d="M85.159,197.837c0.872-3.972,3.449-10.27,7.479-14.399c11.77-12.061,16.819-19.085,18.995-25.524
			c3.046-9.022-11.381-5.243-13.926-5.553c-2.166-0.267-4.405-0.54-6.64-1.004c-0.163-0.035-0.33-0.08-0.496-0.131
			c-0.046-0.014-0.088-0.03-0.132-0.043c-0.146-0.047-0.295-0.103-0.444-0.165c-0.02-0.01-0.043-0.015-0.063-0.024
			c-0.167-0.073-0.337-0.153-0.506-0.235c-0.043-0.024-0.088-0.046-0.132-0.069c-0.142-0.075-0.284-0.153-0.426-0.238
			c-0.033-0.018-0.067-0.038-0.102-0.058c-0.169-0.102-0.341-0.213-0.511-0.327c-0.041-0.028-0.082-0.057-0.124-0.085
			c-0.14-0.097-0.283-0.198-0.423-0.302c-0.041-0.032-0.081-0.06-0.122-0.089c-0.172-0.13-0.342-0.264-0.513-0.404
			c-0.036-0.031-0.073-0.062-0.108-0.091c-0.144-0.119-0.286-0.24-0.428-0.364c-0.044-0.039-0.09-0.079-0.134-0.12
			c-0.172-0.15-0.342-0.307-0.512-0.468c-0.025-0.022-0.052-0.047-0.077-0.072c-0.149-0.142-0.296-0.287-0.445-0.436
			c-0.046-0.046-0.093-0.091-0.138-0.138c-0.168-0.172-0.338-0.346-0.505-0.522c-0.009-0.009-0.015-0.017-0.024-0.026
			c-0.16-0.172-0.321-0.349-0.48-0.524c-0.046-0.05-0.091-0.101-0.137-0.152c-0.147-0.164-0.292-0.331-0.438-0.498
			c-0.021-0.025-0.04-0.049-0.061-0.071c-0.161-0.189-0.32-0.381-0.479-0.573c-0.043-0.053-0.088-0.106-0.13-0.159
			c-0.131-0.16-0.26-0.321-0.388-0.483c-0.032-0.039-0.066-0.081-0.098-0.12c-0.151-0.195-0.302-0.389-0.451-0.583
			c-0.041-0.055-0.082-0.109-0.123-0.163c-0.117-0.157-0.234-0.314-0.351-0.47c-0.038-0.051-0.077-0.102-0.115-0.153
			c-0.142-0.195-0.282-0.391-0.421-0.583c-0.035-0.052-0.069-0.101-0.105-0.153c-0.109-0.153-0.215-0.306-0.321-0.46
			c-0.041-0.058-0.082-0.118-0.123-0.179c-0.129-0.189-0.256-0.376-0.382-0.566c-0.03-0.045-0.059-0.09-0.089-0.137
			c-0.101-0.151-0.199-0.299-0.294-0.448c-0.041-0.064-0.083-0.127-0.122-0.19c-0.112-0.175-0.222-0.348-0.33-0.521
			c-1.329-2.137-2.244-3.972-2.473-4.86c-0.013-0.078-0.032-0.159-0.051-0.239c-0.021-0.089-0.045-0.179-0.073-0.271
			c-0.001-0.004-0.001-0.008-0.003-0.011c-0.053-0.186-0.124-0.377-0.208-0.58c-0.002,0-0.002-0.002-0.003-0.003
			c-0.042-0.1-0.09-0.205-0.143-0.312l0.001-0.001c-0.319-0.654-0.818-1.432-1.613-2.464l0,0c-0.587-0.763-1.336-1.665-2.294-2.763
			c0,0,0,0-0.002-0.002c-0.156-0.179-0.319-0.363-0.486-0.554c-0.005-0.006-0.011-0.011-0.016-0.018
			c-0.167-0.186-0.338-0.382-0.516-0.58c-0.005-0.006-0.011-0.011-0.016-0.017c-0.178-0.198-0.362-0.404-0.55-0.612
			c-0.008-0.009-0.014-0.017-0.023-0.028c-0.187-0.207-0.38-0.419-0.578-0.637c-0.011-0.01-0.02-0.022-0.031-0.034
			c-0.201-0.221-0.409-0.446-0.621-0.679c-0.009-0.011-0.017-0.019-0.025-0.029c-0.215-0.234-0.438-0.475-0.666-0.721
			c-0.009-0.009-0.015-0.018-0.024-0.027c-0.218-0.241-0.447-0.484-0.68-0.736c-0.018-0.02-0.038-0.04-0.056-0.061
			c-0.247-0.265-0.497-0.537-0.757-0.813c-0.004-0.004-0.008-0.01-0.011-0.012c-0.532-0.571-1.095-1.171-1.69-1.804
			c-0.26-0.278-0.535-0.572-0.82-0.878c-0.015-0.014-0.029-0.029-0.044-0.046c-0.292-0.312-0.59-0.634-0.894-0.967
			c-0.006-0.009-0.013-0.016-0.02-0.023c-0.308-0.337-0.619-0.684-0.928-1.035c-0.003-0.004-0.008-0.008-0.011-0.01
			c-0.311-0.353-0.621-0.712-0.924-1.069c0.001-0.002-0.002-0.004-0.003-0.005l0,0c-1.152-1.368-2.184-2.747-2.774-3.919
			c-0.01-0.021-0.018-0.039-0.029-0.06c-0.05-0.1-0.096-0.199-0.137-0.296c-0.015-0.029-0.028-0.062-0.039-0.093
			c-0.038-0.087-0.072-0.175-0.102-0.26c-0.01-0.027-0.019-0.056-0.028-0.084c-0.076-0.219-0.129-0.426-0.155-0.62
			c-0.004-0.026-0.005-0.052-0.006-0.077c-0.008-0.067-0.014-0.137-0.013-0.201c0-0.031,0.002-0.06,0.003-0.088
			c0.003-0.061,0.009-0.119,0.019-0.179c0.004-0.024,0.008-0.049,0.013-0.074c0.018-0.081,0.041-0.157,0.074-0.229
			c0.041-0.033,0.088-0.072,0.144-0.114c0.296-0.231,0.784-0.58,1.479-1.001l0,0c0.005-0.002,0.012-0.008,0.017-0.009
			c0.13-0.078,0.264-0.157,0.406-0.239c0.025-0.014,0.051-0.028,0.076-0.041c0.13-0.076,0.265-0.151,0.409-0.228
			c0.036-0.019,0.072-0.039,0.109-0.059c0.138-0.074,0.284-0.15,0.434-0.228c0.042-0.02,0.083-0.039,0.124-0.061
			c0.156-0.078,0.319-0.159,0.484-0.237c0.042-0.02,0.085-0.041,0.127-0.061c0.181-0.085,0.368-0.171,0.561-0.257
			c0.033-0.014,0.067-0.03,0.099-0.046c0.223-0.099,0.458-0.2,0.699-0.301c0.005-0.004,0.011-0.004,0.016-0.007
			c1.017-0.42,2.191-0.85,3.537-1.264c0.04-0.011,0.083-0.023,0.124-0.038c0.291-0.088,0.588-0.174,0.894-0.26
			c0.065-0.019,0.13-0.036,0.194-0.054c0.292-0.081,0.588-0.159,0.892-0.237c0.079-0.02,0.16-0.041,0.24-0.06
			c0.297-0.075,0.601-0.149,0.912-0.221c0.091-0.021,0.18-0.043,0.271-0.064c0.312-0.07,0.63-0.139,0.953-0.207
			c0.098-0.02,0.194-0.041,0.291-0.06c0.334-0.068,0.674-0.133,1.021-0.199c0.094-0.017,0.183-0.034,0.28-0.051
			c0.366-0.067,0.742-0.131,1.125-0.192c0.061-0.01,0.12-0.022,0.183-0.032c-0.002,0.002-0.002,0.002-0.002,0.002
			c0.431-0.068,0.874-0.133,1.326-0.196c-0.002-0.001-0.003-0.002-0.005-0.002c0.057-0.009,0.116-0.015,0.175-0.023
			c0.18-0.025,0.366-0.047,0.549-0.071c0.268-0.033,0.535-0.07,0.808-0.099c0.194-0.024,0.388-0.046,0.585-0.066
			c0.275-0.03,0.552-0.059,0.834-0.086c0.201-0.02,0.407-0.039,0.613-0.058c0.287-0.025,0.576-0.051,0.867-0.072
			c0.21-0.018,0.422-0.033,0.637-0.048c0.3-0.023,0.607-0.041,0.914-0.061c0.214-0.011,0.427-0.025,0.647-0.038
			c0.322-0.017,0.654-0.03,0.986-0.044c0.211-0.009,0.417-0.019,0.632-0.026c0.371-0.014,0.752-0.022,1.133-0.031
			c0.183-0.005,0.362-0.011,0.546-0.013c0.572-0.011,1.15-0.016,1.742-0.017c4.588-0.001,9.548,0.305,14.741,0.905
			c0.656,0.074,1.3,0.16,1.935,0.255c0.302,0.045,0.596,0.097,0.894,0.147c0.324,0.052,0.648,0.103,0.966,0.159
			c0.377,0.068,0.744,0.147,1.112,0.221c0.229,0.047,0.461,0.091,0.686,0.138c0.394,0.087,0.778,0.181,1.166,0.275
			c0.164,0.039,0.331,0.075,0.494,0.116c-0.004,0-0.006,0-0.009,0c2.088,0.531,4.043,1.183,5.865,1.948
			c0.001,0.002,0.003,0.003,0.008,0.002c0.033,0.016,0.068,0.033,0.104,0.048c0.531,0.226,1.053,0.461,1.562,0.708
			c0.065,0.032,0.131,0.065,0.198,0.097c0.511,0.252,1.012,0.514,1.502,0.786c0.048,0.026,0.093,0.052,0.14,0.077
			c2.028,1.147,3.854,2.47,5.47,3.975c0.282,0.262,0.559,0.527,0.828,0.8c0.175,0.178,0.342,0.362,0.511,0.543
			c0.143,0.155,0.285,0.305,0.424,0.459c0.188,0.213,0.37,0.431,0.551,0.65c0.106,0.126,0.215,0.254,0.317,0.383
			c0.194,0.243,0.384,0.49,0.571,0.74c0.038,0.052,0.078,0.099,0.116,0.15c-0.002,0.001-0.004,0.001-0.007,0.001
			c3.043,4.143,4.957,9.258,5.727,15.333l0,0c0.003,0.004,0.003,0.009,0.003,0.014c0.076,0.621,0.145,1.254,0.201,1.897
			c0.001,0.012,0.003,0.026,0.003,0.039c0.053,0.613,0.094,1.233,0.123,1.864c0.004,0.053,0.008,0.104,0.011,0.159
			c0.025,0.581,0.04,1.174,0.048,1.775c0.002,0.099,0.006,0.195,0.007,0.294c0.004,0.686,0,1.382-0.018,2.089l-0.015,0.51l0,0
			l-0.003,0.123l0.032,0.149c0.017,0.809-1.364,6.481-12.112,7.704c-0.284,0.034-0.576,0.066-0.875,0.091
			c-4.741,0.41-4.994,5.492-7.279,10.683c-2.284,5.19-6.41,11.066-7.483,12.754c-4.264,6.713-9.42,10.832-14.47,17.54
			c-0.159,0.213-0.299,0.419-0.445,0.626c-3.579,5.256-3.516,7.793-3.703,9.103"/>
		<path fill="#AD343E" d="M76.253,104.656c3.324-0.46,7.192-0.749,11.668-0.751c4.588-0.001,9.548,0.305,14.741,0.906
			c2.576,0.297,4.993,0.736,7.254,1.312c-0.306,0.022-0.611,0.036-0.917,0.064c-5.355,0.494-10.512,1.38-15.917,1.233
			C87.372,107.264,81.755,106.118,76.253,104.656z"/>
		<path fill="#AD343E" d="M115.779,108.073c2.429,1.024,4.625,2.256,6.576,3.697c-0.843,0.058-1.686,0.12-2.53,0.176
			c-4.156,0.274-8.32,0.065-12.472,0.459c-3.821,0.36-7.288,1.688-10.959,2.691c-4.435,1.213-8.567,0.871-12.958-0.318
			c-7.545-2.045-15.338-2.398-22.718-5.152c-0.094-0.034-0.18-0.051-0.265-0.06c2.275-1.371,6.815-3.493,14.481-4.713
			c-0.415,0.495-0.37,1.393,0.44,1.611c10.391,2.789,20.554,3.582,31.22,2.02C109.697,108.031,112.754,107.925,115.779,108.073z"/>
		<path fill="#AD343E" d="M129.291,119.303c1.578,2.565,2.778,5.455,3.594,8.666c-0.141,5.768-5.587,11.216-11.895,9.424
			c-3.945-1.123-6.699-4.566-10.658-5.717c-3.901-1.133-8.365-0.504-12.341-0.193c-3.772,0.296-7.772,0.438-11.233-1.325
			c-3.239-1.652-3.738-4.97-5.953-7.422c-0.669-0.739-1.533-1.333-2.486-1.828c3.568-0.055,6.773,0.535,10.099,2.351
			c3.048,1.662,5.735,3.059,9.305,2.757c1.713-0.144,3.4-0.613,5.076-0.968c2.312-0.49,4.353-0.247,6.578,0.439
			c4.764,1.467,8.274,4.316,12.649,0.325c2.098-1.913,2.907-5.286,5.769-6.204C128.284,119.451,128.785,119.353,129.291,119.303z"/>
		<path fill="#AD343E" d="M72.333,118.733c-4.3-1.371-8.366-2.581-12.056-5.296c-0.302-0.222-0.601-0.226-0.845-0.108
			c-0.609-1.085-0.889-2.021-0.604-2.646c0.165-0.133,0.426-0.335,0.788-0.58c-0.209,0.492-0.075,1.18,0.575,1.422
			c7.651,2.855,15.782,3.271,23.615,5.395c3.539,0.959,7.002,1.193,10.626,0.622c4.417-0.692,8.45-2.646,12.92-3.168
			c4.13-0.481,8.322-0.267,12.472-0.458c1.612-0.076,3.207-0.199,4.797-0.282c1.279,1.174,2.429,2.46,3.452,3.855
			c-1.635,0.308-3.114,1.077-4.195,2.556c-1.795,2.451-3.46,6.138-7.01,6.047c-2.528-0.065-5.177-1.952-7.572-2.687
			c-3.249-1.002-6.16-0.449-9.402,0.26c-2.358,0.517-4.469,0.613-6.768-0.195c-2.027-0.712-3.844-2.047-5.78-2.967
			c-4.304-2.048-8.93-1.72-13.573-1.324C73.276,119.025,72.792,118.878,72.333,118.733z"/>
		<path fill="#AD343E" d="M74.69,131.023c-1.567-2.036-4.281-5.066-9.041-10.13c-1.082-1.154-2.428-2.584-3.643-4.031
			c3.074,1.688,6.374,2.708,9.806,3.768c2.259,0.698,4.538,1.512,6.607,2.666c1.249,0.699,1.767,2.18,2.428,3.366
			c4.405,7.9,12.907,7.173,20.764,6.48c2.655-0.232,5.6-0.149,8.195,0.433c2.382,0.535,4.384,2.272,6.371,3.597
			c3.404,2.267,7.118,3.262,11.038,1.797c3.027-1.132,5.315-3.419,6.58-6.148c0.325,2.545,0.453,5.253,0.377,8.132l-0.015,0.51
			c-0.778,0.21-1.611,0.346-2.519,0.384c-2.822,0.121-5.638-0.307-8.462-0.242c-4.152,0.092-8.238,0.903-12.357-0.026
			c-3.065-0.689-5.258-3.286-8.027-4.612c-2.969-1.419-6.936,0.172-10.138-0.269C86.39,135.838,80.807,132.5,74.69,131.023z"/>
		<path fill="#AD343E" d="M133.531,143.662c-0.727,1.292-2.197,2.953-5.094,4.203c-6.053-0.193-11.862-1.408-17.877-2.825
			c-3.953-0.929-8.091-1.143-11.951-2.398c-3.168-1.029-6.226-2.963-9.623-3.18c-2.193-0.14-4.366,0.344-6.533-0.163
			c-1.991-0.466-3.816-2.638-5.177-4.047c-0.185-0.193-0.364-0.39-0.547-0.586c-0.086-0.365-0.219-0.745-0.429-1.177
			c5.575,1.657,10.825,4.418,16.648,5.219c3.762,0.519,7.3-1.17,10.741,1.012c2.877,1.825,5.061,3.742,8.602,4.129
			c3.939,0.433,7.858-0.208,11.799-0.297c3.028-0.065,6.018,0.456,9.05,0.164C133.273,143.703,133.4,143.679,133.531,143.662z"/>
		
			<linearGradient id="SVGID_00000093140887171965395660000012160707833729161604_" gradientUnits="userSpaceOnUse" x1="75.4461" y1="195.3184" x2="81.1451" y2="184.0171">
			<stop  offset="0" style="stop-color:#D19090"/>
			<stop  offset="0.9902" style="stop-color:#AD343E"/>
		</linearGradient>
		<path fill="url(#SVGID_00000093140887171965395660000012160707833729161604_)" d="M122.86,149.341
			c-0.531,0.074-1.078,0.138-1.657,0.19c-4.741,0.41-4.994,5.492-7.279,10.683c-2.284,5.19-6.41,11.066-7.483,12.754
			c-4.264,6.713-9.42,10.832-14.47,17.54c-4.162,5.527-3.648,8.787-4.148,9.73c0.159,0.433-2.138,1.657-2.962,0.632
			c-0.389-2.563,2.351-11.973,7.773-17.429c11.998-12.076,16.819-19.085,18.995-25.524c3.046-9.022-11.381-5.243-13.926-5.553
			c-2.166-0.267-4.405-0.54-6.64-1.004c-4.042-0.841-8.922-6.954-11.82-11.616c1.623,1.067,3.418,1.756,5.489,1.787
			c2.48,0.037,4.597-0.136,7.031,0.581c1.727,0.508,3.369,1.289,5.036,1.956c4.205,1.683,8.847,1.868,13.237,2.871
			C114.402,147.939,118.606,148.822,122.86,149.341z"/>
		<path fill="none" stroke="#000000" stroke-linecap="round" stroke-linejoin="round" stroke-miterlimit="10" d="M85.159,197.837
			c0.872-3.972,3.449-10.27,7.479-14.399c11.77-12.061,16.819-19.085,18.995-25.524c3.046-9.022-11.381-5.243-13.926-5.553
			c-2.166-0.267-4.405-0.54-6.64-1.004c-0.163-0.035-0.33-0.08-0.496-0.131c-0.046-0.014-0.088-0.03-0.132-0.043
			c-0.146-0.047-0.295-0.103-0.444-0.165c-0.02-0.01-0.043-0.015-0.063-0.024c-0.167-0.073-0.337-0.153-0.506-0.235
			c-0.043-0.024-0.088-0.046-0.132-0.069c-0.142-0.075-0.284-0.153-0.426-0.238c-0.033-0.018-0.067-0.038-0.102-0.058
			c-0.169-0.102-0.341-0.213-0.511-0.327c-0.041-0.028-0.082-0.057-0.124-0.085c-0.14-0.097-0.283-0.198-0.423-0.302
			c-0.041-0.032-0.081-0.06-0.122-0.089c-0.172-0.13-0.342-0.264-0.513-0.404c-0.036-0.031-0.073-0.062-0.108-0.091
			c-0.144-0.119-0.286-0.24-0.428-0.364c-0.044-0.039-0.09-0.079-0.134-0.12c-0.172-0.15-0.342-0.307-0.512-0.468
			c-0.025-0.022-0.052-0.047-0.077-0.072c-0.149-0.142-0.296-0.287-0.445-0.436c-0.046-0.046-0.093-0.091-0.138-0.138
			c-0.168-0.172-0.338-0.346-0.505-0.522c-0.009-0.009-0.015-0.017-0.024-0.026c-0.16-0.172-0.321-0.349-0.48-0.524
			c-0.046-0.05-0.091-0.101-0.137-0.152c-0.147-0.164-0.292-0.331-0.438-0.498c-0.021-0.025-0.04-0.049-0.061-0.071
			c-0.161-0.189-0.32-0.381-0.479-0.573c-0.043-0.053-0.088-0.106-0.13-0.159c-0.131-0.16-0.26-0.321-0.388-0.483
			c-0.032-0.039-0.066-0.081-0.098-0.12c-0.151-0.195-0.302-0.389-0.451-0.583c-0.041-0.055-0.082-0.109-0.123-0.163
			c-0.117-0.157-0.234-0.314-0.351-0.47c-0.038-0.051-0.077-0.102-0.115-0.153c-0.142-0.195-0.282-0.391-0.421-0.583
			c-0.035-0.052-0.069-0.101-0.105-0.153c-0.109-0.153-0.215-0.306-0.321-0.46c-0.041-0.058-0.082-0.118-0.123-0.179
			c-0.129-0.189-0.256-0.376-0.382-0.566c-0.03-0.045-0.059-0.09-0.089-0.137c-0.101-0.151-0.199-0.299-0.294-0.448
			c-0.041-0.064-0.083-0.127-0.122-0.19c-0.112-0.175-0.222-0.348-0.33-0.521c-1.329-2.137-2.244-3.972-2.473-4.86
			c-0.013-0.078-0.032-0.159-0.051-0.239c-0.021-0.089-0.045-0.179-0.073-0.271c-0.001-0.004-0.001-0.008-0.003-0.011
			c-0.053-0.186-0.124-0.377-0.208-0.58c-0.002,0-0.002-0.002-0.003-0.003c-0.042-0.1-0.09-0.205-0.143-0.312l0.001-0.001
			c-0.319-0.654-0.818-1.432-1.613-2.464l0,0c-0.587-0.763-1.336-1.665-2.294-2.763c0,0,0,0-0.002-0.002
			c-0.156-0.179-0.319-0.363-0.486-0.554c-0.005-0.006-0.011-0.011-0.016-0.018c-0.167-0.186-0.338-0.382-0.516-0.58
			c-0.005-0.006-0.011-0.011-0.016-0.017c-0.178-0.198-0.362-0.404-0.55-0.612c-0.008-0.009-0.014-0.017-0.023-0.028
			c-0.187-0.207-0.38-0.419-0.578-0.637c-0.011-0.01-0.02-0.022-0.031-0.034c-0.201-0.221-0.409-0.446-0.621-0.679
			c-0.009-0.011-0.017-0.019-0.025-0.029c-0.215-0.234-0.438-0.475-0.666-0.721c-0.009-0.009-0.015-0.018-0.024-0.027
			c-0.218-0.241-0.447-0.484-0.68-0.736c-0.018-0.02-0.038-0.04-0.056-0.061c-0.247-0.265-0.497-0.537-0.757-0.813
			c-0.004-0.004-0.008-0.01-0.011-0.012c-0.532-0.571-1.095-1.171-1.69-1.804c-0.26-0.278-0.535-0.572-0.82-0.878
			c-0.015-0.014-0.029-0.029-0.044-0.046c-0.292-0.312-0.59-0.634-0.894-0.967c-0.006-0.009-0.013-0.016-0.02-0.023
			c-0.308-0.337-0.619-0.684-0.928-1.035c-0.003-0.004-0.008-0.008-0.011-0.01c-0.311-0.353-0.621-0.712-0.924-1.069
			c0.001-0.002-0.002-0.004-0.003-0.005l0,0c-1.152-1.368-2.184-2.747-2.774-3.919c-0.01-0.021-0.018-0.039-0.029-0.06
			c-0.05-0.1-0.096-0.199-0.137-0.296c-0.015-0.029-0.028-0.062-0.039-0.093c-0.038-0.087-0.072-0.175-0.102-0.26
			c-0.01-0.027-0.019-0.056-0.028-0.084c-0.076-0.219-0.129-0.426-0.155-0.62c-0.004-0.026-0.005-0.052-0.006-0.077
			c-0.008-0.067-0.014-0.137-0.013-0.201c0-0.031,0.002-0.06,0.003-0.088c0.003-0.061,0.009-0.119,0.019-0.179
			c0.004-0.024,0.008-0.049,0.013-0.074c0.018-0.081,0.041-0.157,0.074-0.229c0.041-0.033,0.088-0.072,0.144-0.114
			c0.296-0.231,0.784-0.58,1.479-1.001l0,0c0.005-0.002,0.012-0.008,0.017-0.009c0.13-0.078,0.264-0.157,0.406-0.239
			c0.025-0.014,0.051-0.028,0.076-0.041c0.13-0.076,0.265-0.151,0.409-0.228c0.036-0.019,0.072-0.039,0.109-0.059
			c0.138-0.074,0.284-0.15,0.434-0.228c0.042-0.02,0.083-0.039,0.124-0.061c0.156-0.078,0.319-0.159,0.484-0.237
			c0.042-0.02,0.085-0.041,0.127-0.061c0.181-0.085,0.368-0.171,0.561-0.257c0.033-0.014,0.067-0.03,0.099-0.046
			c0.223-0.099,0.458-0.2,0.699-0.301c0.005-0.004,0.011-0.004,0.016-0.007c1.017-0.42,2.191-0.85,3.537-1.264
			c0.04-0.011,0.083-0.023,0.124-0.038c0.291-0.088,0.588-0.174,0.894-0.26c0.065-0.019,0.13-0.036,0.194-0.054
			c0.292-0.081,0.588-0.159,0.892-0.237c0.079-0.02,0.16-0.041,0.24-0.06c0.297-0.075,0.601-0.149,0.912-0.221
			c0.091-0.021,0.18-0.043,0.271-0.064c0.312-0.07,0.63-0.139,0.953-0.207c0.098-0.02,0.194-0.041,0.291-0.06
			c0.334-0.068,0.674-0.133,1.021-0.199c0.094-0.017,0.183-0.034,0.28-0.051c0.366-0.067,0.742-0.131,1.125-0.192
			c0.061-0.01,0.12-0.022,0.183-0.032c-0.002,0.002-0.002,0.002-0.002,0.002c0.431-0.068,0.874-0.133,1.326-0.196
			c-0.002-0.001-0.003-0.002-0.005-0.002c0.057-0.009,0.116-0.015,0.175-0.023c0.18-0.025,0.366-0.047,0.549-0.071
			c0.268-0.033,0.535-0.07,0.808-0.099c0.194-0.024,0.388-0.046,0.585-0.066c0.275-0.03,0.552-0.059,0.834-0.086
			c0.201-0.02,0.407-0.039,0.613-0.058c0.287-0.025,0.576-0.051,0.867-0.072c0.21-0.018,0.422-0.033,0.637-0.048
			c0.3-0.023,0.607-0.041,0.914-0.061c0.214-0.011,0.427-0.025,0.647-0.038c0.322-0.017,0.654-0.03,0.986-0.044
			c0.211-0.009,0.417-0.019,0.632-0.026c0.371-0.014,0.752-0.022,1.133-0.031c0.183-0.005,0.362-0.011,0.546-0.013
			c0.572-0.011,1.15-0.016,1.742-0.017c4.588-0.001,9.548,0.305,14.741,0.905c0.656,0.074,1.3,0.16,1.935,0.255
			c0.302,0.045,0.596,0.097,0.894,0.147c0.324,0.052,0.648,0.103,0.966,0.159c0.377,0.068,0.744,0.147,1.112,0.221
			c0.229,0.047,0.461,0.091,0.686,0.138c0.394,0.087,0.778,0.181,1.166,0.275c0.164,0.039,0.331,0.075,0.494,0.116
			c-0.004,0-0.006,0-0.009,0c2.088,0.531,4.043,1.183,5.865,1.948c0.001,0.002,0.003,0.003,0.008,0.002
			c0.033,0.016,0.068,0.033,0.104,0.048c0.531,0.226,1.053,0.461,1.562,0.708c0.065,0.032,0.131,0.065,0.198,0.097
			c0.511,0.252,1.012,0.514,1.502,0.786c0.048,0.026,0.093,0.052,0.14,0.077c2.028,1.147,3.854,2.47,5.47,3.975
			c0.282,0.262,0.559,0.527,0.828,0.8c0.175,0.178,0.342,0.362,0.511,0.543c0.143,0.155,0.285,0.305,0.424,0.459
			c0.188,0.213,0.37,0.431,0.551,0.65c0.106,0.126,0.215,0.254,0.317,0.383c0.194,0.243,0.384,0.49,0.571,0.74
			c0.038,0.052,0.078,0.099,0.116,0.15c-0.002,0.001-0.004,0.001-0.007,0.001c3.043,4.143,4.957,9.258,5.727,15.333l0,0
			c0.003,0.004,0.003,0.009,0.003,0.014c0.076,0.621,0.145,1.254,0.201,1.897c0.001,0.012,0.003,0.026,0.003,0.039
			c0.053,0.613,0.094,1.233,0.123,1.864c0.004,0.053,0.008,0.104,0.011,0.159c0.025,0.581,0.04,1.174,0.048,1.775
			c0.002,0.099,0.006,0.195,0.007,0.294c0.004,0.686,0,1.382-0.018,2.089l-0.015,0.51l0,0l-0.003,0.123l0.032,0.149
			c0.017,0.809-1.364,6.481-12.112,7.704c-0.284,0.034-0.576,0.066-0.875,0.091c-4.741,0.41-4.994,5.492-7.279,10.683
			c-2.284,5.19-6.41,11.066-7.483,12.754c-4.264,6.713-9.42,10.832-14.47,17.54c-0.159,0.213-0.299,0.419-0.445,0.626
			c-3.579,5.256-3.672,8.151-3.703,9.103"/>
	</g>
	<path fill="none" stroke="#000000" stroke-linecap="round" stroke-linejoin="round" stroke-miterlimit="10" d="M137.671,216.039
		c0,0-42.464,18.839-82.861-8.245"/>
	<path fill="none" stroke="#000000" stroke-linecap="round" stroke-linejoin="round" stroke-miterlimit="10" d="M12.58,297.799
		c1.287-68.964,11.567-109.654,11.567-109.654c-8.563-17.556-4.711-39.403-4.711-39.403C-5.554,76.048-0.055,22.285,4.077,0.5"/>
	<path fill="none" stroke="#000000" stroke-linecap="round" stroke-linejoin="round" stroke-miterlimit="10" d="M224.908,0.5
		c12.346,17.95,36.504,63.246,32.871,139.241c-1.935,40.532-27.495,61.836-41.977,72.694c-9.159,14.15-30.331,49.078-32.748,53.238
		c-3.003,5.14-3.003,32.126-3.003,32.126"/>
	<path fill="none" stroke="#000000" stroke-linecap="round" stroke-linejoin="round" stroke-miterlimit="10" d="M167.74,217.142
		c13.011,5.273,31.909,4.56,48.064-4.706"/>
</g>
</svg>
