<?xml version="1.0" encoding="utf-8"?>
<!-- Generator: Adobe Illustrator 16.0.0, SVG Export Plug-In . SVG Version: 6.00 Build 0)  -->
<!DOCTYPE svg PUBLIC "-//W3C//DTD SVG 1.1//EN" "http://www.w3.org/Graphics/SVG/1.1/DTD/svg11.dtd">
<svg version="1.1" id="Layer_1" xmlns="http://www.w3.org/2000/svg" xmlns:xlink="http://www.w3.org/1999/xlink" x="0px" y="0px"
	 width="235.961px" height="177.876px" viewBox="0 0 235.961 177.876" enable-background="new 0 0 235.961 177.876"
	 xml:space="preserve">
<g>
	<g>
		<ellipse transform="matrix(0.9194 -0.3933 0.3933 0.9194 -35.0075 40.8737)" cx="82.226" cy="105.854" rx="1.394" ry="2.684"/>
		
			<ellipse transform="matrix(0.8798 -0.4753 0.4753 0.8798 -41.477 52.8519)" fill="#844A1D" stroke="#000000" stroke-width="0.6427" stroke-linecap="round" stroke-linejoin="round" stroke-miterlimit="10" cx="83.779" cy="108.449" rx="1.394" ry="2.684"/>
		
			<ellipse transform="matrix(0.8522 -0.5233 0.5233 0.8522 -45.4333 61.1209)" fill="#844A1D" stroke="#000000" stroke-width="0.6427" stroke-linecap="round" stroke-linejoin="round" stroke-miterlimit="10" cx="85.454" cy="110.967" rx="1.394" ry="2.684"/>
		
			<ellipse transform="matrix(0.8523 -0.523 0.523 0.8523 -46.4497 62.3624)" fill="#844A1D" stroke="#000000" stroke-width="0.6427" stroke-linecap="round" stroke-linejoin="round" stroke-miterlimit="10" cx="87.206" cy="113.434" rx="1.394" ry="2.683"/>
		<g>
			<path d="M88.864,114.858c0,0-0.003,0.077-0.007,0.212c-0.013,0.146,0.012,0.304-0.036,0.584
				c-0.021,0.132-0.043,0.275-0.066,0.426c-0.02,0.152-0.081,0.289-0.123,0.441c-0.075,0.304-0.238,0.597-0.373,0.892
				c-0.181,0.274-0.337,0.556-0.548,0.774c-0.184,0.238-0.4,0.417-0.578,0.571c-0.169,0.163-0.354,0.246-0.462,0.326
				c-0.113,0.073-0.178,0.115-0.178,0.115s0.055-0.055,0.149-0.151c0.088-0.104,0.244-0.216,0.371-0.408
				c0.137-0.183,0.298-0.389,0.417-0.645c0.147-0.236,0.23-0.525,0.336-0.794c0.059-0.287,0.145-0.562,0.149-0.831
				c0.005-0.132,0.034-0.263,0.021-0.376c-0.007-0.112-0.013-0.218-0.019-0.316c0.003-0.179-0.066-0.403-0.082-0.525
				c-0.025-0.133-0.04-0.209-0.04-0.209c-0.056-0.292,0.136-0.574,0.428-0.631c0.292-0.056,0.574,0.136,0.631,0.428
				C88.861,114.779,88.864,114.82,88.864,114.858z"/>
		</g>
		<g>
			<path d="M88.261,113.647c0,0,0.057,0.048,0.156,0.131c0.093,0.063,0.257,0.25,0.396,0.301c0.074,0.042,0.155,0.087,0.24,0.135
				c0.083,0.059,0.211,0.074,0.323,0.118c0.231,0.099,0.5,0.101,0.773,0.142c0.268-0.023,0.556-0.009,0.805-0.095
				c0.124-0.038,0.261-0.049,0.367-0.107c0.11-0.053,0.216-0.102,0.313-0.147c0.207-0.081,0.324-0.227,0.436-0.295
				c0.104-0.079,0.162-0.125,0.162-0.125s-0.047,0.057-0.129,0.157c-0.092,0.09-0.185,0.271-0.373,0.399
				c-0.09,0.071-0.188,0.148-0.293,0.23c-0.103,0.089-0.236,0.132-0.364,0.205c-0.255,0.155-0.564,0.216-0.874,0.312
				c-0.315,0.028-0.643,0.093-0.95,0.045c-0.156-0.021-0.304-0.008-0.453-0.058c-0.15-0.045-0.293-0.088-0.424-0.127
				c-0.287-0.083-0.389-0.182-0.523-0.236c-0.116-0.06-0.182-0.094-0.182-0.094c-0.266-0.136-0.37-0.461-0.233-0.726
				c0.136-0.265,0.46-0.369,0.726-0.233C88.195,113.597,88.231,113.622,88.261,113.647z"/>
		</g>
	</g>
	<g>
		
			<path fill="#844A1D" stroke="#000000" stroke-width="0.6427" stroke-linecap="round" stroke-linejoin="round" stroke-miterlimit="10" d="
			M112.011,103.117c-4.436-2.827-5.297-7.306-9.028-9.388c0,0-3.315-1.293-1.748,3.162c1.566,4.453,5.46,7.687,9.71,9.744
			c3.538,1.713,6.862,1.858,9.531,1.439C123.593,107.584,119.951,105.914,112.011,103.117z"/>
		
			<ellipse transform="matrix(-0.2172 0.9761 -0.9761 -0.2172 251.1866 13.8902)" fill="#844A1D" stroke="#000000" stroke-width="0.6427" stroke-linecap="round" stroke-linejoin="round" stroke-miterlimit="10" cx="120.023" cy="107.669" rx="1.394" ry="2.684"/>
		
			<ellipse transform="matrix(-0.0921 0.9957 -0.9957 -0.0921 242.6021 -5.1309)" fill="#844A1D" stroke="#000000" stroke-width="0.6427" stroke-linecap="round" stroke-linejoin="round" stroke-miterlimit="10" cx="123.64" cy="108.032" rx="1.394" ry="2.683"/>
		
			<ellipse transform="matrix(0.0581 0.9983 -0.9983 0.0581 228.2152 -25.5244)" fill="#844A1D" stroke="#000000" stroke-width="0.6427" stroke-linecap="round" stroke-linejoin="round" stroke-miterlimit="10" cx="127.635" cy="108.185" rx="1.394" ry="2.684"/>
		
			<ellipse transform="matrix(0.1874 0.9823 -0.9823 0.1874 212.574 -41.5213)" fill="#844A1D" stroke="#000000" stroke-width="0.6427" stroke-linecap="round" stroke-linejoin="round" stroke-miterlimit="10" cx="131.383" cy="107.723" rx="1.394" ry="2.684"/>
		<g>
			<path d="M133.773,107.079c0,0,0.076,0.046,0.21,0.127c0.137,0.093,0.316,0.169,0.561,0.36c0.24,0.179,0.519,0.382,0.761,0.637
				c0.266,0.232,0.49,0.537,0.728,0.819c0.202,0.313,0.421,0.608,0.562,0.925c0.168,0.3,0.271,0.603,0.364,0.856
				c0.104,0.249,0.129,0.479,0.174,0.627c0.037,0.151,0.058,0.238,0.058,0.238s-0.037-0.081-0.102-0.224
				c-0.072-0.139-0.137-0.352-0.282-0.574c-0.136-0.227-0.286-0.492-0.498-0.742c-0.185-0.268-0.443-0.504-0.676-0.751
				c-0.268-0.215-0.514-0.447-0.789-0.606c-0.26-0.188-0.516-0.303-0.726-0.408c-0.196-0.111-0.444-0.176-0.579-0.234
				c-0.146-0.054-0.229-0.085-0.229-0.085c-0.278-0.103-0.421-0.412-0.317-0.691c0.103-0.278,0.412-0.421,0.69-0.317
				C133.713,107.046,133.746,107.062,133.773,107.079z"/>
		</g>
		<g>
			<path d="M132.308,106.91c0,0,0.104-0.009,0.285-0.023c0.191-0.005,0.415-0.061,0.774-0.039c0.172,0.007,0.358,0.014,0.555,0.021
				c0.197,0.001,0.388,0.057,0.592,0.084c0.409,0.048,0.821,0.202,1.233,0.322c0.395,0.181,0.796,0.328,1.13,0.555
				c0.168,0.108,0.343,0.188,0.482,0.309c0.143,0.112,0.277,0.219,0.401,0.316c0.255,0.185,0.413,0.403,0.548,0.524
				c0.126,0.131,0.198,0.205,0.198,0.205s-0.083-0.063-0.229-0.171c-0.153-0.099-0.336-0.283-0.614-0.423
				c-0.134-0.074-0.278-0.154-0.432-0.24c-0.149-0.091-0.332-0.141-0.505-0.217c-0.344-0.161-0.745-0.236-1.127-0.344
				c-0.398-0.046-0.785-0.127-1.157-0.107c-0.183,0.005-0.364-0.019-0.523,0.009c-0.158,0.02-0.309,0.037-0.447,0.054
				c-0.264,0.016-0.544,0.122-0.712,0.152c-0.176,0.044-0.276,0.069-0.276,0.069c-0.288,0.072-0.58-0.103-0.652-0.391
				s0.103-0.58,0.391-0.651C132.249,106.917,132.28,106.913,132.308,106.91z"/>
		</g>
	</g>
	<g>
		<path opacity="0.2" fill="#FFFFFF" d="M173.989,3.881C161.883-4.34,121.126,1.601,99.78,16.415
			C78.433,31.229,52.068,55.313,57.725,67.401c5.657,12.088,30.985,2.636,47.006,1.371c20.61-1.629,39.939-28.322,39.939-28.322
			S198.163,20.297,173.989,3.881z"/>
		
			<path fill="none" stroke="#000000" stroke-width="0.6427" stroke-linecap="round" stroke-linejoin="round" stroke-miterlimit="10" d="
			M173.989,3.881C161.883-4.34,121.126,1.601,99.78,16.415C78.433,31.229,52.068,55.313,57.725,67.401
			c5.657,12.088,30.985,2.636,47.006,1.371c20.61-1.629,39.939-28.322,39.939-28.322S198.163,20.297,173.989,3.881z"/>
		
			<path fill="none" stroke="#000000" stroke-width="0.6427" stroke-linecap="round" stroke-linejoin="round" stroke-miterlimit="10" d="
			M102.788,52.225c32.41-27.123,75.931-33.875,75.931-33.875"/>
		
			<path fill="none" stroke="#000000" stroke-width="0.6427" stroke-linecap="round" stroke-linejoin="round" stroke-miterlimit="10" d="
			M116.397,52.647C132.624,37.514,144.67,40.45,144.67,40.45"/>
		
			<path fill="none" stroke="#000000" stroke-width="0.6427" stroke-linecap="round" stroke-linejoin="round" stroke-miterlimit="10" d="
			M76.573,44.638C93.72,20.774,167.675,1.325,167.675,1.325"/>
		
			<path fill="none" stroke="#000000" stroke-width="0.6427" stroke-linecap="round" stroke-linejoin="round" stroke-miterlimit="10" d="
			M119.098,6.904c0,0-23.388,13.608-34.821,29.917"/>
		
			<path fill="none" stroke="#000000" stroke-width="0.6427" stroke-linecap="round" stroke-linejoin="round" stroke-miterlimit="10" d="
			M84.276,44.638c32.121-23.14,89.713-40.756,89.713-40.756"/>
		
			<path fill="none" stroke="#000000" stroke-width="0.6427" stroke-linecap="round" stroke-linejoin="round" stroke-miterlimit="10" d="
			M99.78,49.84c27.514-19.933,39.607-33.541,39.607-33.541"/>
	</g>
	<g>
		
			<path fill="#1D1D1D" stroke="#000000" stroke-width="0.6427" stroke-linecap="round" stroke-linejoin="round" stroke-miterlimit="10" d="
			M145.782,96.748c0,0,19.542,6.913,19.799-17.179c0.103-9.523-13.447-18.584-13.447-18.584L145.782,96.748z"/>
	</g>
	<g>
		
			<path fill="#844A1D" stroke="#000000" stroke-width="0.6427" stroke-linecap="round" stroke-linejoin="round" stroke-miterlimit="10" d="
			M142.865,95.252c0,0,19.542,6.912,19.799-17.178c0.103-9.524-13.447-18.585-13.447-18.585L142.865,95.252z"/>
	</g>
	<g>
		
			<path fill="#1D1D1D" stroke="#000000" stroke-width="0.6427" stroke-linecap="round" stroke-linejoin="round" stroke-miterlimit="10" d="
			M132.624,98.225c0,0,28.188,6.01,28.208-20.782c0.013-18.508-25.634-24.795-25.634-24.795L132.624,98.225z"/>
	</g>
	<g>
		
			<path fill="#844A1D" stroke="#000000" stroke-width="0.6427" stroke-linecap="round" stroke-linejoin="round" stroke-miterlimit="10" d="
			M127.635,97.934c0,0,28.188,6.01,28.208-20.782c0.013-18.508-25.634-24.795-25.634-24.795L127.635,97.934z"/>
	</g>
	<g>
		
			<path fill="#1D1D1D" stroke="#000000" stroke-width="0.6427" stroke-linecap="round" stroke-linejoin="round" stroke-miterlimit="10" d="
			M123.915,100.549c0,0,27.66,6.004,28.209-20.783c0.695-34.01-33.861-28.572-33.861-28.572L123.915,100.549z"/>
	</g>
	<g>
		
			<path fill="#844A1D" stroke="#000000" stroke-width="0.6427" stroke-linecap="round" stroke-linejoin="round" stroke-miterlimit="10" d="
			M120.101,100.549c0,0,27.66,6.004,28.209-20.783c0.695-34.01-33.861-28.572-33.861-28.572L120.101,100.549z"/>
	</g>
	<g>
		
			<path fill="#1D1D1D" stroke="#000000" stroke-width="0.6427" stroke-linecap="round" stroke-linejoin="round" stroke-miterlimit="10" d="
			M117.193,102.106c0,0,27.563,0.14,23.163-26.288c-5.352-32.141-37.568-23.593-37.568-23.593L117.193,102.106z"/>
	</g>
	<g>
		
			<path fill="#844A1D" stroke="#000000" stroke-width="0.6427" stroke-linecap="round" stroke-linejoin="round" stroke-miterlimit="10" d="
			M112.77,102.106c0,0,27.563,0.14,23.163-26.288c-5.352-32.141-37.568-23.593-37.568-23.593L112.77,102.106z"/>
	</g>
	<g>
		
			<path fill="#844A1D" stroke="#000000" stroke-width="0.6427" stroke-linecap="round" stroke-linejoin="round" stroke-miterlimit="10" d="
			M40.994,102.106c0,0-23.78,15.214-23.804,19.09c-0.023,3.875,2.708,1.264,2.708,1.264l23.093-17.189L40.994,102.106z"/>
		
			<ellipse transform="matrix(0.6577 0.7533 -0.7533 0.6577 98.5852 29.7342)" fill="#844A1D" stroke="#000000" stroke-width="0.6427" stroke-linecap="round" stroke-linejoin="round" stroke-miterlimit="10" cx="16.576" cy="123.34" rx="1.394" ry="2.684"/>
		
			<ellipse transform="matrix(0.5571 0.8304 -0.8304 0.5571 110.1378 44.259)" fill="#844A1D" stroke="#000000" stroke-width="0.6427" stroke-linecap="round" stroke-linejoin="round" stroke-miterlimit="10" cx="13.574" cy="125.388" rx="1.394" ry="2.684"/>
		
			<ellipse transform="matrix(0.4266 0.9044 -0.9044 0.4266 121.0663 63.8954)" fill="#844A1D" stroke="#000000" stroke-width="0.6427" stroke-linecap="round" stroke-linejoin="round" stroke-miterlimit="10" cx="10.139" cy="127.433" rx="1.394" ry="2.684"/>
		
			<ellipse transform="matrix(0.3054 0.9522 -0.9522 0.3054 127.2698 83.1717)" fill="#844A1D" stroke="#000000" stroke-width="0.6427" stroke-linecap="round" stroke-linejoin="round" stroke-miterlimit="10" cx="6.626" cy="128.821" rx="1.394" ry="2.684"/>
		<g>
			<path d="M5.441,129.177c0,0-0.071-0.054-0.195-0.148c-0.126-0.106-0.297-0.202-0.518-0.42c-0.22-0.203-0.475-0.436-0.688-0.715
				c-0.239-0.26-0.43-0.587-0.636-0.893c-0.166-0.334-0.352-0.651-0.458-0.98c-0.134-0.315-0.204-0.628-0.269-0.891
				c-0.076-0.26-0.076-0.49-0.104-0.643c-0.02-0.155-0.031-0.243-0.031-0.243s0.027,0.085,0.076,0.233
				c0.058,0.146,0.098,0.364,0.219,0.602c0.11,0.24,0.231,0.521,0.414,0.792c0.154,0.286,0.386,0.548,0.59,0.819
				c0.244,0.243,0.463,0.5,0.72,0.688c0.237,0.214,0.479,0.356,0.678,0.484c0.183,0.132,0.423,0.223,0.55,0.295
				c0.139,0.07,0.219,0.11,0.219,0.11c0.266,0.133,0.374,0.455,0.241,0.722c-0.133,0.266-0.456,0.373-0.722,0.24
				C5.497,129.216,5.467,129.197,5.441,129.177z"/>
		</g>
		<g>
			<path d="M5.952,129.668c0,0-0.104-0.007-0.285-0.019c-0.19-0.024-0.419-0.002-0.771-0.077c-0.169-0.032-0.352-0.066-0.546-0.104
				c-0.194-0.03-0.374-0.113-0.572-0.172c-0.396-0.107-0.782-0.321-1.172-0.501c-0.363-0.237-0.738-0.443-1.034-0.717
				c-0.15-0.133-0.312-0.237-0.432-0.377c-0.124-0.132-0.241-0.258-0.35-0.373c-0.225-0.221-0.349-0.46-0.463-0.6
				c-0.105-0.148-0.166-0.232-0.166-0.232s0.073,0.074,0.201,0.203c0.137,0.12,0.29,0.33,0.544,0.509
				c0.122,0.094,0.253,0.195,0.393,0.302c0.133,0.113,0.307,0.189,0.466,0.29c0.315,0.211,0.702,0.345,1.063,0.508
				c0.387,0.105,0.758,0.242,1.128,0.278c0.182,0.022,0.357,0.073,0.52,0.069c0.159,0.004,0.311,0.009,0.45,0.013
				c0.264,0.024,0.556-0.039,0.727-0.045c0.181-0.017,0.284-0.026,0.284-0.026c0.295-0.029,0.558,0.188,0.586,0.482
				c0.028,0.296-0.188,0.559-0.483,0.587C6.012,129.67,5.979,129.67,5.952,129.668z"/>
		</g>
	</g>
	<g>
		
			<path fill="#844A1D" stroke="#000000" stroke-width="0.6427" stroke-linecap="round" stroke-linejoin="round" stroke-miterlimit="10" d="
			M121.245,103.081c-0.436,0.242-2.982-6.08-2.982-6.08s7.559-3.139,9.372-5.559c-3.675-0.79-6.796-2.34-8.537-5.67
			c2.181,0.521,5.663-2.748,7.404-4.16c-2.571-0.734-8.829-6.536-10.104-7.912c1.54,1.425,7.242-4.929,7.242-4.929
			s-10.522-3.627-11.842-5.777c1.482-0.278,3.025-5.426,3.933-6.632c-5.646,2.003-11.073-1.103-11.073-1.103
			c1.874-0.626,3.771-4.941,4.57-6.748c-3.436-0.156-14.057-3.59-30.275-0.007c-16.221,3.583-23.199,13.526-30.88,22.924
			c-3.332,4.077-5.718,9.099-5.256,14.475c0.575,6.688,5.191,12.237,10.082,16.452c5.653,4.875,26.733,10.356,28.688,9.313
			c-2.357-2.65,1.711-4.199,2.689-3.945c7.866,2.049,10.23,2.139,12.365,2.503c-3.552-3.604-0.051-4.372-0.051-4.372
			s6.083,2.13,10.923,1.419c0,0-1.286-3.065,0.571-5.167C111.501,103.065,117.604,105.109,121.245,103.081z"/>
	</g>
	
		<path fill="#844A1D" stroke="#000000" stroke-width="0.6427" stroke-linecap="round" stroke-linejoin="round" stroke-miterlimit="10" d="
		M97.792,50.177c-7.976-12.023-32.558-3.854-43.769,0.95s-25.388,17.06-21.755,24.435c3.632,7.376,19.669,6.513,22.714,17.265
		C70.439,92.827,108.911,80.194,97.792,50.177z"/>
	<g>
		<path fill="#844A1D" d="M91.996,49.884c-1.94-1.01-4.342-1.358-6.678-1.6c-3.873-0.4-7.783-0.573-11.691-0.518
			c-3.653,0.052-7.37,0.316-10.738,1.382c-3.547,1.123-6.504,3.068-9.393,4.979c-2.306,1.526-4.709,3.159-5.675,5.354
			c-0.617,1.403-0.48,2.935,0.218,4.31c0.524,1.453,1.65,2.823,3.147,3.824c2.901,1.938,6.846,2.735,10.696,3.083
			c6.528,0.589,13.965-1.05,19.641-3.523c2.336-1.018,4.973-2.209,6.866-3.671c1.602-1.236,2.995-2.869,3.936-4.406
			C94.135,56.142,96.323,52.138,91.996,49.884z"/>
		<path fill="#854B1D" d="M62.974,49.251c-3.485,1.104-6.396,3.013-9.237,4.891c-2.268,1.5-4.631,3.104-5.584,5.261
			c-0.609,1.378-0.48,2.883,0.199,4.234c0.51,1.429,1.611,2.777,3.077,3.766c2.842,1.912,6.726,2.698,10.525,3.038
			c6.425,0.577,13.749-1.034,19.337-3.461c2.307-1,4.903-2.17,6.764-3.602c1.58-1.214,2.954-2.82,3.883-4.333
			c1.131-1.842,2.402-4.097,2.107-6.067c-0.171-1.145-0.871-2.194-2.437-3.011c-1.907-0.994-4.269-1.337-6.569-1.575
			c-3.809-0.393-7.656-0.561-11.502-0.504C69.939,47.94,66.282,48.204,62.974,49.251z"/>
		<path fill="#864B1D" d="M63.059,49.354c-3.423,1.084-6.287,2.958-9.082,4.803c-2.23,1.473-4.552,3.05-5.493,5.167
			c-0.602,1.354-0.479,2.831,0.182,4.16c0.496,1.405,1.57,2.732,3.006,3.708c2.781,1.885,6.605,2.66,10.354,2.992
			c6.321,0.564,13.532-1.019,19.033-3.398c2.278-0.982,4.834-2.131,6.661-3.534c1.558-1.192,2.913-2.771,3.829-4.261
			c1.116-1.814,2.365-4.034,2.071-5.975c-0.169-1.128-0.859-2.162-2.399-2.966c-1.873-0.978-4.195-1.317-6.46-1.551
			c-3.744-0.386-7.53-0.549-11.313-0.49C69.905,48.064,66.307,48.327,63.059,49.354z"/>
		<path fill="#874C1D" d="M63.145,49.458c-3.362,1.064-6.181,2.902-8.929,4.715c-2.192,1.446-4.472,2.996-5.4,5.074
			c-0.595,1.328-0.48,2.779,0.163,4.084c0.48,1.381,1.53,2.686,2.935,3.649c2.722,1.859,6.485,2.623,10.185,2.947
			c6.217,0.551,13.314-1.002,18.729-3.336c2.249-0.965,4.765-2.091,6.558-3.465c1.536-1.17,2.874-2.722,3.778-4.189
			c1.101-1.786,2.326-3.972,2.034-5.883c-0.169-1.109-0.85-2.127-2.363-2.92c-1.84-0.962-4.123-1.296-6.352-1.527
			c-3.679-0.379-7.404-0.537-11.123-0.477C69.871,48.187,66.331,48.448,63.145,49.458z"/>
		<path fill="#884D1D" d="M63.229,49.561c-3.301,1.044-6.072,2.846-8.773,4.625c-2.155,1.42-4.394,2.942-5.311,4.981
			c-0.585,1.303-0.479,2.727,0.146,4.009c0.466,1.357,1.489,2.641,2.863,3.591c2.662,1.833,6.364,2.584,10.014,2.902
			c6.113,0.538,13.098-0.987,18.425-3.274c2.221-0.947,4.695-2.053,6.455-3.397c1.514-1.148,2.833-2.672,3.725-4.116
			c1.087-1.758,2.289-3.911,1.999-5.792c-0.168-1.092-0.839-2.094-2.327-2.875c-1.806-0.945-4.05-1.276-6.242-1.503
			c-3.615-0.372-7.278-0.525-10.934-0.463C69.838,48.31,66.355,48.571,63.229,49.561z"/>
		<path fill="#894D1C" d="M63.313,49.664c-3.238,1.025-5.964,2.791-8.617,4.537c-2.117,1.394-4.315,2.888-5.219,4.888
			c-0.578,1.279-0.479,2.675,0.128,3.934c0.451,1.333,1.449,2.595,2.792,3.533c2.602,1.807,6.244,2.547,9.843,2.857
			c6.01,0.525,12.882-0.972,18.121-3.212c2.191-0.929,4.623-2.017,6.353-3.329c1.488-1.129,2.792-2.623,3.672-4.044
			c1.073-1.731,2.252-3.848,1.963-5.7c-0.167-1.075-0.828-2.061-2.291-2.83c-1.772-0.929-3.977-1.256-6.134-1.478
			c-3.55-0.366-7.151-0.513-10.744-0.449C69.804,48.432,66.381,48.693,63.313,49.664z"/>
		<path fill="#8A4E1C" d="M63.398,49.767c-3.177,1.006-5.855,2.736-8.463,4.45c-2.079,1.367-4.235,2.833-5.127,4.794
			c-0.57,1.254-0.479,2.623,0.11,3.858c0.437,1.309,1.408,2.55,2.721,3.475c2.542,1.781,6.124,2.509,9.672,2.812
			c5.906,0.512,12.666-0.957,17.817-3.149c2.162-0.912,4.554-1.979,6.25-3.261c1.466-1.108,2.751-2.574,3.619-3.972
			c1.059-1.703,2.214-3.786,1.927-5.608c-0.166-1.058-0.817-2.027-2.255-2.785c-1.738-0.913-3.903-1.236-6.025-1.454
			c-3.484-0.359-7.025-0.501-10.554-0.435C69.77,48.556,66.405,48.815,63.398,49.767z"/>
		<path fill="#8B4F1C" d="M63.484,49.87c-3.115,0.987-5.748,2.681-8.309,4.361c-2.041,1.341-4.156,2.779-5.036,4.701
			c-0.563,1.229-0.479,2.57,0.093,3.783c0.422,1.285,1.367,2.504,2.649,3.417c2.481,1.755,6.004,2.472,9.501,2.767
			c5.803,0.5,12.445-0.951,17.515-3.087c2.131-0.898,4.482-1.94,6.146-3.192c1.444-1.087,2.711-2.525,3.566-3.899
			c1.045-1.675,2.177-3.724,1.891-5.517c-0.164-1.039-0.806-1.993-2.218-2.739c-1.704-0.896-3.83-1.214-5.915-1.429
			c-3.422-0.353-6.9-0.489-10.366-0.422C69.735,48.678,66.43,48.937,63.484,49.87z"/>
		<path fill="#8C4F1C" d="M63.569,49.973c-3.054,0.967-5.64,2.625-8.153,4.273c-2.004,1.314-4.078,2.725-4.945,4.607
			c-0.554,1.204-0.479,2.52,0.075,3.708c0.406,1.261,1.327,2.458,2.579,3.358c2.421,1.728,5.883,2.433,9.329,2.721
			c5.699,0.487,12.228-0.937,17.21-3.024c2.103-0.881,4.414-1.902,6.044-3.124c1.421-1.065,2.671-2.476,3.515-3.826
			c1.029-1.648,2.138-3.662,1.854-5.426c-0.163-1.022-0.795-1.96-2.182-2.694c-1.671-0.881-3.757-1.194-5.807-1.405
			c-3.356-0.345-6.773-0.477-10.176-0.408C69.701,48.801,66.455,49.06,63.569,49.973z"/>
		<path fill="#8D501C" d="M63.654,50.076c-2.992,0.947-5.531,2.571-7.998,4.185c-1.966,1.287-4,2.671-4.854,4.515
			c-0.548,1.179-0.479,2.467,0.056,3.633c0.393,1.237,1.285,2.415,2.508,3.3c2.358,1.707,5.763,2.396,9.159,2.676
			c5.596,0.474,12.011-0.922,16.906-2.962c2.073-0.864,4.345-1.863,5.941-3.055c1.398-1.044,2.63-2.427,3.461-3.754
			c1.016-1.62,2.102-3.6,1.818-5.334c-0.162-1.004-0.784-1.926-2.146-2.648c-1.637-0.864-3.684-1.174-5.698-1.381
			c-3.291-0.338-6.646-0.465-9.986-0.394C69.667,48.924,66.479,49.182,63.654,50.076z"/>
		<path fill="#8E511C" d="M63.739,50.179c-2.931,0.928-5.424,2.515-7.843,4.096c-1.929,1.261-3.921,2.616-4.764,4.421
			c-0.538,1.155-0.478,2.415,0.039,3.558c0.378,1.213,1.247,2.367,2.438,3.241c2.301,1.677,5.642,2.359,8.988,2.631
			c5.492,0.461,11.793-0.907,16.603-2.899c2.043-0.846,4.273-1.825,5.838-2.987c1.376-1.022,2.589-2.378,3.408-3.682
			c1.001-1.592,2.063-3.538,1.782-5.243c-0.161-0.986-0.773-1.893-2.109-2.603c-1.604-0.848-3.61-1.153-5.589-1.357
			c-3.227-0.332-6.521-0.453-9.797-0.38C69.633,49.047,66.504,49.303,63.739,50.179z"/>
		<path fill="#8F511C" d="M63.824,50.282c-2.869,0.908-5.315,2.459-7.688,4.007c-1.891,1.234-3.842,2.563-4.671,4.328
			c-0.531,1.13-0.479,2.363,0.021,3.482c0.362,1.189,1.205,2.324,2.366,3.184c2.237,1.655,5.521,2.32,8.816,2.585
			c5.389,0.448,11.577-0.893,16.3-2.837c2.014-0.829,4.203-1.786,5.734-2.918c1.354-1.001,2.549-2.329,3.356-3.609
			c0.986-1.564,2.025-3.476,1.746-5.151c-0.161-0.969-0.763-1.86-2.073-2.558c-1.569-0.832-3.537-1.133-5.48-1.333
			c-3.162-0.325-6.395-0.44-9.607-0.367C69.6,49.17,66.529,49.426,63.824,50.282z"/>
		<path fill="#90521C" d="M63.91,50.385c-2.808,0.889-5.208,2.404-7.534,3.919c-1.854,1.208-3.763,2.508-4.58,4.235
			c-0.522,1.104-0.478,2.311,0.003,3.407c0.348,1.165,1.164,2.279,2.295,3.125c2.178,1.629,5.401,2.283,8.646,2.541
			c5.285,0.436,11.359-0.879,15.995-2.775c1.985-0.812,4.134-1.748,5.632-2.85c1.331-0.98,2.508-2.279,3.303-3.537
			c0.973-1.537,1.988-3.414,1.711-5.06c-0.16-0.951-0.753-1.826-2.037-2.513c-1.535-0.815-3.465-1.112-5.371-1.308
			c-3.098-0.318-6.269-0.429-9.418-0.353C69.565,49.293,66.554,49.548,63.91,50.385z"/>
		<path fill="#91531C" d="M63.995,50.488c-2.746,0.869-5.1,2.349-7.379,3.831c-1.815,1.182-3.685,2.454-4.489,4.142
			c-0.516,1.08-0.478,2.259-0.016,3.332c0.334,1.141,1.124,2.234,2.225,3.067c2.116,1.604,5.281,2.244,8.476,2.495
			c5.181,0.422,11.143-0.864,15.691-2.713c1.956-0.795,4.063-1.709,5.529-2.782c1.309-0.958,2.467-2.229,3.25-3.464
			c0.958-1.509,1.95-3.352,1.674-4.968c-0.158-0.934-0.741-1.792-2.001-2.467c-1.501-0.8-3.391-1.092-5.262-1.284
			c-3.033-0.311-6.143-0.417-9.229-0.339C69.531,49.416,66.578,49.67,63.995,50.488z"/>
		<path fill="#92531B" d="M64.079,50.591c-2.684,0.85-4.991,2.294-7.224,3.742c-1.777,1.155-3.604,2.399-4.397,4.049
			c-0.507,1.055-0.477,2.207-0.033,3.257c0.319,1.116,1.084,2.188,2.153,3.008c2.058,1.578,5.161,2.208,8.305,2.45
			c5.078,0.41,10.926-0.85,15.388-2.65c1.928-0.777,3.995-1.67,5.427-2.713c1.286-0.937,2.426-2.181,3.197-3.393
			c0.944-1.481,1.912-3.289,1.638-4.876c-0.157-0.917-0.73-1.759-1.964-2.422c-1.469-0.783-3.318-1.072-5.154-1.26
			c-2.968-0.305-6.016-0.404-9.039-0.325C69.497,49.54,66.604,49.792,64.079,50.591z"/>
		<path fill="#93541B" d="M64.164,50.695c-2.621,0.83-4.883,2.238-7.068,3.653c-1.74,1.128-3.526,2.346-4.307,3.956
			c-0.499,1.03-0.477,2.154-0.051,3.181c0.305,1.093,1.043,2.143,2.082,2.951c1.997,1.552,5.041,2.169,8.134,2.405
			c4.974,0.396,10.709-0.835,15.084-2.588c1.898-0.76,3.925-1.631,5.324-2.646c1.263-0.915,2.386-2.131,3.145-3.319
			c0.93-1.454,1.875-3.228,1.602-4.785c-0.156-0.898-0.72-1.725-1.928-2.376c-1.435-0.768-3.245-1.051-5.045-1.235
			c-2.903-0.298-5.89-0.393-8.85-0.312C69.463,49.662,66.628,49.915,64.164,50.695z"/>
		<path fill="#94551B" d="M64.25,50.797c-2.561,0.811-4.775,2.184-6.914,3.566c-1.702,1.102-3.447,2.291-4.215,3.862
			c-0.492,1.006-0.477,2.103-0.07,3.106c0.29,1.068,1.003,2.097,2.012,2.892c1.937,1.526,4.92,2.125,7.964,2.359
			c4.871,0.374,10.49-0.82,14.779-2.525c1.868-0.743,3.855-1.593,5.222-2.577c1.241-0.894,2.345-2.083,3.091-3.248
			c0.916-1.426,1.838-3.165,1.565-4.693c-0.155-0.881-0.708-1.692-1.891-2.331c-1.4-0.75-3.172-1.031-4.937-1.211
			c-2.839-0.291-5.763-0.381-8.659-0.298C69.43,49.785,66.652,50.037,64.25,50.797z"/>
		<path fill="#95551B" d="M64.335,50.9c-2.499,0.792-4.667,2.128-6.759,3.478c-1.664,1.075-3.369,2.237-4.124,3.769
			c-0.484,0.98-0.477,2.05-0.087,3.03c0.274,1.045,0.962,2.052,1.939,2.834c1.876,1.501,4.8,2.088,7.793,2.314
			c4.767,0.361,10.274-0.807,14.476-2.463c1.84-0.725,3.785-1.554,5.118-2.508c1.219-0.873,2.305-2.033,3.039-3.175
			c0.901-1.397,1.8-3.103,1.529-4.602c-0.154-0.863-0.697-1.658-1.855-2.285c-1.366-0.735-3.098-1.011-4.826-1.188
			c-2.774-0.284-5.638-0.368-8.471-0.284C69.396,49.908,66.678,50.159,64.335,50.9z"/>
		<path fill="#96561B" d="M64.42,51.003c-2.438,0.771-4.56,2.072-6.604,3.389c-1.627,1.049-3.29,2.183-4.033,3.676
			c-0.477,0.956-0.476,1.998-0.105,2.956c0.261,1.021,0.922,2.006,1.869,2.775c1.816,1.475,4.681,2.049,7.622,2.269
			c4.664,0.348,10.058-0.792,14.172-2.4c1.811-0.708,3.716-1.515,5.016-2.439c1.196-0.851,2.264-1.984,2.986-3.103
			c0.887-1.37,1.762-3.041,1.493-4.51c-0.153-0.846-0.687-1.627-1.818-2.24c-1.331-0.721-3.025-0.99-4.719-1.163
			c-2.709-0.277-5.511-0.356-8.281-0.27C69.361,50.031,66.702,50.281,64.42,51.003z"/>
		<path fill="#97571B" d="M64.505,51.106c-2.376,0.752-4.451,2.017-6.448,3.3c-1.59,1.022-3.211,2.129-3.942,3.583
			c-0.469,0.931-0.476,1.946-0.123,2.88c0.246,0.997,0.881,1.961,1.798,2.718c1.756,1.448,4.56,2.012,7.451,2.224
			c4.561,0.334,9.84-0.777,13.868-2.338c1.782-0.691,3.646-1.476,4.913-2.371c1.174-0.83,2.223-1.935,2.934-3.031
			c0.872-1.342,1.725-2.979,1.457-4.418c-0.152-0.828-0.676-1.591-1.783-2.195c-1.299-0.702-2.951-0.969-4.608-1.138
			c-2.646-0.271-5.386-0.345-8.092-0.256C69.327,50.154,66.727,50.403,64.505,51.106z"/>
		<path fill="#98571B" d="M64.59,51.209c-2.314,0.733-4.343,1.962-6.294,3.213c-1.551,0.995-3.132,2.074-3.851,3.489
			c-0.461,0.906-0.475,1.894-0.141,2.805c0.23,0.973,0.84,1.916,1.727,2.659c1.695,1.423,4.438,1.974,7.28,2.179
			c4.457,0.321,9.624-0.762,13.564-2.276c1.753-0.674,3.577-1.438,4.81-2.303c1.151-0.808,2.184-1.886,2.881-2.958
			c0.858-1.314,1.688-2.917,1.422-4.327c-0.151-0.811-0.665-1.56-1.746-2.149c-1.265-0.689-2.879-0.949-4.5-1.114
			c-2.581-0.263-5.26-0.332-7.902-0.243C69.293,50.276,66.752,50.525,64.59,51.209z"/>
		<path fill="#99581B" d="M64.676,51.313c-2.253,0.713-4.236,1.906-6.14,3.124c-1.514,0.969-3.054,2.02-3.76,3.396
			c-0.452,0.882-0.475,1.842-0.158,2.729c0.216,0.949,0.8,1.871,1.655,2.601c1.636,1.397,4.319,1.936,7.109,2.133
			c4.354,0.308,9.407-0.746,13.262-2.213c1.723-0.656,3.507-1.398,4.707-2.234c1.13-0.787,2.142-1.837,2.827-2.886
			c0.844-1.287,1.649-2.854,1.386-4.235c-0.15-0.793-0.653-1.527-1.71-2.104c-1.23-0.673-2.807-0.928-4.392-1.089
			c-2.517-0.257-5.133-0.32-7.713-0.229C69.259,50.4,66.776,50.647,64.676,51.313z"/>
		<path fill="#9A591B" d="M64.76,51.416c-2.19,0.694-4.127,1.852-5.984,3.036c-1.476,0.943-2.974,1.966-3.668,3.303
			c-0.444,0.857-0.475,1.79-0.176,2.655c0.201,0.925,0.759,1.825,1.584,2.543c1.575,1.371,4.199,1.897,6.939,2.088
			c4.249,0.295,9.189-0.731,12.957-2.151c1.694-0.638,3.437-1.36,4.604-2.166c1.107-0.765,2.102-1.788,2.775-2.813
			c0.829-1.259,1.611-2.793,1.349-4.144c-0.149-0.776-0.644-1.491-1.673-2.059c-1.198-0.654-2.733-0.909-4.283-1.066
			c-2.451-0.249-5.006-0.308-7.523-0.215C69.225,50.522,66.801,50.77,64.76,51.416z"/>
		<path fill="#9A591A" d="M64.846,51.519c-2.13,0.674-4.02,1.796-5.83,2.947c-1.438,0.916-2.896,1.911-3.576,3.209
			c-0.438,0.832-0.475,1.738-0.195,2.579c0.188,0.9,0.72,1.779,1.514,2.484c1.515,1.345,4.079,1.86,6.768,2.043
			c4.146,0.282,8.975-0.716,12.654-2.089c1.665-0.621,3.368-1.321,4.501-2.098c1.085-0.744,2.061-1.739,2.723-2.741
			c0.815-1.231,1.573-2.73,1.313-4.053c-0.147-0.758-0.632-1.459-1.638-2.013c-1.162-0.64-2.659-0.888-4.174-1.042
			c-2.387-0.243-4.879-0.296-7.334-0.201C69.191,50.645,66.826,50.892,64.846,51.519z"/>
		<path fill="#9B5A1A" d="M64.931,51.622c-2.068,0.654-3.911,1.741-5.675,2.859c-1.4,0.889-2.816,1.857-3.485,3.116
			c-0.43,0.807-0.475,1.686-0.213,2.504c0.173,0.877,0.679,1.734,1.442,2.426c1.455,1.319,3.959,1.822,6.598,1.998
			c4.042,0.269,8.758-0.701,12.35-2.026c1.636-0.604,3.299-1.282,4.398-2.029c1.062-0.722,2.02-1.689,2.67-2.669
			c0.801-1.203,1.535-2.668,1.276-3.96c-0.147-0.74-0.62-1.426-1.601-1.968c-1.129-0.625-2.587-0.867-4.065-1.017
			c-2.322-0.236-4.754-0.284-7.145-0.188C69.157,50.768,66.851,51.014,64.931,51.622z"/>
		<path fill="#9C5B1A" d="M65.016,51.725c-2.006,0.635-3.804,1.685-5.52,2.771c-1.363,0.862-2.738,1.803-3.395,3.023
			c-0.422,0.782-0.475,1.634-0.23,2.429c0.158,0.853,0.639,1.688,1.371,2.368c1.395,1.292,3.839,1.785,6.427,1.953
			c3.938,0.256,8.541-0.686,12.046-1.964c1.606-0.586,3.229-1.244,4.295-1.961c1.041-0.7,1.98-1.64,2.617-2.596
			c0.787-1.176,1.499-2.606,1.24-3.869c-0.146-0.723-0.608-1.393-1.564-1.923c-1.095-0.608-2.513-0.847-3.955-0.993
			c-2.258-0.229-4.628-0.272-6.955-0.174C69.123,50.891,66.875,51.136,65.016,51.725z"/>
		<path fill="#9D5B1A" d="M65.101,51.828c-1.944,0.616-3.695,1.631-5.364,2.683c-1.325,0.836-2.659,1.749-3.304,2.93
			c-0.413,0.757-0.474,1.582-0.248,2.354c0.144,0.829,0.598,1.643,1.3,2.31c1.335,1.267,3.718,1.747,6.256,1.907
			c3.835,0.243,8.324-0.67,11.742-1.901c1.577-0.568,3.16-1.205,4.192-1.893c1.019-0.679,1.938-1.591,2.564-2.524
			c0.772-1.147,1.461-2.544,1.204-3.777c-0.145-0.705-0.599-1.359-1.528-1.877c-1.062-0.591-2.44-0.826-3.847-0.969
			c-2.193-0.223-4.502-0.26-6.766-0.16C69.089,51.014,66.9,51.258,65.101,51.828z"/>
		<path fill="#9E5C1A" d="M65.186,51.931c-1.883,0.596-3.587,1.575-5.21,2.594c-1.286,0.81-2.58,1.694-3.212,2.837
			c-0.406,0.732-0.473,1.53-0.266,2.278c0.128,0.804,0.557,1.598,1.229,2.251c1.274,1.24,3.598,1.709,6.085,1.862
			c3.73,0.23,8.108-0.655,11.438-1.84c1.548-0.551,3.09-1.165,4.09-1.824c0.996-0.657,1.898-1.542,2.512-2.451
			c0.758-1.12,1.423-2.482,1.168-3.686c-0.144-0.687-0.588-1.326-1.492-1.832c-1.027-0.576-2.367-0.806-3.737-0.944
			c-2.129-0.216-4.376-0.248-6.577-0.146C69.055,51.137,66.925,51.38,65.186,51.931z"/>
		<path fill="#9F5D1A" d="M65.271,52.034c-1.821,0.577-3.479,1.52-5.055,2.506c-1.249,0.783-2.501,1.64-3.121,2.744
			c-0.397,0.708-0.473,1.478-0.284,2.203c0.114,0.781,0.517,1.552,1.158,2.193c1.215,1.214,3.478,1.67,5.914,1.816
			c3.628,0.217,7.892-0.639,11.135-1.776c1.521-0.533,3.021-1.126,3.987-1.756c0.975-0.635,1.857-1.493,2.459-2.379
			c0.743-1.092,1.385-2.419,1.132-3.594c-0.143-0.669-0.576-1.292-1.455-1.786c-0.994-0.56-2.295-0.786-3.63-0.92
			c-2.063-0.208-4.249-0.236-6.387-0.132C69.021,51.26,66.949,51.502,65.271,52.034z"/>
		<path fill="#A05D1A" d="M65.355,52.137c-1.76,0.557-3.371,1.464-4.899,2.417c-1.212,0.757-2.423,1.586-3.03,2.65
			c-0.39,0.683-0.473,1.426-0.302,2.127c0.1,0.756,0.477,1.507,1.087,2.135c1.153,1.188,3.356,1.633,5.744,1.771
			c3.522,0.204,7.674-0.624,10.83-1.715c1.491-0.516,2.951-1.086,3.885-1.688c0.952-0.613,1.816-1.443,2.406-2.306
			c0.729-1.065,1.347-2.358,1.095-3.503c-0.142-0.652-0.566-1.258-1.419-1.741c-0.96-0.543-2.221-0.765-3.52-0.896
			c-1.999-0.202-4.123-0.224-6.197-0.119C68.986,51.383,66.975,51.625,65.355,52.137z"/>
		<path fill="#A15E1A" d="M65.44,52.241c-1.697,0.537-3.263,1.408-4.744,2.328c-1.175,0.73-2.345,1.532-2.938,2.558
			c-0.383,0.658-0.473,1.374-0.32,2.052c0.084,0.732,0.437,1.461,1.016,2.077c1.093,1.163,3.236,1.595,5.572,1.726
			c3.421,0.192,7.46-0.607,10.527-1.652c1.463-0.498,2.883-1.047,3.781-1.619c0.931-0.592,1.777-1.395,2.354-2.234
			c0.715-1.037,1.308-2.295,1.06-3.411c-0.142-0.634-0.555-1.226-1.383-1.696c-0.926-0.527-2.147-0.744-3.411-0.871
			c-1.935-0.195-3.997-0.216-6.008-0.105C68.953,51.502,66.999,51.748,65.44,52.241z"/>
		<path fill="#A25F1A" d="M65.525,52.343c-1.636,0.518-3.154,1.354-4.59,2.24c-1.137,0.704-2.265,1.478-2.847,2.464
			c-0.374,0.633-0.473,1.322-0.338,1.978c0.069,0.708,0.396,1.415,0.944,2.018c1.033,1.136,3.115,1.558,5.402,1.681
			c3.315,0.179,7.242-0.592,10.223-1.59c1.434-0.479,2.813-1.008,3.679-1.551c0.908-0.57,1.735-1.345,2.301-2.162
			c0.7-1.009,1.272-2.234,1.023-3.32c-0.14-0.617-0.544-1.191-1.347-1.65c-0.893-0.511-2.074-0.725-3.303-0.848
			c-1.869-0.188-3.87-0.204-5.818-0.091C68.919,51.625,67.023,51.869,65.525,52.343z"/>
		<path fill="#A35F19" d="M65.611,52.446c-1.575,0.499-3.047,1.298-4.436,2.152c-1.099,0.678-2.186,1.423-2.756,2.371
			c-0.366,0.608-0.473,1.27-0.356,1.901c0.056,0.685,0.355,1.37,0.874,1.96c0.974,1.109,2.995,1.52,5.231,1.636
			c3.213,0.167,7.026-0.576,9.919-1.527c1.405-0.462,2.744-0.969,3.576-1.482c0.886-0.547,1.695-1.296,2.248-2.09
			c0.687-0.981,1.234-2.172,0.987-3.228c-0.139-0.6-0.533-1.159-1.311-1.606c-0.858-0.494-2.001-0.703-3.193-0.822
			c-1.805-0.182-3.744-0.188-5.629-0.078C68.885,51.752,67.049,51.991,65.611,52.446z"/>
		<path fill="#A46019" d="M65.696,52.549c-1.514,0.479-2.939,1.243-4.28,2.063c-1.062,0.651-2.107,1.369-2.665,2.277
			c-0.358,0.584-0.472,1.218-0.374,1.827c0.041,0.66,0.315,1.323,0.804,1.901c0.914,1.083,2.874,1.483,5.06,1.591
			c3.109,0.154,6.81-0.559,9.615-1.465c1.376-0.444,2.676-0.928,3.474-1.414c0.863-0.525,1.654-1.246,2.195-2.017
			c0.672-0.954,1.196-2.109,0.951-3.136c-0.138-0.582-0.523-1.124-1.274-1.56c-0.825-0.478-1.928-0.684-3.084-0.799
			c-1.741-0.175-3.618-0.18-5.439-0.064C68.851,51.871,67.073,52.114,65.696,52.549z"/>
		<path fill="#A56119" d="M65.781,52.652c-1.451,0.459-2.831,1.188-4.125,1.976c-1.023,0.624-2.028,1.314-2.574,2.184
			c-0.351,0.559-0.472,1.166-0.392,1.751c0.025,0.637,0.274,1.278,0.731,1.844c0.854,1.057,2.755,1.445,4.89,1.546
			c3.006,0.142,6.594-0.544,9.312-1.403c1.348-0.426,2.607-0.89,3.37-1.345c0.843-0.503,1.614-1.198,2.144-1.945
			c0.657-0.926,1.158-2.047,0.914-3.045c-0.136-0.564-0.512-1.09-1.237-1.514c-0.791-0.462-1.855-0.663-2.976-0.774
			c-1.676-0.168-3.492-0.164-5.25-0.05C68.816,51.998,67.098,52.236,65.781,52.652z"/>
		<path fill="#A66119" d="M65.866,52.755c-1.39,0.44-2.724,1.133-3.971,1.887c-0.985,0.598-1.949,1.261-2.482,2.09
			c-0.343,0.534-0.472,1.114-0.409,1.677c0.011,0.612,0.234,1.232,0.661,1.785c0.793,1.029,2.634,1.408,4.719,1.5
			c2.9,0.129,6.377-0.527,9.007-1.34c1.318-0.408,2.538-0.85,3.268-1.277c0.82-0.481,1.573-1.148,2.09-1.873
			c0.644-0.898,1.121-1.985,0.879-2.953c-0.135-0.547-0.501-1.058-1.201-1.47c-0.758-0.446-1.782-0.643-2.867-0.75
			c-1.61-0.161-3.365-0.151-5.061-0.036C68.782,52.121,67.123,52.358,65.866,52.755z"/>
		<path fill="#A76219" d="M65.951,52.859c-1.328,0.42-2.615,1.077-3.815,1.799c-0.947,0.57-1.87,1.206-2.391,1.997
			c-0.336,0.509-0.472,1.062-0.428,1.602c-0.004,0.588,0.193,1.186,0.589,1.727c0.734,1.003,2.514,1.37,4.549,1.455
			c2.797,0.117,6.161-0.51,8.703-1.278c1.289-0.39,2.47-0.809,3.165-1.208c0.799-0.458,1.532-1.099,2.037-1.799
			c0.629-0.871,1.083-1.924,0.843-2.862c-0.135-0.529-0.491-1.024-1.165-1.424c-0.724-0.429-1.709-0.622-2.758-0.726
			c-1.547-0.154-3.239-0.143-4.871-0.022C68.748,52.24,67.147,52.48,65.951,52.859z"/>
		<path fill="#A86319" d="M66.036,52.962c-1.267,0.401-2.507,1.022-3.66,1.71c-0.91,0.544-1.792,1.152-2.3,1.905
			c-0.327,0.484-0.471,1.01-0.445,1.525c-0.019,0.564,0.153,1.141,0.519,1.669c0.675,0.977,2.393,1.332,4.377,1.41
			c2.693,0.105,5.945-0.493,8.399-1.215c1.262-0.372,2.401-0.77,3.063-1.141c0.777-0.436,1.492-1.05,1.984-1.728
			c0.614-0.842,1.045-1.861,0.807-2.77c-0.134-0.511-0.48-0.99-1.129-1.378c-0.689-0.413-1.636-0.602-2.649-0.702
			c-1.481-0.147-3.113-0.128-4.682-0.008C68.715,52.367,67.172,52.602,66.036,52.962z"/>
		<path fill="#A96319" d="M66.121,53.065c-1.205,0.381-2.398,0.966-3.505,1.622c-0.872,0.518-1.713,1.098-2.209,1.811
			c-0.319,0.46-0.471,0.958-0.464,1.451c-0.033,0.54,0.114,1.094,0.448,1.61c0.614,0.949,2.272,1.295,4.206,1.364
			c2.59,0.093,5.729-0.476,8.097-1.153c1.231-0.353,2.331-0.729,2.958-1.072c0.757-0.414,1.452-1.001,1.933-1.655
			c0.6-0.815,1.007-1.799,0.771-2.679c-0.133-0.494-0.47-0.957-1.093-1.333c-0.657-0.396-1.563-0.582-2.54-0.678
			c-1.418-0.14-2.987-0.115-4.492,0.005C68.681,52.49,67.197,52.725,66.121,53.065z"/>
		<path fill="#AA6419" d="M66.206,53.167c-1.143,0.362-2.29,0.912-3.351,1.534c-0.834,0.491-1.634,1.044-2.117,1.718
			c-0.312,0.435-0.471,0.905-0.481,1.375c-0.048,0.517,0.074,1.049,0.377,1.552c0.555,0.923,2.152,1.258,4.035,1.319
			c2.486,0.081,5.515-0.458,7.793-1.091c1.203-0.334,2.264-0.688,2.856-1.003c0.734-0.39,1.41-0.952,1.878-1.583
			c0.586-0.787,0.971-1.736,0.735-2.587c-0.132-0.476-0.459-0.923-1.057-1.288c-0.623-0.38-1.489-0.561-2.432-0.653
			c-1.353-0.134-2.86-0.104-4.303,0.019C68.646,52.612,67.222,52.846,66.206,53.167z"/>
		<path fill="#AB6519" d="M66.291,53.271c-1.081,0.342-2.183,0.855-3.195,1.445c-0.797,0.464-1.556,0.989-2.026,1.625
			c-0.304,0.41-0.47,0.854-0.499,1.3c-0.063,0.492,0.033,1.002,0.306,1.494c0.496,0.896,2.032,1.221,3.864,1.274
			c2.383,0.069,5.298-0.44,7.488-1.028c1.176-0.315,2.195-0.648,2.754-0.935c0.714-0.367,1.37-0.903,1.826-1.51
			c0.571-0.76,0.933-1.675,0.698-2.496c-0.13-0.458-0.447-0.889-1.02-1.242c-0.59-0.364-1.416-0.54-2.322-0.629
			c-1.288-0.126-2.735-0.091-4.113,0.033C68.612,52.735,67.246,52.969,66.291,53.271z"/>
		<path fill="#AC6518" d="M66.377,53.374c-1.021,0.323-2.075,0.801-3.041,1.357c-0.76,0.438-1.477,0.935-1.936,1.531
			c-0.296,0.385-0.469,0.802-0.517,1.225c-0.077,0.468-0.007,0.957,0.234,1.436c0.438,0.869,1.912,1.185,3.693,1.229
			c2.279,0.057,5.082-0.422,7.186-0.966c1.146-0.296,2.127-0.607,2.65-0.867c0.692-0.343,1.329-0.854,1.773-1.438
			c0.558-0.732,0.895-1.612,0.662-2.404c-0.129-0.441-0.438-0.856-0.983-1.197c-0.556-0.348-1.344-0.52-2.214-0.604
			c-1.224-0.121-2.608-0.08-3.924,0.046C68.579,52.858,67.271,53.091,66.377,53.374z"/>
		<path fill="#AD6618" d="M66.462,53.477c-0.958,0.303-1.967,0.745-2.886,1.269c-0.722,0.411-1.398,0.88-1.844,1.438
			c-0.289,0.36-0.47,0.75-0.536,1.15c-0.091,0.444-0.045,0.911,0.164,1.377c0.378,0.842,1.792,1.151,3.522,1.184
			c2.176,0.05,4.867-0.404,6.882-0.904c1.118-0.277,2.059-0.566,2.548-0.798c0.671-0.318,1.289-0.804,1.721-1.365
			c0.543-0.705,0.856-1.551,0.626-2.313c-0.129-0.424-0.427-0.822-0.947-1.152c-0.522-0.331-1.271-0.5-2.105-0.58
			c-1.158-0.113-2.481-0.067-3.733,0.061C68.544,52.981,67.296,53.213,66.462,53.477z"/>
		<path fill="#AE6718" d="M66.547,53.58c-0.896,0.283-1.858,0.69-2.73,1.18c-0.685,0.385-1.319,0.827-1.753,1.346
			c-0.28,0.335-0.47,0.697-0.554,1.074c-0.105,0.42-0.085,0.865,0.093,1.319c0.319,0.815,1.672,1.114,3.353,1.139
			c2.071,0.037,4.65-0.385,6.577-0.841c1.089-0.258,1.991-0.525,2.445-0.73c0.651-0.294,1.247-0.755,1.667-1.293
			c0.529-0.676,0.82-1.489,0.59-2.221c-0.126-0.406-0.415-0.787-0.91-1.106c-0.488-0.314-1.197-0.479-1.996-0.556
			c-1.094-0.107-2.355-0.056-3.545,0.074C68.511,53.104,67.32,53.335,66.547,53.58z"/>
		<path fill="#AF6718" d="M66.632,53.683c-0.836,0.264-1.751,0.635-2.576,1.092c-0.646,0.358-1.24,0.772-1.661,1.251
			c-0.272,0.311-0.47,0.646-0.571,1c-0.121,0.396-0.125,0.819,0.021,1.261c0.261,0.789,1.552,1.075,3.182,1.093
			c1.968,0.024,4.436-0.366,6.273-0.779c1.06-0.238,1.923-0.483,2.342-0.662c0.631-0.269,1.208-0.706,1.615-1.221
			c0.515-0.648,0.781-1.426,0.555-2.129c-0.127-0.389-0.405-0.754-0.875-1.061c-0.456-0.297-1.123-0.458-1.888-0.532
			c-1.029-0.1-2.229-0.043-3.355,0.087C68.477,53.228,67.346,53.458,66.632,53.683z"/>
		<path fill="#B06818" d="M75.387,54.627c-0.125-0.371-0.395-0.72-0.838-1.016c-1.593-1.059-6.132-0.364-7.832,0.175
			c-2.211,0.7-5.203,2.138-4.63,4.289c0.584,2.189,9.628,0.369,11.22-0.262C74.688,57.266,75.794,55.834,75.387,54.627z"/>
	</g>
	
		<path fill="none" stroke="#000000" stroke-width="0.6427" stroke-linecap="round" stroke-linejoin="round" stroke-miterlimit="10" d="
		M21.024,81.54"/>
	<g>
		
			<path fill="#844A1D" stroke="#000000" stroke-width="0.6427" stroke-linecap="round" stroke-linejoin="round" stroke-miterlimit="10" d="
			M80.563,102.018c7.872-1.059,31.959-12.027,32.733-6.225c0.51,3.818-2.205,2.629-5.199,3.564
			c-3.267,1.023-22.55,7.127-26.31,6.723C78.026,105.675,76.626,102.547,80.563,102.018z"/>
		
			<path fill="#844A1D" stroke="#000000" stroke-width="0.6427" stroke-linecap="round" stroke-linejoin="round" stroke-miterlimit="10" d="
			M96.745,133.528c0.895-4.443,16.125-30.619,16.125-35.793s-3.844,0.963-8.563,7.467c-4.718,6.502-12.177,24.959-11.564,29.55
			C93.354,139.342,95.851,137.97,96.745,133.528z"/>
		
			<path fill="#844A1D" stroke="#000000" stroke-width="0.6427" stroke-linecap="round" stroke-linejoin="round" stroke-miterlimit="10" d="
			M103.418,164.749c0,0,2.462,0.389,0.918-5.592c-1.874-7.264-6.987-20.133-7.591-23.181s-3.967-7.04-4.002-1.225
			S103.418,164.749,103.418,164.749z"/>
		
			<ellipse transform="matrix(0.885 -0.4656 0.4656 0.885 -64.6536 67.7663)" fill="#844A1D" stroke="#000000" stroke-width="0.6427" stroke-linecap="round" stroke-linejoin="round" stroke-miterlimit="10" cx="104.845" cy="164.754" rx="1.394" ry="2.684"/>
		
			<ellipse transform="matrix(0.8392 -0.5438 0.5438 0.8392 -73.7946 84.8595)" fill="#844A1D" stroke="#000000" stroke-width="0.6427" stroke-linecap="round" stroke-linejoin="round" stroke-miterlimit="10" cx="106.601" cy="167.217" rx="1.394" ry="2.684"/>
		
			<ellipse transform="matrix(0.8075 -0.5899 0.5899 0.8075 -79.162 96.6433)" fill="#844A1D" stroke="#000000" stroke-width="0.6427" stroke-linecap="round" stroke-linejoin="round" stroke-miterlimit="10" cx="108.472" cy="169.594" rx="1.394" ry="2.683"/>
		
			<ellipse transform="matrix(0.8076 -0.5898 0.5898 0.8076 -80.1405 98.1959)" fill="#844A1D" stroke="#000000" stroke-width="0.6427" stroke-linecap="round" stroke-linejoin="round" stroke-miterlimit="10" cx="110.414" cy="171.913" rx="1.394" ry="2.684"/>
		<g>
			<path d="M112.182,173.2c0,0,0.004,0.077,0.012,0.212c-0.002,0.146,0.035,0.302,0.01,0.585c-0.01,0.134-0.021,0.278-0.032,0.431
				c-0.007,0.152-0.058,0.294-0.087,0.449c-0.052,0.309-0.19,0.613-0.302,0.918c-0.158,0.288-0.291,0.581-0.484,0.815
				c-0.164,0.252-0.365,0.447-0.53,0.615c-0.155,0.176-0.334,0.273-0.435,0.362c-0.106,0.082-0.168,0.129-0.168,0.129
				s0.05-0.06,0.137-0.163c0.08-0.109,0.227-0.234,0.338-0.436c0.12-0.194,0.265-0.412,0.364-0.676
				c0.128-0.247,0.187-0.543,0.271-0.818c0.036-0.291,0.1-0.571,0.083-0.841c-0.005-0.131,0.014-0.264-0.01-0.375
				c-0.015-0.111-0.029-0.217-0.043-0.314c-0.011-0.179-0.099-0.396-0.124-0.518c-0.035-0.13-0.056-0.204-0.056-0.204
				c-0.08-0.287,0.089-0.584,0.375-0.663c0.287-0.079,0.584,0.089,0.663,0.375C112.174,173.122,112.18,173.163,112.182,173.2z"/>
		</g>
		<g>
			<path d="M111.484,172.04c0,0,0.061,0.043,0.166,0.118c0.097,0.056,0.275,0.229,0.419,0.269c0.077,0.035,0.161,0.074,0.25,0.115
				c0.087,0.052,0.216,0.057,0.331,0.091c0.239,0.08,0.507,0.061,0.783,0.08c0.265-0.045,0.553-0.053,0.793-0.159
				c0.121-0.048,0.257-0.068,0.357-0.136c0.106-0.061,0.208-0.118,0.301-0.172c0.199-0.097,0.305-0.252,0.41-0.328
				c0.096-0.088,0.151-0.138,0.151-0.138s-0.042,0.061-0.116,0.167c-0.084,0.097-0.162,0.284-0.339,0.428
				c-0.085,0.078-0.177,0.163-0.273,0.253c-0.096,0.097-0.226,0.15-0.348,0.233c-0.242,0.176-0.545,0.261-0.846,0.38
				c-0.313,0.054-0.634,0.145-0.944,0.121c-0.156-0.008-0.303,0.016-0.456-0.021c-0.153-0.033-0.298-0.064-0.433-0.093
				c-0.292-0.061-0.4-0.149-0.54-0.194c-0.12-0.05-0.188-0.078-0.188-0.078c-0.274-0.114-0.405-0.43-0.291-0.705
				c0.114-0.274,0.431-0.404,0.705-0.29C111.414,171.996,111.452,172.017,111.484,172.04z"/>
		</g>
	</g>
	<g>
		
			<path fill="#844A1D" stroke="#000000" stroke-width="0.6427" stroke-linecap="round" stroke-linejoin="round" stroke-miterlimit="10" d="
			M61.396,101.807c-2.559-8.274,5.649-2.072,5.649-2.072s10.401,12.389,11.002,15.498c0.601,3.107-6.005,1.097-6.005,1.097
			S63.933,110.01,61.396,101.807z"/>
		
			<path fill="#844A1D" stroke="#000000" stroke-width="0.6427" stroke-linecap="round" stroke-linejoin="round" stroke-miterlimit="10" d="
			M51.964,125.6c0,0-4.522,1.212-1.382,3.002c3.142,1.791,26.563-9.51,27.465-12.168c0.901-2.66-2.308-4.607-2.308-4.607
			L51.964,125.6z"/>
		
			<path fill="#844A1D" stroke="#000000" stroke-width="0.6427" stroke-linecap="round" stroke-linejoin="round" stroke-miterlimit="10" d="
			M50.397,126.394c0,0-14.806,24.036-13.143,27.536c1.663,3.502,2.988-0.037,2.988-0.037l13.328-25.516L50.397,126.394z"/>
		
			<ellipse transform="matrix(0.9196 0.3929 -0.3929 0.9196 64.3701 -2.2301)" fill="#844A1D" stroke="#000000" stroke-width="0.6427" stroke-linecap="round" stroke-linejoin="round" stroke-miterlimit="10" cx="37.633" cy="156.128" rx="1.394" ry="2.685"/>
		
			<ellipse transform="matrix(0.8623 0.5063 -0.5063 0.8623 85.5789 3.7903)" fill="#844A1D" stroke="#000000" stroke-width="0.6427" stroke-linecap="round" stroke-linejoin="round" stroke-miterlimit="10" cx="35.819" cy="159.279" rx="1.393" ry="2.683"/>
		
			<ellipse transform="matrix(0.777 0.6295 -0.6295 0.777 109.8628 15.1042)" fill="#844A1D" stroke="#000000" stroke-width="0.6427" stroke-linecap="round" stroke-linejoin="round" stroke-miterlimit="10" cx="33.613" cy="162.613" rx="1.394" ry="2.683"/>
		
			<ellipse transform="matrix(0.6887 0.7251 -0.7251 0.6887 129.5903 28.9771)" fill="#844A1D" stroke="#000000" stroke-width="0.6427" stroke-linecap="round" stroke-linejoin="round" stroke-miterlimit="10" cx="31.053" cy="165.39" rx="1.394" ry="2.684"/>
		<g>
			<path d="M30.141,166.224c0,0-0.087-0.018-0.239-0.049c-0.16-0.041-0.355-0.053-0.649-0.152c-0.286-0.087-0.617-0.186-0.93-0.345
				c-0.329-0.13-0.643-0.343-0.961-0.528c-0.295-0.229-0.6-0.434-0.838-0.685c-0.259-0.226-0.457-0.477-0.629-0.685
				c-0.181-0.201-0.281-0.409-0.373-0.534c-0.085-0.131-0.134-0.205-0.134-0.205s0.062,0.064,0.17,0.177
				c0.115,0.106,0.246,0.286,0.458,0.447c0.204,0.168,0.434,0.368,0.717,0.534c0.264,0.19,0.586,0.325,0.888,0.481
				c0.324,0.113,0.634,0.249,0.946,0.308c0.307,0.089,0.587,0.112,0.82,0.141c0.222,0.04,0.478,0.017,0.623,0.026
				c0.156,0.003,0.246,0.004,0.246,0.004c0.297,0.004,0.534,0.247,0.53,0.544c-0.003,0.298-0.247,0.535-0.544,0.531
				C30.209,166.235,30.173,166.231,30.141,166.224z"/>
		</g>
		<g>
			<path d="M30.813,166.446c0,0-0.097,0.039-0.265,0.107c-0.183,0.061-0.379,0.181-0.729,0.266
				c-0.166,0.044-0.346,0.093-0.536,0.144c-0.188,0.057-0.387,0.061-0.59,0.095c-0.404,0.075-0.844,0.05-1.272,0.057
				c-0.431-0.056-0.857-0.078-1.243-0.195c-0.192-0.055-0.384-0.079-0.552-0.152c-0.17-0.065-0.33-0.127-0.478-0.184
				c-0.298-0.102-0.514-0.264-0.678-0.34c-0.159-0.087-0.25-0.137-0.25-0.137s0.098,0.034,0.27,0.096
				c0.176,0.049,0.404,0.171,0.711,0.222c0.15,0.031,0.313,0.065,0.484,0.102c0.169,0.043,0.358,0.037,0.546,0.059
				c0.376,0.053,0.781,0.006,1.178-0.005c0.395-0.074,0.788-0.111,1.137-0.239c0.173-0.059,0.354-0.09,0.497-0.164
				c0.146-0.064,0.284-0.127,0.412-0.184c0.247-0.092,0.482-0.276,0.634-0.355c0.155-0.094,0.244-0.147,0.244-0.147
				c0.254-0.154,0.585-0.073,0.738,0.18c0.154,0.254,0.073,0.585-0.181,0.738C30.867,166.421,30.839,166.436,30.813,166.446z"/>
		</g>
	</g>
	<g>
		
			<path fill="#844A1D" stroke="#000000" stroke-width="0.6427" stroke-linecap="round" stroke-linejoin="round" stroke-miterlimit="10" d="
			M142.393,100.653c-2.831-0.865-22.938-5.371-24.818-4.97s-1.542,3.37,1.274,3.933c2.816,0.563,29.337,9.679,30.395,6.299
			C150.301,102.534,145.224,101.516,142.393,100.653z"/>
		
			<path fill="#844A1D" stroke="#000000" stroke-width="0.6427" stroke-linecap="round" stroke-linejoin="round" stroke-miterlimit="10" d="
			M164.414,133.211c-4.436-2.828-5.296-7.307-9.028-9.388c0,0-3.314-1.294-1.748,3.161c1.566,4.454,5.461,7.688,9.711,9.744
			c3.537,1.713,6.861,1.859,9.53,1.439C175.997,137.678,172.354,136.008,164.414,133.211z"/>
		
			<path fill="#844A1D" stroke="#000000" stroke-width="0.6427" stroke-linecap="round" stroke-linejoin="round" stroke-miterlimit="10" d="
			M153.192,125.948c0,0,0.654,4.637,2.813,1.736c2.159-2.899-6.209-22.717-8.739-23.936c-2.53-1.217-4.853,1.73-4.853,1.73
			L153.192,125.948z"/>
		
			<ellipse transform="matrix(-0.2172 0.9761 -0.9761 -0.2172 344.3561 -0.6203)" fill="#844A1D" stroke="#000000" stroke-width="0.6427" stroke-linecap="round" stroke-linejoin="round" stroke-miterlimit="10" cx="172.427" cy="137.763" rx="1.394" ry="2.684"/>
		
			<ellipse transform="matrix(-0.0921 0.9957 -0.9957 -0.0921 329.8041 -24.4401)" fill="#844A1D" stroke="#000000" stroke-width="0.6427" stroke-linecap="round" stroke-linejoin="round" stroke-miterlimit="10" cx="176.043" cy="138.126" rx="1.394" ry="2.684"/>
		
			<ellipse transform="matrix(0.0581 0.9983 -0.9983 0.0581 307.6152 -49.4961)" fill="#844A1D" stroke="#000000" stroke-width="0.6427" stroke-linecap="round" stroke-linejoin="round" stroke-miterlimit="10" cx="180.039" cy="138.279" rx="1.394" ry="2.683"/>
		
			<ellipse transform="matrix(0.187 0.9824 -0.9824 0.187 284.8019 -68.5011)" fill="#844A1D" stroke="#000000" stroke-width="0.6427" stroke-linecap="round" stroke-linejoin="round" stroke-miterlimit="10" cx="183.787" cy="137.817" rx="1.394" ry="2.683"/>
		<g>
			<path d="M186.177,137.173c0,0,0.076,0.046,0.21,0.127c0.137,0.092,0.316,0.168,0.561,0.36c0.24,0.178,0.519,0.382,0.761,0.636
				c0.266,0.232,0.49,0.537,0.729,0.819c0.201,0.313,0.421,0.608,0.562,0.925c0.168,0.299,0.271,0.603,0.364,0.856
				c0.103,0.249,0.128,0.479,0.173,0.627c0.037,0.151,0.058,0.238,0.058,0.238s-0.037-0.081-0.101-0.224
				c-0.073-0.139-0.137-0.352-0.283-0.574c-0.136-0.227-0.286-0.492-0.497-0.742c-0.185-0.268-0.443-0.504-0.676-0.751
				c-0.269-0.215-0.515-0.446-0.79-0.606c-0.259-0.187-0.516-0.302-0.726-0.407c-0.196-0.111-0.444-0.176-0.578-0.234
				c-0.146-0.054-0.23-0.085-0.23-0.085c-0.278-0.103-0.421-0.412-0.317-0.691c0.103-0.278,0.412-0.421,0.69-0.317
				C186.116,137.141,186.148,137.157,186.177,137.173z"/>
		</g>
		<g>
			<path d="M184.712,137.003c0,0,0.104-0.009,0.285-0.023c0.191-0.005,0.415-0.061,0.774-0.039c0.172,0.007,0.357,0.014,0.555,0.021
				c0.197,0.001,0.388,0.057,0.592,0.084c0.408,0.048,0.821,0.202,1.233,0.322c0.395,0.181,0.796,0.328,1.129,0.555
				c0.168,0.108,0.343,0.188,0.482,0.309c0.143,0.112,0.277,0.219,0.401,0.316c0.256,0.185,0.414,0.403,0.548,0.524
				c0.126,0.131,0.198,0.205,0.198,0.205s-0.083-0.063-0.229-0.171c-0.153-0.099-0.336-0.283-0.613-0.422
				c-0.135-0.075-0.279-0.155-0.433-0.241c-0.148-0.091-0.331-0.141-0.504-0.217c-0.344-0.161-0.746-0.236-1.127-0.344
				c-0.398-0.046-0.786-0.127-1.157-0.107c-0.183,0.005-0.364-0.019-0.523,0.009c-0.158,0.02-0.309,0.037-0.447,0.054
				c-0.264,0.016-0.544,0.122-0.712,0.152c-0.176,0.044-0.276,0.069-0.276,0.069c-0.288,0.072-0.58-0.103-0.652-0.391
				s0.103-0.58,0.391-0.651C184.653,137.011,184.685,137.006,184.712,137.003z"/>
		</g>
	</g>
	<g>
		<path d="M89.857,46.078c0,0-1.076-0.009-2.976,0.079c-1.896,0.084-4.604,0.277-7.835,0.68c-3.23,0.4-6.987,1.016-10.941,1.986
			c-1.982,0.462-4.001,1.058-6.036,1.708c-2.027,0.672-4.065,1.427-6.048,2.312c-0.991,0.441-1.98,0.888-2.935,1.398
			c-0.973,0.473-1.901,1.018-2.823,1.559c-0.938,0.514-1.787,1.153-2.671,1.714c-0.851,0.61-1.672,1.241-2.472,1.868
			c-1.553,1.314-2.987,2.669-4.198,4.089c-1.227,1.406-2.247,2.854-3.093,4.244c-0.395,0.712-0.802,1.38-1.139,2.042
			c-0.304,0.678-0.592,1.321-0.863,1.925c-0.516,1.22-0.82,2.34-1.142,3.235c-0.434,1.854-0.682,2.913-0.682,2.913
			s0.238-1.062,0.655-2.921c0.313-0.898,0.608-2.023,1.113-3.249c0.266-0.608,0.549-1.256,0.848-1.938
			c0.331-0.667,0.733-1.34,1.123-2.059c0.835-1.403,1.847-2.866,3.066-4.29c1.203-1.438,2.632-2.813,4.181-4.148
			c0.798-0.638,1.618-1.28,2.468-1.901c0.883-0.572,1.732-1.223,2.67-1.749c0.922-0.552,1.851-1.109,2.824-1.593
			c0.954-0.522,1.944-0.981,2.938-1.434c1.984-0.908,4.026-1.686,6.059-2.38c2.039-0.672,4.063-1.29,6.051-1.773
			c3.965-1.011,7.733-1.665,10.978-2.097c6.491-0.873,10.88-0.863,10.88-0.863c0.178-0.001,0.322,0.141,0.324,0.318
			s-0.141,0.323-0.318,0.324H89.857z"/>
	</g>
	<g>
		<path d="M91.073,46.077c0,0-1.072,0.044-2.959,0.226c-1.884,0.178-4.571,0.51-7.77,1.075c-6.376,1.132-14.875,3.256-22.622,7.176
			l-1.446,0.736l-1.409,0.799c-0.951,0.511-1.836,1.121-2.74,1.685c-0.894,0.579-1.731,1.226-2.585,1.828
			c-0.801,0.669-1.627,1.292-2.377,1.975c-1.502,1.363-2.883,2.767-4.044,4.221c-0.572,0.734-1.167,1.42-1.626,2.168
			c-0.47,0.738-0.994,1.41-1.354,2.141c-0.382,0.717-0.785,1.386-1.102,2.055c-0.296,0.679-0.577,1.324-0.842,1.929
			c-0.496,1.223-0.804,2.338-1.115,3.234c-0.43,1.85-0.675,2.907-0.675,2.907s0.235-1.06,0.648-2.914
			c0.303-0.899,0.601-2.019,1.087-3.249c0.259-0.609,0.535-1.257,0.825-1.941c0.312-0.674,0.709-1.348,1.086-2.071
			c0.354-0.737,0.874-1.415,1.339-2.16c0.455-0.755,1.045-1.45,1.612-2.192c1.153-1.472,2.526-2.895,4.024-4.279
			c0.747-0.694,1.571-1.327,2.37-2.007c0.853-0.612,1.689-1.271,2.583-1.861c0.902-0.575,1.788-1.197,2.738-1.719l1.409-0.817
			l1.447-0.754c1.928-1.013,3.929-1.874,5.91-2.687c1.999-0.769,3.982-1.489,5.936-2.076c3.898-1.209,7.615-2.066,10.824-2.659
			c6.422-1.202,10.795-1.41,10.795-1.41c0.177-0.01,0.329,0.125,0.339,0.302c0.011,0.177-0.125,0.33-0.302,0.34H91.073z"/>
	</g>
	<g>
		<path d="M96.593,49.681c0,0-1.041-0.004-2.878,0.119c-1.833,0.13-4.454,0.379-7.565,0.906c-1.555,0.27-3.235,0.587-4.993,1.009
			c-1.762,0.41-3.603,0.911-5.482,1.509c-1.881,0.594-3.798,1.292-5.708,2.094c-0.961,0.388-1.898,0.848-2.855,1.276
			c-0.928,0.486-1.887,0.925-2.797,1.453c-0.916,0.519-1.839,1.025-2.713,1.604l-1.322,0.845l-1.271,0.903
			c-1.691,1.198-3.249,2.521-4.7,3.858c-0.724,0.671-1.38,1.388-2.053,2.059c-0.645,0.698-1.233,1.418-1.83,2.1
			c-1.122,1.419-2.143,2.797-2.968,4.147c-0.213,0.333-0.421,0.66-0.624,0.979c-0.183,0.332-0.36,0.656-0.533,0.972
			c-0.342,0.634-0.688,1.226-0.974,1.801c-0.524,1.172-1.026,2.177-1.362,3.037c-0.647,1.729-1.017,2.718-1.017,2.718
			s0.36-0.992,0.99-2.729c0.329-0.863,0.821-1.873,1.336-3.052c0.28-0.579,0.621-1.174,0.957-1.813
			c0.171-0.318,0.346-0.645,0.525-0.979c0.2-0.321,0.406-0.65,0.616-0.986c0.814-1.361,1.824-2.752,2.938-4.188
			c0.591-0.689,1.176-1.419,1.815-2.125c0.669-0.68,1.322-1.406,2.042-2.087c1.445-1.357,2.998-2.702,4.688-3.922l1.27-0.92
			l1.321-0.862c0.873-0.591,1.797-1.109,2.712-1.64c0.912-0.54,1.871-0.99,2.801-1.488c0.957-0.439,1.897-0.911,2.859-1.311
			c1.914-0.824,3.836-1.545,5.723-2.161c1.886-0.62,3.733-1.142,5.502-1.571c1.766-0.44,3.453-0.777,5.016-1.063
			c6.261-1.114,10.532-1.133,10.532-1.133c0.178-0.003,0.323,0.139,0.326,0.316c0.003,0.178-0.139,0.324-0.315,0.327H96.593z"/>
	</g>
	<g>
		<path d="M96.603,49.681c0,0-1.014,0.025-2.801,0.208c-1.781,0.19-4.328,0.517-7.339,1.16c-3.01,0.635-6.492,1.552-10.101,2.894
			c-1.813,0.647-3.635,1.447-5.47,2.292c-1.81,0.896-3.638,1.838-5.374,2.934c-1.762,1.056-3.427,2.264-5.022,3.503
			c-0.8,0.619-1.54,1.297-2.301,1.932c-0.716,0.685-1.424,1.361-2.119,2.027c-0.652,0.708-1.308,1.393-1.923,2.086
			c-0.587,0.718-1.16,1.42-1.719,2.104c-0.516,0.718-1.017,1.416-1.501,2.091c-0.468,0.687-0.871,1.382-1.285,2.033
			c-0.426,0.644-0.756,1.306-1.089,1.926c-0.322,0.625-0.665,1.199-0.92,1.772c-0.502,1.148-0.99,2.13-1.306,2.973
			c-0.627,1.689-0.985,2.654-0.985,2.654s0.349-0.969,0.96-2.664c0.308-0.847,0.785-1.833,1.277-2.988
			c0.249-0.576,0.588-1.154,0.903-1.784c0.328-0.624,0.652-1.291,1.073-1.94c0.408-0.656,0.807-1.357,1.269-2.051
			c0.479-0.682,0.975-1.388,1.484-2.112c0.554-0.692,1.123-1.403,1.705-2.129c0.61-0.702,1.262-1.395,1.909-2.114
			c0.692-0.675,1.396-1.362,2.109-2.057c0.758-0.645,1.496-1.334,2.294-1.964c1.592-1.261,3.255-2.492,5.016-3.571
			c1.736-1.12,3.565-2.085,5.378-3.005c1.838-0.869,3.664-1.691,5.482-2.36c3.618-1.386,7.115-2.343,10.14-3.013
			c6.061-1.337,10.23-1.48,10.23-1.48c0.177-0.008,0.328,0.128,0.337,0.306c0.008,0.177-0.129,0.328-0.306,0.336L96.603,49.681z"/>
	</g>
	
		<path fill="#844A1D" stroke="#000000" stroke-width="0.6427" stroke-linecap="round" stroke-linejoin="round" stroke-miterlimit="10" d="
		M39.61,76.937c0,0-12.387-9.812-18.586,4.603c-5.443,12.656-6.239,21.158,2.703,27.244c12.263,13.613,27.682,13.378,31.328-5.205
		C58.829,84.36,39.61,76.937,39.61,76.937z"/>
	<g>
		
			<path opacity="0.2" fill="#FFFFFF" stroke="#000000" stroke-width="0.6427" stroke-linecap="round" stroke-linejoin="round" stroke-miterlimit="10" d="
			M195.179,57.621c12.193,10.755,40.738,13.926,40.621,22.612c-0.203,14.969-42.648,16.736-70.876,12.594S78.439,97,70.632,97
			c-7.807,0-12.26-4.245-7.455-4.967s22.341-8.174,40.487-33.099C121.81,34.01,183.244,47.094,195.179,57.621z"/>
		
			<path fill="none" stroke="#000000" stroke-width="0.6427" stroke-linecap="round" stroke-linejoin="round" stroke-miterlimit="10" d="
			M187.769,94.539c0,0-16.509-5.623-45.355-6.824c-28.846-1.202-68.91,7.944-68.91,7.944"/>
		
			<path fill="none" stroke="#000000" stroke-width="0.6427" stroke-linecap="round" stroke-linejoin="round" stroke-miterlimit="10" d="
			M229.394,73.676c0,0-42.44,6.557-77.27,6.09c-32.584-0.436-76.796,13.061-76.796,13.061s76.871-22.063,134.087,1.041"/>
		
			<path fill="none" stroke="#000000" stroke-width="0.6427" stroke-linecap="round" stroke-linejoin="round" stroke-miterlimit="10" d="
			M199.864,60.984c0,0-37.242,7.333-53.137,5.23c-15.193-2.01-70.351,24.803-70.351,24.803"/>
		
			<path fill="none" stroke="#000000" stroke-width="0.6427" stroke-linecap="round" stroke-linejoin="round" stroke-miterlimit="10" d="
			M171.998,48.302c-22.111,5.5-54.065,11.62-72.218,25.374c-13.325,10.096-23.403,14.94-23.403,14.94"/>
		
			<path fill="none" stroke="#000000" stroke-width="0.6427" stroke-linecap="round" stroke-linejoin="round" stroke-miterlimit="10" d="
			M142.413,44.638c-21.524,6.237-46.631,24.134-46.631,24.134"/>
		
			<path fill="none" stroke="#000000" stroke-width="0.6427" stroke-linecap="round" stroke-linejoin="round" stroke-miterlimit="10" d="
			M195.179,57.621c12.193,10.755,40.738,13.926,40.621,22.612c-0.203,14.969-42.648,16.736-70.876,12.594S78.439,97,70.632,97
			c-7.807,0-12.26-4.245-7.455-4.967s22.341-8.174,40.487-33.099C121.81,34.01,183.244,47.094,195.179,57.621z"/>
	</g>
	
		<path fill="#844A1D" stroke="#000000" stroke-width="0.6427" stroke-linecap="round" stroke-linejoin="round" stroke-miterlimit="10" d="
		M76.573,85.772c0,0,0.157,10.561-5.941,11.229c-6.098,0.666-9.73-1.813-9.73-4.174S70.447,91.667,76.573,85.772z"/>
	<path opacity="0.2" fill="#FFFFFF" d="M163.754,9.455c-2.356-1.892-5.394-2.683-8.36-3.261c-3.07-0.598-6.221-1.02-9.321-0.605
		c-3.101,0.415-6.173,1.749-8.167,4.16c-1.425,1.724-2.189,4.342-0.906,6.174c1.096,1.565,3.371,2.124,4.139,3.874
		c0.93,2.124-0.805,5.079,0.848,6.706c0.634,0.625,1.578,0.795,2.466,0.889c7.507,0.79,15.313-1.97,20.655-7.305
		c1.668-1.666,3.191-3.952,2.578-6.229c-0.244-0.911-0.813-1.702-1.452-2.396c-1.224-1.33-2.745-2.382-4.422-3.056"/>
	<path opacity="0.2" fill="#FFFFFF" d="M209.846,78.167c-1.217-2.785-3.422-5.125-6.129-6.504c-3.57-1.819-7.765-1.938-11.522-3.332
		c-3.326-1.235-6.199-3.427-9.344-5.072c-8.418-4.406-19.369-4.47-27.02,1.166c-1.525,1.124-2.941,2.503-3.656,4.257
		c-1.619,3.966,0.842,8.527,4.146,11.254c6.746,5.565,16.203,6.065,24.946,6.311c6.411,0.18,12.823,0.359,19.234,0.539l-1.893-0.715
		c2.147,0.515,4.354,1.033,6.546,0.751s4.397-1.545,5.159-3.618C210.91,81.58,210.538,79.75,209.846,78.167z"/>
	<g>
		<g>
			<path d="M100.977,150.301c0,0,0.855,0.458,1.712,0.917c0.789,0.603,1.578,1.204,1.578,1.204s-0.882-0.351-1.764-0.701
				c-0.948-0.208-1.897-0.416-1.897-0.416c-0.292-0.063-0.477-0.352-0.413-0.644c0.064-0.291,0.353-0.477,0.644-0.412
				C100.886,150.26,100.934,150.279,100.977,150.301z"/>
		</g>
		<g>
			<path d="M95.685,142.764c0,0-0.198,0.155-0.495,0.389c-0.074,0.059-0.155,0.121-0.24,0.188c-0.096,0.064-0.125,0.145-0.196,0.222
				c-0.134,0.163-0.275,0.336-0.417,0.509c-0.104,0.215-0.208,0.43-0.306,0.631c-0.043,0.104-0.115,0.2-0.129,0.303
				c-0.022,0.103-0.044,0.199-0.063,0.288c-0.08,0.368-0.133,0.613-0.133,0.613s-0.014-0.253-0.033-0.631
				c-0.005-0.098-0.01-0.203-0.016-0.314c-0.013-0.114,0.031-0.225,0.046-0.346c0.047-0.244,0.097-0.505,0.146-0.765
				c0.115-0.255,0.229-0.511,0.337-0.75c0.06-0.113,0.108-0.258,0.177-0.336c0.064-0.086,0.125-0.168,0.182-0.244
				c0.226-0.304,0.376-0.505,0.376-0.505c0.178-0.24,0.517-0.29,0.756-0.111c0.24,0.178,0.289,0.517,0.111,0.756
				C95.757,142.7,95.721,142.736,95.685,142.764z"/>
		</g>
		<g>
			<path d="M97.822,127.901c0,0,0.084,0.078,0.232,0.214c0.146,0.15,0.361,0.3,0.609,0.595c0.123,0.14,0.256,0.291,0.396,0.451
				c0.146,0.155,0.252,0.345,0.387,0.525c0.273,0.355,0.48,0.79,0.711,1.201c0.179,0.44,0.383,0.863,0.487,1.293
				c0.057,0.213,0.136,0.409,0.164,0.608c0.035,0.197,0.068,0.383,0.1,0.555c0.073,0.339,0.056,0.635,0.079,0.833
				c0.014,0.2,0.021,0.314,0.021,0.314s-0.024-0.112-0.065-0.31c-0.054-0.193-0.076-0.479-0.197-0.801
				c-0.055-0.162-0.113-0.336-0.175-0.521c-0.055-0.187-0.16-0.366-0.242-0.56c-0.157-0.392-0.414-0.766-0.636-1.148
				c-0.274-0.353-0.519-0.721-0.818-1.008c-0.145-0.145-0.268-0.307-0.412-0.419c-0.139-0.117-0.269-0.229-0.39-0.331
				c-0.221-0.208-0.504-0.359-0.656-0.476c-0.166-0.113-0.261-0.178-0.261-0.178c-0.245-0.167-0.309-0.501-0.142-0.746
				s0.501-0.31,0.746-0.143C97.781,127.867,97.804,127.884,97.822,127.901z"/>
		</g>
		<g>
			<path d="M98.585,117.925c0,0-0.377,0.041-0.941,0.102c-0.581,0.037-1.272,0.206-2.01,0.337c-0.712,0.208-1.452,0.378-1.971,0.6
				c-0.532,0.198-0.887,0.33-0.887,0.33s0.326-0.192,0.816-0.481c0.481-0.315,1.181-0.614,1.873-0.956
				c0.717-0.268,1.46-0.584,2.002-0.716c0.545-0.159,0.908-0.266,0.908-0.266c0.285-0.083,0.584,0.08,0.667,0.365
				c0.084,0.285-0.08,0.584-0.365,0.667C98.648,117.916,98.615,117.921,98.585,117.925z"/>
		</g>
		<g>
			<path d="M151.913,114.076c0,0,0.271,0.034,0.678,0.087c0.103,0.013,0.212,0.026,0.329,0.042c0.113,0.006,0.257,0.07,0.39,0.107
				c0.265,0.088,0.548,0.182,0.83,0.276c0.246,0.144,0.493,0.287,0.724,0.422c0.109,0.073,0.229,0.117,0.315,0.205
				c0.09,0.081,0.175,0.157,0.252,0.229c0.305,0.277,0.507,0.462,0.507,0.462s-0.24-0.129-0.6-0.323
				c-0.088-0.047-0.184-0.099-0.284-0.152c-0.096-0.061-0.225-0.075-0.341-0.116c-0.235-0.069-0.486-0.143-0.737-0.216
				c-0.248-0.02-0.496-0.039-0.729-0.057c-0.117-0.003-0.209-0.036-0.33-0.015c-0.117,0.014-0.228,0.027-0.329,0.039
				c-0.407,0.048-0.679,0.08-0.679,0.08c-0.296,0.036-0.564-0.175-0.601-0.471c-0.035-0.296,0.176-0.564,0.472-0.601
				C151.824,114.07,151.871,114.07,151.913,114.076z"/>
		</g>
		<g>
			<path d="M152.641,122.679c0,0-0.123,0.189-0.31,0.475c-0.217,0.291-0.348,0.645-0.548,1.036
				c-0.123,0.411-0.294,0.834-0.324,1.167c-0.056,0.335-0.094,0.558-0.094,0.558s-0.029-0.226-0.073-0.563
				c-0.07-0.345-0.031-0.803-0.031-1.28c0.074-0.461,0.137-0.992,0.249-1.294c0.095-0.326,0.158-0.545,0.158-0.545
				c0.083-0.287,0.383-0.452,0.67-0.369s0.453,0.383,0.37,0.671C152.692,122.585,152.669,122.635,152.641,122.679z"/>
		</g>
		<g>
			<path d="M161.039,134.23c0,0-0.05,0.306-0.126,0.764c-0.039,0.23-0.091,0.5-0.093,0.767c-0.016,0.277-0.032,0.573-0.049,0.869
				c0.045,0.598,0.042,1.219,0.15,1.666c0.08,0.457,0.134,0.762,0.134,0.762s-0.118-0.287-0.295-0.718
				c-0.207-0.427-0.34-1.037-0.521-1.649c-0.051-0.319-0.103-0.639-0.151-0.938c-0.06-0.31-0.066-0.578-0.077-0.81
				c-0.024-0.464-0.04-0.773-0.04-0.773c-0.016-0.297,0.212-0.551,0.51-0.566c0.297-0.015,0.55,0.213,0.565,0.511
				C161.048,134.152,161.045,134.193,161.039,134.23z"/>
		</g>
		<g>
			<path d="M164.617,133.595c0,0,0.234-0.126,0.586-0.313c0.175-0.094,0.373-0.21,0.643-0.296c0.25-0.09,0.518-0.187,0.785-0.283
				c0.27-0.052,0.54-0.104,0.793-0.152c0.246-0.062,0.486-0.062,0.688-0.067c0.399-0.013,0.666-0.021,0.666-0.021
				s-0.255,0.074-0.637,0.187c-0.188,0.055-0.408,0.11-0.626,0.229c-0.218,0.104-0.45,0.213-0.683,0.322
				c-0.205,0.14-0.409,0.278-0.602,0.409c-0.094,0.069-0.185,0.109-0.268,0.193c-0.085,0.077-0.164,0.15-0.237,0.218
				c-0.294,0.27-0.49,0.449-0.49,0.449c-0.22,0.202-0.561,0.188-0.763-0.031c-0.202-0.22-0.188-0.562,0.032-0.764
				C164.539,133.643,164.579,133.616,164.617,133.595z"/>
		</g>
		<g>
			<path d="M43.541,147.203c0,0,0.05,0.268,0.125,0.671c0.096,0.384,0.126,0.991,0.178,1.545c-0.016,0.563,0.004,1.113-0.07,1.524
				c-0.051,0.407-0.084,0.679-0.084,0.679s-0.033-0.271-0.083-0.677c-0.026-0.404-0.18-0.93-0.292-1.444
				c-0.183-0.504-0.312-0.975-0.51-1.353c-0.171-0.373-0.285-0.621-0.285-0.621c-0.124-0.271-0.006-0.591,0.265-0.716
				c0.271-0.124,0.592-0.006,0.716,0.265C43.519,147.117,43.532,147.161,43.541,147.203z"/>
		</g>
		<g>
			<path d="M44.549,139.118c0,0-0.446-0.032-1.116-0.08c-0.168-0.012-0.349-0.025-0.541-0.039c-0.196-0.024-0.373,0.022-0.574,0.031
				c-0.4,0.034-0.827,0.07-1.255,0.106c-0.426,0.105-0.851,0.212-1.25,0.311c-0.197,0.059-0.404,0.08-0.574,0.164
				c-0.175,0.074-0.34,0.145-0.492,0.21c-0.617,0.264-1.028,0.439-1.028,0.439s0.382-0.235,0.954-0.589
				c0.145-0.09,0.301-0.187,0.467-0.288c0.163-0.112,0.363-0.164,0.556-0.254c0.396-0.164,0.818-0.339,1.241-0.513
				c0.454-0.108,0.908-0.217,1.334-0.317c0.213-0.041,0.431-0.119,0.62-0.123c0.192-0.016,0.373-0.029,0.541-0.042
				c0.669-0.053,1.116-0.087,1.116-0.087c0.295-0.023,0.554,0.197,0.577,0.493c0.022,0.296-0.198,0.555-0.494,0.577
				C44.604,139.12,44.574,139.12,44.549,139.118z"/>
		</g>
		<g>
			<path d="M60.95,124.644c0,0,0.028,0.198,0.071,0.496c0.059,0.276,0.055,0.752,0.066,1.166c-0.052,0.419-0.07,0.824-0.166,1.119
				c-0.073,0.293-0.122,0.487-0.122,0.487s-0.018-0.199-0.045-0.497c-0.005-0.295-0.122-0.679-0.199-1.048
				c-0.145-0.36-0.232-0.676-0.396-0.953c-0.138-0.267-0.229-0.444-0.229-0.444c-0.139-0.267-0.034-0.595,0.232-0.732
				s0.595-0.033,0.732,0.233C60.924,124.526,60.942,124.586,60.95,124.644z"/>
		</g>
		<g>
			<path d="M64.487,119.62c0,0-0.292-0.204-0.73-0.509c-0.109-0.076-0.229-0.159-0.354-0.246c-0.126-0.097-0.261-0.136-0.4-0.212
				c-0.284-0.14-0.587-0.289-0.89-0.438c-0.331-0.104-0.662-0.207-0.973-0.305c-0.158-0.042-0.308-0.112-0.457-0.127
				c-0.148-0.021-0.29-0.043-0.42-0.063c-0.527-0.078-0.879-0.13-0.879-0.13s0.356-0.015,0.891-0.036
				c0.136-0.006,0.282-0.012,0.438-0.018c0.157-0.014,0.316,0.027,0.485,0.039c0.34,0.04,0.702,0.082,1.065,0.124
				c0.36,0.101,0.722,0.201,1.06,0.295c0.166,0.054,0.351,0.086,0.484,0.153c0.14,0.063,0.271,0.122,0.394,0.176
				c0.488,0.218,0.813,0.362,0.813,0.362c0.271,0.121,0.393,0.439,0.271,0.711c-0.12,0.271-0.438,0.394-0.71,0.272
				C64.546,119.656,64.515,119.637,64.487,119.62z"/>
		</g>
		<g>
			<path d="M24.509,118.775c0,0-0.133,1.075-0.266,2.15c0.012,1.065,0.023,2.131,0.023,2.131s-0.279-1.065-0.559-2.131
				c-0.135-1.075-0.27-2.15-0.27-2.15c-0.037-0.295,0.172-0.565,0.468-0.603s0.565,0.173,0.603,0.469
				C24.515,118.685,24.514,118.732,24.509,118.775z"/>
		</g>
		<g>
			<path d="M23.168,115.727c0,0-0.041-0.035-0.111-0.097c-0.064-0.051-0.186-0.176-0.278-0.229c-0.1-0.067-0.217-0.16-0.386-0.23
				c-0.157-0.09-0.343-0.133-0.531-0.198c-0.19-0.029-0.39-0.081-0.578-0.075c-0.192-0.018-0.369,0.007-0.525,0.024
				c-0.307,0.049-0.514,0.119-0.514,0.119s0.17-0.129,0.464-0.278c0.149-0.068,0.327-0.153,0.532-0.201
				c0.203-0.071,0.429-0.088,0.66-0.122c0.229,0,0.468-0.016,0.688,0.026c0.22,0.018,0.438,0.084,0.628,0.146
				c0.204,0.061,0.287,0.114,0.386,0.15c0.086,0.037,0.135,0.058,0.135,0.058c0.276,0.118,0.404,0.437,0.287,0.712
				s-0.437,0.403-0.712,0.286C23.259,115.794,23.209,115.762,23.168,115.727z"/>
		</g>
	</g>
	<path fill="#A26125" d="M41.367,80.603c0,0-7.782-0.731-12.566,7.694C29.586,82.442,32.324,77.522,41.367,80.603z"/>
	<path id="changecolor_2_" fill="#FF0000" d="M27.809,71.668C21.93,69.59,14.596,74.963,12.052,82.92
		c-1.823,5.707,0.007,12.652,4.976,15.285c-0.414-4.59,1.156-10.061,3.997-16.666c2.65-6.163,6.431-7.891,9.892-7.857
		C30.084,72.807,29.06,72.111,27.809,71.668z M40.792,82.319c-7.369-0.225-13.694,8.465-13.694,18.342
		c0,7.635,4.238,15.743,12.661,15.596c8.424-0.146,12.102-10.651,12.079-16.398C51.817,94.11,48.16,82.542,40.792,82.319z"/>
	<path fill="#A26125" d="M23.352,82.025c0,0,3.307-5.99,11.732-5.496C31.788,73.555,23.938,75.078,23.352,82.025z"/>
	<radialGradient id="SVGID_1_" cx="39.4678" cy="99.2866" r="14.8502" gradientUnits="userSpaceOnUse">
		<stop  offset="0" style="stop-color:#000000;stop-opacity:0"/>
		<stop  offset="1" style="stop-color:#000000;stop-opacity:0.7"/>
	</radialGradient>
	<path fill="url(#SVGID_1_)" d="M40.792,82.319c-7.369-0.225-13.694,8.465-13.694,18.342c0,7.635,4.238,15.743,12.661,15.596
		c8.424-0.146,12.102-10.651,12.079-16.398C51.817,94.11,48.16,82.542,40.792,82.319z"/>
	
		<path fill="none" stroke="#000000" stroke-width="0.6427" stroke-linecap="round" stroke-linejoin="round" stroke-miterlimit="10" d="
		M40.792,82.319c-7.369-0.225-13.694,8.465-13.694,18.342c0,7.635,4.238,15.743,12.661,15.596
		c8.424-0.146,12.102-10.651,12.079-16.398C51.817,94.11,48.16,82.542,40.792,82.319z"/>
	
		<path fill="none" stroke="#000000" stroke-width="0.6427" stroke-linecap="round" stroke-linejoin="round" stroke-miterlimit="10" d="
		M21.024,81.54c2.65-6.163,6.431-7.891,9.892-7.857c-0.832-0.875-1.856-1.572-3.107-2.014C21.93,69.59,14.596,74.963,12.052,82.92
		c-1.823,5.707,0.007,12.652,4.976,15.285C16.613,93.616,18.184,88.145,21.024,81.54z"/>
	<radialGradient id="SVGID_2_" cx="21.1387" cy="84.7124" r="11.7827" gradientUnits="userSpaceOnUse">
		<stop  offset="0" style="stop-color:#000000;stop-opacity:0"/>
		<stop  offset="1" style="stop-color:#000000;stop-opacity:0.7"/>
	</radialGradient>
	<path fill="url(#SVGID_2_)" d="M21.024,81.54c2.65-6.163,6.431-7.891,9.892-7.857c-0.832-0.875-1.856-1.572-3.107-2.014
		C21.93,69.59,14.596,74.963,12.052,82.92c-1.823,5.707,0.007,12.652,4.976,15.285C16.613,93.616,18.184,88.145,21.024,81.54z"/>
	<g>
		
			<path fill="#844A1D" stroke="#000000" stroke-width="0.6427" stroke-linecap="round" stroke-linejoin="round" stroke-miterlimit="10" d="
			M15.28,94.454c4.004-1.847,5.605,0.834,7.606,5.699c2.003,4.866-1.602,11.807-11.21,11.672c6.807-4.543,5.604-11.672,5.604-11.672
			s-6.373-2.277-10.409,4.866C6.471,102.847,11.275,96.3,15.28,94.454z"/>
		<path fill="#A26125" d="M20.244,98.282c0,0-1.867,0.916-2.129,4.355s-2.423,5.862-2.423,5.862S23.388,103.75,20.244,98.282z"/>
		<path fill="#A26125" d="M9.634,100.181c0,0,4.912-3.897,9.202-4.028C17.788,95.432,13.662,94.778,9.634,100.181z"/>
	</g>
</g>
</svg>
