<?xml version="1.0" encoding="utf-8"?>
<!-- Generator: Adobe Illustrator 22.0.0, SVG Export Plug-In . SVG Version: 6.00 Build 0)  -->
<svg version="1.1" id="Layer_1" xmlns="http://www.w3.org/2000/svg" xmlns:xlink="http://www.w3.org/1999/xlink" x="0px" y="0px"
	 width="385.3px" height="249.315px" viewBox="0 0 385.3 249.315" enable-background="new 0 0 385.3 249.315" xml:space="preserve">
<g>
	<path fill="#592710" stroke="#000000" stroke-miterlimit="10" d="M187.007,219.923c0,0,0.916,6.323,1.01,6.73
		s4.295,14.973,13.328,17.932c9.034,2.96,0.357-18.504-0.344-21.556s-1.135-6.808-1.423-7.599
		C199.289,214.64,187.007,219.923,187.007,219.923z"/>
	<path fill="#CB9A80" stroke="#000000" stroke-miterlimit="10" d="M188.737,220.606c0,0,2.242,7.886,3.616,10.457
		c1.374,2.571,6.918,1.994,8.276-0.955c1.357-2.949-3.423-17.346-3.423-17.346L188.737,220.606z"/>
	<path fill="#BD9A63" stroke="#000000" stroke-miterlimit="10" d="M102.398,211.475c0,0,0.127,5.481,0.127,6.245
		s0.127,7.01,0.765,8.03c0.637,1.02,9.049,18.481,11.981,20.266c2.932,1.784,13.765,5.353,19.501-0.127s-7.417-16.243-11.726-29.57
		c-2.849-8.81-4.554-11.924-4.554-11.924L102.398,211.475z"/>
	<path fill="#BD9A63" stroke="#000000" stroke-miterlimit="10" d="M136.829,211.794c0,0-2.134,7.967-2.134,8.963
		s3.415,4.553,6.118,5.975c2.703,1.423,5.549,4.979,7.114,7.114c1.565,2.134,8.536,5.691,18.353,5.549
		c9.817-0.142,9.248-2.561,9.248-3.984s-14.796-14.796-17.357-18.211c-2.561-3.415-3.699-5.691-3.699-5.691l-3.984-3.699
		L136.829,211.794z"/>
	<path fill="#592710" stroke="#000000" stroke-miterlimit="10" d="M204.188,220.649c0,0,6.962,6.581,8.403,9.589
		c1.441,3.008,11.357,8.58,15.418,7.006c4.061-1.573-2.872-11.575-5.87-15.617s-7.073-9.229-7.073-9.229l-10.503,3.627
		L204.188,220.649z"/>
	<path fill="#CB9A80" stroke="#000000" stroke-miterlimit="10" d="M208.22,215.757c0,0,4.146,8.874,8.501,10.772
		c4.354,1.898,6.558-0.796,5.885-2.204c-0.673-1.408-7.836-11.564-7.836-11.564L208.22,215.757z"/>
	<path fill="#F28474" stroke="#000000" stroke-linecap="round" stroke-linejoin="round" stroke-miterlimit="10" d="M242.024,226.652
		c0.423,0,5.504,5.645,6.209,8.185c0.706,2.54,11.29,12.419,17.499,12.278c6.209-0.141-1.27-13.689-2.399-16.652
		s-2.399-7.903-2.399-7.903L242.024,226.652z"/>
	<path fill="#D9B5A2" stroke="#000000" stroke-linecap="round" stroke-linejoin="round" stroke-miterlimit="10" d="M248.516,225.805
		c0,0,3.387,7.621,5.363,8.326c1.976,0.706,7.762-0.988,7.762-2.258c0-1.27-1.693-10.02-1.693-10.02L248.516,225.805z"/>
	<path fill="#9A8E82" d="M18.621,58.781C8.04,65.265,6.12,86.468,4.724,95.779s-8.282,77.567-1.758,97.355
		s13.847,21.652,13.847,21.652l366.138,0.971c0,0,3.721-59.551-0.358-81.676c-2.026-10.988-25.627-18.613-25.627-18.613
		s0.773-42.639-11.746-54.448c-10.332-9.746-102.531-13.777-135.262-12.631S27.511,53.334,18.621,58.781z"/>
	<path fill="#795C4F" d="M16.814,214.786l366.138,0.971c0,0,3.721-59.551-0.358-81.676c-0.167-0.905-0.492-1.785-0.927-2.642
		c-5.878-1.398-16.55-0.875-19.148,2.295c-3.193,3.897,1.064,53.114,0,58.176s-5.552,3.353-5.552,3.353s-0.271-34.634-3.78-39.786
		c-1.17,6.809-32.582,6.105-42.663,6.311c-10.081,0.205-72.028-4.325-120.095-3.813c-38.172,0.406-74.656,0.398-97.035-0.062
		c-5.801-0.119-10.655-0.269-14.344-0.449c-17.92-0.876-9.303-5.226-9.303-5.226s8.023-36.103,10.144-38.577
		c-9.077-18.323-8.839-26.516-8.839-26.516s-1.768,13.199-9.31,14.731c-7.542,1.532-28.766,0.048-34.305,1.934
		c-5.539,1.885-12.802,9.779-12.802,10.559c0,0,14.233,0.028,21.834,2.906c3.03,1.147,4.511,1.948,5.199,2.496l-0.284,0.606
		c-3.498-1.661-22.077-0.353-23.6,1.049c-1.65,1.519-0.707,11.563-0.471,18.87c0.218,6.762-0.876,65.201-1.04,74.276
		C16.62,214.736,16.814,214.786,16.814,214.786z"/>
	<path fill="#9A8E82" d="M46.888,147.84l23.993,2.191l11.28,2.892l9.856,5.796c0,0-10.994,1.771-21.458,0
		c-10.464-1.771-25.043-3.881-28.133-1.466c0.908-6.759,0-9.57,0-9.57L46.888,147.84z"/>
	<path fill="#795C4F" d="M301.365,86.37c0,0,16.904,10.277,25.106,8.777c14.482-2.648,27.876-2.648,30.417,20.029
		c-9.291,0.069-15.632,0.884-19.401,2.108s-4.547,23.334-4.547,23.334l-35.638,0.784l-12.237-31.216l-0.822-17.211L301.365,86.37z"
		/>
	<path fill="none" stroke="#000000" stroke-linecap="round" stroke-linejoin="round" stroke-miterlimit="10" d="M321.102,140.65
		c0.178,0.059,11.839-0.03,11.839-0.03s15.923,7.098,18.965,12.168c3.042,5.07,3.042,12.313,3.042,12.313l1.94,31.652"/>
	<path fill="none" stroke="#000000" stroke-linecap="round" stroke-linejoin="round" stroke-miterlimit="10" d="M18.916,58.832
		C8.335,65.316,6.414,86.519,5.019,95.83s-8.278,77.516-1.753,97.304s13.847,21.652,13.847,21.652l366.138,0.971
		c0,0,3.717-59.6-0.362-81.725c-2.026-10.988-25.622-18.564-25.622-18.564s0.773-42.639-11.746-54.448
		c-10.332-9.746-102.531-13.777-135.262-12.631S27.806,53.385,18.916,58.832z"/>
	<path fill="#CB9A80" stroke="#000000" stroke-linecap="round" stroke-linejoin="round" stroke-miterlimit="10" d="M312.706,155.634
		c0.417-0.597,14.701,0.645,15.624,1.332c-0.791,6.728,1.442,52.343,1.442,52.343s-9.155,0.778-10.024-0.257
		c-0.869-1.035-5.043-21.938-6.727-33.96C311.32,162.949,311.205,163.789,312.706,155.634z"/>
	<path fill="#B87552" d="M319.986,197.552c-2.716-12.549-5.484-36.76-4.365-36.703l-3.513-1.889
		c-0.824,4.893-0.514,5.942,0.913,16.132c1.684,12.021,5.858,32.924,6.727,33.96c0.3,0.358,1.596,0.496,3.154,0.528
		C322.118,206.736,321.119,202.788,319.986,197.552z"/>
	<path fill="none" stroke="#000000" stroke-linecap="round" stroke-linejoin="round" stroke-miterlimit="10" d="M312.706,155.634
		c0.417-0.597,14.701,0.645,15.624,1.332c-0.791,6.728,1.442,52.343,1.442,52.343s-9.155,0.778-10.024-0.257
		c-0.869-1.035-5.043-21.938-6.727-33.96C311.32,162.949,311.205,163.789,312.706,155.634z"/>
	<path fill="#666666" stroke="#000000" stroke-linecap="round" stroke-linejoin="round" stroke-miterlimit="10" d="M323.517,208.791
		c-0.135-1.213-0.539-3.506,1.213-4.314s6.202-1.618,7.011,0.135c0.809,1.753,0.809,5.663,0.809,5.663s3.775,7.146,4.18,8.225
		c0.404,1.079,6.876,8.899,5.932,10.786c-0.944,1.888-6.876,2.562-10.786,1.483c-3.91-1.079-8.629-9.033-10.786-11.191
		c-2.157-2.157-3.64-5.798-3.775-8.494c-0.135-2.697,1.213-7.011,1.213-7.011s-0.135,4.045,2.427,4.989
		C323.517,210.004,323.517,208.791,323.517,208.791z"/>
	<path fill="#FFFFFF" stroke="#000000" stroke-miterlimit="10" d="M342.663,229.285c0.217-0.434,0.031-1.189-0.372-2.095
		c-0.028,0.069-0.801,1.789-7.182,1.264c-6.51-0.536-8.165-4.208-10.041-6.599s-7.753-10.771-7.753-10.771
		c0.135,2.697,1.618,6.337,3.775,8.494c2.157,2.157,6.876,10.112,10.786,11.191C335.787,231.847,341.719,231.172,342.663,229.285z"
		/>
	<path fill="#666666" d="M270.907,128.429c0,0-3.75,4.067-3.433,6.654s3.222,11.777,4.542,14.312
		c1.32,2.535,11.883,11.83,11.883,11.83s10.14-2.271,12.78-3.169c-1.32-5.492-1.162-4.119-0.951-4.172
		c0.211-0.053,5.176,0.158,7.288,1.162s5.597,7.326,7.973,8.963c1.584-1.848,17.545-7.116,17.545-7.116
		c2.221-2.46-8.314-18.057-12.896-18.588c-3.751-0.435-5.281-4.753-7.447-5.387s-10.615-1.954-10.615-1.954l-18.59-2.112
		L270.907,128.429z"/>
	<path fill="#4B4B4B" d="M314.501,160.793c-1.011-0.618-2.136-1.055-3.069-1.784c-1.057-0.825-1.805-1.974-2.532-3.101
		c-1.427-2.209-2.874-4.463-3.573-6.998c-0.916-3.324-0.476-6.852-0.029-10.271c-1.304,0.773-2.473,1.868-3.033,3.276
		c-1.264,3.18,0.864,6.762,0.356,10.146c-1.151-0.721-1.99-1.844-2.714-2.993c-2.252-3.575-3.655-7.68-4.062-11.886
		c-0.868,0.581-1.364,1.6-1.54,2.63c-0.176,1.03-0.071,2.084,0.034,3.123c-0.967-0.714-1.451-1.888-2.07-2.919
		s-1.582-2.043-2.784-2.018c0.675,1.788,1.515,3.514,2.506,5.148c0.872,1.438,1.905,3.072,1.401,4.677
		c-3.683-3.947-8.95-6.371-14.344-6.604l-1.055,5.364c-0.046,1.78,0.824,3.485,2.019,4.805c1.195,1.319,2.701,2.311,4.189,3.288
		c2.426,1.592,4.852,3.184,7.277,4.776c2.167-0.53,4.209-1.059,5.198-1.396c-1.32-5.492-1.162-4.119-0.951-4.172
		c0.211-0.053,5.176,0.158,7.288,1.162s5.597,7.326,7.974,8.963c0.485-0.566,2.32-1.453,4.63-2.411
		C315.265,161.306,314.894,161.033,314.501,160.793z"/>
	<path fill="none" stroke="#000000" stroke-linecap="round" stroke-linejoin="round" stroke-miterlimit="10" d="M270.907,128.429
		c0,0-3.75,4.067-3.433,6.654s3.222,11.777,4.542,14.312c1.32,2.535,11.883,11.83,11.883,11.83s10.14-2.271,12.78-3.169
		c-1.32-5.492-1.162-4.119-0.951-4.172c0.211-0.053,5.176,0.158,7.288,1.162s5.597,7.326,7.973,8.963
		c1.584-1.848,17.545-7.116,17.545-7.116c2.357-1.731-7.547-17.857-12.896-18.588c-3.742-0.511-5.281-4.753-7.447-5.387
		s-10.615-1.954-10.615-1.954l-18.59-2.112L270.907,128.429z"/>
	<path fill="#CB9A80" stroke="#000000" stroke-linecap="round" stroke-linejoin="round" stroke-miterlimit="10" d="M274.536,149.63
		c0.105-0.191,2.515-2.316,7.447-2.352s11.898,5.211,11.898,5.211s4.162,14.259,5.346,17.848c1.184,3.589,6.874,27.216,6.874,27.216
		s-8.555-8.817-12.157-10.694c-8.028-12.438-18.521-31.478-19.463-37.024"/>
	<path fill="#B87552" d="M293.944,186.858c1.242,0.648,3.075,2.125,4.941,3.777c-2.446-5.272-11.711-25.564-12.746-32.661
		c-0.732-5.012,0.417-7.715,1.54-9.169c-1.883-0.865-3.921-1.541-5.697-1.528c-4.932,0.037-7.342,2.161-7.447,2.352l-0.054,0.204
		C275.424,155.38,285.917,174.421,293.944,186.858z"/>
	<path fill="none" stroke="#000000" stroke-linecap="round" stroke-linejoin="round" stroke-miterlimit="10" d="M274.536,149.63
		c0.105-0.191,2.515-2.316,7.447-2.352s11.898,5.211,11.898,5.211s4.162,14.259,5.346,17.848c1.184,3.589,6.874,26.425,6.874,26.425
		s-8.555-8.026-12.157-9.903c-8.028-12.438-18.521-31.478-19.463-37.024"/>
	<path fill="none" stroke="#000000" stroke-linecap="round" stroke-linejoin="round" stroke-miterlimit="10" d="M295.413,153.358
		c0-0.216,0.216-3.752-1.082-6.349s-2.669-7.647-4.329-9.451s-3.968-3.824-4.689-3.824"/>
	<path fill="#007EB9" stroke="#000000" stroke-miterlimit="10" d="M307.525,134.14c1.723,0.91,3.446,1.819,5.169,2.729
		c1.206,0.636,0.912,0.5,2.196-0.059c0.649-0.283,1.321-0.237,1.726-0.887c0.583-0.937-0.162-1.96-0.359-2.885
		c-0.501-2.354-1.642-5.25-3.725-6.628c-0.475-0.314-1.008-0.581-1.337-1.047c-0.272-0.385-0.371-0.863-0.456-1.327
		c-0.473-2.57-0.725-5.18-0.756-7.793c-0.016-1.354-0.33-5.597-0.723-6.637c0.747-0.449,1.584-0.79,2.377-1.167
		c0.291-0.138,0.591-0.284,0.797-0.532c0.55-0.665,0.173-1.658-0.223-2.425c-1.53-2.964-3.341-5.98-4.217-9.223
		c-0.887-3.287-1.617-6.939-2.087-8.087c-0.47-1.148-6.209-5.844-9.861-7.774c-3.652-1.93-10.435-3.913-10.435-3.913l-10.279,2.557
		c0,0-5.828-2.191-5.653-2.139c0.174,0.052-4.025,3.008-6.342,3.943c-2.317,0.935-6.382,2.48-7.317,3.943
		c-0.935,1.463-0.854,3.455-1.423,4.106c-0.569,0.65-1.301,2.033-1.301,2.033s0.407,8.008,0.488,10.163
		c0.081,2.155-0.61,4.594-0.447,5.529c0.163,0.935,0.772,4.919,0.772,4.919l0.569,3.171l8.848,22.23l35.024-3.635
		C298.551,133.305,307.525,134.14,307.525,134.14z"/>
	<path fill="#155998" d="M297.303,128.429c0.271-0.219,8.531-2.586,11.109-3.115c1.101-0.226,2.907,0.54,4.617,1.49
		c-0.162-0.136-0.322-0.277-0.497-0.393c-0.475-0.314-1.008-0.581-1.337-1.047c-0.272-0.385-0.37-0.863-0.456-1.327
		c-0.473-2.57-0.725-5.18-0.756-7.793c-0.016-1.354-0.33-5.597-0.723-6.637c0.012-0.007,0.025-0.012,0.037-0.019l-16.037,6.454
		l5.803,2.401l-4.256,0.296l-4.438,4.529c0,0-4.876,0.371-7.751-0.917c-2.875-1.289-13.664-11.16-15.163-15.971
		c-1.5-4.811-2.241-11.521-2.241-11.521l-0.222,8.512c0,0-0.178,1.091-1.054-2.669c-0.768-3.298,0.209-17.024,0.461-20.35
		c-0.379,0.195-0.739,0.367-1.062,0.497c-0.987,0.398-2.291,0.908-3.535,1.474l-3.684,9.155l-2.564,4.636
		c0.098,2.007,0.195,4.045,0.23,4.98c0.081,2.155-0.61,4.594-0.447,5.529c0.163,0.935,0.772,4.919,0.772,4.919l0.569,3.171
		l8.848,22.23l35.024-3.635l8.974,0.835c1.723,0.91,3.446,1.819,5.169,2.729c1.206,0.636,0.912,0.5,2.196-0.059
		c0.649-0.283,1.321-0.237,1.726-0.887c0.583-0.937-0.162-1.96-0.359-2.885c-0.006-0.028-0.015-0.058-0.021-0.086
		c-3.051-0.739-7.586-1.778-10.135-2.08C302.015,130.389,297.032,128.648,297.303,128.429z"/>
	<path fill="none" stroke="#000000" stroke-linecap="round" stroke-linejoin="round" stroke-miterlimit="10" d="M307.525,134.14
		c1.723,0.91,3.446,1.819,5.169,2.729c1.206,0.636,0.912,0.5,2.196-0.059c0.649-0.283,1.321-0.237,1.726-0.887
		c0.583-0.937-0.162-1.96-0.359-2.885c-0.501-2.354-1.642-5.25-3.725-6.628c-0.475-0.314-1.008-0.581-1.337-1.047
		c-0.272-0.385-0.371-0.863-0.456-1.327c-0.473-2.57-0.725-5.18-0.756-7.793c-0.016-1.354-0.33-5.597-0.723-6.637
		c0.747-0.449,1.584-0.79,2.377-1.167c0.291-0.138,0.591-0.284,0.797-0.532c0.55-0.665,0.173-1.658-0.223-2.425
		c-1.53-2.964-3.341-5.98-4.217-9.223c-0.887-3.287-1.617-6.939-2.087-8.087c-0.47-1.148-6.209-5.844-9.861-7.774
		c-3.652-1.93-10.435-3.913-10.435-3.913l-10.279,2.557c0,0-5.828-2.191-5.653-2.139c0.174,0.052-4.025,3.008-6.342,3.943
		c-2.317,0.935-6.382,2.48-7.317,3.943c-0.935,1.463-0.854,3.455-1.423,4.106c-0.569,0.65-1.301,2.033-1.301,2.033
		s0.407,8.008,0.488,10.163c0.081,2.155-0.61,4.594-0.447,5.529c0.163,0.935,0.772,4.919,0.772,4.919l0.569,3.171l8.848,22.23
		l35.024-3.635C298.551,133.305,307.525,134.14,307.525,134.14z"/>
	<path fill="#CB9A80" stroke="#000000" stroke-linecap="round" stroke-linejoin="round" stroke-miterlimit="10" d="M268.333,132.696
		c0,0,7.372,3.501,8.662,3.501s2.949,0.737,4.791,1.843c1.843,1.106,3.133,3.317,4.791,3.686c1.659,0.369,2.211,1.659,0.737,1.843
		c-1.474,0.184-8.109-1.843-8.109-1.843s4.791,5.16,5.529,5.897s2.333,2.891,1.67,3.549c-0.858,0.852-3.494-1.82-4.368-2.693
		s-1.94-2.038-1.94-2.038s5.871,6.333,5.071,6.697c-0.801,0.364-2.766-0.582-3.203-0.874c-0.437-0.291-4.222-3.858-4.222-3.858
		s4.222,4.877,4.513,5.169c0.291,0.291-0.794,0.689-1.376,0.543c-0.582-0.146-1.754-0.907-1.754-0.907s-0.437,0.218-1.747-0.073
		c-1.31-0.291-6.042-5.023-7.134-5.897s-3.785-4.586-3.785-4.586l-1.747-2.548l3.567-7.061L268.333,132.696z"/>
	<path fill="none" stroke="#000000" stroke-linecap="round" stroke-linejoin="round" stroke-miterlimit="10" d="M295.031,125.314
		c0.182-1.363-3.152-1.438-2.97-2.801c0.148-1.108,0.308-2.253,0.891-3.207c0.383-0.627,0.955-1.196,1.013-1.928
		c0.035-0.435-0.122-0.858-0.235-1.279c-1.308-4.842,2.799-8.365,2.802-12.993c0.002-3.436-0.366-6.931-0.611-10.358"/>
	<path fill="none" stroke="#000000" stroke-linecap="round" stroke-linejoin="round" stroke-miterlimit="10" d="M296.809,103.809
		c-0.052-0.365,0.678-7.983,0.991-9.496"/>
	<path fill="none" stroke="#000000" stroke-linecap="round" stroke-linejoin="round" stroke-miterlimit="10" d="M293.898,144.628
		c0,0-1.01-4.978-2.092-7.07"/>
	<path fill="#CB9A80" d="M266.389,54.668c-0.294,0.294-1.397,3.382-1.397,5.441s0.294,8.015,1.176,9.779
		c0.882,1.765,3.382,3.676,3.382,3.676l0.515,6.838c0,0,1.25,9.706,10.074,9.927c8.824,0.221,7.427-11.397,7.427-11.397
		s-1.029-5.074-0.294-6.618c0.735-1.544,2.279-3.309,2.279-3.309s1.029,1.471,2.206,0.735c1.176-0.735,1.471-1.176,2.279-2.279
		c0.809-1.103,0.882-2.279,1.397-3.75s0.882-1.838,0.662-2.647c-0.221-0.809-1.103-1.103-1.103-1.103s4.191-16.471-8.382-21.103
		c-4.857-1.789-10.667-1.232-13.897,1.838C267.581,45.575,266.389,54.668,266.389,54.668z"/>
	<path fill="#B87552" d="M295.246,49.393l-4.965,1.555c0,0-0.412,8.087-1.105,10.385c-0.693,2.299-1.526,1.307-2.286,5.524
		c-0.76,4.217-2.741,7.479-5.553,8.342c-2.812,0.863-3.939,1.789-7.132,1.336c-1.301-0.185-3.032-1.348-4.629-2.658l0.212,2.819
		c2.552,2.069,5.866,4.596,8.231,5.816c4.376,2.257,8.871-3.228,8.871-3.228l0.606,3.696c0.291-2.203,0.071-4.047,0.071-4.047
		s-1.029-5.074-0.294-6.618c0.735-1.544,2.28-3.309,2.28-3.309s0.038,0.05,0.093,0.116c1.156-4.651,3.24-10.376,3.24-10.376
		l2.57-1.463C295.697,55.27,295.835,52.36,295.246,49.393z"/>
	<path fill="none" stroke="#000000" stroke-linecap="round" stroke-linejoin="round" stroke-miterlimit="10" d="M266.389,54.668
		c-0.294,0.294-1.397,3.382-1.397,5.441s0.294,8.015,1.176,9.779c0.882,1.765,3.382,3.676,3.382,3.676l0.515,6.838
		c0,0,1.25,9.706,10.074,9.927c8.824,0.221,7.427-11.397,7.427-11.397s-1.029-5.074-0.294-6.618
		c0.735-1.544,2.279-3.309,2.279-3.309s1.029,1.471,2.206,0.735c1.176-0.735,1.471-1.176,2.279-2.279
		c0.809-1.103,0.882-2.279,1.397-3.75s0.882-1.838,0.662-2.647c-0.221-0.809-1.103-1.103-1.103-1.103s4.191-16.471-8.382-21.103
		c-4.857-1.789-10.667-1.232-13.897,1.838C267.581,45.575,266.389,54.668,266.389,54.668z"/>
	<path fill="none" stroke="#000000" stroke-linecap="round" stroke-linejoin="round" stroke-miterlimit="10" d="M274.315,56.347
		c0,0-0.704-0.704-2.452-0.835c-1.748-0.13-3.131,0.548-3.131,0.548s2.687,0.339,3.444,0.365
		C272.932,56.451,274.315,56.347,274.315,56.347z"/>
	<path fill="none" stroke="#000000" stroke-linecap="round" stroke-linejoin="round" stroke-miterlimit="10" d="M280.863,57.234
		c0,0,1.461-0.574,3.418,0.078c1.957,0.652,2.609,1.435,2.609,1.435s-1.826-0.496-3.313-0.783S280.863,57.234,280.863,57.234z"/>
	<path fill="none" stroke="#000000" stroke-linecap="round" stroke-linejoin="round" stroke-miterlimit="10" d="M273.705,52.234
		l-0.507,0.744c0,0-2.03-0.372-3.214,0s-2.368,1.15-2.368,1.15s1.15-1.658,3.214-2.03C272.894,51.727,273.705,52.234,273.705,52.234
		z"/>
	<path fill="none" stroke="#000000" stroke-linecap="round" stroke-linejoin="round" stroke-miterlimit="10" d="M280.438,53.249
		l0.609,0.981c0,0,2.098-0.44,4.06,0.068s2.943,1.353,2.943,1.353s-1.725-2.199-3.924-2.436
		C281.926,52.979,280.438,53.249,280.438,53.249z"/>
	<path fill="#161616" stroke="#000000" stroke-linecap="round" stroke-linejoin="round" stroke-miterlimit="10" d="M266.297,54.399
		c0.102-0.068,3.451-2.774,5.21-5.21c-1.286,1.827-1.556,2.3-1.556,2.3s4.195-3.248,4.33-3.214c-1.861,2.537-1.725,2.74-1.725,2.74
		s3.282-0.744,5.717-2.605c2.436-1.861,3.721-2.233,3.721-2.233l-2.368,3.282c0,0,2.673-2.098,3.721-2.233
		c-2.165,1.759-2.842,3.011-2.842,3.011s6.022-0.643,6.597-1.286c0.575-0.643,0.575-0.406,0.575-0.406s0.203,4.094,1.015,5.075
		c0.169-1.692,0.507-1.928,0.507-1.928s-0.068,2.639,0.778,4.533c0.846,1.895,1.286,3.891,1.353,4.939s-0.338,3.248-0.338,3.248
		l0.44,0.034c0,0,0.846-1.658,1.015-2.368c0.169-0.71,1.436-2.102,2.545-2.117c0.804,0.527,1.177,0.899,1.177,0.899
		s0.338-1.928,0.44-6.293c0.101-4.364-1.015-11.198-2.943-13.194c-1.928-1.996-3.383-1.996-3.383-1.996s-5.108-5.007-9.879-4.06
		s-9.642,2.943-11.367,5.311s-2.876,6.36-2.977,8.762s-0.846,5.379-0.846,5.65c0,0.271,0.169,1.218,0.169,1.218L266.297,54.399z"/>
	<path fill="#FFFFFF" stroke="#000000" stroke-linecap="round" stroke-linejoin="round" stroke-miterlimit="10" d="M271.644,66.799
		c0,0,1.33-0.95,4.783-0.475c3.453,0.475,4.91,1.362,4.91,1.362s-1.299,1.869-5.036,1.362
		C272.562,68.541,271.644,66.799,271.644,66.799z"/>
	<path fill="none" stroke="#000000" stroke-linecap="round" stroke-linejoin="round" stroke-miterlimit="10" d="M272.182,68.667
		c0,0,0.475,1.679,3.738,2.091c3.262,0.412,4.086-1.014,4.086-1.014"/>
	<path stroke="#000000" stroke-linecap="round" stroke-linejoin="round" stroke-miterlimit="10" d="M274.217,61.942
		c0,0,0-0.235,0.587-0.137c0.587,0.098,0.685,0.352,0.685,0.352S274.589,62.373,274.217,61.942z"/>
	<path stroke="#000000" stroke-linecap="round" stroke-linejoin="round" stroke-miterlimit="10" d="M277.406,62.456
		c0,0,0.489-0.313,0.92-0.215c0.43,0.098,0.333,0.43,0.137,0.489C278.267,62.788,277.406,62.456,277.406,62.456z"/>
	<path fill="#666666" stroke="#000000" stroke-linecap="round" stroke-linejoin="round" stroke-miterlimit="10" d="M298.171,200.573
		c0.459,0.031-0.309-2.883,0.721-3.5s5.044-1.75,5.559-0.618s0.515,3.191,0.515,3.191s1.132,0.927,1.029,0.618
		c-0.103-0.309-0.206-1.853-0.206-1.853s2.78,6.589,2.78,7.206s5.971,13.692,5.147,15.648c-0.824,1.956-8.648,5.868-12.766,1.647
		c-4.118-4.221-4.942-16.472-5.456-18.428s-0.103-6.589-0.103-6.589S296.627,200.47,298.171,200.573z"/>
	<path fill="#FFFFFF" stroke="#000000" stroke-miterlimit="10" d="M313.716,221.266c0.339-0.804-0.472-3.489-1.543-6.414
		l-1.029-0.758c0,0,4.061,4.172,0,6.224s-7.591,1.585-10.24-0.346c-2.648-1.931-4.098-10.507-4.098-10.507l1.34-5.513l-1.445-4.184
		c-0.615-0.616-1.067-1.407-1.236-1.726l-0.095,0.099c-0.075,0.972-0.322,4.654,0.123,6.344c0.515,1.956,1.338,14.207,5.456,18.428
		C305.068,227.134,312.893,223.222,313.716,221.266z"/>
	<path fill="none" stroke="#000000" stroke-linecap="round" stroke-linejoin="round" stroke-miterlimit="10" d="M269.551,73.565
		c0.216,0.012,2.927,2.107,4.653,2.969s5.114,0.37,6.716-0.123c1.602-0.493,4.313-3.019,4.313-3.019"/>
	<path fill="none" stroke="#000000" stroke-linecap="round" stroke-linejoin="round" stroke-miterlimit="10" d="M294.291,61.87
		c-1.109,1.417-1.849,2.526-2.033,3.266c-0.185,0.739-0.246,0.739-0.616,1.294c-0.37,0.555,0,0.986,0,0.986l1.787-1.417"/>
	<path fill="none" stroke="#000000" stroke-linecap="round" stroke-linejoin="round" stroke-miterlimit="10" d="M210.023,38.416
		c0.109,0.031,4.252,4.652,3.903,7.689c-0.349,3.037-0.656,4.401-0.656,4.401s2.018,13.938,2.821,15.537
		c9.602,1.813,17.789,1.971,22.313-3.493c1.362-7.73,1.372-15.254-1.695-18.551c-4.724-5.06-6.31-10.683-6.31-10.683l-8.375,5.081
		L210.023,38.416z"/>
	<path fill="#D9B5A2" d="M210.023,38.416c0.109,0.031,4.252,4.652,3.903,7.689c-0.349,3.037-0.656,4.401-0.656,4.401
		s2.018,13.938,2.821,15.537c9.602,1.813,17.789,1.971,22.313-3.493c1.362-7.73,1.372-15.254-1.695-18.551
		c-4.724-5.06-6.31-10.683-6.31-10.683l-8.375,5.081L210.023,38.416z"/>
	<path fill="#C69073" d="M204.033,26.05c0.03,0.048,6.049,10.182,8.31,12.208c2.261,2.025,6.485,4.498,9.251,3.661
		s5.5-3.215,5.5-3.215l4.425-4.636l1.952,4.976c0,0-2.329,7.921-7.493,9.453c-5.164,1.532-15.955-6.023-15.955-6.023l-6.093-7.571
		l-2.685-6.477l0.711-4.177"/>
	<path fill="#DCD0BD" d="M263.495,120.139c0.293,0.343,5.819,15.299,7.187,19.198c1.369,3.898,1.601,13.197,1.182,16.98
		s-3.813,19.469-4.389,22.427c-0.576,2.958-4.738,44.866-4.738,44.866s-15.798,6.158-19.515,4.587
		c-3.717-1.571-7.589-3.056-7.589-3.056s0.684-13.461,2.031-23.744s2.383-23.129,2.888-28.21c0.505-5.081,1.326-17.59,1.326-17.59
		s-15.219,1.465-22.847-3.293c-7.628-4.757-12.248-15.556-14.753-20.036c-2.505-4.479-2.319-11.579-2.085-14.244
		s1.225-4.335,1.225-4.335l32.802,1.73l13.409,0.409L263.495,120.139z"/>
	<path fill="#BD9C82" d="M267.443,163.42c-1.832-5.854-3.979-11.85-8.251-16.252c-4.272-4.402-11.242-6.764-16.713-3.991
		c-2.712,1.374-4.722,3.788-6.652,6.137l4.808,1.26c-1.048,1.571-1.656,3.353-2.056,5.206c2.009-0.059,3.299-0.182,3.299-0.182
		s-0.821,12.509-1.326,17.59c-0.126,1.269-0.285,3.023-0.474,5.1c4.99,1.194,9.612,3.935,12.998,7.796
		c5.612,6.4,7.546,15.113,11.138,22.851c1.257-12.392,2.915-28.402,3.263-30.19c0.249-1.279,1.025-4.938,1.859-8.985
		C268.726,167.64,268.101,165.525,267.443,163.42z"/>
	<path fill="none" stroke="#000000" stroke-linecap="round" stroke-linejoin="round" stroke-miterlimit="10" d="M263.495,120.139
		c0.293,0.343,5.819,15.299,7.187,19.198c1.369,3.898,1.601,13.197,1.182,16.98s-3.813,19.469-4.389,22.427
		c-0.576,2.958-4.738,44.866-4.738,44.866s-15.798,6.158-19.515,4.587c-3.717-1.571-7.589-3.056-7.589-3.056
		s0.684-13.461,2.031-23.744s2.383-23.129,2.888-28.21c0.505-5.081,1.326-17.59,1.326-17.59s-15.219,1.465-22.847-3.293
		c-7.628-4.757-12.248-15.556-14.753-20.036c-2.505-4.479-2.319-11.579-2.085-14.244s1.225-4.335,1.225-4.335l32.802,1.73
		l13.409,0.409L263.495,120.139z"/>
	<path fill="#FFFFFF" stroke="#000000" stroke-linecap="round" stroke-linejoin="round" stroke-miterlimit="10" d="M255.705,55.978
		c0,1.406-2.25,41.064-2.25,41.064l5.907,19.688l5.094,6.342c0,0-14.52-10.687-30.401-0.826s-25.883,1.234-25.883,1.234
		s-2.531-19.126-3.656-22.22c-1.125-3.094-0.281-29.533-0.281-29.533l2.25-9.282l10.407-2.813l14.907-0.281L255.705,55.978z"/>
	<path fill="#F28474" stroke="#000000" stroke-linecap="round" stroke-linejoin="round" stroke-miterlimit="10" d="M287.053,205.357
		c0-0.344,5.731,4.012,9.17,6.877c3.439,2.866,19.142,8.597,23.039,5.387c3.897-3.209-9.17-13.64-10.202-15.245
		c-1.032-1.605-2.98-3.439-2.98-3.439l-4.241-0.573L287.053,205.357z"/>
	<path fill="#D9B5A2" stroke="#000000" stroke-linecap="round" stroke-linejoin="round" stroke-miterlimit="10" d="M294.985,205.096
		c0.347,0,5.825,4.369,9.362,4.369c3.537,0,6.727-1.803,6.796-2.913s-6.519-8.114-6.519-8.114l-7.906,0.485L294.985,205.096z"/>
	<path fill="#DCD0BD" d="M225.674,118.681c0.896,0.057,16.411,4.509,23,6.502c6.589,1.993,13.54,4.088,15.765,6.797
		c2.225,2.71,13.261,21.175,16.991,27.301c3.73,6.126,16.433,24.672,21.127,31.071c4.693,6.398,6.196,8.904,6.196,8.904
		s-2.825,4.013-9.284,5.699c-6.458,1.685-14.899,1.64-17.359,0.685c-2.461-0.956-6.387-3.626-7.819-5.462
		c-1.432-1.835-14.248-23.664-17.514-30.05c-3.267-6.385-5.416-12.585-7.154-13.336s-1.238-0.22-3.215-0.129
		c-1.977,0.091-1.22,0.175-4.055,0.544c-2.835,0.369-8.74,2.059-16.519,0.012c-13.314-3.504-22.188-17.196-23.931-25.751
		c-1.743-8.555,4.533-14.194,4.533-14.194L225.674,118.681z"/>
	<path fill="#BD9C82" d="M295.936,205.681c-1.287-2.928-3.969-5.145-6.486-7.219c-10.898-8.977-21.332-19.228-26.825-32.235
		c-1.989-4.709-3.255-10.02-6.381-14.158c-1.517-2.008-1.381-4.317-1.456-6.821c-0.067-2.24-0.637-6.226,0.297-8.295
		c-2.385,5.282-3.766,10.951-5.135,16.582c-1.846-2.692-1.792-6.22-1.501-9.471c0.265-2.958,0.668-5.903,1.208-8.823
		c-0.986,0.589-1.314,1.837-1.557,2.959c-0.915,4.237-1.831,8.474-2.746,12.712c-0.662,0.131-1.126-0.642-1.282-1.298
		c-1.031-4.35,1.817-8.776,1.423-13.229c-1.573,1.201-2.571,3.123-2.648,5.1c-0.043,1.097,0.058,2.454-0.89,3.008
		c-0.294,0.172-0.641,0.224-0.98,0.257c-3.346,0.327-6.644-0.825-9.783-2.028c-2.618-1.003-5.247-2.072-7.512-3.724
		c-1.955-1.426-3.581-3.247-5.185-5.058c-1.232-1.391-2.482-2.817-3.208-4.528c-1.402-3.301-0.649-7.075,0.125-10.577
		c0.063-0.287,0.161-0.593,0.287-0.885l-9.266-0.678c0,0-6.275,5.639-4.532,14.194s10.616,22.248,23.931,25.751
		c7.779,2.047,13.684,0.357,16.519-0.012s2.079-0.453,4.055-0.544c1.977-0.091,1.477-0.623,3.215,0.129
		c1.738,0.751,3.887,6.951,7.154,13.336c3.267,6.385,16.082,28.214,17.514,30.05c1.432,1.835,5.358,4.506,7.819,5.462
		C284.14,206.427,290.237,206.593,295.936,205.681z"/>
	<path fill="none" stroke="#000000" stroke-linecap="round" stroke-linejoin="round" stroke-miterlimit="10" d="M225.674,118.681
		c0.896,0.057,16.411,4.509,23,6.502c6.589,1.993,13.54,4.088,15.765,6.797c2.225,2.71,13.261,21.175,16.991,27.301
		c3.73,6.126,16.433,24.672,21.127,31.071c4.693,6.398,6.196,8.904,6.196,8.904s-2.825,4.013-9.284,5.699
		c-6.458,1.685-14.899,1.64-17.359,0.685c-2.461-0.956-6.387-3.626-7.819-5.462c-1.432-1.835-14.248-23.664-17.514-30.05
		c-3.267-6.385-5.416-12.585-7.154-13.336s-1.238-0.22-3.215-0.129c-1.977,0.091-1.22,0.175-4.055,0.544
		c-2.835,0.369-8.74,2.059-16.519,0.012c-13.314-3.504-22.188-17.196-23.931-25.751c-1.743-8.555,4.533-14.194,4.533-14.194
		L225.674,118.681z"/>
	<path fill="none" stroke="#000000" stroke-linecap="round" stroke-linejoin="round" stroke-miterlimit="10" d="M249.622,156.791
		c0,0-1.107-2.524-0.874-5.189"/>
	<path fill="none" stroke="#000000" stroke-linecap="round" stroke-linejoin="round" stroke-miterlimit="10" d="M253.804,140.157
		c0,0-1.32,13.411-3.216,17.817"/>
	<path fill="none" stroke="#000000" stroke-linecap="round" stroke-linejoin="round" stroke-miterlimit="10" d="M245.803,155.582
		c0,0-4.042-6.864-1.476-11.341"/>
	<path fill="#F28474" d="M235.674,42.531c0,0,3.8,6.249,3.017,15.122s-1.823,18.929-2.612,21.999
		c-0.789,3.07-0.963,7.568,0.482,12.994c1.445,5.426,2.132,21.013,4.96,24.321s24.06,6.149,24.06,6.149s1.076-0.48-0.244-2.186
		c-1.321-1.706-4.716-7.449-4.716-7.449s-0.145-3.648-1.373-5.406c-1.228-1.758-1.479-2.535-1.479-2.535l-0.003-1.099
		c0,0,2.587-4.992,3.543-11.7s2.817-15.512,2.994-22.518s0.362-11.266,0.274-13.173s-1.434-5.188-2.288-6.605
		c-0.854-1.417-4.116-4.3-7.715-5.16c-3.599-0.86-7.985-1.708-11.127-2.518c-3.142-0.81-8.067-1.418-8.067-1.418l0.232,1.398"/>
	<path fill="#E1604A" d="M244.424,105.507c-1.804,1.093-3.608,2.186-5.413,3.28c0.615,3.651,1.379,6.78,2.457,8.113
		c2.583-0.955,5.206-1.814,7.759-2.846c3.627-1.466,7.188-3.353,9.923-6.12c-1.137-1.652-1.382-2.392-1.382-2.392l-0.003-1.098
		c0,0,2.241-4.329,3.322-10.339c-0.263-0.239-0.57-0.413-0.94-0.462c-1.351-0.181-2.438,1.339-3.801,1.307
		c-0.668-0.016-1.261-0.405-1.813-0.781c-1.319-0.897-2.638-1.794-3.958-2.691c1.614,0.103,3.227,0.206,4.841,0.309
		c0.964,0.062,1.974,0.116,2.855-0.281c0.881-0.397,1.569-1.402,1.271-2.321c-2.745,1.626-6.08,2.229-9.22,1.668
		c-0.264-0.047-0.536-0.106-0.751-0.268c-0.293-0.22-0.427-0.595-0.473-0.959c-0.268-2.127,1.931-3.737,3.982-4.358
		c2.052-0.621,4.385-0.861,5.874-2.403c1.285-1.33,1.586-3.51,0.708-5.138c-1.61,1.26-1.488,3.816-2.83,5.358
		c-1.548,1.779-4.326,1.555-6.653,1.168c1.165-0.499,2.331-0.998,3.496-1.497c-0.031-0.86-1.265-0.927-2.029-1.325
		c-1.392-0.723-1.221-2.736-0.858-4.262c1.858-7.806,3.361-16.28,0.159-23.638c-0.445,4.218-0.642,8.462-0.59,12.703
		c-0.532-1.18-1.065-2.36-1.597-3.541c0.396,3.839,0.509,7.708,0.339,11.563c-0.07,1.576-0.199,3.199-0.917,4.604
		c-1.369,2.681-4.483,3.908-7.373,4.748c-3.005,0.873-4.623,2.554-5.025,5.272c0.174,1.198,0.425,2.454,0.775,3.767
		c0.397,1.489,0.736,3.744,1.078,6.299c0.023,0.014,0.047,0.039,0.068,0.031c1.048-0.419,1.529-1.594,2.194-2.506
		c1.205-1.653,3.247-2.577,5.288-2.709c2.041-0.132,4.078,0.461,5.906,1.378c1.448,0.726,2.953,1.956,2.871,3.573
		c-0.069,1.36-1.252,2.391-2.447,3.043c-0.958,0.524-2.119,0.919-3.125,0.492c-0.653-0.278-1.12-0.854-1.645-1.333
		c-1.179-1.075-2.761-1.698-4.357-1.716c1.175,0.711,2.258,1.574,3.214,2.56c0.283,0.292,0.564,0.609,0.679,1
		C246.623,103.905,245.447,104.887,244.424,105.507z"/>
	<path fill="#F28474" d="M212.99,43.175c0,0,0.674,3.719,0.711,6.081c0.038,2.363,1.378,14.816,2.788,18.429
		c1.409,3.613,4.606,12.827,4.592,18.704c-0.015,5.876-1.54,12.658-2.662,15.242c-1.122,2.584-5.006,14.658-5.006,14.658
		l-12.292,10.88l-14.136-59.624c0,0,3.173-12.02,3.089-12.279c-0.084-0.259,1.821-6.466,7.147-8.575S212.99,43.175,212.99,43.175z"
		/>
	<path fill="#E1604A" d="M211.971,91.99c1.709-0.371,3.46-0.55,5.209-0.531c0.514,0.005,1.114-0.012,1.417-0.428
		c0.28-0.385,0.143-0.958-0.183-1.306c-0.326-0.348-0.791-0.524-1.241-0.681c-2.167-0.755-4.487-1.376-6.16-2.947
		c-1.219-1.143-1.975-2.686-2.638-4.219c-1.718-3.973-2.987-8.139-3.776-12.395c-0.736-3.966-1.918-8.372-4.162-11.785
		c-0.196-0.298-0.514-0.626-0.85-0.506c0.784,4.663,0.899,9.439,0.341,14.134c-0.035,0.29-0.088,0.61-0.315,0.793
		c-0.469,0.378-1.123-0.135-1.498-0.607c-1.026-1.291-2.053-2.581-3.079-3.872c0.334,3.823,0.669,7.652,0.649,11.489
		c-1.801-0.743-2.774-2.668-3.511-4.471c-1.412-3.453-2.517-7.027-3.319-10.67c-0.134-0.61-0.184-1.463-0.441-1.912
		c-0.731,2.83-1.427,5.466-1.427,5.466l7.791,32.861c0.395-0.403,0.833-0.761,1.325-1.047c1.762-1.025,4.186-1.014,5.714,0.335
		c0.948,0.837,1.491,2.087,2.53,2.807c0.914,0.632,2.073,0.759,3.178,0.868c0.135-1.111-1.047-2.194-0.608-3.224
		c0.131-0.308,0.389-0.54,0.645-0.756c1.236-1.043,2.595-1.941,4.041-2.667c0.456-0.229,0.993-0.553,0.978-1.063
		c-0.03-1.007-1.819-0.708-2.401-1.53c-0.321-0.453-0.129-1.121,0.28-1.496C210.867,92.258,211.429,92.108,211.971,91.99z"/>
	<path fill="none" stroke="#000000" stroke-linecap="round" stroke-linejoin="round" stroke-miterlimit="10" d="M210.847,108.691
		c-2.343-1.998-8.71-6.25-7.861-9.852c0.197-0.836,0.657-1.877-0.007-2.423c-0.113-0.093-0.249-0.156-0.369-0.24
		c-0.835-0.585-0.635-1.846-0.407-2.839c0.8-3.476,0.753-7.012,0.672-10.553c-0.054-2.354,0.309-4.616,0.198-7.006
		c-0.22-4.723-0.339-9.864-1.726-14.42"/>
	<path fill="none" stroke="#000000" stroke-linecap="round" stroke-linejoin="round" stroke-miterlimit="10" d="M235.674,42.531
		c0,0,3.8,6.249,3.017,15.122s-1.823,18.929-2.612,21.999c-0.789,3.07-0.963,7.568,0.482,12.994
		c1.445,5.426,2.132,21.013,4.96,24.321s24.06,6.149,24.06,6.149s1.076-0.48-0.244-2.186c-1.321-1.706-4.716-7.449-4.716-7.449
		s-0.145-3.648-1.373-5.406c-1.228-1.758-1.479-2.535-1.479-2.535l-0.003-1.099c0,0,2.587-4.992,3.543-11.7
		s2.817-15.512,2.994-22.518s0.362-11.266,0.274-13.173s-1.434-5.188-2.288-6.605c-0.854-1.417-4.116-4.3-7.715-5.16
		c-3.599-0.86-7.985-1.708-11.127-2.518c-3.142-0.81-8.067-1.418-8.067-1.418l0.232,1.398"/>
	<path fill="none" stroke="#000000" stroke-linecap="round" stroke-linejoin="round" stroke-miterlimit="10" d="M212.99,43.175
		c0,0,0.674,3.719,0.711,6.081c0.038,2.363,1.378,14.816,2.788,18.429c1.409,3.613,4.606,12.827,4.592,18.704
		c-0.015,5.876-1.54,12.658-2.662,15.242c-1.122,2.584-5.006,14.658-5.006,14.658l-12.292,10.88l-14.136-59.624
		c0,0,3.173-12.02,3.089-12.279c-0.084-0.259,1.821-6.466,7.147-8.575S212.99,43.175,212.99,43.175z"/>
	<path fill="none" stroke="#000000" stroke-linecap="round" stroke-linejoin="round" stroke-miterlimit="10" d="M214.17,50.095
		c0,0,4.077,1.388,5.477,1.705"/>
	<path fill="none" stroke="#000000" stroke-linecap="round" stroke-linejoin="round" stroke-miterlimit="10" d="M232.331,47.702
		c0.301,0.32,1.005,3.655,4.144,3.367"/>
	<path fill="#F28474" d="M250.728,105.491c-2.673-3.549-5.393-7.102-7.446-10.891c-0.111-0.154-0.215-0.312-0.325-0.467
		c-1.092,0.694-2.261,1.559-2.909,2.417c-1.441,1.909,0.529,0.407-3.07,3.122c-3.599,2.715-5.822,4.661-6.926,5.378
		s-7.27,3.865-7.27,3.865l3.787,9.822c0,0,13.651-3.219,17.711-5.289c2.293-1.169,5.568-3.053,8.397-4.945
		C252.018,107.506,251.368,106.502,250.728,105.491z"/>
	<path fill="#E1604A" d="M236.428,110.876c-3.933,1.087-8.037,1.347-12.084,1.863c-0.027,0.003-0.055,0.008-0.082,0.012l2.308,5.987
		c0,0,13.651-3.219,17.711-5.289c2.293-1.169,5.568-3.053,8.397-4.945c-0.659-0.998-1.309-2.002-1.95-3.013
		c-0.906-1.204-1.817-2.408-2.706-3.622c-1.791-0.875-3.582-1.75-5.374-2.625c1.122,0.909,2.244,1.818,3.366,2.727
		c0.466,0.378,0.975,0.841,0.97,1.441c-0.003,0.376-0.215,0.716-0.432,1.023C244.194,107.765,240.36,109.789,236.428,110.876z"/>
	<path fill="#D9B5A2" d="M223.619,117.689c0,0-5.028,3.666-7.437,4.295s-5.238,3.666-5.657,3.876s-8.59,0.524-9.428,0
		s-1.886-4.295-1.886-4.295l8.171-6.076l6.285-2.095L223.619,117.689z"/>
	<path fill="none" stroke="#000000" stroke-linecap="round" stroke-linejoin="round" stroke-miterlimit="10" d="M223.619,117.689
		c0,0-5.028,3.666-7.437,4.295s-5.238,3.666-5.657,3.876s-8.59,0.524-9.428,0s-1.886-4.295-1.886-4.295l8.171-6.076l6.285-2.095
		L223.619,117.689z"/>
	<path fill="none" stroke="#000000" stroke-linecap="round" stroke-linejoin="round" stroke-miterlimit="10" d="M249.512,68.082
		c0,0,1.442,10.832,0.139,13.166c-1.303,2.334-0.91,3.218-1.231,3.899s-0.883,0.394-1.593,1.995
		c-0.71,1.601-0.705,3.404-0.635,4.068c0.07,0.663-0.676,1.482-0.676,1.482s-4.026,1.951-5.467,3.86
		c-1.441,1.909,0.528,0.407-3.07,3.122s-5.822,4.66-6.926,5.378c-1.104,0.718-7.27,3.865-7.27,3.865l3.787,9.822
		c0,0,13.651-3.219,17.711-5.289c4.06-2.07,11.2-6.382,13.486-9.005"/>
	<path fill="none" stroke="#000000" stroke-linecap="round" stroke-linejoin="round" stroke-miterlimit="10" d="M246.16,92.23
		c0,0,0.625-1.754,4.267-0.982"/>
	<path fill="#D9B5A2" d="M218.841,105.124c0.242,0.165,3.356-0.302,4.69-0.598c1.334-0.296,2.928,1.212,3.882,1.578
		c0.955,0.366,0.997,1.917-0.604,2.138c-1.601,0.221-3.385-0.957-3.385-0.957l-1.206,0.525L218.841,105.124z"/>
	<path fill="none" stroke="#000000" stroke-linecap="round" stroke-linejoin="round" stroke-miterlimit="10" d="M218.841,105.124
		c0.242,0.165,3.356-0.302,4.69-0.598c1.334-0.296,2.928,1.212,3.882,1.578c0.955,0.366,0.997,1.917-0.604,2.138
		c-1.601,0.221-3.385-0.957-3.385-0.957l-1.206,0.525L218.841,105.124z"/>
	<path fill="#D9B5A2" d="M210.255,108.276c0.165-0.242,2.147-0.451,3.517-1.892c1.369-1.441,1.418-2.293,3.071-2.017
		s3.576,1.3,5.882,3.01c2.306,1.71,5.598,5.719,6.161,7.128c0.563,1.41-0.475,3.04-1.518,2.649c1.392,2.221,0.643,2.49,0.135,2.924
		s-1.921-0.351-1.921-0.351s0.385,1.359-0.593,1.756c-0.978,0.397-5.145-2.897-5.145-2.897s1.046,1.065-0.531,1.197
		c-1.576,0.132-6.376-2.283-8.423-2.189s-4.982,0.612-4.982,0.612s-2.503-4.074,0.043-7.298
		C208.499,107.683,210.255,108.276,210.255,108.276z"/>
	<path fill="none" stroke="#000000" stroke-linecap="round" stroke-linejoin="round" stroke-miterlimit="10" d="M210.255,108.276
		c0.165-0.242,2.147-0.451,3.517-1.892c1.369-1.441,1.418-2.293,3.071-2.017s3.576,1.3,5.882,3.01
		c2.306,1.71,5.598,5.719,6.161,7.128c0.563,1.41-0.475,3.04-1.518,2.649c1.392,2.221,0.643,2.49,0.135,2.924
		s-1.921-0.351-1.921-0.351s0.385,1.359-0.593,1.756c-0.978,0.397-5.145-2.897-5.145-2.897s1.046,1.065-0.531,1.197
		c-1.576,0.132-6.376-2.283-8.423-2.189s-4.982,0.612-4.982,0.612s-2.503-4.074,0.043-7.298
		C208.499,107.683,210.255,108.276,210.255,108.276z"/>
	<path fill="none" stroke="#000000" stroke-linecap="round" stroke-linejoin="round" stroke-miterlimit="10" d="M227.037,116.963
		c0,0-2.172-3.885-4.554-5.327c-2.382-1.443-6.61-4.177-6.61-4.177"/>
	<path fill="none" stroke="#000000" stroke-linecap="round" stroke-linejoin="round" stroke-miterlimit="10" d="M225.582,119.727
		c0,0-2.744-3.565-5.406-5.376c-2.662-1.811-6.649-4.381-6.649-4.381"/>
	<path fill="none" stroke="#000000" stroke-linecap="round" stroke-linejoin="round" stroke-miterlimit="10" d="M220.507,118.965
		c0,0-2.957-2.471-4.587-3.509c-1.63-1.038-5.207-2.338-5.207-2.338"/>
	<path fill="#D9B5A2" d="M207.47,36.077c0,0,1.279,1.542,2.272,2.104c0.994,0.562,8.894,3.835,10.038,3.962s4.589-0.923,5.413-1.449
		c0.823-0.526,4.26-4.426,4.26-4.529c0,0,3-2.872,3.414-6.466c0.415-3.594-3.476-13.815-4.029-16.026
		c-0.553-2.212-6.358-9.123-6.358-9.123l-8.984-0.138l-6.082,3.179l-6.358,6.773l-1.106,8.846l1.956,7.871L207.47,36.077z"/>
	<path fill="#D9B5A2" d="M207.47,36.077c0,0,1.279,1.542,2.272,2.104c0.994,0.562,8.894,3.835,10.038,3.962s4.589-0.923,5.413-1.449
		c0.823-0.526,4.26-4.426,4.26-4.529c0,0,3-2.872,3.414-6.466c0.415-3.594-3.476-13.815-4.029-16.026
		c-0.553-2.212-6.358-9.123-6.358-9.123l-8.984-0.138l-6.082,3.179l-6.358,6.773l-1.106,8.846l1.956,7.871L207.47,36.077z"/>
	<path fill="#C69073" d="M216.778,30.069c-0.565-0.209-0.822-1.219-0.63-1.534c0.192-0.314,2.272-0.184,3.023-0.656
		c0.751-0.471,1.818-1.7,2.481-1.525c0.663,0.175,0.67,1.389,0.443,1.721c-0.227,0.332-1.894,1.533-2.557,1.725
		S217.249,30.243,216.778,30.069z"/>
	<path fill="none" stroke="#000000" stroke-linecap="round" stroke-linejoin="round" stroke-miterlimit="10" d="M207.47,36.077
		c0,0,1.279,1.542,2.272,2.104c0.994,0.562,8.894,3.835,10.038,3.962s4.589-0.923,5.413-1.449c0.823-0.526,4.26-4.426,4.26-4.529
		c0,0,3-2.872,3.414-6.466c0.415-3.594-3.476-13.815-4.029-16.026c-0.553-2.212-6.358-9.123-6.358-9.123l-8.984-0.138l-6.082,3.179
		l-6.358,6.773l-1.106,8.846l1.956,7.871L207.47,36.077z"/>
	<path fill="#592710" d="M207.152,11.066c0,0,2.414,5.019,0.73,8.477l-0.934-0.264c0,0-2.315,1.766-2.959,5.114
		c-0.644,3.348,4.017,12.07,5.795,13.985s3.661,5.456,3.661,5.456s-10.346-3.756-12.719-8.562
		c-2.373-4.806-5.857-16.419-4.019-21.512s5.602-11.765,12.397-12.97c6.796-1.206,14.536,1.386,18.87,6.746
		s7.888,15.956,7.873,20.289s-1.93,10.751,0.381,12.211c2.311,1.46,4.467,0.254,4.467,0.254l-3.836,1.437
		c0,0,1.819,2.128,2.499,2.219c0.68,0.091-2.847,2.221-5.439-0.025c-2.593-2.246-3.926-7.162-3.926-7.162s3.332-5.009,3.004-8.128
		s-2.935-10.487-2.935-10.487s-4.365-2.041-6.491-4.155c-4.294-0.508-6.737-1.501-6.737-1.501s1.567,2.662,3.449,3.497
		c-5.238,0.335-10.077-3.958-11.362-5.834c2.942,3.151,3.837,3.909,3.837,3.909S209.306,13.793,207.152,11.066z"/>
	<path fill="#341400" d="M239.868,40.602c0.514-0.136,0.828-0.31,0.828-0.31L239.868,40.602z"/>
	<path fill="#341400" d="M239.359,43.949c-0.68-0.091-2.499-2.219-2.499-2.219l3.008-1.127c-0.797,0.21-2.077,0.321-3.433-0.448
		c-0.359-0.038-0.715-0.094-1.066-0.189c-1.808-0.489-3.44-1.926-3.748-3.774c-0.355-2.125,1.009-4.108,1.637-6.169
		c1.389-4.557-0.931-9.478-4.097-13.038c-1.359-1.528-2.914-2.932-4.774-3.782c-3.222-1.473-7.154-1.204-10.067-3.221
		c1.019,1.592,2.299,3.011,3.759,4.213c-0.756-0.876-1.244-1.703-1.244-1.703s2.443,0.993,6.737,1.501
		c2.126,2.114,6.491,4.155,6.491,4.155s2.606,7.368,2.935,10.487c0.329,3.119-3.004,8.128-3.004,8.128s1.334,4.916,3.926,7.162
		S240.04,44.04,239.359,43.949z"/>
	<path fill="#341400" d="M209.785,38.379c-1.778-1.915-6.439-10.637-5.795-13.985c0.644-3.348,2.959-5.114,2.959-5.114l0.934,0.264
		c1.684-3.458-0.73-8.477-0.73-8.477c1.714,2.17,4.245,2.782,5.21,2.943c-2.205-1.664-4.269-3.515-6.149-5.54
		c0.354,2.782,0.198,5.628-0.459,8.355c0.205-2.076,0.107-4.182-0.292-6.23c0.411,2.389-0.127,4.929-1.473,6.945
		c-1.181,1.769-2.976,3.199-3.563,5.243c0.223-1.886,0.446-3.771,0.669-5.657c-1.823,3.132-2.637,6.841-2.293,10.449
		c-0.948-5.985-1.862-12.26-0.22-18.032c-0.771,1.431-1.392,2.88-1.876,4.22c-1.838,5.093,1.646,16.705,4.019,21.512
		c2.373,4.806,12.719,8.562,12.719,8.562S211.563,40.294,209.785,38.379z"/>
	<path fill="#341400" d="M220.284,15.989c-0.727-0.322-1.405-0.917-1.965-1.525c-3.194-1.262-6.206-2.984-8.907-5.105
		c0.717,1.381,1.621,2.66,2.655,3.823C214.233,14.764,217.185,16.187,220.284,15.989z"/>
	<path fill="none" stroke="#000000" stroke-linecap="round" stroke-linejoin="round" stroke-miterlimit="10" d="M207.152,11.066
		c0,0,2.414,5.019,0.73,8.477l-0.934-0.264c0,0-2.315,1.766-2.959,5.114c-0.644,3.348,4.017,12.07,5.795,13.985
		s3.661,5.456,3.661,5.456s-10.346-3.756-12.719-8.562c-2.373-4.806-5.857-16.419-4.019-21.512s5.602-11.765,12.397-12.97
		c6.796-1.206,14.536,1.386,18.87,6.746s7.888,15.956,7.873,20.289s-1.93,10.751,0.381,12.211c2.311,1.46,4.467,0.254,4.467,0.254
		l-3.836,1.437c0,0,1.819,2.128,2.499,2.219c0.68,0.091-2.847,2.221-5.439-0.025c-2.593-2.246-3.926-7.162-3.926-7.162
		s3.332-5.009,3.004-8.128s-2.935-10.487-2.935-10.487s-4.365-2.041-6.491-4.155c-4.294-0.508-6.737-1.501-6.737-1.501
		s1.567,2.662,3.449,3.497c-5.238,0.335-10.077-3.958-11.362-5.834c2.942,3.151,3.837,3.909,3.837,3.909
		S209.306,13.793,207.152,11.066z"/>
	<path fill="#FFFFFF" stroke="#000000" stroke-linecap="round" stroke-linejoin="round" stroke-miterlimit="10" d="M208.241,25.261
		c0,0,0.011-1.683,1.914-2.453s2.574,0.146,2.574,0.146s-0.272,1.58-1.631,2.068C209.74,25.51,208.241,25.261,208.241,25.261z"/>
	<path fill="#FFFFFF" stroke="#000000" stroke-linecap="round" stroke-linejoin="round" stroke-miterlimit="10" d="M219.086,20.627
		c0,0,0.682-1.699,2.441-2.161c1.758-0.462,2.494,0.327,2.494,0.327s-0.634,1.609-2.085,2.013
		C220.485,21.209,219.086,20.627,219.086,20.627z"/>
	<path fill="none" stroke="#000000" stroke-linecap="round" stroke-linejoin="round" stroke-miterlimit="10" d="M211.856,19.568
		c0.031,0.096,0.487,0.951,0.487,0.951s-2.123,0.417-3.597,1.105c-1.473,0.688-3.222,1.938-3.222,1.938s1.561-2.233,3.2-2.787
		C210.363,20.222,211.856,19.568,211.856,19.568z"/>
	<path fill="none" stroke="#000000" stroke-linecap="round" stroke-linejoin="round" stroke-miterlimit="10" d="M217.225,17.744
		c0.108,0.03,0.652,0.882,0.652,0.882s2.205-1.528,3.864-1.843s3.118-0.543,3.118-0.543s-2.768-0.492-4.276,0.012
		C219.074,16.755,217.225,17.744,217.225,17.744z"/>
	<path fill="#470000" stroke="#000000" stroke-linecap="round" stroke-linejoin="round" stroke-miterlimit="10" d="M218.29,29.152
		c0,0-1.389-0.286-1.259,0.278C217.115,29.791,218.29,29.152,218.29,29.152z"/>
	<path fill="#470000" stroke="#000000" stroke-linecap="round" stroke-linejoin="round" stroke-miterlimit="10" d="M221.545,27.652
		c-0.152-0.209-0.882,0.407-1.093,0.681c-0.044,0.057-0.069,0.093-0.069,0.093S221.878,28.111,221.545,27.652z"/>
	<path fill="#FFFFFF" stroke="#000000" stroke-linecap="round" stroke-linejoin="round" stroke-miterlimit="10" d="M215.856,34.013
		c0,0,3.817-1.721,5.295-2.364c1.479-0.643,4.826-1.435,4.826-1.435s-2.04,3.255-3.632,3.777
		C220.755,34.514,217.808,35.243,215.856,34.013z"/>
	<path fill="none" stroke="#000000" stroke-linecap="round" stroke-linejoin="round" stroke-miterlimit="10" d="M218.729,35.945
		c0.152-0.016,3.743,1.353,6.491-2.32"/>
	<path fill="#341400" d="M206.786,36.055c0,0,0.83,1.573,3.32,3.189c1.879,2.578,4.063,5.287,4.107,7.078
		c0.044,1.791-1.18,4.151-3.626,4.369c0.612-1.704,0.481-2.578,0.481-2.578s-4.5,1.704-6.728,1.879
		c1.092-1.136,1.573-1.529,1.354-1.311c-0.218,0.218-4.194,1.136-4.194,1.136s4.02-2.316,3.714-4.107
		c-0.306-1.791-2.574-7.573-4.016-9.714"/>
	<path fill="none" stroke="#000000" stroke-linecap="round" stroke-linejoin="round" stroke-miterlimit="10" d="M207.307,34.257
		c0,0,2.187,4.234,2.799,4.988c1.879,2.578,4.063,5.287,4.107,7.078c0.044,1.791-1.18,4.151-3.626,4.369
		c0.612-1.704,0.481-2.578,0.481-2.578s-4.5,1.704-6.728,1.879c1.092-1.136,1.573-1.529,1.354-1.311
		c-0.218,0.218-4.194,1.136-4.194,1.136s4.02-2.316,3.714-4.107c-0.306-1.791-2.574-7.573-4.016-9.714"/>
	
		<circle stroke="#000000" stroke-linecap="round" stroke-linejoin="round" stroke-miterlimit="10" cx="210.51" cy="23.984" r="1.044"/>
	
		<circle stroke="#000000" stroke-linecap="round" stroke-linejoin="round" stroke-miterlimit="10" cx="221.635" cy="19.672" r="1.044"/>
	<path fill="#75B34B" d="M104.996,49.531c0,0-3.113-3.308-4.153-2.874s-10.824,3.462-13.351,4.099s-9.896,3.575-11.398,4.179
		c-1.502,0.604-4.966,2.387-6.343,4.896c-1.377,2.509-1.884,11.931-2.057,16.872c-0.173,4.941,0.78,13.435,1.82,15.428
		c1.04,1.994,2.34,3.814,2.34,3.814l4.261,15.812c0,0,0.693,6.501-0.087,8.234c-0.78,1.734-1.994,0.693-3.12,2.34
		s-2.254,5.461-3.38,7.974c-1.127,2.514-1.127,5.721-1.127,5.721s3.12-9.101,10.141-12.221c7.021-3.12,33.89-5.721,40.651-5.374
		c6.761,0.347,9.101,0,10.141,0.173c1.04,0.173,25.396-1.56,25.396-1.56s-0.26-22.362-1.127-26.176
		c-0.867-3.814-3.38-12.568-3.64-14.735c-0.26-2.167,0.867-5.287,1.473-6.241c0.607-0.953,4.594-2.427,4.594-2.427l3.207,0.347
		c0,0-1.387-7.194-3.294-12.395c-7.584-3.009-21.231-4.851-26.518-5.804c-5.287-0.953-7.023-2.496-9.276-0.762
		c-2.254,1.734,0.864,5.613,0.864,5.613L104.996,49.531z"/>
	<path fill="#5A9327" d="M156.032,67.465l3.207,0.347c0,0-1.387-7.194-3.294-12.395c-0.837-0.332-1.758-0.648-2.724-0.952
		c-2.31,1.185-4.389,2.823-6.066,4.806c-1.699,2.008-3.075,4.427-5.377,5.699c-0.307-1.286-0.614-2.572-0.92-3.858
		c-0.649,2.873-1.298,5.745-1.947,8.618c0.276-4.357-0.072-8.753-1.03-13.012c-0.354,8.503-1.122,16.989-2.301,25.417
		c-0.463,3.307-1.008,6.667-2.511,9.648c-2.333,4.626-7.008,7.994-12.136,8.741c3.425-3.744,6.156-8.122,8.013-12.845
		c-7.39,3.204-14.816,6.42-22.606,8.466c-2.462,0.646-5.505,1.008-7.165-0.921c-0.243-0.282-0.45-0.651-0.36-1.012
		c0.082-0.325,0.377-0.543,0.654-0.732c9.939-6.77,21.891-11.164,29.405-20.553c-6.495,3.448-13.013,6.906-19.899,9.487
		c-3.549,1.33-8.117,2.198-10.653-0.617c-1.771-1.966-1.727-4.916-1.58-7.558c-2.031,2.688-3.453,5.833-4.13,9.133
		c-2.544-3.371-0.919-8.118-0.931-12.341c-0.014-4.901-2.594-9.723-6.663-12.455c2.706,6.491,4.214,13.478,4.427,20.507
		c-1.539-3.976-3.467-7.801-5.748-11.404c1.913,3.334,3.896,7.054,3.141,10.824c-1.006-0.718-2.011-1.436-3.017-2.154
		c0.524,2.268,0.902,4.57,1.132,6.886c0.18,1.815,0.591,4.029-0.05,5.793c-0.471,1.297-1.523,2.362-2.146,3.593
		c-0.94,1.854-1.64,3.915-1.702,6.007c-0.071,2.397,0.703,4.726,1.388,7.023c1.574,5.28,2.693,10.691,3.391,16.157
		c10.795-2.143,28.119-3.646,33.361-3.377c6.761,0.347,9.101,0,10.141,0.173c0.521,0.087,6.893-0.305,13.124-0.717
		c1.431-0.634,2.847-1.302,4.226-2.054c2.806-1.53,5.46-3.333,7.933-5.357c-0.147-6.916-0.453-17.14-1.014-19.607
		c-0.867-3.814-3.38-12.568-3.64-14.735c-0.26-2.167,0.867-5.287,1.473-6.241C152.045,68.938,156.032,67.465,156.032,67.465z"/>
	<path fill="none" stroke="#000000" stroke-linecap="round" stroke-linejoin="round" stroke-miterlimit="10" d="M136.668,79.619
		c0-0.391,1.433-7.167,1.042-11.989c-0.391-4.822-0.912-6.516-0.912-6.516"/>
	<path fill="none" stroke="#000000" stroke-linecap="round" stroke-linejoin="round" stroke-miterlimit="10" d="M137.449,74.537
		c0,0,2.997-9.904,3.518-11.598"/>
	<path fill="none" stroke="#000000" stroke-linecap="round" stroke-linejoin="round" stroke-miterlimit="10" d="M104.996,49.531
		c0,0-3.113-3.308-4.153-2.874s-10.824,3.462-13.351,4.099s-9.896,3.575-11.398,4.179c-1.502,0.604-4.966,2.387-6.343,4.896
		c-1.377,2.509-1.884,11.931-2.057,16.872c-0.173,4.941,0.78,13.435,1.82,15.428c1.04,1.994,2.34,3.814,2.34,3.814l4.261,15.812
		c0,0,0.693,6.501-0.087,8.234c-0.78,1.734-1.994,0.693-3.12,2.34s-2.254,5.461-3.38,7.974c-1.127,2.514-1.127,5.721-1.127,5.721
		s3.12-9.101,10.141-12.221c7.021-3.12,33.89-5.721,40.651-5.374c6.761,0.347,9.101,0,10.141,0.173
		c1.04,0.173,25.396-1.56,25.396-1.56s-0.26-22.362-1.127-26.176c-0.867-3.814-3.38-12.568-3.64-14.735
		c-0.26-2.167,0.867-5.287,1.473-6.241c0.607-0.953,4.594-2.427,4.594-2.427l3.207,0.347c0,0-1.387-7.194-3.294-12.395
		c-7.584-3.009-21.231-4.851-26.518-5.804c-5.287-0.953-7.023-2.496-9.276-0.762c-2.254,1.734,0.864,5.613,0.864,5.613
		L104.996,49.531z"/>
	<path fill="none" stroke="#000000" stroke-linecap="round" stroke-linejoin="round" stroke-miterlimit="10" d="M89.604,88.807
		c0,0,0.965-1.544,0.29-4.15c-0.676-2.606-1.158-7.141-1.158-7.141v-3.571l0.193-3.185c0,0,0.386-2.606-2.316-5.501"/>
	<path fill="none" stroke="#000000" stroke-linecap="round" stroke-linejoin="round" stroke-miterlimit="10" d="M88.06,77.709
		c0,0-0.676-5.018-2.799-7.045"/>
	<path fill="none" stroke="#000000" stroke-linecap="round" stroke-linejoin="round" stroke-miterlimit="10" d="M89.797,81.28
		c0,0-0.579-3.571,2.22-6.562"/>
	<path fill="#CB9A80" d="M189.788,70.239c0,0,6.031,2.395,7.273,11.708s3.016,34.858,3.016,36.366c0,1.508-0.089,3.548-0.089,3.548
		l-7.894-1.951c0,0,0.089-21.199-0.089-25.101C191.828,90.906,191.03,71.747,189.788,70.239z"/>
	<path fill="none" stroke="#000000" stroke-linecap="round" stroke-linejoin="round" stroke-miterlimit="10" d="M189.788,70.239
		c0,0,6.031,2.395,7.273,11.708s3.016,34.858,3.016,36.366c0,1.508-0.089,3.548-0.089,3.548l-7.894-1.951
		c0,0,0.089-21.199-0.089-25.101C191.828,90.906,191.03,71.747,189.788,70.239z"/>
	<path fill="#FFC13B" d="M142.424,69.618l8.59-1.928l8.333-0.833l8.833,1.167l9,0.167l5.167,2l5.5,3.833l2.333,0.833
		c0,0,4.167,17.667,4,23.333c-0.167,5.667-1.333,23.667-1.333,23.667l-30.333,1l-12.167-5.667l-7.833-18.667l-0.333-13.333
		L142.424,69.618z"/>
	<path fill="#FF9F00" d="M194.181,98.19c0.048-1.646-0.27-4.308-0.745-7.253c-0.456,1.37-0.681,2.784-1.383,4.058
		c-0.968,1.755-2.968,3.241-4.847,3.861c-3.075,1.015-6.492,0.063-9.502-0.51c-2.876-0.547-5.828-0.698-8.745-0.447
		c-3.865,0.333-7.344,0.943-11.186,0.105c-2.946-0.643-5.51-3.356-7.317-5.689c-1.4-1.807-2.833-4.026-5.107-4.255
		c0.158,0.016,1.081,5.329,1.211,5.856c0.479,1.94,1.135,3.823,1.654,5.749c0.392,1.452-0.063,2.895-0.052,4.403
		c0.014,1.948,0.243,3.894,0.684,5.791c0.162,0.696,0.355,1.393,0.695,2.022c0.945,1.749,2.865,2.718,4.724,3.422
		c8.76,3.318,18.396,3.05,27.705,4.098c3.525,0.397,7.145,0.982,10.575,0.077c0.158-0.042,0.308-0.109,0.465-0.157
		C193.335,114.162,194.053,102.543,194.181,98.19z"/>
	<path fill="none" stroke="#000000" stroke-linecap="round" stroke-linejoin="round" stroke-miterlimit="10" d="M142.424,69.618
		l8.59-1.928l8.333-0.833l8.833,1.167l9,0.167l5.167,2l5.5,3.833l2.333,0.833c0,0,4.167,17.667,4,23.333
		c-0.167,5.667-1.333,23.667-1.333,23.667l-30.333,1l-12.167-5.667l-7.833-18.667l-0.333-13.333L142.424,69.618z"/>
	<path fill="#CB9A80" d="M179.145,70.86c0,0-6.006,0.92-6.232-2.169c-0.226-3.09,0.756-8.682,2.774-10.066
		c2.017-1.385,4.511-3.502,5.207-6.175c0.696-2.673,2.478-12.718,1.618-16.897c-0.86-4.179-2.77-12.478-9.381-13.263
		c-6.611-0.785-14.748,1.24-17.366,14.834c-2.618,13.594,1.269,16.819,1.494,19.909c0.226,3.09-1.53,9.571-2.86,10.369
		c-1.33,0.798-4.346,1.33-4.346,1.33s5.499,8.958,16.941,8.87c11.442-0.089,11.708-7.096,11.708-7.096"/>
	<path fill="#B6704B" d="M170.525,44.591c0,0,1.684,0.854,2.522,0.91s2.626-0.291,2.624,0.131c-0.002,0.422-1.558,2.226-3.324,1.996
		C170.582,47.398,169.313,44.169,170.525,44.591z"/>
	<path fill="#B6704B" d="M178.701,70.505c0,0-0.007,0.154-0.053,0.413c0.305-0.03,0.497-0.058,0.497-0.058L178.701,70.505z"/>
	<path fill="#B6704B" d="M181.38,44.591c0.192,1.632-0.494,2.988-1.065,4.453c-0.593,1.521-1.364,3-2.43,4.245
		c-0.656,0.766-1.367,1.488-1.986,2.285c-0.544,0.7-0.915,1.446-1.531,2.089c-1.107,1.157-2.614,2.166-4.25,2.292
		c-2.909,0.223-6.861-2.983-7.533-3.282c-0.671-0.298,1.715,11.486,5.594,15.439c3.297,3.36,8.304,1.444,9.736,0.792
		c0.464-0.824,0.656-1.553,0.733-1.985c-1.437,0.141-5.549,0.321-5.735-2.228c-0.226-3.09,0.756-8.682,2.774-10.066
		c2.017-1.385,4.511-3.502,5.207-6.175c0.696-2.673,2.478-12.718,1.618-16.897c-0.337-1.637-0.841-3.905-1.719-6.107l-2.469,0.752
		l1.044,4.027l-0.82,2.536c0,0-0.97,0.298-2.088,0.373c-1.119,0.075-1.566,1.939-1.715,3.133c-0.149,1.193,0.149,1.715,0.671,0.746
		c0.522-0.97,1.715-0.746,3.505-0.224C180.709,41.309,181.082,42.055,181.38,44.591z"/>
	<path fill="none" stroke="#000000" stroke-linecap="round" stroke-linejoin="round" stroke-miterlimit="10" d="M179.145,70.86
		c0,0-6.006,0.92-6.232-2.169c-0.226-3.09,0.756-8.682,2.774-10.066c2.017-1.385,4.511-3.502,5.207-6.175
		c0.696-2.673,2.478-12.718,1.618-16.897c-0.86-4.179-2.77-12.478-9.381-13.263c-6.611-0.785-14.748,1.24-17.366,14.834
		c-2.618,13.594,1.269,16.819,1.494,19.909c0.226,3.09-1.53,9.571-2.86,10.369c-1.33,0.798-4.346,1.33-4.346,1.33
		s5.499,8.958,16.941,8.87c11.442-0.089,11.708-7.096,11.708-7.096"/>
	<path fill="#592710" d="M168.097,19.506c0,0,4.992-0.434,7.968,1.283c2.976,1.718,8.156,5.508,8.565,15.228
		c0.409,9.721-2.5,17.765-2.296,23.677c0.204,5.912,11.127,7.57,8.625,14.178s-2.36,6.939-1.369,8.874s-3.163,6.136-3.163,6.136
		s1.322-4.06-1.274-6.325c-0.425,3.446-1.322,4.248-1.322,4.248s-1.511-1.888-1.888-5.428s1.416-6.656,0.094-8.497
		s-2.832-2.455-4.107-2.455s-4.901,0.546-5.208-1.128c-0.307-1.674-0.034-8.179,2.279-10.391c2.313-2.212,5.007-2.021,6.16-8.052
		s1.679-10.822,1.511-11.566c-0.168-0.744-1.192-5.114-4.074-7.724c-2.882-2.611-4.883-6.008-4.883-6.008L168.097,19.506z"/>
	<path fill="#3C0F00" d="M185.44,77.681c-0.106,1.794-0.033,3.596,0.198,5.378c1.111,1.332,1.206,3.055,1.085,4.283
		C187.463,84.106,187.017,80.605,185.44,77.681z"/>
	<path fill="#3C0F00" d="M182.039,72.883c1.322,1.841-0.472,4.956-0.094,8.497s1.888,5.428,1.888,5.428s0.866-0.782,1.299-4.086
		c-0.949-2.176-1.719-4.455-1.418-6.779c0.253-1.955,1.25-3.948,0.586-5.804c-0.723-2.02-3.109-2.958-4.174-4.819
		c-0.808-1.412-0.744-3.14-0.656-4.764c0.419,0.888,0.974,1.711,1.64,2.433c-0.695-2.638-0.57-5.485,0.354-8.052
		c0.456-1.267,1.097-2.452,1.759-3.628c0.746-4.46,1.648-9.584,1.408-15.292c-0.01-0.224-0.034-0.429-0.048-0.646
		c-0.764-1.111-1.666-2.144-2.561-3.155c-2.455-2.773-4.92-5.556-7.73-7.968c-0.288,0.393-0.485,0.816-0.621,1.26l0.047,0.051
		c0,0,2.002,3.397,4.883,6.008c2.882,2.611,3.906,6.98,4.073,7.724c0.168,0.744-0.357,5.536-1.51,11.566
		c-1.153,6.03-3.847,5.839-6.16,8.052c-2.313,2.212-2.586,8.717-2.279,10.391s3.933,1.128,5.208,1.128
		C179.206,70.428,180.717,71.042,182.039,72.883z"/>
	<path fill="none" stroke="#000000" stroke-linecap="round" stroke-linejoin="round" stroke-miterlimit="10" d="M168.097,19.506
		c0,0,4.992-0.434,7.968,1.283c2.976,1.718,8.156,5.508,8.565,15.228c0.409,9.721-2.5,17.765-2.296,23.677
		c0.204,5.912,11.127,7.57,8.625,14.178s-2.36,6.939-1.369,8.874s-3.163,6.136-3.163,6.136s1.322-4.06-1.274-6.325
		c-0.425,3.446-1.322,4.248-1.322,4.248s-1.511-1.888-1.888-5.428s1.416-6.656,0.094-8.497s-2.832-2.455-4.107-2.455
		s-4.901,0.546-5.208-1.128c-0.307-1.674-0.034-8.179,2.279-10.391c2.313-2.212,5.007-2.021,6.16-8.052s1.679-10.822,1.511-11.566
		c-0.168-0.744-1.192-5.114-4.074-7.724c-2.882-2.611-4.883-6.008-4.883-6.008L168.097,19.506z"/>
	<path fill="#FFFFFF" stroke="#000000" stroke-linecap="round" stroke-linejoin="round" stroke-miterlimit="10" d="M163.55,38.951
		c0,0,1.454-1.054,3.389-0.638s1.807,1.217,1.807,1.217s-0.907,0.534-2.115,0.27S163.55,38.951,163.55,38.951z"/>
	<path fill="#FFFFFF" stroke="#000000" stroke-linecap="round" stroke-linejoin="round" stroke-miterlimit="10" d="M176.141,40.424
		c0,0,1.183-0.919,2.816-0.408c1.633,0.511,1.772,1.212,1.772,1.212S178.76,41.699,176.141,40.424z"/>
	<path fill="#592710" d="M173.717,25.559c0,0-1.419,2.173-5.084,4.345s-7.023,4.342-7.673,10.977
		c-0.65,6.635-3.1,9.535-0.849,12.679c2.251,3.144-0.158,13.344-1.318,14.554c-1.16,1.21-2.117,2.319,0.655,4.084
		c2.773,1.765,3.971,6.975,3.025,9.024c0,0-4.184-6.352-8.419-6.957c3.327,2.722,3.378,4.386,3.378,4.386s-1.765-3.075-5.092-4.084
		c-3.327-1.008-9.579-3.832-9.276-6.05c2.218-2.571,3.176-2.924,2.672-4.084c-0.504-1.16-1.109-0.807-1.765-2.722
		c-0.655-1.916-0.202-3.327,0.403-4.437c0.605-1.109,4.279-6.462,4.495-10.052s0.939-6.844,1.555-10.065
		c0.616-3.22,3.652-11.089,7.35-14.077s8.275-3.545,10.322-3.576C172.852,22.664,173.717,25.559,173.717,25.559z"/>
	<path fill="#3C0F00" d="M150.356,38.015l-0.129,0.159c-0.021,0.109-0.042,0.218-0.064,0.327
		C150.223,38.338,150.283,38.175,150.356,38.015z"/>
	<path fill="#3C0F00" d="M165.084,31.135c-2.387,1.429-4.593,3.283-5.97,5.7c-3.702,6.497-0.644,15.277-4.346,21.775
		c0.458-1.914-0.022-3.908-0.284-5.858c-0.263-1.951-0.245-4.122,0.997-5.649c-1.79,2.384-3.655,4.965-3.794,7.943
		c-0.082,1.744,0.445,3.452,0.66,5.185c0.172,1.386,0.089,2.897-0.566,4.093c0.417-0.917,0.36-2.072-0.017-3.036
		c-0.505-1.291-1.465-2.34-2.328-3.426c-0.862-1.086-1.67-2.31-1.771-3.693c-0.14-1.93,1.105-3.657,1.644-5.515
		c0.695-2.397,0.213-5.022,0.352-7.498c-0.355,1.949-0.665,3.947-0.793,6.068c-0.215,3.59-3.89,8.943-4.495,10.052
		s-1.059,2.521-0.403,4.437c0.655,1.916,1.26,1.563,1.765,2.723c0.504,1.159-0.454,1.512-2.672,4.083
		c-0.227,1.663,3.228,3.665,6.374,4.988c0.198-0.071,0.399-0.137,0.591-0.218c1.804-0.762,3.706-1.926,5.577-1.347
		c-1.126-0.982-2.457-1.728-3.882-2.176c1.844-0.914,3.986-0.452,5.93,0.383c-0.073-0.731,0.501-1.368,1.139-2.034
		c1.16-1.21,3.569-11.411,1.318-14.554c-2.251-3.144,0.198-6.044,0.849-12.679c0.65-6.635,4.008-8.805,7.673-10.977
		c3.665-2.172,5.084-4.345,5.084-4.345s-0.027-0.084-0.086-0.227C171.548,27.973,168.053,29.358,165.084,31.135z M151.608,64.628
		c-0.006,0.01-0.011,0.02-0.017,0.03C151.597,64.648,151.602,64.638,151.608,64.628z"/>
	<path fill="none" stroke="#000000" stroke-linecap="round" stroke-linejoin="round" stroke-miterlimit="10" d="M173.717,25.559
		c0,0-1.419,2.173-5.084,4.345s-7.023,4.342-7.673,10.977c-0.65,6.635-3.1,9.535-0.849,12.679
		c2.251,3.144-0.158,13.344-1.318,14.554c-1.16,1.21-2.117,2.319,0.655,4.084c2.773,1.765,3.971,6.975,3.025,9.024
		c0,0-4.184-6.352-8.419-6.957c3.327,2.722,3.378,4.386,3.378,4.386s-1.765-3.075-5.092-4.084c-3.327-1.008-9.579-3.832-9.276-6.05
		c2.218-2.571,3.176-2.924,2.672-4.084c-0.504-1.16-1.109-0.807-1.765-2.722c-0.655-1.916-0.202-3.327,0.403-4.437
		c0.605-1.109,4.279-6.462,4.495-10.052s0.939-6.844,1.555-10.065c0.616-3.22,3.652-11.089,7.35-14.077s8.275-3.545,10.322-3.576
		C172.852,22.664,173.717,25.559,173.717,25.559z"/>
	<path fill="none" stroke="#000000" stroke-linecap="round" stroke-linejoin="round" stroke-miterlimit="10" d="M169.518,36.073
		l-0.616,0.883c0,0-1.609-1.617-3.364-1.328s-2.605,0.66-2.605,0.66S165.518,34.169,169.518,36.073z"/>
	<path fill="none" stroke="#000000" stroke-linecap="round" stroke-linejoin="round" stroke-miterlimit="10" d="M175.452,38.348
		l-0.11-1.094c0,0,4.37-1.803,5.908,1.449C179.439,37.56,178.346,37.07,175.452,38.348z"/>
	<path fill="#FFFFFF" stroke="#000000" stroke-linecap="round" stroke-linejoin="round" stroke-miterlimit="10" d="M165.708,49.642
		c0,0,4.546-0.92,7.053-0.172c2.507,0.748,3.58,1.362,3.58,1.362s-0.721,1.942-3.999,1.261
		C169.064,51.411,166.459,51.281,165.708,49.642z"/>
	<path fill="none" stroke="#000000" stroke-linecap="round" stroke-linejoin="round" stroke-miterlimit="10" d="M167.599,52.665
		c0,0,2.789,2.154,6.625,1.12"/>
	<path fill="none" stroke="#000000" stroke-linecap="round" stroke-linejoin="round" stroke-miterlimit="10" d="M161.936,56.223
		c0,0,2.671,2.894,7.659,3.564s7.162-2.243,7.162-2.243"/>
	<path fill="none" stroke="#000000" stroke-linecap="round" stroke-linejoin="round" stroke-miterlimit="10" d="M170.256,45.462
		c0,0,0.731-0.221,1.311,0.378"/>
	<path fill="none" stroke="#000000" stroke-linecap="round" stroke-linejoin="round" stroke-miterlimit="10" d="M174.149,46.189
		c0,0,0.23-0.385,0.978-0.181"/>
	<path fill="#CB9A80" d="M148.278,87.624c0.063,2.387,1.748,18.831,2.99,19.984c1.242,1.153,30.449,2.9,30.449,2.9
		s17.473,2.217,19.602,3.193c2.129,0.976,4.346,5.588,4.257,6.83s-1.138,0.924-1.138,0.924s-0.015,0.496-0.37,1.116
		c-0.355,0.621-2.217,0.621-2.217,0.621l-7.184,1.863l-6.83,1.508c0,0-21.908-8.071-25.456-7.539
		c-3.548,0.532-19.691,0.71-21.376-2.306c-1.685-3.016-4.612-23.416-5.233-34.681c0,0-1.419-9.402,6.652-12.418
		C146.593,75.295,148.189,84.254,148.278,87.624z"/>
	<path fill="none" stroke="#000000" stroke-linecap="round" stroke-linejoin="round" stroke-miterlimit="10" d="M148.278,87.624
		c0.063,2.387,1.748,18.831,2.99,19.984c1.242,1.153,30.449,2.9,30.449,2.9s17.473,2.217,19.602,3.193
		c2.129,0.976,4.346,5.588,4.257,6.83s-1.138,0.924-1.138,0.924s-0.015,0.496-0.37,1.116c-0.355,0.621-2.217,0.621-2.217,0.621
		l-7.184,1.863l-6.83,1.508c0,0-21.908-8.071-25.456-7.539c-3.548,0.532-19.691,0.71-21.376-2.306
		c-1.685-3.016-4.612-23.416-5.233-34.681c0,0-1.419-9.402,6.652-12.418C146.593,75.295,148.189,84.254,148.278,87.624z"/>
	<path fill="none" stroke="#000000" stroke-linecap="round" stroke-linejoin="round" stroke-miterlimit="10" d="M204.439,121.454
		c0,0-2.144-5.237-3.258-6.35"/>
	<path fill="none" stroke="#000000" stroke-linecap="round" stroke-linejoin="round" stroke-miterlimit="10" d="M202.212,122.98
		c0,0-2.433-5.567-3.423-6.68"/>
	<path fill="none" stroke="#000000" stroke-linecap="round" stroke-linejoin="round" stroke-miterlimit="10" d="M195.944,116.877
		c0.742,0.783,3.423,6.927,3.423,6.927"/>
	<path fill="#CB9A80" d="M128.811,32.118c0,0,1.396,0.477,1.352-0.882c-0.045-1.359-0.327-2.679,0.072-4.437
		c0.399-1.758,0.436-3.145,0.104-4.117c-0.331-0.972-0.35-1.233-0.715-1.207s-0.603,0.357-0.603,0.357l-1.3,5.28L128.811,32.118z"/>
	<path fill="none" stroke="#000000" stroke-linecap="round" stroke-linejoin="round" stroke-miterlimit="10" d="M128.811,32.118
		c0,0,1.396,0.477,1.352-0.882c-0.045-1.359-0.327-2.679,0.072-4.437c0.399-1.758,0.436-3.145,0.104-4.117
		c-0.331-0.972-0.35-1.233-0.715-1.207s-0.603,0.357-0.603,0.357l-1.3,5.28L128.811,32.118z"/>
	<path fill="#CB9A80" d="M98.66,21.286c0,0-1.155-0.382-1.584,0.113c-0.429,0.495-0.034,4.181,0.353,5.878
		c0.386,1.697,1.998,5.694,2.874,5.897c0.877,0.203,1.381-0.165,1.381-0.165s-1.004,14.476-1.197,14.556
		c-0.193,0.08,4.102,9.446,10.083,13.331s9.824,2.084,11.545,0.171c1.721-1.913,0.866-3.775,0.673-6.481
		c-0.193-2.706,0.609-10.059,0.609-10.059s4.007-6.122,4.682-7.829c0.674-1.706,0.967-4.115,0.967-4.115s0.194-4.723,0.166-6.976
		s-0.14-7.551-0.319-10.059s-2.884-6.029-2.884-6.029l-5.151-3.413l-6.66-1.316l-5.251,0.772l-4.917,3.6l-2.532,3.563l-1.325,4.671
		L98.66,21.286z"/>
	<path fill="#B6704B" d="M115.908,23.549c0-0.039-0.002-0.078-0.006-0.117c-0.081-0.769-0.371-1.297-0.991-1.74
		c-0.623-0.446-1.365-0.689-2.13-0.723c-2.003-0.089-4.495-0.045-5.785,0.89c-0.518,0.375-0.784,0.866-1.143,1.371
		c-0.281,0.396-0.439,0.869,0.088,1.175c0.36,0.209,0.933,0.309,1.343,0.217c0.34-0.076,0.69-0.322,1.016-0.458
		c0.793-0.33,1.648-0.704,2.522-0.704c0.831,0,1.639,0.428,2.366,0.786c0.71,0.35,1.533,0.89,2.272,0.273
		C115.743,24.284,115.91,23.917,115.908,23.549z"/>
	<path fill="#B6704B" d="M129.212,25.608c-0.028-2.253-0.14-7.551-0.319-10.059c-0.179-2.508-2.884-6.029-2.884-6.029l-1.258-0.834
		c-0.644,0.061-1.088,0.106-1.137,0.118c-0.224,0.056-0.112,0.895,0.615,2.405c0.727,1.51,1.287,9.286,1.059,9.718
		c-0.228,0.432-3.128-0.041-3.128-0.041s-2.014,0.336-2.629,1.622c-0.495,1.035-0.098,2.622,0.092,3.685
		c0.123,0.689,0.272,1.375,0.444,2.053c0.096,0.381,0.205,1.569,0.634,1.654c0.183,0.036,0.369-0.092,0.454-0.258
		s0.093-0.361,0.086-0.548c-0.012-0.365-0.068-0.728-0.166-1.08c-0.203-0.73-0.589-1.452-0.469-2.2
		c0.089-0.555,0.459-1.039,0.926-1.351c0.692-0.463,1.611-0.617,2.424-0.667c0.621-0.038,1.523-0.194,2.119,0.054
		c0.671,0.28,0.056,1.398,0.727,3.356c0.671,1.958,1.343,4.811,0.727,6.489c-0.615,1.678-2.349,3.077-3.021,4.195
		s-1.566,1.566-2.349,2.293c-0.783,0.727-6.489,1.063-4.307,1.398c2.182,0.336,4.363-0.671,3.804,1.007s-0.112,3.245-0.783,4.419
		c-0.671,1.175-5.426,0.951-7.72,0.783c-2.294-0.168-8.223-6.377-8.279-5.594c-0.056,0.783,9.342,13.258,12.866,14.656
		c2.327,0.924,4.161-0.347,5.142-1.317c-0.037-0.306-0.071-0.623-0.094-0.953c-0.193-2.706,0.609-10.059,0.609-10.059
		s4.007-6.122,4.682-7.829c0.674-1.706,0.967-4.115,0.967-4.115S129.24,27.861,129.212,25.608z"/>
	<path opacity="0.3" fill="#161616" d="M129.078,31.766c-0.008,0.028-0.024,0.057-0.03,0.084c-0.293,1.255-0.666,2.72-2.319,2.495
		c-0.271-0.037-0.531-0.13-0.789-0.222c-1-0.358-1.997-0.762-3.017-1.058c-0.422-0.123-1.134-0.651-1.507-0.649
		c-0.227,0.001-1.074,0.566-2.147,1.13c-1.074,0.565-2.996-0.791-2.996-0.791c-1.136-0.168-2.315-0.305-3.464-0.26
		c-0.839,0.033-1.51,0.332-2.367,0.323c-1.211-0.012-2.423-0.025-3.634-0.037c-0.352-0.004-0.708-0.008-1.05-0.092
		c-0.335-0.083-0.646-0.24-0.953-0.396c-0.484-0.247-0.976-0.502-1.363-0.884c-0.795-0.783-0.934-2.326-1.181-3.368
		c-0.177-0.745-0.35-1.491-0.513-2.239l-0.509-0.283l-0.969,6.987c0.3-0.069,0.476-0.18,0.476-0.18s-0.024,0.331-0.065,0.887
		c0.633,0.037,1.005-0.203,1.005-0.203s-0.128,1.846-0.301,4.221c0.37,1.386,0.881,2.851,1.494,3.437
		c1.3,1.244,7.065,5.992,9.835,6.952c2.77,0.961,7.122,0.339,8.387-0.272c0.672-0.324,1.577-1.563,2.281-2.656
		c0.01-0.096,0.017-0.164,0.017-0.164s0.014-0.021,0.019-0.029c0.009-0.081,0.015-0.138,0.015-0.138s3.447-5.269,4.608-7.572
		c0.012-0.028,0.029-0.063,0.04-0.089c0.674-1.706,0.967-4.115,0.967-4.115S129.059,32.268,129.078,31.766z"/>
	<path fill="none" stroke="#000000" stroke-linecap="round" stroke-linejoin="round" stroke-miterlimit="10" d="M98.66,21.286
		c0,0-1.155-0.382-1.584,0.113c-0.429,0.495-0.034,4.181,0.353,5.878c0.386,1.697,1.998,5.694,2.874,5.897
		c0.877,0.203,1.381-0.165,1.381-0.165s-1.004,14.476-1.197,14.556c-0.193,0.08,4.102,9.446,10.083,13.331s9.824,2.084,11.545,0.171
		c1.721-1.913,0.866-3.775,0.673-6.481c-0.193-2.706,0.609-10.059,0.609-10.059s4.007-6.122,4.682-7.829
		c0.674-1.706,0.967-4.115,0.967-4.115s0.194-4.723,0.166-6.976s-0.14-7.551-0.319-10.059s-2.884-6.029-2.884-6.029l-5.151-3.413
		l-6.66-1.316l-5.251,0.772l-4.917,3.6l-2.532,3.563l-1.325,4.671L98.66,21.286z"/>
	<path fill="#161616" stroke="#000000" stroke-linecap="round" stroke-linejoin="round" stroke-miterlimit="10" d="M98.66,21.286
		c0,0,1.343,1.164,2.064,1.975c0.721,0.811,1.013,1.188,1.018,2.183c0.005,0.995,0,1.857,0,1.857l0.924-0.066
		c0,0-0.183-2.574,0.024-4.313c0.208-1.739-0.221-2.173,0.915-2.984c1.136-0.811,2.418-2.361,2.418-2.361s-0.424-2.225,0.189-4.789
		s1.966-4.053,3.899-3.926c1.933,0.128,4.888,0.646,4.888,0.646s2.23-0.358,3.149,0.439c0.919,0.797,5.397-0.153,6.94,0.228
		s2.086,2.644,2.444,3.017c0.358,0.372,0.612,2.079,0.744,3.926c0.132,1.848,1.131,4.695,1.131,4.695l-0.019,2.522
		c0,0,0.589-6.595,0.363-9.762s-0.466-5.604-1.842-7.231s-1.56-1.414-2.031-2.442c-0.471-1.028-2.334-2.692-2.334-2.692
		s-2.987-1.24-4.858-1.438c-1.871-0.198-8.844-0.189-10.3,0.777c-1.457,0.966-1.513,1.103-2.734,1.654s-1.428,0.433-2.244,1.089
		s-0.453,0.165-1.367,1.291c-0.915,1.126-1.042,1.202-1.513,2.031c-0.471,0.83-0.401,0.891-1.028,1.4s-0.285,0.495-0.785,1.857
		c-0.5,1.362-0.387,1.089-0.505,2.225c-0.118,1.136-0.509,2.159-0.387,2.946c0.122,0.787,0.221,2.173,0.292,3.163
		C98.184,20.193,98.66,21.286,98.66,21.286z"/>
	<path d="M111.041,8.945c-0.134-0.032-0.27-0.064-0.4-0.099c-0.898-0.239-1.795-0.477-2.693-0.716
		c-0.634-0.169-1.439-0.74-1.067-1.28c-0.898,0.416-1.841,0.736-2.807,0.952c0.15-0.564,0.536-1.062,1.045-1.348
		c-0.241-0.352-0.606-0.617-1.016-0.737c-0.316,0.47-0.786,0.834-1.319,1.024c0.193-0.982,0.575-1.918,1.084-2.78
		c-0.137,0.084-0.284,0.187-0.463,0.33c-0.815,0.655-0.453,0.165-1.367,1.291c-0.915,1.126-1.042,1.202-1.513,2.031
		c-0.471,0.83-0.401,0.891-1.028,1.4c-0.627,0.509-0.285,0.495-0.785,1.857c-0.5,1.362-0.387,1.089-0.505,2.225
		c-0.118,1.136-0.509,2.159-0.387,2.946s0.221,2.173,0.292,3.163s0.547,2.083,0.547,2.083s1.343,1.164,2.064,1.975
		c0.721,0.811,1.013,1.188,1.018,2.183s0,1.857,0,1.857l0.924-0.066c0,0-0.183-2.574,0.024-4.313
		c0.208-1.739-0.221-2.173,0.915-2.984c1.136-0.811,2.418-2.361,2.418-2.361s-0.424-2.225,0.189-4.789
		c0.613-2.564,1.966-4.053,3.899-3.926C110.402,8.882,110.717,8.911,111.041,8.945z"/>
	<path d="M118.147,9.948c0.919,0.797,5.397-0.153,6.94,0.228s2.086,2.644,2.444,3.017c0.358,0.372,0.612,2.079,0.744,3.926
		s1.131,4.695,1.131,4.695l-0.019,2.522c0,0,0.589-6.595,0.363-9.762c-0.156-2.194-0.329-4.029-0.872-5.496
		c-0.331,0.059-0.665,0.137-0.998,0.132c-0.565-0.009-1.131-0.257-1.68-0.122c-0.437,0.107-0.784,0.443-1.21,0.59
		c-0.466,0.162-0.977,0.084-1.461-0.011c-2.051-0.404-4.045-1.094-5.906-2.044c-0.352-0.179-0.741-0.374-1.123-0.276
		c-0.47,0.12-0.717,0.616-1.035,0.981c-0.558,0.639-1.344,0.879-2.196,0.905c0.986,0.146,1.73,0.277,1.73,0.277
		S117.228,9.152,118.147,9.948z"/>
	<path fill="none" stroke="#000000" stroke-linecap="round" stroke-linejoin="round" stroke-miterlimit="10" d="M98.66,21.286
		c0,0,1.343,1.164,2.064,1.975c0.721,0.811,1.013,1.188,1.018,2.183c0.005,0.995,0,1.857,0,1.857l0.924-0.066
		c0,0-0.183-2.574,0.024-4.313c0.208-1.739-0.221-2.173,0.915-2.984c1.136-0.811,2.418-2.361,2.418-2.361s-0.424-2.225,0.189-4.789
		s1.966-4.053,3.899-3.926c1.933,0.128,4.888,0.646,4.888,0.646s2.23-0.358,3.149,0.439c0.919,0.797,5.397-0.153,6.94,0.228
		s2.086,2.644,2.444,3.017c0.358,0.372,0.612,2.079,0.744,3.926c0.132,1.848,1.131,4.695,1.131,4.695l-0.019,2.522
		c0,0,0.589-6.595,0.363-9.762s-0.466-5.604-1.842-7.231s-1.56-1.414-2.031-2.442c-0.471-1.028-2.334-2.692-2.334-2.692
		s-2.987-1.24-4.858-1.438c-1.871-0.198-8.844-0.189-10.3,0.777c-1.457,0.966-1.513,1.103-2.734,1.654s-1.428,0.433-2.244,1.089
		s-0.453,0.165-1.367,1.291c-0.915,1.126-1.042,1.202-1.513,2.031c-0.471,0.83-0.401,0.891-1.028,1.4s-0.285,0.495-0.785,1.857
		c-0.5,1.362-0.387,1.089-0.505,2.225c-0.118,1.136-0.509,2.159-0.387,2.946c0.122,0.787,0.221,2.173,0.292,3.163
		C98.184,20.193,98.66,21.286,98.66,21.286z"/>
	<path fill="none" stroke="#000000" stroke-linecap="round" stroke-linejoin="round" stroke-miterlimit="10" d="M103.513,40.855
		c0.223,0.194,7.777,6.677,10.431,7.151s6.418-0.143,7.222-0.62s2.344-2.892,2.344-2.892"/>
	<path fill="#FFFFFF" stroke="#000000" stroke-linecap="round" stroke-linejoin="round" stroke-miterlimit="10" d="M111.184,36.743
		c-0.146-0.15,2.94,0.561,7.252,0.289s5.206-0.476,5.206-0.476s-1.162,2.319-5.385,2.375
		C114.034,38.987,113.371,38.998,111.184,36.743z"/>
	<path fill="none" stroke="#000000" stroke-linecap="round" stroke-linejoin="round" stroke-miterlimit="10" d="M114.472,31.411
		c0,0-0.33,1.246,0.638,1.596c0.968,0.35,1.517,0.206,2.291,0.78c0.774,0.574,1.445,0.666,2.286,0.221
		c0.842-0.444,1.04-0.598,1.438-0.906c0.397-0.308,1.085-0.951,0.971-1.571s-0.372-0.812-0.372-0.812"/>
	<path fill="none" stroke="#000000" stroke-linecap="round" stroke-linejoin="round" stroke-miterlimit="10" d="M113.788,24.263
		c0,0-0.894-1.264-2.562-1.145c-1.668,0.119-2.868,0.938-2.969,0.98c-0.102,0.042,2.11,0.199,3.404,0.212
		S113.788,24.263,113.788,24.263z"/>
	<path fill="none" stroke="#000000" stroke-linecap="round" stroke-linejoin="round" stroke-miterlimit="10" d="M120.866,24.562
		c0,0,0.839-1.457,3.153-1.343c2.314,0.115,2.373,0.949,2.373,0.949s-2.269,0.022-2.989,0.213
		C122.683,24.572,120.866,24.562,120.866,24.562z"/>
	<path fill="#161616" stroke="#000000" stroke-linecap="round" stroke-linejoin="round" stroke-miterlimit="10" d="M120.78,22.367
		l0.8-1.524c0,0,2.316,0.149,3.709,0.085c1.393-0.064,2.274,0.537,2.587,1.003s0.3,0.782,0.3,0.782s-0.822-1.234-2.689-0.961
		S120.78,22.367,120.78,22.367z"/>
	<path fill="#161616" stroke="#000000" stroke-linecap="round" stroke-linejoin="round" stroke-miterlimit="10" d="M114.494,21.907
		l-0.536-1.639c0,0-1.879,0.099-3.106,0.047c-1.226-0.052-3.173,0.576-3.955,1.365c-0.782,0.789-1.147,1.549-1.147,1.549
		s1.378-1.74,2.736-1.802s2.994,0.346,3.798,0.358C113.089,21.798,114.494,21.907,114.494,21.907z"/>
	<path fill="none" stroke="#000000" stroke-linecap="round" stroke-linejoin="round" stroke-miterlimit="10" d="M112.726,39.255
		c0,0,1.382,2.242,5.615,1.835s4.571-2.038,4.571-2.038"/>
	<path fill="none" stroke="#000000" stroke-linecap="round" stroke-linejoin="round" stroke-miterlimit="10" d="M98.942,23.295
		c0.221,0.159,2.028,1.986,1.526,2.791c-0.502,0.804-0.936,1.569-0.877,1.914c0.06,0.345,0.591,1.914,0.591,1.914"/>
	<path fill="#CB9A80" d="M69.924,91.904c0,0-1.789-4.349,6.006-5.135s12.928-0.195,12.928-0.195s1.431,5.656,1.73,8.415
		c0.298,2.759,0.493,4.797,0.493,4.797s10.774,5.263,14.793,7.505s24.354,8.074,29.266,7.823c4.912-0.251,16.197-1.918,18.121-2.354
		c1.924-0.436,5.409-1.078,6.475-0.576c1.066,0.502,9.248,3.913,10.42,5.016c1.172,1.103,1.154,1.94,1.154,1.94l-19.502,5.315
		c0,0-6.407,2.97-12.135,2.246c-5.728-0.724-10.6-2.267-13.588-2.453c-2.988-0.185-35.585-3.414-39.391-4.455
		s-8.362-0.662-9.633-2.725C75.789,115.007,71.47,97.802,69.924,91.904z"/>
	<path fill="#B6704B" d="M171.31,119.14c0,0,0.018-0.837-1.154-1.94s-9.354-4.513-10.42-5.016c-0.093-0.044-0.226-0.069-0.354-0.096
		c1.375,1.62,3.132,3.983,2.389,4.726c-1.167,1.167-15.083,2.333-17.75,2.083c-2.667-0.25-10.917,0.917-15,1.667
		c-4.083,0.75-37.5-5.833-44.5-5.417c-7,0.417-8.583-2.167-8.583-2.167l-0.333-0.167l-0.066-0.008
		c0.646,2.14,1.188,3.723,1.521,4.263c1.271,2.062,5.827,1.684,9.633,2.725c3.806,1.041,36.404,4.27,39.391,4.455
		c2.988,0.185,7.86,1.728,13.588,2.453c5.728,0.724,12.135-2.246,12.135-2.246L171.31,119.14z"/>
	<path fill="#B6704B" d="M86.159,100.178c0.914,0.609,10.052,3.046,14.316,4.569c0.415,0.148,0.914,0.305,1.474,0.468
		c-4.737-2.434-10.868-5.428-10.868-5.428s-0.195-2.039-0.493-4.797c-0.298-2.759-1.73-8.415-1.73-8.415s-1.472-0.167-4.019-0.205
		C84.981,90.057,85.421,99.686,86.159,100.178z"/>
	<path fill="none" stroke="#000000" stroke-linecap="round" stroke-linejoin="round" stroke-miterlimit="10" d="M69.924,91.904
		c0,0-1.789-4.349,6.006-5.135s12.928-0.195,12.928-0.195s1.431,5.656,1.73,8.415c0.298,2.759,0.493,4.797,0.493,4.797
		s10.774,5.263,14.793,7.505s24.354,8.074,29.266,7.823c4.912-0.251,16.197-1.918,18.121-2.354c1.924-0.436,5.409-1.078,6.475-0.576
		c1.066,0.502,9.248,3.913,10.42,5.016c1.172,1.103,1.154,1.94,1.154,1.94l-19.502,5.315c0,0-6.407,2.97-12.135,2.246
		c-5.728-0.724-10.6-2.267-13.588-2.453c-2.988-0.185-35.585-3.414-39.391-4.455s-8.362-0.662-9.633-2.725
		C75.789,115.007,71.47,97.802,69.924,91.904z"/>
	<path fill="#FFFFFF" d="M195.102,121.599c0,0,20.5,3.25,26.25,3.5s12.5,3.25,13.5,9.25s-6.5,48.5-8.25,55s-8.75,26.5-8.75,26.5
		s-7,3-13.5,1.25c-0.75-10.5,6-56.25,6-56.25l-10,56.25c0,0-9.706,4.716-13.706,3.216c0.25-19.25-3.544-44.966-3.294-56.716
		s1.25-19.5,0.25-22.25s-1.25-4.5-1.25-4.5s-7.75-2-9.25-2.75s-9.75-3.75-9-4.75s20.25-7,20.25-7L195.102,121.599z"/>
	<path fill="#E6D9D9" d="M208.558,173.629c0.566-3.408,1.27-6.801,1.906-10.199c0.076-0.405,0.269-0.697,0.523-0.898
		c0.065-1.707,0.176-3.408,0.492-5.085c0.133-0.706,0.306-1.401,0.496-2.093c0.097-0.883,0.198-1.765,0.289-2.649
		c0.766-7.393,0.49-14.795,0.549-22.208c-0.843-0.815-1.975-1.083-3.491-0.491c-1.584,0.62-2.439,2.289-3.267,3.775
		c-1.697,3.044-3.84,5.837-6.341,8.264c-1.708,1.657-3.715,3.395-3.925,5.766c-0.121,1.369,0.397,2.701,0.755,4.028
		c1.111,4.125,0.69,8.488,0.26,12.738c-1.719,17.009-3.437,34.019-5.156,51.028c-0.159,1.57-0.314,3.141-0.464,4.712
		c4.271-0.841,9.168-3.219,9.168-3.219l10-56.25C210.352,160.849,209.565,166.187,208.558,173.629z"/>
	<path fill="#E6D9D9" d="M207.371,186.26c-0.099-0.217-0.148-0.463-0.115-0.745c0.019-0.155,0.045-0.308,0.064-0.463
		c-0.001,0-0.001,0-0.002,0c0.004-0.028,0.009-0.055,0.013-0.082c0.045-0.346,0.094-0.69,0.144-1.035
		c0.035-1.406,0.138-2.805,0.272-4.201c-0.506,3.889-1.028,8.056-1.509,12.176c0.258-1.072,0.518-2.143,0.777-3.214
		C207.128,187.883,207.241,187.07,207.371,186.26z"/>
	<path fill="#E6D9D9" d="M234.852,134.349c-0.125-0.75-0.34-1.454-0.632-2.111c-0.368,1.259-0.781,2.499-1.347,3.681
		c-1.992,4.167-5.647,7.245-8.673,10.734c-0.372,0.429-0.759,0.949-0.656,1.507c0.062,0.337,0.293,0.613,0.457,0.914
		c0.415,0.765,0.385,1.686,0.324,2.554c-0.985,13.942-7.226,26.877-11.441,40.202c-2.66,8.411-4.526,17.048-6.352,25.679
		c5.793,0.701,11.321-1.661,11.321-1.661s7-20,8.75-26.5S235.852,140.349,234.852,134.349z"/>
	<path fill="none" stroke="#000000" stroke-linecap="round" stroke-linejoin="round" stroke-miterlimit="10" d="M184.091,150.364
		c0,0,1.096-7.451,4.164-11.396"/>
	<path fill="none" stroke="#000000" stroke-linecap="round" stroke-linejoin="round" stroke-miterlimit="10" d="M195.102,121.599
		c0,0,20.5,3.25,26.25,3.5s12.5,3.25,13.5,9.25s-6.5,48.5-8.25,55s-8.75,26.5-8.75,26.5s-7,3-13.5,1.25c-0.75-10.5,6-56.25,6-56.25
		l-10,56.25c0,0-9.706,4.716-13.706,3.216c0.25-19.25-3.544-44.966-3.294-56.716s1.25-19.5,0.25-22.25s-1.25-4.5-1.25-4.5
		s-7.75-2-9.25-2.75s-9.75-3.75-9-4.75s20.25-7,20.25-7L195.102,121.599z"/>
	<path fill="none" stroke="#000000" stroke-linecap="round" stroke-linejoin="round" stroke-miterlimit="10" d="M210.352,160.849
		c0,0,2.5-20.25,2.25-26s-2-7.25-4.5-8.75s-23.75-3.75-23.75-3.75"/>
	<path fill="#3D3D3D" d="M110.69,119.638c0,0,19.49,3.035,21.722,3.035s11.456-0.455,11.456-0.455s20.086-5.311,24.549-3.794
		c4.463,1.517,8.629,2.124,10.117,3.945s7.29,10.015,5.803,18.968s-3.273,14.871-4.315,18.816
		c-1.041,3.945-13.076,33.71-15.456,39.325c-2.381,5.614-8.2,15.151-8.2,15.151s-17.991,6.306-21.859,2.361
		c1.785-11.077,8.915-37.869,10.552-45.153c1.637-7.284,6.546-17.299,6.546-17.299s-38.981,0.152-39.576,0.152
		c-0.595,0-8.927-7.284-8.927-7.284l3.124-12.746L110.69,119.638z"/>
	<path opacity="0.4" d="M183.671,145.048c-4.589,11.524-13.508,28.398-18.95,40.26c-5.785,12.608-14.347,26.488-17.831,31.981
		c4.98-1.083,9.476-2.659,9.476-2.659s5.82-9.536,8.2-15.151c2.38-5.615,14.415-35.379,15.456-39.325
		C180.912,156.782,182.345,151.963,183.671,145.048z"/>
	<path opacity="0.4" d="M163.488,136.441c-0.789,0.771-1.75,1.683-2.82,1.417c-0.96-0.238-1.451-1.39-1.302-2.367
		c0.149-0.977,0.762-1.812,1.355-2.602c1.521-2.026,3.043-4.052,4.564-6.077c-2.796,3.13-5.592,6.261-8.387,9.391
		c-0.715,0.801-1.439,1.609-2.319,2.226c-1.056-3.938,3.548-7.466,3.238-11.531c-1.937,2.467-3.244,5.423-3.766,8.516
		c-0.234,1.388-0.461,3.031-1.707,3.686c-0.519,0.273-1.126,0.311-1.712,0.336c-3.46,0.151-7.137,0.013-10.046-1.866
		c-2.909-1.879-4.578-6.063-2.654-8.942c-3.921,2.985-7.842,5.971-11.764,8.956c2.927-4.222,6.738-7.829,11.115-10.519
		c-7.038,1.886-11.248,9.093-17.601,12.661c0.145-3.213,0.29-6.425,0.436-9.638c-0.978,2.011-2.673,3.665-4.708,4.592
		c0.852-2.317,1.261-4.796,1.197-7.264c-2.391,1.044-3.054,4.11-3.054,6.72s0.272,5.472-1.274,7.574
		c-0.201,0.273-0.435,0.538-0.52,0.867c-0.127,0.495,0.113,1.001,0.307,1.474c1.358,3.317,0.624,7.184,1.395,10.637
		c7.106-0.026,38.143-0.147,38.143-0.147s-1.413,2.884-2.976,6.681c0.06-0.047,0.125-0.086,0.183-0.135
		c1.689-1.416,2.522-3.573,3.425-5.584c4.163-9.267,11.451-16.084,18.186-23.471C167.84,133.001,165.462,134.513,163.488,136.441z"
		/>
	<path fill="none" stroke="#000000" stroke-linecap="round" stroke-linejoin="round" stroke-miterlimit="10" d="M110.69,119.638
		c0,0,19.49,3.035,21.722,3.035s11.456-0.455,11.456-0.455s20.086-5.311,24.549-3.794c4.463,1.517,8.629,2.124,10.117,3.945
		s7.29,10.015,5.803,18.968s-3.273,14.871-4.315,18.816c-1.041,3.945-13.076,33.71-15.456,39.325
		c-2.381,5.614-8.2,15.151-8.2,15.151s-17.991,6.306-21.859,2.361c1.785-11.077,8.915-37.869,10.552-45.153
		c1.637-7.284,6.546-17.299,6.546-17.299s-38.981,0.152-39.576,0.152c-0.595,0-8.927-7.284-8.927-7.284l3.124-12.746L110.69,119.638
		z"/>
	<path fill="none" stroke="#000000" stroke-linecap="round" stroke-linejoin="round" stroke-miterlimit="10" d="M117.534,154.843
		c0,0,3.72-8.346,5.207-11.836c1.488-3.49,12.646-14.567,12.646-14.567"/>
	<path fill="none" stroke="#000000" stroke-linecap="round" stroke-linejoin="round" stroke-miterlimit="10" d="M120.956,146.8
		c0-0.455,8.629-15.629,11.307-17.602"/>
	<path fill="none" stroke="#000000" stroke-linecap="round" stroke-linejoin="round" stroke-miterlimit="10" d="M151.605,154.539
		c0,0,4.02-4.392,4.797-7.246s1.244-5.549,1.244-5.549s1.399-6.025,2.487-8.562c1.088-2.537,3.265-4.915,3.265-4.915"/>
	<path fill="none" stroke="#000000" stroke-linecap="round" stroke-linejoin="round" stroke-miterlimit="10" d="M167.906,131.756
		c-0.777,0.476-8.094,11.07-10.737,12.497"/>
	<path fill="none" stroke="#000000" stroke-linecap="round" stroke-linejoin="round" stroke-miterlimit="10" d="M155.936,148.403
		c0,0-2.954-8.244,1.088-16.489"/>
	<path fill="#3D3D3D" d="M69.551,133.333c0,0,9.485-12.177,12.609-15.819c3.124-3.642,10.266-7.284,14.06-8.08
		c3.794-0.797,11.94-1.138,13.725,1.479c1.785,2.618,4.575,13.088,4.017,17.185c-0.558,4.097-1.227,8.422-0.67,10.925
		c0.558,2.504-1.674,2.276-1.227,5.918c0.446,3.642,5.245,34.711,6.137,39.719s3.039,25.025,3.943,27.238
		c0.529,7.61-17.443,11.03-21.556,10.276c0,0-9.949-29.092-13.185-42.066c-3.236-12.974-3.794-25.379-3.794-25.379
		s-6.137-0.114-8.369-1.024c-2.232-0.91-5.356,0.114-6.137-2.618C68.324,148.356,65.981,135.723,69.551,133.333z"/>
	<path opacity="0.4" d="M107.173,210.135c-2.712-5.358-4.214-11.229-6.256-16.876c-3.262-9.021-7.943-17.587-9.902-26.977
		c-0.619-2.969-0.956-5.992-1.633-8.95c-0.63-2.751-2.066-5.232-2.254-8.032c-0.437-6.495,0.588-12.998,1.618-19.39
		c-1.695,2.103-3.389,4.207-5.084,6.31c-0.53-5.477,0.815-10.83,4.631-14.794c-4.29,2.683-7.075,7.622-7.15,12.682
		c-1.283-1.953-2.078-4.224-2.293-6.55c-1.93,2.396-2.204,5.681-2.398,8.751c-0.696-0.725-1.916-0.38-2.784,0.127
		c-0.867,0.507-1.82,1.157-2.787,0.885c-0.927-0.261-1.42-1.268-1.654-2.203c-0.403,0.21-0.788,0.458-1.163,0.721
		c-1.204,4.544,0.418,13.064,1.043,15.25c0.781,2.731,3.906,1.707,6.137,2.618s8.369,1.024,8.369,1.024s0.558,12.405,3.794,25.379
		c3.236,12.974,13.185,42.066,13.185,42.066c2.073,0.38,7.665-0.302,12.636-2.044C111.173,216.82,108.931,213.609,107.173,210.135z"
		/>
	<path fill="none" stroke="#000000" stroke-linecap="round" stroke-linejoin="round" stroke-miterlimit="10" d="M69.551,133.333
		c0,0,9.485-12.177,12.609-15.819c3.124-3.642,10.266-7.284,14.06-8.08c3.794-0.797,11.94-1.138,13.725,1.479
		c1.785,2.618,4.575,13.088,4.017,17.185c-0.558,4.097-1.227,8.422-0.67,10.925c0.558,2.504-1.674,2.276-1.227,5.918
		c0.446,3.642,5.245,34.711,6.137,39.719s3.039,25.025,3.943,27.238c0.529,7.61-17.443,11.03-21.556,10.276
		c0,0-9.949-29.092-13.185-42.066c-3.236-12.974-3.794-25.379-3.794-25.379s-6.137-0.114-8.369-1.024
		c-2.232-0.91-5.356,0.114-6.137-2.618C68.324,148.356,65.981,135.723,69.551,133.333z"/>
	<path fill="none" stroke="#000000" stroke-linecap="round" stroke-linejoin="round" stroke-miterlimit="10" d="M83.946,155.298
		c0,0-0.335-5.235-0.446-8.536s0.223-6.601,0.335-9.218s-0.67-5.577,0.446-8.649"/>
	<path fill="none" stroke="#000000" stroke-linecap="round" stroke-linejoin="round" stroke-miterlimit="10" d="M83.611,138.455
		c0,0-1.339-3.073-1.451-6.146"/>
	<path fill="none" stroke="#000000" stroke-linecap="round" stroke-linejoin="round" stroke-miterlimit="10" d="M67.589,140.98
		c0,0,0.847,1.23,2.744,1.685s4.687,0.569,4.687,0.569s0.446,2.845,1.004,4.78c0.558,1.935,3.027,6.412,3.027,6.412
		s-5.705-0.266-7.713-0.835s-2.901-1.252-3.459-3.414C67.32,148.014,67.589,140.98,67.589,140.98z"/>
	<path stroke="#000000" stroke-linecap="round" stroke-linejoin="round" stroke-miterlimit="10" d="M124.44,24.247
		c0.033-0.104,0.066-0.21,0.066-0.325c0-0.262-0.104-0.492-0.257-0.681c-0.08-0.006-0.143-0.018-0.229-0.022
		c-0.63-0.031-1.142,0.059-1.567,0.2c-0.081,0.153-0.138,0.319-0.138,0.503c0,0.219,0.081,0.412,0.192,0.583
		c0.346-0.027,0.675-0.065,0.897-0.124C123.632,24.32,124.021,24.278,124.44,24.247z"/>
	<path stroke="#000000" stroke-linecap="round" stroke-linejoin="round" stroke-miterlimit="10" d="M112.035,23.182
		c-0.248-0.052-0.511-0.085-0.809-0.064c-0.294,0.021-0.567,0.068-0.828,0.125c-0.152,0.188-0.256,0.418-0.256,0.679
		c0,0.12,0.033,0.23,0.068,0.338c0.507,0.026,1.027,0.046,1.451,0.05c0.213,0.002,0.408,0.002,0.594,0
		c0.046-0.121,0.078-0.251,0.078-0.388C112.333,23.635,112.217,23.377,112.035,23.182z"/>
	<path stroke="#000000" stroke-linecap="round" stroke-linejoin="round" stroke-miterlimit="10" d="M166.93,38.808
		c0-0.201-0.08-0.377-0.197-0.522c-0.464-0.076-0.895-0.077-1.283-0.025c-0.128,0.148-0.213,0.336-0.213,0.547
		c0,0.347,0.21,0.644,0.509,0.775c0.022,0.006,0.043,0.011,0.065,0.017c0.086,0.03,0.175,0.055,0.272,0.055
		C166.55,39.655,166.93,39.276,166.93,38.808z"/>
	<path stroke="#000000" stroke-linecap="round" stroke-linejoin="round" stroke-miterlimit="10" d="M177.728,39.876
		c-0.134,0.15-0.222,0.343-0.222,0.56c0,0.228,0.092,0.434,0.239,0.586c0.323,0.088,0.629,0.156,0.91,0.2
		c0.317-0.122,0.544-0.425,0.544-0.785c0-0.132-0.036-0.254-0.09-0.365c-0.053-0.018-0.095-0.037-0.151-0.055
		C178.506,39.875,178.095,39.848,177.728,39.876z"/>
	<path fill="#342121" stroke="#000000" stroke-linecap="round" stroke-linejoin="round" stroke-miterlimit="10" d="M175.527,235.411
		c0-0.141-0.151-0.405-0.417-0.76c-0.071,0.044-0.14,0.082-0.212,0.129c-6.027,3.936-20.049,2.214-23.493-1.476
		c-3.444-3.69-8.364-7.995-11.439-10.332c-2.293-1.743-3.764-4.51-4.518-5.805c-0.41,1.674-0.753,3.192-0.753,3.591
		c0,0.996,3.415,4.553,6.118,5.975c2.703,1.423,5.549,4.979,7.114,7.114c1.565,2.134,8.536,5.691,18.353,5.549
		C176.096,239.253,175.527,236.834,175.527,235.411z"/>
	<path fill="#342121" stroke="#000000" stroke-linecap="round" stroke-linejoin="round" stroke-miterlimit="10" d="M134.772,245.888
		c1.193-1.14,1.56-2.512,1.368-4.084c-1.59,2.204-5.321,4.718-12.288,4.415c-8.487-0.369-10.086-5.658-11.931-8.364
		c-1.845-2.706-9.225-16.605-9.225-16.605l-0.052-0.03c0.107,1.911,0.302,3.98,0.645,4.531c0.637,1.02,9.049,18.481,11.981,20.266
		C118.202,247.8,129.036,251.369,134.772,245.888z"/>
	<path fill="#CB9A80" stroke="#000000" stroke-linecap="round" stroke-linejoin="round" stroke-miterlimit="10" d="M307.539,110.115
		c-0.184,0.112-16.47,6.281-18.506,6.584c-2.036,0.303-13.339,3.314-14.679,2.692c-1.34-0.623-3.152-1.536-4.305-2.435
		c-1.153-0.899-7.629-3.26-9.607-2.592c-1.978,0.668-7.512,3.256-7.76,4.043s0.381,0.701,0.83,0.562
		c0.449-0.139,0.608,0.904,1.137,0.849s4.172-0.637,5.948-1.078c1.775-0.441,2.571,2.096,3.399,3.533
		c0.828,1.437,3.31,1.869,11.718,3.088c8.407,1.218,19.039,2.388,27.129,0.115c3.403-0.957,5.22-4.645,5.235-8.983
		C308.09,112.154,307.539,110.115,307.539,110.115z"/>
	<path fill="#B87552" d="M299.446,113.164c2.081,1.315,5.291,3.771,4.374,5.958c-1.329,3.171-13.508,4.579-23.469,4.682
		s-15.994-1.943-15.994-1.943l-0.418,0.309c0.019,0.034,0.038,0.07,0.057,0.103c0.828,1.437,3.31,1.869,11.718,3.088
		s19.039,2.388,27.129,0.115c3.403-0.957,5.22-4.645,5.235-8.983c0.014-4.338-0.537-6.377-0.537-6.377
		C307.45,110.169,303.618,111.631,299.446,113.164z"/>
	<path fill="none" stroke="#000000" stroke-linecap="round" stroke-linejoin="round" stroke-miterlimit="10" d="M307.539,110.115
		c-0.184,0.112-16.47,6.281-18.506,6.584c-2.036,0.303-13.339,3.314-14.679,2.692c-1.34-0.623-3.152-1.536-4.305-2.435
		c-1.153-0.899-7.629-3.26-9.607-2.592c-1.978,0.668-7.512,3.256-7.76,4.043s0.381,0.701,0.83,0.562
		c0.449-0.139,0.608,0.904,1.137,0.849s4.172-0.637,5.948-1.078c1.775-0.441,2.571,2.096,3.399,3.533
		c0.828,1.437,3.31,1.869,11.718,3.088c8.407,1.218,19.039,2.388,27.129,0.115c3.403-0.957,5.22-4.645,5.235-8.983
		C308.09,112.154,307.539,110.115,307.539,110.115z"/>
	<path fill="#CB9A80" stroke="#000000" stroke-linecap="round" stroke-linejoin="round" stroke-miterlimit="10" d="M264.301,120.224
		c0,0-1.639-0.297-2.67-0.225s-3.028,0.815-3.932,1.095s-1.694,0.525-2.148-0.139s1.397-1.485,2.283-1.822
		c0.886-0.337,3.884-1.451,4.992-1.671l1.531,0.145"/>
	<path fill="none" stroke="#000000" stroke-linecap="round" stroke-linejoin="round" stroke-miterlimit="10" d="M253.652,118.82
		c0,0,3.852-1.751,5.477-2.502s3.215-0.811,4.333-0.6"/>
	
		<line fill="none" stroke="#000000" stroke-linecap="round" stroke-linejoin="round" stroke-miterlimit="10" x1="307.373" y1="110.188" x2="309.452" y2="109.54"/>
	<path fill="none" stroke="#000000" stroke-linecap="round" stroke-linejoin="round" stroke-miterlimit="10" d="M221.174,25.333
		c0.133,0,1.009,0.425,1.195,1.434"/>
	<path fill="none" stroke="#000000" stroke-linecap="round" stroke-linejoin="round" stroke-miterlimit="10" d="M65.449,150.031
		c0,0-18.613-2.652-23.023-2.348c0.912-14.598,0.645-16.57,0.34-24.477s-21.897-9.124-28.131-8.059"/>
	<path fill="none" stroke="#000000" stroke-linecap="round" stroke-linejoin="round" stroke-miterlimit="10" d="M356.967,115.469
		c0,0-13.126-1.367-19.48,1.817c-4.464,2.237-4.547,23.334-4.547,23.334"/>
	
		<line fill="none" stroke="#000000" stroke-linecap="round" stroke-linejoin="round" stroke-miterlimit="10" x1="42.426" y1="147.684" x2="41.45" y2="195.263"/>
	<path fill="none" stroke="#000000" stroke-linecap="round" stroke-linejoin="round" stroke-miterlimit="10" d="M250.103,72.748
		c0,0,1.102-7.31,0.3-11.416"/>
	<path fill="none" stroke="#000000" stroke-linecap="round" stroke-linejoin="round" stroke-miterlimit="10" d="M247.999,85.878
		c0,0,3.752-0.641,7.321-1.007s4.026-2.745,4.026-2.745"/>
	<path fill="none" stroke="#000000" stroke-linecap="round" stroke-linejoin="round" stroke-miterlimit="10" d="M244.837,92.832
		c0,0,6.175-2.251,10.388,4.963"/>
	<path fill="none" stroke="#000000" stroke-linecap="round" stroke-linejoin="round" stroke-miterlimit="10" d="M202.266,95.48
		c-0.3-0.3-3.505-3.605-4.106-5.007"/>
	<path fill="none" stroke="#000000" stroke-linecap="round" stroke-linejoin="round" stroke-miterlimit="10" d="M203.097,100.7
		c0-0.195-2.532-2.467-4.156-2.597"/>
	
		<line fill="none" stroke="#000000" stroke-linecap="round" stroke-linejoin="round" stroke-miterlimit="10" x1="91.081" y1="99.787" x2="88.175" y2="99.365"/>
	<path fill="none" stroke="#000000" stroke-linecap="round" stroke-linejoin="round" stroke-miterlimit="10" d="M186.646,121.798
		c-0.207-0.311-3.214-1.866-4.561-3.525s-9.138-2.562-11.929-1.073"/>
</g>
</svg>
