<?xml version="1.0" encoding="utf-8"?>
<!-- Generator: Adobe Illustrator 16.0.0, SVG Export Plug-In . SVG Version: 6.00 Build 0)  -->
<!DOCTYPE svg PUBLIC "-//W3C//DTD SVG 1.1//EN" "http://www.w3.org/Graphics/SVG/1.1/DTD/svg11.dtd">
<svg version="1.1" id="Layer_1" xmlns="http://www.w3.org/2000/svg" xmlns:xlink="http://www.w3.org/1999/xlink" x="0px" y="0px"
	 width="300.081px" height="300.081px" viewBox="0 0 300.081 300.081" enable-background="new 0 0 300.081 300.081"
	 xml:space="preserve">
<g>
	<g>
		<g>
			<g>
				<g>
					<path fill="#F8D8CA" d="M150.041,0.5c-14.159,0-27.859,1.969-40.841,5.647c5.05,30.241,4.423,43.839,2.703,56.715
						c-2.031,15.247-1.523,46.24-2.542,58.943c-1.016,12.705-9.65,40.145-12.187,70.122c-2.11,24.877-7.71,54.667-4.331,96.313
						c17.622,7.302,36.937,11.34,57.197,11.34c16.048,0,31.501-2.538,45.992-7.218c3.654-20.318,6.06-39.641,5.938-55.214
						c-0.379-49.158-5.715-73.168,1.91-96.42c7.619-23.242,11.436-46.111,11.436-65.162c0-11.096,2.841-34.851,5.517-57.276
						C199.759,6.943,175.654,0.5,150.041,0.5z"/>
					<path fill="#EDBFAF" d="M179.099,109.75c-9.155,6.067-18.904,20.477-36.344,9.101c-17.443-11.375-18.204-42.469-21.995-60.668
						c-3.793-18.203,16.684-31.096,21.234-53.089c0.291-1.404,0.464-2.874,0.537-4.406c-11.5,0.569-22.658,2.436-33.331,5.459
						c5.05,30.241,4.423,43.839,2.703,56.715c-2.031,15.247-1.523,46.24-2.542,58.943c-1.016,12.705-9.65,40.145-12.187,70.122
						c-2.11,24.877-7.71,54.667-4.331,96.313c4.241,1.757,8.577,3.33,13.004,4.698c-3.4-44.147-5.628-90.535-2.53-112.659
						c5.308-37.919,50.053-9.102,41.709-19.719c-8.342-10.617-16.684-6.824-18.883-18.957c-2.204-12.135-2.35-19.719,18.125-13.653
						C164.746,134.021,188.258,103.684,179.099,109.75z"/>
					<path fill="none" stroke="#000000" stroke-linecap="round" stroke-linejoin="round" stroke-miterlimit="10" d="
						M196.033,292.363c3.654-20.318,6.06-39.641,5.938-55.214c-0.379-49.158-5.715-73.168,1.91-96.42
						c7.619-23.242,11.436-46.111,11.436-65.162c0-11.096,2.841-34.851,5.517-57.276"/>
					<path fill="none" stroke="#000000" stroke-linecap="round" stroke-linejoin="round" stroke-miterlimit="10" d="M109.2,6.147
						c5.05,30.241,4.423,43.839,2.703,56.715c-2.031,15.247-1.523,46.24-2.542,58.943c-1.016,12.705-9.65,40.145-12.187,70.122
						c-2.11,24.877-7.71,54.667-4.331,96.313"/>
					
						<radialGradient id="SVGID_1_" cx="154.7202" cy="146.0732" r="73.8872" gradientTransform="matrix(-0.539 0.8423 -0.6079 -0.389 326.9184 72.5818)" gradientUnits="userSpaceOnUse">
						<stop  offset="0.5882" style="stop-color:#C93038"/>
						<stop  offset="1" style="stop-color:#C93038;stop-opacity:0"/>
					</radialGradient>
					<path opacity="0.35" fill="url(#SVGID_1_)" d="M212.137,108.317c-1.523-21.844-10.564-46.621-24.135-51.68
						c-18.892-7.041-36.674,18.777-49.455,24.254c-11.353,4.865-25.329,24.548-29.612,44.52c-0.232,1.584-0.533,3.313-0.891,5.183
						c-0.098,0.778-0.184,1.556-0.248,2.329l-0.041,3.932c-9.678,69.264-15.327,85.641-4.77,95.811
						c10.558,10.17,75.015,0,85.572-17.211c4.792-7.814,8.324-21.275,11.382-35.734c-0.455-15.287,0.088-27.238,3.941-38.99
						C207.491,129.718,210.237,118.795,212.137,108.317z"/>
					<g>
						<path fill="#D54732" d="M118.336,191.087c-2.663,0-7.504-1.273-9.462-1.82l-0.853-0.238l0.133-0.876
							c0.646-4.237,2.224-14.397,2.911-17.222c0.501-2.062,0.145-4.109-0.234-6.277c-0.356-2.041-0.76-4.35-0.622-7.256
							c0.103-2.151,0.528-6.197,1.021-10.881c0.868-8.262,1.852-17.624,1.689-22.122l-0.017-0.479l0.363-0.313
							c1.395-1.204,13.767-11.822,18.706-13.902c2.26-0.95,6.213-1.475,11.132-1.475c5.166,0,11.018,0.573,15.655,1.532
							c2.439,0.505,5.372,1.049,8.477,1.625c7.357,1.364,16.514,3.062,19.829,4.496c0.592,0.256,1.147,0.503,1.675,0.738
							c3.155,1.405,5.431,2.418,8.922,2.418c0.736,0,1.498-0.045,2.328-0.137c2.727-0.303,5.318-1.351,7.922-3.203l1.994-1.418
							l-0.43,2.408c-0.338,1.898-0.875,3.41-1.598,4.491l-0.25,0.377l0.117,0.437c0.041,0.17,0.863,3.682-1.875,6.715l-0.115,0.127
							l-0.066,0.158c-4.553,10.924-17.138,40.043-20.646,43.551c-4.498,4.496-14.107,11.921-20.446,13.575
							c-7.095,1.851-27.167,4.972-30.952,4.972H118.336z"/>
						<path fill="#B53426" d="M205.108,117.526c-0.18,0.033-0.383,0.076-0.58,0.115c-1.488,0.663-2.99,1.084-4.539,1.256
							c-0.229,0.025-0.443,0.039-0.664,0.057c-4.623,1.418-10.056,3.842-12.562,7.857c-3.735,5.986-22.656,18.215-46.656,14.715
							c-15.999-2.334-21.549-13.549-23.476-20.771c-1.717,1.428-2.975,2.508-3.367,2.847l-0.363,0.313l0.017,0.479
							c0.163,4.498-0.821,13.86-1.689,22.122c-0.492,4.684-0.917,8.729-1.021,10.881c-0.138,2.906,0.266,5.215,0.622,7.256
							c0.145,0.832,0.286,1.646,0.377,2.449c20.571,11.016,56.017-12.449,58.398-14.076c2.688-1.838,20.5-15,25.127-15.334
							S209.475,116.685,205.108,117.526z"/>
						<path fill="#F9F0ED" stroke="#000000" stroke-linecap="round" stroke-linejoin="round" stroke-miterlimit="10" d="
							M208.526,119.126c-0.244-0.496-0.842-0.702-1.338-0.458c-1.826,0.894-3.752,1.774-5.729,2.624
							c-1.705-0.36-3.426-0.735-5.14-1.131c-1.025-0.234-2.054-0.49-3.083-0.736c0.062-0.201,0.078-0.416,0.001-0.629
							c-0.188-0.52-0.763-0.789-1.28-0.601c-0.51,0.185-1.031,0.366-1.557,0.546c-1.828-0.457-3.657-0.929-5.475-1.411
							c-0.86-0.229-1.712-0.476-2.57-0.712c0.165-0.051,0.33-0.098,0.494-0.148c0.526-0.168,0.818-0.729,0.651-1.256
							c-0.167-0.527-0.731-0.816-1.255-0.65c-1.067,0.338-2.147,0.654-3.218,0.969l-0.286,0.084
							c-1.934-0.555-3.86-1.116-5.766-1.688c-1.26-0.379-2.502-0.77-3.75-1.156c0.026-0.137,0.029-0.281-0.006-0.426
							c-0.132-0.536-0.676-0.863-1.21-0.732l-1.414,0.344c-1.431-0.453-2.847-0.91-4.246-1.363l-0.924-0.3
							c-0.526-0.171-1.089,0.118-1.259,0.644c-0.17,0.525,0.118,1.089,0.643,1.259l0.923,0.3c0.342,0.11,0.693,0.221,1.036,0.332
							c-1.578,0.348-3.16,0.688-4.737,1.006c-0.022,0.004-0.044,0.007-0.066,0.012c-2.667,0.554-5.446,1.084-8.26,1.579
							c-2.122-0.749-4.197-1.489-6.217-2.22c-0.022-0.008-0.046-0.016-0.069-0.022l-0.795-0.293
							c-0.687-0.253-1.358-0.501-2.031-0.751c1.529-0.232,3.146-0.486,4.887-0.77c0.021-0.002,0.042-0.004,0.062-0.008
							c1.564-0.261,3.128-0.541,4.742-0.832c0.543-0.098,0.905-0.618,0.807-1.162c-0.098-0.543-0.615-0.904-1.162-0.807
							c-1.588,0.287-3.129,0.562-4.669,0.82c-0.018,0.002-0.036,0.004-0.054,0.007c-3.182,0.517-5.962,0.942-8.5,1.303l-3.292-1.26
							c-0.514-0.196-1.094,0.061-1.292,0.577c-0.184,0.48,0.038,1.002,0.485,1.232c-1.393,0.181-2.718,0.344-3.986,0.492
							c-0.549,0.062-0.942,0.559-0.878,1.107c0.059,0.51,0.491,0.885,0.992,0.885c0.039,0,0.078-0.002,0.117-0.006
							c2.327-0.27,4.83-0.592,7.634-0.98c1.763,0.67,3.577,1.34,5.445,2.027l0.86,0.317c0.026,0.01,0.052,0.019,0.08,0.025
							c0.923,0.333,1.861,0.671,2.806,1.008c-1.662,0.277-3.312,0.544-4.929,0.79c-2.823,0.428-5.738,0.832-8.667,1.203
							c-2.257-0.865-4.398-1.703-6.412-2.504l-0.496-0.194c-0.231-0.089-0.46-0.179-0.686-0.271
							c-0.509-0.209-1.095,0.036-1.305,0.546c-0.209,0.512,0.035,1.096,0.546,1.305c0.237,0.098,0.478,0.191,0.719,0.285
							l0.481,0.188c0.953,0.378,1.941,0.769,2.948,1.162c-1.741,0.204-3.447,0.396-5.096,0.565
							c-1.191,0.127-2.338,0.237-3.439,0.344l-1.082,0.104c-0.55,0.054-0.952,0.542-0.898,1.093c0.05,0.516,0.485,0.902,0.994,0.902
							c0.032,0,0.065-0.002,0.098-0.005l1.08-0.104c1.108-0.106,2.261-0.218,3.456-0.346c2.815-0.291,5.79-0.635,8.844-1.021
							c2.043,0.783,4.176,1.594,6.399,2.416l0.809,0.296c0.696,0.255,1.406,0.515,2.115,0.772c-1.601,0.244-3.26,0.486-5.018,0.732
							c-3.008,0.418-5.946,0.789-8.751,1.107c-2.327-0.906-4.509-1.773-6.528-2.586c-1.159-0.465-2.264-0.916-3.31-1.344
							l-0.694-0.283c-0.511-0.211-1.095,0.035-1.304,0.547c-0.209,0.512,0.037,1.096,0.548,1.305l0.694,0.283
							c1.05,0.429,2.159,0.882,3.321,1.348c0.964,0.389,1.969,0.79,3.004,1.201c-1.719,0.18-3.445,0.352-5.169,0.506
							c-1.466,0.129-2.842,0.25-4.129,0.349c-0.55,0.042-0.962,0.523-0.92,1.074c0.041,0.524,0.479,0.923,0.996,0.923
							c0.026,0,0.052-0.001,0.078-0.003c1.293-0.101,2.677-0.22,4.152-0.351c3.015-0.271,6.041-0.584,8.998-0.926
							c2.067,0.813,4.24,1.646,6.509,2.494c0.966,0.366,1.954,0.734,2.954,1.105c-1.793,0.25-3.489,0.477-5.095,0.678
							c-2.836,0.357-5.751,0.688-8.894,1.012c-2.387-0.944-4.6-1.843-6.605-2.666l-0.78-0.32c-0.369-0.151-0.73-0.3-1.084-0.441
							c-0.513-0.206-1.094,0.044-1.3,0.557c-0.205,0.514,0.044,1.096,0.558,1.301c0.348,0.139,0.703,0.285,1.065,0.434l0.785,0.322
							c0.96,0.395,1.972,0.807,3.023,1.232c-1.736,0.158-3.385,0.299-4.909,0.416c-0.551,0.041-0.963,0.521-0.921,1.072
							c0.04,0.525,0.479,0.924,0.996,0.924c0.025,0,0.051,0,0.077-0.002c2.628-0.201,5.594-0.467,8.812-0.789
							c2.069,0.816,4.253,1.676,6.565,2.557c0.024,0.009,0.05,0.018,0.076,0.024c0.953,0.368,1.932,0.738,2.923,1.112
							c-1.709,0.217-3.424,0.428-5.134,0.625c-2.85,0.318-5.733,0.607-9.038,0.904c-1.542-0.623-2.999-1.215-4.34-1.766
							c-0.513-0.212-1.095,0.033-1.305,0.544s0.034,1.095,0.544,1.306c0.22,0.09,0.462,0.188,0.688,0.28
							c-0.196,0.015-0.411,0.032-0.602,0.048c-0.551,0.041-0.963,0.521-0.922,1.072c0.04,0.524,0.478,0.924,0.996,0.924
							c0.025,0,0.05,0,0.076-0.002c1.393-0.105,2.921-0.229,4.562-0.371c2.074,0.837,4.312,1.727,6.69,2.646
							c0.984,0.383,2,0.776,3.033,1.173c-1.674,0.19-3.386,0.375-5.172,0.557c-0.013,0.002-0.025,0.002-0.037,0.004
							c-3.199,0.312-6.282,0.582-9.168,0.799l-0.282-0.118c-0.51-0.211-1.096,0.03-1.306,0.542
							c-0.059,0.141-0.075,0.287-0.068,0.432c-0.013,0.062-0.039,0.123-0.039,0.19c0,0.552,0.448,1,1,1
							c0.12,0,0.246-0.009,0.372-0.019c2.058,0.848,4.317,1.76,6.759,2.729c0.988,0.391,2.016,0.793,3.064,1.202
							c-1.883,0.188-3.653,0.354-5.261,0.491c-2.104,0.18-4.01,0.33-5.686,0.449c-0.551,0.039-0.965,0.518-0.926,1.068
							c0.025,0.354,0.238,0.639,0.527,0.795c-0.262,0.093-0.486,0.283-0.598,0.561c-0.206,0.514,0.042,1.096,0.555,1.301
							l1.306,0.528c0.669,0.271,1.357,0.551,2.06,0.831c0.992,0.404,2.022,0.818,3.084,1.24c-1.799,0.156-3.591,0.301-5.361,0.428
							l-0.615,0.051c-0.549,0.055-0.95,0.545-0.896,1.094c0.052,0.516,0.486,0.9,0.994,0.9c0.033,0,0.067-0.001,0.101-0.004
							l0.582-0.048c3.088-0.22,6.258-0.489,9.336-0.796c2.143,0.828,4.404,1.691,6.762,2.574c0.024,0.01,0.049,0.018,0.075,0.025
							c0.978,0.365,1.979,0.736,2.99,1.107c-2.051,0.252-3.873,0.461-5.252,0.617c-3.172,0.344-6.28,0.641-9.255,0.887
							c-1.476-0.577-2.891-1.137-4.22-1.68c-0.512-0.209-1.096,0.038-1.304,0.549c-0.208,0.512,0.038,1.096,0.549,1.305
							c0.15,0.061,0.312,0.125,0.463,0.186c-0.001,0-0.003,0-0.005,0c-0.551,0.039-0.967,0.516-0.929,1.066
							c0.036,0.527,0.476,0.932,0.997,0.932c0.023,0,0.046-0.001,0.07-0.002c1.249-0.086,2.614-0.192,4.082-0.322
							c2.153,0.855,4.438,1.748,6.854,2.669l0.596,0.226c0.817,0.311,1.652,0.627,2.491,0.943c-1.768,0.195-3.517,0.379-5.211,0.547
							c-0.032,0-0.094,0.001-0.126,0.004c-3.823,0.369-7.146,0.621-9.38,0.781l-0.14-0.055c-0.519-0.189-1.092,0.076-1.283,0.596
							c-0.024,0.064-0.02,0.131-0.03,0.195c-0.049,0.149-0.075,0.307-0.047,0.473c0.082,0.488,0.505,0.835,0.985,0.835
							c0.054,0,0.11-0.005,0.166-0.014c0.012-0.002,0.024-0.001,0.036-0.003c2.155,0.867,4.474,1.789,6.948,2.749
							c1.014,0.394,2.062,0.796,3.127,1.202c-1.749,0.17-3.523,0.332-5.355,0.489c-2.343,0.189-4.398,0.329-6.113,0.438
							c-0.551,0.035-0.969,0.511-0.934,1.062c0.018,0.27,0.142,0.506,0.327,0.674c-0.222,0.104-0.409,0.283-0.507,0.528
							c-0.206,0.513,0.042,1.095,0.555,1.301c0.767,0.308,1.553,0.62,2.362,0.94l1.463,0.582c1.021,0.404,2.083,0.818,3.165,1.24
							c-1.448,0.119-2.852,0.227-4.198,0.322c-0.551,0.039-0.966,0.518-0.927,1.068c0.038,0.527,0.477,0.93,0.997,0.93
							c0.023,0,0.048-0.002,0.072-0.003c2.584-0.183,5.376-0.413,8.3-0.681c1.385,0.524,2.803,1.058,4.259,1.6
							c0.115,0.043,0.233,0.064,0.349,0.064c0.405,0,0.787-0.25,0.937-0.652c0.193-0.518-0.07-1.093-0.588-1.285
							c-0.162-0.061-0.318-0.119-0.479-0.18c1.783-0.189,3.578-0.388,5.376-0.601c2.751-0.324,5.767-0.722,9.196-1.21
							c2.192,0.756,4.431,1.512,6.718,2.258c0.103,0.033,0.208,0.049,0.31,0.049c0.421,0,0.813-0.268,0.951-0.689
							c0.171-0.525-0.116-1.09-0.641-1.262c-1.02-0.332-2.026-0.668-3.027-1.003c1.695-0.265,3.434-0.548,5.212-0.851
							c2.812-0.475,5.792-1.022,8.86-1.627c2.138,0.646,4.302,1.295,6.476,1.922c0.093,0.027,0.187,0.041,0.278,0.041
							c0.434,0,0.833-0.285,0.96-0.723c0.154-0.531-0.152-1.086-0.683-1.238c-0.97-0.281-1.924-0.572-2.889-0.859
							c1.73-0.367,3.394-0.734,5.005-1.106c3.07-0.706,5.849-1.394,8.491-2.103c0.018,0.002,0.037,0.008,0.055,0.008
							c0.177,0,0.336-0.062,0.479-0.152c0.001-0.002,0.003-0.002,0.004-0.002c0.01-0.004,0.017-0.012,0.026-0.017
							c0.025-0.018,0.054-0.028,0.078-0.049c0.438-0.231,0.651-0.745,0.471-1.222c-0.172-0.453-0.642-0.688-1.106-0.609
							c-2.107-0.553-4.206-1.123-6.294-1.702c-0.021-0.006-0.043-0.011-0.065-0.016c-0.931-0.261-1.879-0.532-2.83-0.808
							c1.667-0.381,3.325-0.77,4.958-1.173c2.879-0.716,5.648-1.454,8.241-2.197c1.368,0.349,2.737,0.688,4.116,1.019
							c0.078,0.02,0.157,0.027,0.234,0.027c0.452,0,0.862-0.308,0.972-0.767c0.128-0.537-0.203-1.077-0.74-1.206
							c-0.254-0.061-0.505-0.125-0.758-0.188c0.988-0.299,1.974-0.604,2.951-0.917c0.526-0.169,0.815-0.731,0.646-1.258
							c-0.169-0.526-0.731-0.817-1.258-0.646c-2.046,0.656-4.128,1.282-6.193,1.866c-2.041-0.518-4.081-1.053-6.112-1.6
							c-0.02-0.006-0.04-0.01-0.06-0.014c-0.915-0.254-1.82-0.52-2.73-0.777c1.595-0.393,3.21-0.802,4.847-1.236
							c2.662-0.705,5.37-1.477,8.052-2.293c1.617,0.397,3.242,0.779,4.858,1.15c0.075,0.018,0.15,0.025,0.225,0.025
							c0.456,0,0.868-0.313,0.974-0.776c0.123-0.538-0.213-1.075-0.751-1.198c-0.519-0.119-1.04-0.248-1.56-0.369
							c1.117-0.361,2.231-0.732,3.332-1.11c0.522-0.18,0.8-0.749,0.62-1.271c-0.18-0.523-0.748-0.802-1.271-0.621
							c-2.134,0.733-4.313,1.437-6.483,2.097c-1.996-0.489-3.983-1.003-5.97-1.519c-0.019-0.005-0.039-0.01-0.059-0.014
							c-0.899-0.24-1.788-0.496-2.682-0.743c1.607-0.424,3.197-0.854,4.745-1.294c2.874-0.824,5.45-1.611,7.873-2.403
							c1.529,0.37,3.133,0.737,4.899,1.119c0.072,0.015,0.143,0.022,0.213,0.022c0.461,0,0.875-0.32,0.977-0.789
							c0.117-0.539-0.227-1.072-0.766-1.188c-0.586-0.126-1.147-0.251-1.7-0.374c1.168-0.404,2.323-0.814,3.454-1.23
							c0.518-0.189,0.783-0.765,0.593-1.283c-0.19-0.518-0.767-0.784-1.284-0.594c-2.092,0.77-4.268,1.521-6.467,2.238
							c-1.944-0.459-3.897-0.943-5.845-1.438c-0.883-0.23-1.765-0.475-2.649-0.711c1.547-0.438,3.1-0.89,4.649-1.364
							c2.856-0.874,5.364-1.692,7.662-2.499c1.624,0.377,3.256,0.739,4.869,1.081c0.07,0.015,0.14,0.021,0.208,0.021
							c0.462,0,0.878-0.322,0.978-0.793c0.114-0.54-0.23-1.071-0.771-1.186c-0.584-0.124-1.174-0.263-1.762-0.392
							c1.213-0.449,2.402-0.904,3.553-1.36c0.514-0.204,0.766-0.785,0.561-1.298c-0.203-0.514-0.783-0.764-1.297-0.562
							c-2.055,0.815-4.228,1.624-6.457,2.411c-1.781-0.404-3.639-0.85-5.672-1.361c-0.87-0.218-1.737-0.453-2.606-0.678
							c1.54-0.465,3.065-0.938,4.553-1.422c2.554-0.831,5.042-1.703,7.409-2.592c1.782,0.398,3.4,0.74,4.928,1.043
							c0.066,0.013,0.131,0.019,0.195,0.019c0.467,0,0.887-0.33,0.98-0.806c0.105-0.543-0.246-1.068-0.787-1.176
							c-0.619-0.121-1.256-0.252-1.908-0.389c1.268-0.504,2.523-1.016,3.748-1.541c0.506-0.217,0.742-0.805,0.523-1.312
							c-0.217-0.508-0.805-0.742-1.312-0.525c-2.105,0.902-4.293,1.775-6.508,2.605c-1.828-0.409-3.656-0.833-5.492-1.278
							c-0.02-0.005-0.041-0.009-0.062-0.013c-0.827-0.199-1.651-0.42-2.476-0.627c1.498-0.482,2.991-0.979,4.464-1.494
							c2.588-0.908,4.941-1.787,7.188-2.685c1.668,0.368,3.336,0.714,4.965,1.022c0.062,0.012,0.125,0.018,0.188,0.018
							c0.471,0,0.891-0.334,0.98-0.813c0.104-0.543-0.252-1.065-0.795-1.169c-0.678-0.129-1.365-0.268-2.053-0.406
							c1.381-0.586,2.711-1.173,4.002-1.77c0.037-0.014,0.072-0.028,0.107-0.046l0.141-0.063c0.08-0.035,0.158-0.07,0.232-0.107
							c0.494-0.248,0.695-0.848,0.447-1.342c-0.246-0.494-0.846-0.695-1.342-0.447l-0.143,0.065c-0.045,0.021-0.09,0.04-0.135,0.06
							c-0.025,0.01-0.051,0.02-0.074,0.031c-2.105,0.975-4.301,1.92-6.695,2.887c-1.902-0.406-3.648-0.801-5.324-1.202
							c-0.826-0.196-1.654-0.406-2.482-0.608c1.457-0.504,2.906-1.02,4.331-1.551c2.341-0.873,4.679-1.809,6.956-2.778
							c1.676,0.349,3.342,0.681,4.998,0.993c0.016,0.004,0.033,0.006,0.049,0.008c0.066,0.013,0.135,0.02,0.197,0.02
							c0.553,0,1-0.447,1-1c0-0.492-0.355-0.9-0.824-0.984c-0.021-0.004-0.045-0.008-0.068-0.012
							c-0.713-0.135-1.434-0.286-2.15-0.428c1.092-0.496,2.166-1,3.203-1.508C208.563,120.222,208.768,119.622,208.526,119.126z
							 M186.954,119.918c-1.422,0.47-2.898,0.94-4.47,1.422c-2.359,0.724-4.868,1.44-7.653,2.187
							c-1.964-0.574-3.92-1.154-5.864-1.758c-0.909-0.274-1.833-0.561-2.763-0.851c1.561-0.362,3.134-0.737,4.716-1.132
							c2.613-0.654,5.242-1.357,7.822-2.094c1.878,0.535,3.772,1.062,5.669,1.57C185.256,119.487,186.106,119.698,186.954,119.918z
							 M144.607,177.581c-2.256-0.764-4.476-1.525-6.648-2.289c-0.023-0.008-0.047-0.016-0.072-0.021
							c-1.006-0.359-1.993-0.714-2.975-1.066c1.746-0.23,3.473-0.468,5.156-0.713c0.018-0.001,0.035-0.003,0.052-0.006
							c2.832-0.41,5.848-0.889,8.966-1.424c2.138,0.715,4.294,1.412,6.5,2.107c0.022,0.008,0.044,0.014,0.068,0.02
							c0.957,0.304,1.935,0.594,2.899,0.891c-1.596,0.322-3.264,0.646-5.045,0.981c-0.028,0.003-0.056,0.007-0.083,0.012
							C150.34,176.64,147.376,177.146,144.607,177.581z M149.237,170.009c-2.226-0.734-4.415-1.477-6.556-2.209
							c-0.022-0.008-0.045-0.014-0.068-0.021c-1.003-0.349-1.985-0.694-2.96-1.04c1.774-0.256,3.47-0.512,5.097-0.769
							c0.019-0.002,0.038-0.005,0.057-0.007c2.819-0.453,5.774-0.965,8.781-1.52c1.921,0.621,4.158,1.339,6.44,2.029
							c0.02,0.006,0.04,0.011,0.06,0.016c0.892,0.28,1.831,0.568,2.816,0.865c-1.532,0.333-3.15,0.672-4.933,1.031
							c-0.021,0.002-0.041,0.006-0.061,0.01C155.144,168.952,152.226,169.495,149.237,170.009z M153.722,162.385
							c-2.182-0.703-4.337-1.424-6.444-2.136c-0.996-0.336-1.987-0.678-2.973-1.02c1.682-0.266,3.369-0.541,5.053-0.83
							c0.021-0.002,0.043-0.005,0.064-0.009c2.358-0.417,5.454-0.974,8.627-1.614c2.075,0.664,4.159,1.311,6.277,1.947
							c0.93,0.281,1.882,0.564,2.84,0.846c-1.688,0.395-3.312,0.762-4.89,1.1C159.436,161.278,156.559,161.854,153.722,162.385z
							 M162.346,121.79c2.037,0.66,4.069,1.297,6.035,1.891c0.902,0.28,1.819,0.545,2.728,0.818
							c-1.498,0.379-3.064,0.76-4.741,1.153c-2.563,0.603-5.243,1.188-8.171,1.79c-2.099-0.691-4.162-1.383-6.183-2.071
							c-0.969-0.336-1.926-0.669-2.878-1.003c1.667-0.291,3.32-0.59,4.937-0.9C156.687,122.974,159.469,122.409,162.346,121.79z
							 M158.078,129.507c2.014,0.664,4.052,1.318,6.12,1.963c0.919,0.289,1.86,0.568,2.79,0.854
							c-1.534,0.361-3.125,0.724-4.812,1.096c-2.717,0.59-5.515,1.155-8.319,1.685c-2.129-0.712-4.223-1.431-6.278-2.151
							c-0.025-0.009-0.052-0.017-0.079-0.023c-0.955-0.332-1.896-0.664-2.832-0.997c1.713-0.278,3.371-0.556,4.99-0.841
							C152.266,130.64,155.026,130.12,158.078,129.507z M153.717,137.166c2.046,0.685,4.135,1.368,6.246,2.042
							c0.933,0.299,1.896,0.594,2.842,0.891c-1.647,0.361-3.286,0.711-4.896,1.037c-2.586,0.523-5.364,1.045-8.477,1.592
							c-2.172-0.741-4.3-1.482-6.383-2.226c-1.003-0.352-1.988-0.704-2.966-1.058c1.63-0.241,3.312-0.501,5.043-0.781
							C148.081,138.19,150.969,137.687,153.717,137.166z M149.272,144.784c2.07,0.713,4.191,1.418,6.344,2.122
							c0.023,0.008,0.046,0.015,0.07,0.021c0.922,0.303,1.854,0.603,2.79,0.902c-1.72,0.35-3.364,0.672-4.943,0.964
							c-2.736,0.513-5.567,1.006-8.635,1.505c-2.211-0.771-4.36-1.541-6.46-2.302c-0.025-0.009-0.05-0.017-0.076-0.024
							c-0.986-0.354-1.952-0.707-2.911-1.059c1.708-0.23,3.402-0.466,5.057-0.711c0.02-0.002,0.04-0.004,0.06-0.008
							C143.65,145.726,146.5,145.263,149.272,144.784z M144.716,152.353c2.108,0.733,4.261,1.467,6.459,2.203
							c0.966,0.316,1.94,0.635,2.919,0.953c-1.827,0.344-3.536,0.65-4.972,0.903c-0.019,0.003-0.037,0.005-0.056,0.009
							c-2.93,0.502-5.879,0.973-8.771,1.399c-2.263-0.792-4.463-1.592-6.593-2.372c-1.026-0.38-2.03-0.754-3.023-1.125
							c1.74-0.213,3.475-0.435,5.189-0.666C138.611,153.29,141.587,152.851,144.716,152.353z M158.157,154.716
							c-2.153-0.686-4.271-1.377-6.353-2.059c-0.991-0.332-1.971-0.663-2.946-0.995c1.731-0.298,3.406-0.597,5.041-0.903
							c2.628-0.486,5.409-1.045,8.484-1.701c2.053,0.635,4.123,1.262,6.2,1.867c0.929,0.273,1.863,0.531,2.793,0.8
							c-1.605,0.404-3.207,0.796-4.79,1.165c-0.022,0.003-0.045,0.008-0.067,0.013C163.868,153.523,161.055,154.134,158.157,154.716
							z M162.472,146.991c-2.099-0.652-4.18-1.314-6.223-1.985c-0.023-0.007-0.047-0.015-0.072-0.021
							c-0.949-0.311-1.89-0.621-2.825-0.934c1.737-0.32,3.385-0.639,4.953-0.956c2.724-0.55,5.521-1.159,8.318-1.808
							c2.013,0.605,4.042,1.213,6.073,1.787c0.91,0.267,1.833,0.512,2.75,0.769c-1.507,0.407-3.082,0.817-4.767,1.241
							C167.783,145.796,165.096,146.421,162.472,146.991z M166.693,139.22c-2.067-0.633-4.11-1.275-6.122-1.916
							c-0.952-0.305-1.897-0.611-2.839-0.918c1.639-0.329,3.269-0.666,4.87-1.014c2.946-0.648,5.615-1.271,8.153-1.901
							c1.979,0.585,3.965,1.161,5.958,1.718c0.887,0.251,1.779,0.484,2.668,0.727c-1.563,0.453-3.121,0.891-4.657,1.295
							C172.185,137.896,169.551,138.554,166.693,139.22z M170.802,131.397c-2.016-0.604-4.026-1.215-6.006-1.836
							c-0.932-0.291-1.837-0.59-2.758-0.885c1.653-0.357,3.245-0.715,4.788-1.077c2.924-0.687,5.537-1.34,7.983-1.997
							c1.916,0.563,3.84,1.111,5.775,1.639c0.874,0.238,1.753,0.464,2.629,0.697c-1.512,0.467-3.014,0.914-4.485,1.328
							c-0.027,0.005-0.054,0.012-0.08,0.02C176.256,129.983,173.682,130.675,170.802,131.397z M158.318,115.815
							c0.019-0.002,0.038-0.006,0.057-0.01c2.712-0.547,5.446-1.146,8.143-1.775c1.94,0.613,3.905,1.219,5.881,1.813
							c0.888,0.267,1.792,0.523,2.687,0.786c-1.548,0.42-3.101,0.828-4.65,1.216c-2.699,0.672-5.385,1.301-7.991,1.874
							c-2.055-0.662-4.077-1.332-6.068-2.002c-0.023-0.008-0.047-0.014-0.071-0.02c-0.932-0.315-1.851-0.629-2.764-0.941
							C155.159,116.452,156.76,116.14,158.318,115.815z M138.923,120.698c-0.991-0.367-1.957-0.729-2.913-1.09
							c1.699-0.233,3.385-0.473,5.037-0.724c2.768-0.421,5.624-0.893,8.492-1.4c2.017,0.712,4.078,1.416,6.188,2.129
							c0.024,0.009,0.048,0.015,0.073,0.021c0.904,0.304,1.838,0.604,2.754,0.907c-1.666,0.343-3.293,0.666-4.856,0.962
							c-2.743,0.526-5.581,1.026-8.439,1.493c-1.887-0.67-3.733-1.346-5.529-2.004L138.923,120.698z M131.363,127.022
							c1.655-0.207,3.342-0.428,5.053-0.666c3.127-0.438,5.961-0.865,8.659-1.303c2.046,0.732,4.146,1.465,6.29,2.209
							c0.941,0.32,1.893,0.642,2.85,0.963c-1.705,0.325-3.334,0.624-4.9,0.896c-2.718,0.478-5.527,0.938-8.564,1.407
							c-2.209-0.809-4.348-1.598-6.412-2.379C133.324,127.771,132.338,127.396,131.363,127.022z M129.525,135.516
							c-0.995-0.379-1.954-0.751-2.903-1.121c1.75-0.196,3.451-0.396,5.119-0.606c2.668-0.334,5.553-0.73,8.803-1.207
							c2.07,0.744,4.193,1.506,6.365,2.26c0.024,0.008,0.048,0.016,0.074,0.021c0.934,0.328,1.879,0.654,2.828,0.98
							c-1.64,0.29-3.306,0.574-5.003,0.846c-3.068,0.496-5.993,0.934-8.707,1.303c-2.25-0.838-4.42-1.648-6.493-2.448
							C129.581,135.532,129.553,135.524,129.525,135.516z M121.775,141.704c1.792-0.176,3.504-0.355,5.196-0.545
							c2.976-0.342,5.969-0.719,8.903-1.119c2.104,0.773,4.278,1.566,6.507,2.348c0.966,0.344,1.946,0.689,2.932,1.033
							c-1.613,0.264-3.268,0.525-5,0.789c-0.018,0.002-0.035,0.004-0.052,0.007c-2.872,0.426-5.85,0.831-8.851,1.206
							c-2.301-0.868-4.504-1.718-6.592-2.53C123.774,142.489,122.763,142.093,121.775,141.704z M116.867,148.964
							c1.693-0.146,3.42-0.305,5.16-0.479c0.034,0,0.067-0.001,0.101-0.005c3.184-0.323,6.145-0.655,9.047-1.014
							c2.115,0.786,4.311,1.598,6.575,2.41c0.023,0.009,0.047,0.017,0.071,0.022c0.957,0.347,1.927,0.695,2.905,1.045
							c-1.776,0.266-3.495,0.512-5.123,0.73c-2.964,0.4-5.988,0.775-8.987,1.119c-2.35-0.906-4.594-1.776-6.69-2.607
							C118.869,149.767,117.854,149.36,116.867,148.964z M112.921,156.589l-1.074-0.435c1.587-0.116,3.361-0.255,5.314-0.422
							c2.684-0.229,5.777-0.532,9.194-0.897c2.127,0.806,4.351,1.637,6.657,2.49c0.992,0.363,2.002,0.73,3.022,1.1
							c-1.815,0.248-3.523,0.471-5.129,0.664c-0.018,0.001-0.035,0.002-0.053,0.005c-2.985,0.373-6.081,0.716-9.112,1.019
							c-2.414-0.947-4.662-1.84-6.764-2.695C114.271,157.136,113.586,156.858,112.921,156.589z M128.853,162.815
							c-1.017-0.381-2.005-0.756-2.984-1.129c1.755-0.191,3.495-0.391,5.194-0.604c0.015-0.001,0.029-0.002,0.044-0.004
							c2.699-0.324,5.648-0.721,8.997-1.209c2.132,0.764,4.328,1.528,6.535,2.273c0.971,0.328,1.955,0.658,2.943,0.986
							c-1.714,0.301-3.406,0.588-5.046,0.852c-0.018,0.002-0.035,0.004-0.053,0.007c-2.744,0.435-5.657,0.86-8.885,1.304
							c-2.294-0.83-4.524-1.651-6.669-2.453C128.903,162.83,128.878,162.822,128.853,162.815z M124.043,170.181
							c-1.061-0.404-2.085-0.801-3.098-1.193c1.739-0.164,3.51-0.344,5.304-0.537c2.206-0.25,5.532-0.635,9.128-1.111
							c2.152,0.774,4.357,1.559,6.642,2.352c0.024,0.009,0.05,0.017,0.076,0.023c0.966,0.33,1.945,0.662,2.929,0.996
							c-1.766,0.283-3.491,0.551-5.147,0.79c-0.018,0.002-0.036,0.004-0.053,0.007c-2.918,0.424-5.958,0.83-9.034,1.208
							c-2.13-0.782-4.17-1.556-6.151-2.308L124.043,170.181z M115.924,176.235c1.591-0.131,3.369-0.285,5.253-0.469
							c0.032,0,0.095-0.002,0.127-0.006c3.045-0.295,6.158-0.635,9.257-1.006c2.175,0.795,4.413,1.6,6.719,2.423
							c0.026,0.009,0.053,0.018,0.081,0.024c0.978,0.344,1.969,0.687,2.965,1.029c-1.763,0.26-3.515,0.508-5.232,0.733
							c-2.83,0.381-5.842,0.745-9.188,1.11c-2.385-0.898-4.679-1.77-6.848-2.611C117.983,177.046,116.943,176.638,115.924,176.235z
							 M130.289,186.383c-3.146,0.372-6.288,0.71-9.345,1.005c-2.443-0.938-4.769-1.84-6.946-2.701l-1.464-0.581
							c-0.598-0.237-1.171-0.466-1.745-0.694c1.585-0.104,3.414-0.231,5.483-0.398c3.25-0.277,6.32-0.572,9.377-0.898
							c2.208,0.816,4.495,1.659,6.857,2.502c1.008,0.365,2.034,0.73,3.068,1.098C133.701,185.964,131.94,186.188,130.289,186.383z
							 M148.909,183.69c-3.136,0.532-6.159,1.01-8.995,1.42c-2.294-0.791-4.544-1.582-6.731-2.377
							c-1.052-0.375-2.082-0.748-3.103-1.121c1.84-0.219,3.596-0.438,5.277-0.664c2.96-0.39,6.014-0.834,9.078-1.318
							c2.18,0.736,4.388,1.471,6.635,2.197c0.985,0.318,1.977,0.634,2.971,0.947C152.285,183.103,150.565,183.41,148.909,183.69z
							 M168.976,178.165c0.926,0.258,1.857,0.512,2.79,0.766c-1.581,0.395-3.222,0.79-4.963,1.19
							c-2.692,0.621-5.51,1.229-8.601,1.854c-2.203-0.674-4.37-1.357-6.517-2.051c-1.009-0.326-2.006-0.654-3-0.984
							c1.635-0.277,3.316-0.572,5.039-0.889c0.03-0.004,0.059-0.008,0.089-0.014c3.193-0.599,6.044-1.17,8.714-1.741
							c2.152,0.646,4.299,1.271,6.382,1.853C168.93,178.155,168.953,178.161,168.976,178.165z M173.152,170.306
							c0.913,0.246,1.831,0.479,2.747,0.719c-1.577,0.426-3.198,0.848-4.862,1.261c-2.763,0.681-5.598,1.335-8.43,1.947
							c-2.16-0.645-4.294-1.296-6.408-1.97c-0.023-0.008-0.047-0.014-0.072-0.02c-0.967-0.305-1.921-0.611-2.873-0.918
							c1.705-0.312,3.378-0.633,4.997-0.959c0.021-0.002,0.041-0.006,0.062-0.01c3.238-0.652,5.958-1.238,8.537-1.838
							c2.07,0.604,4.14,1.193,6.23,1.771C173.104,170.296,173.128,170.302,173.152,170.306z M177.25,162.397
							c0.89,0.231,1.782,0.451,2.672,0.68c-1.593,0.459-3.185,0.905-4.761,1.322c-2.819,0.749-5.592,1.437-8.257,2.053
							c-2.347-0.682-4.407-1.302-6.276-1.891c-0.025-0.008-0.052-0.014-0.079-0.02c-0.97-0.295-1.927-0.592-2.862-0.887
							c1.673-0.332,3.347-0.674,5.01-1.031c2.632-0.564,5.377-1.198,8.375-1.936c2.029,0.576,4.059,1.145,6.107,1.693
							C177.201,162.388,177.225,162.394,177.25,162.397z M183.847,155.079c-1.486,0.457-3.037,0.92-4.693,1.395
							c-2.6,0.739-5.31,1.46-8.052,2.146c-2.108-0.595-4.193-1.203-6.198-1.812c-0.951-0.285-1.892-0.573-2.83-0.863
							c1.658-0.354,3.282-0.715,4.846-1.082c0.021-0.003,0.042-0.008,0.063-0.012c2.704-0.628,5.461-1.316,8.198-2.041
							c1.98,0.547,3.975,1.086,5.97,1.605C182.052,154.644,182.947,154.854,183.847,155.079z M187.623,147.044
							c-1.425,0.469-2.93,0.947-4.559,1.445c-2.631,0.807-5.276,1.561-7.872,2.248c-2.025-0.557-4.034-1.138-6.045-1.731
							c-0.933-0.272-1.854-0.56-2.783-0.839c1.55-0.357,3.137-0.734,4.796-1.142c2.939-0.737,5.564-1.44,8.017-2.144
							c1.946,0.525,3.901,1.035,5.855,1.523C185.929,146.631,186.786,146.841,187.623,147.044z M188.825,138.37
							c0.828,0.201,1.65,0.383,2.475,0.576c-1.457,0.516-2.938,1.025-4.452,1.52c-2.487,0.809-5.072,1.595-7.687,2.34
							c-1.974-0.535-3.948-1.078-5.912-1.652c-0.911-0.258-1.808-0.532-2.714-0.799c1.618-0.398,3.183-0.801,4.707-1.212
							c2.568-0.678,5.197-1.43,7.815-2.229c1.904,0.496,3.801,0.985,5.706,1.445C188.783,138.362,188.803,138.366,188.825,138.37z
							 M194.821,130.822c-1.377,0.521-2.802,1.04-4.314,1.569c-2.462,0.863-4.979,1.682-7.489,2.442
							c-1.922-0.506-3.844-1.028-5.762-1.571c-0.898-0.25-1.787-0.516-2.682-0.773c1.603-0.424,3.125-0.844,4.572-1.266
							c0.021-0.004,0.042-0.009,0.062-0.015c2.485-0.697,5.05-1.478,7.624-2.315c1.853,0.467,3.713,0.926,5.564,1.365
							C193.184,130.447,193.992,130.634,194.821,130.822z M194.006,124.278c-2.373,0.888-4.809,1.737-7.243,2.533
							c-1.89-0.486-3.772-0.988-5.653-1.5c-0.862-0.234-1.715-0.488-2.573-0.73c1.581-0.445,3.089-0.886,4.533-1.329
							c2.691-0.824,5.125-1.62,7.429-2.426c1.789,0.444,3.587,0.876,5.374,1.284c0.787,0.182,1.572,0.344,2.36,0.52
							C196.833,123.196,195.422,123.751,194.006,124.278z"/>
						<path fill="#F9F0ED" stroke="#000000" stroke-linecap="round" stroke-linejoin="round" stroke-miterlimit="10" d="
							M210.836,112.001c-2.061,1.768-5.658,5.314-10.957,5.902c-5.299,0.59-7.654-0.883-12.418-2.943s-19.963-4.416-28.5-6.182
							c-8.537-1.768-21.784-2.355-27.377,0c-5.593,2.354-19.723,14.719-19.723,14.719c0.589,5.888-2.355,27.672-2.649,33.854
							s1.766,9.715,0.883,13.344s-3.19,19.037-3.19,19.037s7.606,2.355,11.433,2.355s11.187,0,15.308,0s24.434-3.238,31.204-5.004
							c6.771-1.767,16.485-9.421,20.901-13.836c4.416-4.416,20.863-43.873,20.863-43.873c3.199-3.543,2.098-7.644,2.098-7.644
							C211.065,118.198,210.836,112.001,210.836,112.001z M207.045,120.621l-0.502,0.753l0.234,0.875
							c0.027,0.109,0.742,3.135-1.65,5.785l-0.23,0.254l-0.133,0.316c-6.299,15.114-17.417,40.215-20.429,43.229
							c-4.42,4.419-13.831,11.707-19.992,13.314c-7.048,1.838-26.955,4.939-30.699,4.939h-15.308c-2.305,0-6.542-1.043-9.193-1.783
							c0.627-4.111,2.215-14.346,2.894-17.137c0.551-2.266,0.176-4.414-0.221-6.689c-0.347-1.986-0.74-4.239-0.607-7.032
							c0.101-2.116,0.525-6.151,1.016-10.825c0.876-8.335,1.859-17.695,1.694-22.262c4.373-3.775,14.351-12.016,18.441-13.737
							c2.139-0.9,5.955-1.396,10.744-1.396c5.101,0,10.877,0.565,15.452,1.512c2.435,0.504,5.38,1.05,8.498,1.628
							c7.309,1.355,16.405,3.043,19.614,4.432c0.591,0.256,1.145,0.502,1.671,0.736c3.14,1.398,5.619,2.502,9.322,2.502
							c0.775,0,1.572-0.047,2.439-0.143c3.461-0.385,6.244-1.855,8.391-3.383C208.225,117.997,207.778,119.522,207.045,120.621z"/>
						<g>
							<path fill="none" stroke="#000000" stroke-linecap="round" stroke-linejoin="round" stroke-miterlimit="10" d="
								M133.274,143.192c0,0,23.667,2.667,47-10.666"/>
							<path fill="none" stroke="#000000" stroke-linecap="round" stroke-linejoin="round" stroke-miterlimit="10" d="
								M117.607,165.526c0,0,18.333,2.666,40-4.334"/>
						</g>
						<g>
							
								<rect x="195.425" y="145.872" transform="matrix(0.7328 0.6804 -0.6804 0.7328 152.9236 -95.6917)" fill="#959595" stroke="#000000" stroke-linecap="round" stroke-linejoin="round" stroke-miterlimit="10" width="5.762" height="2"/>
							
								<rect x="189.719" y="159.07" transform="matrix(0.7643 0.6449 -0.6449 0.7643 148.6925 -86.6516)" fill="#959595" stroke="#000000" stroke-linecap="round" stroke-linejoin="round" stroke-miterlimit="10" width="6.315" height="1.999"/>
							
								<rect x="182.82" y="171.996" transform="matrix(0.7636 0.6457 -0.6457 0.7636 155.7017 -79.2316)" fill="#959595" stroke="#000000" stroke-linecap="round" stroke-linejoin="round" stroke-miterlimit="10" width="6.445" height="2"/>
							
								<rect x="171.459" y="181.694" transform="matrix(0.4893 0.8721 -0.8721 0.4893 248.7068 -59.3208)" fill="#959595" stroke="#000000" stroke-linecap="round" stroke-linejoin="round" stroke-miterlimit="10" width="7.09" height="2"/>
							
								<rect x="157.744" y="187.727" transform="matrix(0.2113 0.9774 -0.9774 0.2113 311.1302 -8.1245)" fill="#959595" stroke="#000000" stroke-linecap="round" stroke-linejoin="round" stroke-miterlimit="10" width="5.71" height="2"/>
							
								<rect x="141.813" y="190.216" transform="matrix(0.0713 0.9975 -0.9975 0.0713 325.3854 32.9687)" fill="#959595" stroke="#000000" stroke-linecap="round" stroke-linejoin="round" stroke-miterlimit="10" width="6.351" height="2"/>
							
								<rect x="128.321" y="191.498" transform="matrix(0.027 0.9996 -0.9996 0.027 319.996 56.2309)" fill="#959595" stroke="#000000" stroke-linecap="round" stroke-linejoin="round" stroke-miterlimit="10" width="5.582" height="2"/>
							
								<rect x="118.8" y="189.548" transform="matrix(0.9969 0.0786 -0.0786 0.9969 15.4951 -8.821)" fill="#959595" stroke="#000000" stroke-linecap="round" stroke-linejoin="round" stroke-miterlimit="10" width="2" height="5.749"/>
							
								<rect x="106.658" y="186.468" transform="matrix(0.5255 0.8508 -0.8508 0.5255 212.2908 -1.6874)" fill="#959595" stroke="#000000" stroke-linecap="round" stroke-linejoin="round" stroke-miterlimit="10" width="2" height="6.027"/>
							
								<rect x="105.839" y="176.717" transform="matrix(0.997 0.0768 -0.0768 0.997 13.9707 -7.8305)" fill="#959595" stroke="#000000" stroke-linecap="round" stroke-linejoin="round" stroke-miterlimit="10" width="5.9" height="2"/>
							
								<rect x="108.92" y="162.023" transform="matrix(0.0678 0.9977 -0.9977 0.0678 267.431 44.4633)" fill="#959595" stroke="#000000" stroke-linecap="round" stroke-linejoin="round" stroke-miterlimit="10" width="2.001" height="6.652"/>
							
								<rect x="107.506" y="148.663" transform="matrix(0.9996 0.0293 -0.0293 0.9996 4.4343 -3.1621)" fill="#959595" stroke="#000000" stroke-linecap="round" stroke-linejoin="round" stroke-miterlimit="10" width="5.131" height="2"/>
							
								<rect x="108.258" y="136.522" transform="matrix(0.9987 0.0514 -0.0514 0.9987 7.2152 -5.5337)" fill="#959595" stroke="#000000" stroke-linecap="round" stroke-linejoin="round" stroke-miterlimit="10" width="5.89" height="1.999"/>
							
								<rect x="110.08" y="122.946" transform="matrix(0.8403 0.5421 -0.5421 0.8403 85.2182 -41.3907)" fill="#959595" stroke="#000000" stroke-linecap="round" stroke-linejoin="round" stroke-miterlimit="10" width="5.564" height="2"/>
							
								<rect x="119.901" y="113.427" transform="matrix(0.4361 0.8999 -0.8999 0.4361 172.3631 -46.2237)" fill="#959595" stroke="#000000" stroke-linecap="round" stroke-linejoin="round" stroke-miterlimit="10" width="6.331" height="2"/>
							
								<rect x="130.293" y="106.807" transform="matrix(0.192 0.9814 -0.9814 0.192 213.9301 -44.231)" fill="#959595" stroke="#000000" stroke-linecap="round" stroke-linejoin="round" stroke-miterlimit="10" width="7.069" height="2"/>
							
								<rect x="150.625" y="103.841" transform="matrix(0.9857 0.1684 -0.1684 0.9857 20.1852 -24.0106)" fill="#959595" stroke="#000000" stroke-linecap="round" stroke-linejoin="round" stroke-miterlimit="10" width="2" height="6.273"/>
							
								<rect x="164.199" y="105.775" transform="matrix(0.9778 0.2094 -0.2094 0.9778 26.4942 -32.1801)" fill="#959595" stroke="#000000" stroke-linecap="round" stroke-linejoin="round" stroke-miterlimit="10" width="2" height="6.478"/>
							
								<rect x="178.001" y="108.892" transform="matrix(0.9649 0.2627 -0.2627 0.9649 35.7973 -43.0787)" fill="#959595" stroke="#000000" stroke-linecap="round" stroke-linejoin="round" stroke-miterlimit="10" width="2" height="6.879"/>
							
								<rect x="191.575" y="113.054" transform="matrix(0.9412 0.3378 -0.3378 0.9412 50.569 -58.2259)" fill="#959595" stroke="#000000" stroke-linecap="round" stroke-linejoin="round" stroke-miterlimit="10" width="2" height="6.25"/>
							
								<rect x="203.792" y="113.991" fill="#959595" stroke="#000000" stroke-linecap="round" stroke-linejoin="round" stroke-miterlimit="10" width="2" height="4.676"/>
						</g>
					</g>
				</g>
			</g>
		</g>
	</g>
	<path fill="none" stroke="#000000" stroke-linecap="round" stroke-linejoin="round" stroke-miterlimit="10" d="M299.581,150.04
		c0,82.59-66.949,149.541-149.54,149.541C67.461,299.581,0.5,232.63,0.5,150.04S67.461,0.5,150.041,0.5
		C232.631,0.5,299.581,67.45,299.581,150.04z"/>
</g>
</svg>
