<?xml version="1.0" encoding="utf-8"?>
<!-- Generator: Adobe Illustrator 24.1.2, SVG Export Plug-In . SVG Version: 6.00 Build 0)  -->
<svg version="1.1" id="Camada_1" xmlns="http://www.w3.org/2000/svg" xmlns:xlink="http://www.w3.org/1999/xlink" x="0px" y="0px"
	 width="157.717px" height="324.693px" viewBox="0 0 157.717 324.693" enable-background="new 0 0 157.717 324.693"
	 xml:space="preserve">
<g>
	<g>
		<path opacity="0.6" fill="#CEEEFB" d="M94.813,187.658c0,4.369-6.769,7.904-15.129,7.904s-15.129-3.535-15.129-7.904H94.813z"/>
		<path fill="none" stroke="#000000" stroke-miterlimit="10" d="M94.813,187.658c0,4.369-6.769,7.904-15.129,7.904
			s-15.129-3.535-15.129-7.904"/>
		<path opacity="0.6" fill="#CEEEFB" d="M70.037,206.811c0,2.791,4.317,5.047,9.652,5.047c5.334,0,9.651-2.256,9.651-5.047
			c0-2.791-4.317-5.048-9.651-5.048C74.354,201.764,70.037,204.02,70.037,206.811z"/>
		<path opacity="0.6" fill="#CEEEFB" d="M64.555,206.817c0,4.369,6.769,7.904,15.129,7.904s15.129-3.535,15.129-7.904H64.555z"/>
		<path fill="none" stroke="#000000" stroke-miterlimit="10" d="M64.555,206.817c0,4.369,6.769,7.904,15.129,7.904
			s15.129-3.535,15.129-7.904"/>
		<path opacity="0.6" fill="#CEEEFB" d="M94.813,229.857c0,4.369-6.769,7.904-15.129,7.904s-15.129-3.535-15.129-7.904H94.813z"/>
		<path fill="none" stroke="#000000" stroke-miterlimit="10" d="M94.813,229.857c0,4.369-6.769,7.904-15.129,7.904
			s-15.129-3.535-15.129-7.904"/>
		<path fill="none" stroke="#000000" stroke-miterlimit="10" d="M70.037,206.811c0,2.791,4.317,5.047,9.652,5.047
			c5.334,0,9.651-2.256,9.651-5.047c0-2.791-4.317-5.048-9.651-5.048C74.354,201.764,70.037,204.02,70.037,206.811z"/>
		<g>
			<line fill="none" x1="71.411" y1="92.244" x2="86.042" y2="110.904"/>
			<line fill="none" stroke="#000000" stroke-miterlimit="10" x1="85.891" y1="81.682" x2="85.617" y2="81.343"/>
			<line fill="none" stroke="#000000" stroke-miterlimit="10" x1="72.496" y1="122.636" x2="72.314" y2="122.401"/>
			<line fill="none" stroke="#000000" stroke-miterlimit="10" x1="56.845" y1="102.681" x2="57.706" y2="103.776"/>
			<g>
				<path fill="#CCCCCC" d="M66.168,31.247L66.168,31.247l0-12.996h0c-2.91,0-5.269,2.359-5.269,5.269v2.458
					C60.899,28.888,63.258,31.247,66.168,31.247z"/>
				<path fill="none" stroke="#000000" stroke-linecap="round" stroke-linejoin="round" stroke-miterlimit="10" d="M66.168,31.247
					L66.168,31.247l0-12.996h0c-2.91,0-5.269,2.359-5.269,5.269v2.458C60.899,28.888,63.258,31.247,66.168,31.247z"/>
				<path fill="#CCCCCC" d="M96.694,27.863c0,5.308-7.617,9.612-17.007,9.612c-9.404,0-17.02-4.304-17.02-9.612
					c0-4.004,4.33-7.434,10.486-8.869c2.009-0.482,4.226-0.743,6.534-0.743s4.513,0.261,6.534,0.743
					C92.364,20.429,96.694,23.859,96.694,27.863z"/>
				<path fill="none" stroke="#000000" stroke-linecap="round" stroke-linejoin="round" stroke-miterlimit="10" d="M96.694,27.863
					c0,5.308-7.617,9.612-17.007,9.612c-9.404,0-17.02-4.304-17.02-9.612c0-4.004,4.33-7.434,10.486-8.869
					c2.009-0.482,4.226-0.743,6.534-0.743s4.513,0.261,6.534,0.743C92.364,20.429,96.694,23.859,96.694,27.863z"/>
				<path fill="#E5E5E5" d="M96.694,10.112v17.751c0-4.004-4.33-7.434-10.473-8.869c-2.022-0.482-4.226-0.743-6.534-0.743
					s-4.526,0.261-6.534,0.743c-6.156,1.435-10.486,4.865-10.486,8.869V10.112c0-5.308,7.617-9.612,17.02-9.612
					C89.077,0.5,96.694,4.804,96.694,10.112z"/>
				<path fill="none" stroke="#000000" stroke-linecap="round" stroke-linejoin="round" stroke-miterlimit="10" d="M96.694,10.112
					v17.751c0-4.004-4.33-7.434-10.473-8.869c-2.022-0.482-4.226-0.743-6.534-0.743s-4.526,0.261-6.534,0.743
					c-6.156,1.435-10.486,4.865-10.486,8.869V10.112c0-5.308,7.617-9.612,17.02-9.612C89.077,0.5,96.694,4.804,96.694,10.112z"/>
				<path fill="#E5E5E5" d="M95.713,22.405L95.713,22.405V9.409l0,0c2.91,0,5.269,2.359,5.269,5.269v2.458
					C100.982,20.046,98.623,22.405,95.713,22.405z"/>
				<path fill="none" stroke="#000000" stroke-linecap="round" stroke-linejoin="round" stroke-miterlimit="10" d="M95.713,22.405
					L95.713,22.405V9.409l0,0c2.91,0,5.269,2.359,5.269,5.269v2.458C100.982,20.046,98.623,22.405,95.713,22.405z"/>
				<path fill="none" stroke="#000000" stroke-linecap="round" stroke-linejoin="round" stroke-miterlimit="10" d="M67.201,19.202
					L67.201,19.202l0-12.996h0c-2.91,0-5.269,2.359-5.269,5.269v2.458C61.932,16.843,64.291,19.202,67.201,19.202z"/>
				
					<rect x="80.837" y="3.795" fill="none" stroke="#000000" stroke-linecap="round" stroke-linejoin="round" stroke-miterlimit="10" width="4.196" height="12.112"/>
			</g>
			<path opacity="0.6" fill="#CEEEFB" d="M89.334,74.845V27.856c0-1.774-1.5-3.352-3.834-4.33c-0.639-0.287-1.356-0.509-2.113-0.691
				c-1.148-0.274-2.4-0.431-3.704-0.431c-1.304,0-2.569,0.157-3.704,0.431c-0.77,0.182-1.474,0.404-2.126,0.691
				c-2.322,0.978-3.821,2.556-3.821,4.33v45.194C76.471,73.575,82.896,74.297,89.334,74.845z"/>
			<path fill="none" stroke="#000000" stroke-linecap="round" stroke-linejoin="round" stroke-miterlimit="10" d="M89.334,74.845
				V27.856c0-1.774-1.5-3.352-3.834-4.33c-0.639-0.287-1.356-0.509-2.113-0.691c-1.148-0.274-2.4-0.431-3.704-0.431
				c-1.304,0-2.569,0.157-3.704,0.431c-0.77,0.182-1.474,0.404-2.126,0.691c-2.322,0.978-3.821,2.556-3.821,4.33v45.194
				C76.471,73.575,82.896,74.297,89.334,74.845z"/>
			<path fill="none" stroke="#000000" stroke-linecap="round" stroke-linejoin="round" stroke-miterlimit="10" d="M89.334,88.008
				v26.32c0-2.791-4.317-5.048-9.652-5.048c-5.334,0-9.651,2.256-9.651,5.048v-28.12C76.474,86.743,82.891,87.46,89.334,88.008z"/>
			<g>
				<g>
					<path opacity="0.6" fill="#CEEEFB" d="M86.005,88.983c0,0.352-0.013,0.692-0.039,1.043
						c-0.535,9.417-8.334,16.877-17.881,16.877c-1.109,0-2.191-0.104-3.248-0.301c-4.174-0.756-7.839-2.973-10.46-6.091
						l-0.861-1.095c-2.113-2.935-3.352-6.534-3.352-10.434c0-9.899,8.021-17.921,17.92-17.921c5.947,0,11.216,2.896,14.477,7.356
						C84.727,81.379,86.005,85.032,86.005,88.983z"/>
					<path opacity="0.6" fill="#CEEEFB" d="M100.639,107.647c0,9.886-8.034,17.907-17.92,17.907c-5.517,0-10.46-2.491-13.734-6.417
						l-0.744-0.939l-13.864-17.686c2.622,3.117,6.286,5.335,10.46,6.091c1.056,0.196,2.139,0.301,3.248,0.301
						c9.547,0,17.346-7.461,17.881-16.877c0.026-0.352,0.039-0.691,0.039-1.043c0-3.952-1.278-7.604-3.443-10.564l13.956,17.79
						l0.495,0.626C99.296,99.848,100.639,103.577,100.639,107.647z"/>
					<path fill="none" stroke="#000000" stroke-miterlimit="10" d="M86.005,88.983c0,0.352-0.013,0.692-0.039,1.043
						c-0.535,9.417-8.334,16.877-17.881,16.877c-1.109,0-2.191-0.104-3.248-0.301c-4.174-0.756-7.839-2.973-10.46-6.091
						l-0.861-1.095c-2.113-2.935-3.352-6.534-3.352-10.434c0-9.899,8.021-17.921,17.92-17.921c5.947,0,11.216,2.896,14.477,7.356
						C84.727,81.379,86.005,85.032,86.005,88.983z"/>
					<path fill="none" stroke="#000000" stroke-miterlimit="10" d="M100.639,107.647c0,9.886-8.034,17.907-17.92,17.907
						c-5.517,0-10.46-2.491-13.734-6.417l-0.744-0.939l-13.864-17.686c2.622,3.117,6.286,5.335,10.46,6.091
						c1.056,0.196,2.139,0.301,3.248,0.301c9.547,0,17.346-7.461,17.881-16.877c0.026-0.352,0.039-0.691,0.039-1.043
						c0-3.952-1.278-7.604-3.443-10.564l13.956,17.79l0.495,0.626C99.296,99.848,100.639,103.577,100.639,107.647z"/>
				</g>
				<g>
					<path opacity="0.6" fill="#CEEEFB" d="M126.293,101.282l-31.876,5.986c-2.543,0.365-5.517-5.739-6.626-13.629
						c-1.121-7.891,0.026-14.582,2.569-14.947l31.876-5.986c-2.543,0.365-3.691,7.056-2.569,14.947
						C120.789,95.544,123.75,101.647,126.293,101.282z"/>
					<path fill="none" stroke="#000000" stroke-miterlimit="10" d="M126.293,101.282l-31.876,5.986
						c-2.543,0.365-5.517-5.739-6.626-13.629c-1.121-7.891,0.026-14.582,2.569-14.947l31.876-5.986
						c-2.543,0.365-3.691,7.056-2.569,14.947C120.789,95.544,123.75,101.647,126.293,101.282z"/>
					<g>
						<path fill="#2296C4" d="M153.924,98.901c-2.791,0.392-6.052-6.312-7.29-14.985c-1.226-8.673,0.039-16.029,2.83-16.434
							c2.791-0.391,6.052,6.326,7.278,14.999C157.98,91.154,156.715,98.51,153.924,98.901z"/>
						<path fill="none" stroke="#000000" stroke-miterlimit="10" d="M153.924,98.901c-2.791,0.392-6.052-6.312-7.29-14.985
							c-1.226-8.673,0.039-16.029,2.83-16.434c2.791-0.391,6.052,6.326,7.278,14.999C157.98,91.154,156.715,98.51,153.924,98.901z"
							/>
						<path fill="#176787" d="M152.413,88.272c-0.903,0.127-1.957-2.042-2.358-4.847c-0.397-2.805,0.013-5.184,0.915-5.315
							c0.903-0.126,1.957,2.046,2.354,4.851C153.725,85.767,153.316,88.146,152.413,88.272z"/>
						<path fill="none" stroke="#000000" stroke-miterlimit="10" d="M152.413,88.272c-0.903,0.127-1.957-2.042-2.358-4.847
							c-0.397-2.805,0.013-5.184,0.915-5.315c0.903-0.126,1.957,2.046,2.354,4.851C153.725,85.767,153.316,88.146,152.413,88.272z"
							/>
						<path fill="#26A8DC" d="M153.924,98.901l-28.302,4.878c-2.791,0.404-6.052-6.312-7.29-14.986
							c-1.226-8.673,0.039-16.029,2.83-16.42l28.302-4.891c-2.791,0.404-4.056,7.76-2.83,16.434
							C147.872,92.588,151.133,99.292,153.924,98.901z"/>
						<path fill="#99242A" d="M149.47,67.476c-0.117,0.013-0.235,0.052-0.352,0.092c0-0.013,0-0.013,0-0.026L149.47,67.476z"/>
						<path fill="#2296C4" d="M153.917,98.895l-28.289,4.878c-2.791,0.404-6.052-6.312-7.29-14.985
							c-1.174-8.295-0.078-15.39,2.478-16.316c-0.535,2.974-0.561,7.03,0.065,11.412c1.239,8.674,4.5,15.39,7.291,14.986
							l21.703-3.743C151.139,97.643,152.587,99.078,153.917,98.895z"/>
						<path fill="none" stroke="#000000" stroke-miterlimit="10" d="M153.924,98.901l-28.302,4.878
							c-2.791,0.404-6.052-6.312-7.29-14.986c-1.226-8.673,0.039-16.029,2.83-16.42l28.302-4.891
							c-2.791,0.404-4.056,7.76-2.83,16.434C147.872,92.588,151.133,99.292,153.924,98.901z"/>
						<g>
							<path fill="#26A8DC" d="M142.811,104.242l-9.067,1.685c-3.256,0.605-6.386-1.544-6.991-4.8l-0.296-1.594l20.857-3.876
								l0.296,1.594C148.216,100.507,146.067,103.637,142.811,104.242z"/>
							<path fill="#26A8DC" d="M136.442,64.348l-9.082,1.599c-3.261,0.574-5.44,3.683-4.866,6.945l0.281,1.597l20.893-3.678
								l-0.281-1.597C142.813,65.953,139.703,63.774,136.442,64.348z"/>
							<path fill="#26A8DC" d="M142.903,84.018c-0.045,1.356-1.05,2.51-2.44,2.724l-15.32,2.318
								c-1.561,0.234-3.012-0.832-3.247-2.393c-0.248-1.561,0.832-3.013,2.393-3.261l15.32-2.318c0.17-0.02,0.354-0.04,0.523-0.035
								c1.356,0.045,2.523,1.05,2.737,2.441C142.889,83.666,142.909,83.849,142.903,84.018z"/>
							<path fill="none" stroke="#000000" stroke-linecap="round" stroke-linejoin="round" stroke-miterlimit="10" d="
								M142.811,104.242l-9.067,1.685c-3.256,0.605-6.386-1.544-6.991-4.8l-0.296-1.594l20.857-3.876l0.296,1.594
								C148.216,100.507,146.067,103.637,142.811,104.242z"/>
							<path fill="none" stroke="#000000" stroke-linecap="round" stroke-linejoin="round" stroke-miterlimit="10" d="
								M143.668,70.811l-0.281-1.597c-0.574-3.261-3.683-5.44-6.945-4.866l-9.082,1.599c-3.261,0.574-5.44,3.683-4.866,6.945
								l0.281,1.597L143.668,70.811"/>
							<path fill="none" stroke="#000000" stroke-linecap="round" stroke-linejoin="round" stroke-miterlimit="10" d="
								M142.903,84.018c-0.045,1.356-1.05,2.51-2.44,2.724l-15.32,2.318c-1.561,0.234-3.012-0.832-3.247-2.393
								c-0.248-1.561,0.832-3.013,2.393-3.261l15.32-2.318c0.17-0.02,0.354-0.04,0.523-0.035c1.356,0.045,2.523,1.05,2.737,2.441
								C142.889,83.666,142.909,83.849,142.903,84.018z"/>
						</g>
					</g>
				</g>
				<g>
					<g>
						<path fill="#FFFFFF" d="M114.138,70.176l-33.91,7.043l-3.117,0.652c-1.33,7.552-7.93,13.29-15.873,13.29
							c-3.847,0-7.356-1.33-10.121-3.587c-1.317-1.043-2.452-2.309-3.378-3.717c-0.639-0.978-1.174-2.022-1.591-3.131
							c-0.665-1.76-1.03-3.678-1.03-5.673c0-8.908,7.212-16.121,16.121-16.121c6.182,0,11.555,3.482,14.255,8.595l36.519-7.577
							c2.83-0.574,5.582,1.226,6.169,4.056C118.768,66.824,116.955,69.589,114.138,70.176z"/>
					</g>
					<circle id="changecolor_61_" fill="#26A8DC" cx="61.238" cy="75.048" r="5.676"/>
					<circle fill="none" stroke="#000000" stroke-miterlimit="10" cx="61.238" cy="75.048" r="5.676"/>
					<g>
						<path fill="none" stroke="#000000" stroke-linecap="round" stroke-linejoin="round" stroke-miterlimit="10" d="
							M114.138,70.176l-33.91,7.043l-3.117,0.652c-1.33,7.552-7.93,13.29-15.873,13.29c-3.847,0-7.356-1.33-10.121-3.587
							c-1.317-1.043-2.452-2.309-3.378-3.717c-0.639-0.978-1.174-2.022-1.591-3.131c-0.665-1.76-1.03-3.678-1.03-5.673
							c0-8.908,7.212-16.121,16.121-16.121c6.182,0,11.555,3.482,14.255,8.595l36.519-7.577c2.83-0.574,5.582,1.226,6.169,4.056
							C118.768,66.824,116.955,69.589,114.138,70.176z"/>
					</g>
					<path fill="#DEDEDE" d="M120.111,81.849l-37.027,7.695c-1.33,7.552-7.943,13.303-15.873,13.303
						c-5.686,0-10.682-2.947-13.551-7.395l-1.487-2.908l-0.013-0.026l-4.421-8.66c0.926,1.408,2.061,2.673,3.378,3.717
						c2.765,2.256,6.273,3.587,10.121,3.587c7.943,0,14.542-5.739,15.873-13.29l3.117-0.652l33.91-7.043
						c2.817-0.587,4.63-3.352,4.043-6.169l4.708,9.208l1.265,2.465C124.741,78.497,122.929,81.262,120.111,81.849z"/>
					<path fill="none" stroke="#000000" stroke-linecap="round" stroke-linejoin="round" stroke-miterlimit="10" d="M120.111,81.849
						l-37.027,7.695c-1.33,7.552-7.943,13.303-15.873,13.303c-5.686,0-10.682-2.947-13.551-7.395l-1.487-2.908l-0.013-0.026
						l-4.421-8.66c0.926,1.408,2.061,2.673,3.378,3.717c2.765,2.256,6.273,3.587,10.121,3.587c7.943,0,14.542-5.739,15.873-13.29
						l3.117-0.652l33.91-7.043c2.817-0.587,4.63-3.352,4.043-6.169l4.708,9.208l1.265,2.465
						C124.741,78.497,122.929,81.262,120.111,81.849z"/>
				</g>
			</g>
			<path opacity="0.6" fill="#CEEEFB" d="M89.334,114.328c0,2.791-4.317,5.047-9.652,5.047c-5.334,0-9.651-2.256-9.651-5.047
				c0-2.791,4.317-5.048,9.651-5.048C85.017,109.28,89.334,111.537,89.334,114.328z"/>
			<ellipse fill="none" stroke="#000000" stroke-miterlimit="10" cx="79.683" cy="114.328" rx="9.651" ry="5.045"/>
			<g>
				<path fill="#FFFFFF" d="M89.336,180.414v20.372l-19.303,6.195l-7.852,2.517c-1.904,0.613-3.456-0.613-3.469-2.739l-0.065-12.638
					c-0.013-2.126,1.526-4.343,3.43-4.956l7.956-2.556L89.336,180.414z"/>
				<path fill="none" stroke="#000000" stroke-miterlimit="10" d="M89.336,180.414v20.372l-19.303,6.195l-7.852,2.517
					c-1.904,0.613-3.456-0.613-3.469-2.739l-0.065-12.638c-0.013-2.126,1.526-4.343,3.43-4.956l7.956-2.556L89.336,180.414z"/>
			</g>
			<path opacity="0.6" fill="#CEEEFB" d="M89.336,114.328v179.346H70.033V114.328c0-2.791,4.317-5.048,9.651-5.048
				c2.23,0,4.278,0.391,5.908,1.057C87.875,111.263,89.336,112.697,89.336,114.328z"/>
			<path fill="none" stroke="#000000" stroke-linecap="round" stroke-linejoin="round" stroke-miterlimit="10" d="M89.336,114.328
				v179.346H70.033V114.328c0-2.791,4.317-5.048,9.651-5.048c2.23,0,4.278,0.391,5.908,1.057
				C87.875,111.263,89.336,112.697,89.336,114.328z"/>
			<g>
				<path fill="#0F529F" d="M96.442,287.192v28.954c0-4.448-7.499-8.06-16.76-8.06c-9.26,0-16.759,3.612-16.759,8.06v-28.954
					c0-4.448,7.499-8.048,16.759-8.048C88.943,279.144,96.442,282.744,96.442,287.192z"/>
				<path fill="none" stroke="#000000" stroke-miterlimit="10" d="M96.442,287.192v28.954c0-4.448-7.499-8.06-16.76-8.06
					c-9.26,0-16.759,3.612-16.759,8.06v-28.954c0-4.448,7.499-8.048,16.759-8.048C88.943,279.144,96.442,282.744,96.442,287.192z"/>
				<path fill="#0B3A70" d="M96.442,316.146c0,4.448-7.499,8.047-16.76,8.047c-9.26,0-16.759-3.599-16.759-8.047
					s7.499-8.06,16.759-8.06C88.943,308.086,96.442,311.698,96.442,316.146z"/>
				<path fill="#07264A" d="M87.142,316.145c0,0.95-0.78,1.82-2.04,2.46c-1.36,0.69-3.28,1.12-5.42,1.12
					c-2.22,0-4.22-0.46-5.58-1.21c-1.17-0.62-1.88-1.46-1.88-2.37c0-0.92,0.72-1.75,1.89-2.38c1.36-0.74,3.35-1.21,5.57-1.21
					c2.14,0,4.07,0.43,5.43,1.13C86.362,314.325,87.142,315.195,87.142,316.145z"/>
				<path fill="none" stroke="#000000" stroke-miterlimit="10" d="M96.442,316.146c0,4.448-7.499,8.047-16.76,8.047
					c-9.26,0-16.759-3.599-16.759-8.047s7.499-8.06,16.759-8.06C88.943,308.086,96.442,311.698,96.442,316.146z"/>
				<path fill="none" stroke="#000000" stroke-miterlimit="10" d="M87.146,316.142c0,1.981-3.339,3.583-7.463,3.583
					c-4.123,0-7.463-1.603-7.463-3.583s3.339-3.589,7.463-3.589C83.806,312.553,87.146,314.162,87.146,316.142z"/>
				<g>
					<path fill="#0F529F" d="M65.938,307.316h-2.637c-2.396,0-4.338-1.942-4.338-4.338v-10.667c0-2.396,1.942-4.338,4.338-4.338
						h2.637V307.316z"/>
					<path fill="none" stroke="#000000" stroke-linecap="round" stroke-linejoin="round" stroke-miterlimit="10" d="M65.938,307.316
						h-2.637c-2.396,0-4.338-1.942-4.338-4.338v-10.667c0-2.396,1.942-4.338,4.338-4.338h2.637V307.316z"/>
				</g>
				<g>
					<path fill="#0F529F" d="M92.955,287.974h2.637c2.396,0,4.338,1.942,4.338,4.338v10.667c0,2.396-1.942,4.338-4.338,4.338h-2.637
						V287.974z"/>
					<path fill="none" stroke="#000000" stroke-linecap="round" stroke-linejoin="round" stroke-miterlimit="10" d="M92.955,287.974
						h2.637c2.396,0,4.338,1.942,4.338,4.338v10.667c0,2.396-1.942,4.338-4.338,4.338h-2.637V287.974z"/>
				</g>
				<path fill="none" stroke="#000000" stroke-linecap="round" stroke-linejoin="round" stroke-miterlimit="10" d="M80.106,304.479
					h-0.846c-1.899,0-3.439-1.54-3.439-3.439v-13.536c0-1.899,1.54-3.439,3.439-3.439h0.846c1.899,0,3.439,1.54,3.439,3.439v13.536
					C83.545,302.94,82.005,304.479,80.106,304.479z"/>
			</g>
		</g>
		<g>
			<g>
				<path opacity="0.6" fill="#CEEEFB" d="M100.619,186.133L100.619,186.133c-1.644-0.349-2.977-1.987-2.977-3.658v-68.847
					c0-1.671,1.333-2.743,2.977-2.394h0c1.644,0.349,2.977,1.987,2.977,3.658v68.847
					C103.597,185.41,102.264,186.482,100.619,186.133z"/>
				<path opacity="0.6" fill="#CEEEFB" d="M103.596,116.929v65.695c0,2.347,1.758,4.69,4.055,5.413l16.003,5.028
					c2.657,0.838,4.954-0.787,4.954-3.5v-65.695c0-2.347-1.745-4.687-4.056-5.413l-16.003-5.028
					C105.893,112.591,103.596,114.216,103.596,116.929z M112.207,126.7c0-2.517,2.259-3.942,4.697-2.942
					c0.924,0.378,1.72,1.043,2.284,1.868c0.577,0.826,0.911,1.784,0.911,2.75v50.983c0,2.517-2.259,3.929-4.697,2.929
					c-1.861-0.761-3.195-2.687-3.195-4.605V126.7z"/>
				<path fill="none" stroke="#000000" stroke-miterlimit="10" d="M100.619,186.133L100.619,186.133
					c-1.644-0.349-2.977-1.987-2.977-3.658v-68.847c0-1.671,1.333-2.743,2.977-2.394h0c1.644,0.349,2.977,1.987,2.977,3.658v68.847
					C103.597,185.41,102.264,186.482,100.619,186.133z"/>
				<path fill="none" stroke="#000000" stroke-miterlimit="10" d="M123.656,193.07l-16.005-5.031
					c-2.302-0.724-4.054-3.064-4.054-5.416v-65.697c0-2.709,2.302-4.337,4.954-3.503l16.005,5.031
					c2.302,0.724,4.054,3.064,4.054,5.416v65.697C128.61,192.276,126.308,193.904,123.656,193.07z"/>
				<path fill="none" stroke="#000000" stroke-miterlimit="10" d="M115.402,182.291L115.402,182.291
					c-1.855-0.758-3.196-2.694-3.196-4.614v-50.981c0-2.519,2.259-3.934,4.692-2.939l0,0c1.855,0.758,3.196,2.694,3.196,4.614
					v50.981C120.095,181.87,117.836,183.285,115.402,182.291z"/>
			</g>
			<path opacity="0.6" fill="#CEEEFB" d="M97.642,113.266v67.991c0,1.017-0.404,1.943-1.07,2.608l-0.6,0.508l-0.039,0.026
				c-0.783,0.509-1.748,0.73-2.752,0.535l-6.769-1.292l-51.4-9.859c-1.761-0.339-3.039-1.891-3.039-3.691v-67.99
				c0-1.018,0.404-1.931,1.043-2.596l0.704-0.587c0.769-0.482,1.721-0.691,2.713-0.508l58.156,11.164
				C96.364,109.914,97.642,111.466,97.642,113.266z"/>
			<path fill="none" stroke="#000000" stroke-linecap="round" stroke-linejoin="round" stroke-miterlimit="10" d="M97.642,113.266
				v67.991c0,1.017-0.404,1.943-1.07,2.608l-0.6,0.508l-0.039,0.026c-0.783,0.509-1.748,0.73-2.752,0.535l-6.769-1.292l-51.4-9.859
				c-1.761-0.339-3.039-1.891-3.039-3.691v-67.99c0-1.018,0.404-1.931,1.043-2.596l0.704-0.587c0.769-0.482,1.721-0.691,2.713-0.508
				l58.156,11.164C96.364,109.914,97.642,111.466,97.642,113.266z"/>
			<path opacity="0.6" fill="#CEEEFB" d="M107.163,175.193l-10.63,8.726l-0.561,0.456c-0.782,0.522-1.774,0.757-2.791,0.561
				l-58.156-11.164c-1.774-0.339-3.052-1.878-3.052-3.678v-67.991c0-1.043,0.417-1.969,1.096-2.647l0.013-0.026l0.561-0.457
				l0.013-0.013l10.591-8.66c-0.639,0.665-1.043,1.578-1.043,2.596v67.99c0,1.8,1.278,3.352,3.039,3.691l51.4,9.859l6.769,1.292
				C105.415,175.924,106.38,175.702,107.163,175.193z"/>
			<path fill="none" stroke="#000000" stroke-linecap="round" stroke-linejoin="round" stroke-miterlimit="10" d="M107.163,175.193
				l-10.63,8.726l-0.561,0.456c-0.782,0.522-1.774,0.757-2.791,0.561l-58.156-11.164c-1.774-0.339-3.052-1.878-3.052-3.678v-67.991
				c0-1.043,0.417-1.969,1.096-2.647l0.013-0.026l0.561-0.457l0.013-0.013l10.591-8.66c-0.639,0.665-1.043,1.578-1.043,2.596v67.99
				c0,1.8,1.278,3.352,3.039,3.691l51.4,9.859l6.769,1.292C105.415,175.924,106.38,175.702,107.163,175.193z"/>
			<path opacity="0.6" fill="#CEEEFB" d="M108.871,104.06v67.991c0,1.017-0.404,1.943-1.07,2.608l-0.6,0.508l-0.039,0.026
				c-0.783,0.509-1.748,0.73-2.752,0.535l-6.769-1.292l-51.4-9.859c-1.761-0.339-3.039-1.891-3.039-3.691v-67.99
				c0-1.018,0.404-1.931,1.043-2.596l0.704-0.587c0.769-0.482,1.721-0.691,2.713-0.508l58.156,11.164
				C107.593,100.708,108.871,102.26,108.871,104.06z"/>
			<path fill="none" stroke="#000000" stroke-linecap="round" stroke-linejoin="round" stroke-miterlimit="10" d="M108.871,104.06
				v67.991c0,1.017-0.404,1.943-1.07,2.608l-0.6,0.508l-0.039,0.026c-0.783,0.509-1.748,0.73-2.752,0.535l-6.769-1.292l-51.4-9.859
				c-1.761-0.339-3.039-1.891-3.039-3.691v-67.99c0-1.018,0.404-1.931,1.043-2.596l0.704-0.587c0.769-0.482,1.721-0.691,2.713-0.508
				l58.156,11.164C107.593,100.708,108.871,102.26,108.871,104.06z"/>
			<g>
				<path opacity="0.6" fill="#CEEEFB" d="M28.947,173.244L28.947,173.244c1.671,0,3.026-1.355,3.026-3.026v-68.847
					c0-1.671-1.355-3.026-3.026-3.026h0c-1.671,0-3.026,1.355-3.026,3.026v68.847C25.921,171.889,27.276,173.244,28.947,173.244z"/>
				<path opacity="0.6" fill="#CEEEFB" d="M20.887,98.857l-16.264,1.63c-2.348,0.235-4.122,2.204-4.122,4.551v65.695
					c0,2.713,2.335,4.826,5.035,4.552l16.264-1.63c2.335-0.235,4.121-2.205,4.121-4.552v-65.695
					C25.922,100.695,23.587,98.583,20.887,98.857z M17.17,162.334c0,1.918-1.356,3.561-3.248,3.926
					c-2.478,0.482-4.774-1.409-4.774-3.926v-50.983c0-0.965,0.339-1.853,0.926-2.556c0.574-0.704,1.382-1.2,2.322-1.383
					c2.478-0.483,4.773,1.421,4.773,3.939V162.334z"/>
				<path fill="none" stroke="#000000" stroke-miterlimit="10" d="M28.947,173.244L28.947,173.244c1.671,0,3.026-1.355,3.026-3.026
					v-68.847c0-1.671-1.355-3.026-3.026-3.026h0c-1.671,0-3.026,1.355-3.026,3.026v68.847
					C25.921,171.889,27.276,173.244,28.947,173.244z"/>
				<path fill="none" stroke="#000000" stroke-miterlimit="10" d="M5.535,175.29l16.266-1.633c2.339-0.235,4.12-2.204,4.12-4.555
					v-65.697c0-2.709-2.339-4.825-5.035-4.555L4.62,100.484c-2.339,0.235-4.12,2.204-4.12,4.555v65.697
					C0.5,173.445,2.839,175.561,5.535,175.29z"/>
				<path fill="none" stroke="#000000" stroke-miterlimit="10" d="M13.923,166.264L13.923,166.264
					c1.886-0.364,3.248-2.015,3.248-3.936v-50.981c0-2.519-2.296-4.413-4.769-3.936h0c-1.886,0.364-3.248,2.015-3.248,3.936v50.981
					C9.154,164.847,11.45,166.741,13.923,166.264z"/>
			</g>
		</g>
		<path opacity="0.6" fill="#CEEEFB" d="M89.332,229.851c0,2.791-4.317,5.047-9.652,5.047c-5.334,0-9.651-2.256-9.651-5.047
			c0-2.791,4.317-5.048,9.651-5.048C85.014,224.803,89.332,227.06,89.332,229.851z"/>
		<path opacity="0.6" fill="#CEEEFB" d="M64.555,229.857c0-4.382,6.769-7.917,15.129-7.917s15.129,3.534,15.129,7.917H64.555z"/>
		<path opacity="0.6" fill="#CEEEFB" d="M94.813,206.811v23.046c0-4.382-6.769-7.917-15.129-7.917s-15.129,3.534-15.129,7.917
			v-23.046H94.813z"/>
		<path fill="none" stroke="#000000" stroke-miterlimit="10" d="M89.332,229.851c0,2.791-4.317,5.047-9.652,5.047
			c-5.334,0-9.651-2.256-9.651-5.047c0-2.791,4.317-5.048,9.651-5.048C85.014,224.803,89.332,227.06,89.332,229.851z"/>
		<path opacity="0.6" fill="#CEEEFB" d="M70.037,177.57c0,2.791,4.317,5.047,9.652,5.047c5.334,0,9.651-2.256,9.651-5.047
			c0-2.791-4.317-5.048-9.651-5.048C74.354,172.523,70.037,174.779,70.037,177.57z"/>
		<path opacity="0.6" fill="#CEEEFB" d="M64.555,177.576c0,4.369,6.769,7.904,15.129,7.904s15.129-3.535,15.129-7.904H64.555z"/>
		<path fill="none" stroke="#000000" stroke-miterlimit="10" d="M64.555,177.576c0,4.369,6.769,7.904,15.129,7.904
			s15.129-3.535,15.129-7.904"/>
		<path fill="none" stroke="#000000" stroke-miterlimit="10" d="M70.037,177.57c0,2.791,4.317,5.047,9.652,5.047
			c5.334,0,9.651-2.256,9.651-5.047c0-2.791-4.317-5.048-9.651-5.048C74.354,172.523,70.037,174.779,70.037,177.57z"/>
		<path opacity="0.6" fill="#CEEEFB" d="M89.332,187.653c0,2.791-4.317,5.047-9.652,5.047c-5.334,0-9.651-2.256-9.651-5.047
			c0-2.791,4.317-5.048,9.651-5.048C85.014,182.605,89.332,184.861,89.332,187.653z"/>
		<line fill="none" stroke="#000000" stroke-miterlimit="10" x1="70.037" y1="177.57" x2="70.037" y2="187.653"/>
		<line fill="none" stroke="#000000" stroke-miterlimit="10" x1="89.34" y1="177.57" x2="89.34" y2="187.653"/>
		<path opacity="0.6" fill="#CEEEFB" d="M94.813,177.57v10.088c0-4.382-6.769-7.917-15.129-7.917s-15.129,3.534-15.129,7.917V177.57
			H94.813z"/>
		<path opacity="0.6" fill="#CEEEFB" d="M64.555,187.658c0-4.382,6.769-7.917,15.129-7.917s15.129,3.534,15.129,7.917H64.555z"/>
		<path fill="none" stroke="#000000" stroke-miterlimit="10" d="M89.332,187.653c0,2.791-4.317,5.047-9.652,5.047
			c-5.334,0-9.651-2.256-9.651-5.047c0-2.791,4.317-5.048,9.651-5.048C85.014,182.605,89.332,184.861,89.332,187.653z"/>
		<path opacity="0.6" fill="#CEEEFB" d="M94.813,177.576c0-4.382-6.769-7.917-15.129-7.917s-15.129,3.534-15.129,7.917H94.813z"/>
		<path fill="none" stroke="#000000" stroke-miterlimit="10" d="M94.813,177.57v10.088c0-4.382-6.769-7.917-15.129-7.917
			s-15.129,3.534-15.129,7.917V177.57c0-4.369,6.769-7.903,15.129-7.903S94.813,173.201,94.813,177.57z"/>
		<g>
			<path fill="#FFFFFF" stroke="#000000" stroke-miterlimit="10" d="M113.725,189.099c0.013,2.126-1.526,4.343-3.43,4.956
				l-3.795,1.213l-17.164,5.517v-20.372l20.854-6.691c1.904-0.613,3.456,0.613,3.469,2.739L113.725,189.099z"/>
		</g>
		<g>
			<path fill="#CCCCCC" d="M107.008,193.104c0,0.73-0.182,1.487-0.509,2.165l-17.164,5.517v-18.52l14.138-4.539
				c1.904-0.613,3.456,0.613,3.469,2.739L107.008,193.104z"/>
		</g>
		<g>
			<path fill="none" stroke="#000000" stroke-miterlimit="10" d="M113.725,189.099c0.013,2.126-1.526,4.343-3.43,4.956l-3.795,1.213
				l-17.164,5.517v-20.372l20.854-6.691c1.904-0.613,3.456,0.613,3.469,2.739L113.725,189.099z"/>
		</g>
		<g>
			<path fill="#FFFFFF" d="M101.614,194.053l-48.107,15.446c-1.906,0.612-3.46-0.614-3.471-2.738l-0.066-12.637
				c-0.011-2.124,1.525-4.343,3.431-4.955l48.107-15.446c1.906-0.612,3.46,0.614,3.471,2.738l0.066,12.637
				C105.057,191.223,103.521,193.441,101.614,194.053z"/>
			<path fill="#FFFFFF" stroke="#000000" stroke-miterlimit="10" d="M101.614,194.053l-48.107,15.446
				c-1.906,0.612-3.46-0.614-3.471-2.738l-0.066-12.637c-0.011-2.124,1.525-4.343,3.431-4.955l48.107-15.446
				c1.906-0.612,3.46,0.614,3.471,2.738l0.066,12.637C105.057,191.223,103.521,193.441,101.614,194.053z"/>
		</g>
		<path opacity="0.6" fill="#CEEEFB" d="M94.813,206.817c0-4.382-6.769-7.917-15.129-7.917s-15.129,3.534-15.129,7.917H94.813z"/>
		<path fill="none" stroke="#000000" stroke-miterlimit="10" d="M94.813,206.811v23.046c0-4.382-6.769-7.917-15.129-7.917
			s-15.129,3.534-15.129,7.917v-23.046c0-4.369,6.769-7.903,15.129-7.903S94.813,202.442,94.813,206.811z"/>
		<path fill="none" stroke="#000000" stroke-miterlimit="10" d="M91.175,118.566v52.261c-1.813-1.109-4.226-1.956-6.965-2.413
			v-56.813h0C88.056,111.602,91.175,114.72,91.175,118.566z"/>
		<g>
			<path opacity="0.6" fill="#CEEEFB" d="M100.553,116.086l-0.005-0.001c-0.074,0.972-0.424,1.893-1.039,2.74l-3.743-0.718
				l-12.456-2.387l-5.491-1.056l-3.547-0.678c1.317-3.548,6.639-6.182,12.99-6.182c7.069,0,12.86,3.274,13.29,7.421
				c0.013,0.157,0.026,0.326,0.026,0.495c0,0.104-0.019,0.204-0.026,0.306V116.086z"/>
			<path fill="none" stroke="#000000" stroke-linecap="round" stroke-linejoin="round" stroke-miterlimit="10" d="M100.553,116.086
				l-0.005-0.001c-0.074,0.972-0.424,1.893-1.039,2.74l-3.743-0.718l-12.456-2.387l-5.491-1.056l-3.547-0.678
				c1.317-3.548,6.639-6.182,12.99-6.182c7.069,0,12.86,3.274,13.29,7.421c0.013,0.157,0.026,0.326,0.026,0.495
				c0,0.104-0.019,0.204-0.026,0.306V116.086z"/>
			<path opacity="0.6" fill="#CEEEFB" d="M96.915,115.708v0.013c0,0.17-0.013,0.339-0.052,0.509c-0.026,0.143-0.065,0.3-0.118,0.444
				c-0.013,0.039-0.026,0.078-0.052,0.104c-0.039,0.104-0.091,0.222-0.144,0.326c-0.196,0.352-0.456,0.691-0.782,1.004
				l-12.456-2.387l-5.491-1.056c0.052-0.144,0.131-0.287,0.209-0.418c0.065-0.13,0.144-0.248,0.248-0.365
				c0.052-0.091,0.13-0.196,0.222-0.287c0.065-0.078,0.131-0.143,0.209-0.222c0.091-0.091,0.183-0.182,0.287-0.274
				c0.848-0.743,2.048-1.356,3.483-1.774c0.235-0.078,0.482-0.143,0.73-0.196c0.209-0.052,0.417-0.104,0.639-0.144
				c0.222-0.052,0.469-0.091,0.717-0.13c0.209-0.027,0.431-0.052,0.665-0.078c0.196-0.026,0.404-0.052,0.626-0.052
				c0.183-0.026,0.365-0.039,0.548-0.039c0.287-0.013,0.574-0.026,0.861-0.026C92.598,110.66,96.915,112.917,96.915,115.708z"/>
			<path fill="none" stroke="#000000" stroke-linecap="round" stroke-linejoin="round" stroke-miterlimit="10" d="M96.915,115.708
				v0.013c0,0.17-0.013,0.339-0.052,0.509c-0.026,0.143-0.065,0.3-0.118,0.444c-0.013,0.039-0.026,0.078-0.052,0.104
				c-0.039,0.104-0.091,0.222-0.144,0.326c-0.196,0.352-0.456,0.691-0.782,1.004l-12.456-2.387l-5.491-1.056
				c0.052-0.144,0.131-0.287,0.209-0.418c0.065-0.13,0.144-0.248,0.248-0.365c0.052-0.091,0.13-0.196,0.222-0.287
				c0.065-0.078,0.131-0.143,0.209-0.222c0.091-0.091,0.183-0.182,0.287-0.274c0.848-0.743,2.048-1.356,3.483-1.774
				c0.235-0.078,0.482-0.143,0.73-0.196c0.209-0.052,0.417-0.104,0.639-0.144c0.222-0.052,0.469-0.091,0.717-0.13
				c0.209-0.027,0.431-0.052,0.665-0.078c0.196-0.026,0.404-0.052,0.626-0.052c0.183-0.026,0.365-0.039,0.548-0.039
				c0.287-0.013,0.574-0.026,0.861-0.026C92.598,110.66,96.915,112.917,96.915,115.708z"/>
			<path opacity="0.6" fill="#CEEEFB" d="M96.915,102.561v0.013c0,0.17-0.013,0.339-0.052,0.509c-0.026,0.143-0.065,0.3-0.118,0.444
				c-0.013,0.039-0.026,0.078-0.052,0.104c-0.039,0.104-0.091,0.222-0.144,0.326c-0.196,0.352-0.456,0.691-0.782,1.004
				l-12.456-2.387l-5.491-1.056c0.052-0.144,0.131-0.287,0.209-0.418c0.065-0.13,0.144-0.248,0.248-0.365
				c0.052-0.091,0.13-0.196,0.222-0.287c0.065-0.078,0.131-0.143,0.209-0.222c0.091-0.091,0.183-0.182,0.287-0.274
				c0.848-0.743,2.048-1.356,3.483-1.774c0.235-0.078,0.482-0.143,0.73-0.196c0.209-0.052,0.417-0.104,0.639-0.144
				c0.222-0.052,0.469-0.091,0.717-0.13c0.209-0.027,0.431-0.052,0.665-0.078c0.196-0.026,0.404-0.052,0.626-0.052
				c0.183-0.026,0.365-0.039,0.548-0.039c0.287-0.013,0.574-0.026,0.861-0.026C92.598,97.514,96.915,99.77,96.915,102.561z"/>
			<path fill="none" stroke="#000000" stroke-linecap="round" stroke-linejoin="round" stroke-miterlimit="10" d="M96.915,102.561
				v0.013c0,0.17-0.013,0.339-0.052,0.509c-0.026,0.143-0.065,0.3-0.118,0.444c-0.013,0.039-0.026,0.078-0.052,0.104
				c-0.039,0.104-0.091,0.222-0.144,0.326c-0.196,0.352-0.456,0.691-0.782,1.004l-12.456-2.387l-5.491-1.056
				c0.052-0.144,0.131-0.287,0.209-0.418c0.065-0.13,0.144-0.248,0.248-0.365c0.052-0.091,0.13-0.196,0.222-0.287
				c0.065-0.078,0.131-0.143,0.209-0.222c0.091-0.091,0.183-0.182,0.287-0.274c0.848-0.743,2.048-1.356,3.483-1.774
				c0.235-0.078,0.482-0.143,0.73-0.196c0.209-0.052,0.417-0.104,0.639-0.144c0.222-0.052,0.469-0.091,0.717-0.13
				c0.209-0.027,0.431-0.052,0.665-0.078c0.196-0.026,0.404-0.052,0.626-0.052c0.183-0.026,0.365-0.039,0.548-0.039
				c0.287-0.013,0.574-0.026,0.861-0.026C92.598,97.514,96.915,99.77,96.915,102.561z"/>
			<path opacity="0.6" fill="#CEEEFB" d="M100.579,102.835l-0.026,12.39c-0.43-4.147-6.221-7.421-13.29-7.421
				c-6.351,0-11.673,2.635-12.99,6.182V101.1c1.317-3.547,6.639-6.182,12.99-6.182C94.619,94.918,100.579,98.453,100.579,102.835z"
				/>
			<path fill="none" stroke="#000000" stroke-linecap="round" stroke-linejoin="round" stroke-miterlimit="10" d="M100.579,102.835
				l-0.026,12.39c-0.43-4.147-6.221-7.421-13.29-7.421c-6.351,0-11.673,2.635-12.99,6.182V101.1
				c1.317-3.547,6.639-6.182,12.99-6.182C94.619,94.918,100.579,98.453,100.579,102.835z"/>
		</g>
		<g>
			<path fill="none" stroke="#000000" stroke-linecap="round" stroke-linejoin="round" stroke-miterlimit="10" d="M52.072,171.576
				l0,0.166c-0.033,0.112-0.1,0.224-0.232,0.311c-0.764,0.587-3.291,0.765-6.166,0.356c-2.909-0.408-5.22-1.275-5.62-2.04
				c-0.033-0.055-0.05-0.096-0.05-0.151l0-0.18c0.199-0.835,3.058-1.132,6.399-0.667C49.528,169.816,51.939,170.777,52.072,171.576z
				"/>
			<path opacity="0.6" fill="#CEEEFB" d="M52.084,188.715l0,0.166c-0.033,0.112-0.1,0.224-0.232,0.311
				c-0.764,0.587-3.291,0.765-6.166,0.356c-2.909-0.408-5.22-1.275-5.62-2.04c-0.033-0.055-0.05-0.096-0.05-0.151l0-0.18
				c0.199-0.835,3.058-1.132,6.399-0.667C49.54,186.954,51.951,187.916,52.084,188.715z"/>
			<path fill="none" stroke="#000000" stroke-linecap="round" stroke-linejoin="round" stroke-miterlimit="10" d="M52.084,188.715
				l0,0.166c-0.033,0.112-0.1,0.224-0.232,0.311c-0.764,0.587-3.291,0.765-6.166,0.356c-2.909-0.408-5.22-1.275-5.62-2.04"/>
			<g>
				<path fill="none" stroke="#000000" stroke-linecap="round" stroke-linejoin="round" stroke-miterlimit="10" d="M50.55,171.545
					l0,0.166c-0.025,0.112-0.074,0.224-0.172,0.311c-0.567,0.587-2.441,0.764-4.574,0.355c-2.158-0.409-3.872-1.276-4.169-2.041
					c-0.025-0.055-0.037-0.096-0.037-0.151l0-0.18c0.148-0.835,2.268-1.132,4.747-0.665
					C48.662,169.785,50.451,170.746,50.55,171.545z"/>
				<path fill="#E5E5E5" d="M50.538,171.74l0.012,0l0.013,53.729c-0.099-0.799-1.888-1.761-4.206-2.205
					c-2.479-0.466-4.599-0.17-4.747,0.665l-0.013-53.923c0.148-0.836,2.268-1.132,4.747-0.665c2.466,0.48,4.353,1.535,4.206,2.371
					C50.55,171.725,50.55,171.725,50.538,171.74z"/>
				<path fill="none" stroke="#000000" stroke-linecap="round" stroke-linejoin="round" stroke-miterlimit="10" d="M50.538,171.74
					l0.012,0l0.013,53.729c-0.099-0.799-1.888-1.761-4.206-2.205c-2.479-0.466-4.599-0.17-4.747,0.665l-0.013-53.923
					c0.148-0.836,2.268-1.132,4.747-0.665c2.466,0.48,4.353,1.535,4.206,2.371C50.55,171.725,50.55,171.725,50.538,171.74z"/>
				<path opacity="0.6" fill="#CEEEFB" d="M50.564,225.468l0,0.166c-0.025,0.112-0.074,0.224-0.172,0.311
					c-0.567,0.587-2.441,0.764-4.574,0.355c-2.158-0.409-3.872-1.276-4.169-2.041c-0.025-0.055-0.037-0.096-0.037-0.151l0-0.18
					c0.148-0.835,2.268-1.132,4.747-0.665C48.676,223.708,50.465,224.669,50.564,225.468z"/>
				<path fill="none" stroke="#000000" stroke-linecap="round" stroke-linejoin="round" stroke-miterlimit="10" d="M50.564,225.468
					l0,0.166c-0.025,0.112-0.074,0.224-0.172,0.311c-0.567,0.587-2.441,0.764-4.574,0.355c-2.158-0.409-3.872-1.276-4.169-2.041
					c-0.025-0.055-0.037-0.096-0.037-0.151l0-0.18c0.148-0.835,2.268-1.132,4.747-0.665
					C48.676,223.708,50.465,224.669,50.564,225.468z"/>
			</g>
			<path fill="none" stroke="#000000" stroke-linecap="round" stroke-linejoin="round" stroke-miterlimit="10" d="M40.066,187.508
				c-0.033-0.055-0.05-0.096-0.05-0.151l0-0.18c0.199-0.835,3.058-1.132,6.399-0.667c3.125,0.444,5.536,1.405,5.669,2.204"/>
			<path opacity="0.6" fill="#CEEEFB" d="M52.056,171.77l0.017,0l0.011,16.945c-0.133-0.799-2.544-1.76-5.669-2.204
				c-3.341-0.466-6.2-0.169-6.399,0.667l-0.012-17.139c0.199-0.836,3.058-1.132,6.399-0.667c3.325,0.48,5.869,1.534,5.669,2.37
				C52.072,171.756,52.072,171.756,52.056,171.77z"/>
			<path fill="none" stroke="#000000" stroke-linecap="round" stroke-linejoin="round" stroke-miterlimit="10" d="M52.056,171.77
				l0.017,0l0.011,16.945c-0.133-0.799-2.544-1.76-5.669-2.204c-3.341-0.466-6.2-0.169-6.399,0.667l-0.012-17.139
				c0.199-0.836,3.058-1.132,6.399-0.667c3.325,0.48,5.869,1.534,5.669,2.37C52.072,171.756,52.072,171.756,52.056,171.77z"/>
		</g>
	</g>
</g>
</svg>
