<?xml version="1.0" encoding="utf-8"?>
<!-- Generator: Adobe Illustrator 16.0.0, SVG Export Plug-In . SVG Version: 6.00 Build 0)  -->
<!DOCTYPE svg PUBLIC "-//W3C//DTD SVG 1.1//EN" "http://www.w3.org/Graphics/SVG/1.1/DTD/svg11.dtd">
<svg version="1.1" id="Layer_1" xmlns="http://www.w3.org/2000/svg" xmlns:xlink="http://www.w3.org/1999/xlink" x="0px" y="0px"
	 width="383.619px" height="383.62px" viewBox="0 0 383.619 383.62" enable-background="new 0 0 383.619 383.62"
	 xml:space="preserve">
<g>
	<defs>
		<circle id="SVGID_1_" cx="191.81" cy="191.811" r="191.31"/>
	</defs>
	<clipPath id="SVGID_2_">
		<use xlink:href="#SVGID_1_"  overflow="visible"/>
	</clipPath>
	<g clip-path="url(#SVGID_2_)">
		<circle fill="#E8E8E8" cx="191.81" cy="191.811" r="191.31"/>
		<g>
			<path fill="#D8D8D8" d="M445.226,200.8c-0.162-0.223-0.396-0.435-0.68-0.637c-0.043-0.03-0.075-0.063-0.121-0.093
				c-0.168-0.11-0.32-0.232-0.461-0.359c-0.076-0.068-0.14-0.145-0.209-0.217c-0.057-0.061-0.119-0.119-0.172-0.181
				c-0.061-0.073-0.11-0.146-0.164-0.219c-0.048-0.065-0.1-0.131-0.143-0.194c-0.042-0.064-0.076-0.126-0.113-0.189
				c-0.043-0.072-0.088-0.146-0.125-0.216c-0.025-0.048-0.045-0.091-0.066-0.137c-0.039-0.081-0.08-0.161-0.11-0.233
				c-0.011-0.024-0.018-0.045-0.027-0.067c-0.12-0.298-0.171-0.502-0.172-0.505h0.001h-0.002c0.089-0.052,0.145-0.119,0.18-0.199
				c0.01-0.024,0.008-0.056,0.013-0.082c0.002-0.007,0.001-0.015,0.003-0.021c0.01-0.055,0.021-0.11,0.014-0.177
				c-0.006-0.051-0.025-0.108-0.042-0.163c-0.017-0.06-0.03-0.118-0.058-0.182c-0.027-0.069-0.066-0.146-0.106-0.22
				c-0.03-0.059-0.061-0.116-0.097-0.178c-0.053-0.088-0.111-0.181-0.174-0.273c-0.036-0.056-0.072-0.109-0.113-0.165
				c-0.076-0.107-0.156-0.216-0.242-0.329c-0.033-0.043-0.068-0.087-0.103-0.129c-0.102-0.131-0.206-0.262-0.317-0.395
				c-0.016-0.02-0.032-0.038-0.049-0.057c-0.996-1.188-2.282-2.502-2.836-3.334c-0.01-0.015-0.017-0.027-0.026-0.041
				c-0.063-0.1-0.114-0.189-0.153-0.272c-0.014-0.026-0.023-0.052-0.033-0.077c-0.027-0.066-0.041-0.127-0.047-0.18
				c-0.002-0.021-0.007-0.045-0.006-0.063c0.005-0.062,0.027-0.112,0.072-0.146c0.002-0.001,0.002-0.004,0.004-0.005
				c0.056-0.039,0.093-0.095,0.115-0.166c0.006-0.016,0.002-0.04,0.005-0.058c0.012-0.059,0.022-0.117,0.017-0.193
				c-0.1-1.366-2.92-5.308-3.637-7.271c-0.408-1.119-0.355-1.58-0.168-2.016c0.105-0.245,0.252-0.488,0.385-0.835
				c0.102-0.267,0.193-0.594,0.248-1.039c0.047-0.376,0.104-0.774,0.176-1.215c0.262-1.601,0.714-3.773,1.507-7.563
				c0.175-0.835,0.364-1.74,0.573-2.745c0.003-0.014,0.008-0.027,0.011-0.042c0.079-0.368,0.186-0.751,0.308-1.143
				c0.035-0.113,0.076-0.23,0.115-0.345c0.111-0.328,0.235-0.661,0.373-1.003c0.037-0.092,0.072-0.184,0.111-0.277
				c0.18-0.425,0.379-0.859,0.596-1.299c0.047-0.097,0.098-0.193,0.146-0.288c0.091-0.181,0.192-0.365,0.289-0.548l2.781-4.535
				c0.127-0.184,0.251-0.366,0.379-0.549c0.153-0.217,0.309-0.436,0.465-0.651c0.205-0.286,0.414-0.57,0.625-0.854
				c0.172-0.231,0.346-0.463,0.52-0.691c0.191-0.251,0.385-0.5,0.578-0.748c0.204-0.261,0.408-0.521,0.613-0.778
				c0.164-0.204,0.327-0.404,0.49-0.604c0.235-0.29,0.47-0.574,0.704-0.855c0.266-0.316,0.53-0.632,0.794-0.938
				c0.053-0.062,0.107-0.124,0.16-0.187c0.346-0.397,0.687-0.786,1.023-1.162c0.059-0.063,0.115-0.125,0.172-0.189
				c0.311-0.343,0.617-0.678,0.917-0.998c0.04-0.042,0.081-0.087,0.12-0.129c0.305-0.325,0.6-0.631,0.89-0.928
				c0.083-0.086,0.167-0.173,0.249-0.256c0.27-0.273,0.531-0.535,0.783-0.779c0.082-0.08,0.16-0.155,0.239-0.23
				c0.228-0.219,0.447-0.427,0.655-0.617c0.031-0.029,0.064-0.061,0.096-0.089c0.338-0.308,0.634-0.608,0.943-0.913
				c3.797-3.713,5.631-7.232,7.319-12.75c0.543-1.775,1.491-4.298,2.558-7.082c0.691-1.799,1.43-3.707,2.143-5.595
				c1.893-5.017,3.594-9.879,3.652-12.124c0.023-0.907-0.224-1.857-0.624-2.816c-1.535-3.686-5.467-7.508-6.227-9.654
				c-0.093-0.258-0.192-0.586-0.298-0.942c-0.994-3.379-2.596-10.725-4.953-14.333c-0.096-0.146-0.243-0.271-0.433-0.368
				c-1.319-0.688-4.706-0.075-7.09,3.562c-0.166,0.253-0.308,0.506-0.44,0.758c-0.01,0.021-0.02,0.042-0.031,0.062
				c-0.031,0.062-0.062,0.122-0.092,0.184v-0.001c-0.001,0.002-0.002,0.004-0.002,0.004c-0.081,0.168-0.154,0.337-0.222,0.503
				c-0.009,0.022-0.019,0.045-0.028,0.067c-0.057,0.145-0.107,0.288-0.153,0.431c-0.005,0.014-0.009,0.027-0.015,0.041
				c-0.105,0.328-0.188,0.655-0.248,0.976c-0.001,0.005-0.002,0.009-0.002,0.009c-0.006,0.03-0.009,0.058-0.014,0.084
				c-0.036,0.207-0.063,0.413-0.082,0.616c-0.004,0.032-0.008,0.064-0.01,0.098c-0.031,0.376-0.037,0.744-0.02,1.103
				c0.001,0.01,0,0.019,0.001,0.027c0.003,0.064,0.009,0.128,0.013,0.191c0.003,0.043,0.008,0.086,0.012,0.128
				c0.015,0.17,0.033,0.337,0.057,0.5v0.004c0.004,0.027,0.005,0.055,0.009,0.08c0.003,0.02,0.007,0.037,0.01,0.057
				c0.03,0.197,0.065,0.393,0.104,0.581c0.002,0.007,0.004,0.015,0.006,0.022c0.008,0.033,0.016,0.064,0.023,0.098
				c0.014,0.064,0.029,0.127,0.045,0.19c0.018,0.075,0.035,0.15,0.055,0.224c0.02,0.078,0.041,0.151,0.062,0.227
				c0.015,0.054,0.029,0.108,0.045,0.16c0.018,0.059,0.035,0.115,0.052,0.174c0.022,0.069,0.044,0.138,0.065,0.206
				c0.011,0.03,0.021,0.06,0.031,0.09c0.035,0.106,0.07,0.213,0.105,0.313l-2.271-4.654l-1.269-2.604h-0.001l-0.001-0.001
				l-5.69,2.771l0.991,2.038l-3.198,1.558l-10.528,5.125c-0.354-0.617-0.701-1.2-1.039-1.748c-0.002-0.002-0.003-0.004-0.004-0.007
				c-0.326-0.525-0.643-1.019-0.951-1.482c-0.033-0.051-0.065-0.1-0.099-0.149c-0.599-0.893-1.159-1.672-1.672-2.344
				c-0.038-0.049-0.074-0.097-0.111-0.145c-0.246-0.32-0.481-0.617-0.704-0.887c-0.024-0.029-0.047-0.056-0.07-0.086
				c-0.206-0.249-0.4-0.477-0.581-0.684c-0.024-0.027-0.05-0.057-0.073-0.084c-0.186-0.21-0.354-0.396-0.51-0.561
				c-0.035-0.038-0.065-0.07-0.099-0.105c-0.138-0.146-0.268-0.28-0.378-0.39c-0.006-0.006-0.014-0.015-0.02-0.021
				c-0.006-0.115-0.025-0.231-0.035-0.347c-0.119-1.671-0.508-3.336-1.178-4.944c-0.119-0.285-0.225-0.573-0.361-0.855
				c-0.906-1.857-2.137-3.453-3.59-4.771c-2.509-2.28-5.696-3.715-9.098-4.152c-0.479-0.062-0.96-0.111-1.445-0.133
				c-0.729,0.009-1.312,0.1-1.76,0.252c-0.749,0.255-1.128,0.686-1.203,1.205c-0.049,0.343,0.066,0.632,0.302,0.875
				c0.392,0.408,1.123,0.69,2.001,0.89c0.436,0.081,0.871,0.19,1.303,0.317c0.061,0.018,0.121,0.034,0.182,0.053
				c0.414,0.128,0.825,0.279,1.232,0.449c0.071,0.031,0.143,0.063,0.215,0.094c0.41,0.182,0.819,0.38,1.221,0.606
				c0.027,0.015,0.054,0.032,0.081,0.048c0.379,0.218,0.751,0.459,1.118,0.718c0.07,0.05,0.143,0.097,0.213,0.147
				c0.364,0.267,0.721,0.556,1.068,0.864c0.087,0.074,0.172,0.153,0.257,0.23c0.345,0.318,0.683,0.651,1.01,1.013
				c0.061,0.066,0.12,0.141,0.181,0.209c0.285,0.327,0.563,0.673,0.834,1.033c0.072,0.096,0.146,0.188,0.217,0.287
				c0.287,0.398,0.561,0.822,0.826,1.264c0.042,0.068,0.082,0.139,0.123,0.209l-0.018,0.012c-2.778-3.967-6.789-5.995-11.592-4.371
				c-0.423,0.143-0.811,0.306-1.181,0.476c-0.081,0.038-0.161,0.075-0.239,0.113c-0.342,0.167-0.669,0.344-0.969,0.533
				c0-0.001,0-0.001,0-0.001c-0.008,0.006-0.016,0.012-0.023,0.017c-0.045,0.028-0.084,0.059-0.126,0.087
				c-0.19,0.125-0.374,0.253-0.546,0.384c-0.065,0.051-0.125,0.103-0.188,0.153c-0.008,0.005-0.015,0.012-0.021,0.018
				c-0.06,0.049-0.121,0.095-0.178,0.145c-0.08,0.068-0.157,0.139-0.234,0.21c-0.069,0.063-0.135,0.129-0.201,0.193
				c-0.084,0.084-0.17,0.167-0.249,0.253c-0.044,0.046-0.083,0.093-0.126,0.14c-0.053,0.061-0.104,0.119-0.156,0.181
				c-0.104,0.125-0.202,0.25-0.297,0.379c-0.039,0.052-0.084,0.102-0.12,0.153c-0.016,0.022-0.029,0.046-0.045,0.067
				c-0.104,0.15-0.2,0.303-0.292,0.457c-0.025,0.041-0.054,0.083-0.078,0.125c-0.024,0.041-0.043,0.084-0.066,0.125
				c-0.04,0.072-0.078,0.146-0.116,0.221c-0.042,0.08-0.085,0.16-0.124,0.24c-0.035,0.074-0.064,0.148-0.098,0.224
				c-0.028,0.064-0.059,0.128-0.084,0.19c-0.015,0.036-0.031,0.07-0.045,0.105c-0.013,0.032-0.021,0.064-0.035,0.096
				c-0.027,0.075-0.053,0.148-0.079,0.223c-0.05,0.14-0.096,0.279-0.138,0.418c0,0.004-0.001,0.007-0.002,0.011
				c-0.008,0.025-0.02,0.053-0.027,0.079c-0.055-0.033-0.437-0.264-1.049-0.545c-0.01-0.005-0.021-0.01-0.032-0.014
				c-0.022-0.011-0.044-0.021-0.067-0.031c-0.016-0.008-0.029-0.014-0.046-0.021c-0.112-0.052-0.234-0.102-0.362-0.154
				c-0.036-0.016-0.07-0.03-0.107-0.045c-0.018-0.007-0.034-0.014-0.053-0.021c-0.014-0.006-0.025-0.011-0.039-0.017
				c-0.133-0.053-0.277-0.104-0.422-0.156c-0.045-0.016-0.084-0.031-0.13-0.047c-0.034-0.013-0.065-0.023-0.101-0.034
				c-0.006-0.003-0.014-0.005-0.021-0.007c-0.188-0.063-0.384-0.126-0.589-0.184c-0.008-0.002-0.017-0.003-0.024-0.007
				c-0.015-0.004-0.029-0.007-0.044-0.011c-0.084-0.023-0.174-0.044-0.261-0.066c-0.138-0.036-0.274-0.071-0.418-0.104
				c-0.045-0.011-0.089-0.02-0.134-0.029c-0.09-0.019-0.182-0.034-0.273-0.052c-0.131-0.023-0.264-0.048-0.399-0.069
				c-0.071-0.011-0.14-0.023-0.212-0.033c-0.078-0.011-0.158-0.018-0.238-0.027c-0.136-0.016-0.273-0.026-0.412-0.038
				c-0.096-0.008-0.189-0.02-0.289-0.024c-0.061-0.004-0.123-0.005-0.186-0.006c-0.145-0.006-0.295-0.003-0.443-0.002
				c-0.119,0-0.236-0.005-0.355-0.001c-0.04,0-0.08,0.003-0.119,0.005c-0.185,0.01-0.373,0.031-0.56,0.05
				c-0.115,0.014-0.229,0.018-0.345,0.034c-0.143,0.02-0.285,0.054-0.428,0.079c-0.162,0.03-0.324,0.057-0.488,0.096
				c-0.045,0.011-0.09,0.018-0.135,0.029c-0.125,0.03-0.25,0.078-0.377,0.114c-0.071,0.021-0.143,0.038-0.215,0.062
				c0.07-0.021,0.139-0.039,0.208-0.059c-0.105,0.031-0.211,0.065-0.317,0.101c-0.123,0.042-0.244,0.071-0.366,0.117
				c-0.271,0.104-0.542,0.234-0.814,0.366c-0.087,0.043-0.175,0.073-0.262,0.119c-0.36,0.189-0.72,0.404-1.077,0.652
				c-3.219,2.229-4.215,5.088-4.469,7.179c-0.002,0.013-0.006,0.028-0.007,0.042c-0.008,0.07-0.011,0.133-0.018,0.199
				c-0.148,1.52,0.083,2.58,0.083,2.58l0,0h0.001l-0.033,0.043c-0.499-0.379-1.124-0.762-1.86-1.062
				c-0.04-0.017-0.08-0.033-0.121-0.049c-0.1-0.039-0.201-0.076-0.305-0.111c-0.053-0.018-0.105-0.035-0.16-0.052
				c-0.166-0.052-0.337-0.099-0.513-0.142c-0.079-0.02-0.158-0.039-0.239-0.057c-0.088-0.018-0.18-0.032-0.271-0.048
				c-0.09-0.015-0.181-0.029-0.273-0.041c-0.09-0.013-0.181-0.022-0.273-0.03c-0.106-0.011-0.216-0.017-0.326-0.021
				c-0.082-0.004-0.164-0.01-0.247-0.012c-0.185-0.002-0.374,0.002-0.567,0.013c-0.074,0.005-0.15,0.014-0.226,0.02
				c-0.136,0.013-0.274,0.026-0.413,0.046c-0.087,0.012-0.174,0.025-0.262,0.04c-0.143,0.024-0.289,0.054-0.437,0.087
				c-0.079,0.017-0.157,0.033-0.237,0.053c-0.223,0.057-0.447,0.12-0.677,0.195c-0.055,0.018-0.11,0.041-0.165,0.06
				c-0.186,0.065-0.371,0.136-0.562,0.214c-0.087,0.035-0.175,0.074-0.263,0.113c-0.17,0.075-0.34,0.158-0.514,0.244
				c-0.087,0.043-0.174,0.085-0.261,0.131c-0.235,0.125-0.473,0.258-0.714,0.404c-0.021,0.014-0.041,0.022-0.062,0.035
				c-0.41,0.252-0.779,0.505-1.126,0.758c-0.053,0.038-0.108,0.076-0.159,0.113c-0.316,0.237-0.603,0.473-0.866,0.706
				c-0.058,0.053-0.114,0.103-0.17,0.155c-0.249,0.229-0.478,0.457-0.681,0.684c-0.043,0.046-0.08,0.094-0.121,0.14
				c-0.195,0.227-0.376,0.452-0.53,0.673c-0.019,0.026-0.034,0.051-0.051,0.076c-0.147,0.215-0.271,0.428-0.384,0.637
				c-0.023,0.045-0.051,0.092-0.072,0.135c-0.105,0.208-0.19,0.411-0.264,0.61c-0.021,0.055-0.04,0.107-0.058,0.161
				c-0.065,0.191-0.118,0.379-0.158,0.562c-0.012,0.053-0.02,0.104-0.03,0.156c-0.029,0.163-0.053,0.323-0.066,0.479
				c-0.006,0.062-0.009,0.121-0.012,0.182c-0.006,0.129-0.008,0.254-0.005,0.375c0.001,0.064,0.002,0.129,0.006,0.191
				c0,0-4.616-0.714-9.057,4.129c-2.266,2.477-3.581,5.049-4.132,7.62c-0.219,1.019-0.312,2.036-0.3,3.048
				c0.018,1.428,0.247,2.841,0.672,4.226l-30.988,14.505l-13.618,6.375l1.137,2.329l0.503,1.035l-9.387,4.571l0.003,0.005v0.001
				l-1.297,5.592l-0.691,2.979l-45.776,24.066l0.001,0.003l0,0l0.105,0.216l0.176,0.362v0.002l-0.73,0.357l-0.003-0.006l0.003-0.002
				l-0.274-0.559l-36.075,19.182l-12.198,6.486c-0.06,0.028-0.102,0.076-0.154,0.114c-0.243,0.176-0.391,0.432-0.423,0.713
				c-0.02,0.179-0.01,0.36,0.074,0.532c0.242,0.496,0.861,0.694,1.38,0.44l49.971-22.175v-0.003l0,0l-0.015-0.026l-0.259-0.535
				l0.73-0.354l0.281,0.578l0.004-0.001v0.003l47.173-21.197l0.596,0.277l7.378,3.444l-0.002-0.001l9.391-4.57l-0.005-0.008l0,0
				l0.005,0.008l2.117,4.341l0.273,0.562l35.123-17.103l0.005,0.005c-2.317,5.003-0.45,10.354,4.097,18.994
				c4.547,8.641,10.808,17.588,12.859,19.711c0.123,0.127,0.232,0.258,0.333,0.391c0.005,0.007,0.013,0.012,0.017,0.02
				c0.104,0.139,0.195,0.28,0.277,0.425c0.002,0.002,0.004,0.004,0.004,0.005c1.163,2.054,0.295,4.776-0.002,8.105
				c-0.34,3.804-1.08,8.639,1.41,11.399c2.307,2.552,2.447,4.532,2.547,7.275c0.008,0.223,0.017,0.449,0.025,0.684
				c0.008,0.239,0.018,0.442,0.026,0.655c0.062,1.526,0.144,2.458,0.491,3.104c0.018,0.03,0.042,0.054,0.06,0.083
				c0.067,0.112,0.138,0.222,0.224,0.32c0.033,0.037,0.08,0.07,0.117,0.105c0.084,0.084,0.164,0.166,0.268,0.241
				c0.008,0.007,0.02,0.014,0.029,0.019c0.139,0.102,0.293,0.199,0.469,0.295c0.879,0.478,1.521,0.982,1.912,1.325
				c0.281,0.248,0.435,0.415,0.435,0.415s-0.593,2.103,2.556,1.777c0.039-0.005,0.1-0.015,0.144-0.021
				c0.118-0.015,0.248-0.032,0.39-0.054c0.1-0.015,0.199-0.029,0.312-0.049c0.176-0.029,0.367-0.063,0.57-0.104
				c0.13-0.023,0.265-0.051,0.405-0.078c0.232-0.047,0.476-0.098,0.735-0.155c0.147-0.032,0.304-0.067,0.46-0.103
				c0.246-0.056,0.502-0.114,0.771-0.18c0.179-0.041,0.362-0.086,0.55-0.133c0.149-0.035,0.296-0.071,0.451-0.11
				c-0.009,0.001-0.018,0.004-0.028,0.005c5.054-1.265,13.141-3.736,22.377-7.435c1.202-0.481,2.414-0.975,3.649-1.497
				c0.59-0.25,1.172-0.502,1.753-0.756c14.104-6.158,25.396-13.368,26.483-14.129C445.642,202.41,445.789,201.565,445.226,200.8z"/>
		</g>
		<path fill="#D8D8D8" d="M211.205,198.29c-1.111-0.511-3.104,0.525-4.449,2.315l-5.887,7.836c-2.151-1.846-4.164-3.492-4.965-3.907
			c-2.195-1.14-9.445,3.192-19.287,7.356c-9.839,4.17-25.051,7.369-35.959,9.609c-1.355,0.278-3.219,0.668-5.456,1.139
			c-0.459-0.158-0.984-0.266-1.585-0.314c0.014-0.014,12.336-12.459-4.348-9.256c0,0-5.899,1.301-13.694,4.393
			c-3.529,1.4-7.334,2.934-10.852,4.492c-0.112,0.049-0.223,0.1-0.334,0.148c-0.456,0.201-0.905,0.407-1.35,0.609
			c-0.125,0.059-0.252,0.116-0.376,0.174c-0.458,0.21-0.909,0.424-1.351,0.637c-0.084,0.039-0.17,0.079-0.254,0.119
			c-1.041,0.502-2.028,1.002-2.948,1.498c-0.118,0.062-0.23,0.127-0.346,0.189c-0.327,0.18-0.645,0.359-0.952,0.535
			c-0.132,0.079-0.262,0.154-0.39,0.229c-0.291,0.173-0.568,0.345-0.836,0.515c-0.109,0.068-0.222,0.138-0.328,0.207
			c-0.359,0.233-0.702,0.468-1.015,0.695c-2.614,1.922-6.015,4.266-8.335,5.843c-3.68,0.837-6.552,1.511-8.134,1.92
			c-8.299,2.158-35.257,9.235-41.037,10.563c-5.78,1.329-36.153,6.75-39.324,7.436c-3.166,0.684-12.288,0.645-21.017,9.48
			c4.859,4.379,9.631,3.658,14.922,2.85c5.291-0.811,23.401-5.953,29.489-7.337c3.539-0.803,12.496-2.739,20.827-4.446
			c4.028-0.822,9.213-1.863,12.789-2.49c0.065-0.012,0.132-0.024,0.197-0.036c0.14-0.025,0.276-0.048,0.411-0.071
			c0.151-0.025,0.298-0.05,0.442-0.073c0.086-0.015,0.172-0.029,0.255-0.042c0.232-0.04,0.457-0.075,0.665-0.108
			c1.563-0.247,4.62-0.819,8.542-1.59c-5.445,4.139-10.741,7.943-13.698,9.416c-7.692,3.827-14.301,8.749-18.812,13.474
			c-2.496,2.613-3.033,4.545-3.033,4.545s-2.501,2.766-2.945,6.304c-2.347,4.534-2.393,8.353-2.617,12.711
			c-0.223,4.356,1.462,15.575,2.711,29.721c0.898,10.159-0.905,23.198-2.375,30.886h0h0c-0.578,3.016-1.104,5.207-1.396,6.076
			h-0.002h0.001h0.001c0,0-4.815,5.34-1.354,5.7c2.834,0.292,15.194,4.673,33.096,0.414c0.036-0.009,0.074-0.021,0.111-0.026
			c0.703-0.169,1.415-0.352,2.134-0.547c0.167-0.047,0.337-0.096,0.506-0.143c0.598-0.168,1.201-0.346,1.81-0.531
			c0.225-0.068,0.449-0.141,0.676-0.212c0.569-0.181,1.144-0.372,1.723-0.571c0.246-0.084,0.491-0.168,0.738-0.256
			c0.602-0.214,1.21-0.443,1.823-0.678c0.217-0.083,0.431-0.161,0.65-0.247c0.831-0.327,1.668-0.669,2.516-1.036
			c0,0,24.18-25,36.927-49.092c12.746-24.09,12.912-30.004,13.581-31.562c0.414-0.965,0.589-1.626,0.665-1.994
			c0.188-0.047,0.375-0.1,0.567-0.154c0.05-0.014,0.098-0.025,0.149-0.041c0.001-0.004,0.001-0.004,0.002-0.002l0,0
			c1.382-0.4,2.835-0.94,4.073-1.67c3.644-2.145,6.312-8.016,3.268-14.07c0.288-0.004,0.583-0.026,0.883-0.062h0.005h-0.003
			c4.004-0.486,8.88-3.783,9.726-6.354c0.714-2.174-2.802-11.825-6.168-16.629c1.194-2.149,3.397-6.362,5.291-10.411
			c0.02-0.04,0.035-0.078,0.053-0.119c10.87-3.383,22.28-7.041,27.489-8.773c9.59-3.191,19.379-7.983,24.299-10.756
			c4.92-2.775,6.234-2.305,7.996-1.405c0.357,0.185,1.047,0.579,1.905,1.083l-6.216,8.273c-1.344,1.791-1.533,3.653-0.419,4.164
			c1.115,0.514,3.107-0.522,4.451-2.315l7.808-10.393c2.358,1.367,4.365,2.544,4.365,2.544s-1.652-1.508-3.748-3.366l6.646-8.845
			C212.134,200.664,212.32,198.803,211.205,198.29z"/>
		<g>
			<polygon fill="#CCCCCC" points="291.804,151.867 132.187,157.493 132.187,50.538 139.226,45.544 			"/>
			<g>
				<g>
					<g>
						<path fill="#FFFFFF" d="M293.736,149.935c0,1.062-0.87,1.933-1.933,1.933H139.226c-1.063,0-1.933-0.871-1.933-1.933V47.478
							c0-1.062,0.869-1.934,1.933-1.934h152.578c1.062,0,1.933,0.871,1.933,1.934V149.935z"/>
					</g>
					<linearGradient id="SVGID_3_" gradientUnits="userSpaceOnUse" x1="137.293" y1="98.7056" x2="293.7363" y2="98.7056">
						<stop  offset="0" style="stop-color:#C6E9FA"/>
						<stop  offset="0.9967" style="stop-color:#A0C3E7"/>
					</linearGradient>
					<path opacity="0.8" fill="url(#SVGID_3_)" d="M293.736,149.935c0,1.062-0.87,1.933-1.933,1.933H139.226
						c-1.063,0-1.933-0.871-1.933-1.933V47.478c0-1.062,0.869-1.934,1.933-1.934h152.578c1.062,0,1.933,0.871,1.933,1.934V149.935z"
						/>
					<path fill="none" stroke="#000000" stroke-linecap="round" stroke-linejoin="round" stroke-miterlimit="10" d="
						M293.736,149.935c0,1.062-0.87,1.933-1.933,1.933H139.226c-1.063,0-1.933-0.871-1.933-1.933V47.478
						c0-1.062,0.869-1.934,1.933-1.934h152.578c1.062,0,1.933,0.871,1.933,1.934V149.935z"/>
					<linearGradient id="SVGID_4_" gradientUnits="userSpaceOnUse" x1="142.0161" y1="98.7061" x2="289.0137" y2="98.7061">
						<stop  offset="0" style="stop-color:#C6E9FA"/>
						<stop  offset="0.9967" style="stop-color:#A4C2D1"/>
					</linearGradient>
					<rect x="142.016" y="49.454" opacity="0.8" fill="url(#SVGID_4_)" width="146.998" height="98.504"/>
					<linearGradient id="SVGID_5_" gradientUnits="userSpaceOnUse" x1="140.5684" y1="98.7061" x2="290.46" y2="98.7061">
						<stop  offset="0" style="stop-color:#C6E9FA"/>
						<stop  offset="0.9967" style="stop-color:#A0C3E7"/>
					</linearGradient>
					<path opacity="0.8" fill="url(#SVGID_5_)" d="M150.182,48.629c-1.063,0-2.548,0.614-3.299,1.365l-4.948,4.949
						c-0.751,0.752-1.367,2.237-1.367,3.3v88.607c0,1.063,0.87,1.933,1.932,1.933h146.027c1.063,0,1.933-0.869,1.933-1.933V50.562
						c0-1.064-0.869-1.934-1.933-1.934H150.182z"/>
					<path fill="none" stroke="#000000" stroke-linecap="round" stroke-linejoin="round" stroke-miterlimit="10" d="M150.182,48.629
						c-1.063,0-2.548,0.614-3.299,1.365l-4.948,4.949c-0.751,0.752-1.367,2.237-1.367,3.3v88.607c0,1.063,0.87,1.933,1.932,1.933
						h146.027c1.063,0,1.933-0.869,1.933-1.933V50.562c0-1.064-0.869-1.934-1.933-1.934H150.182z"/>
					<path fill="#C6E9FA" d="M145.238,144.939V59.588c0-0.451,0.365-1.33,0.684-1.648l4.783-4.783
						c0.319-0.319,1.197-0.684,1.648-0.684H285.79v92.467H145.238z"/>
					<g>
						<g>
							
								<circle fill="#FFFFFF" stroke="#000000" stroke-linecap="round" stroke-linejoin="round" stroke-miterlimit="10" cx="159.107" cy="131.167" r="15.635"/>
							<linearGradient id="SVGID_6_" gradientUnits="userSpaceOnUse" x1="144.249" y1="131.168" x2="173.9644" y2="131.168">
								<stop  offset="0" style="stop-color:#C6E9FA"/>
								<stop  offset="0.9967" style="stop-color:#A0C3E7"/>
							</linearGradient>
							<circle fill="url(#SVGID_6_)" cx="159.107" cy="131.167" r="14.855"/>
							<circle fill="#C6E9FA" cx="159.107" cy="131.168" r="12.182"/>
						</g>
						<g>
							
								<circle fill="#FFFFFF" stroke="#000000" stroke-linecap="round" stroke-linejoin="round" stroke-miterlimit="10" cx="196.712" cy="131.167" r="15.634"/>
							<linearGradient id="SVGID_7_" gradientUnits="userSpaceOnUse" x1="181.854" y1="131.168" x2="211.5698" y2="131.168">
								<stop  offset="0" style="stop-color:#C6E9FA"/>
								<stop  offset="0.9967" style="stop-color:#A0C3E7"/>
							</linearGradient>
							<circle fill="url(#SVGID_7_)" cx="196.712" cy="131.167" r="14.855"/>
							<circle fill="#C6E9FA" cx="196.712" cy="131.168" r="12.182"/>
						</g>
						<g>
							
								<circle fill="#FFFFFF" stroke="#000000" stroke-linecap="round" stroke-linejoin="round" stroke-miterlimit="10" cx="234.317" cy="131.167" r="15.634"/>
							<linearGradient id="SVGID_8_" gradientUnits="userSpaceOnUse" x1="219.4595" y1="131.168" x2="249.1748" y2="131.168">
								<stop  offset="0" style="stop-color:#C6E9FA"/>
								<stop  offset="0.9967" style="stop-color:#A0C3E7"/>
							</linearGradient>
							<circle fill="url(#SVGID_8_)" cx="234.317" cy="131.167" r="14.855"/>
							<circle fill="#C6E9FA" cx="234.317" cy="131.168" r="12.182"/>
						</g>
						<g>
							
								<circle fill="#FFFFFF" stroke="#000000" stroke-linecap="round" stroke-linejoin="round" stroke-miterlimit="10" cx="271.923" cy="131.167" r="15.634"/>
							<linearGradient id="SVGID_9_" gradientUnits="userSpaceOnUse" x1="257.0645" y1="131.168" x2="286.7793" y2="131.168">
								<stop  offset="0" style="stop-color:#C6E9FA"/>
								<stop  offset="0.9967" style="stop-color:#A0C3E7"/>
							</linearGradient>
							<circle fill="url(#SVGID_9_)" cx="271.922" cy="131.167" r="14.856"/>
							<circle fill="#C6E9FA" cx="271.923" cy="131.168" r="12.182"/>
						</g>
					</g>
					<g>
						<g>
							
								<circle fill="#FFFFFF" stroke="#000000" stroke-linecap="round" stroke-linejoin="round" stroke-miterlimit="10" cx="159.107" cy="98.282" r="15.634"/>
							<linearGradient id="SVGID_10_" gradientUnits="userSpaceOnUse" x1="144.249" y1="98.2812" x2="173.9644" y2="98.2812">
								<stop  offset="0" style="stop-color:#C6E9FA"/>
								<stop  offset="0.9967" style="stop-color:#A0C3E7"/>
							</linearGradient>
							<circle fill="url(#SVGID_10_)" cx="159.107" cy="98.281" r="14.856"/>
							<circle fill="#C6E9FA" cx="159.107" cy="98.282" r="12.182"/>
						</g>
						<g>
							
								<circle fill="#FFFFFF" stroke="#000000" stroke-linecap="round" stroke-linejoin="round" stroke-miterlimit="10" cx="196.712" cy="98.282" r="15.633"/>
							<linearGradient id="SVGID_11_" gradientUnits="userSpaceOnUse" x1="181.854" y1="98.2812" x2="211.5698" y2="98.2812">
								<stop  offset="0" style="stop-color:#C6E9FA"/>
								<stop  offset="0.9967" style="stop-color:#A0C3E7"/>
							</linearGradient>
							<circle fill="url(#SVGID_11_)" cx="196.712" cy="98.281" r="14.856"/>
							<circle fill="#C6E9FA" cx="196.711" cy="98.282" r="12.182"/>
						</g>
						<g>
							
								<circle fill="#FFFFFF" stroke="#000000" stroke-linecap="round" stroke-linejoin="round" stroke-miterlimit="10" cx="234.317" cy="98.282" r="15.633"/>
							<linearGradient id="SVGID_12_" gradientUnits="userSpaceOnUse" x1="219.4595" y1="98.2812" x2="249.1748" y2="98.2812">
								<stop  offset="0" style="stop-color:#C6E9FA"/>
								<stop  offset="0.9967" style="stop-color:#A0C3E7"/>
							</linearGradient>
							<circle fill="url(#SVGID_12_)" cx="234.317" cy="98.281" r="14.855"/>
							<circle fill="#C6E9FA" cx="234.317" cy="98.282" r="12.182"/>
						</g>
						<g>
							
								<circle fill="#FFFFFF" stroke="#000000" stroke-linecap="round" stroke-linejoin="round" stroke-miterlimit="10" cx="271.923" cy="98.282" r="15.634"/>
							<linearGradient id="SVGID_13_" gradientUnits="userSpaceOnUse" x1="257.0645" y1="98.2812" x2="286.7793" y2="98.2812">
								<stop  offset="0" style="stop-color:#C6E9FA"/>
								<stop  offset="0.9967" style="stop-color:#A0C3E7"/>
							</linearGradient>
							<circle fill="url(#SVGID_13_)" cx="271.922" cy="98.281" r="14.856"/>
							<circle fill="#C6E9FA" cx="271.922" cy="98.282" r="12.182"/>
						</g>
					</g>
					<g>
						<g>
							
								<circle fill="#FFFFFF" stroke="#000000" stroke-linecap="round" stroke-linejoin="round" stroke-miterlimit="10" cx="159.107" cy="65.396" r="15.635"/>
							<linearGradient id="SVGID_14_" gradientUnits="userSpaceOnUse" x1="144.249" y1="65.3955" x2="173.9644" y2="65.3955">
								<stop  offset="0" style="stop-color:#C6E9FA"/>
								<stop  offset="0.9967" style="stop-color:#A0C3E7"/>
							</linearGradient>
							<circle fill="url(#SVGID_14_)" cx="159.107" cy="65.395" r="14.855"/>
							<path fill="#C6E9FA" d="M169.521,71.715c-3.491,5.753-10.984,7.585-16.735,4.095c-5.751-3.489-7.583-10.982-4.093-16.735
								c3.491-5.749,10.983-7.582,16.734-4.092C171.178,58.474,173.012,65.964,169.521,71.715z"/>
						</g>
						<g>
							
								<circle fill="#FFFFFF" stroke="#000000" stroke-linecap="round" stroke-linejoin="round" stroke-miterlimit="10" cx="196.712" cy="65.396" r="15.634"/>
							<linearGradient id="SVGID_15_" gradientUnits="userSpaceOnUse" x1="181.854" y1="65.3955" x2="211.5698" y2="65.3955">
								<stop  offset="0" style="stop-color:#C6E9FA"/>
								<stop  offset="0.9967" style="stop-color:#A0C3E7"/>
							</linearGradient>
							<circle fill="url(#SVGID_15_)" cx="196.712" cy="65.395" r="14.855"/>
							<path fill="#C6E9FA" d="M207.125,71.715c-3.489,5.753-10.981,7.585-16.733,4.095c-5.752-3.489-7.583-10.982-4.094-16.735
								c3.491-5.749,10.982-7.582,16.733-4.092C208.782,58.474,210.616,65.964,207.125,71.715z"/>
						</g>
						<g>
							
								<circle fill="#FFFFFF" stroke="#000000" stroke-linecap="round" stroke-linejoin="round" stroke-miterlimit="10" cx="234.317" cy="65.396" r="15.634"/>
							<linearGradient id="SVGID_16_" gradientUnits="userSpaceOnUse" x1="219.4595" y1="65.3955" x2="249.1748" y2="65.3955">
								<stop  offset="0" style="stop-color:#C6E9FA"/>
								<stop  offset="0.9967" style="stop-color:#A0C3E7"/>
							</linearGradient>
							<circle fill="url(#SVGID_16_)" cx="234.317" cy="65.395" r="14.855"/>
							<path fill="#C6E9FA" d="M244.731,71.715c-3.492,5.753-10.984,7.585-16.735,4.095c-5.751-3.489-7.583-10.982-4.093-16.735
								c3.49-5.749,10.982-7.582,16.733-4.092C246.389,58.474,248.221,65.964,244.731,71.715z"/>
						</g>
						<g>
							
								<circle fill="#FFFFFF" stroke="#000000" stroke-linecap="round" stroke-linejoin="round" stroke-miterlimit="10" cx="271.923" cy="65.396" r="15.635"/>
							<linearGradient id="SVGID_17_" gradientUnits="userSpaceOnUse" x1="257.0645" y1="65.3955" x2="286.7793" y2="65.3955">
								<stop  offset="0" style="stop-color:#C6E9FA"/>
								<stop  offset="0.9967" style="stop-color:#A0C3E7"/>
							</linearGradient>
							<circle fill="url(#SVGID_17_)" cx="271.922" cy="65.395" r="14.856"/>
							<path fill="#C6E9FA" d="M282.336,71.715c-3.491,5.753-10.983,7.585-16.734,4.095c-5.751-3.489-7.584-10.982-4.093-16.735
								c3.49-5.749,10.982-7.582,16.732-4.092C283.993,58.474,285.827,65.964,282.336,71.715z"/>
						</g>
					</g>
				</g>
				<g>
					<path fill="#DDDDDD" d="M147.031,102.145c-0.287-1.193,0.789-2.476,2.405-2.866l18.113-4.368
						c1.618-0.39,3.161,0.263,3.448,1.455c0.288,1.194-0.788,2.476-2.405,2.867l-18.114,4.368
						C148.862,103.988,147.319,103.34,147.031,102.145z"/>
					<path fill="#FFFFFF" d="M162.58,98.396c-0.159-0.661,0.435-1.37,1.33-1.586l3.996-0.965c0.893-0.217,1.747,0.146,1.905,0.806
						c0.161,0.659-0.437,1.368-1.329,1.585l-3.996,0.963C163.591,99.417,162.74,99.053,162.58,98.396z"/>
					<path fill="none" stroke="#000000" stroke-linecap="round" stroke-linejoin="round" stroke-miterlimit="10" d="
						M147.031,102.145c-0.287-1.193,0.789-2.476,2.405-2.866l18.113-4.368c1.618-0.39,3.161,0.263,3.448,1.455
						c0.288,1.194-0.788,2.476-2.405,2.867l-18.114,4.368C148.862,103.988,147.319,103.34,147.031,102.145z"/>
				</g>
				<g>
					<path fill="#DDDDDD" d="M259.94,102.145c-0.287-1.193,0.788-2.476,2.404-2.866l18.113-4.368c1.617-0.39,3.16,0.263,3.447,1.455
						c0.289,1.194-0.788,2.476-2.404,2.867l-18.113,4.368C261.771,103.988,260.228,103.34,259.94,102.145z"/>
					<path fill="#FFFFFF" d="M275.487,98.396c-0.158-0.661,0.436-1.37,1.331-1.586l3.996-0.965c0.893-0.217,1.746,0.146,1.905,0.806
						c0.16,0.659-0.438,1.368-1.33,1.585l-3.994,0.963C276.5,99.417,275.648,99.053,275.487,98.396z"/>
					<path fill="none" stroke="#000000" stroke-linecap="round" stroke-linejoin="round" stroke-miterlimit="10" d="M259.94,102.145
						c-0.287-1.193,0.788-2.476,2.404-2.866l18.113-4.368c1.617-0.39,3.16,0.263,3.447,1.455c0.289,1.194-0.788,2.476-2.404,2.867
						l-18.113,4.368C261.771,103.988,260.228,103.34,259.94,102.145z"/>
				</g>
				<g>
					<path fill="#DDDDDD" d="M188.137,108.109c-0.882-0.857-0.659-2.514,0.499-3.709l12.961-13.385
						c1.158-1.194,2.81-1.471,3.691-0.616c0.883,0.854,0.66,2.514-0.497,3.709l-12.962,13.386
						C190.67,108.686,189.02,108.964,188.137,108.109z"/>
					<path fill="#FFFFFF" d="M199.264,96.622c-0.487-0.474-0.365-1.391,0.275-2.052l2.859-2.955c0.639-0.66,1.553-0.812,2.04-0.34
						c0.489,0.473,0.364,1.391-0.274,2.051l-2.859,2.953C200.665,96.941,199.751,97.09,199.264,96.622z"/>
					<path fill="none" stroke="#000000" stroke-linecap="round" stroke-linejoin="round" stroke-miterlimit="10" d="
						M188.137,108.109c-0.882-0.857-0.659-2.514,0.499-3.709l12.961-13.385c1.158-1.194,2.81-1.471,3.691-0.616
						c0.883,0.854,0.66,2.514-0.497,3.709l-12.962,13.386C190.67,108.686,189.02,108.964,188.137,108.109z"/>
				</g>
				<g>
					<path fill="#DDDDDD" d="M223.323,93.681c0.558-1.097,2.207-1.372,3.689-0.621l16.62,8.424c1.483,0.753,2.235,2.248,1.68,3.343
						c-0.556,1.097-2.206,1.374-3.69,0.623l-16.619-8.426C223.521,96.271,222.768,94.776,223.323,93.681z"/>
					<path fill="#FFFFFF" d="M237.588,100.914c0.309-0.607,1.22-0.762,2.042-0.346l3.668,1.859c0.818,0.413,1.234,1.241,0.926,1.848
						c-0.305,0.605-1.221,0.759-2.039,0.344l-3.666-1.858C237.697,102.345,237.284,101.516,237.588,100.914z"/>
					<path fill="none" stroke="#000000" stroke-linecap="round" stroke-linejoin="round" stroke-miterlimit="10" d="M223.323,93.681
						c0.558-1.097,2.207-1.372,3.689-0.621l16.62,8.424c1.483,0.753,2.235,2.248,1.68,3.343c-0.556,1.097-2.206,1.374-3.69,0.623
						l-16.619-8.426C223.521,96.271,222.768,94.776,223.323,93.681z"/>
				</g>
				<circle opacity="0.8" fill="#D94732" cx="271.922" cy="98.282" r="13.604"/>
				<circle opacity="0.8" fill="#D94732" cx="234.317" cy="98.282" r="13.604"/>
				<circle opacity="0.8" fill="#D94732" cx="196.712" cy="98.282" r="13.603"/>
				<circle opacity="0.8" fill="#D94732" cx="159.107" cy="98.282" r="13.604"/>
			</g>
		</g>
		<g>
			<polygon fill="#CCCCCC" points="289.581,334.278 129.964,339.904 129.964,232.949 137.002,227.955 			"/>
			<g>
				<g>
					<g>
						<path fill="#FFFFFF" d="M291.183,332.346c0,1.063-0.87,1.933-1.933,1.933H136.672c-1.063,0-1.932-0.869-1.932-1.933V229.889
							c0-1.06,0.869-1.934,1.932-1.934H289.25c1.062,0,1.933,0.874,1.933,1.934V332.346z"/>
					</g>
					<linearGradient id="SVGID_18_" gradientUnits="userSpaceOnUse" x1="134.7397" y1="281.1172" x2="291.1826" y2="281.1172">
						<stop  offset="0" style="stop-color:#C6E9FA"/>
						<stop  offset="0.9967" style="stop-color:#A4C2D1"/>
					</linearGradient>
					<path opacity="0.8" fill="url(#SVGID_18_)" d="M291.183,332.346c0,1.063-0.87,1.933-1.933,1.933H136.672
						c-1.063,0-1.932-0.869-1.932-1.933V229.889c0-1.06,0.869-1.934,1.932-1.934H289.25c1.062,0,1.933,0.874,1.933,1.934V332.346z"
						/>
					<path fill="none" stroke="#000000" stroke-linecap="round" stroke-linejoin="round" stroke-miterlimit="10" d="
						M291.183,332.346c0,1.063-0.87,1.933-1.933,1.933H136.672c-1.063,0-1.932-0.869-1.932-1.933V229.889
						c0-1.06,0.869-1.934,1.932-1.934H289.25c1.062,0,1.933,0.874,1.933,1.934V332.346z"/>
					<linearGradient id="SVGID_19_" gradientUnits="userSpaceOnUse" x1="139.4624" y1="281.1172" x2="286.46" y2="281.1172">
						<stop  offset="0" style="stop-color:#C6E9FA"/>
						<stop  offset="0.9967" style="stop-color:#A4C2D1"/>
					</linearGradient>
					<rect x="139.462" y="231.865" opacity="0.8" fill="url(#SVGID_19_)" width="146.998" height="98.504"/>
					<linearGradient id="SVGID_20_" gradientUnits="userSpaceOnUse" x1="138.0142" y1="281.1172" x2="287.9062" y2="281.1172">
						<stop  offset="0" style="stop-color:#C6E9FA"/>
						<stop  offset="0.9967" style="stop-color:#A4C2D1"/>
					</linearGradient>
					<path opacity="0.8" fill="url(#SVGID_20_)" d="M147.629,231.04c-1.063,0-2.548,0.613-3.301,1.365l-4.946,4.949
						c-0.752,0.752-1.368,2.235-1.368,3.299v88.608c0,1.063,0.87,1.933,1.933,1.933h146.027c1.063,0,1.933-0.869,1.933-1.933v-96.29
						c0-1.062-0.869-1.932-1.933-1.932H147.629z"/>
					<path fill="none" stroke="#000000" stroke-linecap="round" stroke-linejoin="round" stroke-miterlimit="10" d="M147.629,231.04
						c-1.063,0-2.548,0.613-3.301,1.365l-4.946,4.949c-0.752,0.752-1.368,2.235-1.368,3.299v88.608c0,1.063,0.87,1.933,1.933,1.933
						h146.027c1.063,0,1.933-0.869,1.933-1.933v-96.29c0-1.062-0.869-1.932-1.933-1.932H147.629z"/>
					<path fill="#C6E9FA" d="M142.686,327.352v-85.353c0-0.451,0.363-1.329,0.683-1.648l4.784-4.785
						c0.319-0.317,1.197-0.68,1.647-0.68h133.437v92.466H142.686z"/>
					<g>
						
							<circle fill="#FFFFFF" stroke="#000000" stroke-linecap="round" stroke-linejoin="round" stroke-miterlimit="10" cx="163.531" cy="258.859" r="22.264"/>
						<linearGradient id="SVGID_21_" gradientUnits="userSpaceOnUse" x1="142.3721" y1="258.8594" x2="184.689" y2="258.8594">
							<stop  offset="0" style="stop-color:#C6E9FA"/>
							<stop  offset="0.9967" style="stop-color:#A4C2D1"/>
						</linearGradient>
						<path fill="url(#SVGID_21_)" d="M181.615,269.834c-6.061,9.988-19.073,13.171-29.061,7.108
							c-9.988-6.062-13.171-19.074-7.109-29.061c6.062-9.987,19.073-13.17,29.061-7.107
							C184.495,246.833,187.678,259.846,181.615,269.834z"/>
						<path fill="#C6E9FA" d="M177.966,267.619c-4.972,8.189-15.64,10.801-23.831,5.829c-8.19-4.972-10.801-15.641-5.831-23.831
							c4.971-8.188,15.64-10.8,23.831-5.829C180.326,248.76,182.937,259.429,177.966,267.619z"/>
						<path opacity="0.8" fill="#D94732" d="M170.915,254.905c4.491-0.904-15.116,0.344-19.7,2.242
							c-4.584,1.899-6.589,5.295-4.587,8.273c2.001,2.977,7.287,5.106,11.756,1.803c4.468-3.305,9.617-5.594,14.262-6.297
							c4.645-0.708,5.778-2.45,5.936-3.779c0.159-1.326-4.738,0.736-9.48,2.877c-4.742,2.14-15.732,5.574-16.593,3.273
							C151.646,260.998,153.763,258.352,170.915,254.905z"/>
					</g>
					<g>
						
							<circle fill="#FFFFFF" stroke="#000000" stroke-linecap="round" stroke-linejoin="round" stroke-miterlimit="10" cx="212.813" cy="258.859" r="22.264"/>
						<linearGradient id="SVGID_22_" gradientUnits="userSpaceOnUse" x1="191.6562" y1="258.8594" x2="233.9727" y2="258.8594">
							<stop  offset="0" style="stop-color:#C6E9FA"/>
							<stop  offset="0.9967" style="stop-color:#A4C2D1"/>
						</linearGradient>
						<path fill="url(#SVGID_22_)" d="M230.899,269.834c-6.062,9.988-19.073,13.171-29.061,7.108
							c-9.989-6.062-13.171-19.074-7.108-29.061c6.062-9.987,19.072-13.17,29.06-7.107
							C233.778,246.833,236.962,259.846,230.899,269.834z"/>
						<path fill="#C6E9FA" d="M227.249,267.619c-4.97,8.189-15.64,10.801-23.83,5.829c-8.189-4.972-10.8-15.641-5.831-23.831
							c4.972-8.188,15.641-10.8,23.831-5.829C229.61,248.76,232.221,259.429,227.249,267.619z"/>
					</g>
					<g>
						
							<circle fill="#FFFFFF" stroke="#000000" stroke-linecap="round" stroke-linejoin="round" stroke-miterlimit="10" cx="262.099" cy="258.859" r="22.264"/>
						<linearGradient id="SVGID_23_" gradientUnits="userSpaceOnUse" x1="240.9395" y1="258.8594" x2="283.2559" y2="258.8594">
							<stop  offset="0" style="stop-color:#C6E9FA"/>
							<stop  offset="0.9967" style="stop-color:#A4C2D1"/>
						</linearGradient>
						<path fill="url(#SVGID_23_)" d="M280.183,269.834c-6.061,9.988-19.072,13.171-29.061,7.108
							c-9.987-6.062-13.171-19.074-7.109-29.061c6.063-9.987,19.073-13.17,29.061-7.107
							C283.062,246.833,286.245,259.846,280.183,269.834z"/>
						<path fill="#C6E9FA" d="M276.534,267.619c-4.971,8.189-15.641,10.801-23.832,5.829c-8.189-4.972-10.799-15.641-5.828-23.831
							c4.971-8.188,15.641-10.8,23.83-5.829C278.895,248.76,281.505,259.429,276.534,267.619z"/>
					</g>
					<g>
						<path fill="#FFFFFF" stroke="#000000" stroke-linecap="round" stroke-linejoin="round" stroke-miterlimit="10" d="
							M182.563,316.795c-6.38,10.511-20.073,13.863-30.585,7.479c-10.511-6.376-13.86-20.07-7.48-30.584
							c6.379-10.51,20.073-13.859,30.584-7.48C185.593,292.588,188.943,306.284,182.563,316.795z"/>
						<linearGradient id="SVGID_24_" gradientUnits="userSpaceOnUse" x1="142.3721" y1="305.2432" x2="184.689" y2="305.2432">
							<stop  offset="0" style="stop-color:#C6E9FA"/>
							<stop  offset="0.9967" style="stop-color:#A4C2D1"/>
						</linearGradient>
						<path fill="url(#SVGID_24_)" d="M181.615,316.218c-6.061,9.991-19.073,13.171-29.061,7.109
							c-9.988-6.062-13.171-19.072-7.109-29.061c6.062-9.986,19.073-13.168,29.061-7.109
							C184.495,293.22,187.678,306.231,181.615,316.218z"/>
						<circle fill="#C6E9FA" cx="163.136" cy="305.004" r="17.348"/>
					</g>
					<g>
						<path fill="#FFFFFF" stroke="#000000" stroke-linecap="round" stroke-linejoin="round" stroke-miterlimit="10" d="
							M231.847,316.795c-6.379,10.511-20.072,13.863-30.584,7.479c-10.512-6.376-13.861-20.07-7.482-30.584
							c6.38-10.51,20.074-13.859,30.586-7.48C234.877,292.588,238.228,306.284,231.847,316.795z"/>
						<linearGradient id="SVGID_25_" gradientUnits="userSpaceOnUse" x1="191.6562" y1="305.2432" x2="233.9727" y2="305.2432">
							<stop  offset="0" style="stop-color:#C6E9FA"/>
							<stop  offset="0.9967" style="stop-color:#A4C2D1"/>
						</linearGradient>
						<path fill="url(#SVGID_25_)" d="M230.899,316.218c-6.062,9.991-19.073,13.171-29.061,7.109
							c-9.989-6.062-13.171-19.072-7.108-29.061c6.062-9.986,19.072-13.168,29.06-7.109
							C233.778,293.22,236.962,306.231,230.899,316.218z"/>
						<circle fill="#C6E9FA" cx="212.419" cy="305.004" r="17.347"/>
					</g>
					<g>
						<path fill="#FFFFFF" stroke="#000000" stroke-linecap="round" stroke-linejoin="round" stroke-miterlimit="10" d="
							M281.132,316.795c-6.379,10.511-20.072,13.863-30.585,7.479c-10.511-6.376-13.86-20.07-7.481-30.584
							c6.379-10.51,20.073-13.859,30.585-7.48C284.161,292.588,287.512,306.284,281.132,316.795z"/>
						<linearGradient id="SVGID_26_" gradientUnits="userSpaceOnUse" x1="240.9395" y1="305.2432" x2="283.2559" y2="305.2432">
							<stop  offset="0" style="stop-color:#C6E9FA"/>
							<stop  offset="0.9967" style="stop-color:#A4C2D1"/>
						</linearGradient>
						<path fill="url(#SVGID_26_)" d="M280.183,316.218c-6.061,9.991-19.072,13.171-29.061,7.109
							c-9.987-6.062-13.171-19.072-7.109-29.061c6.063-9.986,19.073-13.168,29.061-7.109
							C283.062,293.22,286.245,306.231,280.183,316.218z"/>
						<circle fill="#C6E9FA" cx="261.704" cy="305.004" r="17.347"/>
					</g>
				</g>
				<g>
					<path fill="#DDDDDD" d="M147.523,262.625c-0.374-1.557,1.029-3.227,3.133-3.735l23.598-5.693
						c2.106-0.505,4.118,0.342,4.491,1.896c0.375,1.557-1.027,3.228-3.133,3.736l-23.598,5.69
						C149.91,265.027,147.899,264.177,147.523,262.625z"/>
					<path fill="#FFFFFF" d="M167.78,257.74c-0.208-0.86,0.567-1.784,1.733-2.067l5.206-1.257c1.162-0.28,2.275,0.192,2.482,1.05
						c0.208,0.859-0.57,1.783-1.732,2.065l-5.205,1.254C169.098,259.068,167.988,258.599,167.78,257.74z"/>
					<path fill="none" stroke="#000000" stroke-linecap="round" stroke-linejoin="round" stroke-miterlimit="10" d="
						M147.523,262.625c-0.374-1.557,1.029-3.227,3.133-3.735l23.598-5.693c2.106-0.505,4.118,0.342,4.491,1.896
						c0.375,1.557-1.027,3.228-3.133,3.736l-23.598,5.69C149.91,265.027,147.899,264.177,147.523,262.625z"/>
				</g>
			</g>
		</g>
		<g>
			<g>
				<g>
					<polygon fill="#FCDCCE" points="54.299,286.533 27.425,329.505 55.526,370.263 64.915,369.616 95.383,303.481 					"/>
					<path fill="#F1C3B3" d="M60.729,369.905l4.186-0.289l30.468-66.135l-41.084-16.948l-26.874,42.972l0.942,1.367
						c4.464-6.586,11.754-17.249,14.498-20.752c4.07-5.197,21.304,3.695,28.665,9.11c7.36,5.415,5.82,13.998,1.437,23.966
						C70.375,349.091,64.831,361.083,60.729,369.905z"/>
					<polygon fill="none" stroke="#000000" stroke-linecap="round" stroke-linejoin="round" stroke-miterlimit="10" points="
						54.299,286.533 27.425,329.505 55.526,370.263 64.915,369.616 95.383,303.481 					"/>
				</g>
				<g>
					<g>
						<path fill="#C4D2D2" d="M113.093,181.079c0,0,10.688-0.368,15.41,3.512c4.722,3.879,18.276,15.657,21.876,18.818
							c3.6,3.16,9.133,21.447,8.234,24.103c-0.902,2.659-6.285,4.503-10.256,3.018c2.861,7.694,0.238,13.069-3.284,14.043
							c-3.521,0.971-8.834-0.491-8.834-0.491s-2.516,4.387-10.617,0.387c-9.77,1.587-15.04-2.023-15.312-2.229
							c-0.271-0.209-25.719-8.843-25.719-8.843l7.672-29.331L113.093,181.079z"/>
						<g>
							<path fill="#B1BFBF" d="M126.056,192.085c0,0-0.086,0.209-0.23,0.559C125.995,192.296,126.056,192.085,126.056,192.085z"/>
							<path fill="#B1BFBF" d="M110.312,242.239c0.271,0.205,5.541,3.815,15.311,2.229c8.103,4,10.618-0.387,10.618-0.387
								s2.314,0.638,4.902,0.791c0-0.002,0-0.002,0.001-0.002c-5.57-3.559-3.372-11.111-3.372-11.111l0.541-17.158
								c0,0-0.046-4.844-1.438-6.602c-1.393-1.758-3.951-1.341-3.951-1.341s-1.351-2.433-2.889-2.835
								c-1.538-0.403-2.442-3.627-2.442-3.627s-1.172,0.348-1.832,0.043c-0.662-0.307,1.961-6.376,1.174-7.488
								c-0.785-1.106-3.29,6.368-3.779,5.889c-0.409-0.406,1.912-6.158,2.671-7.996c-0.449,0.912-1.668,2.781-4.669,4.42
								c-4.148,2.266-15.862-4.237-15.862-4.237l-3.835,5.353l-8.459,26.359l0.588,11.057l15.592,6.221
								C109.871,242.06,110.278,242.209,110.312,242.239z"/>
						</g>
						<path fill="none" stroke="#000000" stroke-linecap="round" stroke-linejoin="round" stroke-miterlimit="10" d="
							M113.093,181.079c0,0,10.688-0.368,15.41,3.512c4.722,3.879,18.276,15.657,21.876,18.818c3.6,3.16,9.133,21.447,8.234,24.103
							c-0.902,2.659-6.285,4.503-10.256,3.018c2.861,7.694,0.238,13.069-3.284,14.043c-3.521,0.971-8.834-0.491-8.834-0.491
							s-2.516,4.387-10.617,0.387c-9.77,1.587-15.04-2.023-15.312-2.229c-0.271-0.209-25.719-8.843-25.719-8.843l7.672-29.331
							L113.093,181.079z"/>
						<path fill="none" stroke="#000000" stroke-linecap="round" stroke-linejoin="round" stroke-miterlimit="10" d="
							M149.21,230.792c0,0-8.552-5.281-10.655-8.205c-2.105-2.928-9.086-10.607-10.145-10.965c-1.059-0.359-2.696,0.121-3.042-1.031
							c-0.348-1.153-1.842-2.838-2.721-3.284c-0.882-0.446-3.966-2.229-3.966-2.229s-18.201,1.229-22.308,0.106"/>
						<path fill="none" stroke="#000000" stroke-linecap="round" stroke-linejoin="round" stroke-miterlimit="10" d="
							M136.24,244.081c0,0-6.466-6.922-9.364-10.117c-2.897-3.192-9.375-11.07-10.809-13.145c-1.434-2.069-6.279-4.744-7.691-5.373
							c-1.408-0.625-4.627-1.57-4.627-1.57l-9.575-2.215"/>
						<path fill="none" stroke="#000000" stroke-linecap="round" stroke-linejoin="round" stroke-miterlimit="10" d="
							M118.68,205.078c0,0,1.792-0.181,3.2-2.297c1.407-2.111,4.458-8.3,5.055-8.03c0.601,0.274-0.465,8.807-3.642,9.289"/>
						<path fill="none" stroke="#000000" stroke-linecap="round" stroke-linejoin="round" stroke-miterlimit="10" d="
							M121.168,206.497c0,0,4.964-1.6,7.474-5.75"/>
						<path fill="none" stroke="#000000" stroke-linecap="round" stroke-linejoin="round" stroke-miterlimit="10" d="
							M128.41,211.622c0,0,3.442-0.299,5.69-4.881"/>
						<path fill="none" stroke="#000000" stroke-linecap="round" stroke-linejoin="round" stroke-miterlimit="10" d="
							M112.133,215.978c0,0,5.585-0.926,6.104-7.807"/>
						<path fill="none" stroke="#000000" stroke-linecap="round" stroke-linejoin="round" stroke-miterlimit="10" d="
							M115.525,210.561c0,0-0.178,4.604-5.095,4.837"/>
					</g>
					<g>
						<path fill="#C4D2D2" d="M58.006,202.642c-2.425,1.907-2.96,3.799-2.96,3.799s-2.431,2.07-2.894,5.742
							c-2.301,4.045-2.384,8.166-2.645,12.811c-0.258,4.643,1.245,17.429,2.297,33.23c1.054,15.804-2.977,35.721-4.003,38.674
							c0,0-4.68,4.001-1.36,5.676c3.322,1.672,20.237,15.26,44.011,12.85c0,0,23.482-18.126,35.973-39.512
							c12.49-21.387,12.71-27.737,13.369-29.181c0.658-1.44,0.716-2.265,0.716-2.265s1.567-1.978,1.314-3.028
							c-0.249-1.05-0.751-3.577-0.379-4.733c0.371-1.162,0.856-1.981,0.748-3.03c-0.109-1.049,0.885-4.524,1.96-6.467
							c1.074-1.943,1.2-5.854,1.2-5.854s2.217-1.862,2.334-2.654c0.117-0.797,0.117-0.797,0.117-0.797s0.881-0.902,1.083-2.006
							c0.203-1.107,2.573-6.653,3.286-7.643c0.713-0.99,3.536-5.743,5.877-10.383c2.34-4.642,2.529-9.516-2.339-11.828
							c0,0,11.986-8.927-4.081-11.648c0,0-5.679-0.785-13.198-0.326c-7.52,0.457-16.357,1.119-20.591,2.976
							c-4.233,1.856-10.616,4.19-10.616,4.19c-0.818-0.022-23.585,12.49-31.012,13.785
							C68.785,196.311,62.388,199.194,58.006,202.642z M103.18,221.161c0,0,3.577-5.154,4.395-6.134
							c0.819-0.981,1.303-1.71,1.977-3.878c0.678-2.166,9.067-8.166,11.909-10.354c2.844-2.186,4.85-3.96,6.161-5.177
							c1.142,0.087,1.281-0.329,2.396-1.021c1.86,0.174,5.231-1.955,5.231-1.955c-5.72,6.93-14.911,26.799-14.911,26.799
							s-2.04,3.221-3.773,5.687c-1.729,2.47-4.435,4.518-6.52,4.508C107.958,229.63,103.18,221.161,103.18,221.161z"/>
						<g>
							<path fill="#B1BFBF" d="M129.596,174.733l-12.196,2.502c0.148-0.064,0.297-0.127,0.44-0.192
								C120.462,175.894,124.851,175.202,129.596,174.733z"/>
						</g>
						<g>
							<path fill="#B1BFBF" d="M90.928,231.213c-5.892-0.964,6.749-0.775,8.278-2.169c1.155-1.055-4.224-4.244-4.857-4.521
								c-3.017-1.337-6.068-2.624-9.146-3.83c-3.193-1.257-8.072,0.178-10.776-2.352c2.788-0.461,4.979-0.887,7.75-0.055
								c1.6,0.482,3.115,1.156,4.749,1.569c1.322,0.335,2.779,1.108,4.178,0.955c2.145-0.233,0.509-3.256-0.42-4.116
								c-2.304-2.132-5.577-3.289-8.344-4.684c-1.317-0.666-2.609-1.242-3.987-1.715c-1.553-0.533-3.446-0.661-4.897-1.49
								c1.803-1.193,4.812,0.455,6.479,1.295c2.095,1.059,4.13,2.23,6.234,3.269c1.573,0.775,3.96,2.328,5.7,1.775
								c1.285-0.409,2.249-1.318,2.195-2.728c-0.045-1.246-1.141-3.898-2.21-4.568c2.584,1.619,2.738-0.508,2.738-0.508
								c3.484,3.5,11.419,4.322,13.013-5.273c6.568-2.29,16.685-5.648,19.414-13.578c0.415,0.707,2.37,0.992,3.161-1.613
								c3.249,0.801,22.522-3.334,24.871-6.147c-3.159,4.07-3.682,4.167-3.682,4.167s-8.718-0.682-16.363,8.052
								c0.084-0.103,0.167-0.206,0.246-0.305c0,0-3.373,2.13-5.232,1.958c-1.116,0.689-1.252,1.105-2.396,1.018
								c-1.312,1.217-3.318,2.992-6.161,5.178c-2.841,2.188-11.231,8.188-11.908,10.354c-0.674,2.166-1.158,2.896-1.977,3.877
								c-0.818,0.979-4.396,6.133-4.396,6.133s4.779,8.471,6.864,8.478C110.044,229.637,96.819,232.173,90.928,231.213z"/>
							<path fill="#B1BFBF" d="M129.996,200.632c-0.002,0.002-0.002,0.005-0.003,0.005c-1.391,2.858-2.888,5.58-4.413,8.138
								C126.95,206.114,128.472,203.274,129.996,200.632z"/>
						</g>
						<g>
							<path fill="#B1BFBF" d="M129.026,237.549c-0.097,0.022-0.153,0.036-0.153,0.036S128.929,237.571,129.026,237.549z"/>
							<path fill="#B1BFBF" d="M71.676,314.163l0.157-0.379c0,0,17.758,1.877,16.361-3.646c-4.529-0.069-9.28-0.468-9.283-0.47
								c6.107,0.514,17.605-4.205,20.955-9.461c-3.355-0.862-7.703,0.258-11.302,0.084c-7.864-0.383-17.918,2.303-25.04-2.125
								c2.714-1.443,6.262-0.717,9.361-0.693c2.906,0.021,5.857-0.695,8.674-1.079c3.338-0.456,6.538-0.989,9.821-1.61
								c6.941-1.309,13.815-1.624,19.156-6.884c9.385-9.239,17.781-22.892,20.902-35.711c-0.247,0.438-3.817-1.363-6.144-1.412
								c-2.323-0.05,7.009-2.956,9.801-6.079c2.794-3.119,3.189-7.029-0.049-7.463c-2.805-0.375-5.385,0.163-6.022,0.313
								c1.079-0.269,7.759-2.081,9.207-5.776c1.578-4.026-0.928-5.242-0.175-7.036c0.752-1.792,1.321-2.036,1.199-2.056
								c-0.119-0.021-2.435-1.316-1.648-1.734c0.786-0.417,2.154-2.083,0.259-3.276c2.434,0.124,3.257,0.493,3.317-0.391
								c0.061-0.882-4.222-3.142-3.652-4.556s6.057,1.785,6.944,0.602c0.886-1.185,0.885-5.938,1.603-8.791
								c0.719-2.854,3.878-5.342,7.404-9.834c3.527-4.494,3.588-6.916,1.61-8.937c0.291-0.14,0.686-0.19,1.158-0.164
								c-0.329,0.282-0.542,0.442-0.542,0.442c4.868,2.311,4.678,7.187,2.338,11.826c-2.34,4.641-5.164,9.395-5.877,10.385
								c-0.712,0.989-3.082,6.537-3.286,7.643c-0.201,1.105-1.082,2.007-1.082,2.007s0,0-0.118,0.796
								c-0.116,0.793-2.333,2.656-2.333,2.656s-0.127,3.909-1.201,5.854c-1.075,1.94-2.07,5.415-1.96,6.465
								c0.108,1.047-0.376,1.868-0.748,3.03c-0.372,1.158,0.13,3.684,0.379,4.734c0.252,1.05-1.315,3.027-1.315,3.027
								s-0.058,0.822-0.715,2.266c-0.657,1.444-0.879,7.793-13.369,29.179c-12.491,21.386-35.973,39.513-35.973,39.513
								C83.56,316.12,77.25,315.469,71.676,314.163z"/>
						</g>
						<path fill="none" stroke="#000000" stroke-linecap="round" stroke-linejoin="round" stroke-miterlimit="10" d="
							M58.006,202.642c-2.425,1.907-2.96,3.799-2.96,3.799s-2.431,2.07-2.894,5.742c-2.301,4.045-2.384,8.166-2.645,12.811
							c-0.258,4.643,1.245,17.429,2.297,33.23c1.054,15.804-2.977,35.721-4.003,38.674c0,0-4.68,4.001-1.36,5.676
							c3.322,1.672,20.237,15.26,44.011,12.85c0,0,23.482-18.126,35.973-39.512c12.49-21.387,12.71-27.737,13.369-29.181
							c0.658-1.44,0.716-2.265,0.716-2.265s1.567-1.978,1.314-3.028c-0.249-1.05-0.751-3.577-0.379-4.733
							c0.371-1.162,0.856-1.981,0.748-3.03c-0.109-1.049,0.885-4.524,1.96-6.467c1.074-1.943,1.2-5.854,1.2-5.854
							s2.217-1.862,2.334-2.654c0.117-0.797,0.117-0.797,0.117-0.797s0.881-0.902,1.083-2.006c0.203-1.107,2.573-6.653,3.286-7.643
							c0.713-0.99,3.536-5.743,5.877-10.383c2.34-4.642,2.529-9.516-2.339-11.828c0,0,11.986-8.927-4.081-11.648
							c0,0-5.679-0.785-13.198-0.326c-7.52,0.457-16.357,1.119-20.591,2.976c-4.233,1.856-10.616,4.19-10.616,4.19
							c-0.818-0.022-23.585,12.49-31.012,13.785C68.785,196.311,62.388,199.194,58.006,202.642z M103.18,221.161
							c0,0,3.577-5.154,4.395-6.134c0.819-0.981,1.303-1.71,1.977-3.878c0.678-2.166,9.067-8.166,11.909-10.354
							c2.844-2.186,4.85-3.96,6.161-5.177c1.142,0.087,1.281-0.329,2.396-1.021c1.86,0.174,5.231-1.955,5.231-1.955
							c-5.72,6.93-14.911,26.799-14.911,26.799s-2.04,3.221-3.773,5.687c-1.729,2.47-4.435,4.518-6.52,4.508
							C107.958,229.63,103.18,221.161,103.18,221.161z"/>
						<path fill="none" stroke="#000000" stroke-linecap="round" stroke-linejoin="round" stroke-miterlimit="10" d="
							M135.249,192.642c0,0,9.81-11.975,20.461-6.6"/>
						<path fill="none" stroke="#000000" stroke-linecap="round" stroke-linejoin="round" stroke-miterlimit="10" d="
							M103.18,221.161c0,0-12.101-13.414-15.333-18.872"/>
						<path fill="none" stroke="#000000" stroke-linecap="round" stroke-linejoin="round" stroke-miterlimit="10" d="
							M95.854,186.962"/>
						<path fill="none" stroke="#000000" stroke-linecap="round" stroke-linejoin="round" stroke-miterlimit="10" d="
							M99.505,217.003c0,0-4.833-9.881-6.772-12.943"/>
						<path fill="none" stroke="#000000" stroke-linecap="round" stroke-linejoin="round" stroke-miterlimit="10" d="
							M109.675,210.865c0,0-1.779-10.093-3.964-13.352"/>
						<path fill="none" stroke="#000000" stroke-linecap="round" stroke-linejoin="round" stroke-miterlimit="10" d="
							M127.622,195.619c-0.053-0.446,1.104-5.362-1.383-9.123"/>
						<path fill="none" stroke="#000000" stroke-linecap="round" stroke-linejoin="round" stroke-miterlimit="10" d="
							M130.017,194.599c0,0,2.481-9.75-3.868-14.416"/>
						<path fill="none" stroke="#000000" stroke-linecap="round" stroke-linejoin="round" stroke-miterlimit="10" d="
							M122.282,173.243"/>
						<path fill="none" stroke="#000000" stroke-linecap="round" stroke-linejoin="round" stroke-miterlimit="10" d="
							M109.612,229.539c-0.164-0.085-11.869-4.044-15.756-5.936c-3.89-1.892-7.038-2.927-8.993-4.534"/>
						<path fill="none" stroke="#000000" stroke-linecap="round" stroke-linejoin="round" stroke-miterlimit="10" d="
							M107.361,227.463c0,0-8.716-6.216-12.687-8.774c-3.971-2.555-11.792-7.766-11.792-7.766"/>
						<path fill="none" stroke="#000000" stroke-linecap="round" stroke-linejoin="round" stroke-miterlimit="10" d="
							M147.804,217.901c0,0-4.216-2.557-6.26-3.775s-4.553-2.371-4.009-1.401c0.542,0.965,4.723,3.637,5.546,4.054"/>
						<path fill="none" stroke="#000000" stroke-linecap="round" stroke-linejoin="round" stroke-miterlimit="10" d="
							M131.042,213.891c0,0,9.085,5.915,14.311,7.462"/>
						<path fill="none" stroke="#000000" stroke-linecap="round" stroke-linejoin="round" stroke-miterlimit="10" d="
							M144.208,223.624c0,0-10.723-2.317-10.577-1.119"/>
						<path fill="none" stroke="#000000" stroke-linecap="round" stroke-linejoin="round" stroke-miterlimit="10" d="
							M148.599,211.224c0,0-2.005-7.547-6.125-10.34"/>
						<path fill="none" stroke="#000000" stroke-linecap="round" stroke-linejoin="round" stroke-miterlimit="10" d="
							M140.509,244.466c0,0-6.294,2.352-7.646,3.057"/>
						<path fill="none" stroke="#000000" stroke-linecap="round" stroke-linejoin="round" stroke-miterlimit="10" d="
							M140.097,236.02c0,0-9.042-0.196-14.187,2.895"/>
						<path fill="none" stroke="#000000" stroke-linecap="round" stroke-linejoin="round" stroke-miterlimit="10" d="
							M47.801,296.897c0,0,22.271,11.197,36.835,8.998"/>
						<path fill="none" stroke="#000000" stroke-linecap="round" stroke-linejoin="round" stroke-miterlimit="10" d="
							M49.206,290.827c0,0,4.827,12.244,29.12,8.114"/>
						<path fill="none" stroke="#000000" stroke-linecap="round" stroke-linejoin="round" stroke-miterlimit="10" d="
							M98.715,308.396c0,0-6.564,1.374-10.521,1.742c-3.956,0.361-16.766-1.326-16.766-1.326"/>
					</g>
					<g>
						<g>
							<g>
								<path fill="#666666" d="M227.844,195.245c0,0-10.771-8.176-12.713-9.477c-1.948-1.303-3.364-2.064-7.832-0.055
									c-4.466,2.008-13.488,5.227-22.601,6.773c-9.116,1.543-38.303,5.98-47.496,6.804c-9.193,0.824-48.72,1.95-55.983,1.751
									c-7.265-0.199-28.753,0.557-34.652,0.85c-5.903,0.295-23.278,2.271-28.479,2.108c-5.202-0.163-9.895-0.323-15.611-5.948
									c7.333-7.629,16.533-5.668,19.611-5.734c3.084-0.066,32.799,0.517,38.405,0.31c5.605-0.212,31.604-2.119,39.613-2.683
									c8.009-0.562,50.48-1.419,61.101-1.525c10.625-0.104,25.426-0.334,34.653-2.729c9.228-2.394,15.818-5.508,18.219-3.825
									C216.32,183.437,227.844,195.245,227.844,195.245z"/>
								<path fill="none" stroke="#000000" stroke-linecap="round" stroke-linejoin="round" stroke-miterlimit="10" d="
									M227.844,195.245c0,0-10.771-8.176-12.713-9.477c-1.948-1.303-3.364-2.064-7.832-0.055
									c-4.466,2.008-13.488,5.227-22.601,6.773c-9.116,1.543-38.303,5.98-47.496,6.804c-9.193,0.824-48.72,1.95-55.983,1.751
									c-7.265-0.199-28.753,0.557-34.652,0.85c-5.903,0.295-23.278,2.271-28.479,2.108c-5.202-0.163-9.895-0.323-15.611-5.948
									c7.333-7.629,16.533-5.668,19.611-5.734c3.084-0.066,32.799,0.517,38.405,0.31c5.605-0.212,31.604-2.119,39.613-2.683
									c8.009-0.562,50.48-1.419,61.101-1.525c10.625-0.104,25.426-0.334,34.653-2.729c9.228-2.394,15.818-5.508,18.219-3.825
									C216.32,183.437,227.844,195.245,227.844,195.245z"/>
								
									<line fill="none" stroke="#000000" stroke-linecap="round" stroke-linejoin="round" stroke-miterlimit="10" x1="60.331" y1="192.63" x2="60.92" y2="201.354"/>
							</g>
							<path fill="#212121" stroke="#000000" stroke-linecap="round" stroke-linejoin="round" stroke-miterlimit="10" d="
								M153.397,193.427c0.309,0.271,0.779,0.246,1.054-0.061c0.275-0.308,0.249-0.781-0.06-1.054
								c-0.306-0.275-0.779-0.247-1.053,0.059C153.064,192.679,153.088,193.152,153.397,193.427z"/>
						</g>
						<g>
							<path fill="#FFFFFF" d="M226.001,201.93c-1.391-0.378-2.102-2.202-1.593-4.083l5.696-21.073
								c0.51-1.878,2.045-3.099,3.432-2.72c1.393,0.375,2.103,2.2,1.596,4.082l-5.697,21.068
								C228.927,201.087,227.391,202.306,226.001,201.93z"/>
							
								<ellipse id="changecolor_1_" transform="matrix(0.9823 0.1872 -0.1872 0.9823 39.0638 -39.7651)" fill="#CEEEFB" cx="230.043" cy="186.916" rx="2.326" ry="5.273"/>
							<path fill="none" stroke="#000000" stroke-linecap="round" stroke-linejoin="round" stroke-miterlimit="10" d="
								M226.001,201.93c-1.391-0.378-2.102-2.202-1.593-4.083l5.696-21.073c0.51-1.878,2.045-3.099,3.432-2.72
								c1.393,0.375,2.103,2.2,1.596,4.082l-5.697,21.068C228.927,201.087,227.391,202.306,226.001,201.93z"/>
						</g>
						<g>
							<g>
								<path fill="#9F9F9F" d="M227.817,193.61c0,0-10.83-8.094-12.784-9.383c-1.955-1.289-3.375-2.039-7.828,0.004
									c-4.453,2.041-13.453,5.323-22.554,6.936c-9.103,1.609-38.258,6.256-47.443,7.148c-9.186,0.892-48.704,2.299-55.971,2.156
									c-7.267-0.149-28.748,0.764-34.646,1.102c-5.902,0.338-23.259,2.438-28.462,2.312c-5.204-0.126-9.897-0.25-15.653-5.834
									c7.275-7.684,16.49-5.791,19.571-5.878c3.081-0.084,32.801,0.278,38.404,0.03c5.606-0.246,31.588-2.346,39.593-2.967
									c8.004-0.621,50.465-1.785,61.091-1.965c10.621-0.188,25.42-0.523,34.63-2.983c9.209-2.459,15.776-5.623,18.19-3.952
									C216.208,181.89,227.817,193.61,227.817,193.61z"/>
								<g>
									
										<linearGradient id="SVGID_27_" gradientUnits="userSpaceOnUse" x1="-6351.1421" y1="2790.2412" x2="-6389.2959" y2="2830.3767" gradientTransform="matrix(-0.6607 0.7507 0.7507 0.6607 -6257.9536 3119.0054)">
										<stop  offset="0" style="stop-color:#FFFFFF"/>
										<stop  offset="1" style="stop-color:#FFFFFF;stop-opacity:0"/>
									</linearGradient>
									<path fill="url(#SVGID_27_)" d="M60.941,200.932l-0.653-8.722c0.05-0.003,0.115-0.003,0.162-0.006
										c5.606-0.246,31.588-2.346,39.593-2.967c8.004-0.621,50.465-1.785,61.091-1.965c10.621-0.188,25.42-0.523,34.63-2.983
										c9.209-2.459,15.776-5.623,18.19-3.952c2.252,1.553,13.862,13.273,13.862,13.273s-10.83-8.094-12.784-9.383
										c-1.955-1.289-3.375-2.039-7.828,0.004c-4.453,2.041-13.453,5.323-22.554,6.936c-9.103,1.609-38.258,6.256-47.443,7.148
										c-9.186,0.892-48.704,2.299-55.971,2.156C75.567,200.355,60.941,200.932,60.941,200.932z"/>
								</g>
								<path fill="none" stroke="#000000" stroke-linecap="round" stroke-linejoin="round" stroke-miterlimit="10" d="
									M227.817,193.61c0,0-10.83-8.094-12.784-9.383c-1.955-1.289-3.375-2.039-7.828,0.004
									c-4.453,2.041-13.453,5.323-22.554,6.936c-9.103,1.609-38.258,6.256-47.443,7.148c-9.186,0.892-48.704,2.299-55.971,2.156
									c-7.267-0.149-28.748,0.764-34.646,1.102c-5.902,0.338-23.259,2.438-28.462,2.312c-5.204-0.126-9.897-0.25-15.653-5.834
									c7.275-7.684,16.49-5.791,19.571-5.878c3.081-0.084,32.801,0.278,38.404,0.03c5.606-0.246,31.588-2.346,39.593-2.967
									c8.004-0.621,50.465-1.785,61.091-1.965c10.621-0.188,25.42-0.523,34.63-2.983c9.209-2.459,15.776-5.623,18.19-3.952
									C216.208,181.89,227.817,193.61,227.817,193.61z"/>
								<g>
									<g>
										<path fill="#6D6D6D" d="M87.944,198.987c0.108-0.123,0.169-0.288,0.155-0.464l-0.53-6.496
											c-0.028-0.341-0.328-0.595-0.669-0.568c-0.342,0.027-0.598,0.329-0.571,0.671l0.529,6.494
											c0.028,0.344,0.328,0.6,0.67,0.569C87.696,199.183,87.841,199.104,87.944,198.987z"/>
									</g>
									<g>
										<path fill="#6D6D6D" d="M90.977,198.835c0.108-0.123,0.168-0.286,0.154-0.461l-0.528-6.496
											c-0.03-0.343-0.329-0.598-0.671-0.567c-0.342,0.026-0.597,0.326-0.571,0.669l0.53,6.496
											c0.028,0.341,0.329,0.596,0.67,0.57C90.727,199.03,90.874,198.952,90.977,198.835z"/>
									</g>
									<g>
										<path fill="#6D6D6D" d="M94.008,198.685c0.108-0.121,0.168-0.285,0.155-0.461l-0.53-6.496
											c-0.027-0.342-0.328-0.598-0.671-0.571c-0.342,0.03-0.598,0.329-0.568,0.673l0.527,6.495
											c0.03,0.343,0.327,0.597,0.671,0.567C93.759,198.882,93.906,198.802,94.008,198.685z"/>
									</g>
									<g>
										<path fill="#6D6D6D" d="M97.041,198.534c0.106-0.121,0.166-0.287,0.153-0.463l-0.529-6.494
											c-0.028-0.342-0.327-0.598-0.671-0.571c-0.34,0.028-0.596,0.329-0.57,0.671l0.529,6.496c0.029,0.344,0.33,0.598,0.67,0.57
											C96.791,198.728,96.937,198.649,97.041,198.534z"/>
									</g>
									<g>
										<path fill="#6D6D6D" d="M100.072,198.384c0.108-0.121,0.166-0.289,0.154-0.461l-0.53-6.496
											c-0.028-0.344-0.327-0.599-0.671-0.572c-0.341,0.029-0.597,0.328-0.568,0.673l0.527,6.495
											c0.028,0.342,0.328,0.596,0.673,0.57C99.823,198.577,99.968,198.501,100.072,198.384z"/>
									</g>
									<g>
										<path fill="#6D6D6D" d="M103.103,198.233c0.109-0.124,0.168-0.289,0.153-0.466l-0.529-6.494
											c-0.027-0.343-0.327-0.596-0.671-0.569c-0.34,0.029-0.597,0.328-0.568,0.674l0.529,6.492
											c0.029,0.344,0.328,0.598,0.67,0.57C102.854,198.425,103.001,198.35,103.103,198.233z"/>
									</g>
									<g>
										<path fill="#6D6D6D" d="M106.135,198.082c0.106-0.123,0.167-0.288,0.153-0.462l-0.53-6.497
											c-0.027-0.343-0.328-0.595-0.671-0.569c-0.342,0.027-0.595,0.332-0.569,0.672l0.528,6.494
											c0.03,0.341,0.33,0.599,0.672,0.571C105.885,198.274,106.031,198.199,106.135,198.082z"/>
									</g>
									<g>
										<path fill="#6D6D6D" d="M109.164,197.929c0.111-0.122,0.169-0.284,0.154-0.461l-0.528-6.496
											c-0.027-0.342-0.327-0.596-0.668-0.568c-0.342,0.026-0.599,0.33-0.571,0.67l0.529,6.496
											c0.028,0.343,0.327,0.596,0.67,0.572C108.917,198.127,109.064,198.047,109.164,197.929z"/>
									</g>
									<g>
										<path fill="#6D6D6D" d="M112.195,197.779c0.109-0.123,0.17-0.287,0.155-0.462l-0.527-6.496
											c-0.028-0.342-0.327-0.597-0.671-0.568c-0.341,0.025-0.597,0.326-0.571,0.672l0.532,6.494
											c0.028,0.344,0.325,0.598,0.668,0.569C111.95,197.978,112.093,197.896,112.195,197.779z"/>
									</g>
									<g>
										<path fill="#6D6D6D" d="M115.229,197.628c0.109-0.123,0.168-0.288,0.153-0.461l-0.526-6.496
											c-0.03-0.342-0.329-0.598-0.671-0.568c-0.341,0.027-0.599,0.326-0.57,0.67l0.529,6.495
											c0.028,0.343,0.326,0.597,0.669,0.569C114.979,197.82,115.125,197.743,115.229,197.628z"/>
									</g>
									<g>
										<path fill="#6D6D6D" d="M118.261,197.478c0.108-0.121,0.166-0.287,0.152-0.46l-0.527-6.497
											c-0.03-0.343-0.329-0.598-0.671-0.57c-0.342,0.029-0.597,0.326-0.569,0.673l0.528,6.494
											c0.028,0.343,0.327,0.597,0.672,0.571C118.012,197.673,118.157,197.593,118.261,197.478z"/>
									</g>
									<g>
										<path fill="#6D6D6D" d="M121.293,197.327c0.106-0.122,0.167-0.286,0.153-0.461l-0.529-6.498
											c-0.027-0.343-0.328-0.596-0.669-0.569c-0.343,0.028-0.598,0.329-0.568,0.671l0.527,6.498
											c0.028,0.342,0.328,0.597,0.673,0.568C121.043,197.522,121.19,197.442,121.293,197.327z"/>
									</g>
									<g>
										<path fill="#6D6D6D" d="M124.322,197.177c0.109-0.123,0.168-0.29,0.153-0.463l-0.527-6.494
											c-0.028-0.342-0.327-0.6-0.671-0.572c-0.341,0.029-0.596,0.33-0.568,0.674l0.528,6.496
											c0.027,0.342,0.328,0.594,0.669,0.568C124.074,197.372,124.219,197.292,124.322,197.177z"/>
									</g>
									<g>
										<path fill="#6D6D6D" d="M127.354,197.026c0.109-0.123,0.168-0.289,0.154-0.464l-0.528-6.496
											c-0.029-0.341-0.331-0.595-0.671-0.567c-0.342,0.031-0.597,0.326-0.569,0.67l0.529,6.496
											c0.028,0.343,0.327,0.598,0.671,0.57C127.104,197.222,127.252,197.142,127.354,197.026z"/>
									</g>
									<g>
										<path fill="#6D6D6D" d="M130.388,196.874c0.107-0.121,0.167-0.287,0.151-0.461l-0.529-6.497
											c-0.028-0.341-0.326-0.599-0.671-0.567c-0.343,0.024-0.597,0.33-0.569,0.67l0.529,6.494
											c0.027,0.343,0.33,0.598,0.671,0.57C130.137,197.069,130.285,196.991,130.388,196.874z"/>
									</g>
									<g>
										<path fill="#6D6D6D" d="M133.42,196.726c0.106-0.123,0.166-0.289,0.152-0.463l-0.53-6.497
											c-0.025-0.341-0.326-0.596-0.671-0.567c-0.342,0.025-0.596,0.329-0.569,0.67l0.532,6.496
											c0.028,0.342,0.326,0.597,0.669,0.57C133.17,196.918,133.316,196.843,133.42,196.726z"/>
									</g>
									<g>
										<path fill="#6D6D6D" d="M136.451,196.571c0.107-0.123,0.168-0.285,0.152-0.461l-0.527-6.497
											c-0.028-0.339-0.33-0.596-0.67-0.569c-0.342,0.028-0.597,0.332-0.572,0.672l0.529,6.496
											c0.028,0.342,0.328,0.599,0.67,0.568C136.201,196.769,136.348,196.69,136.451,196.571z"/>
									</g>
									<g>
										<path fill="#6D6D6D" d="M139.481,196.421c0.108-0.119,0.167-0.285,0.154-0.459l-0.53-6.498
											c-0.028-0.342-0.327-0.596-0.669-0.57c-0.344,0.03-0.599,0.331-0.571,0.672l0.53,6.495
											c0.026,0.345,0.327,0.598,0.668,0.573C139.233,196.616,139.378,196.538,139.481,196.421z"/>
									</g>
									<g>
										<path fill="#6D6D6D" d="M142.514,196.27c0.106-0.122,0.165-0.286,0.153-0.464l-0.529-6.494
											c-0.027-0.341-0.329-0.596-0.671-0.568c-0.343,0.027-0.596,0.328-0.567,0.674l0.527,6.491
											c0.027,0.343,0.326,0.598,0.67,0.573C142.264,196.464,142.412,196.39,142.514,196.27z"/>
									</g>
									<g>
										<path fill="#6D6D6D" d="M145.545,196.12c0.107-0.123,0.167-0.287,0.152-0.462l-0.528-6.495
											c-0.028-0.343-0.328-0.598-0.67-0.57c-0.343,0.029-0.598,0.33-0.57,0.669l0.528,6.497c0.03,0.344,0.329,0.597,0.671,0.57
											C145.296,196.317,145.443,196.237,145.545,196.12z"/>
									</g>
									<g>
										<path fill="#6D6D6D" d="M148.575,195.971c0.107-0.125,0.167-0.286,0.153-0.463l-0.527-6.497
											c-0.028-0.343-0.328-0.596-0.671-0.57c-0.339,0.029-0.596,0.33-0.57,0.673l0.528,6.495c0.029,0.343,0.33,0.6,0.67,0.567
											C148.328,196.166,148.473,196.086,148.575,195.971z"/>
									</g>
								</g>
								
									<line fill="none" stroke="#000000" stroke-linecap="round" stroke-linejoin="round" stroke-miterlimit="10" x1="60.289" y1="192.21" x2="60.941" y2="200.932"/>
							</g>
							<path fill="#212121" stroke="#000000" stroke-linecap="round" stroke-linejoin="round" stroke-miterlimit="10" d="
								M153.361,192.333c0.308,0.271,0.778,0.239,1.052-0.067c0.273-0.31,0.243-0.783-0.067-1.056
								c-0.309-0.271-0.783-0.242-1.053,0.068C153.021,191.585,153.05,192.058,153.361,192.333z"/>
							
								<line fill="none" stroke="#000000" stroke-linecap="round" stroke-linejoin="round" stroke-miterlimit="10" x1="188.293" y1="185.724" x2="189.065" y2="190.259"/>
							
								<line fill="none" stroke="#000000" stroke-linecap="round" stroke-linejoin="round" stroke-miterlimit="10" x1="192.544" y1="185.024" x2="193.19" y2="189.208"/>
						</g>
					</g>
					<g>
						<path fill="#C4D2D2" d="M95.667,308.269l2.378-13.561l-12.748-4.48l-0.648-33.303l4.209-16.227l18.116-4.035
							c0,0,0.811-2.781,3.674-7.08c5.505-1.541,8.92-8.94,11.61-14.166c2.689-5.227,11.455-21.034,11.455-21.034
							c13.02-13.238,21.999-8.341,21.999-8.341c4.869,2.312,4.679,7.187,2.339,11.828c-2.341,4.64-5.164,9.393-5.877,10.383
							c-0.712,0.989-3.083,6.535-3.286,7.643c-0.202,1.104-1.083,2.006-1.083,2.006s0,0-0.117,0.797
							c-0.117,0.792-2.334,2.654-2.334,2.654s-0.126,3.911-1.2,5.854c-1.075,1.942-2.07,5.418-1.96,6.467
							c0.109,1.049-0.377,1.868-0.748,3.03c-0.373,1.156,0.129,3.684,0.379,4.733c0.253,1.051-1.314,3.028-1.314,3.028
							s-0.058,0.824-0.716,2.265c-0.659,1.443-0.879,7.794-13.369,29.181c-12.491,21.386-35.973,39.512-35.973,39.512"/>
						<path fill="#B1BFBF" d="M129.996,200.632c-0.002,0.002-0.002,0.005-0.003,0.005c-1.391,2.858-2.888,5.58-4.413,8.138
							C126.95,206.114,128.472,203.274,129.996,200.632z"/>
						<path fill="#B1BFBF" d="M129.026,237.549c-0.097,0.022-0.153,0.036-0.153,0.036S128.929,237.571,129.026,237.549z"/>
						<path fill="#B1BFBF" d="M91.381,294.784c6.941-1.309,13.815-1.624,19.156-6.884c9.385-9.239,17.781-22.892,20.902-35.711
							c-0.246,0.438-3.817-1.363-6.143-1.412c-2.323-0.05,7.009-2.956,9.801-6.079c2.794-3.119,3.189-7.029-0.049-7.463
							c-2.805-0.373-5.385,0.163-6.022,0.313c1.079-0.269,7.759-2.081,9.207-5.776c1.578-4.026-0.928-5.242-0.175-7.036
							c0.752-1.792,1.321-2.036,1.199-2.056c-0.119-0.021-2.435-1.316-1.648-1.734c0.786-0.417,2.154-2.083,0.259-3.276
							c2.434,0.124,3.257,0.493,3.317-0.391c0.061-0.881-4.222-3.142-3.652-4.556s6.057,1.785,6.944,0.602
							c0.886-1.185,0.885-5.938,1.603-8.791c0.719-2.854,3.878-5.342,7.404-9.834c3.527-4.494,3.588-6.916,1.61-8.937
							c0.291-0.14,0.686-0.19,1.158-0.164c-0.329,0.282-0.542,0.442-0.542,0.442c4.868,2.311,4.678,7.187,2.338,11.826
							c-2.34,4.641-5.164,9.395-5.877,10.385c-0.712,0.989-3.082,6.537-3.286,7.643c-0.201,1.105-1.082,2.007-1.082,2.007
							s0,0-0.118,0.796c-0.116,0.793-2.333,2.656-2.333,2.656s-0.127,3.909-1.201,5.854c-1.075,1.94-2.07,5.415-1.96,6.465
							c0.108,1.047-0.376,1.868-0.748,3.03c-0.372,1.158,0.129,3.684,0.379,4.734c0.252,1.05-1.315,3.027-1.315,3.027
							s-0.058,0.822-0.715,2.266c-0.657,1.444-0.879,7.793-13.369,29.179c-12.491,21.386-35.973,39.513-35.973,39.513"/>
						<path fill="none" stroke="#000000" stroke-linecap="round" stroke-linejoin="round" stroke-miterlimit="10" d="
							M90.452,315.423c0,0,23.482-18.126,35.973-39.512c12.49-21.387,12.71-27.737,13.369-29.181
							c0.658-1.44,0.716-2.265,0.716-2.265s1.567-1.978,1.314-3.028c-0.249-1.05-0.751-3.577-0.379-4.733
							c0.371-1.162,0.856-1.981,0.748-3.03c-0.109-1.049,0.885-4.524,1.96-6.467c1.074-1.943,1.2-5.854,1.2-5.854
							s2.217-1.862,2.334-2.654c0.117-0.797,0.117-0.797,0.117-0.797s0.881-0.902,1.083-2.006c0.203-1.107,2.573-6.653,3.286-7.643
							c0.713-0.99,3.536-5.743,5.877-10.383c2.34-4.642,2.529-9.516-2.339-11.828c0,0-8.035-4.83-20.461,6.6"/>
						<g>
							<path fill="#C4D2D2" d="M45.946,300.517c0,0-3.686,0.138-2.938,3.337c0,0,24.165,22.503,41.008,24.304
								c0,0,3.559-1.989,3.522-6.243c0,0,3.834-2.34,3.728-7.263C91.265,314.651,72.674,314.833,45.946,300.517z"/>
							<g>
								<path fill="none" stroke="#000000" stroke-linecap="round" stroke-linejoin="round" stroke-miterlimit="10" d="
									M45.946,300.517c0,0-3.686,0.138-2.938,3.337c0,0,24.165,22.503,41.008,24.304c0,0,3.559-1.989,3.522-6.243
									c0,0,3.834-2.34,3.728-7.263C91.265,314.651,72.674,314.833,45.946,300.517z"/>
								<path fill="none" stroke="#000000" stroke-linecap="round" stroke-linejoin="round" stroke-miterlimit="10" d="
									M45.415,302.54c0,0,19.181,15.713,42.123,19.374"/>
							</g>
						</g>
						<path fill="none" stroke="#000000" stroke-linecap="round" stroke-linejoin="round" stroke-miterlimit="10" d="
							M110.044,229.637c2.084,0.01,4.791-2.038,6.52-4.508c1.733-2.466,3.773-5.687,3.773-5.687s9.191-19.869,14.911-26.799"/>
						<path fill="none" stroke="#000000" stroke-linecap="round" stroke-linejoin="round" stroke-miterlimit="10" d="
							M147.804,217.901c0,0-4.216-2.557-6.26-3.775s-4.553-2.371-4.009-1.401c0.542,0.965,4.723,3.637,5.546,4.054"/>
						<path fill="none" stroke="#000000" stroke-linecap="round" stroke-linejoin="round" stroke-miterlimit="10" d="
							M131.042,213.891c0,0,9.085,5.915,14.311,7.462"/>
						<path fill="none" stroke="#000000" stroke-linecap="round" stroke-linejoin="round" stroke-miterlimit="10" d="
							M144.208,223.624c0,0-10.723-2.317-10.577-1.119"/>
						<path fill="none" stroke="#000000" stroke-linecap="round" stroke-linejoin="round" stroke-miterlimit="10" d="
							M148.599,211.224c0,0-2.005-7.547-6.125-10.34"/>
						<path fill="none" stroke="#000000" stroke-linecap="round" stroke-linejoin="round" stroke-miterlimit="10" d="
							M140.509,244.466c0,0-6.294,2.352-7.646,3.057"/>
						<path fill="none" stroke="#000000" stroke-linecap="round" stroke-linejoin="round" stroke-miterlimit="10" d="
							M140.097,236.02c0,0-9.042-0.196-14.187,2.895"/>
					</g>
				</g>
			</g>
		</g>
		<g>
			<g>
				<g>
					<g id="XMLID_43_">
						<g>
							<path id="changecolor" fill="#CEEEFB" d="M264.353,149.706l3.447-3.744l0.639,0.554l0.596-0.686l0.475,0.41l-37.393,39.887
								c-0.378,0.435-1.027,0.492-1.439,0.129c-0.418-0.362-0.448-1.015-0.064-1.446l34.465-42.439l0.471,0.408l-0.602,0.693
								l0.623,0.546l-3.248,3.916L264.353,149.706z"/>
							<polygon fill="#BBBBBB" points="305.255,107.748 270.059,145.642 269.573,145.217 266.083,142.17 265.598,141.744 
								298.39,101.751 							"/>
							<polygon fill="#BBBBBB" points="314.048,108.07 305.255,107.748 298.39,101.751 296.882,93.083 							"/>
							<polygon fill="#BBBBBB" points="320.918,100.206 314.048,108.07 296.882,93.083 303.751,85.218 316.938,96.731 							"/>
							<polygon fill="#CCCCCC" points="318.536,98.127 316.938,96.731 303.751,85.218 296.882,93.083 311.667,105.99 							"/>
							<path fill="#FFFFFF" d="M407.723-12.462L397.78-1.079l-0.018,0.017c-0.439-0.402-0.894-0.814-1.373-1.229
								c-1.285-1.124-2.503-2.115-3.641-2.976l10.041-11.5L407.723-12.462z"/>
							<path fill="#D0D2D3" d="M408.587-11.707l-9.98,11.433c-0.268-0.262-0.549-0.524-0.844-0.79l0.018-0.015l9.943-11.384
								L408.587-11.707z"/>
							<polygon fill="#0091C7" points="403.38,10.822 402.298,12.062 395.649,19.678 391.103,15.707 398.833,6.852 							"/>
							<polygon fill="#00ADEE" points="409.438,12.143 407.473,14.395 403.38,10.822 398.833,6.852 400.797,4.602 							"/>
							<path fill="#00ADEE" d="M413.215-13.566l-2.919,3.35l-1.708-1.49l-0.864-0.756l-4.934-4.304l-1.707-1.491l4.162-4.768
								l6.1,5.317l0.016,0.017c0.49,0.535,0.945,0.967,1.273,1.305C412.634-16.387,412.846-15.229,413.215-13.566z"/>
							<polygon fill="#A6A8AB" points="346.435,54.943 330.042,73.723 326.503,70.629 342.894,51.852 							"/>
							<polygon fill="#FFFFFF" points="330.041,73.721 345.692,55.789 342.856,53.361 327.204,71.292 							"/>
							<path fill="#D0D2D3" d="M397.236,21.065l-24.429,27.986l-0.023,0.024l-16.188,18.553l-5.878,6.729l-25.689,29.432
								l-4.11-3.583l-3.979-3.477l83.291-95.416c0.648,0.663,1.244,1.295,1.782,1.892l-1.214,1.396l-1.965,2.251l-7.73,8.854
								l4.547,3.972L397.236,21.065z"/>
							<path fill="#E6E7E8" d="M383.552-10.814c1.375,0.557,4.656,2.088,9.197,5.549c1.139,0.86,2.355,1.851,3.641,2.975
								c0.479,0.414,0.934,0.826,1.373,1.229c0.295,0.264,0.576,0.527,0.844,0.789c0.576,0.548,1.118,1.073,1.621,1.588
								l-83.289,95.418l-13.188-11.515l-2.828-2.465l32.955-36.602l5.076-5.64c1.241,0.133,2.889,0.233,4.987,0.199
								c5.648-0.087,9.13-6.978,9.13-6.978c4.707,3.495,8.572,2.831,11.918-1.058c3.344-3.891,0.547-7.819,0.547-7.819
								c3.279,1.144,8.949-0.382,11.123-5.005c1.941-4.127-2.393-9.296-3.354-10.365c-0.017-0.018-0.025-0.035-0.041-0.052
								c-0.029-0.039-0.059-0.077-0.09-0.124c1.472,0.85,5.591-0.336,7.254-2.7c1.683-2.396,4.468-9.724-2.141-17.13
								c-0.74-0.732-1.494-1.377-2.25-1.945c-4.107-3.061-8.467-3.837-12.227-3.012c-1.418,0.255-2.572,0.164-2.807-0.729
								c-0.215-0.814,0.377-1.716,2.158-2.496c5.576-2.063,11.918-1.195,16.545,2.839C381.36-14.412,382.643-12.69,383.552-10.814z
								 M330.042,73.723l16.393-18.779l-3.541-3.092l-16.391,18.777L330.042,73.723z"/>
							<path fill="#C4D2D2" d="M376.657,19.852c1.943-4.128-2.393-9.297-3.354-10.367c-0.016-0.016-0.024-0.033-0.041-0.051
								c-0.091-0.098-0.14-0.148-0.14-0.148c0.015,0.01,0.029,0.019,0.052,0.025c1.471,0.849,5.59-0.336,7.254-2.701
								c1.682-2.395,4.467-9.724-2.143-17.131c-0.739-0.73-1.493-1.376-2.249-1.943l-0.019,0.029
								c-4.1-2.571-8.586-2.881-12.377,0.486c-2.969,2.634-3.553,5.57-3.262,7.91c-0.268-0.041-7.367-1.111-11.047,4.691
								c-3.75,5.918-0.166,10.928-0.166,10.928l-0.015,0.052c-2.206-0.56-5.94-0.59-9.151,3.901
								c-2.797,3.92-2.502,6.561-1.727,8.105c0,0-4.531,1.141-6.734,7.33c-2.195,6.186-0.916,11.304,2.338,15.183l5.075-5.641
								c1.241,0.133,2.89,0.234,4.988,0.2c5.647-0.088,9.13-6.978,9.13-6.978c4.705,3.495,8.572,2.831,11.918-1.059
								c3.344-3.89,0.547-7.818,0.547-7.818C368.813,25.999,374.483,24.474,376.657,19.852z"/>
							<path fill="#B1BFBF" d="M413.038,17.984c-4.721,4.118-8.799,5.707-15.58,10.531c-6.766,4.812-19.973,15.486-24.65,20.536
								l24.429-27.986l-1.587-1.388l6.648-7.616C402.298,12.062,409.802,19.545,413.038,17.984z"/>
							<path fill="#C4D2D2" d="M413.038,17.984c0.891-0.434,2.105-2.169,3.037-4.175c1.082-2.31,1.794-4.973,1.229-6.396
								c-1.057-2.658,1.592-7.169-0.682-10.773c-1.482-2.342-2.72-7.131-3.407-10.207c-0.369-1.662-0.581-2.82-0.581-2.82
								c-0.328-0.338-0.781-0.77-1.273-1.305l-0.016-0.017c-1.488-1.619-3.262-4.163-2.596-7.827c0.889-4.89,4.523-6.65,5.681-5.872
								c3.957,2.66,8.85,9.904,10.788,12.025c1.935,2.117,9.558,4.722,11.163,8.817c1.608,4.092,1.327,19.883,1.966,26.095
								c0.641,6.209,0.244,10.313-2.288,15.805c-1.505,3.259-3.649,9.364-4.864,15.22c-0.004,0.005-0.001,0.013-0.004,0.018
								c-0.099,0.465-0.186,0.922-0.269,1.383c0.001,0.02-0.007,0.043-0.014,0.064c-0.629,3.488-0.878,6.794-0.397,9.232
								c1.345,6.829,1.844,9.506,2.408,11.491c0.57,1.989-0.539,2.019,1.089,3.766s6.788,4.804,6.216,5.716s7.426,3.205,6.397,4.558
								c0,0-0.003,0.005,0.002,0.007c0.081,0.105,1.039,1.338,2.603,1.626c1.627,0.294,2.213,1.388,1.479,2.559
								s-8.934,13.088-20.209,24.708c-11.282,11.62-21.726,19.586-24.494,21.113c-2.775,1.528-3.047-0.641-3.047-0.641
								s-1.126-0.52-2.838-0.687c-1.707-0.165-2.117-0.968-3.43-3.789c-1.316-2.817-2.098-4.759-5.469-6.327
								c-3.368-1.57-4.57-6.314-5.738-9.949c-1.169-3.637-1.34-6.834-4.061-7.995c-2.717-1.157-11.969-6.96-19.521-13.147
								c-7.552-6.188-11.355-10.39-11.17-15.898l-0.01-0.007l5.877-6.728l16.189-18.553l0.023-0.025
								c4.678-5.049,17.885-15.724,24.65-20.535C404.239,23.692,408.317,22.104,413.038,17.984z"/>
						</g>
					</g>
				</g>
				<path fill="#0091C7" d="M411.36-17.691l-0.016-0.017l-3.373-2.939c0.562,1.729,1.453,4.146,2.458,5.695l-2.349,2.803
					l0.506,0.442l1.708,1.491l2.92-3.35c-0.369-1.662-0.581-2.82-0.581-2.82C412.306-16.725,411.853-17.156,411.36-17.691z"/>
				<path fill="#B1BFBF" d="M373.304,9.484c-0.016-0.016-0.024-0.033-0.04-0.052c-0.092-0.097-0.141-0.147-0.141-0.147
					c0.015,0.01,0.029,0.019,0.052,0.025c1.471,0.849,5.59-0.336,7.254-2.701c0.774-1.104,1.779-3.252,1.997-5.973
					c-0.392-2.289-0.989-3.752-1.345-2.694c-0.785,2.341-5.347,5.659-7.373,5.465c-2.029-0.192-5.566-5.287-9.082-8.093
					c-1.997-1.592-2.6-3.74-2.748-5.301c-1.436,2.063-1.719,4.176-1.497,5.945c-0.229-0.035-5.419-0.814-9.226,2.551l0.001-0.001
					c2.417-2.069,4.165-1.355,6.133-1.201c1.968,0.155,5.188,2.544,7.474,4.292c2.285,1.746,4.412,4.242,6.138,6.284
					c1.726,2.043,4.021,5.997,3.576,8.235c-0.446,2.238-4.454,5.958-7.507,6.081c-3.055,0.122-11.46-7.187-12.514-7.608
					c-1.055-0.422-0.873,1.011,3.326,4.004s5.044,6.162,6.381,8.079c1.336,1.916-2.998,7.231-5.637,7.615
					c-2.637,0.383-5.152-1.915-7.725-3.528c-2.573-1.613-8.744-4.045-8.744-4.045c2.287,3.232,6.838,5.729,6.258,6.973
					c-0.579,1.246-2.013,4.801-8.193,5.479c-6.182,0.68-7.43-6.696-8.758-4.771c-1.326,1.926,4.29,4.248,3.804,5.022
					c-0.484,0.773-3.863-1.105-2.819-0.091c1.042,1.014,2.646,0.94,4.218,0.728c1.572-0.213-0.367,0.969-2.693,1.429
					c-1.202,0.236-2.35-0.839-3.181-1.934c0.467,2.484,1.586,4.69,3.186,6.596l5.075-5.639c1.241,0.132,2.89,0.234,4.988,0.199
					c5.647-0.087,9.132-6.979,9.132-6.979c4.705,3.496,8.57,2.832,11.915-1.057c3.344-3.889,0.55-7.819,0.55-7.819
					c3.277,1.144,8.947-0.382,11.12-5.004C378.601,15.723,374.265,10.555,373.304,9.484z"/>
				<path fill="#B1BFBF" d="M416.839,14.948c0.455-2.119,6.392-6.706,6.219-9.22c-0.174-2.513-5.27,4.567-5.676,1.032
					c-0.408-3.535,9.258-7.094,9.027-9.862c-0.232-2.769-6.188,1.148-7.795-1.17c-1.605-2.318-3.486-5.248-3.719-8.018
					c-0.23-2.769-0.638-6.303-3.678-8.429c-1.244-0.87-2.043-2.271-2.598-3.675c-0.154,3.056,1.395,5.241,2.725,6.687l0.016,0.017
					c0.49,0.534,0.945,0.965,1.271,1.305c0,0,0.213,1.158,0.582,2.82c0.688,3.076,1.926,7.866,3.407,10.206
					c2.274,3.604-0.376,8.116,0.681,10.775c0.566,1.421-0.145,4.084-1.227,6.395c-0.933,2.006-2.146,3.741-3.039,4.174
					c-4.719,4.118-8.799,5.708-15.578,10.531c-6.709,4.771-19.74,15.299-24.523,20.401c7.721-6.881,16.179-14.213,19.469-16.275
					c5.406-3.389,15.27-7.262,17.568-9.536C412.274,20.832,416.384,17.068,416.839,14.948z"/>
				<g>
					<path fill="#B1BFBF" d="M405.466,132.448c-2.965,0.546,0.064-3.239,2.856-6.298c2.793-3.06,11.345-9.721,14.491-12.996
						c3.148-3.275,13.334-13.941,9.027-9.862c-4.305,4.077-11.52,8.955-15.217,12.76c-3.697,3.803-11.641,10.191-15.372,10.912
						s-3.255-2.479-5.274-4.839s-8.043-4.607-7.566-7.807c0.475-3.199,6.601-2.855,9.275-4.679
						c2.672-1.823,16.557-16.292,15.083-15.686c-1.474,0.607-7.394,7.608-10.638,9.292c-3.242,1.683-13.68,8.912-15.129,6.691
						c-1.449-2.223-2.724-3.676-1.17-5.106s8.373-5.682,3.599-3.647c-4.774,2.036-5.578,0.875-13.956-2.849
						c-8.379-3.724-18.474-15.521-19.505-21.196c-1.032-5.678,5.955-16.819,11.751-19.087c5.797-2.27,10.946-5.601,13.25-9.621
						c2.303-4.022,18.605-20.255,18.605-20.255l-0.951-0.479c-0.381,0.262-0.769,0.533-1.169,0.817
						c-6.767,4.812-19.973,15.487-24.651,20.537l-0.022,0.024l-16.189,18.553l-5.876,6.728l0.009,0.007
						c-0.187,5.51,3.617,9.713,11.169,15.899c7.553,6.188,16.805,11.99,19.521,13.147c2.721,1.16,2.893,4.357,4.062,7.994
						c1.169,3.636,2.37,8.377,5.737,9.95c3.371,1.569,4.152,3.509,5.469,6.327c1.312,2.821,1.723,3.622,3.43,3.788
						c1.713,0.168,2.84,0.687,2.84,0.687s0.27,2.168,3.046,0.641c0.782-0.432,2.175-1.375,4.025-2.769
						C407.921,131.404,406.285,132.297,405.466,132.448z"/>
					<path fill="#B1BFBF" d="M446.623,82.792c-0.005-0.003-0.002-0.008-0.002-0.008c0.468-0.616-0.938-1.427-2.551-2.215
						c0.468,0.334,0.897,0.747,1.255,1.223c1.548,2.063-5.927,10.495-4.314,9.319c1.611-1.176,4.346-4.489,5.133-5.744
						c0.788-1.257,1.591-0.096,3.24,0.062c0.904,0.088,1.191,0.843,1.174,1.773c0.062-0.095,0.115-0.175,0.146-0.227
						c0.734-1.171,0.148-2.265-1.479-2.559C447.661,84.13,446.704,82.896,446.623,82.792z"/>
					<path fill="#B1BFBF" d="M428.562,64.939c0.306,5.439,3.128,8.958,2.888,11.431c-0.238,2.474,0.126,8.169-1.843,11.309
						c-1.968,3.139-7.631,8.333-10.129,10.921c-2.497,2.588-9.03,11.61-5.413,8.631c3.617-2.978,11.502-9.623,13.627-12.664
						c2.125-3.039,10.11-11.588,11.645-13.687c0.805-1.1,1.984-1.358,3.149-1.062c-1.37-0.65-2.489-1.229-2.262-1.591
						c0.572-0.913-4.589-3.971-6.217-5.716c-1.628-1.746-0.518-1.775-1.088-3.765c-0.566-1.986-1.063-4.663-2.408-11.492
						c-0.481-2.438-0.231-5.744,0.396-9.232c0.008-0.021,0.016-0.045,0.014-0.063c0.084-0.462,0.171-0.92,0.27-1.383
						c0.003-0.006,0.002-0.014,0.004-0.018c0.497-2.396,1.15-4.829,1.851-7.096C429.44,48.738,428.3,60.268,428.562,64.939z"/>
				</g>
			</g>
			<g>
				<path fill="none" stroke="#000000" stroke-linecap="round" stroke-linejoin="round" stroke-miterlimit="10" d="M402.297,12.061
					c0,0,7.509,7.482,10.739,5.925c1.924-0.929,5.326-7.912,4.27-10.569c-1.055-2.658,1.592-7.168-0.684-10.773
					s-3.99-13.027-3.99-13.027c-1.316-1.37-4.768-4.26-3.879-9.148c0.886-4.887,4.523-6.652,5.68-5.874
					c3.955,2.661,8.85,9.904,10.785,12.026c1.938,2.121,9.561,4.725,11.166,8.817c1.607,4.094,1.322,19.884,1.965,26.095
					c0.642,6.209,0.244,10.315-2.291,15.803c-2.533,5.488-6.889,19.088-5.547,25.918c1.342,6.832,1.844,9.506,2.41,11.494
					c0.567,1.989-0.541,2.02,1.087,3.766c1.626,1.747,6.788,4.801,6.216,5.714c-0.572,0.911,7.426,3.206,6.397,4.557
					c0,0,0.976,1.337,2.604,1.633s2.215,1.389,1.48,2.562c-0.736,1.172-8.934,13.088-20.214,24.707
					c-11.278,11.618-21.722,19.589-24.493,21.116c-2.772,1.526-3.045-0.642-3.045-0.642s-1.125-0.523-2.836-0.688
					s-2.117-0.965-3.434-3.786c-1.315-2.82-2.095-4.762-5.465-6.331c-3.372-1.569-4.57-6.315-5.738-9.95s-1.342-6.828-4.062-7.991
					c-2.72-1.161-11.968-6.96-19.521-13.147c-7.551-6.188-11.359-10.392-11.172-15.9"/>
				<path fill="none" stroke="#000000" stroke-linecap="round" stroke-linejoin="round" stroke-miterlimit="10" d="M381.42,103.411
					c3.11,1.407,6.96,0.19,6.96,0.19"/>
				<path fill="none" stroke="#000000" stroke-linecap="round" stroke-linejoin="round" stroke-miterlimit="10" d="M388.464,111.277
					c0,0,1.715-1.286,5.748-1.93c4.034-0.647,7.521-0.999,10.656-3.391"/>
				<path fill="none" stroke="#000000" stroke-linecap="round" stroke-linejoin="round" stroke-miterlimit="10" d="M431.195,46.56
					c-0.675,3.995-3.05,11.571-2.974,15.792c0.074,4.222-0.846,9.45-0.846,9.45"/>
				<path fill="none" stroke="#000000" stroke-linecap="round" stroke-linejoin="round" stroke-miterlimit="10" d="M432.921,68.746
					c0.146,2.04-1.424,4.006-3.156,7.639c-1.733,3.632-13.199,20.756-17.086,25.941c-3.887,5.185-10.166,9.414-9.24,10.539"/>
				<path fill="none" stroke="#000000" stroke-linecap="round" stroke-linejoin="round" stroke-miterlimit="10" d="M412.179,104.734
					c1.77-0.522,16.558-16.292,19.564-21.664"/>
				<path fill="none" stroke="#000000" stroke-linecap="round" stroke-linejoin="round" stroke-miterlimit="10" d="M446.622,82.782
					c-0.133,1.369-1.111,1.481-4.715,3.757c-3.605,2.276-13.127,15.724-20.613,19.558"/>
				<path fill="none" stroke="#000000" stroke-linecap="round" stroke-linejoin="round" stroke-miterlimit="10" d="M440.225,78.226
					c-0.883,1.987-2.29,5.097-5.31,8.466"/>
				<path fill="none" stroke="#000000" stroke-linecap="round" stroke-linejoin="round" stroke-miterlimit="10" d="M448.001,86.37
					c0,0-13.781,18.214-22.87,25.763c-9.088,7.547-9.315,13.758-22.697,17.703"/>
				<path fill="none" stroke="#000000" stroke-linecap="round" stroke-linejoin="round" stroke-miterlimit="10" d="M372.786,49.081
					c4.657-5.042,17.896-15.745,24.676-20.565c6.778-4.822,10.855-6.411,15.574-10.53"/>
				<path fill="none" stroke="#000000" stroke-linecap="round" stroke-linejoin="round" stroke-miterlimit="10" d="M400.209,27.127
					c-3.186,2.835-13.837,14.848-19.312,25.688"/>
				<path fill="none" stroke="#000000" stroke-linecap="round" stroke-linejoin="round" stroke-miterlimit="10" d="M378.772,50.584
					c0,0-11.027,4.977-22.176,17.045"/>
				<path fill="none" stroke="#000000" stroke-linecap="round" stroke-linejoin="round" stroke-miterlimit="10" d="M376.022-12.436
					c-4.104-2.573-8.589-2.881-12.381,0.486c-3.793,3.365-3.686,7.215-2.857,9.695"/>
				<path fill="none" stroke="#000000" stroke-linecap="round" stroke-linejoin="round" stroke-miterlimit="10" d="M360.386-4.037
					c0,0-7.302-1.224-11.052,4.689c-3.751,5.915-0.169,10.928-0.169,10.928"/>
				<path fill="none" stroke="#000000" stroke-linecap="round" stroke-linejoin="round" stroke-miterlimit="10" d="M351.048,12.377
					c0,0-6.139-3.711-11.047,3.157c-4.909,6.87-0.297,9.815-0.297,9.815"/>
				<path fill="none" stroke="#000000" stroke-linecap="round" stroke-linejoin="round" stroke-miterlimit="10" d="M338.272,23.643
					c0,0-4.531,1.138-6.729,7.325c-2.2,6.187-0.92,11.307,2.334,15.181"/>
				<path fill="none" stroke="#000000" stroke-linecap="round" stroke-linejoin="round" stroke-miterlimit="10" d="M361.218-1.416
					c0,0,1.658,2.062,5.102,3.955c3.441,1.891,5.395,4.9,6.986,6.945"/>
				<path fill="none" stroke="#000000" stroke-linecap="round" stroke-linejoin="round" stroke-miterlimit="10" d="M352.736,13.82
					c0,0,3.29,2.455,4.63,4.168c1.342,1.713,5.614,5.594,8.172,6.865"/>
				<path fill="none" stroke="#000000" stroke-linecap="round" stroke-linejoin="round" stroke-miterlimit="10" d="M341.319,26.363
					c0,0,3.954,1.281,6.543,1.966c2.59,0.685,6.483,2.435,5.211,5.404"/>
				<path fill="none" stroke="#000000" stroke-linecap="round" stroke-linejoin="round" stroke-miterlimit="10" d="M351.2,31.121
					c0,0-2.367,1.116-3.475,4.063"/>
				<path fill="none" stroke="#000000" stroke-linecap="round" stroke-linejoin="round" stroke-miterlimit="10" d="M365.276,26.764
					c0,0-3.223,2.369-4.791,6.148"/>
				<path fill="none" stroke="#000000" stroke-linecap="round" stroke-linejoin="round" stroke-miterlimit="10" d="M375.716,15.563
					c0,0-1.825,5.384-5.766,7.405"/>
				<path fill="none" stroke="#000000" stroke-linecap="round" stroke-linejoin="round" stroke-miterlimit="10" d="M381.169-0.071
					c0,0-0.707,3.573-3.784,6.033"/>
				<path fill="none" stroke="#000000" stroke-linecap="round" stroke-linejoin="round" stroke-miterlimit="10" d="M355.038,2.596
					c0,0-4.07,2.611-4.725,9.427"/>
				<path fill="none" stroke="#000000" stroke-linecap="round" stroke-linejoin="round" stroke-miterlimit="10" d="M343.429,17.267
					c0,0-4.213,4.291-4.296,7.589"/>
				<path fill="none" stroke="#000000" stroke-linecap="round" stroke-linejoin="round" stroke-miterlimit="10" d="M415.177,15.463
					c1.431-2.938,6.82-10.993,9.666-13.97"/>
				<path fill="none" stroke="#000000" stroke-linecap="round" stroke-linejoin="round" stroke-miterlimit="10" d="M412.555,20.229
					c1.04-0.572,9.132-11.47,14.509-13.563"/>
				<g>
					
						<rect x="394.219" y="7.382" transform="matrix(-0.7534 -0.6575 0.6575 -0.7534 687.8114 284.4439)" fill="none" stroke="#000000" stroke-linecap="round" stroke-linejoin="round" stroke-miterlimit="10" width="6.037" height="11.759"/>
					
						<rect x="398.399" y="8.003" transform="matrix(-0.7533 -0.6577 0.6577 -0.7533 702.3198 282.442)" fill="none" stroke="#000000" stroke-linecap="round" stroke-linejoin="round" stroke-miterlimit="10" width="11.47" height="2.986"/>
					<path fill="none" stroke="#000000" stroke-linecap="round" stroke-linejoin="round" stroke-miterlimit="10" d="M335.929,39.949
						c0,0,2.37,0.85,8.016,0.761c5.646-0.089,9.129-6.977,9.129-6.977c4.705,3.495,8.568,2.832,11.916-1.058
						c3.346-3.89,0.549-7.822,0.549-7.822c3.273,1.146,8.948-0.377,11.122-5.002c2.174-4.624-3.537-10.565-3.537-10.565
						c1.433,0.898,5.623-0.285,7.306-2.679c1.682-2.393,4.464-9.721-2.143-17.129c-4.721-4.659-10.018-5.933-14.474-4.957
						c-1.421,0.255-2.575,0.166-2.81-0.727c-0.213-0.812,0.379-1.717,2.162-2.496c5.57-2.064,11.917-1.196,16.543,2.841
						c1.656,1.446,2.938,3.169,3.844,5.046c1.719,0.695,6.414,2.913,12.842,8.523c2.312,2.019,4.158,3.874,5.617,5.497L391.1,15.707
						l6.14,5.36l-72.21,82.723l-24.104-21.038l38.028-42.241"/>
					<polyline fill="none" stroke="#000000" stroke-linecap="round" stroke-linejoin="round" stroke-miterlimit="10" points="
						398.61,-0.275 408.589,-11.705 402.79,-16.768 392.751,-5.266 					"/>
					<polyline fill="none" stroke="#000000" stroke-linecap="round" stroke-linejoin="round" stroke-miterlimit="10" points="
						413.216,-13.563 410.294,-10.216 401.086,-18.256 405.247,-23.025 411.36,-17.691 					"/>
					
						<rect x="297.5" y="91.415" transform="matrix(-0.7533 -0.6577 0.6577 -0.7533 478.0255 372.5897)" fill="none" stroke="#000000" stroke-linecap="round" stroke-linejoin="round" stroke-miterlimit="10" width="22.789" height="10.445"/>
					<polygon fill="none" stroke="#000000" stroke-linecap="round" stroke-linejoin="round" stroke-miterlimit="10" points="
						314.051,108.071 296.883,93.086 298.39,101.754 305.257,107.748 					"/>
					<polygon fill="none" stroke="#000000" stroke-linecap="round" stroke-linejoin="round" stroke-miterlimit="10" points="
						270.063,145.642 265.599,141.746 298.39,101.754 305.257,107.748 					"/>
					<polygon fill="#666666" stroke="#000000" stroke-linecap="round" stroke-linejoin="round" stroke-miterlimit="10" points="
						269.577,145.216 266.087,142.171 264.95,143.475 265.573,144.017 262.323,147.937 264.354,149.709 267.8,145.96 
						268.438,146.519 					"/>
					<path fill="none" stroke="#000000" stroke-linecap="round" stroke-linejoin="round" stroke-miterlimit="10" d="
						M265.079,142.373L230.61,184.81c-0.379,0.436-0.351,1.086,0.066,1.448c0.416,0.363,1.062,0.305,1.443-0.131l37.391-39.885
						L265.079,142.373z"/>
					
						<line fill="none" stroke="#000000" stroke-linecap="round" stroke-linejoin="round" stroke-miterlimit="10" x1="400.229" y1="1.314" x2="316.938" y2="96.73"/>
					
						<rect x="334.117" y="50.323" transform="matrix(-0.7533 -0.6577 0.6577 -0.7533 548.6245 331.3785)" fill="none" stroke="#000000" stroke-linecap="round" stroke-linejoin="round" stroke-miterlimit="10" width="4.701" height="24.925"/>
					
						<line fill="none" stroke="#000000" stroke-linecap="round" stroke-linejoin="round" stroke-miterlimit="10" x1="407.722" y1="-12.463" x2="397.782" y2="-1.078"/>
				</g>
				<path fill="none" stroke="#000000" stroke-linecap="round" stroke-linejoin="round" stroke-miterlimit="10" d="M383.551-10.813
					c0,0,0.792,1.658,2.118,2.425"/>
			</g>
		</g>
		<g>
			<path fill="#BBBBBB" stroke="#000000" stroke-linecap="round" stroke-linejoin="round" stroke-miterlimit="10" d="
				M94.891,356.773c28.424,16.736,61.546,26.347,96.917,26.347c35.373,0,68.494-9.61,96.919-26.347H94.891z"/>
			<path fill="#666666" stroke="#000000" stroke-linecap="round" stroke-linejoin="round" stroke-miterlimit="10" d="
				M261.751,369.905H121.867c21.665,8.52,45.251,13.215,69.941,13.215C216.498,383.12,240.085,378.425,261.751,369.905z"/>
		</g>
	</g>
</g>
<circle fill="none" stroke="#000000" stroke-linecap="round" stroke-linejoin="round" stroke-miterlimit="10" cx="191.81" cy="191.811" r="191.31"/>
</svg>
