<?xml version="1.0" encoding="utf-8"?>
<!-- Generator: Adobe Illustrator 26.4.1, SVG Export Plug-In . SVG Version: 6.00 Build 0)  -->
<svg version="1.1" id="Camada_1" xmlns="http://www.w3.org/2000/svg" xmlns:xlink="http://www.w3.org/1999/xlink" x="0px" y="0px"
	 width="303.985px" height="310.622px" viewBox="0 0 303.985 310.622" enable-background="new 0 0 303.985 310.622"
	 xml:space="preserve">
<g>
	<path fill="#CBCBCB" d="M292.23,310.12H11.75c-36.27-102.63,23.01-142.45,23.01-142.45c-13.27-61.49,36.27-72.11,36.27-72.11
		C55.99,45.57,105.1,0,151.99,0c46.9,0,96,45.57,80.96,95.56c0,0,49.55,10.62,36.28,72.11
		C269.23,167.67,328.51,207.49,292.23,310.12z"/>
	<g>
		<path fill="#F49D91" d="M135.567,73.111c-2.314-0.11-3.73,1.865-3.419,3.108c0.311,1.243,3.316,3.627,6.321,5.492
			c3.005,1.865,4.87,2.798,3.212,8.808c-1.658,6.01-3.212,10.258-9.429,11.398c-6.217,1.14-21.034-0.725-29.013-9.118
			c-7.978-8.393-6.528-18.962-5.181-27.873c1.347-8.911,6.735-21.76,22.07-22.381s28.391,4.663,31.5,12.849
			c3.109,8.186,0.829,14.817-3.523,17.097C143.752,74.769,137.743,73.215,135.567,73.111z"/>
		<path fill="#CDEDFA" stroke="#000000" stroke-linecap="round" stroke-linejoin="round" stroke-miterlimit="10" d="M113.37,55.111
			c-3.08-1.232-7.532-0.9-9.66,2.702c-2.129,3.602-2.865,6.549-1.883,8.432c0.982,1.883-0.819,5.567,0.164,7.041
			c0.982,1.473,10.97,3.52,19.894,3.029c8.923-0.491,10.07-1.556,10.561-3.766c0.491-2.21-3.684-5.485-9.005-5.403
			c-5.321,0.082-8.596,0.819-8.596,0.819s-0.737-4.257,6.713-4.011c7.45,0.246,9.333,4.584,11.871,4.584
			c2.538,0,1.965-1.965,0.327-2.947C132.117,64.608,115.826,56.094,113.37,55.111z"/>
		<path fill="#FFE2AD" stroke="#000000" stroke-linecap="round" stroke-linejoin="round" stroke-miterlimit="10" d="M121.884,76.315
			c5.634-0.31,8.166-0.849,9.392-1.76c-1.907-1.265-1.361-4.028-1.863-4.641c-0.534-0.653-6.05-2.432-11.328-0.297
			c-4.249,1.719-5.077,5.165-5.239,6.445C115.72,76.356,118.863,76.481,121.884,76.315z"/>
		<path fill="none" stroke="#000000" stroke-linecap="round" stroke-linejoin="round" stroke-miterlimit="10" d="M135.567,73.111
			c-2.314-0.11-3.73,1.865-3.419,3.108c0.311,1.243,3.316,3.627,6.321,5.492c3.005,1.865,4.87,2.798,3.212,8.808
			c-1.658,6.01-3.212,10.258-9.429,11.398c-6.217,1.14-21.034-0.725-29.013-9.118c-7.978-8.393-6.528-18.962-5.181-27.873
			c1.347-8.911,6.735-21.76,22.07-22.381s28.391,4.663,31.5,12.849c3.109,8.186,0.829,14.817-3.523,17.097
			C143.752,74.769,137.743,73.215,135.567,73.111z"/>
		<g>
			<path fill="#98C680" d="M119.504,72.794c0,0-1.639,2.536,0.197,3.148C119.701,75.942,121.1,75.286,119.504,72.794z"/>
			<path fill="#714580" d="M119.832,74.608c0,0.109-0.088,0.197-0.197,0.197c-0.109,0-0.197-0.088-0.197-0.197
				c0-0.109,0.088-0.197,0.197-0.197C119.744,74.412,119.832,74.5,119.832,74.608z"/>
		</g>
		<g>
			<path fill="#98C680" d="M121.515,72.707c0,0-1.639,2.536,0.197,3.148C121.712,75.854,123.111,75.199,121.515,72.707z"/>
			<circle fill="#714580" cx="121.647" cy="74.521" r="0.197"/>
		</g>
		<g>
			<path fill="#98C680" d="M123.504,72.641c0,0-1.639,2.536,0.197,3.148C123.701,75.789,125.1,75.133,123.504,72.641z"/>
			<path fill="#714580" d="M123.833,74.455c0,0.109-0.088,0.197-0.197,0.197c-0.109,0-0.197-0.088-0.197-0.197
				c0-0.109,0.088-0.197,0.197-0.197C123.744,74.259,123.833,74.347,123.833,74.455z"/>
		</g>
		<g>
			<path fill="#98C680" d="M128.113,71.867c0,0-0.911,2.879,1.021,2.984C129.134,74.851,130.31,73.849,128.113,71.867z"/>
			<path fill="#714580" d="M128.908,73.53c0.029,0.105-0.033,0.213-0.138,0.242s-0.213-0.033-0.242-0.138
				c-0.029-0.105,0.033-0.213,0.138-0.242C128.772,73.364,128.88,73.426,128.908,73.53z"/>
		</g>
		<path fill="#CDEDFA" stroke="#000000" stroke-linecap="round" stroke-linejoin="round" stroke-miterlimit="10" d="M138.157,45.756
			c-3.212-1.036-13.47-4.145-20.724-1.036c-7.253,3.109-6.424,6.424-4.145,8.289c2.28,1.865,20.205,9.636,22.278,11.294
			c2.072,1.658,1.514,4.705,5.365,8.053c0.909,0.791,2.175,1.384,3.562,1.219c1.251-0.168,2.486-0.498,3.611-1.087
			c3.616-1.894,5.798-6.795,4.65-13.094c-0.519-1.71-1.326-3.512-2.474-5.35C148.208,50.73,144.307,47.74,138.157,45.756z"/>
		<path fill="#CDEDFA" stroke="#000000" stroke-linecap="round" stroke-linejoin="round" stroke-miterlimit="10" d="M141.68,90.519
			c0.32-1.16,0.508-2.13,0.582-2.955c0.058-1.013-0.172-1.783-0.712-2.496c-0.794-1.048-2.112-2.137-4.599-2.759
			c-2.487-0.622-9.496-2.915-11.482-4.289c-0.806-0.558-19.02-1.593-21.921-1.904c-2.901-0.311-4.87,3.419-4.766,7.253
			c0.104,3.834,4.145,12.434,17.097,15.957c11.84,3.221,20.309,2.176,22.935-1.499C140.1,95.9,140.881,93.417,141.68,90.519z"/>
		<path fill="#93C6B8" d="M125.93,69.232c0,0-1.667,3.159-1.755,4.65c-0.088,1.492,0.658,1.711,1.579,1.667
			c0.921-0.044,2.281,0,1.843-1.667C127.158,72.215,125.93,69.232,125.93,69.232z"/>
		<g>
			<path fill="#589291" d="M120.488,67.361c0,0,0.308,1.339-0.579,2.871c-0.887,1.532-1.258,1.926-0.643,2.581
				c0.615,0.655,1.548-0.714,1.672-2.19c0.125-1.476-0.172-1.888-0.172-1.888L120.488,67.361z"/>
			<path fill="#714580" d="M120.107,71.986c0.013,0.179-0.121,0.334-0.299,0.347c-0.178,0.013-0.334-0.121-0.347-0.299
				c-0.013-0.179,0.121-0.334,0.299-0.347C119.938,71.674,120.094,71.808,120.107,71.986z"/>
		</g>
		<g>
			<path fill="#589291" d="M122.284,67.186c0,0,0.127,1.16-0.608,2.771c-0.735,1.611-1.066,2.039-0.39,2.631
				c0.675,0.592,1.471-0.861,1.452-2.342c-0.019-1.481-0.354-1.862-0.354-1.862L122.284,67.186z"/>
			<path fill="#714580" d="M122.043,71.684c0.03,0.176-0.088,0.344-0.264,0.374c-0.176,0.03-0.344-0.088-0.374-0.265
				c-0.03-0.176,0.088-0.344,0.265-0.374C121.845,71.389,122.012,71.508,122.043,71.684z"/>
		</g>
		<g>
			<path fill="#589291" d="M123.88,67.261c0,0,0.311,1.363-0.269,2.878c-0.58,1.515-0.848,1.915-0.272,2.491
				c0.576,0.576,1.21-0.787,1.164-2.194c-0.046-1.407-0.334-1.776-0.334-1.776L123.88,67.261z"/>
			<path fill="#714580" d="M124.013,71.709c0.03,0.176-0.088,0.344-0.264,0.374c-0.176,0.03-0.344-0.088-0.374-0.264
				c-0.03-0.176,0.088-0.344,0.265-0.374C123.815,71.414,123.982,71.532,124.013,71.709z"/>
		</g>
		<g>
			<path fill="#589291" d="M127.774,67.904c0,0-0.141,2.085-0.151,2.508c-0.031,1.266-0.11,1.427,0.287,1.88
				c0.397,0.453,0.755-0.564,0.604-1.678C128.364,69.501,127.774,67.904,127.774,67.904z"/>
			<path fill="#714580" d="M128.303,71.276c0.035,0.143-0.037,0.283-0.159,0.312c-0.122,0.03-0.249-0.062-0.284-0.205
				c-0.035-0.143,0.037-0.283,0.159-0.312C128.141,71.041,128.269,71.133,128.303,71.276z"/>
		</g>
		<g>
			<path fill="#98C680" d="M114.52,72.45c0,0-1.133,2.12,0.261,3.485C114.781,75.935,115.798,74.512,114.52,72.45z"/>
			<path fill="#714580" d="M114.826,74.28c0,0.109-0.088,0.197-0.197,0.197c-0.109,0-0.197-0.088-0.197-0.197
				c0-0.109,0.088-0.197,0.197-0.197C114.738,74.084,114.826,74.172,114.826,74.28z"/>
		</g>
		<g>
			<path fill="#98C680" d="M115.679,71.657c0,0-1.133,2.536,0.261,4.168C115.94,75.826,116.957,74.124,115.679,71.657z"/>
			<path fill="#714580" d="M115.985,73.887c0,0.109-0.088,0.197-0.197,0.197c-0.109,0-0.197-0.088-0.197-0.197
				c0-0.109,0.088-0.197,0.197-0.197C115.897,73.69,115.985,73.778,115.985,73.887z"/>
		</g>
		<g>
			<path fill="#98C680" d="M116.859,70.87c0,0-1.133,3.015,0.261,4.955C117.12,75.826,118.137,73.802,116.859,70.87z"/>
			<path fill="#714580" d="M117.165,73.494c0,0.109-0.088,0.197-0.197,0.197c-0.109,0-0.197-0.088-0.197-0.197
				c0-0.109,0.088-0.197,0.197-0.197C117.077,73.297,117.165,73.385,117.165,73.494z"/>
		</g>
		<g>
			<path fill="#98C680" d="M117.908,70.433c0,0-1.133,3.28,0.261,5.392C118.17,75.826,119.186,73.624,117.908,70.433z"/>
			<path fill="#714580" d="M118.215,73.297c0,0.109-0.088,0.197-0.197,0.197c-0.109,0-0.197-0.088-0.197-0.197
				c0-0.109,0.088-0.197,0.197-0.197C118.127,73.1,118.215,73.188,118.215,73.297z"/>
		</g>
	</g>
	<g>
		<path fill="#F49D91" d="M188.784,67.135c2.296,0.102,3.514,2.181,3.094,3.381c-0.42,1.2-3.605,3.28-6.742,4.849
			c-3.137,1.569-5.064,2.32-3.973,8.406c1.091,6.086,2.239,10.423,8.276,12.115c6.036,1.691,20.84,1.197,29.483-6.367
			c8.643-7.563,8.172-18.134,7.652-27.057c-0.52-8.923-4.673-22.103-19.762-24.112c-15.089-2.009-28.464,2.023-32.279,9.825
			c-3.814,7.802-2.166,14.558,1.924,17.206C180.549,68.028,186.626,67.04,188.784,67.135z"/>
		<path fill="#CDEDFA" stroke="#000000" stroke-linecap="round" stroke-linejoin="round" stroke-miterlimit="10" d="M212.344,51.377
			c3.154-0.937,7.52-0.204,9.295,3.547c1.775,3.751,2.234,6.729,1.093,8.499c-1.141,1.77,0.302,5.573-0.802,6.939
			c-1.104,1.366-11.155,2.479-19.923,1.182c-8.768-1.297-9.803-2.452-10.088-4.68c-0.284-2.228,4.137-5.082,9.385-4.517
			c5.248,0.565,8.415,1.59,8.415,1.59s1.115-4.137-6.265-4.572c-7.38-0.435-9.634,3.679-12.141,3.448
			c-2.506-0.231-1.762-2.119-0.055-2.941C192.964,59.051,209.829,52.124,212.344,51.377z"/>
		<path fill="#FFE2AD" stroke="#000000" stroke-linecap="round" stroke-linejoin="round" stroke-miterlimit="10" d="M202.006,71.543
			c-5.536-0.819-7.988-1.581-9.116-2.593c1.998-1.075,1.71-3.854,2.262-4.414c0.587-0.596,6.196-1.851,11.215,0.737
			c4.04,2.084,4.545,5.563,4.588,6.842C208.089,72.145,204.975,71.983,202.006,71.543z"/>
		<path fill="none" stroke="#000000" stroke-linecap="round" stroke-linejoin="round" stroke-miterlimit="10" d="M188.784,67.135
			c2.296,0.102,3.514,2.181,3.094,3.381c-0.42,1.2-3.605,3.28-6.742,4.849c-3.137,1.569-5.064,2.32-3.973,8.406
			c1.091,6.086,2.239,10.423,8.276,12.115c6.036,1.691,20.84,1.197,29.483-6.367c8.643-7.563,8.172-18.134,7.652-27.057
			c-0.52-8.923-4.673-22.103-19.762-24.112c-15.089-2.009-28.464,2.023-32.279,9.825c-3.814,7.802-2.166,14.558,1.924,17.206
			C180.549,68.028,186.626,67.04,188.784,67.135z"/>
		<g>
			<path fill="#98C680" d="M204.677,68.283c0,0,1.388,2.653-0.481,3.091C204.196,71.374,202.874,70.599,204.677,68.283z"/>
			<path fill="#714580" d="M204.188,70.045c-0.01,0.107,0.069,0.202,0.176,0.212c0.107,0.01,0.202-0.069,0.212-0.176
				c0.01-0.107-0.069-0.202-0.176-0.212S204.197,69.937,204.188,70.045z"/>
		</g>
		<g>
			<path fill="#98C680" d="M202.698,68.013c0,0,1.388,2.653-0.481,3.091C202.217,71.104,200.895,70.329,202.698,68.013z"/>
			<path fill="#714580" d="M202.209,69.775c-0.01,0.107,0.069,0.202,0.176,0.212c0.107,0.01,0.202-0.069,0.212-0.176
				c0.01-0.107-0.069-0.202-0.176-0.212C202.314,69.589,202.219,69.668,202.209,69.775z"/>
		</g>
		<g>
			<path fill="#98C680" d="M200.74,67.768c0,0,1.388,2.653-0.481,3.091C200.259,70.859,198.937,70.084,200.74,67.768z"/>
			<path fill="#714580" d="M200.251,69.53c-0.01,0.107,0.069,0.202,0.176,0.212c0.107,0.01,0.202-0.069,0.212-0.176
				c0.01-0.107-0.069-0.202-0.176-0.212C200.355,69.343,200.26,69.422,200.251,69.53z"/>
		</g>
		<g>
			<path fill="#98C680" d="M196.259,66.584c0,0,0.638,2.926-1.28,2.854C194.979,69.438,193.908,68.342,196.259,66.584z"/>
			<path fill="#714580" d="M195.322,68.155c-0.038,0.101,0.013,0.213,0.114,0.251c0.101,0.038,0.213-0.013,0.251-0.114
				c0.038-0.101-0.013-0.213-0.114-0.251C195.472,68.003,195.359,68.054,195.322,68.155z"/>
		</g>
		<path fill="#CDEDFA" stroke="#000000" stroke-linecap="round" stroke-linejoin="round" stroke-miterlimit="10" d="M188.714,39.883
			c3.267-0.731,13.681-2.868,20.561,0.861c6.881,3.73,5.76,6.929,3.339,8.564c-2.421,1.635-20.832,7.679-23.029,9.128
			c-2.197,1.449-1.924,4.509-6.031,7.466c-0.97,0.698-2.273,1.169-3.629,0.88c-1.22-0.28-2.41-0.718-3.467-1.402
			c-3.399-2.2-5.108-7.238-3.402-13.355c0.668-1.642,1.629-3.348,2.93-5.059C178.335,43.881,182.46,41.283,188.714,39.883z"/>
		<path fill="#CDEDFA" stroke="#000000" stroke-linecap="round" stroke-linejoin="round" stroke-miterlimit="10" d="M181.163,83.771
			c-0.211-1.175-0.308-2.149-0.306-2.971c0.035-1.006,0.332-1.745,0.931-2.4c0.879-0.963,2.28-1.919,4.793-2.307
			c2.513-0.388,9.643-2.015,11.73-3.192c0.847-0.478,18.929,0.157,21.823,0.113c2.894-0.043,4.499,3.82,4.048,7.597
			c-0.451,3.777-5.224,11.903-18.337,14.205c-11.987,2.104-20.256,0.302-22.515-3.566C182.234,89.229,181.689,86.706,181.163,83.771
			z"/>
		<path fill="#93C6B8" d="M198.654,64.18c0,0,1.359,3.271,1.31,4.752c-0.049,1.481-0.806,1.63-1.712,1.503
			c-0.906-0.127-2.253-0.207-1.668-1.814S198.654,64.18,198.654,64.18z"/>
		<g>
			<path fill="#589291" d="M204.199,62.827c0,0-0.426,1.294,0.311,2.888c0.737,1.594,1.068,2.017,0.401,2.608
				c-0.667,0.591-1.464-0.846-1.452-2.315c0.011-1.469,0.342-1.849,0.342-1.849L204.199,62.827z"/>
			<path fill="#714580" d="M204.155,67.43c-0.029,0.175,0.089,0.341,0.264,0.37c0.175,0.029,0.341-0.089,0.37-0.264
				c0.029-0.175-0.089-0.341-0.264-0.37C204.349,67.137,204.184,67.255,204.155,67.43z"/>
		</g>
		<g>
			<path fill="#589291" d="M202.442,62.492c0,0-0.231,1.134,0.348,2.792c0.579,1.658,0.867,2.111,0.146,2.634
				c-0.721,0.523-1.375-0.984-1.221-2.445c0.153-1.461,0.519-1.807,0.519-1.807L202.442,62.492z"/>
			<path fill="#714580" d="M202.27,66.955c-0.046,0.172,0.056,0.348,0.227,0.394c0.172,0.046,0.348-0.056,0.394-0.227
				c0.046-0.171-0.056-0.348-0.227-0.394C202.493,66.682,202.316,66.784,202.27,66.955z"/>
		</g>
		<g>
			<path fill="#589291" d="M200.859,62.42c0,0-0.431,1.317,0.004,2.866c0.435,1.549,0.663,1.968,0.042,2.485
				c-0.621,0.517-1.124-0.887-0.95-2.273c0.173-1.386,0.491-1.723,0.491-1.723L200.859,62.42z"/>
			<path fill="#714580" d="M200.323,66.801c-0.046,0.172,0.056,0.348,0.227,0.394c0.171,0.046,0.348-0.056,0.394-0.227
				c0.046-0.172-0.056-0.348-0.227-0.394C200.545,66.528,200.368,66.629,200.323,66.801z"/>
		</g>
		<g>
			<path fill="#589291" d="M196.954,62.701c0,0-0.051,2.072-0.079,2.491c-0.085,1.253-0.021,1.419-0.455,1.83
				c-0.434,0.411-0.694-0.626-0.444-1.712C196.226,64.224,196.954,62.701,196.954,62.701z"/>
			<path fill="#714580" d="M196.124,65.983c-0.047,0.138,0.01,0.283,0.129,0.323c0.118,0.04,0.252-0.039,0.299-0.177
				c0.047-0.138-0.01-0.283-0.128-0.323C196.306,65.766,196.172,65.845,196.124,65.983z"/>
		</g>
		<g>
			<path fill="#98C680" d="M209.63,68.396c0,0,0.926,2.197-0.575,3.418C209.055,71.814,208.181,70.316,209.63,68.396z"/>
			<path fill="#714580" d="M209.161,70.176c-0.01,0.107,0.069,0.202,0.176,0.212c0.107,0.01,0.202-0.069,0.212-0.177
				c0.01-0.107-0.069-0.202-0.176-0.212C209.266,69.99,209.171,70.069,209.161,70.176z"/>
		</g>
		<g>
			<path fill="#98C680" d="M208.558,67.508c0,0,0.888,2.607-0.637,4.093C207.921,71.601,207.072,69.828,208.558,67.508z"/>
			<path fill="#714580" d="M208.053,69.682c-0.01,0.107,0.069,0.202,0.176,0.212c0.107,0.01,0.202-0.069,0.212-0.176
				s-0.069-0.202-0.176-0.212C208.158,69.496,208.063,69.575,208.053,69.682z"/>
		</g>
		<g>
			<path fill="#98C680" d="M207.464,66.623c0,0,0.844,3.08-0.709,4.87C206.755,71.494,205.935,69.403,207.464,66.623z"/>
			<path fill="#714580" d="M206.923,69.186c-0.01,0.107,0.069,0.202,0.176,0.212c0.107,0.01,0.202-0.069,0.212-0.176
				s-0.069-0.202-0.176-0.212C207.028,69,206.933,69.079,206.923,69.186z"/>
		</g>
		<g>
			<path fill="#98C680" d="M206.467,66.096c0,0,0.82,3.343-0.749,5.302C205.719,71.398,204.915,69.131,206.467,66.096z"/>
			<path fill="#714580" d="M205.904,68.896c-0.01,0.107,0.069,0.202,0.176,0.212c0.107,0.01,0.202-0.069,0.212-0.176
				c0.01-0.107-0.069-0.202-0.176-0.212C206.009,68.71,205.914,68.789,205.904,68.896z"/>
		</g>
	</g>
	<path fill="#FFE2AD" stroke="#000000" stroke-linecap="round" stroke-linejoin="round" stroke-miterlimit="10" d="M134.222,310.122
		c0,0,2.65-18.131,4.705-30.719c2.055-12.588,3.679-15.414-4.712-17.983c-8.39-2.569-22.621-5.018-31.538-8.478
		c-8.917-3.46-12.45-7.403-3.9-8.197c8.551-0.794,25.249,2.288,32.186,5.628c6.936,3.34,10.796,1.075,11.307-5.628
		c0.511-6.703,5.727-76.837,6.459-80.691c0.731-3.854-0.553-8.478-8.517-8.478s-20.295-5.138-22.35-6.936
		c-2.055-1.798,0.257-2.826,4.367-1.541c4.111,1.285,16.699,1.541,21.58,3.854s6.679,4.367,7.45-0.514
		c0.771-4.881,4.624-61.142,4.881-64.482c0.257-3.34-5.909-4.881-10.019-4.624c-4.11,0.257-10.79-2.055-10.79-4.367
		s5.652-1.798,9.248-0.514c3.597,1.285,9.505,4.624,11.561,1.285c2.055-3.34,2.826-20.552,1.541-29.03s-2.569-11.047,0.514-12.331
		c3.083-1.285,6.166,2.569,5.909,11.561s-1.735,19.926,1.348,21.981s13.809-3.227,19.204-1.429s-0.514,5.395-5.138,5.395
		s-10.089,1.994-11.117,7.389s-3.648,54.869-3.392,57.952c0.257,3.083,2.854,5.746,6.193,4.719
		c3.34-1.028,16.022-1.467,21.417-0.183c5.395,1.285-0.257,5.395-4.624,6.423c-4.367,1.028-13.102,1.285-17.212,2.055
		c-4.11,0.771-3.712,6.999-3.455,11.623c0.257,4.624-2.833,70.86-2.319,74.199c0.514,3.34,0.379,8.717,4.49,7.947
		c4.11-0.771,9.505-4.881,15.414-4.881c5.909,0,12.845-3.854,16.442-1.285c3.597,2.569-0.257,6.166-5.138,6.936
		c-4.881,0.771-10.533,1.285-14.13,3.854s-13.873,1.541-15.671,5.652c-1.798,4.11,5.926,53.84,5.926,53.84"/>
	<g>
		<path fill="#F49D91" stroke="#000000" stroke-linecap="round" stroke-linejoin="round" stroke-miterlimit="10" d="M142.144,18.031
			c-6.626,0.288-17.128,2.599-18.545,7.796c-1.417,5.198,2.363,8.505,10.159,8.859c7.796,0.354,32.838,2.244,34.61-7.56
			C170.14,17.322,147.578,17.795,142.144,18.031z"/>
		<g>
			
				<path fill="#D84732" stroke="#000000" stroke-width="0.5" stroke-linecap="round" stroke-linejoin="round" stroke-miterlimit="10" d="
				M160.786,88.475C160.775,88.475,160.798,88.475,160.786,88.475c-0.277-0.018-0.351-0.458-0.333-0.735
				c0.242-3.646,0.009-22.301-0.511-24.208c-0.7-2.568-0.431-4.957,0.9-7.99c0.71-1.616,0.444-2.225-0.086-3.437
				c-0.365-0.836-0.819-1.877-1.116-3.564c-0.381-2.17,0.031-3.998,0.429-5.766c0.389-1.728,0.757-3.36,0.376-5.231
				c-0.764-3.749-6.737-10.042-6.797-10.105c-0.192-0.201-0.184-0.519,0.017-0.711c0.2-0.192,0.519-0.184,0.711,0.017
				c0.254,0.266,6.234,6.567,7.055,10.599c0.424,2.081,0.015,3.897-0.38,5.652c-0.393,1.749-0.765,3.399-0.419,5.371
				c0.275,1.569,0.703,2.548,1.047,3.335c0.564,1.291,0.971,2.224,0.085,4.245c-1.247,2.841-1.493,4.962-0.85,7.32
				c0.671,2.459,0.157,23.657,0.121,24.2C161.017,87.732,161.049,88.475,160.786,88.475z"/>
			
				<path fill="#D84732" stroke="#000000" stroke-width="0.5" stroke-linecap="round" stroke-linejoin="round" stroke-miterlimit="10" d="
				M162.059,88.112c-0.001,0-0.003,0-0.004,0c-0.278-0.002-0.135-0.47-0.132-0.748c0.04-5.133-0.907-27.505-1.255-28.951
				l-0.207-0.844c-0.388-1.566-0.754-3.046-0.754-4.522c0-0.922,0.441-2.482,0.868-3.991c0.377-1.333,0.768-2.711,0.736-3.272
				c-0.04-0.725-1.068-2.727-1.818-4.189c-0.506-0.986-0.943-1.837-1.14-2.372c-0.315-0.856-0.126-2.615,0.075-4.478
				c0.155-1.442,0.316-2.934,0.192-3.71c-0.27-1.686-1.648-3.631-1.662-3.651c-0.162-0.226-0.109-0.54,0.117-0.702
				c0.226-0.162,0.54-0.109,0.702,0.117c0.062,0.087,1.53,2.159,1.837,4.077c0.145,0.909-0.015,2.399-0.185,3.976
				c-0.171,1.587-0.365,3.387-0.131,4.022c0.176,0.478,0.621,1.344,1.091,2.26c1.098,2.14,1.88,3.722,1.928,4.593
				c0.041,0.729-0.336,2.06-0.773,3.602c-0.389,1.375-0.83,2.934-0.83,3.716c0,1.354,0.352,2.774,0.725,4.279l0.209,0.852
				c0.447,1.861,0.658,28.7,0.652,29.459C162.296,87.913,162.335,88.112,162.059,88.112z"/>
		</g>
		<path fill="#CDEDFA" stroke="#000000" stroke-linecap="round" stroke-linejoin="round" stroke-miterlimit="10" d="M123.599,25.827
			c0,0,26.105-3.426,44.769,1.299C168.368,27.126,140.254,28.19,123.599,25.827z"/>
	</g>
	<g>
		
			<path fill="#D84732" stroke="#000000" stroke-width="0.5" stroke-linecap="round" stroke-linejoin="round" stroke-miterlimit="10" d="
			M150.21,310.12c0.94-23.88,8.74-221.42,8.74-223.02l0.01-0.41c0.01-1.6,0.02-3.25-1.65-4.03c-0.39-0.18-0.98-0.44-1.67-0.74
			c-0.46-0.2-0.96-0.42-1.49-0.65c-0.12,0.01-0.25,0.01-0.4,0.01c-0.65-0.03-1.49-0.22-2.2-0.92c-0.11-0.1-0.21-0.21-0.31-0.34
			c-0.74-0.31-1.45-0.62-2.09-0.89c-0.75-0.32-1.4-0.59-1.87-0.79c-0.54,0.2-1.41,0.24-2.54-0.69c-0.46-0.07-0.9-0.13-1.31-0.18
			c-0.44-0.07-0.85-0.12-1.21-0.15c-0.43-0.04-0.81-0.05-1.11-0.03c-0.08,0.04-0.16,0.08-0.24,0.12c-0.54,0.26-0.97,0.33-2.07-0.03
			c-0.13,0-0.26,0-0.39-0.01c-0.33,0-0.69-0.01-1.04-0.02c-0.4-0.01-0.79-0.03-1.17-0.05c-0.25-0.01-0.5-0.02-0.72-0.04
			c-0.01,0-0.01,0-0.01,0h-0.1c-0.7-0.04-1.2-0.08-1.28-0.08c-0.05,0-0.09-0.01-0.13-0.03c-0.01,0-0.01,0-0.02-0.01
			c-0.13-0.06-0.21-0.19-0.21-0.34c0,0,0,0,0-0.01c0.02-0.21,0.2-0.37,0.4-0.36c0,0,0.03,0,0.06,0.01c0.17,0.01,0.62,0.03,1.23,0.06
			c0.04,0,0.09,0.01,0.14,0.01c0.84,0.04,1.94,0.08,2.88,0.1c0.27-0.27,0.85-0.78,1.53-0.84c0.75-0.07,1.19,0.55,1.34,0.8
			c0.92,0.03,2.19,0.14,3.33,0.31c0.16-0.07,0.35-0.14,0.56-0.19c0.01,0,0.01,0,0.01,0c0.78-0.19,1.82-0.15,2.52,1.02
			c0.88,0.37,2.25,0.96,3.72,1.58c0.75-0.16,2.02-0.26,2.82,0.68c0.17,0.19,0.31,0.43,0.43,0.72c0.17,0.07,0.34,0.15,0.5,0.22
			c1.03,0.44,1.9,0.83,2.43,1.07c2.11,0.99,2.09,3.06,2.08,4.72v0.4c0,1.61-7.8,199.01-8.75,223.02"/>
		
			<path fill="#D84732" stroke="#000000" stroke-width="0.5" stroke-linecap="round" stroke-linejoin="round" stroke-miterlimit="10" d="
			M152.07,310.12l0.25-6.94l2.61-70.44l5.17-139.76c0-0.8,0.07-1.9,0.14-3.06c0.16-2.57,0.36-5.76-0.11-6.98
			c-0.14-0.35-0.58-0.69-1.29-1c-0.53,0.21-1.35,0.24-2.24-0.73c-0.43-0.11-0.9-0.21-1.4-0.3c-1.07-0.21-2.29-0.4-3.65-0.55
			c-0.25-0.03-0.5-0.05-0.76-0.08c-0.51,0.22-1.4,0.4-2.39-0.35c-0.88-0.2-1.74-0.46-2.58-0.72c-0.53-0.16-1.07-0.33-1.62-0.48
			c-0.54,0.28-1.67,0.6-2.82-0.54c-0.19-0.01-0.37-0.03-0.56-0.03c-0.51-0.02-1.06-0.07-1.64-0.15c-1.22-0.17-2.54-0.46-3.7-0.75
			c-0.01,0-0.01,0-0.01,0c-0.04-0.01-0.08-0.02-0.11-0.02c-0.61-0.15-1.16-0.3-1.63-0.44c-0.67-0.19-1.19-0.35-1.45-0.43
			c-0.07-0.02-0.14-0.05-0.2-0.07c-0.18-0.07-0.29-0.27-0.23-0.47c0.07-0.19,0.26-0.29,0.45-0.24c0.02-0.01,0.03,0,0.05,0.01
			c0.17,0.05,1.46,0.46,3.08,0.88c0.04,0.01,0.09,0.021,0.13,0.03c1.7,0.43,3.73,0.85,5.29,0.9c0.01,0,0.01,0,0.02,0
			c0.26,0,0.52,0.02,0.78,0.05c0.17-0.06,0.36-0.11,0.57-0.14c0.37-0.05,0.8-0.04,1.21,0.15c0.23,0.09,0.45,0.24,0.66,0.45
			c0.66,0.18,1.31,0.37,1.95,0.57c0.93,0.28,1.83,0.55,2.72,0.74c0.12-0.04,0.25-0.08,0.39-0.1c0.48-0.09,1.06-0.04,1.6,0.39
			c1.16,0.12,2.36,0.26,3.52,0.45c0.83,0.14,1.63,0.29,2.37,0.47c0.7-0.22,2-0.38,2.74,0.93c0.74,0.37,1.26,0.8,1.45,1.3
			c0.53,1.37,0.33,4.52,0.16,7.3c-0.07,1.15-0.14,2.24-0.14,3.01l-2.57,69.59l-2.61,70.45l-2.85,77.1"/>
		
			<path fill="#D84732" stroke="#000000" stroke-width="0.5" stroke-linecap="round" stroke-linejoin="round" stroke-miterlimit="10" d="
			M148.61,310.12c0.64-13.46,3.24-76.8,5.46-132.91l0.19-4.99l0.03-0.76c0.04-0.96,0.08-1.91,0.12-2.86c0.1-2.7,0.21-5.38,0.31-8.02
			c0.05-1.39,0.11-2.76,0.16-4.12c1.54-39.55,2.7-71.17,2.53-71.61c-0.09-0.09-0.17-0.19-0.26-0.28c-0.46-0.51-0.98-1.07-1.8-1.57
			c-0.28,0.07-0.65,0.12-1.04,0.04c0,0,0,0.01-0.01,0c-0.35-0.05-0.72-0.21-1.04-0.54c-0.15-0.13-0.29-0.3-0.41-0.5
			c-0.76-0.18-1.66-0.33-2.74-0.42c-0.02,0-0.05-0.01-0.08-0.01c-0.37-0.03-0.76-0.05-1.18-0.07c-0.34-0.01-0.66-0.03-0.98-0.05
			c-0.39,0.33-1.12,0.61-2.25-0.1c-0.08-0.06-0.16-0.11-0.24-0.17c-2.36-0.39-3.86-1.03-5.33-1.65c-0.3-0.13-0.59-0.26-0.89-0.38
			c-0.53,0.25-1.48,0.4-2.48-0.87c-0.35-0.13-0.69-0.25-1-0.38c-0.65-0.26-1.22-0.51-1.72-0.75c-0.01,0-0.01,0-0.02-0.01
			c-0.17-0.08-0.34-0.15-0.5-0.23c-0.43-0.21-0.81-0.39-1.16-0.54c-0.07-0.02-0.14-0.05-0.2-0.07c-0.23-0.09-0.44-0.15-0.64-0.19
			c-0.69-0.14-2.31,0.07-4.2,0.31c-0.8,0.1-1.67,0.21-2.55,0.31c0,0,0,0-0.01,0c0,0,0,0-0.01,0c-0.82,0.09-1.67,0.17-2.51,0.22
			c-1.32,0.08-2.21-0.23-2.67-0.92c-0.74-1.12,0.06-2.77,0.09-2.84c0.09-0.18,0.32-0.26,0.5-0.17c0.19,0.1,0.27,0.32,0.17,0.51
			c-0.18,0.36-0.55,1.45-0.13,2.08c0.28,0.42,0.89,0.62,1.8,0.6c-0.04-0.05-0.08-0.08-0.12-0.13c-0.71-1.01-0.26-2.6-0.24-2.67
			c0.06-0.2,0.27-0.31,0.47-0.25c0.19,0.06,0.31,0.26,0.25,0.46c-0.1,0.37-0.28,1.44,0.14,2.02c0.2,0.29,0.53,0.44,0.99,0.46
			c0.08,0,0.15-0.01,0.22-0.02c-0.43-0.88-0.34-2.41-0.32-2.75c0.02-0.21,0.2-0.37,0.41-0.34c0.2,0.01,0.36,0.19,0.34,0.4
			c-0.06,0.84,0.01,2.19,0.37,2.54c0.05,0.05,0.09,0.06,0.16,0.06c0.89-0.1,1.75-0.21,2.56-0.32c0.79-0.1,1.52-0.19,2.16-0.26
			c-0.63-0.88-0.64-2.34-0.63-2.52c0-0.21,0.18-0.37,0.38-0.37s0.37,0.17,0.37,0.38c-0.01,0.45,0.1,1.73,0.62,2.22
			c0.15,0.15,0.33,0.21,0.54,0.2h0.01c0.4-0.01,0.74,0,0.99,0.05c0.23,0.05,0.47,0.12,0.71,0.22c0.02-0.01,0.03,0,0.05,0.01
			c0.42,0.16,0.88,0.38,1.41,0.63c0.14,0.07,0.28,0.13,0.43,0.21c0.35,0.16,0.72,0.33,1.14,0.51c0.27,0.11,0.56,0.23,0.87,0.35
			c0.21,0.08,0.42,0.16,0.65,0.24c0.15-0.07,0.33-0.14,0.52-0.19c0.33-0.08,0.69-0.11,1.04,0.02c0.28,0.1,0.55,0.3,0.77,0.64
			c0.09,0.13,0.18,0.27,0.25,0.44c0.31,0.13,0.62,0.26,0.92,0.39c1.39,0.59,2.82,1.2,5.05,1.58c0.6-0.35,1.62-0.68,2.55,0.28
			c0.3,0.02,0.6,0.04,0.93,0.05c1.95,0.08,3.42,0.31,4.58,0.63c0.09-0.04,0.19-0.08,0.29-0.1c0.68-0.23,1.51-0.27,1.89,0.64
			c0.06,0.13,0.11,0.28,0.14,0.45c0.87,0.54,1.42,1.14,1.93,1.69c0.09,0.1,0.18,0.2,0.27,0.3c0.3,0.32-0.85,33.14-2.41,73.79
			c-2.32,59.99-5.51,137.05-6.21,151.97"/>
	</g>
	<g>
		
			<path fill="#D84732" stroke="#000000" stroke-width="0.5" stroke-linecap="round" stroke-linejoin="round" stroke-miterlimit="10" d="
			M153.09,310.12c1.14-25.05,10.44-229.78,10.58-231.36l0.04-0.4c0.13-1.65,0.3-3.69,2.48-4.47c0.54-0.19,1.44-0.49,2.5-0.85
			c0.16-0.05,0.34-0.1,0.51-0.16c0.14-0.27,0.3-0.49,0.48-0.67c0.88-0.86,2.13-0.64,2.85-0.41c1.51-0.49,2.92-0.94,3.82-1.23
			c1.02-1.39,2.42-0.92,3.13-0.54c1.14-0.06,2.4-0.06,3.31,0c0.17-0.24,0.67-0.81,1.41-0.67c0.66,0.12,1.18,0.67,1.43,0.97
			c0.38,0.03,0.78,0.05,1.18,0.08c0.59,0.03,1.17,0.06,1.67,0.08c0.66,0.03,1.17,0.05,1.35,0.06c0.04,0,0.07,0,0.07,0
			c0.2,0.01,0.37,0.18,0.36,0.38c0,0.01,0,0.01,0,0.02c-0.02,0.14-0.11,0.26-0.23,0.31c-0.05,0.02-0.1,0.03-0.16,0.03
			c-0.07,0-0.62-0.01-1.37-0.04h-0.01c-0.23-0.01-0.48-0.021-0.74-0.03c-0.36-0.02-0.74-0.04-1.12-0.06c-0.04,0-0.07,0-0.11-0.01
			c-0.33-0.01-0.65-0.04-0.96-0.06c0,0,0,0-0.01,0c-0.12-0.01-0.23-0.02-0.34-0.03c-1.12,0.25-1.55,0.15-2.06-0.16
			c-0.07-0.04-0.14-0.09-0.22-0.14c-0.3-0.05-0.67-0.07-1.11-0.07c-0.36-0.01-0.75,0-1.18,0.03c-0.41,0.01-0.85,0.04-1.32,0.07
			c-1.2,0.81-2.07,0.69-2.58,0.44c-0.48,0.16-1.15,0.37-1.92,0.61c-0.66,0.22-1.39,0.45-2.14,0.69c-0.11,0.11-0.22,0.22-0.33,0.31
			c-0.76,0.62-1.6,0.74-2.24,0.7c-0.01,0-0.01,0-0.01,0c-0.15,0-0.29-0.02-0.41-0.04c-0.55,0.18-1.06,0.35-1.53,0.5
			c-0.72,0.24-1.31,0.44-1.72,0.59c-1.72,0.62-1.86,2.25-1.99,3.83l-0.04,0.4c-0.05,0.61-1.49,31.81-3.29,71.23
			c-1.63,35.78-3.57,78.35-5.06,110.95l-0.3,6.77c-0.94,20.69-1.66,36.44-1.93,42.35"/>
		
			<path fill="#D84732" stroke="#000000" stroke-width="0.5" stroke-linecap="round" stroke-linejoin="round" stroke-miterlimit="10" d="
			M151.24,310.12l3.69-77.38l3.35-70.17L162,84.46c0.07-0.77,0.11-1.85,0.14-2.99c0.09-2.76,0.18-5.89,0.83-7.2
			c0.23-0.47,0.78-0.84,1.54-1.14c0.86-1.23,2.12-0.95,2.8-0.67c0.75-0.11,1.55-0.19,2.37-0.25c1.16-0.08,2.36-0.12,3.52-0.13
			c0.58-0.37,1.15-0.37,1.62-0.24c0.13,0.04,0.26,0.09,0.37,0.14c0.91-0.11,1.82-0.29,2.76-0.49c0.65-0.13,1.31-0.27,1.98-0.38
			c0.23-0.2,0.47-0.32,0.71-0.39c0.41-0.14,0.82-0.12,1.18-0.03c0.21,0.04,0.4,0.11,0.56,0.19c0.26,0,0.51,0,0.77,0.02h0.03
			c1.04,0.07,2.31-0.02,3.55-0.17c0.6-0.07,1.19-0.15,1.75-0.24c1.82-0.28,3.25-0.6,3.28-0.61c0.01-0.01,0.02-0.01,0.03,0
			c0.19-0.04,0.37,0.09,0.41,0.28c0.05,0.2-0.08,0.4-0.28,0.45c-0.01,0-0.02,0-0.03,0.01c-0.03,0-0.08,0.01-0.13,0.03
			c-0.26,0.05-0.8,0.17-1.5,0.3c-0.51,0.09-1.11,0.2-1.76,0.3h-0.01c-0.72,0.11-1.51,0.21-2.29,0.29c-0.48,0.05-0.97,0.08-1.44,0.1
			c-0.57,0.03-1.13,0.03-1.63,0c-0.18-0.01-0.36-0.01-0.55-0.02c-1.24,1.02-2.32,0.6-2.83,0.28c-0.56,0.1-1.1,0.21-1.65,0.32
			c-0.85,0.18-1.73,0.36-2.61,0.48c-1.05,0.65-1.91,0.4-2.39,0.13c-0.25,0-0.5,0.01-0.75,0.01c-1.35,0.03-2.58,0.1-3.66,0.2
			c-0.51,0.06-0.98,0.11-1.42,0.18c-0.96,0.88-1.77,0.77-2.28,0.52c-0.72,0.24-1.19,0.53-1.35,0.86c-0.58,1.17-0.68,4.34-0.75,6.89
			c-0.04,1.16-0.07,2.25-0.14,3.04l-7.08,148.49l-3.35,70.16l-0.33,6.94"/>
		
			<path fill="#D84732" stroke="#000000" stroke-width="0.5" stroke-linecap="round" stroke-linejoin="round" stroke-miterlimit="10" d="
			M154.68,310.12c0.65-16.27,4.28-99.56,7.2-162.15c1.86-39.96,3.43-71.49,3.75-71.77c0.09-0.08,0.19-0.17,0.29-0.26
			c0.55-0.5,1.15-1.04,2.06-1.5c0.05-0.17,0.11-0.32,0.18-0.44c0.47-0.86,1.29-0.74,1.94-0.46c0,0,0,0,0.01,0
			c0.09,0.04,0.17,0.09,0.25,0.13c1.17-0.21,2.65-0.3,4.58-0.2c0.32,0.02,0.63,0.03,0.93,0.04c1-0.87,1.98-0.45,2.54-0.05
			c2.23-0.17,3.7-0.64,5.13-1.11c0.31-0.1,0.62-0.2,0.94-0.29c0.09-0.16,0.19-0.3,0.28-0.42c0.25-0.3,0.52-0.47,0.79-0.55
			c0.01,0,0.01,0,0.01,0c0.34-0.1,0.68-0.06,0.98,0.04c0.03,0.01,0.06,0.02,0.09,0.03c0.18,0.06,0.34,0.15,0.48,0.23
			c0.22-0.06,0.44-0.11,0.64-0.17c0.8-0.22,1.48-0.46,2.08-0.67c0.16-0.06,0.31-0.12,0.46-0.17c0.55-0.2,1.03-0.38,1.47-0.5
			c0.01-0.01,0.02-0.01,0.03,0c0.25-0.08,0.48-0.13,0.71-0.15c0.26-0.03,0.6-0.01,0.99,0.04h0.01c0.21,0.03,0.39-0.02,0.55-0.15
			c0.56-0.44,0.78-1.69,0.82-2.14c0.01-0.2,0.19-0.36,0.4-0.34c0.2,0.02,0.36,0.2,0.34,0.4c-0.01,0.18-0.15,1.63-0.86,2.44
			c0.63,0.12,1.34,0.28,2.12,0.45c0.78,0.18,1.63,0.37,2.49,0.54c0.07,0.01,0.12,0,0.17-0.04c0.39-0.31,0.58-1.63,0.59-2.47
			c0-0.21,0.17-0.37,0.38-0.37c0.2-0.01,0.37,0.17,0.37,0.38c-0.01,0.34-0.06,1.85-0.57,2.68c0.07,0.02,0.14,0.03,0.22,0.05
			c0.46,0.01,0.79-0.1,1.02-0.37c0.47-0.54,0.39-1.61,0.32-1.98c-0.04-0.2,0.09-0.4,0.29-0.44c0.2-0.03,0.4,0.09,0.44,0.3
			c0.01,0.07,0.32,1.68-0.48,2.61c-0.04,0.04-0.09,0.07-0.13,0.11c0.9,0.11,1.52-0.03,1.83-0.42c0.48-0.58,0.2-1.69,0.06-2.07
			c-0.07-0.19,0.02-0.41,0.21-0.48c0.2-0.08,0.41,0.02,0.49,0.21c0.02,0.07,0.66,1.77-0.17,2.81c-0.52,0.64-1.43,0.86-2.73,0.67
			c-0.82-0.13-1.65-0.28-2.45-0.45c-0.01,0-0.01,0-0.02,0c-0.87-0.18-1.71-0.36-2.49-0.54c-1.84-0.41-3.43-0.77-4.12-0.69
			c-0.21,0.02-0.43,0.07-0.67,0.14c-0.01,0-0.02,0-0.03,0.01c-0.04,0.01-0.08,0.02-0.13,0.03c-0.36,0.11-0.77,0.26-1.22,0.43
			c-0.16,0.06-0.33,0.12-0.51,0.18c-0.77,0.28-1.69,0.59-2.82,0.88c-1.1,1.17-2.02,0.93-2.52,0.63c-0.31,0.1-0.61,0.19-0.92,0.29
			c-0.16,0.05-0.32,0.11-0.49,0.15c-0.29,0.1-0.6,0.2-0.91,0.28c-1.11,0.33-2.36,0.6-4.01,0.72c-1.28,0.76-2.04,0.45-2.44,0.08
			c-0.02-0.01-0.03-0.02-0.05-0.04c-0.31-0.01-0.63-0.021-0.97-0.04c-1.65-0.08-2.94-0.02-3.99,0.13c-0.84,1.13-1.95,0.98-2.57,0.76
			c-0.85,0.42-1.41,0.93-1.91,1.39c-0.1,0.08-0.19,0.17-0.28,0.25c-0.21,0.4-1.69,31.26-3.5,70.56c-0.02,0.49-0.05,0.98-0.07,1.48
			c-2.86,62.29-6.5,144.88-7.16,161.34"/>
	</g>
	<g>
		<path fill="#F49D91" d="M99.371,241.28c-4.61-0.219-7.43,3.715-6.81,6.191c0.619,2.476,6.604,7.223,12.589,10.938
			c5.985,3.715,9.7,5.572,6.398,17.542s-6.398,20.431-18.78,22.701c-12.382,2.27-41.894-1.445-57.785-18.161
			c-15.891-16.716-13.002-37.766-10.319-55.515c2.683-17.748,13.414-43.339,43.958-44.577c30.543-1.238,56.547,9.287,62.738,25.59
			c6.191,16.303,1.651,29.512-7.017,34.052C115.675,244.582,103.705,241.486,99.371,241.28z"/>
		<path fill="#CDEDFA" stroke="#000000" stroke-linecap="round" stroke-linejoin="round" stroke-miterlimit="10" d="M55.162,205.43
			c-6.135-2.454-15.001-1.794-19.24,5.381c-4.239,7.174-5.707,13.044-3.75,16.794c1.957,3.75-1.63,11.087,0.326,14.022
			c1.957,2.935,21.849,7.011,39.622,6.033c17.773-0.978,20.055-3.098,21.034-7.5c0.978-4.402-7.337-10.924-17.936-10.761
			c-10.598,0.163-17.12,1.631-17.12,1.631s-1.467-8.479,13.37-7.99c14.838,0.489,18.588,9.131,23.643,9.131
			c5.055,0,3.913-3.913,0.652-5.87C92.501,224.344,60.053,207.386,55.162,205.43z"/>
		<path fill="#FFE2AD" stroke="#000000" stroke-linecap="round" stroke-linejoin="round" stroke-miterlimit="10" d="M72.119,247.66
			c11.222-0.618,16.265-1.691,18.707-3.506c-3.797-2.519-2.711-8.023-3.71-9.244c-1.063-1.3-12.049-4.843-22.562-0.591
			c-8.463,3.423-10.112,10.287-10.434,12.836C59.844,247.742,66.102,247.992,72.119,247.66z"/>
		<path fill="none" stroke="#000000" stroke-linecap="round" stroke-linejoin="round" stroke-miterlimit="10" d="M99.371,241.28
			c-4.61-0.219-7.43,3.715-6.81,6.191c0.619,2.476,6.604,7.223,12.589,10.938c5.985,3.715,9.7,5.572,6.398,17.542
			s-6.398,20.431-18.78,22.701c-12.382,2.27-41.894-1.445-57.785-18.161c-15.891-16.716-13.002-37.766-10.319-55.515
			c2.683-17.748,13.414-43.339,43.958-44.577c30.543-1.238,56.547,9.287,62.738,25.59c6.191,16.303,1.651,29.512-7.017,34.052
			C115.675,244.582,103.705,241.486,99.371,241.28z"/>
		<g>
			<path fill="#98C680" stroke="#000000" stroke-linecap="round" stroke-linejoin="round" stroke-miterlimit="10" d="M67.38,240.648
				c0,0-3.265,5.05,0.393,6.269C67.772,246.917,70.558,245.611,67.38,240.648z"/>
			<path fill="#714580" d="M68.033,244.262c0,0.216-0.175,0.392-0.392,0.392c-0.216,0-0.392-0.175-0.392-0.392
				s0.175-0.392,0.392-0.392C67.858,243.87,68.033,244.045,68.033,244.262z"/>
		</g>
		<g>
			<path fill="#98C680" stroke="#000000" stroke-linecap="round" stroke-linejoin="round" stroke-miterlimit="10" d="
				M71.385,240.474c0,0-3.265,5.05,0.392,6.269C71.777,246.743,74.564,245.437,71.385,240.474z"/>
			<path fill="#714580" d="M72.039,244.088c0,0.216-0.175,0.392-0.392,0.392s-0.392-0.175-0.392-0.392s0.175-0.392,0.392-0.392
				S72.039,243.871,72.039,244.088z"/>
		</g>
		<g>
			<path fill="#98C680" stroke="#000000" stroke-linecap="round" stroke-linejoin="round" stroke-miterlimit="10" d="
				M75.347,240.343c0,0-3.265,5.05,0.393,6.27C75.739,246.613,78.526,245.307,75.347,240.343z"/>
			<path fill="#714580" d="M76.001,243.957c0,0.216-0.175,0.392-0.392,0.392c-0.216,0-0.392-0.175-0.392-0.392
				s0.175-0.392,0.392-0.392C75.825,243.565,76.001,243.741,76.001,243.957z"/>
		</g>
		<g>
			<path fill="#98C680" stroke="#000000" stroke-linecap="round" stroke-linejoin="round" stroke-miterlimit="10" d="
				M84.526,238.802c0,0-1.815,5.733,2.034,5.943C86.56,244.745,88.902,242.75,84.526,238.802z"/>
			<path fill="#714580" d="M86.11,242.115c0.057,0.209-0.066,0.424-0.274,0.481c-0.209,0.057-0.424-0.066-0.481-0.275
				c-0.057-0.209,0.066-0.424,0.275-0.481C85.838,241.783,86.053,241.906,86.11,242.115z"/>
		</g>
		<path fill="#CDEDFA" stroke="#000000" stroke-linecap="round" stroke-linejoin="round" stroke-miterlimit="10" d="
			M104.531,186.797c-6.398-2.064-26.829-8.255-41.275-2.064c-14.446,6.191-12.795,12.795-8.255,16.51
			c4.54,3.715,40.243,19.193,44.37,22.495c4.127,3.302,3.016,9.372,10.684,16.04c1.811,1.575,4.331,2.756,7.096,2.428
			c2.492-0.335,4.952-0.992,7.191-2.165c7.203-3.772,11.548-13.533,9.262-26.079c-1.034-3.406-2.64-6.995-4.928-10.656
			C124.549,196.703,116.779,190.748,104.531,186.797z"/>
		<path fill="#CDEDFA" stroke="#000000" stroke-linecap="round" stroke-linejoin="round" stroke-miterlimit="10" d="
			M111.547,275.951c0.637-2.311,1.011-4.242,1.159-5.885c0.115-2.017-0.343-3.55-1.419-4.971c-1.581-2.087-4.206-4.257-9.159-5.495
			c-4.953-1.238-18.912-5.805-22.868-8.543c-1.606-1.112-37.881-3.173-43.659-3.792c-5.778-0.619-9.7,6.811-9.493,14.446
			c0.206,7.636,8.255,24.765,34.052,31.782c23.583,6.414,40.449,4.334,45.679-2.985
			C108.401,286.668,109.955,281.723,111.547,275.951z"/>
		<path fill="#93C6B8" stroke="#000000" stroke-linecap="round" stroke-linejoin="round" stroke-miterlimit="10" d="M80.178,233.553
			c0,0-3.32,6.291-3.495,9.262c-0.175,2.971,1.311,3.408,3.146,3.32c1.835-0.087,4.544,0,3.67-3.32
			C82.625,239.495,80.178,233.553,80.178,233.553z"/>
		<g>
			<path fill="#589291" stroke="#000000" stroke-linecap="round" stroke-linejoin="round" stroke-miterlimit="10" d="M69.34,229.827
				c0,0,0.614,2.667-1.153,5.718c-1.767,3.052-2.506,3.837-1.281,5.141s3.082-1.422,3.331-4.362c0.248-2.94-0.343-3.76-0.343-3.76
				L69.34,229.827z"/>
			<path fill="#714580" d="M68.58,239.039c0.026,0.355-0.241,0.665-0.596,0.691c-0.356,0.026-0.665-0.241-0.691-0.596
				c-0.026-0.355,0.241-0.665,0.596-0.691C68.245,238.417,68.554,238.684,68.58,239.039z"/>
		</g>
		<g>
			<path fill="#589291" stroke="#000000" stroke-linecap="round" stroke-linejoin="round" stroke-miterlimit="10" d="
				M72.916,229.479c0,0,0.253,2.31-1.21,5.518c-1.464,3.209-2.123,4.061-0.778,5.241c1.345,1.18,2.93-1.714,2.893-4.664
				c-0.037-2.95-0.706-3.709-0.706-3.709L72.916,229.479z"/>
			<path fill="#714580" d="M72.436,238.437c0.061,0.351-0.175,0.685-0.527,0.746c-0.351,0.061-0.685-0.175-0.746-0.527
				c-0.061-0.351,0.175-0.685,0.527-0.746C72.042,237.85,72.375,238.086,72.436,238.437z"/>
		</g>
		<g>
			<path fill="#589291" stroke="#000000" stroke-linecap="round" stroke-linejoin="round" stroke-miterlimit="10" d="
				M76.094,229.628c0,0,0.62,2.714-0.535,5.731c-1.156,3.017-1.689,3.814-0.542,4.961c1.147,1.148,2.41-1.568,2.319-4.37
				c-0.092-2.803-0.665-3.536-0.665-3.536L76.094,229.628z"/>
			<path fill="#714580" d="M76.359,238.487c0.061,0.351-0.175,0.685-0.527,0.746c-0.351,0.061-0.685-0.175-0.746-0.527
				c-0.061-0.351,0.175-0.685,0.527-0.746C75.965,237.9,76.299,238.135,76.359,238.487z"/>
		</g>
		<g>
			<path fill="#589291" stroke="#000000" stroke-linecap="round" stroke-linejoin="round" stroke-miterlimit="10" d="M83.85,230.908
				c0,0-0.28,4.153-0.301,4.995c-0.061,2.521-0.22,2.842,0.572,3.744c0.792,0.902,1.504-1.124,1.204-3.341
				C85.026,234.089,83.85,230.908,83.85,230.908z"/>
			<path fill="#714580" d="M84.905,237.624c0.069,0.285-0.073,0.563-0.317,0.622c-0.244,0.059-0.497-0.124-0.566-0.409
				c-0.069-0.285,0.073-0.563,0.317-0.622C84.583,237.156,84.836,237.339,84.905,237.624z"/>
		</g>
		<g>
			<path fill="#98C680" stroke="#000000" stroke-linecap="round" stroke-linejoin="round" stroke-miterlimit="10" d="
				M57.453,239.962c0,0-2.256,4.223,0.521,6.942C57.974,246.904,59.998,244.069,57.453,239.962z"/>
			<path fill="#714580" d="M58.063,243.609c0,0.216-0.175,0.392-0.392,0.392s-0.392-0.175-0.392-0.392s0.175-0.392,0.392-0.392
				S58.063,243.392,58.063,243.609z"/>
		</g>
		<g>
			<path fill="#98C680" stroke="#000000" stroke-linecap="round" stroke-linejoin="round" stroke-miterlimit="10" d="M59.76,238.384
				c0,0-2.256,5.051,0.521,8.302C60.281,246.686,62.306,243.296,59.76,238.384z"/>
			<path fill="#714580" d="M60.371,242.825c0,0.216-0.176,0.392-0.392,0.392c-0.216,0-0.392-0.175-0.392-0.392
				s0.175-0.392,0.392-0.392C60.195,242.433,60.371,242.609,60.371,242.825z"/>
		</g>
		<g>
			<path fill="#98C680" stroke="#000000" stroke-linecap="round" stroke-linejoin="round" stroke-miterlimit="10" d="
				M62.112,236.817c0,0-2.256,6.004,0.521,9.869C62.632,246.686,64.657,242.656,62.112,236.817z"/>
			<path fill="#714580" d="M62.722,242.041c0,0.216-0.175,0.392-0.392,0.392c-0.216,0-0.392-0.175-0.392-0.392
				s0.175-0.392,0.392-0.392C62.546,241.649,62.722,241.825,62.722,242.041z"/>
		</g>
		<g>
			<path fill="#98C680" stroke="#000000" stroke-linecap="round" stroke-linejoin="round" stroke-miterlimit="10" d="
				M64.201,235.946c0,0-2.256,6.534,0.521,10.74C64.722,246.686,66.747,242.301,64.201,235.946z"/>
			<path fill="#714580" d="M64.811,241.649c0,0.216-0.175,0.392-0.392,0.392s-0.392-0.175-0.392-0.392s0.175-0.392,0.392-0.392
				S64.811,241.433,64.811,241.649z"/>
		</g>
	</g>
	<g>
		<path fill="#F49D91" d="M119.971,144.829c-3.012-0.143-4.855,2.427-4.45,4.046c0.405,1.618,4.315,4.72,8.226,7.147
			c3.911,2.427,6.338,3.641,4.18,11.462c-2.158,7.821-4.18,13.35-12.271,14.834c-8.091,1.483-27.375-0.944-37.758-11.867
			c-10.384-10.923-8.496-24.678-6.743-36.275s8.765-28.319,28.723-29.128c19.958-0.809,36.949,6.068,40.995,16.722
			c4.046,10.653,1.079,19.284-4.585,22.25C130.624,146.986,122.802,144.964,119.971,144.829z"/>
		<path fill="#CDEDFA" stroke="#000000" stroke-linecap="round" stroke-linejoin="round" stroke-miterlimit="10" d="M91.083,121.403
			c-4.009-1.603-9.802-1.172-12.572,3.516c-2.77,4.688-3.729,8.523-2.451,10.974c1.278,2.451-1.065,7.245,0.213,9.163
			c1.279,1.918,14.277,4.581,25.89,3.942c11.613-0.639,13.105-2.024,13.744-4.901c0.639-2.877-4.795-7.138-11.72-7.032
			C97.262,137.172,93,138.131,93,138.131s-0.959-5.54,8.737-5.221c9.695,0.32,12.146,5.966,15.449,5.966
			c3.303,0,2.557-2.557,0.426-3.836C115.481,133.762,94.279,122.682,91.083,121.403z"/>
		<path fill="#FFE2AD" stroke="#000000" stroke-linecap="round" stroke-linejoin="round" stroke-miterlimit="10" d="
			M102.163,148.998c7.333-0.404,10.628-1.105,12.224-2.291c-2.481-1.646-1.771-5.242-2.424-6.04
			c-0.695-0.849-7.873-3.165-14.743-0.386c-5.53,2.237-6.608,6.722-6.818,8.387C94.142,149.051,98.232,149.214,102.163,148.998z"/>
		<path fill="none" stroke="#000000" stroke-linecap="round" stroke-linejoin="round" stroke-miterlimit="10" d="M119.971,144.829
			c-3.012-0.143-4.855,2.427-4.45,4.046c0.405,1.618,4.315,4.72,8.226,7.147c3.911,2.427,6.338,3.641,4.18,11.462
			c-2.158,7.821-4.18,13.35-12.271,14.834c-8.091,1.483-27.375-0.944-37.758-11.867c-10.384-10.923-8.496-24.678-6.743-36.275
			s8.765-28.319,28.723-29.128c19.958-0.809,36.949,6.068,40.995,16.722c4.046,10.653,1.079,19.284-4.585,22.25
			C130.624,146.986,122.802,144.964,119.971,144.829z"/>
		<g>
			<path fill="#98C680" d="M99.066,144.416c0,0-2.133,3.3,0.256,4.097C99.323,148.513,101.143,147.659,99.066,144.416z"/>
			<path fill="#714580" d="M99.493,146.777c0,0.141-0.115,0.256-0.256,0.256c-0.141,0-0.256-0.115-0.256-0.256
				c0-0.141,0.115-0.256,0.256-0.256C99.379,146.521,99.493,146.636,99.493,146.777z"/>
		</g>
		<g>
			<path fill="#98C680" d="M101.684,144.302c0,0-2.133,3.3,0.256,4.097C101.94,148.399,103.761,147.545,101.684,144.302z"/>
			<path fill="#714580" d="M102.111,146.663c0,0.141-0.115,0.256-0.256,0.256c-0.141,0-0.256-0.115-0.256-0.256
				c0-0.141,0.115-0.256,0.256-0.256C101.996,146.407,102.111,146.522,102.111,146.663z"/>
		</g>
		<g>
			<path fill="#98C680" d="M104.272,144.217c0,0-2.133,3.3,0.256,4.097C104.529,148.313,106.35,147.46,104.272,144.217z"/>
			<path fill="#714580" d="M104.699,146.578c0,0.141-0.115,0.256-0.256,0.256c-0.141,0-0.256-0.115-0.256-0.256
				s0.115-0.256,0.256-0.256C104.585,146.322,104.699,146.437,104.699,146.578z"/>
		</g>
		<g>
			<path fill="#98C680" d="M110.27,143.21c0,0-1.186,3.746,1.329,3.884C111.599,147.093,113.13,145.789,110.27,143.21z"/>
			<path fill="#714580" d="M111.305,145.374c0.037,0.136-0.043,0.277-0.179,0.315c-0.136,0.037-0.277-0.043-0.315-0.179
				c-0.037-0.136,0.043-0.277,0.179-0.315C111.127,145.158,111.268,145.238,111.305,145.374z"/>
		</g>
		<path fill="#CDEDFA" stroke="#000000" stroke-linecap="round" stroke-linejoin="round" stroke-miterlimit="10" d="
			M123.342,109.228c-4.18-1.349-17.531-5.394-26.97-1.349c-9.439,4.046-8.361,8.361-5.394,10.788
			c2.967,2.427,26.296,12.541,28.993,14.699c2.697,2.157,1.971,6.124,6.982,10.481c1.184,1.029,2.83,1.801,4.636,1.587
			c1.628-0.219,3.236-0.648,4.699-1.415c4.706-2.465,7.546-8.843,6.052-17.041c-0.676-2.226-1.725-4.571-3.22-6.963
			C136.423,115.701,131.345,111.81,123.342,109.228z"/>
		<path fill="#CDEDFA" stroke="#000000" stroke-linecap="round" stroke-linejoin="round" stroke-miterlimit="10" d="
			M127.927,167.484c0.417-1.51,0.661-2.772,0.758-3.845c0.075-1.318-0.224-2.32-0.927-3.248c-1.033-1.364-2.748-2.782-5.985-3.591
			c-3.236-0.809-12.358-3.793-14.942-5.582c-1.049-0.727-24.753-2.073-28.528-2.478c-3.776-0.404-6.338,4.45-6.203,9.44
			c0.135,4.989,5.394,16.182,22.25,20.767c15.41,4.191,26.431,2.832,29.848-1.95C125.871,174.487,126.886,171.256,127.927,167.484z"
			/>
		<path fill="#93C6B8" d="M107.429,139.78c0,0-2.17,4.111-2.284,6.052c-0.114,1.941,0.857,2.227,2.056,2.17s2.969,0,2.398-2.17
			C109.028,143.662,107.429,139.78,107.429,139.78z"/>
		<g>
			<path fill="#589291" d="M100.347,137.345c0,0,0.401,1.742-0.754,3.737c-1.155,1.994-1.638,2.507-0.837,3.359
				c0.8,0.852,2.014-0.929,2.176-2.85c0.162-1.921-0.224-2.457-0.224-2.457L100.347,137.345z"/>
			<path fill="#714580" d="M99.851,143.365c0.017,0.232-0.157,0.434-0.39,0.452s-0.435-0.157-0.452-0.39s0.157-0.435,0.39-0.452
				C99.632,142.958,99.834,143.132,99.851,143.365z"/>
		</g>
		<g>
			<path fill="#589291" d="M102.684,137.118c0,0,0.166,1.509-0.791,3.606c-0.956,2.096-1.387,2.654-0.508,3.424
				s1.915-1.12,1.89-3.048c-0.024-1.928-0.461-2.423-0.461-2.423L102.684,137.118z"/>
			<path fill="#714580" d="M102.37,142.971c0.04,0.23-0.115,0.448-0.344,0.487c-0.23,0.039-0.448-0.115-0.487-0.344
				c-0.039-0.23,0.115-0.448,0.344-0.487C102.112,142.588,102.331,142.742,102.37,142.971z"/>
		</g>
		<g>
			<path fill="#589291" d="M104.761,137.215c0,0,0.405,1.773-0.35,3.745c-0.755,1.972-1.103,2.492-0.354,3.242
				c0.749,0.75,1.575-1.025,1.515-2.856c-0.06-1.831-0.434-2.311-0.434-2.311L104.761,137.215z"/>
			<path fill="#714580" d="M104.934,143.004c0.039,0.23-0.115,0.448-0.344,0.487c-0.23,0.039-0.448-0.115-0.487-0.344
				c-0.04-0.23,0.114-0.448,0.344-0.487C104.676,142.62,104.894,142.774,104.934,143.004z"/>
		</g>
		<g>
			<path fill="#589291" d="M109.829,138.052c0,0-0.183,2.714-0.196,3.264c-0.04,1.648-0.144,1.857,0.374,2.446
				c0.517,0.589,0.982-0.734,0.787-2.183C110.597,140.13,109.829,138.052,109.829,138.052z"/>
			<path fill="#714580" d="M110.518,142.44c0.045,0.186-0.048,0.368-0.207,0.407s-0.325-0.081-0.37-0.267
				c-0.045-0.186,0.048-0.368,0.207-0.406C110.307,142.134,110.473,142.254,110.518,142.44z"/>
		</g>
		<g>
			<path fill="#98C680" d="M92.58,143.968c0,0-1.474,2.759,0.34,4.536C92.92,148.504,94.243,146.651,92.58,143.968z"/>
			<path fill="#714580" d="M92.979,146.35c0,0.141-0.115,0.256-0.256,0.256s-0.256-0.115-0.256-0.256
				c0-0.141,0.115-0.256,0.256-0.256S92.979,146.209,92.979,146.35z"/>
		</g>
		<g>
			<path fill="#98C680" d="M94.088,142.937c0,0-1.474,3.3,0.34,5.425C94.428,148.361,95.751,146.146,94.088,142.937z"/>
			<path fill="#714580" d="M94.486,145.838c0,0.141-0.115,0.256-0.256,0.256c-0.141,0-0.256-0.115-0.256-0.256
				c0-0.141,0.115-0.256,0.256-0.256C94.372,145.582,94.486,145.697,94.486,145.838z"/>
		</g>
		<g>
			<path fill="#98C680" d="M95.624,141.912c0,0-1.474,3.923,0.34,6.449C95.964,148.361,97.287,145.728,95.624,141.912z"/>
			<path fill="#714580" d="M96.023,145.326c0,0.141-0.115,0.256-0.256,0.256c-0.141,0-0.256-0.115-0.256-0.256
				c0-0.141,0.115-0.256,0.256-0.256C95.908,145.07,96.023,145.185,96.023,145.326z"/>
		</g>
		<g>
			<path fill="#98C680" d="M96.989,141.343c0,0-1.474,4.269,0.34,7.018C97.33,148.361,98.653,145.496,96.989,141.343z"/>
			<path fill="#714580" d="M97.388,145.07c0,0.141-0.115,0.256-0.256,0.256s-0.256-0.115-0.256-0.256
				c0-0.141,0.115-0.256,0.256-0.256S97.388,144.929,97.388,145.07z"/>
		</g>
	</g>
	<g>
		<path fill="#D84732" stroke="#000000" stroke-linecap="round" stroke-linejoin="round" stroke-miterlimit="10" d="M142.82,310.12
			c0.28-8.33,1.36-40.03,1.36-42.97v-0.82c0.03-3.19,0.06-6.48-3.28-8.04c-0.78-0.36-1.93-0.88-3.32-1.48
			c-0.91-0.4-1.92-0.84-2.98-1.3c-0.25,0.02-0.52,0.02-0.81,0.01c-0.01,0-0.01,0-0.01,0c-1.31-0.05-2.97-0.45-4.39-1.83
			c-0.21-0.2-0.41-0.43-0.61-0.68c-1.46-0.62-2.88-1.23-4.16-1.76c-1.49-0.64-2.79-1.19-3.73-1.58c-1.07,0.4-2.82,0.48-5.08-1.38
			c-0.92-0.14-1.79-0.27-2.61-0.38c-0.86-0.12-1.66-0.22-2.38-0.28c-0.87-0.07-1.63-0.1-2.24-0.05c-0.16,0.08-0.31,0.16-0.45,0.22
			c-1.09,0.53-1.94,0.67-4.17-0.05c-0.23,0-0.47,0-0.71-0.01c-0.01,0-0.02,0-0.02,0c-0.68,0-1.4-0.02-2.12-0.04
			c-0.77-0.03-1.54-0.06-2.27-0.09c-0.51-0.03-1.01-0.06-1.47-0.08c-1.53-0.08-2.65-0.16-2.8-0.17c-0.1,0-0.19-0.03-0.28-0.07
			c-0.18-0.09-0.32-0.24-0.39-0.43c-0.03-0.08-0.04-0.17-0.04-0.26c0-0.02,0-0.02,0-0.03c0.03-0.37,0.32-0.67,0.68-0.7
			c0,0,0-0.01,0.01,0c0.04-0.01,0.07-0.01,0.11-0.01c0.01,0,0.06,0,0.14,0.01c0.36,0.02,1.36,0.08,2.67,0.14
			c1.69,0.08,3.89,0.17,5.78,0.21c0.43-0.43,1.21-1.12,2.17-1.48h0.01c0.28-0.1,0.57-0.17,0.87-0.2c0.64-0.06,1.18,0.13,1.59,0.41
			c0.57,0.37,0.93,0.9,1.1,1.18c1.83,0.06,4.36,0.29,6.63,0.61c0.4-0.16,0.89-0.33,1.44-0.44c1.1-0.21,2.41-0.15,3.55,0.75
			c0.42,0.33,0.83,0.78,1.18,1.37c1.75,0.74,4.5,1.9,7.42,3.15c1.49-0.33,4.03-0.53,5.63,1.35c0.33,0.38,0.62,0.85,0.85,1.43
			c0.35,0.15,0.7,0.3,1.04,0.44c2.03,0.89,3.76,1.66,4.8,2.14c4.22,1.96,4.18,6.09,4.15,9.41v0.81c0,2.59-0.8,26.45-1.2,38.37
			c-0.01,0.25-0.02,0.5-0.03,0.74c-0.05,1.55-0.09,2.86-0.13,3.86"/>
		<path fill="#D84732" stroke="#000000" stroke-linecap="round" stroke-linejoin="round" stroke-miterlimit="10" d="M146.47,310.12
			v-31.25c0-1.59,0.13-3.78,0.28-6.09c0.29-4.85,0.66-10.81-0.09-13.51c-0.04-0.16-0.09-0.31-0.14-0.44
			c-0.27-0.69-1.15-1.36-2.56-1.98c-1.07,0.41-2.7,0.47-4.47-1.45c-0.85-0.21-1.77-0.41-2.76-0.61c-2.15-0.42-4.61-0.79-7.34-1.1
			c-0.49-0.06-0.99-0.11-1.5-0.16c-1.01,0.45-2.79,0.8-4.77-0.7c-1.74-0.39-3.46-0.92-5.14-1.43c-1.07-0.33-2.15-0.65-3.24-0.95
			c-1.08,0.55-3.33,1.19-5.63-1.08c-0.36-0.03-0.73-0.06-1.1-0.07c-1.01-0.03-2.11-0.13-3.25-0.29c-2.45-0.33-5.07-0.9-7.39-1.48
			c-1.26-0.31-2.43-0.63-3.42-0.91c-0.03-0.01-0.06-0.01-0.09-0.02c-1.64-0.47-2.81-0.84-3.17-0.96c-0.01,0-0.02,0-0.03-0.01
			c-0.03-0.01-0.06-0.02-0.07-0.02c-0.02-0.01-0.04-0.02-0.06-0.03c-0.35-0.15-0.54-0.54-0.42-0.92c0.13-0.39,0.55-0.6,0.94-0.48
			c0.01,0,0.02,0.01,0.03,0.01c0.21,0.07,1.9,0.61,4.26,1.26c0.66,0.18,1.38,0.37,2.13,0.56c3.38,0.86,7.47,1.7,10.58,1.79h0.08
			c0.51,0.02,1.02,0.06,1.52,0.11c0.35-0.12,0.74-0.22,1.17-0.28c0.74-0.11,1.57-0.07,2.38,0.28c0.45,0.19,0.9,0.49,1.32,0.92
			c1.32,0.35,2.62,0.74,3.9,1.14c1.85,0.56,3.64,1.09,5.43,1.48c0.24-0.08,0.5-0.16,0.77-0.2c0.96-0.19,2.11-0.09,3.2,0.77
			c2.31,0.23,4.71,0.53,7.02,0.9c1.64,0.27,3.24,0.58,4.72,0.94c1.41-0.43,3.98-0.75,5.48,1.86c0.67,0.34,1.26,0.7,1.73,1.1
			c0.44,0.36,0.79,0.75,1.01,1.17c0.05,0.1,0.1,0.21,0.14,0.31c0.34,0.89,0.53,2.17,0.62,3.68c0.18,3.09-0.07,7.16-0.3,10.89
			c-0.14,2.29-0.27,4.46-0.27,6v31.25"/>
		<path fill="#D84732" stroke="#000000" stroke-linecap="round" stroke-linejoin="round" stroke-miterlimit="10" d="M139.63,310.12
			c1.08-17.39,2.34-45.25,1.46-47.47c-0.17-0.18-0.34-0.37-0.51-0.56c-0.93-1.01-1.96-2.13-3.58-3.13
			c-1.28,0.32-3.53,0.42-5.01-1.99c-2.07-0.5-4.65-0.87-7.97-0.99c-0.68-0.03-1.32-0.07-1.95-0.11c-0.84,0.69-2.45,1.29-4.97-0.55
			c-4.72-0.76-7.71-2.04-10.63-3.29c-0.6-0.25-1.19-0.5-1.78-0.74c-1.05,0.49-2.96,0.8-4.94-1.75c-2.19-0.76-3.96-1.55-5.46-2.25
			c-0.14-0.06-0.26-0.12-0.39-0.18c-0.22-0.1-0.43-0.2-0.63-0.3c-0.97-0.47-1.82-0.87-2.58-1.17c-0.01,0-0.02,0-0.03-0.01
			c-0.04-0.02-0.09-0.03-0.13-0.05c-0.44-0.16-0.85-0.29-1.24-0.37c-1.37-0.28-4.62,0.14-8.38,0.63c-1.61,0.2-3.33,0.42-5.09,0.62
			c-0.01,0-0.01,0-0.01,0h-0.03c-1.64,0.18-3.33,0.34-5,0.43c-2.63,0.16-4.42-0.46-5.33-1.84c-1.48-2.24,0.11-5.51,0.18-5.65
			c0.18-0.37,0.63-0.52,1-0.34c0.37,0.18,0.53,0.63,0.34,1c-0.36,0.74-1.11,2.91-0.27,4.17c0.55,0.83,1.77,1.22,3.59,1.18
			c-0.07-0.09-0.16-0.16-0.23-0.25c-1.43-2.01-0.52-5.19-0.48-5.32c0.11-0.4,0.53-0.62,0.93-0.51c0.39,0.11,0.62,0.53,0.51,0.93
			c-0.21,0.72-0.57,2.86,0.27,4.03c0.4,0.57,1.06,0.86,1.98,0.92c0.15-0.02,0.3-0.04,0.45-0.05c-0.88-1.76-0.7-4.81-0.65-5.49
			c0.04-0.41,0.4-0.74,0.81-0.69c0.41,0.04,0.72,0.4,0.69,0.81c-0.13,1.68,0.01,4.37,0.73,5.06c0.1,0.1,0.19,0.13,0.33,0.12
			c1.76-0.19,3.48-0.41,5.09-0.62c1.59-0.21,3.04-0.39,4.33-0.53c-1.27-1.75-1.28-4.67-1.27-5.03c0-0.41,0.35-0.73,0.75-0.74
			c0.42,0.01,0.75,0.35,0.75,0.76c-0.01,0.9,0.19,3.45,1.24,4.44c0.3,0.29,0.65,0.41,1.07,0.39c0.01,0,0.01,0,0.02,0
			c0.8-0.02,1.47,0,1.98,0.11c0.47,0.1,0.96,0.24,1.46,0.43c0.01,0,0.02,0.01,0.03,0.01c0.86,0.32,1.78,0.76,2.84,1.26
			c0.23,0.11,0.48,0.23,0.73,0.35c0.05,0.02,0.1,0.04,0.15,0.07c1.15,0.54,2.48,1.14,4.04,1.74c0.4,0.15,0.82,0.31,1.25,0.46
			c0.3-0.14,0.64-0.27,1.02-0.37c0.66-0.18,1.4-0.23,2.12,0.04c0,0,0.01,0,0.02,0c0.54,0.21,1.06,0.6,1.51,1.27
			c0.17,0.25,0.33,0.54,0.47,0.87c0.62,0.26,1.23,0.52,1.83,0.78c2.78,1.19,5.63,2.4,10.08,3.15c1.19-0.68,3.23-1.34,5.08,0.57
			c0.6,0.04,1.21,0.07,1.86,0.1c3.88,0.15,6.83,0.61,9.13,1.25c0.18-0.08,0.37-0.15,0.57-0.21c0,0,0,0,0.01,0
			c1.36-0.45,3.03-0.53,3.79,1.29c0.11,0.26,0.2,0.56,0.27,0.9c1.73,1.08,2.84,2.28,3.84,3.37c0.18,0.2,0.36,0.4,0.54,0.59
			c1.51,1.6-0.16,33.36-1.09,48.45"/>
	</g>
	<g>
		
			<path fill="#D84732" stroke="#000000" stroke-width="0.75" stroke-linecap="round" stroke-linejoin="round" stroke-miterlimit="10" d="
			M146.47,310.12c0.27-6.33,1.1-25.58,2.07-48.14c1.83-42.69,4.16-97.25,4.16-98.68v-0.57c0.02-2.22,0.04-4.52-2.29-5.6
			c-0.54-0.25-1.34-0.61-2.31-1.04c-0.63-0.27-1.33-0.58-2.07-0.9c-0.16,0.01-0.34,0.02-0.54,0c-0.91-0.02-2.09-0.29-3.08-1.25
			c-0.15-0.15-0.3-0.31-0.44-0.49c-1.02-0.43-2-0.85-2.89-1.23c-1.04-0.44-1.95-0.82-2.61-1.1c-0.74,0.28-1.96,0.34-3.53-0.95
			c-0.65-0.1-1.26-0.2-1.84-0.27c-0.58-0.09-1.12-0.15-1.61-0.19c-0.62-0.06-1.16-0.07-1.59-0.04c-0.11,0.06-0.21,0.11-0.31,0.15
			c-0.76,0.38-1.35,0.47-2.9-0.03h-0.49c-0.48-0.01-1-0.02-1.51-0.04c-0.54-0.021-1.07-0.04-1.58-0.07
			c-0.36-0.01-0.7-0.03-1.03-0.05c-0.01,0-0.02,0-0.02,0c-0.26-0.01-0.51-0.03-0.74-0.04c-0.65-0.04-1.1-0.07-1.18-0.07
			c-0.07,0-0.13-0.02-0.19-0.05c-0.18-0.09-0.3-0.28-0.3-0.49c0,0,0,0,0-0.01c0.01-0.14,0.08-0.27,0.18-0.36
			c0.1-0.09,0.23-0.14,0.37-0.14c0,0,0.04,0.01,0.1,0.01c0.26,0.021,0.95,0.05,1.85,0.1c1.18,0.05,2.72,0.11,4.04,0.14
			c0.27-0.27,0.76-0.71,1.36-0.96c0.24-0.11,0.49-0.18,0.76-0.21c0.6-0.06,1.06,0.2,1.38,0.49c0.24,0.23,0.4,0.47,0.49,0.62
			c1.28,0.04,3.05,0.2,4.63,0.43c0.28-0.12,0.64-0.24,1.03-0.31c0.64-0.12,1.39-0.11,2.07,0.27c0.01,0,0.01,0,0.01,0
			c0.43,0.24,0.84,0.62,1.18,1.2c1.22,0.52,3.13,1.33,5.17,2.2c1.04-0.23,2.82-0.38,3.93,0.94c0.23,0.26,0.42,0.59,0.58,0.99
			c0.24,0.1,0.47,0.2,0.7,0.31c1.43,0.62,2.65,1.15,3.37,1.49c2.94,1.37,2.92,4.25,2.9,6.56l-0.01,0.56
			c0,1.94-4.23,100.24-5.77,136.13c-0.2,4.82-0.36,8.51-0.45,10.69"/>
		
			<path fill="#D84732" stroke="#000000" stroke-width="0.75" stroke-linecap="round" stroke-linejoin="round" stroke-miterlimit="10" d="
			M149.05,310.12l5.02-132.91l0.19-4.99l0.03-0.76c0-0.78,0.05-1.77,0.12-2.86c0.02-0.45,0.05-0.91,0.08-1.38
			c0.13-2.16,0.28-4.64,0.23-6.64c-0.03-1.3-0.14-2.4-0.39-3.07c-0.19-0.48-0.81-0.95-1.78-1.39c-0.75,0.29-1.89,0.34-3.12-1.01
			c-0.6-0.15-1.25-0.29-1.95-0.42c-1.49-0.29-3.19-0.55-5.07-0.75c-0.35-0.05-0.7-0.08-1.06-0.12c-0.7,0.31-1.94,0.55-3.32-0.49
			c-1.22-0.28-2.41-0.64-3.58-1c-0.75-0.23-1.5-0.46-2.26-0.66c-0.75,0.38-2.32,0.83-3.92-0.75c-0.25-0.03-0.51-0.04-0.77-0.05
			c-0.71-0.02-1.47-0.09-2.27-0.21c-1.71-0.23-3.54-0.63-5.15-1.03c-0.01,0-0.02,0-0.02,0c-0.43-0.11-0.84-0.22-1.22-0.32
			c-0.42-0.11-0.82-0.22-1.19-0.33c-1.18-0.33-2.01-0.6-2.23-0.67c-0.01,0-0.02,0-0.03-0.01c-0.01,0-0.02,0-0.02,0
			c-0.01,0-0.03-0.01-0.04-0.02c-0.25-0.1-0.38-0.38-0.29-0.64c0.09-0.27,0.36-0.42,0.63-0.35c0.01,0.01,0.03,0.01,0.04,0.02
			c0.09,0.03,0.63,0.2,1.46,0.44c0.78,0.24,1.82,0.53,2.98,0.83c2.35,0.59,5.2,1.18,7.38,1.24h0.06c0.36,0.01,0.71,0.04,1.06,0.08
			c0.25-0.09,0.53-0.16,0.84-0.19c0.5-0.08,1.06-0.05,1.61,0.19c0.32,0.13,0.64,0.34,0.94,0.64c0.92,0.24,1.82,0.52,2.71,0.79
			c1.29,0.4,2.54,0.77,3.79,1.03c0.17-0.06,0.35-0.11,0.54-0.14c0.67-0.13,1.47-0.06,2.22,0.54c1.61,0.16,3.29,0.36,4.9,0.63
			c1.14,0.19,2.25,0.4,3.28,0.65c0.98-0.3,2.77-0.52,3.81,1.3c0.67,0.34,1.22,0.71,1.59,1.12c0.19,0.21,0.33,0.44,0.42,0.67
			c0.11,0.29,0.2,0.63,0.27,1.02c0.39,2.19,0.16,5.85-0.04,9.13c-0.1,1.6-0.19,3.11-0.19,4.18l-5.25,138.66"/>
		
			<path fill="#D84732" stroke="#000000" stroke-width="0.75" stroke-linecap="round" stroke-linejoin="round" stroke-miterlimit="10" d="
			M144.24,310.12c0.06-1.04,0.13-2.34,0.21-3.86c0.01-0.24,0.02-0.49,0.03-0.74c0.48-9.47,1.3-26.78,2.18-46.25
			c0.03-0.81,0.07-1.63,0.11-2.45c1.95-43.21,4.17-95.67,3.78-96.66c-0.12-0.12-0.24-0.25-0.36-0.38c-0.65-0.71-1.36-1.49-2.5-2.18
			c-0.17,0.04-0.36,0.07-0.56,0.09c-0.89,0.1-2.08-0.11-2.92-1.48c-1.22-0.3-2.71-0.52-4.54-0.64c-0.31-0.02-0.64-0.04-0.97-0.05
			h-0.04c-0.48-0.02-0.92-0.05-1.36-0.07c-0.59,0.47-1.71,0.89-3.47-0.39c-3.28-0.53-5.37-1.42-7.4-2.29
			c-0.41-0.18-0.82-0.35-1.24-0.52c-0.73,0.35-2.06,0.56-3.44-1.21c-1.53-0.53-2.76-1.08-3.8-1.57c-0.25-0.12-0.48-0.23-0.71-0.34
			c-0.69-0.33-1.28-0.61-1.82-0.82c-0.01,0-0.02,0-0.03-0.01c-0.02-0.01-0.04-0.01-0.06-0.02c-0.31-0.12-0.6-0.2-0.87-0.26
			c-0.95-0.19-3.21,0.1-5.83,0.43c-1.12,0.15-2.32,0.3-3.55,0.44c-0.01,0-0.02,0-0.02,0c-1.15,0.12-2.32,0.23-3.49,0.3
			c-1.83,0.11-3.08-0.33-3.71-1.28c-1.03-1.56,0.08-3.84,0.12-3.94c0.13-0.26,0.44-0.36,0.7-0.24c0.26,0.13,0.37,0.44,0.24,0.7
			c-0.25,0.51-0.77,2.03-0.19,2.9c0.39,0.58,1.23,0.86,2.5,0.83c-0.05-0.06-0.11-0.11-0.16-0.18c-0.99-1.4-0.36-3.61-0.34-3.7
			c0.09-0.28,0.38-0.44,0.65-0.36c0.28,0.08,0.44,0.37,0.36,0.65c-0.15,0.5-0.4,1.99,0.19,2.81c0.28,0.39,0.73,0.6,1.38,0.63
			c0.1,0,0.2-0.02,0.31-0.03c-0.61-1.22-0.49-3.35-0.45-3.82c0.02-0.29,0.28-0.52,0.56-0.48c0.29,0.02,0.5,0.28,0.48,0.56
			c-0.09,1.18,0.01,3.05,0.51,3.53c0.07,0.07,0.13,0.09,0.23,0.08c1.23-0.13,2.43-0.29,3.55-0.43c1.1-0.14,2.12-0.27,3.01-0.37
			c-0.88-1.22-0.89-3.25-0.89-3.5c0.01-0.29,0.25-0.51,0.53-0.52c0.29,0.01,0.52,0.24,0.52,0.53c-0.01,0.63,0.13,2.4,0.86,3.09
			c0.21,0.2,0.46,0.29,0.75,0.27c0.01,0,0.01,0,0.02,0c0.55-0.01,1.02,0,1.37,0.08c0.32,0.06,0.65,0.16,1,0.29
			c0.01,0.01,0.03,0.01,0.04,0.02c0.48,0.17,0.99,0.41,1.56,0.68c0.14,0.06,0.28,0.13,0.42,0.2c0.2,0.09,0.4,0.19,0.61,0.29
			c0.8,0.37,1.72,0.79,2.81,1.2c0.28,0.11,0.57,0.22,0.88,0.33c0.2-0.09,0.44-0.19,0.7-0.26c0.47-0.12,1-0.16,1.51,0.04
			c0.37,0.14,0.73,0.41,1.03,0.87c0.12,0.17,0.24,0.38,0.34,0.61c0.43,0.18,0.86,0.36,1.28,0.54c1.93,0.83,3.92,1.68,7.01,2.2
			c0.83-0.48,2.26-0.94,3.54,0.4c0.42,0.02,0.85,0.05,1.3,0.06c2.7,0.11,4.75,0.43,6.36,0.88c0.13-0.06,0.28-0.11,0.43-0.16
			c0.94-0.3,2.07-0.34,2.61,0.9c0.07,0.18,0.14,0.39,0.19,0.63c1.2,0.76,1.98,1.59,2.67,2.35c0.13,0.14,0.26,0.28,0.38,0.42
			c0.68,0.71-1.58,54.77-3.56,98.5c-0.47,10.23-0.91,19.89-1.31,28.17c-0.52,11.13-0.95,19.77-1.17,23.96"/>
	</g>
	<g>
		<path fill="#F49D91" d="M209.235,236.515c4.572,0.203,7,4.345,6.163,6.734c-0.837,2.389-7.179,6.533-13.428,9.657
			c-6.249,3.124-10.086,4.621-7.914,16.743c2.173,12.122,4.46,20.76,16.483,24.128c12.023,3.368,41.507,2.384,58.721-12.68
			c17.215-15.064,16.276-36.116,15.24-53.889c-1.035-17.773-9.306-44.022-39.359-48.023c-30.053-4.001-56.691,4.029-64.289,19.567
			c-7.598,15.539-4.315,28.996,3.833,34.268C192.833,238.293,204.936,236.324,209.235,236.515z"/>
		<path fill="#CDEDFA" stroke="#000000" stroke-linecap="round" stroke-linejoin="round" stroke-miterlimit="10" d="
			M256.159,205.129c6.282-1.865,14.978-0.407,18.513,7.064c3.534,7.471,4.45,13.402,2.176,16.928
			c-2.273,3.526,0.602,11.099-1.598,13.819c-2.199,2.721-22.216,4.937-39.68,2.354c-17.464-2.583-19.525-4.884-20.091-9.321
			c-0.566-4.437,8.24-10.122,18.693-8.997c10.452,1.125,16.76,3.168,16.76,3.168s2.22-8.24-12.478-9.107
			c-14.699-0.867-19.188,7.327-24.181,6.867c-4.992-0.46-3.509-4.221-0.11-5.857C217.561,220.413,251.15,206.617,256.159,205.129z"
			/>
		<path fill="#FFE2AD" stroke="#000000" stroke-linecap="round" stroke-linejoin="round" stroke-miterlimit="10" d="M235.57,245.295
			c-11.027-1.631-15.91-3.149-18.156-5.164c3.979-2.142,3.407-7.677,4.505-8.792c1.168-1.187,12.34-3.687,22.337,1.469
			c8.047,4.151,9.051,11.08,9.137,13.626C247.686,246.492,241.482,246.169,235.57,245.295z"/>
		<path fill="none" stroke="#000000" stroke-linecap="round" stroke-linejoin="round" stroke-miterlimit="10" d="M209.235,236.515
			c4.572,0.203,7,4.345,6.163,6.734c-0.837,2.389-7.179,6.533-13.428,9.657c-6.249,3.124-10.086,4.621-7.914,16.743
			c2.173,12.122,4.46,20.76,16.483,24.128c12.023,3.368,41.507,2.384,58.721-12.68c17.215-15.064,16.276-36.116,15.24-53.889
			c-1.035-17.773-9.306-44.022-39.359-48.023c-30.053-4.001-56.691,4.029-64.289,19.567c-7.598,15.539-4.315,28.996,3.833,34.268
			C192.833,238.293,204.936,236.324,209.235,236.515z"/>
		<g>
			<path fill="#98C680" stroke="#000000" stroke-linecap="round" stroke-linejoin="round" stroke-miterlimit="10" d="M240.889,238.8
				c0,0,2.765,5.285-0.958,6.156C239.931,244.957,237.298,243.413,240.889,238.8z"/>
			<path fill="#714580" d="M239.914,242.31c-0.02,0.214,0.137,0.403,0.351,0.423c0.214,0.02,0.403-0.138,0.423-0.351
				c0.02-0.214-0.138-0.403-0.351-0.423C240.123,241.939,239.934,242.096,239.914,242.31z"/>
		</g>
		<g>
			<path fill="#98C680" stroke="#000000" stroke-linecap="round" stroke-linejoin="round" stroke-miterlimit="10" d="
				M236.949,238.264c0,0,2.765,5.285-0.958,6.156C235.991,244.42,233.358,242.877,236.949,238.264z"/>
			<path fill="#714580" d="M235.974,241.774c-0.02,0.214,0.138,0.403,0.351,0.423c0.214,0.02,0.403-0.138,0.423-0.351
				c0.02-0.214-0.138-0.403-0.351-0.423C236.183,241.403,235.994,241.56,235.974,241.774z"/>
		</g>
		<g>
			<path fill="#98C680" stroke="#000000" stroke-linecap="round" stroke-linejoin="round" stroke-miterlimit="10" d="
				M233.048,237.775c0,0,2.765,5.285-0.958,6.156C232.09,243.931,229.457,242.387,233.048,237.775z"/>
			<path fill="#714580" d="M232.073,241.284c-0.02,0.214,0.138,0.403,0.351,0.423c0.214,0.02,0.403-0.138,0.423-0.351
				s-0.138-0.403-0.351-0.423C232.282,240.913,232.093,241.071,232.073,241.284z"/>
		</g>
		<g>
			<path fill="#98C680" stroke="#000000" stroke-linecap="round" stroke-linejoin="round" stroke-miterlimit="10" d="
				M224.123,235.418c0,0,1.271,5.827-2.549,5.685C221.573,241.102,219.441,238.919,224.123,235.418z"/>
			<path fill="#714580" d="M222.256,238.545c-0.075,0.201,0.026,0.425,0.227,0.5c0.201,0.075,0.425-0.026,0.5-0.227
				c0.075-0.201-0.026-0.425-0.227-0.5C222.556,238.243,222.332,238.344,222.256,238.545z"/>
		</g>
		<path fill="#CDEDFA" stroke="#000000" stroke-linecap="round" stroke-linejoin="round" stroke-miterlimit="10" d="
			M209.095,182.237c6.506-1.456,27.248-5.713,40.952,1.716c13.704,7.429,11.473,13.801,6.651,17.056
			c-4.822,3.256-41.491,15.295-45.867,18.181c-4.377,2.885-3.831,8.981-12.011,14.87c-1.932,1.391-4.528,2.328-7.229,1.753
			c-2.43-0.557-4.8-1.43-6.905-2.792c-6.77-4.381-10.174-14.416-6.775-26.598c1.331-3.27,3.243-6.668,5.836-10.076
			C188.424,190.199,196.639,185.025,209.095,182.237z"/>
		<path fill="#CDEDFA" stroke="#000000" stroke-linecap="round" stroke-linejoin="round" stroke-miterlimit="10" d="
			M194.057,269.649c-0.419-2.34-0.613-4.281-0.61-5.917c0.07-2.003,0.661-3.475,1.853-4.78c1.751-1.917,4.541-3.822,9.546-4.594
			c5.004-0.773,19.206-4.013,23.362-6.358c1.687-0.952,37.701,0.312,43.464,0.226c5.763-0.086,8.96,7.609,8.062,15.131
			c-0.898,7.522-10.405,23.707-36.521,28.291c-23.874,4.19-40.343,0.601-44.842-7.103
			C196.19,280.52,195.104,275.495,194.057,269.649z"/>
		<path fill="#93C6B8" stroke="#000000" stroke-linecap="round" stroke-linejoin="round" stroke-miterlimit="10" d="
			M228.894,230.629c0,0,2.707,6.515,2.609,9.465c-0.098,2.95-1.605,3.246-3.409,2.993c-1.804-0.253-4.487-0.413-3.322-3.613
			C225.937,236.275,228.894,230.629,228.894,230.629z"/>
		<g>
			<path fill="#589291" stroke="#000000" stroke-linecap="round" stroke-linejoin="round" stroke-miterlimit="10" d="
				M239.937,227.935c0,0-0.849,2.578,0.619,5.753c1.468,3.175,2.126,4.017,0.798,5.194c-1.328,1.177-2.915-1.685-2.893-4.611
				c0.022-2.926,0.681-3.682,0.681-3.682L239.937,227.935z"/>
			<path fill="#714580" d="M239.849,237.102c-0.058,0.349,0.177,0.679,0.526,0.737c0.349,0.058,0.679-0.177,0.737-0.526
				c0.058-0.349-0.177-0.679-0.526-0.737C240.237,236.518,239.907,236.754,239.849,237.102z"/>
		</g>
		<g>
			<path fill="#589291" stroke="#000000" stroke-linecap="round" stroke-linejoin="round" stroke-miterlimit="10" d="
				M236.437,227.266c0,0-0.46,2.258,0.693,5.56c1.154,3.302,1.727,4.204,0.291,5.246c-1.436,1.043-2.738-1.959-2.433-4.869
				c0.305-2.91,1.034-3.598,1.034-3.598L236.437,227.266z"/>
			<path fill="#714580" d="M236.096,236.157c-0.092,0.342,0.111,0.693,0.452,0.784c0.342,0.092,0.693-0.111,0.784-0.452
				c0.092-0.341-0.111-0.693-0.452-0.784C236.539,235.613,236.188,235.815,236.096,236.157z"/>
		</g>
		<g>
			<path fill="#589291" stroke="#000000" stroke-linecap="round" stroke-linejoin="round" stroke-miterlimit="10" d="
				M233.284,227.124c0,0-0.859,2.624,0.008,5.709c0.867,3.085,1.321,3.92,0.084,4.949c-1.237,1.029-2.238-1.768-1.892-4.527
				c0.345-2.759,0.978-3.432,0.978-3.432L233.284,227.124z"/>
			<path fill="#714580" d="M232.217,235.849c-0.092,0.341,0.111,0.693,0.452,0.784c0.341,0.092,0.693-0.111,0.784-0.452
				c0.092-0.341-0.111-0.693-0.452-0.784C232.659,235.305,232.308,235.508,232.217,235.849z"/>
		</g>
		<g>
			<path fill="#589291" stroke="#000000" stroke-linecap="round" stroke-linejoin="round" stroke-miterlimit="10" d="
				M225.508,227.683c0,0-0.101,4.127-0.157,4.961c-0.169,2.496-0.042,2.827-0.906,3.645c-0.864,0.818-1.383-1.247-0.885-3.409
				C224.058,230.717,225.508,227.683,225.508,227.683z"/>
			<path fill="#714580" d="M223.855,234.22c-0.094,0.275,0.021,0.563,0.256,0.643c0.235,0.08,0.502-0.077,0.596-0.352
				c0.094-0.275-0.021-0.563-0.256-0.643C224.216,233.787,223.949,233.945,223.855,234.22z"/>
		</g>
		<g>
			<path fill="#98C680" stroke="#000000" stroke-linecap="round" stroke-linejoin="round" stroke-miterlimit="10" d="
				M250.755,239.026c0,0,1.844,4.376-1.146,6.808C249.609,245.834,247.867,242.851,250.755,239.026z"/>
			<path fill="#714580" d="M249.821,242.572c-0.02,0.214,0.138,0.403,0.351,0.423c0.214,0.02,0.403-0.137,0.423-0.351
				c0.02-0.214-0.138-0.403-0.351-0.423C250.029,242.201,249.84,242.358,249.821,242.572z"/>
		</g>
		<g>
			<path fill="#98C680" stroke="#000000" stroke-linecap="round" stroke-linejoin="round" stroke-miterlimit="10" d="
				M248.619,237.257c0,0,1.769,5.193-1.269,8.152C247.35,245.409,245.659,241.877,248.619,237.257z"/>
			<path fill="#714580" d="M247.613,241.588c-0.02,0.214,0.138,0.403,0.351,0.423c0.214,0.02,0.403-0.138,0.423-0.351
				c0.02-0.214-0.138-0.403-0.351-0.423C247.822,241.217,247.633,241.374,247.613,241.588z"/>
		</g>
		<g>
			<path fill="#98C680" stroke="#000000" stroke-linecap="round" stroke-linejoin="round" stroke-miterlimit="10" d="
				M246.44,235.496c0,0,1.682,6.135-1.412,9.7C245.028,245.196,243.395,241.031,246.44,235.496z"/>
			<path fill="#714580" d="M245.362,240.6c-0.02,0.214,0.138,0.403,0.351,0.423c0.214,0.02,0.403-0.138,0.423-0.351
				s-0.138-0.403-0.351-0.423C245.571,240.229,245.382,240.386,245.362,240.6z"/>
		</g>
		<g>
			<path fill="#98C680" stroke="#000000" stroke-linecap="round" stroke-linejoin="round" stroke-miterlimit="10" d="
				M244.455,234.446c0,0,1.634,6.658-1.491,10.56C242.964,245.006,241.363,240.49,244.455,234.446z"/>
			<path fill="#714580" d="M243.334,240.023c-0.02,0.214,0.138,0.403,0.351,0.423c0.214,0.02,0.403-0.138,0.423-0.351
				s-0.138-0.403-0.351-0.423C243.543,239.652,243.354,239.809,243.334,240.023z"/>
		</g>
	</g>
	<g>
		<path fill="#F49D91" d="M197.664,139.384c2.988,0.132,4.574,2.839,4.027,4.4c-0.547,1.561-4.691,4.269-8.774,6.31
			c-4.083,2.042-6.591,3.02-5.171,10.94c1.419,7.921,2.914,13.565,10.77,15.766c7.856,2.201,27.122,1.558,38.37-8.286
			c11.249-9.843,10.635-23.6,9.959-35.213c-0.677-11.613-6.081-28.766-25.719-31.38s-37.044,2.632-42.008,12.786
			c-4.964,10.153-2.819,18.947,2.505,22.392C186.946,140.546,194.855,139.259,197.664,139.384z"/>
		<path fill="#CDEDFA" stroke="#000000" stroke-linecap="round" stroke-linejoin="round" stroke-miterlimit="10" d="
			M228.325,118.875c4.105-1.219,9.787-0.266,12.097,4.616c2.31,4.882,2.908,8.757,1.422,11.061c-1.486,2.304,0.393,7.252-1.044,9.03
			s-14.517,3.226-25.928,1.539c-11.411-1.688-12.759-3.191-13.128-6.091c-0.37-2.899,5.384-6.614,12.214-5.879
			c6.83,0.735,10.952,2.07,10.952,2.07s1.451-5.384-8.154-5.951c-9.605-0.566-12.538,4.788-15.8,4.487
			c-3.262-0.3-2.293-2.758-0.072-3.827C203.104,128.862,225.052,119.847,228.325,118.875z"/>
		<path fill="#FFE2AD" stroke="#000000" stroke-linecap="round" stroke-linejoin="round" stroke-miterlimit="10" d="
			M214.872,145.121c-7.205-1.066-10.396-2.058-11.864-3.374c2.6-1.4,2.226-5.016,2.944-5.745c0.763-0.776,8.064-2.41,14.596,0.96
			c5.258,2.712,5.914,7.24,5.971,8.904C222.789,145.903,218.735,145.692,214.872,145.121z"/>
		<path fill="none" stroke="#000000" stroke-linecap="round" stroke-linejoin="round" stroke-miterlimit="10" d="M197.664,139.384
			c2.988,0.132,4.574,2.839,4.027,4.4c-0.547,1.561-4.691,4.269-8.774,6.31c-4.083,2.042-6.591,3.02-5.171,10.94
			c1.419,7.921,2.914,13.565,10.77,15.766c7.856,2.201,27.122,1.558,38.37-8.286c11.249-9.843,10.635-23.6,9.959-35.213
			c-0.677-11.613-6.081-28.766-25.719-31.38s-37.044,2.632-42.008,12.786c-4.964,10.153-2.819,18.947,2.505,22.392
			C186.946,140.546,194.855,139.259,197.664,139.384z"/>
		<g>
			<path fill="#98C680" d="M218.347,140.877c0,0,1.807,3.453-0.626,4.023C217.721,144.9,216.001,143.891,218.347,140.877z"/>
			<path fill="#714580" d="M217.71,143.17c-0.013,0.14,0.09,0.263,0.23,0.276c0.14,0.013,0.263-0.09,0.276-0.23
				c0.013-0.14-0.09-0.263-0.23-0.276C217.847,142.928,217.723,143.031,217.71,143.17z"/>
		</g>
		<g>
			<path fill="#98C680" d="M215.772,140.527c0,0,1.807,3.453-0.626,4.023C215.147,144.549,213.426,143.541,215.772,140.527z"/>
			<path fill="#714580" d="M215.136,142.82c-0.013,0.14,0.09,0.263,0.23,0.276c0.14,0.013,0.263-0.09,0.276-0.23
				c0.013-0.14-0.09-0.263-0.23-0.276C215.272,142.577,215.149,142.68,215.136,142.82z"/>
		</g>
		<g>
			<path fill="#98C680" d="M213.223,140.207c0,0,1.807,3.453-0.626,4.023C212.598,144.23,210.877,143.221,213.223,140.207z"/>
			<path fill="#714580" d="M212.587,142.5c-0.013,0.14,0.09,0.263,0.23,0.276c0.14,0.013,0.263-0.09,0.276-0.23
				c0.013-0.14-0.09-0.263-0.23-0.276C212.723,142.258,212.6,142.36,212.587,142.5z"/>
		</g>
		<g>
			<path fill="#98C680" d="M207.392,138.667c0,0,0.831,3.808-1.666,3.715C205.726,142.381,204.333,140.954,207.392,138.667z"/>
			<path fill="#714580" d="M206.172,140.71c-0.049,0.131,0.017,0.278,0.148,0.327c0.131,0.049,0.278-0.017,0.327-0.149
				c0.049-0.131-0.017-0.278-0.149-0.327C206.368,140.513,206.221,140.579,206.172,140.71z"/>
		</g>
		<path fill="#CDEDFA" stroke="#000000" stroke-linecap="round" stroke-linejoin="round" stroke-miterlimit="10" d="
			M197.572,103.917c4.252-0.952,17.804-3.733,26.759,1.121c8.955,4.854,7.497,9.018,4.346,11.145
			c-3.151,2.128-27.111,9.994-29.971,11.88c-2.86,1.885-2.503,5.869-7.849,9.716c-1.263,0.909-2.959,1.521-4.723,1.145
			c-1.588-0.364-3.137-0.934-4.512-1.825c-4.424-2.863-6.648-9.42-4.427-17.38c0.87-2.137,2.119-4.357,3.813-6.584
			C184.065,109.12,189.433,105.738,197.572,103.917z"/>
		<path fill="#CDEDFA" stroke="#000000" stroke-linecap="round" stroke-linejoin="round" stroke-miterlimit="10" d="
			M187.746,161.034c-0.274-1.529-0.4-2.797-0.398-3.867c0.046-1.309,0.432-2.271,1.211-3.123c1.145-1.253,2.967-2.497,6.238-3.002
			c3.27-0.505,12.55-2.622,15.265-4.154c1.103-0.622,24.635,0.204,28.401,0.148c3.766-0.056,5.855,4.972,5.268,9.887
			c-0.587,4.915-6.799,15.491-23.864,18.486c-15.6,2.738-26.361,0.393-29.301-4.641C189.139,168.138,188.43,164.854,187.746,161.034
			z"/>
		<path fill="#93C6B8" d="M210.509,135.538c0,0,1.769,4.257,1.705,6.185s-1.048,2.121-2.227,1.956
			c-1.179-0.165-2.932-0.27-2.171-2.361C208.577,139.227,210.509,135.538,210.509,135.538z"/>
		<g>
			<path fill="#589291" d="M217.725,133.777c0,0-0.555,1.684,0.404,3.759c0.959,2.074,1.389,2.625,0.521,3.394
				c-0.868,0.769-1.905-1.101-1.89-3.013c0.014-1.912,0.445-2.406,0.445-2.406L217.725,133.777z"/>
			<path fill="#714580" d="M217.668,139.768c-0.038,0.228,0.116,0.443,0.344,0.481c0.228,0.038,0.443-0.116,0.481-0.344
				c0.038-0.228-0.116-0.443-0.344-0.481C217.921,139.386,217.706,139.54,217.668,139.768z"/>
		</g>
		<g>
			<path fill="#589291" d="M215.438,133.34c0,0-0.301,1.476,0.453,3.633c0.754,2.158,1.129,2.747,0.19,3.428
				c-0.938,0.681-1.789-1.28-1.59-3.182c0.2-1.902,0.676-2.351,0.676-2.351L215.438,133.34z"/>
			<path fill="#714580" d="M215.215,139.15c-0.06,0.223,0.072,0.453,0.296,0.513c0.223,0.06,0.453-0.072,0.513-0.296
				c0.06-0.223-0.072-0.453-0.296-0.513C215.505,138.794,215.275,138.927,215.215,139.15z"/>
		</g>
		<g>
			<path fill="#589291" d="M213.378,133.248c0,0-0.562,1.714,0.005,3.73c0.566,2.016,0.863,2.561,0.055,3.234
				c-0.808,0.672-1.462-1.155-1.237-2.958c0.226-1.803,0.639-2.243,0.639-2.243L213.378,133.248z"/>
			<path fill="#714580" d="M212.68,138.949c-0.06,0.223,0.072,0.453,0.296,0.513c0.223,0.06,0.453-0.072,0.512-0.296
				c0.06-0.223-0.072-0.453-0.296-0.513C212.97,138.593,212.74,138.725,212.68,138.949z"/>
		</g>
		<g>
			<path fill="#589291" d="M208.297,133.613c0,0-0.066,2.697-0.103,3.241c-0.11,1.631-0.027,1.847-0.592,2.382
				c-0.564,0.535-0.904-0.814-0.578-2.228C207.349,135.595,208.297,133.613,208.297,133.613z"/>
			<path fill="#714580" d="M207.217,137.884c-0.061,0.18,0.014,0.368,0.167,0.42c0.154,0.053,0.328-0.051,0.389-0.23
				c0.061-0.18-0.013-0.368-0.167-0.42C207.453,137.601,207.278,137.704,207.217,137.884z"/>
		</g>
		<g>
			<path fill="#98C680" d="M224.794,141.024c0,0,1.205,2.859-0.749,4.449C224.045,145.473,222.907,143.524,224.794,141.024z"/>
			<path fill="#714580" d="M224.183,143.341c-0.013,0.14,0.09,0.263,0.23,0.276c0.14,0.013,0.263-0.09,0.276-0.23
				c0.013-0.14-0.09-0.263-0.23-0.276C224.32,143.099,224.196,143.202,224.183,143.341z"/>
		</g>
		<g>
			<path fill="#98C680" d="M223.399,139.869c0,0,1.156,3.393-0.829,5.327C222.569,145.196,221.464,142.888,223.399,139.869z"/>
			<path fill="#714580" d="M222.741,142.699c-0.013,0.14,0.09,0.263,0.23,0.276c0.14,0.013,0.263-0.09,0.276-0.229
				c0.013-0.14-0.09-0.263-0.23-0.276C222.877,142.456,222.754,142.559,222.741,142.699z"/>
		</g>
		<g>
			<path fill="#98C680" d="M221.975,138.718c0,0,1.099,4.009-0.923,6.338C221.052,145.056,219.985,142.335,221.975,138.718z"/>
			<path fill="#714580" d="M221.27,142.053c-0.013,0.14,0.09,0.263,0.23,0.276c0.14,0.013,0.263-0.09,0.276-0.23
				c0.013-0.14-0.09-0.263-0.23-0.276C221.407,141.811,221.283,141.913,221.27,142.053z"/>
		</g>
		<g>
			<path fill="#98C680" d="M220.678,138.032c0,0,1.068,4.35-0.974,6.9C219.703,144.932,218.657,141.981,220.678,138.032z"/>
			<path fill="#714580" d="M219.945,141.676c-0.013,0.14,0.09,0.263,0.23,0.276c0.14,0.013,0.263-0.09,0.276-0.23
				c0.013-0.14-0.09-0.263-0.23-0.276C220.081,141.434,219.958,141.536,219.945,141.676z"/>
		</g>
	</g>
	<g>
		<path fill="#D84732" stroke="#000000" stroke-linecap="round" stroke-linejoin="round" stroke-miterlimit="10" d="M159.62,310.12
			c0.3-10.84,1.26-49.34,1.53-52.27l0.07-0.8c0.11-1.25,0.22-2.62,0.56-3.91c0.55-2.11,1.71-4.04,4.4-5
			c1.07-0.39,2.85-0.99,4.94-1.67c0.34-0.11,0.7-0.23,1.06-0.35c0.28-0.55,0.61-0.99,0.97-1.33c0,0,0.01-0.02,0.02-0.03
			c0.79-0.77,1.75-1.1,2.68-1.18c1.11-0.11,2.2,0.13,2.98,0.38c3-0.97,5.82-1.87,7.61-2.43c0.15-0.2,0.3-0.38,0.45-0.54
			c1.6-1.7,3.54-1.47,4.92-0.96c0.33,0.12,0.63,0.26,0.88,0.4c2.27-0.12,4.79-0.11,6.61,0c0.19-0.26,0.6-0.75,1.19-1.06
			c0.44-0.24,0.98-0.39,1.6-0.27c1.33,0.25,2.38,1.34,2.87,1.94c1.86,0.13,4.02,0.24,5.7,0.31c1.3,0.06,2.32,0.1,2.68,0.11
			c0.08,0.01,0.13,0.01,0.14,0.01c0.4,0.02,0.73,0.36,0.71,0.77v0.03c-0.03,0.4-0.37,0.7-0.77,0.69c-0.14,0-1.24-0.03-2.74-0.09
			h-0.03c-0.45-0.02-0.93-0.04-1.43-0.06c-0.74-0.03-1.51-0.07-2.29-0.12c-0.72-0.04-1.44-0.08-2.12-0.14
			c-0.24-0.02-0.47-0.04-0.7-0.06c-0.56,0.13-1.03,0.21-1.44,0.24c-1.24,0.14-1.9-0.1-2.67-0.56c-0.14-0.08-0.28-0.17-0.43-0.27
			c-0.6-0.1-1.34-0.14-2.2-0.15c-0.72-0.01-1.52,0.01-2.38,0.06c-0.82,0.03-1.71,0.08-2.63,0.14c-2.4,1.62-4.12,1.39-5.14,0.89
			c-0.96,0.31-2.29,0.73-3.82,1.22c-1.31,0.42-2.77,0.88-4.28,1.37c-0.22,0.23-0.44,0.43-0.67,0.62c-1.51,1.23-3.19,1.47-4.48,1.4
			c0,0,0,0-0.01,0c-0.29-0.02-0.57-0.05-0.81-0.08c-1.1,0.36-2.14,0.7-3.08,1.02c-1.42,0.47-2.6,0.87-3.39,1.15
			c-3.45,1.23-3.72,4.49-3.98,7.64l-0.07,0.8c-0.27,2.87-1.24,41.26-1.52,52.14"/>
		<path fill="#D84732" stroke="#000000" stroke-linecap="round" stroke-linejoin="round" stroke-miterlimit="10" d="M155.98,310.12
			l1.84-40.9c0.14-1.52,0.21-3.67,0.28-5.95c0.1-3.48,0.21-7.24,0.61-10.21c0.23-1.74,0.56-3.2,1.03-4.16
			c0.05-0.1,0.11-0.2,0.18-0.29c0.24-0.37,0.58-0.7,1.01-1.01c0.31-0.22,0.67-0.43,1.07-0.62c0.25-0.13,0.53-0.25,0.82-0.36
			c1.07-1.51,2.44-1.88,3.65-1.8c0.74,0.04,1.42,0.25,1.93,0.46c1.49-0.21,3.08-0.37,4.71-0.49h0.04c2.31-0.17,4.71-0.24,7.01-0.26
			c1.15-0.75,2.3-0.74,3.24-0.47c0.26,0.07,0.51,0.17,0.74,0.27c1.8-0.22,3.61-0.58,5.5-0.97c1.3-0.27,2.61-0.54,3.95-0.76
			c0.46-0.39,0.93-0.65,1.4-0.79c0.83-0.28,1.66-0.24,2.38-0.06c0.41,0.1,0.79,0.24,1.11,0.38c0.51,0,1,0,1.52,0.04h0.07
			c0.83,0.05,1.74,0.06,2.69,0.02c2.56-0.09,5.41-0.44,7.9-0.84c3.21-0.49,5.82-1.06,6.4-1.18c0.04-0.01,0.08-0.02,0.12-0.03
			c0.4-0.09,0.8,0.16,0.89,0.56c0.08,0.36-0.11,0.71-0.44,0.85c-0.09,0.03-0.19,0.06-0.29,0.08c-0.44,0.09-1.59,0.34-3.15,0.64
			c-1.02,0.19-2.22,0.4-3.51,0.6h-0.03c-2.34,0.36-4.98,0.69-7.43,0.79c-0.34,0.02-0.69,0.03-1.02,0.03c-0.78,0.02-1.53,0-2.23-0.04
			c-0.36-0.02-0.73-0.03-1.09-0.03c-2.48,2.03-4.64,1.19-5.66,0.55c-1.1,0.2-2.2,0.42-3.28,0.65c-1.71,0.35-3.45,0.71-5.21,0.94
			c-2.09,1.31-3.81,0.8-4.78,0.26c-0.51,0.01-1.01,0.01-1.5,0.03c-2.71,0.05-5.17,0.2-7.33,0.42c-1,0.09-1.93,0.21-2.79,0.34
			c-1.92,1.74-3.53,1.53-4.55,1.02c-0.76,0.26-1.38,0.55-1.84,0.86c-0.42,0.27-0.71,0.56-0.86,0.87c-0.09,0.17-0.17,0.37-0.24,0.58
			c-0.94,2.67-1.11,8.46-1.26,13.17c-0.07,2.3-0.13,4.48-0.28,6.05l-1.31,28.99c-0.03,0.74-0.06,1.46-0.09,2.16l-0.44,9.61"/>
		<path fill="#D84732" stroke="#000000" stroke-linecap="round" stroke-linejoin="round" stroke-miterlimit="10" d="M162.81,310.12
			c0.35-16.5,0.64-55.95,2.24-57.36c0.19-0.18,0.39-0.35,0.59-0.54c1.09-0.99,2.29-2.07,4.09-2.98c0.1-0.32,0.21-0.61,0.34-0.85
			c0.93-1.75,2.59-1.51,3.89-0.94c0.01,0,0.01,0,0.01,0c0.19,0.08,0.36,0.17,0.53,0.26c2.33-0.43,5.28-0.62,9.13-0.41
			c0.65,0.04,1.26,0.06,1.85,0.08c2-1.73,3.95-0.89,5.07-0.11c4.4-0.33,7.31-1.25,10.13-2.16c0.04-0.02,0.07-0.03,0.11-0.04
			c0.61-0.19,1.24-0.39,1.88-0.59c0.17-0.32,0.36-0.59,0.55-0.82c0.5-0.61,1.04-0.95,1.59-1.11c0.74-0.21,1.48-0.09,2.12,0.14
			c0.37,0.13,0.7,0.3,0.98,0.47c0.45-0.11,0.89-0.23,1.31-0.35c1.58-0.45,2.94-0.92,4.12-1.35c0.31-0.11,0.61-0.22,0.9-0.33
			c1.05-0.39,1.97-0.72,2.82-0.96c0.04-0.01,0.08-0.02,0.12-0.03c0.52-0.15,1.01-0.25,1.49-0.3c0.51-0.06,1.18-0.02,1.97,0.07h0.01
			c0.42,0.07,0.78-0.02,1.1-0.28c1.13-0.89,1.56-3.38,1.63-4.27c0.04-0.41,0.39-0.72,0.8-0.68c0.4,0.04,0.72,0.39,0.68,0.8
			c-0.02,0.35-0.3,3.24-1.71,4.85c1.26,0.25,2.68,0.57,4.23,0.91c1.57,0.35,3.25,0.73,4.97,1.08c0.14,0.02,0.23,0,0.34-0.09
			c0.77-0.62,1.15-3.25,1.18-4.93c0-0.41,0.34-0.74,0.75-0.73c0.41-0.02,0.74,0.34,0.73,0.75c0,0.68-0.11,3.7-1.13,5.36
			c0.15,0.03,0.29,0.06,0.43,0.09c0.93,0.03,1.6-0.21,2.05-0.73c0.93-1.08,0.77-3.22,0.63-3.96c-0.08-0.4,0.19-0.79,0.59-0.87
			c0.4-0.07,0.79,0.19,0.87,0.59c0.03,0.14,0.64,3.36-0.96,5.21c-0.08,0.09-0.17,0.15-0.25,0.23c1.79,0.21,3.03-0.07,3.66-0.84
			c0.93-1.17,0.39-3.38,0.1-4.14c-0.14-0.38,0.05-0.81,0.43-0.96c0.39-0.15,0.82,0.04,0.96,0.43c0.06,0.14,1.33,3.521-0.33,5.59
			c-1.03,1.28-2.85,1.73-5.44,1.34c-1.64-0.25-3.29-0.56-4.9-0.88c-0.01,0-0.02-0.01-0.03-0.01c-1.73-0.35-3.41-0.72-4.98-1.08
			c-3.67-0.82-6.84-1.52-8.21-1.37c-0.38,0.04-0.78,0.12-1.21,0.23c-0.09,0.03-0.19,0.06-0.29,0.08c-0.76,0.23-1.61,0.54-2.58,0.9
			c-1.76,0.65-3.89,1.42-6.65,2.11c-2.19,2.34-4.04,1.86-5.04,1.27c-0.61,0.19-1.21,0.38-1.83,0.58c-2.99,0.97-6.06,1.95-10.79,2.28
			c-2.6,1.56-4.14,0.88-4.91,0.13c-0.02-0.01-0.03-0.02-0.05-0.04c-0.62-0.01-1.26-0.04-1.94-0.07c-3.29-0.18-5.87-0.06-7.96,0.26
			c-1.68,2.24-3.89,1.93-5.12,1.51c-1.7,0.84-2.82,1.84-3.83,2.76c-0.18,0.17-0.37,0.34-0.55,0.5c-1.05,2.07-1.35,37.92-1.78,56.3"
			/>
	</g>
	<g>
		
			<path fill="#D84732" stroke="#000000" stroke-width="0.75" stroke-linecap="round" stroke-linejoin="round" stroke-miterlimit="10" d="
			M156.5,310.12c0.3-7.67,1.19-30.85,2.21-57.06c1.72-44.26,3.79-97.15,3.92-98.51l0.05-0.55c0.19-2.29,0.43-5.13,3.45-6.21
			c0.74-0.27,1.98-0.68,3.43-1.17c0.24-0.07,0.49-0.16,0.75-0.24c0.19-0.37,0.42-0.68,0.66-0.92c1.22-1.2,2.97-0.9,3.97-0.58
			c2.1-0.68,4.06-1.3,5.31-1.7c0.05-0.07,0.1-0.13,0.15-0.19c1.4-1.7,3.24-1.08,4.2-0.57c1.58-0.08,3.34-0.08,4.6,0
			c0.24-0.32,0.93-1.12,1.95-0.93c0.92,0.18,1.65,0.94,1.99,1.35c1.31,0.09,2.83,0.17,4,0.22c0.92,0.04,1.63,0.07,1.86,0.08
			c0.05,0,0.08,0,0.08,0c0.28,0.02,0.51,0.25,0.5,0.54c0,0.01,0,0.01,0,0.02c-0.02,0.19-0.13,0.35-0.29,0.43
			c-0.04,0.01-0.08,0.03-0.13,0.04c-0.04,0.01-0.08,0.01-0.12,0.01c-0.1,0-0.87-0.02-1.91-0.06h-0.01
			c-0.32-0.01-0.67-0.03-1.03-0.04c-0.5-0.03-1.04-0.05-1.57-0.09c-0.48-0.02-0.95-0.05-1.4-0.09c-0.01,0-0.02,0-0.03-0.01
			c-0.01-0.01-0.02,0-0.04,0c-0.17-0.01-0.33-0.03-0.49-0.04c-1.57,0.36-2.16,0.21-2.88-0.22c-0.09-0.06-0.19-0.12-0.29-0.19
			c-0.42-0.08-0.96-0.11-1.58-0.11c-0.48,0-1.03,0.02-1.62,0.05c0,0,0,0-0.01,0c-0.57,0.02-1.17,0.06-1.81,0.1
			c-1.67,1.13-2.87,0.96-3.58,0.62c-0.67,0.21-1.6,0.5-2.67,0.84c-0.91,0.3-1.93,0.63-2.97,0.96c-0.15,0.16-0.3,0.3-0.46,0.43
			c-1.06,0.86-2.23,1.03-3.13,0.98c0,0,0,0-0.01,0c-0.2-0.01-0.39-0.03-0.56-0.06c-0.76,0.25-1.48,0.49-2.13,0.71
			c-0.99,0.32-1.82,0.6-2.38,0.8c-2.4,0.86-2.59,3.13-2.77,5.32l-0.05,0.57c-0.12,1.3-2.06,50.71-3.74,93.96
			c-0.76,19.48-1.47,37.71-1.93,49.74c-0.03,0.74-0.06,1.46-0.09,2.16c-0.16,4.2-0.29,7.49-0.37,9.61"/>
		
			<path fill="#D84732" stroke="#000000" stroke-width="0.75" stroke-linecap="round" stroke-linejoin="round" stroke-miterlimit="10" d="
			M153.93,310.12l1.83-42.35l0.3-6.77l4.25-98.53c0.1-1.06,0.15-2.56,0.19-4.15c0.09-2.9,0.19-6.1,0.62-8.27
			c0.14-0.7,0.31-1.29,0.53-1.73c0.06-0.12,0.14-0.24,0.23-0.35c0.19-0.25,0.45-0.47,0.77-0.67c0.32-0.21,0.71-0.4,1.15-0.57
			c1.19-1.7,2.94-1.32,3.88-0.93c1.04-0.15,2.15-0.26,3.29-0.34c1.62-0.12,3.3-0.17,4.91-0.19c0.8-0.52,1.6-0.51,2.24-0.33
			c0.19,0.05,0.36,0.12,0.52,0.19c1.26-0.15,2.52-0.4,3.83-0.67c0.91-0.19,1.83-0.38,2.76-0.53c0.31-0.26,0.63-0.44,0.95-0.55
			c0.01,0,0.01,0,0.01,0c0.57-0.19,1.13-0.17,1.62-0.05c0.3,0.06,0.58,0.16,0.82,0.27c0.35,0,0.7,0.01,1.05,0.03h0.06
			c0.69,0.04,1.45,0.04,2.25-0.01c1.69-0.07,3.53-0.3,5.15-0.56c2.2-0.34,3.99-0.73,4.42-0.82c0.01,0,0.02,0,0.02,0
			c0.05-0.01,0.08-0.02,0.08-0.02c0.28-0.07,0.56,0.11,0.62,0.39c0.06,0.26-0.1,0.53-0.37,0.61c-0.05,0.01-0.1,0.03-0.15,0.04
			c-0.31,0.06-1.1,0.23-2.18,0.44c-0.71,0.13-1.55,0.28-2.45,0.42h-0.01c-0.89,0.13-1.85,0.26-2.81,0.36
			c-0.8,0.09-1.6,0.15-2.37,0.18c-0.8,0.04-1.57,0.04-2.27,0c-0.25-0.01-0.5-0.02-0.76-0.02c-1.72,1.41-3.23,0.83-3.94,0.38
			c-0.77,0.14-1.53,0.3-2.28,0.45c-1.19,0.25-2.41,0.5-3.63,0.66c-1.46,0.91-2.66,0.56-3.33,0.18c-0.35,0-0.7,0.01-1.04,0.02
			c-1.9,0.04-3.62,0.14-5.13,0.29c-0.69,0.07-1.33,0.15-1.92,0.24c-1.35,1.22-2.47,1.07-3.17,0.71c-1.01,0.35-1.66,0.75-1.89,1.21
			c-0.8,1.62-0.93,6.03-1.04,9.58c-0.05,1.6-0.09,3.12-0.19,4.21l-6.38,147.55"/>
		
			<path fill="#D84732" stroke="#000000" stroke-width="0.75" stroke-linecap="round" stroke-linejoin="round" stroke-miterlimit="10" d="
			M158.71,310.12c0.29-8.67,1.12-32.94,2.13-59.98c0.03-0.85,0.06-1.69,0.09-2.54c1.66-44.76,3.73-95.98,4.42-96.59
			c0.13-0.13,0.27-0.25,0.41-0.38c0.76-0.69,1.6-1.44,2.85-2.07c0.07-0.23,0.15-0.43,0.25-0.6c0.64-1.21,1.78-1.05,2.69-0.65
			c0.01,0,0.01,0,0.01,0c0.13,0.06,0.26,0.12,0.37,0.18c1.63-0.3,3.68-0.43,6.36-0.28c0.45,0.02,0.87,0.04,1.29,0.05
			c1.39-1.2,2.75-0.62,3.53-0.08c3.1-0.23,5.14-0.88,7.13-1.53c0.43-0.13,0.87-0.27,1.31-0.41c0.12-0.22,0.25-0.42,0.39-0.58
			c0.34-0.43,0.73-0.66,1.11-0.77c0.02,0,0.03-0.01,0.04,0c0.5-0.14,1-0.05,1.43,0.1c0.25,0.09,0.49,0.21,0.68,0.33
			c0.31-0.08,0.6-0.16,0.89-0.24c1.12-0.31,2.08-0.65,2.91-0.94c0.21-0.08,0.42-0.16,0.61-0.23c0.73-0.27,1.37-0.5,1.95-0.67
			c0.01,0,0.02,0,0.02,0c0.03-0.01,0.06-0.02,0.08-0.02c0.36-0.1,0.71-0.17,1.04-0.21c0.35-0.04,0.82-0.02,1.37,0.05c0,0,0,0,0.01,0
			c0.29,0.04,0.54-0.02,0.77-0.2c0.78-0.62,1.08-2.36,1.13-2.97c0.02-0.29,0.27-0.5,0.56-0.48c0.27,0.03,0.49,0.27,0.47,0.56
			c-0.02,0.25-0.21,2.25-1.19,3.38c0.87,0.17,1.86,0.39,2.94,0.63c1.09,0.25,2.26,0.51,3.46,0.75c0.1,0.021,0.16,0.01,0.24-0.05
			c0.54-0.44,0.81-2.27,0.82-3.44c0.01-0.29,0.24-0.52,0.53-0.51c0.28-0.01,0.51,0.24,0.51,0.521c-0.01,0.47-0.08,2.58-0.79,3.74
			c0.1,0.02,0.2,0.04,0.3,0.06c0.64,0.02,1.11-0.14,1.42-0.51c0.66-0.75,0.54-2.24,0.45-2.75c-0.06-0.29,0.13-0.56,0.41-0.61
			s0.55,0.13,0.6,0.41c0.02,0.09,0.44,2.33-0.67,3.63c-0.05,0.06-0.12,0.1-0.17,0.15c1.25,0.15,2.11-0.04,2.54-0.58
			c0.66-0.81,0.28-2.36,0.08-2.88c-0.1-0.27,0.03-0.57,0.3-0.67s0.56,0.03,0.67,0.3c0.04,0.1,0.92,2.45-0.24,3.9
			c-0.71,0.88-1.98,1.2-3.78,0.93c-1.15-0.18-2.3-0.39-3.42-0.62h-0.01c-0.01,0-0.01,0-0.01,0c-1.2-0.25-2.37-0.51-3.46-0.75
			c-2.56-0.58-4.77-1.07-5.73-0.96c-0.28,0.03-0.58,0.09-0.9,0.18c-0.05,0.01-0.1,0.03-0.15,0.04c-0.53,0.16-1.12,0.37-1.79,0.62
			c-0.22,0.08-0.44,0.16-0.68,0.25c-0.04,0.01-0.08,0.03-0.13,0.04c-1.06,0.39-2.3,0.8-3.82,1.18c-0.2,0.21-0.39,0.39-0.58,0.54
			c-1.27,1-2.32,0.71-2.93,0.35c-0.42,0.13-0.84,0.26-1.27,0.4c-2.09,0.67-4.22,1.36-7.52,1.59c-1.85,1.1-2.92,0.59-3.45,0.06
			c-0.44-0.01-0.88-0.02-1.35-0.05c-2.3-0.12-4.09-0.04-5.55,0.18c-1.17,1.56-2.71,1.35-3.57,1.05c-1.18,0.59-1.96,1.29-2.66,1.93
			c-0.13,0.12-0.26,0.23-0.39,0.35c-0.45,0.89-2.42,50.979-4.07,95.229c-0.02,0.57-0.04,1.14-0.06,1.71
			c-0.05,1.49-0.11,2.98-0.16,4.45c-0.95,25.64-1.75,48.37-2.04,56.98"/>
	</g>
</g>
</svg>
