<?xml version="1.0" encoding="utf-8"?>
<!-- Generator: Adobe Illustrator 16.0.0, SVG Export Plug-In . SVG Version: 6.00 Build 0)  -->
<!DOCTYPE svg PUBLIC "-//W3C//DTD SVG 1.1//EN" "http://www.w3.org/Graphics/SVG/1.1/DTD/svg11.dtd">
<svg version="1.1" id="Layer_1" xmlns="http://www.w3.org/2000/svg" xmlns:xlink="http://www.w3.org/1999/xlink" x="0px" y="0px"
	 width="283.809px" height="395.74px" viewBox="0 0 283.809 395.74" enable-background="new 0 0 283.809 395.74"
	 xml:space="preserve">
<g>
	<g>
		<path fill="#FFE3AD" stroke="#000000" stroke-linecap="round" stroke-linejoin="round" stroke-miterlimit="10" d="
			M112.756,103.427c-1.029,0-1.903-0.789-1.991-1.832c-0.675-8.046,6.914-19.117,12.455-27.202c1.513-2.207,2.819-4.113,3.658-5.535
			c4.095-6.939,10.872-22.581,7.215-32.116c-1.302-3.395-3.794-5.63-7.618-6.834c-10.38-3.269-14.63,3.811-19.926,14.987
			c-0.973,2.052-1.979,4.174-3.034,6.086c-4.064,7.355-11.317,9.109-18.332,10.806c-6.402,1.549-12.45,3.012-16.115,8.557
			c-2.032,3.073-0.612,9.883,1.391,12.699c0.64,0.899,0.43,2.148-0.471,2.789c-0.901,0.641-2.149,0.428-2.789-0.471
			c-2.717-3.819-4.639-12.428-1.468-17.224c4.532-6.857,11.639-8.576,18.512-10.238c6.458-1.562,12.558-3.037,15.771-8.853
			c0.996-1.803,1.932-3.775,2.921-5.864c4.572-9.646,10.263-21.653,24.742-17.091c4.993,1.573,8.409,4.674,10.151,9.219
			c4.196,10.938-2.743,27.512-7.504,35.58c-0.908,1.539-2.25,3.497-3.804,5.764c-4.908,7.16-12.325,17.98-11.769,24.606
			c0.092,1.101-0.726,2.067-1.826,2.161C112.868,103.425,112.812,103.427,112.756,103.427z"/>
		<path fill="#FFE3AD" stroke="#000000" stroke-linecap="round" stroke-linejoin="round" stroke-miterlimit="10" d="M231.94,60.666
			c-0.712,0-1.401-0.381-1.763-1.052c-7.137-13.237-18.103-17.282-31.708-11.696c-20.535,8.43-37.702,4.953-47.102-9.542
			c-0.602-0.927-0.337-2.165,0.59-2.767c0.925-0.601,2.164-0.338,2.766,0.59c11.3,17.424,31.308,12.502,42.227,8.02
			c15.562-6.389,28.611-1.596,36.749,13.497c0.523,0.972,0.161,2.186-0.812,2.71C232.586,60.587,232.261,60.666,231.94,60.666z"/>
		<path fill="#FFE3AD" stroke="#000000" stroke-linecap="round" stroke-linejoin="round" stroke-miterlimit="10" d="M22.744,85.096
			c-0.956,0-1.802-0.688-1.969-1.661c-1.819-10.563,13.124-17.979,20.22-19.738c6.724-1.668,15.043-1.129,21.188,1.375
			c0.918,0.374,1.79,0.736,2.627,1.082c7.044,2.924,11.294,4.687,19.71,3.867c18.546-1.81,24.498-21.094,27.875-39.721
			c0.202-1.117,0.396-2.355,0.603-3.67c1.248-7.946,2.956-18.83,9.644-23.198c3.046-1.989,6.773-2.421,11.076-1.287
			c10.191,2.688,9.963,12.585,9.779,20.536c-0.088,3.778-0.17,7.347,0.683,9.967c0.341,1.051-0.233,2.18-1.284,2.521
			c-1.053,0.343-2.179-0.234-2.521-1.283c-1.063-3.27-0.973-7.168-0.877-11.297c0.211-9.143-0.142-14.82-6.8-16.576
			c-3.211-0.848-5.782-0.596-7.869,0.768c-5.199,3.396-6.748,13.265-7.879,20.471c-0.212,1.348-0.411,2.617-0.619,3.764
			c-3.644,20.096-10.226,40.918-31.422,42.987c-9.408,0.917-14.272-1.101-21.632-4.153c-0.828-0.344-1.692-0.702-2.603-1.072
			c-5.33-2.172-12.852-2.654-18.717-1.198c-6.432,1.596-18.497,7.881-17.241,15.178c0.188,1.089-0.543,2.123-1.632,2.311
			C22.971,85.086,22.856,85.096,22.744,85.096z"/>
		<path fill="#FFE3AD" stroke="#000000" stroke-linecap="round" stroke-linejoin="round" stroke-miterlimit="10" d="M20.201,109.527
			c-0.004,0-0.007,0-0.011,0c-1.104-0.006-1.995-0.906-1.989-2.011c0.053-9.616,3.418-11.077,10.123-13.986l1.379-0.601
			c3.185-1.399,6.506-2.45,9.717-3.467c4.211-1.332,8.188-2.59,11.918-4.57c2.353-1.249,4.823-2.311,7.212-3.336
			c6.059-2.601,11.78-5.058,15.482-10.303c5.398-7.648,3.737-16.689,1.979-26.261l-0.493-2.678c-1.566-8.4-4.482-24.038,3.601-29.49
			c3.18-2.146,7.271-2.642,11.832-1.433c8.36,2.215,16.422,9.422,19.097,14.829c0.489,0.989,0.084,2.189-0.906,2.679
			c-0.994,0.49-2.19,0.084-2.68-0.905c-2.25-4.548-9.594-10.897-16.535-12.736c-3.462-0.917-6.343-0.619-8.571,0.883
			c-5.906,3.983-3.203,18.476-1.904,25.44l0.495,2.688c1.83,9.964,3.722,20.268-2.646,29.29c-4.354,6.168-10.87,8.967-17.172,11.672
			c-2.314,0.994-4.708,2.021-6.915,3.193c-4.052,2.15-8.39,3.523-12.586,4.852c-3.11,0.984-6.327,2.002-9.314,3.314l-1.396,0.607
			c-6.354,2.758-7.677,3.332-7.715,10.34C22.195,108.639,21.301,109.527,20.201,109.527z"/>
		<path fill="#FFE3AD" stroke="#000000" stroke-linecap="round" stroke-linejoin="round" stroke-miterlimit="10" d="M140.539,70.701
			c-0.042,0-0.083,0-0.125-0.004c-1.103-0.067-1.941-1.017-1.873-2.119c0.302-4.879,3.339-9.057,6.276-13.097
			c1.713-2.354,3.33-4.579,4.236-6.729c2.508-5.953,2.597-12.014,2.689-18.432c0.04-2.717,0.08-5.525,0.315-8.354
			c0.479-5.763,1.923-13.554,6.077-17.942c2.626-2.774,5.93-3.999,9.064-3.356c2.996,0.613,5.438,2.92,6.701,6.33
			c1.261,3.409,0.923,7.166,0.596,10.799c-0.43,4.773-0.801,8.896,2.138,11.742c3.194,3.089,6.69,2.074,12.071,0.036
			c1.407-0.533,2.862-1.085,4.299-1.479c7.705-2.115,13.067,0.283,18.754,4.537c0.885,0.662,1.064,1.915,0.403,2.799
			c-0.66,0.885-1.914,1.066-2.8,0.404c-4.881-3.652-9.146-5.576-15.297-3.883c-1.256,0.344-2.561,0.839-3.941,1.362
			c-4.908,1.861-11.02,4.179-16.271-0.901c-4.312-4.176-3.795-9.914-3.339-14.977c0.3-3.338,0.584-6.489-0.364-9.051
			c-0.783-2.115-2.115-3.465-3.751-3.801c-1.748-0.357-3.703,0.439-5.358,2.188c-2.618,2.768-4.393,8.281-4.995,15.525
			c-0.224,2.691-0.264,5.431-0.302,8.08c-0.095,6.518-0.193,13.256-3.004,19.926c-1.085,2.576-2.916,5.094-4.687,7.529
			c-2.601,3.576-5.29,7.275-5.52,10.991C142.468,69.884,141.587,70.701,140.539,70.701z"/>
		<g>
			<path fill="#FFE3AD" stroke="#000000" stroke-linecap="round" stroke-linejoin="round" stroke-miterlimit="10" d="
				M111.321,74.227c-1.848-9.655-3.308-17.28-10.786-24.925c-7.139-7.295-14.951-12.361-23.221-15.057
				c-4.696-1.531-8.181-2.323-13.609,0.508c-2.86,1.49-5.479,3.82-7.784,6.924c-1.229,1.654-1.901,3.468-2.552,5.221
				c-0.481,1.301-0.938,2.529-1.592,3.621c-0.649,1.082-1.395,2.107-2.185,3.193c-0.719,0.989-1.462,2.012-2.138,3.096
				c-1.294,2.072-2.705,4.139-4.07,6.137c-1.847,2.703-3.757,5.5-5.455,8.42c-2.307,3.965-3.39,8.529-3.312,13.954
				c0.077,5.198,2.203,9.231,4.259,13.132c0.607,1.15,1.235,2.342,1.805,3.552c0.471,1.001,1.668,1.427,2.661,0.958
				c1-0.471,1.429-1.662,0.958-2.662c-0.608-1.292-1.258-2.523-1.885-3.713c-2.005-3.803-3.735-7.086-3.798-11.324
				c-0.068-4.678,0.838-8.565,2.769-11.886c1.626-2.795,3.494-5.529,5.301-8.175c1.388-2.031,2.823-4.132,4.161-6.274
				c0.602-0.964,1.271-1.886,1.98-2.862c0.806-1.107,1.639-2.254,2.378-3.488c0.847-1.41,1.389-2.873,1.913-4.287
				c0.578-1.559,1.123-3.03,2.012-4.227c1.941-2.613,4.103-4.553,6.423-5.762c3.951-2.059,6.131-1.683,10.52-0.252
				c7.651,2.494,14.919,7.222,21.602,14.053c6.636,6.781,7.929,13.533,9.718,22.879c1.954,10.202,7.092,18.262,11.858,24.799
				c10.426,14.299,13.536,26.382,10.402,40.402c-0.616,2.756-1.357,5.573-2.075,8.297c-0.721,2.736-1.445,5.498-2.07,8.281
				c-0.35-1.161-0.72-2.322-1.113-3.482c-3.549-10.463-8.89-18.909-14.056-27.078c-4.506-7.123-3.344-14.159-1.999-22.305
				c0.411-2.493,0.837-5.07,1.113-7.754c1.286-12.485-4.616-16.072-9.794-16.883c-2.051-0.32-3.952-0.02-5.729,0.554
				c-0.02,0.007-0.039,0.009-0.059,0.017c-0.011,0.004-0.021,0.011-0.031,0.016c-1.682,0.552-3.252,1.341-4.728,2.088
				c-1.712,0.867-3.328,1.686-4.936,2.076c-1.106,0.268-2.141,0.479-3.118,0.677c-4.469,0.909-8.328,1.694-12.48,6.671
				c-2.52,3.021-8.422,10.096-4.55,19.096c0.436,1.014,1.614,1.482,2.627,1.047c1.015-0.438,1.483-1.613,1.047-2.629
				c-2.549-5.925,0.391-10.688,3.948-14.951c1.912-2.293,3.658-3.429,5.622-4.151c-0.781,1.487-1.373,3.199-1.749,5.103
				c-1.199,6.072,0.133,12.707,3.238,16.134c0.396,0.437,0.938,0.657,1.483,0.657c0.479,0,0.959-0.171,1.342-0.518
				c0.818-0.742,0.881-2.007,0.14-2.825c-2.274-2.51-3.233-7.84-2.279-12.673c0.721-3.646,2.439-6.375,4.722-7.533
				c0.315-0.071,0.624-0.137,0.951-0.217c1.2-0.291,2.343-0.746,3.455-1.256c-0.094,0.229-0.188,0.442-0.281,0.682
				c-2.085,5.409-1.756,10.615,0.929,14.66c0.385,0.58,1.021,0.894,1.668,0.894c0.38,0,0.764-0.108,1.104-0.333
				c0.92-0.611,1.171-1.853,0.56-2.773c-2.627-3.957-1.459-8.596-0.528-11.008c1.548-4.016,2.819-4.959,3.22-5.168
				c1.254-0.394,2.508-0.584,3.794-0.382c3.264,0.511,7.48,2.364,6.435,12.521c-0.265,2.563-0.68,5.078-1.082,7.512
				c-1.416,8.58-2.754,16.684,2.565,25.096c5.041,7.971,10.253,16.213,13.648,26.225c1.375,4.053,2.469,8.118,3.297,12.139
				c-0.378,4.6-0.153,9.249,1.15,13.938c0.114,0.412,0.358,0.748,0.665,1c0.248,7.444-0.555,14.433-2.462,20.514
				c-1.731,5.521-4.364,10.745-6.91,15.797c-4.403,8.74-8.957,17.776-9.031,28.639c-0.008,1.105,0.882,2.006,1.986,2.014
				c0.005,0,0.009,0,0.014,0c1.099,0,1.992-0.887,2-1.986c0.067-9.926,4.214-18.154,8.604-26.865
				c2.618-5.195,5.325-10.568,7.154-16.4c3.298-10.52,3.544-23.504,0.854-36.938c0.526-5.545,1.998-11.141,3.519-16.914
				c0.727-2.76,1.479-5.613,2.111-8.444c3.365-15.056-0.051-28.511-11.074-43.63C117.978,91.243,113.128,83.654,111.321,74.227z"/>
			<path fill="#FFE3AD" stroke="#000000" stroke-linecap="round" stroke-linejoin="round" stroke-miterlimit="10" d="M161.54,75.991
				c-6.54-1.435-11.505,3.185-14.676,6.782c-2.417,2.744-3.993,5.967-4.96,10.139l-0.097,0.418
				c-0.573,2.473-1.165,5.029-1.906,7.347c-0.921,2.884-0.391,6.171,0.035,8.813l0.018,0.108c0.614,3.81,2.081,7.534,3.499,11.134
				c0.561,1.422,1.089,2.764,1.559,4.092c0.291,0.82,1.063,1.332,1.886,1.332c0.222,0,0.447-0.037,0.668-0.115
				c1.041-0.368,1.586-1.512,1.218-2.553c-0.494-1.393-1.061-2.831-1.608-4.221c-1.34-3.404-2.727-6.922-3.271-10.306l-0.018-0.109
				c-0.377-2.337-0.805-4.985-0.174-6.958c0.791-2.473,1.401-5.11,1.992-7.662l0.097-0.418c0.822-3.549,2.076-6.139,4.065-8.396
				c4.03-4.575,7.367-6.276,10.816-5.52c4.141,0.909,4.578,2.141,5.105,4.617c0.635,2.988,0.374,7.049-1.359,8.684
				c-0.803,0.758-0.84,2.024-0.082,2.828c0.759,0.803,2.024,0.839,2.828,0.082c3.396-3.205,3.186-9.318,2.525-12.426
				C168.866,79.763,167.264,77.248,161.54,75.991z"/>
			<path fill="#FFE3AD" stroke="#000000" stroke-linecap="round" stroke-linejoin="round" stroke-miterlimit="10" d="
				M230.557,95.421c-1.415-4.268-4.002-7.47-7.285-9.016c-4.942-2.327-10.475-2.677-15.825-3.016
				c-1.938-0.122-3.77-0.238-5.547-0.444c-4.971-0.577-10.058-2.268-14.712-4.89c-2.308-1.299-4.464-2.804-6.407-4.47
				c-0.773-0.663-1.521-1.347-2.264-2.024c-2.664-2.433-5.42-4.947-9.182-6.46l-0.2-0.081c-3.452-1.387-7.372-2.959-11.347-2.609
				c-4.666,0.41-8.234,1.928-10.605,4.512c-1.143,1.246-1.949,2.693-2.729,4.093c-0.508,0.913-0.988,1.774-1.529,2.523
				c-0.391,0.54-0.762,1.14-1.121,1.722c-0.791,1.277-1.609,2.6-2.531,3.166c-0.94,0.58-1.233,1.813-0.654,2.752
				c0.579,0.941,1.81,1.232,2.752,0.654c1.728-1.063,2.847-2.872,3.834-4.468c0.338-0.544,0.656-1.06,0.963-1.483
				c0.679-0.939,1.239-1.946,1.781-2.92c0.698-1.252,1.357-2.436,2.182-3.334c1.698-1.851,4.317-2.908,8.008-3.232
				c3.042-0.268,6.47,1.117,9.504,2.337l0.201,0.081c2.221,0.893,4.069,2.264,5.866,3.814l0,0c2.16,1.938,5.002,7.127,3.977,13.48
				c-0.765,4.738-3.428,10.172-6.476,13.213c-0.782,0.781-0.784,2.047-0.004,2.829c0.391,0.392,0.903,0.587,1.416,0.587
				c0.511,0,1.022-0.194,1.412-0.584c3.646-3.637,6.7-9.828,7.601-15.408c0.432-2.678,0.303-5.25-0.191-7.591
				c1.211,0.851,2.474,1.65,3.781,2.388c5.113,2.88,10.72,4.739,16.214,5.377c1.882,0.219,3.851,0.343,5.756,0.463
				c4.976,0.314,10.121,0.641,14.374,2.643c2.281,1.074,4.125,3.438,5.192,6.656c1.403,4.233,1.202,9.223-0.503,12.416
				c-0.52,0.975-0.151,2.186,0.823,2.706c0.3,0.16,0.622,0.236,0.939,0.236c0.715,0,1.406-0.384,1.767-1.059
				C232.009,106.818,232.311,100.711,230.557,95.421z"/>
		</g>
		<path fill="#FFE3AD" stroke="#000000" stroke-linecap="round" stroke-linejoin="round" stroke-miterlimit="10" d="
			M132.012,238.035c-0.655,0-1.297-0.322-1.681-0.912c-3.43-5.292,1.036-13.098,2.942-16.432c2.1-3.67,4.525-7.232,6.871-10.678
			c2.063-3.031,4.197-6.165,6.08-9.334c0.852-1.432,1.747-2.852,2.694-4.354c4.111-6.518,8.362-13.256,8.423-20.286
			c0.097-11.234-4.206-21.541-12.786-30.633c-7.009-7.425-11.861-14.511-14.423-21.06c-2.389-6.105-1.07-13.229,0.534-19.391
			c1.832-7.035,4.877-12.912,8.102-19.134l1.22-2.36c5.267-10.252,4.756-17.889,2.094-27.617
			c-5.25-19.186-4.339-31.807,2.783-38.584c5.855-5.572,15.258-8.9,23.93-8.496c6.973,0.329,13.004,3.031,16.983,7.607
			c4.801,5.521,7.358,12.684,7.82,21.895c0.314,6.277-0.958,11.129-2.306,16.266c-0.362,1.379-0.735,2.801-1.094,4.306
			c-1.019,4.284,0.228,7.633,1.671,11.51c0.643,1.726,1.307,3.511,1.83,5.507c1.143,4.359,2.277,9.976,0.895,14.751
			c-1.452,5.014-5.022,7.886-8.475,10.663c-1.321,1.064-2.569,2.068-3.706,3.189c-0.786,0.774-2.052,0.767-2.828-0.02
			c-0.775-0.786-0.768-2.053,0.02-2.828c1.279-1.264,2.666-2.379,4.007-3.457c3.106-2.5,6.039-4.859,7.141-8.66
			c1.11-3.836,0.091-8.762-0.922-12.624c-0.473-1.804-1.102-3.493-1.71-5.126c-1.53-4.112-3.113-8.364-1.813-13.831
			c0.365-1.536,0.745-2.987,1.115-4.395c1.322-5.039,2.464-9.391,2.181-15.05c-0.416-8.283-2.654-14.652-6.845-19.471
			c-4.173-4.799-10-6.041-14.154-6.237c-7.631-0.353-15.879,2.543-20.982,7.399c-5.875,5.59-6.44,17.24-1.684,34.63
			c2.849,10.409,3.442,19.142-2.393,30.5l-1.227,2.374c-3.118,6.016-6.063,11.699-7.782,18.301
			c-1.516,5.82-2.647,11.899-0.681,16.926c2.375,6.068,6.952,12.721,13.606,19.771c9.314,9.868,13.983,21.109,13.878,33.412
			c-0.07,8.168-4.836,15.722-9.039,22.386c-0.934,1.479-1.815,2.877-2.639,4.263c-1.946,3.275-4.115,6.461-6.213,9.542
			c-2.303,3.382-4.684,6.879-6.705,10.413c-1.412,2.469-5.162,9.023-3.058,12.27c0.601,0.926,0.336,2.165-0.591,2.766
			C132.762,237.93,132.385,238.035,132.012,238.035z"/>
		<path fill="#FFE3AD" stroke="#000000" stroke-linecap="round" stroke-linejoin="round" stroke-miterlimit="10" d="
			M130.244,300.785c-0.526,0-1.053-0.207-1.445-0.618c-13.891-14.521-13.388-36.164-11.851-47.773
			c0.317-2.406,0.712-4.835,1.094-7.185c0.542-3.333,1.102-6.779,1.438-10.151c1.187-11.881,0.861-21.444-1.024-30.099
			c-1.374-6.306-3.307-12.736-5.176-18.956c-5.634-18.746-11.46-38.13-3.591-58.139c1.579-4.016,3.474-7.929,5.306-11.712
			c1.862-3.848,3.788-7.824,5.345-11.846c3.181-8.215,5.218-18.04,5.736-27.667c0.033-0.613,0.07-1.242,0.109-1.884
			c0.479-8,1.023-17.067-5.56-21.316c-5.719-3.691-13.912-2.871-19.578-1.932c-6.992,1.16-12.975,0.746-20.642-1.424l-1.649-0.471
			c-6.771-1.945-12.618-3.623-19.096-1.418c-8.007,2.729-14.637,7.646-20.064,12.098c-3.789,3.106-5.33,8.642-6.432,14.16
			c-1.929,9.675-0.717,20.253,3.414,29.786c0.439,1.014-0.026,2.191-1.04,2.63c-1.013,0.439-2.19-0.025-2.63-1.039
			c-4.451-10.273-5.754-21.693-3.666-32.159c1.246-6.248,3.056-12.567,7.816-16.472c5.706-4.678,12.7-9.855,21.313-12.79
			c7.662-2.611,14.692-0.593,21.489,1.358l1.635,0.468c7.057,1.997,12.531,2.38,18.897,1.326c6.321-1.048,15.519-1.926,22.402,2.517
			c8.546,5.518,7.873,16.73,7.382,24.918c-0.037,0.633-0.075,1.253-0.107,1.858c-0.54,10.037-2.671,20.3-6,28.896
			c-1.615,4.173-3.577,8.226-5.475,12.144c-1.8,3.717-3.66,7.561-5.184,11.434c-7.362,18.719-1.989,36.597,3.699,55.523
			c1.891,6.293,3.846,12.799,5.253,19.256c1.978,9.076,2.326,19.037,1.097,31.348c-0.35,3.495-0.92,7.003-1.471,10.395
			c-0.377,2.321-0.767,4.721-1.077,7.068c-1.442,10.898-1.96,31.17,10.776,44.484c0.764,0.798,0.735,2.064-0.063,2.828
			C131.239,300.6,130.741,300.785,130.244,300.785z"/>
		<path fill="#FFE3AD" stroke="#000000" stroke-linecap="round" stroke-linejoin="round" stroke-miterlimit="10" d="
			M102.127,215.545c-1.08,0-1.97-0.86-1.998-1.947c-0.133-4.993,0.12-11.281,3.269-15.615c2.399-3.304,5.671-6.031,8.834-8.669
			c1.457-1.215,2.834-2.363,4.116-3.553c3.819-3.545,6.176-7.846,7.201-13.146c1.116-5.765,1.078-11.899-0.104-16.832
			c-0.442-1.849-0.969-3.653-1.479-5.399c-0.999-3.42-2.032-6.957-2.45-10.902c-0.623-5.879-0.085-11.832,0.435-17.591
			c0.2-2.214,0.407-4.504,0.539-6.72c0.354-5.971,1.055-12.105,1.731-18.037c1.846-16.168,3.755-32.887-1.01-48.5l-0.457-1.516
			c-2.143-7.141-4.81-16.025-11.914-18.109c-5.729-1.68-15.642-1.195-21.218,1.035c-5.824,2.331-12.103,6.942-16.386,12.033
			c-2.554,3.036-3.633,6.934-4.776,11.06c-0.181,0.653-0.361,1.306-0.548,1.952c-1.786,6.206-3.474,12.068-7.714,17.486
			c-1.243,1.588-2.558,3.094-3.829,4.551c-2.519,2.883-4.896,5.606-6.717,8.875c-3.686,6.619-3.692,18.176-0.014,24.246
			c0.573,0.945,0.271,2.174-0.674,2.747c-0.941,0.571-2.174,0.271-2.746-0.674c-4.464-7.364-4.491-20.309-0.061-28.266
			c2.024-3.636,4.654-6.647,7.197-9.56c1.237-1.417,2.517-2.881,3.692-4.385c3.762-4.807,5.345-10.306,7.021-16.129
			c0.183-0.633,0.359-1.271,0.537-1.913c1.207-4.357,2.455-8.863,5.57-12.565c4.751-5.648,11.465-10.573,17.96-13.172
			c6.48-2.594,17.169-3.113,23.829-1.16c9.187,2.694,12.327,13.157,14.62,20.797l0.452,1.498
			c5.007,16.408,3.051,33.547,1.158,50.121c-0.671,5.88-1.365,11.959-1.714,17.821c-0.135,2.277-0.345,4.599-0.547,6.843
			c-0.503,5.565-1.022,11.32-0.44,16.809c0.38,3.59,1.317,6.803,2.311,10.203c0.523,1.793,1.065,3.646,1.53,5.59
			c1.31,5.467,1.36,12.218,0.141,18.522c-1.193,6.164-3.943,11.175-8.408,15.317c-1.359,1.263-2.842,2.498-4.275,3.693
			c-2.976,2.48-6.052,5.047-8.159,7.947c-2.441,3.36-2.622,8.798-2.507,13.159c0.029,1.104-0.842,2.022-1.946,2.052
			C102.163,215.545,102.145,215.545,102.127,215.545z"/>
		<path fill="#FFE3AD" stroke="#000000" stroke-linecap="round" stroke-linejoin="round" stroke-miterlimit="10" d="
			M133.306,247.425c-1.027,0-1.9-0.787-1.99-1.828c-0.446-5.154,2.458-9.098,5.02-12.578c0.371-0.504,0.742-1.008,1.102-1.514
			l0.277-0.389c4.285-6.023,8.334-11.713,10.628-18.588c4.179-12.518,3.318-25.779-2.707-41.733
			c-0.706-1.868-1.448-3.753-2.197-5.653c-4.454-11.304-9.061-22.994-7.82-35.383c0.443-4.428,1.331-8.701,2.19-12.834
			c1.634-7.859,3.177-15.282,1.771-23.392l-0.141-0.812c-1.28-7.38-2.604-15.012-2.924-22.785
			c-0.501-12.159,3.977-21.945,14.521-31.729c8.689-8.065,22.168-5.809,31.015-0.296c2.229,1.39,4.116,3.046,5.941,4.647
			c2.685,2.357,5.221,4.584,8.59,5.744c7.662,2.637,16.299,5.608,22.244,11.915c3.348,3.55,5.538,7.849,6.011,11.793
			c0.371,3.094,0.937,8.96,0.56,13.489c-0.267,3.209-1.165,6.106-2.034,8.908c-0.995,3.212-1.936,6.245-1.932,9.622
			c0.001,1.104-0.893,2.001-1.997,2.003c-0.001,0-0.002,0-0.003,0c-1.104,0-1.999-0.895-2-1.998
			c-0.005-3.984,1.071-7.455,2.111-10.812c0.843-2.716,1.638-5.282,1.868-8.056c0.348-4.178-0.191-9.738-0.544-12.682
			c-0.368-3.066-2.219-6.627-4.95-9.524c-5.27-5.589-13.06-8.271-20.594-10.862c-4.156-1.432-7.111-4.025-9.97-6.535
			c-1.782-1.564-3.465-3.043-5.417-4.259c-7.595-4.731-19.025-6.804-26.179-0.167c-9.738,9.037-13.699,17.6-13.245,28.632
			c0.31,7.513,1.553,14.679,2.869,22.267l0.141,0.813c1.535,8.859-0.159,17.008-1.797,24.889c-0.838,4.031-1.704,8.2-2.126,12.418
			c-1.144,11.426,3.282,22.657,7.562,33.519c0.756,1.917,1.505,3.819,2.218,5.706c6.368,16.861,7.245,30.975,2.76,44.414
			c-2.484,7.441-6.896,13.643-11.164,19.64l-0.276,0.388c-0.372,0.523-0.756,1.045-1.141,1.567
			c-2.351,3.193-4.571,6.209-4.256,9.861c0.096,1.101-0.72,2.069-1.82,2.165C133.421,247.422,133.363,247.425,133.306,247.425z"/>
		<path fill="#FFE3AD" stroke="#000000" stroke-linecap="round" stroke-linejoin="round" stroke-miterlimit="10" d="M95.914,248.003
			c-0.557,0-1.109-0.23-1.505-0.682c-0.729-0.831-0.646-2.095,0.186-2.822c2.036-1.785,3.635-5.1,4.074-8.445
			c0.22-1.67,0.019-3.529-0.194-5.496c-0.297-2.75-0.604-5.594,0.188-8.366c1.449-5.073,1.805-9.155,1.228-14.086
			c-0.986-8.431-0.336-15.852,2.176-24.815c1.157-4.129,2.786-8.027,4.36-11.797c1.823-4.363,3.546-8.484,4.619-12.972
			c2.147-8.973,3.313-19.448,3.044-27.337c-0.153-4.5-0.902-9.086-1.626-13.521c-0.816-5.003-1.661-10.176-1.705-15.411
			c-0.028-3.384,0.268-7.04,0.553-10.575c0.552-6.822,1.122-13.876-0.478-19.748c-0.886-3.252-2.539-5.32-5.053-6.322
			c-4.134-1.645-12.906-1.273-31.213,9.87C66.503,80.386,57.84,90.036,56.885,98.98c-0.489,4.57,1.08,8.613,4.661,12.016
			c0.802,0.761,0.834,2.027,0.073,2.828c-0.762,0.802-2.027,0.832-2.827,0.072c-4.469-4.244-6.504-9.549-5.885-15.341
			c1.144-10.711,10.952-21.242,19.58-26.495c16.051-9.77,27.429-13.097,34.772-10.168c3.71,1.477,6.211,4.501,7.433,8.986
			c1.783,6.547,1.185,13.956,0.605,21.121c-0.291,3.606-0.566,7.014-0.54,10.22c0.041,4.927,0.86,9.946,1.652,14.8
			c0.745,4.559,1.515,9.273,1.677,14.029c0.285,8.348-0.894,18.967-3.151,28.404c-1.148,4.801-3.015,9.266-4.818,13.584
			c-1.528,3.658-3.109,7.439-4.2,11.334c-2.394,8.543-2.988,15.285-2.055,23.271c0.635,5.423,0.229,10.103-1.354,15.649
			c-0.577,2.021-0.324,4.36-0.056,6.837c0.229,2.115,0.465,4.303,0.184,6.447c-0.567,4.318-2.639,8.507-5.404,10.933
			C96.852,247.839,96.382,248.003,95.914,248.003z"/>
		<path fill="#FFE3AD" stroke="#000000" stroke-linecap="round" stroke-linejoin="round" stroke-miterlimit="10" d="M239.089,91.949
			c-0.028-0.395-0.058-0.77-0.058-1.098c0-0.533,0.004-1.07,0.008-1.611c0.033-4.789,0.067-9.74-2.165-14.32
			c-3.103-6.367-9.521-8.053-15.185-9.539l-0.979-0.258c-0.81-0.215-1.642-0.359-2.445-0.499c-1.876-0.325-3.648-0.632-4.625-1.755
			c-1.379-1.586-2.69-4.391-3.671-6.489c-0.872-1.864-1.542-3.794-2.116-5.779c-0.686-4.593-1.903-9.034-2.928-12.009
			c-2.675-10.146-7.996-15.812-18.922-20.148c-10.501-4.168-21.62-2.706-31.313,4.111c-7.822,5.503-14.221,14.385-19.866,22.221
			c-0.633,0.879-1.257,1.744-1.872,2.591c-4.901,6.743-10.208,14.642-11.125,23.04c-1.223,11.188,4.324,20.213,9.688,28.941
			c1.105,1.799,2.249,3.66,3.291,5.481c0.692,1.21,1.398,2.412,2.104,3.614c1.86,3.172,3.784,6.451,5.393,9.777
			c1.375,2.842,1.934,5.852,2.525,9.039c0.137,0.734,0.274,1.473,0.422,2.218c1.605,8.063,0.878,18.346-1.854,26.194
			c-0.653,1.877-1.492,3.672-2.38,5.571c-1.194,2.558-2.43,5.2-3.182,8.075c-1.759,6.721,0.344,15.256,5.357,21.742
			c2.078,2.688,4.732,5.153,7.3,7.537c4.502,4.18,9.157,8.502,10.61,13.989c2.006,7.565-1.655,13.32-12.243,19.241
			c-0.694,0.389-1.545,0.822-2.487,1.303c-6.208,3.168-17.765,9.067-13.66,18.026c0.337,0.734,1.062,1.167,1.819,1.167
			c0.279,0,0.563-0.059,0.832-0.182c1.004-0.46,1.445-1.646,0.985-2.651c-2.314-5.051,4.581-9.092,11.842-12.798
			c0.993-0.507,1.89-0.965,2.622-1.375c8.294-4.638,17.398-11.529,14.157-23.756c-1.75-6.605-6.837-11.328-11.756-15.896
			c-2.562-2.377-4.98-4.624-6.857-7.053c-4.282-5.541-6.108-12.717-4.652-18.283c0.66-2.521,1.766-4.889,2.937-7.394
			c0.892-1.907,1.813-3.88,2.533-5.95c2.994-8.604,3.761-19.443,2-28.29c-0.146-0.728-0.279-1.45-0.412-2.167
			c-0.614-3.307-1.249-6.727-2.857-10.05c-1.679-3.471-3.645-6.82-5.545-10.06c-0.698-1.19-1.396-2.381-2.082-3.578
			c-1.073-1.875-2.233-3.764-3.355-5.589c-5.241-8.53-10.192-16.587-9.119-26.413c0.811-7.422,5.785-14.794,10.385-21.122
			c0.618-0.851,1.245-1.721,1.882-2.604c5.46-7.58,11.649-16.172,18.921-21.287c8.679-6.104,18.2-7.371,27.536-3.665
			c9.773,3.88,14.27,8.664,16.589,17.653c0.412,1.598,0.788,3.258,1.151,4.861c0.499,2.203,1.008,4.441,1.64,6.671
			c0.601,4.087,0.733,8.13-0.143,10.938c-2.64,8.473-4.266,15.348-4.221,23.426c0.031,5.537,1.042,18.596,9.727,20.283
			c0.129,0.025,0.258,0.037,0.384,0.037c0.938,0,1.775-0.663,1.961-1.619c0.211-1.084-0.497-2.133-1.581-2.344
			c-6.096-1.186-6.476-13.852-6.49-16.379c-0.042-7.563,1.515-14.107,4.039-22.215c0.191-0.614,0.333-1.273,0.453-1.952
			c0.764,1.44,1.628,2.87,2.587,3.972c1.909,2.196,4.593,2.661,6.959,3.071c0.752,0.13,1.462,0.253,2.102,0.423l0.99,0.262
			c5.3,1.392,10.307,2.706,12.604,7.422c1.821,3.737,1.791,8.213,1.761,12.541c-0.004,0.549-0.008,1.096-0.008,1.637
			c0,0.414,0.031,0.888,0.067,1.387c0.052,0.719,0.159,2.215-0.102,2.555c-0.709,0.848-0.596,2.109,0.251,2.817
			c0.85,0.708,2.109,0.597,2.817-0.251C239.366,95.802,239.212,93.666,239.089,91.949z"/>
		<path fill="#FFE3AD" stroke="#000000" stroke-linecap="round" stroke-linejoin="round" stroke-miterlimit="10" d="
			M272.568,322.593c-1.824-0.038-3.704,0.146-5.537,0.32c-4.621,0.435-8.981,0.846-12.188-1.758
			c-0.758-0.617-1.366-1.479-2.011-2.393c-0.281-0.398-0.572-0.801-0.879-1.2c-0.33-0.722-0.734-1.374-1.238-1.905
			c-0.373-0.393-0.866-0.598-1.367-0.619c-0.533-0.369-1.096-0.702-1.68-1c1.984-1.627,3.242-4.331,3.749-8.109
			c0.297-2.215,0.064-4.317-0.159-6.351c-0.052-0.47-0.103-0.933-0.146-1.391c2.361-3.864,7.231-4.942,10.936-5.157
			c1.103-0.064,1.944-1.01,1.881-2.112c-0.064-1.103-0.988-1.949-2.113-1.881c-4.248,0.246-7.769,1.327-10.433,3.175
			c1.097-5.93,4.182-13.836,10.279-13.514c1.091,0.05,2.044-0.791,2.1-1.895c0.057-1.104-0.791-2.044-1.895-2.101
			c-4.232-0.221-7.479,1.909-9.856,5.163c-0.523-1.893-1.408-3.875-2.913-5.197c-1.328-1.167-2.968-1.668-4.742-1.453
			c-1.097,0.133-1.877,1.131-1.743,2.227c0.135,1.098,1.136,1.871,2.228,1.744c0.646-0.082,1.144,0.07,1.617,0.486
			c1.489,1.309,2.288,4.785,2.308,7.543c0.002,0.252,0.055,0.49,0.143,0.713c-0.905,2.539-1.501,5.254-1.811,7.857
			c-0.26,2.186-0.033,4.241,0.187,6.23c0.206,1.877,0.402,3.65,0.17,5.381c-0.761,5.674-3.141,6.455-5.369,6.47
			c-0.075,0.001-0.147,0.015-0.222,0.024c-1.245-0.33-2.492-0.57-3.708-0.804c-2.778-0.533-5.402-1.037-7.589-2.526
			c-2.737-1.863-4.694-4.444-6.768-7.178l-0.079-0.104c-5.57-7.344-13.314-12.558-21.654-16.472
			c4.159-0.954,7.716-2.317,10.564-4.068c3.091-1.901,5.613-4.176,7.575-6.804c0.434-0.322,1.012-0.726,1.793-1.231
			c2.752-1.782,6.631-3.249,9.256-2.024c1.001,0.467,2.191,0.034,2.658-0.968c0.467-1,0.034-2.19-0.967-2.657
			c-3.117-1.454-6.596-0.735-9.273,0.322c1.086-3.118,1.625-6.571,1.594-10.36c-0.009-1.099-0.902-1.982-2-1.982
			c-0.005,0-0.011,0-0.017,0c-1.104,0.009-1.992,0.912-1.983,2.016c0.047,5.615-1.261,10.275-3.955,14.08
			c-1.025,0.829-1.715,1.614-2.018,2.435c-1.353,1.394-2.938,2.647-4.759,3.767c-2.668,1.641-6.109,2.911-10.229,3.775
			c-0.628,0.132-1.319,0.185-2.052,0.24c-0.973,0.074-1.978,0.15-2.999,0.42c-0.073,0.02-0.138,0.051-0.207,0.078
			c-7.801-2.969-15.737-5.043-22.615-6.836l-2.115-0.549c-1.358-0.352-2.697-0.698-4.016-1.051c-1.287-1.733-1.743-3.55-1.31-5.258
			c0.505-1.988,2.138-3.695,4.599-4.807c2.914-1.317,6.059-1.688,9.388-2.082c0.264-0.031,0.531-0.064,0.798-0.097
			c0.372,0.062,0.757,0.017,1.114-0.138c1.336-0.173,2.688-0.389,4.039-0.688c0.839,0.105,1.668,0.27,2.329,0.401l0.606,0.12
			c0.672,0.128,1.324,0.268,1.959,0.402c1.886,0.401,3.799,0.809,5.737,0.809c2.402,0,4.842-0.625,7.312-2.664
			c0.852-0.703,0.972-1.963,0.269-2.814c-0.703-0.853-1.962-0.973-2.815-0.27c-2.707,2.234-5.16,1.961-8.625,1.246
			c1.532-1.064,2.757-2.364,3.654-3.898c1.201-2.051,3.945-8.68,0.911-12.127c-0.728-0.828-1.993-0.91-2.822-0.18
			c-0.829,0.729-0.91,1.993-0.18,2.822c0.956,1.087,0.036,5.078-1.361,7.463c-1.272,2.176-3.616,3.719-6.964,4.588
			c-0.08,0.02-0.161,0.034-0.24,0.055c-1.754-0.15-3.607-0.023-5.145,0.87c-0.348,0.042-0.692,0.085-1.046,0.126
			c-3.484,0.412-7.087,0.838-10.564,2.409c-3.594,1.624-6.019,4.275-6.829,7.468c-0.398,1.571-0.355,3.197,0.079,4.789
			c-9.737-2.994-17.882-7.168-22.799-17.43c-4.646-9.698-5.433-21.688-6.192-33.281c-0.163-2.48-0.322-4.918-0.519-7.278
			c-0.042-0.501-0.072-1.003-0.104-1.503c-0.102-1.629-0.207-3.313-0.65-5.004c-0.558-2.129-0.961-4.322-1.232-6.705
			c-0.146-1.291-0.257-2.62-0.34-4.008c1.679-2.557,3.411-5.097,5.245-7.523c2.115-2.799,4.553-5.449,6.91-8.011
			c3.596-3.907,7.314-7.948,10.141-12.747c3.582-6.082,4.726-12.501,5.342-20.266c1.005-12.661-0.998-25.236-2.936-37.398
			c-1.795-11.271-3.651-22.926-3.045-34.459c0.267-5.056,1.056-11.367,4.83-15.323c4.126-4.324,7.798-4.862,14.468-5.509
			c8.821-0.856,17.556,3.148,23.375,10.706c1.345,1.747,2.93,3.286,4.462,4.773c1.739,1.688,3.383,3.284,4.62,5.095
			c1.683,2.461,3.276,6.043,3.876,8.711c0.89,3.955-0.985,7.768-2.97,11.804c-1.034,2.103-2.103,4.275-2.771,6.507
			c-0.316,1.059,0.284,2.173,1.342,2.49c1.057,0.316,2.173-0.284,2.49-1.342c0.573-1.913,1.522-3.846,2.528-5.891
			c2.102-4.271,4.482-9.114,3.283-14.446c-0.709-3.156-2.508-7.211-4.476-10.091c-1.465-2.143-3.331-3.955-5.137-5.707
			c-1.496-1.453-2.909-2.824-4.078-4.344c-6.667-8.656-16.738-13.233-26.93-12.246c-6.242,0.604-11.632,1.126-16.978,6.729
			c-4.681,4.906-5.628,12.129-5.93,17.874c-0.629,11.956,1.262,23.822,3.089,35.298c1.9,11.931,3.865,24.268,2.897,36.453
			c-0.571,7.213-1.607,13.129-4.801,18.553c-2.61,4.432-6.023,8.141-9.637,12.068c-2.422,2.632-4.927,5.354-7.158,8.307
			c-0.758,1.004-1.494,2.025-2.219,3.053c0.006-1.059,0.021-2.152,0.051-3.314c0.176-6.825,2.484-12.712,4.928-18.944
			c0.694-1.771,1.412-3.601,2.087-5.472c0.645-1.789,1.602-3.45,2.615-5.21c1.028-1.786,2.093-3.634,2.86-5.698
			c1.561-4.193,2.511-8.95,2.907-14.582c0.454-6.467,0.924-13.156-1.438-19.496c-0.697-1.872-1.491-3.684-2.259-5.436
			c-1.325-3.023-2.577-5.881-3.364-9.006c-0.804-3.191-0.411-6.023,0.043-9.304c0.143-1.031,0.287-2.081,0.398-3.167
			c0.243-2.359,1.038-4.512,1.88-6.791c0.492-1.332,1.001-2.709,1.418-4.18c1.461-5.163,2.272-10.425,3.057-15.514
			c0.24-1.559,0.481-3.121,0.74-4.686c1.516-9.127,2.024-16.858-0.421-24.926c-2.832-9.346-10.031-25.268-26.429-26.902
			c-8.681-0.861-16.281,4.34-21.963,15.052c-1.822,3.435-3.519,7.036-5.16,10.519c-6.084,12.91-11.831,25.105-24.31,32.019
			c-3.931,2.179-8.4,3.556-12.723,4.887c-1.677,0.517-3.41,1.051-5.104,1.628c-5.287,1.801-14.9,6.088-19.884,14.584
			c-4.577,7.805-4.07,15.795,1.598,25.146c0.571,0.944,1.803,1.247,2.746,0.674c0.945-0.573,1.247-1.802,0.674-2.747
			c-4.89-8.068-5.373-14.561-1.566-21.049C36.9,80.57,45.534,76.75,50.295,75.127c1.639-0.558,3.344-1.083,4.993-1.591
			c4.518-1.393,9.188-2.832,13.484-5.211c13.606-7.539,19.901-20.896,25.988-33.813c1.622-3.44,3.298-6.998,5.075-10.35
			c4.928-9.292,11.009-13.646,18.033-12.945c14.085,1.404,20.454,15.69,22.997,24.082c2.22,7.326,1.727,14.537,0.304,23.111
			c-0.263,1.58-0.506,3.156-0.748,4.73c-0.801,5.197-1.558,10.107-2.952,15.033c-0.375,1.32-0.856,2.623-1.321,3.884
			c-0.892,2.411-1.813,4.905-2.106,7.769c-0.107,1.037-0.246,2.041-0.383,3.027c-0.468,3.384-0.952,6.883,0.041,10.828
			c0.868,3.448,2.247,6.594,3.58,9.635c0.745,1.701,1.516,3.46,2.174,5.226c2.059,5.528,1.62,11.778,1.192,17.861
			c-0.366,5.204-1.237,9.595-2.662,13.426c-0.652,1.753-1.588,3.378-2.579,5.098c-1.056,1.833-2.146,3.728-2.912,5.85
			c-0.655,1.818-1.363,3.623-2.047,5.368c-2.576,6.568-5.009,12.773-5.202,20.301c-0.09,3.477-0.073,6.468,0.05,9.209
			c-1.026,1.58-2.039,3.159-3.031,4.721c-0.605,0.953-1.212,1.906-1.822,2.859c-2.845,4.443-5.09,9.263-7.261,13.924
			c-1.565,3.359-3.184,6.834-4.99,10.074c-4.183,7.494-8.268,12.787-12.857,16.654c-3.735,3.149-8.647,6.221-14.601,9.131
			c-5.559,2.716-11.329,3.281-17.755,3.697c-4.004,0.26-8.217,0.049-12.292-0.155c-3.688-0.185-7.432-0.37-11.16-0.23
			c-0.005,0-0.011-0.001-0.016-0.001c-4.384,0-9.325-2.158-12.136-5.127c-0.272-0.412-0.696-0.959-1.218-1.543
			c-1.038-1.641-1.233-3.195-0.576-4.621c0.463-1.002,0.025-2.191-0.978-2.654c-1.001-0.461-2.19-0.025-2.653,0.979
			c-0.46,0.996-0.705,2.04-0.741,3.102c-2.496-0.619-4.838-0.412-7.252,0.658c-1.01,0.447-1.466,1.629-1.018,2.639
			c0.446,1.01,1.628,1.465,2.639,1.019c1.966-0.872,3.721-0.89,5.833-0.078c0.318,0.159,0.984,0.776,1.585,1.419
			c0.396,0.584,0.849,1.148,1.354,1.691c0.039,0.043,0.078,0.085,0.12,0.123c1.396,1.467,3.156,2.76,5.114,3.793
			c-1.565,0.424-3.118,0.961-4.651,1.641c-6.91,3.061-12.851,7.525-17.18,12.914c-2.435,3.031-4.236,6.242-5.355,9.543
			c-0.615,1.813-1.015,3.63-1.186,5.4c-0.055,0.575-0.173,1.17-0.297,1.801c-0.183,0.924-0.372,1.879-0.404,2.94
			c-0.054,1.792,0.139,3.538,0.569,5.192c1.348,5.164,5.577,10.523,10.525,13.336c2.699,1.533,5.553,2.416,8.243,3.188
			c3.172,0.91,6.299,2.086,9.839,3.702c2.884,1.315,6.053,3.046,7.697,5.901c1.176,2.04,1.12,4.331,0.937,6.898
			c-0.078,1.102,0.751,2.059,1.853,2.137c0.049,0.004,0.097,0.006,0.145,0.006c1.04,0,1.918-0.805,1.993-1.858
			c0.222-3.116,0.277-6.163-1.46-9.179c-2.208-3.835-6.043-5.966-9.504-7.545c-1.442-0.658-2.811-1.229-4.154-1.76
			c4.802-1.493,9.969-5.803,10.91-11.008c0.197-1.088-0.524-2.128-1.611-2.324c-1.096-0.193-2.128,0.525-2.324,1.611
			c-0.682,3.765-5.128,7.223-8.853,8.09c-2.457,0.571-5.788,1.04-9.811-0.385c-0.655-0.287-1.3-0.599-1.923-0.953
			c-4.007-2.276-7.556-6.745-8.631-10.866c-0.331-1.269-0.483-2.673-0.442-4.063c0.022-0.729,0.172-1.485,0.33-2.286
			c0.139-0.699,0.281-1.421,0.355-2.192c0.141-1.464,0.475-2.978,0.99-4.499c0.97-2.857,2.547-5.657,4.688-8.323
			c3.93-4.892,9.352-8.959,15.68-11.763c4.135-1.831,8.446-2.52,12.919-2.697c0.013,0,0.026,0.002,0.04,0.002
			c0.023,0,0.046-0.006,0.068-0.008c3.538-0.135,7.177,0.047,10.907,0.234c4.188,0.21,8.519,0.428,12.75,0.152
			c1.99-0.129,3.963-0.287,5.922-0.514c-1.482,3.367-1.806,7.561-0.754,10.237c0.31,0.788,1.063,1.27,1.862,1.27
			c0.243,0,0.49-0.044,0.73-0.139c1.027-0.403,1.534-1.565,1.13-2.593c-0.982-2.502,0.146-7.906,2.453-9.666
			c2.673-0.59,5.313-1.424,7.909-2.691c6.248-3.054,11.437-6.306,15.423-9.666c3.572-3.01,6.835-6.789,10.031-11.611
			c-0.034,0.582-0.069,1.164-0.104,1.746c-0.231,3.973-0.471,8.08-0.851,12.094c-1.041,10.992-4.008,17.991-10.239,24.155
			c-5.579,5.519-13.355,9.282-20.295,9.819c-2.006,0.155-3.938,0.084-5.988-0.23c-0.294-0.145-0.622-0.229-0.968-0.216
			c-0.049,0.003-0.096,0.013-0.145,0.017c-1.892-0.365-3.901-0.928-6.188-1.734c-5.518-1.946-10.929-2.842-16.595-2.785
			c-1.104,0.016-1.988,0.922-1.974,2.026s0.901,1.989,2.026,1.974c5.156-0.063,10.145,0.77,15.212,2.559
			c0.496,0.175,1.009,0.348,1.532,0.52c-3.115,2.535-5.541,6.521-7.239,10.057c-0.479,0.996-0.059,2.19,0.937,2.668
			c0.279,0.135,0.574,0.198,0.865,0.198c0.744,0,1.46-0.418,1.804-1.135c2.923-6.087,6.335-9.792,9.443-10.307
			c1.665,0.288,3.431,0.466,5.301,0.466c0.745,0,1.507-0.027,2.284-0.088c7.96-0.617,16.483-4.716,22.799-10.964
			c6.965-6.89,10.271-14.603,11.409-26.622c0.387-4.085,0.628-8.229,0.861-12.238c0.075-1.285,0.15-2.572,0.229-3.858
			c0.079-1.274,0.317-5.118,0.826-6.521c1.393-2.676,2.674-5.416,3.919-8.087c2.115-4.542,4.303-9.237,7.004-13.454
			c0.612-0.957,1.222-1.916,1.829-2.873c0.07-0.109,0.142-0.221,0.211-0.33c0.288,2.197,0.682,4.269,1.21,6.283
			c0.345,1.314,0.434,2.735,0.527,4.239c0.032,0.526,0.065,1.056,0.109,1.585c0.194,2.338,0.353,4.752,0.514,7.209
			c0.748,11.415,1.597,24.354,6.576,34.748c7.191,15.01,20.47,18.443,34.527,22.078l2.107,0.545
			c12.827,3.346,29.466,7.691,41.392,17.067c0.03,0.044,0.053,0.09,0.086,0.132c1.647,2.045,2.289,3.73,2.288,6.01
			c0,1.594-0.438,2.888-1.303,3.849c-1.137,1.265-3.255,2.583-5.809,3.616c-0.707,0.285-1.383,0.605-2.046,0.932
			c-0.008,0.002-0.016,0.002-0.022,0.003c-1.275,0.273-2.416,0.868-3.436,1.66c-0.195,0.085-0.39,0.181-0.587,0.259
			c-5.156,2.031-10.692,3.122-15.226,2.986c-3.7-0.109-6.874-1.473-10.234-2.916c-2.454-1.054-4.991-2.144-7.837-2.781
			c-6.015-1.348-11.733-2.008-17.482-2.021c-0.03,0-0.06,0-0.089,0c-1.472,0-3.14,0.084-4.906,0.313
			c-0.389-0.079-0.814-0.113-1.298-0.148c-0.341-0.023-0.727-0.051-0.938-0.092c-1.012-0.193-2.039-0.641-3.182-1.161
			c-1.856-0.847-3.534-2.704-4.961-4.38l-0.572-0.676c-1.032-1.219-2.04-2.403-3.164-3.506c-0.408-0.741-1.033-2.18-1.176-2.732
			c-0.407-1.581-0.211-2.451,0.874-3.879c0.273-0.359,0.566-0.705,0.859-1.049c0.699-0.826,1.422-1.679,1.99-2.757
			c0.893-1.694,1.096-3.464,1.177-4.971c0.144-2.683,0.018-6.443-2.723-8.114c-0.944-0.576-2.174-0.276-2.749,0.667
			c-0.574,0.943-0.276,2.174,0.667,2.749c0.238,0.145,1.003,0.898,0.811,4.484c-0.061,1.128-0.189,2.311-0.722,3.32
			c-0.364,0.69-0.917,1.344-1.503,2.034c-0.338,0.399-0.676,0.799-0.991,1.214c-1.354,1.781-1.949,3.404-1.878,5.258
			c-6.421-2.977-17.749-3.847-23.432,2.257c-0.753,0.808-0.709,2.073,0.1,2.827c0.809,0.752,2.073,0.709,2.827-0.101
			c4.045-4.341,13.848-4.095,19.582-0.983c2.649,1.438,4.386,3.488,6.396,5.865l0.581,0.685c1.583,1.859,3.458,3.909,5.8,5.144
			c-1.752,0.711-3.485,1.621-5.123,2.804c-2.297,1.658-4.266,3.636-6.17,5.548c-2.041,2.051-3.97,3.988-6.223,5.501
			c-1.874,1.259-3.883,2.224-6.009,3.245c-0.872,0.418-1.752,0.844-2.631,1.292c-0.006,0.003-0.012,0.005-0.018,0.008
			c-1.886,1.053-5.327-0.075-6.571-1.038c-0.676-0.523-1.311-1.056-1.933-1.577c-2.22-1.861-4.515-3.785-7.958-4.716
			c-2.198-0.595-4.376-0.688-6.482-0.775c-2.239-0.096-4.354-0.186-6.324-0.863c-3.423-1.181-5.364-4.013-6.391-6.182
			c-1.74-3.678,0.816-7.104,4.619-11.541c0.667-0.777,1.309-1.527,1.878-2.249c0.684-0.868,0.534-2.126-0.334-2.81
			c-0.865-0.682-2.125-0.533-2.809,0.334c-0.536,0.682-1.144,1.389-1.772,2.122c-3.453,4.029-8.183,9.548-5.197,15.854
			c1.942,4.105,4.951,6.959,8.702,8.252c2.521,0.869,5.031,0.975,7.459,1.078c1.974,0.083,3.839,0.162,5.607,0.641
			c2.593,0.7,4.372,2.192,6.433,3.92c0.661,0.554,1.335,1.119,2.053,1.674c0.709,0.549,1.851,1.15,3.19,1.602
			c-2.734,2.262-4.963,4.913-7.109,7.489c-2.101,2.522-4.084,4.904-6.494,6.905c-2.674,2.221-6.945,4.236-11.426,5.391
			c-3.042,0.782-5.378,0.061-8.335-0.855c-1.074-0.332-2.184-0.676-3.399-0.966c-5.552-1.326-12.921-1.658-18.327-0.827
			c-12.731,1.953-22.158,5.944-28.021,11.865c-0.777,0.785-0.771,2.051,0.014,2.828c0.39,0.387,0.898,0.579,1.407,0.579
			c0.515,0,1.03-0.198,1.421-0.593c5.246-5.298,13.921-8.906,25.785-10.726c2.284-0.351,5.019-0.458,7.794-0.36
			c-0.314,0.314-0.591,0.617-0.81,0.885c-1.42,1.734-2.51,3.626-3.563,5.455c-1.839,3.19-3.576,6.205-6.829,7.891
			c-0.981,0.508-1.364,1.715-0.855,2.695c0.355,0.688,1.054,1.08,1.777,1.08c0.31,0,0.624-0.072,0.918-0.225
			c3.014-1.561,4.946-3.838,6.543-6.283c0.682,2.396,2.114,4.553,4.404,6.744c0.388,0.371,0.886,0.555,1.383,0.555
			c0.526,0,1.053-0.207,1.445-0.617c0.764-0.799,0.735-2.064-0.063-2.828c-3.286-3.143-4.168-5.773-3.372-10.053
			c0.006-0.029,0.003-0.057,0.007-0.085c0.41-0.62,0.834-1.226,1.301-1.796c1.386-1.693,3.4-2.775,4.056-2.652
			c0.284,0.055,0.566,0.043,0.833-0.02c0.628,0.114,1.241,0.238,1.824,0.378c1.087,0.259,2.133,0.583,3.145,0.896
			c3.135,0.971,6.376,1.974,10.516,0.908c0.31-0.08,0.615-0.175,0.923-0.262c-0.017,1.648,0.421,3.328,1.023,4.678
			c1.424,3.188,3.89,5.13,6.484,5.13c0.084,0,0.169-0.002,0.254-0.007c1.104-0.053,1.954-0.992,1.9-2.095
			c-0.055-1.104-1.01-1.954-2.096-1.899c-0.916,0.039-2.144-1.088-2.89-2.759c-0.798-1.785-0.882-3.733-0.235-4.581
			c2.975-1.229,5.649-2.756,7.619-4.392c2.692-2.235,4.889-4.872,7.012-7.423c2.199-2.64,4.276-5.133,6.847-7.199
			c2.216-1.78,4.733-2.99,7.399-4.27c1.268-0.609,2.558-1.239,3.836-1.936c0.321,1.271,0.902,2.7,1.771,4.303
			c0.291,0.537,0.598,1.074,0.907,1.614c0.947,1.655,1.843,3.22,2.3,4.848c0.814,2.896,0.549,5.96,0.269,9.204
			c-0.052,0.596-0.104,1.189-0.147,1.781c-0.083,1.102,0.743,2.061,1.845,2.144c0.051,0.004,0.102,0.006,0.151,0.006
			c1.036,0,1.913-0.8,1.992-1.851c0.044-0.576,0.094-1.154,0.144-1.734c0.14-1.611,0.276-3.25,0.285-4.902
			c1.175,0.805,2.503,1.45,3.925,1.758c0.593,0.127,1.175,0.191,1.741,0.191c1.528,0,2.949-0.463,4.174-1.368
			c0.889-0.657,1.076-1.909,0.42-2.798c-0.657-0.889-1.91-1.076-2.797-0.419c-0.751,0.555-1.631,0.713-2.693,0.483
			c-2.146-0.463-4.353-2.398-5.248-4.002c-0.146-0.262-0.344-0.473-0.57-0.638c-0.611-1.673-1.469-3.207-2.317-4.69
			c-0.294-0.512-0.585-1.021-0.861-1.532c-1.507-2.78-1.688-4.396-1.541-4.778c0.007-0.006,0.011-0.014,0.017-0.02
			c2.103-1.578,3.953-3.403,5.735-5.193c1.873-1.881,3.644-3.659,5.677-5.127c3.312-2.391,7.154-3.514,10.613-3.994
			c0.063-0.01,0.127-0.012,0.189-0.027c1.655-0.221,3.22-0.296,4.589-0.293c5.454,0.012,10.89,0.643,16.616,1.926
			c2.483,0.556,4.742,1.525,7.134,2.553c3.557,1.527,7.233,3.106,11.694,3.238c3.491,0.104,7.494-0.447,11.496-1.521
			c-1.375,2.658-2.143,5.213-2.39,6.119l-0.067,0.248c-0.918,3.369-1.615,5.864-3.582,8.309c-0.52-0.045-1.056,0.111-1.48,0.482
			c-0.862,0.751-1.267,1.639-1.469,2.511c-2.518,2.179-5.468,4.069-8.349,5.911c-0.609,0.389-1.214,0.775-1.81,1.162
			c-4.384,2.841-9.544,4.51-14.563,6.1c-0.14-0.031-0.284-0.051-0.434-0.051c-0.032,0-0.06,0.002-0.089,0
			c-2.297,0-4.216-3.502-4.752-4.582c-0.532-1.072-0.92-2.268-1.266-3.525c-0.032-0.305-0.075-0.649-0.125-1.03
			c-0.096-0.733-0.215-1.647-0.217-2.134c-0.013-3.165,2.287-5.894,3.659-7.238c0.789-0.773,0.802-2.039,0.029-2.828
			c-0.773-0.789-2.041-0.803-2.828-0.029c-1.329,1.303-2.387,2.697-3.185,4.129c-0.811-1.783-1.918-3.434-3.581-4.805
			c-0.85-0.702-2.112-0.582-2.815,0.27s-0.582,2.113,0.271,2.816c2.558,2.109,3.376,5.539,4.242,9.171
			c0.201,0.845,0.415,1.698,0.644,2.549c0.016,0.064,0.031,0.128,0.052,0.188c0.398,1.454,0.867,2.895,1.538,4.246
			c0.683,1.373,1.801,3.236,3.355,4.666c-0.792,0.281-1.568,0.568-2.318,0.869c-0.044,0.015-0.089,0.021-0.133,0.041
			c-0.06,0.024-0.12,0.059-0.18,0.09c-5.891,2.402-10.563,5.473-15.096,9.905c-0.299,0.292-0.581,0.597-0.863,0.901
			c-0.053,0.034-0.096,0.064-0.16,0.103c-1.323,0.776-3.357,1.311-5.583,1.465c-2.731,0.192-5.278-0.464-7.748-2.003
			c-0.394-0.245-0.785-0.506-1.178-0.768c-2.154-1.438-4.595-3.064-7.813-2.637c-1.096,0.145-1.864,1.15-1.719,2.246
			c0.146,1.095,1.15,1.866,2.246,1.719c1.723-0.225,3.272,0.803,5.067,2c0.428,0.285,0.854,0.568,1.281,0.835
			c2.815,1.753,5.826,2.639,8.966,2.639c0.39,0,0.781-0.014,1.175-0.041c0.304-0.021,0.671-0.058,1.062-0.103
			c-0.925,1.188-1.849,2.307-2.879,3.311c-2.213,2.156-5.191,3.85-8.071,5.486l-1.018,0.58c-0.983,0.563-2.042,1.105-3.144,1.619
			c-0.06,0.023-0.117,0.051-0.174,0.08c-6.261,2.885-14.092,4.68-20.278,2.318c-0.003-0.002-0.005-0.002-0.008-0.004
			c-0.311-0.264-0.701-0.439-1.14-0.475c-3.64-1.578-6.73-3.797-9.977-6.143l-1.549-1.115c-0.362-0.258-0.742-0.514-1.127-0.773
			c-1.029-0.691-2.093-1.408-2.784-2.213c-0.004-0.004-0.009-0.01-0.013-0.014c-0.186-0.668-0.712-1.219-1.43-1.402
			c-1.685-0.436-2.41,0.717-2.54,0.951c-0.52,0.938-0.281,1.891,0.709,2.834c0.08,0.076,0.171,0.158,0.24,0.238
			c1.044,1.215,2.394,2.123,3.585,2.924c0.353,0.238,0.701,0.473,1.033,0.709l1.533,1.104c2.133,1.541,4.204,3.027,6.427,4.354
			c-1.073,0.723-2.003,1.598-2.985,2.561c-0.104,0.102-0.216,0.203-0.328,0.307c-0.532,0.488-1.195,1.096-1.607,1.982
			c-0.466,1-0.032,2.189,0.97,2.656c0.272,0.127,0.56,0.188,0.843,0.188c0.753,0,1.476-0.428,1.814-1.156
			c0.076-0.164,0.427-0.486,0.684-0.721c0.146-0.135,0.291-0.268,0.427-0.4c1.123-1.102,2.069-1.988,3.18-2.551
			c0.665-0.338,1.156-0.402,1.985-0.365c0.212,0.086,0.415,0.18,0.631,0.262c2.573,0.982,5.238,1.375,7.858,1.375
			c3.951,0,7.788-0.896,11.041-2.01c-0.052,0.305-0.097,0.605-0.132,0.889c-0.471,3.813,0.97,7.328,3.951,9.648
			c0.365,0.285,0.798,0.422,1.228,0.422c0.596,0,1.186-0.266,1.579-0.771c0.679-0.871,0.521-2.129-0.35-2.807
			c-1.871-1.455-2.736-3.586-2.438-6.002c0.197-1.596,0.535-2.637,1.108-3.387c1.355-0.641,2.444-1.229,3.164-1.641l1.006-0.574
			c2.955-1.68,6.306-3.582,8.886-6.098c1.61-1.568,2.961-3.338,4.267-5.049c0.952-1.248,1.866-2.443,2.854-3.543
			c0.505-0.381,0.903-0.787,1.193-1.229c2.464-2.39,4.978-4.351,7.752-6.007c-0.618,3.186-0.336,6.387,0.821,8.97
			c0.914,2.04,2.261,3.685,3.563,5.274c0.296,0.361,0.585,0.719,0.867,1.072c0.095,0.184,0.21,0.357,0.363,0.51
			c0.076,0.074,0.153,0.172,0.229,0.26c0.509,0.684,0.97,1.371,1.34,2.098c1.739,3.414,0.733,7.883-0.418,11.031
			c-0.379,1.037,0.155,2.186,1.192,2.566c0.227,0.082,0.458,0.121,0.687,0.121c0.815,0,1.582-0.504,1.879-1.314
			c1.316-3.602,1.803-6.918,1.484-9.822c1.336,0.396,2.829,0.615,4.486,0.637c0.009,0,0.018,0,0.026,0
			c1.092,0,1.985-0.879,1.999-1.975c0.014-1.105-0.87-2.012-1.975-2.025c-1.813-0.023-4.316-0.355-5.941-1.813
			c-0.324-0.291-0.632-0.705-0.958-1.143c-0.212-0.285-0.452-0.594-0.712-0.9c-0.477-0.631-0.967-1.24-1.455-1.836
			c-1.188-1.453-2.313-2.824-3.008-4.377c-0.957-2.135-1.059-4.942-0.284-7.686c0.196-0.58,1.394-2.246,1.95-2.654
			c1.022-0.412,2.072-0.811,3.184-1.184c1.327-0.445,2.669-0.87,4.014-1.295c5.394-1.707,10.971-3.473,15.922-6.682
			c0.588-0.381,1.186-0.763,1.788-1.147c2.03-1.298,4.093-2.618,6.056-4.063c0.118,1.606,0.33,3.193,0.549,4.745
			c0.189,1.346,0.37,2.617,0.483,3.893c0.01,0.111,0.011,0.216,0.019,0.326c-0.331,0.392-0.825,0.506-2.129,0.691
			c-0.219,0.031-0.44,0.063-0.665,0.098c-2.59,0.41-9.468,1.499-10.317,7.756c-0.149,1.094,0.618,2.102,1.712,2.251
			c0.092,0.013,0.183,0.019,0.272,0.019c0.984,0,1.843-0.729,1.979-1.731c0.319-2.351,2.342-3.608,6.979-4.343l0.604-0.089
			c0.431-0.062,0.888-0.128,1.353-0.228c-0.349,1.823-1.035,3.594-2.147,5.579l-0.343,0.616c-1.641,2.954-3.501,6.304-6.528,6.713
			c-1.095,0.148-1.862,1.156-1.715,2.25c0.136,1.004,0.994,1.732,1.979,1.732c0.09,0,0.18-0.006,0.271-0.018
			c5.015-0.68,7.602-5.336,9.49-8.736l0.336-0.603c2.428-4.334,3.249-7.996,2.836-12.64c-0.123-1.377-0.318-2.76-0.508-4.098
			c-0.344-2.432-0.669-4.729-0.596-7.001l0.006-0.202c0.003-0.094,0.007-0.162,0.011-0.246c0.601-0.572,1.187-1.158,1.736-1.78
			c2.926-3.312,3.823-6.607,4.863-10.423l0.067-0.248c0.999-3.663,2.931-7.553,5.134-9.479c0.684-0.314,1.355-0.642,2.006-0.969
			c0.971-0.49,1.888-0.952,2.828-1.332c1.821-0.737,5.189-2.322,7.284-4.65c1.523-1.693,2.328-3.949,2.328-6.522
			c0-0.019-0.002-0.037-0.002-0.057c0.462,0.544,0.913,1.095,1.346,1.665l0.079,0.104c2.176,2.869,4.426,5.836,7.703,8.067
			c2.871,1.955,6.031,2.562,9.087,3.148c1.567,0.301,3.047,0.584,4.466,1.039c2.078,0.668,4.418,1.487,5.876,2.785
			c0.261,0.232,0.503,0.501,0.739,0.783c0.48,1.303,0.775,3.303,0.782,5.592c0.01,3.006-0.193,6.135-1.733,8.643
			c-2.091,3.406-5.676,5.271-9.471,7.244c-0.989,0.514-1.975,1.027-2.932,1.565l-1.482,0.831c-1.07,0.598-2.188,1.223-3.323,1.878
			c-0.69-0.02-1.372,0.31-1.76,0.94c-0.028,0.045-0.047,0.094-0.074,0.139c-1.678,1.008-3.368,2.091-4.992,3.268
			c-0.524,0.07-1.021,0.345-1.354,0.809c-0.197,0.273-0.416,0.512-0.648,0.726c-0.055,0.044-0.109,0.089-0.164,0.134
			c-1.75,1.467-4.453,1.497-8.403,1.336c-3.709-0.148-7.541-0.304-10.506,1.856c-0.893,0.65-1.089,1.901-0.438,2.794
			c0.392,0.537,1,0.822,1.618,0.822c0.408,0,0.82-0.124,1.176-0.383c1.839-1.342,4.826-1.221,7.989-1.093
			c1.078,0.044,2.191,0.087,3.302,0.071c-2.442,3.307-3.967,7.18-3.801,11.809c0.039,1.08,0.926,1.93,1.998,1.93
			c0.023,0,0.048,0,0.072-0.002c1.104-0.039,1.967-0.967,1.928-2.07c-0.201-5.613,2.855-9.973,7.087-13.566
			c0.315-0.223,0.62-0.471,0.912-0.747c0.82-0.651,1.675-1.278,2.553-1.882c-0.271,5.455,2.438,11.356,6.367,14.496
			c0.369,0.295,0.81,0.438,1.248,0.438c0.587,0,1.168-0.257,1.563-0.751c0.689-0.862,0.549-2.122-0.313-2.812
			c-3.724-2.975-6.189-9.738-4.185-14.318c1.385-0.811,2.768-1.584,4.101-2.329l1.494-0.837c0.918-0.517,1.864-1.008,2.813-1.502
			c4.112-2.139,8.365-4.349,11.035-8.701c2.063-3.359,2.336-7.15,2.324-10.746c0-0.084-0.005-0.175-0.006-0.26
			c4.31,2.874,9.517,2.389,14.149,1.95c1.806-0.171,3.509-0.329,5.09-0.302c4.407,0.078,6.74,7.516,6.808,11.657
			c0.104,6.241-1.67,11.231-5.75,16.179c-0.703,0.852-0.582,2.112,0.271,2.814c0.373,0.308,0.823,0.457,1.271,0.457
			c0.576,0,1.148-0.248,1.544-0.727c4.729-5.734,6.783-11.529,6.664-18.789C283.202,331.973,279.72,322.722,272.568,322.593z
			 M81.346,372.914c-0.002,0-0.004,0-0.005-0.002l0.503-1.936L81.346,372.914z"/>
		<path fill="#FFE3AD" stroke="#000000" stroke-linecap="round" stroke-linejoin="round" stroke-miterlimit="10" d="
			M125.294,195.656c0,0,2.888-4.377,3.897-5.791"/>
		
			<line fill="#FFE3AD" stroke="#000000" stroke-linecap="round" stroke-linejoin="round" stroke-miterlimit="10" x1="125.85" y1="202.191" x2="129.356" y2="196.748"/>
	</g>
</g>
</svg>
