<?xml version="1.0" encoding="utf-8"?>
<!-- Generator: Adobe Illustrator 16.0.0, SVG Export Plug-In . SVG Version: 6.00 Build 0)  -->
<!DOCTYPE svg PUBLIC "-//W3C//DTD SVG 1.1//EN" "http://www.w3.org/Graphics/SVG/1.1/DTD/svg11.dtd">
<svg version="1.1" id="Layer_2" xmlns="http://www.w3.org/2000/svg" xmlns:xlink="http://www.w3.org/1999/xlink" x="0px" y="0px"
	 width="316.9px" height="316.9px" viewBox="0 0 316.9 316.9" enable-background="new 0 0 316.9 316.9" xml:space="preserve">
<g>
	<path fill="#CA9980" d="M312.641,124.06l-0.07,0.021c0,0-4.25,3.31-6.62,3.79c0.72-0.99,0.65-3.68,0.65-3.68
		c-0.8-8.69-11.87-18.08-11.87-18.08l-0.17-0.12c0.84-1.181,1.65-2.44,2.43-3.78v-0.01c3.1-0.62,6.42-1.7,7.67-3.57l0.02-0.01
		C308.02,106.78,310.7,115.28,312.641,124.06z"/>
	<path fill="#C18362" d="M304.68,98.62l-0.02,0.01c-1.25,1.87-4.57,2.95-7.67,3.57v0.01c-0.78,1.34-1.59,2.6-2.43,3.78l0.17,0.12
		c0,0,5.08,4.313,8.605,9.795c1.242-2.864,2.747-6.516,4.047-10.177C306.536,103.333,305.638,100.961,304.68,98.62z"/>
	<path fill="#CA9980" d="M290.51,102.979c9.32-9.76-4.77-37.939-4.77-37.939L285.8,65c-5.16-7.03-10.89-13.61-17.12-19.67
		c-14.33,3.35-26.41,4.729-36.35,4.99c-14.08,0.37-23.86-1.5-29.62-3.15l-0.02,0.06c2.07,4.051,5.67,9.011,11.86,14.681
		c-0.93-1.19,0.38-2.28,0.38-2.28c6.7-5.82,14.65-6.38,17.46-6.38c0.67,0,1.05,0.03,1.05,0.03c3.07,0.109,2.81,1.1,2.81,1.1
		c0,0.65-2.03,0.521-2.03,0.521c-11.35,1.09-17.15,6.67-17.15,6.67c-1.01,1.02-1.74,0.89-2.05,0.77c1.37,1.25,2.87,2.53,4.5,3.84
		c0,0,7.63,3.08,5.76,23.021c0,0-3.6,11.51,6.83,8.279c0,0,6.12-3.96,8.63,0.721c0,0,2.35,4.34,2.81,5.52c0,0,1,3.83,5.74,1.91
		c0,0-1.28,6.2,3.82,6.93c0,0,10.2-1.819,12.3,5.92c0,0,1.28,5.101,7.29,4.551c0,0,12.19-3.23,21.86-17.04
		c0.84-1.181,1.65-2.44,2.43-3.78v-0.01C293.63,102.86,290.51,102.979,290.51,102.979z M229.43,69.47l-0.09-0.06
		c-0.04,0.06-0.1,0.109-0.16,0.16c-0.67,0.489-2.01-0.061-2.98-1.37c-0.18-0.24-0.33-0.49-0.46-0.74c-0.12-0.23-0.22-0.47-0.29-0.69
		l-0.13-0.01c0.36-0.21,1.23-0.7,2.33-1.38c0.23-0.15,0.47-0.29,0.72-0.45c1.86-1.17,4.16-2.7,5.93-4.189
		C234.19,61.01,232.26,65.35,229.43,69.47z"/>
	<g>
		<path fill="#C18362" d="M253.11,112.56c0,0,0.208-0.036,0.563-0.077c-0.465-1.306-0.11-3.321-0.11-4.559
			c0-2.298,0.588-4.291-1.535-5.115c-1.7-0.66-4.218,0.379-5.827,0.567c-1.014,0.119-2.003,0.017-2.92-0.265
			c0.115,0.245,0.208,0.454,0.269,0.608c0,0,1,3.83,5.74,1.91C249.29,105.63,248.01,111.83,253.11,112.56z"/>
		<path fill="#C18362" d="M264.755,112.785c-1.33-1.426-3.061-1.088-4.741-0.713c-0.349,0.078-0.885,0.303-1.484,0.557
			c2.296,0.429,4.754,1.509,6.139,4.009C265.468,115.342,266.118,114.246,264.755,112.785z"/>
		<path fill="#C18362" d="M221.787,68.146c0.038-0.915,0.195-1.813,0.578-2.675c1.389-3.127,5.869-5.193,8.958-6.146
			c1.976-0.609,7.574-3.314,4.712-4.653c-0.512,0.307-1.815,0.229-1.815,0.229c-11.35,1.09-17.15,6.67-17.15,6.67
			c-1.01,1.02-1.74,0.89-2.05,0.77c1.37,1.25,2.87,2.53,4.5,3.84C219.52,66.18,220.565,66.604,221.787,68.146z"/>
		<path fill="#C18362" d="M214.591,60.005c-0.383,0.311-0.736,0.631-1.055,0.959c0.331,0.313,0.667,0.628,1.015,0.946
			C213.952,61.144,214.28,60.424,214.591,60.005z"/>
		<path fill="#C18362" d="M232.11,97.479c0,0,3.637-2.34,6.454-1.271c0.629-2.817,3.461-6.96-1.356-5.921
			c-3.506,0.757-5.821,5.051-9.209,5.883c-1.064,0.262-1.939,0.243-2.67,0.035C226.205,97.801,228.139,98.71,232.11,97.479z"/>
	</g>
	<path fill="#CA9980" d="M107.86,82.92v-0.01c0.11,0.109,0.25,0.189,0.41,0.229c0.48,0.12,1.12-0.09,1.63-0.569
		c0.2-0.19,0.36-0.41,0.47-0.62c0.01-0.021,0.02-0.03,0.02-0.05l-0.04-0.061c-0.22-0.52-0.82-1.08-1.32-1.47
		c-0.39-0.32-0.71-0.53-0.71-0.53c-1.54-0.979-4.42-3.02-4.42-3.02s1.14,3.62,2.98,5.39C107.19,82.51,107.52,82.75,107.86,82.92z
		 M65.79,62.16c-0.7-11.84,5.34-11.61,5.34-11.61c6.49-0.229,7.65,4.65,7.65,4.65s1.94,4.59,0.53,8.01c0,0,2.01,3.42,3.82,3.83
		c0,0,7.05-5.84,11.08-7.25c0,0,8.26-3.021,9.87-8.66c0,0,12.49,8.66,15.71,9.46c0,0-1.61-3.22-2.22-3.42
		c0.23,0.07,0.61,0.2,0.61,0.2s6.73,5.08,9.87,9.46c0,0.56-0.02,5.68-1.68,12.78c-0.72,3.09-1.75,6.55-3.22,10.18
		c0,0-0.63,1.37-2.79,2.54c-1.33-1.67-3.47-1.83-3.47-1.83s0,0.61,0,1.52c0,1.681,0,4.391,0,6.24c0,0.57,0,1.05,0,1.4
		c0,0,0,3-1.53,4.13c0,0-2.11,1.439-4.77,0.55l-0.04,0.13c0,0-3.9,2.55-5.39,4.61c0,0-0.99,1.34-1.64,1.74c0,0-5-5.061-18.53-6.521
		c-16.71-1.81-25.81,7.05-30.25,13.86l-0.1-0.061c-16.15-5.939-22.37-21.12-22.37-21.12l-0.02-0.039
		c17.23-6.961,25.71-23.86,25.71-23.86s3.62,1.81,6.04-1.61c0,0,1.7-3.81,2.73-4.3l0.12-0.03C66.12,64.479,65.79,62.16,65.79,62.16z
		 M117.73,83.68c0,0,1.89-0.689-0.32-5.02c0,0-1.35-4.07-9.07-6.59c0,0-2.75-0.98-3.46-0.091c0,0-0.53,0.98,1.15,1.15
		c0,0,7.27,1.42,10.11,9.58C116.14,82.71,116.23,84.04,117.73,83.68z"/>
	<path fill="#C18362" d="M116.613,102.418c-2.197-0.833-3.863-2.31-6.165-2.983c-1.304-0.383-2.611-0.501-3.935-0.718
		c-1.145-0.188-2.3-0.657-3.39-0.738c-0.132,1.363,1.772,2.952,2.371,4.175c0.579,1.182,0.646,4.654,2.561,3.904
		c0.597-0.233,0.993-1.117,1.606-1.41c0.99-0.471,1.674-0.041,2.62,0.003c1.149,0.053,3.892-0.659,3.675-2.102"/>
	<path fill="#C18362" d="M109.662,73.827c4.139,1.028,7.845,5.37,7.079,9.57c-0.357,1.959-1.815,4.314-4.324,3.548
		c-2.143-0.654-0.939-3.856-1.57-5.516c-0.904-2.377-2.994-4.644-4.597-6.688c-0.792-1.01-1.976-2.465,0.137-2.36
		c1.004,0.05,2.885,0.97,3.538,1.84"/>
	<path fill="#C18362" d="M66.695,94.468c-1.788-8.453,3.577-14.306,3.577-14.306c-11.25,9.813-8.579,22.615-6.387,28.69
		c2.287-1.5,4.94-2.771,8.004-3.628C68.31,101.289,66.695,94.468,66.695,94.468z"/>
	<path fill="#FBCDBB" d="M116.24,144.18c-0.82,0.32-1.71,0.74-2.68,1.32c0,0-0.95,0.61-0.31,1.2c0,0,0.14,0.13,0.59-0.021
		c0.14-0.05,0.77-0.46,1.26-0.739c0.19-0.101,0.43-0.23,0.7-0.36C115.98,145.1,116.12,144.63,116.24,144.18z M104.17,153.17
		c-1.8,0.81-5.42,1.1-5.42,1.1s1.81,1.641,5.18,0.591c0.06,0,0.13-0.021,0.18-0.051c0.29-0.14,0.49-0.449,0.49-0.819
		c0-0.34-0.17-0.63-0.41-0.78L104.17,153.17z M79.95,174.8c-5.74-0.18-6.26-7.31-6.26-7.31l-0.01-0.13
		c-0.96,0.109-1.73-0.131-1.73-0.131c-6.32-2.01-4.74-12.079-4.74-12.079c1.01-5.46,6.61-1.29,6.61-1.29s7.83,1.64,9.83-6.2
		l0.02-0.09c2.07,0.399,4.12,0.449,5.55-0.341c0,0,6.73-4.329,9.54-17.489c0.77,3.64,0.79,8.56-3.28,11.77c0,0,5.61,2.811,9.28,1.3
		c0,0,5.5-2.81,3.02-11.979c0,0,4.19,7.649,1.23,11.229c0,0,4.54-0.479,7.59-1.81l0.02,0.05c0,0,0.06,1.01-0.04,2.47
		c-0.12,1.79-0.48,4.25-1.49,6.341c-0.42,0.479-1.49,0.859-2.56,1.159c0.08,1.051,0.4,2.261,1.25,3.4c0,0,2.11,2.81,2.41,3.11
		c0,0,1.17,1.46,0.93,2.689c0,0,0.05,1.641-1.99,2.37l0.03,0.07c-0.26,2.1,0.03,3.609,0.03,3.609c0.16,1.33-0.92,2.07-0.92,2.07
		c-0.58,0.33-0.49,1.25-0.49,1.25c0.74,2.811-2.24,4.061-2.24,4.061c0.08,6.63-6.71,6.54-6.71,6.54c-0.75,0-5.72,0.42-5.72,0.42
		c-0.55,0-1.09-0.021-1.62-0.061v0.01c0,0-0.05,1.681,0.2,3.271c-0.53-0.15-1.04-0.29-1.54-0.41l0.02-0.07
		c-1.54-1.609-9.29-2.27-9.29-2.27c-5.56-0.51-10.9-2.34-10.9-2.34l-0.02-0.04C78.44,176.61,79.95,174.8,79.95,174.8z
		 M108.67,147.43c0.25-1.09-1.2-1.029-1.2-1.029c-8.34,0.569-10.46,4.529-10.46,4.529c0,0.44,1.57-0.47,1.57-0.47
		c3.71-1.87,6.27-2.37,7.6-2.48c0.72-0.069,1.66-0.1,1.86-0.149C108.62,147.66,108.67,147.43,108.67,147.43z"/>
	<path fill="#E3B39E" d="M77.816,167.605c0.804,1.611,1.283,2.771,2.584,4.053c1.095,1.079,2.327,1.939,3.427,2.991
		c2.046,1.956,5.795,3.788,8.561,4.167c1.43,0.195,2.428,0.789,3.813,0.974c0.794,0.105,0.995-0.023,1.203,0.973
		c0.145,0.694-0.046,1.507,0.086,2.165c-1.519-0.351-3.038-1.321-4.661-1.724c-1.739-0.431-3.562-0.199-5.33-0.55
		c-1.625-0.322-3.251-0.813-4.681-1.737c-1.655-1.07-1.625-2.398-2.576-3.938c-0.856-1.387-1.926-2.632-2.782-4.003
		c-0.644-1.03-1.333-3.46-0.49-4.553c0.382,0.304,0.753,0.86,0.737,1.4"/>
	<path fill="#E3B39E" d="M114.192,165.011c0,0-4.653,3.005-5.914,5.478c0,0,1.842,2.424,3.441,2.278c0,0,2.325-1.003,2.156-3.009
		c-0.005-0.063-0.013-0.126-0.023-0.19c-0.339-2.133-0.232-1.435,0.417-1.978c0,0,1.135-1.658,0.892-2.482
		C115.162,165.107,115.162,164.43,114.192,165.011z"/>
	<path fill="#E3B39E" d="M116.652,158.448c-0.168,1.423-2.572,1.551-3.586,1.994c-1.013,0.441-3.11,1.514-3.345,2.643
		c0.788,0.367,1.975-0.025,2.879,0.229c0.403,0.114,0.833,0.447,1.247,0.492c0.87,0.095,0.407,0.23,0.837-0.495
		c0.274-0.462,0.15-0.664,0.579-1.132c0.239-0.261,0.662-0.414,0.926-0.721c0.494-0.572,0.938-1.785,0.579-2.431"/>
	<path fill="#FBCDBB" d="M153.13,210.62c-0.07,0.149-0.14,0.31-0.21,0.479c0,0-0.9,3.141,3.14,5.83c0,0,8.55,4.91,10.57,9.98
		c0.01,0.01,0,0.01,0,0.01c-0.04,0.45-0.45,3.48-2.84,6.13l-0.05-0.04c-1.37-1.41-8.72-0.81-8.72-0.81l-0.04-0.01
		c0.5-0.891,0.43-1.771,0.43-1.771c-0.71-8.08-16.66-6.36-16.66-6.36c-8.08,0.101-12.52-3.229-12.52-3.229
		c-5.88-3.17-11.8-3.05-16.2-2.16h-0.01c-3.34-0.97-9.61-4.28-9.61-4.28c-0.81-0.41-1.58-0.77-2.3-1.08l0.05-0.109
		c-1.03-17.221,9.71-24.41,10.14-24.69c2.6,2.17,13.53,11.16,18.3,12.2c0,0,10.71,1.88,16.99,6.01
		C143.59,206.72,149.04,209.99,153.13,210.62z"/>
	<path fill="#FBCDBB" d="M243.54,239.9c1.3,0.909,1.63,2.479,1.63,2.479c0.39,2.68-1.11,2.36-1.11,2.36
		c-0.96-0.221-3.05-0.38-4.71-0.48c-1.28-0.069-2.29-0.109-2.29-0.109c-2.49-0.16-6.4-1.46-6.88-1.62c-0.01,0-0.01,0-0.01,0
		l-1.77-1.521c0,0,1.8-0.89-1.95-2.09l-15.06-9.02c-3.93-6.03-9.87-5.46-9.87-5.46c-2.3,0.479-3.53-0.11-3.53-0.11
		s-6.95-5.83-19.96-6.95c0,0-2.91-0.9-5.83-2.7c0,0-2.22-1.3-4.29-2.56l0.1-0.16l28.14,3.33c9.32,1.05,11.2,0,11.2,0
		c3.51-1.85,5.92-1.32,5.92-1.32s1.57,0.09,3.55,0.55c1.31,0.311,2.81,0.78,4.14,1.5c0,0,6.42,2.36,7.96,2.761
		c0,0,3.82,0.569,2.28,4.3c0,0-0.25,2.6-5.04,1.63c0,0-0.08-0.01-0.21-0.04l-0.01,0.05l3.73,2.88c0,0,5.95,3.53,8.11,5.301
		c0,0,5.56,1.96,5.95,5.949c0,0,0.01,0.561-0.23,1.03L243.54,239.9z"/>
	<path fill="#E3B39E" d="M99.787,149.436c1.647-1.281,4.151-1.978,6.106-2.079c2.643-0.138,2.917,1.548,3.5,3.774
		c0.194,0.737,0.884,1.966,0.371,2.718c-0.689,1.01-2.005,0.503-2.702-0.155c-0.88-0.83-1.044-1.499-2.336-1.662
		c-1.125-0.143-2.186,0.16-3.25,0.266c-0.888,0.088-3.465,0.498-4.164-0.025c-1.469-1.102,1.064-3.099,2.085-2.706"/>
	<path fill="#8CA1C3" d="M238.33,177.22c-0.05-0.29-0.07-0.439-0.07-0.439c-0.74-2.03-2.28-0.261-2.28-0.261
		c-5.3-0.76-10.34,1.011-10.34,1.011c-4.8,1.51-20.94,3.529-20.94,3.529c-6.65,0.841-8.75,4.04-8.75,4.04
		c-1.94,2.61-5.13,4.79-5.13,4.79c-2.78,1.601-4.96,6.061-4.96,6.061c-0.76,2.01-4.88,4.2-4.88,4.2
		c-2.28,1.689,0.97,3.25,1.82,3.609c0.13,0.061,0.2,0.09,0.2,0.09c5.43,1.15,10.22-3.26,11.05-4.06l0.04,0.04
		c-0.12,0.54-0.06,1.29,0.21,2.06c0.13,0.37,0.3,0.71,0.49,0.99l-0.04,0.021l-1.52,0.64c0.12,0.02,0.24,0.04,0.36,0.07
		c0,0,1.48,0.319,1.72,2.189c0,0,0.51,1.99-1.72,3.67c0,0-2.27,2.15-3.24,2.66c0,0-2.73,1.83-5.12-0.28c0,0-0.904-0.601-1.428-2.597
		c-1.019,1.011-2.533,2.651-3.335,4.182l15.683,1.855c9.32,1.05,11.2,0,11.2,0c3.51-1.85,5.92-1.32,5.92-1.32s1.57,0.09,3.55,0.55
		l0.01-0.04c5-2.319,9.49-10.109,9.49-10.109c0.74-0.561,2.41-1.21,2.41-1.21c1.11,0.28,6.29,1.3,6.29,1.3
		c0.28,2.22,1.85,1.29,1.85,1.29c0.14-0.32,0.27-0.64,0.4-0.97C240.76,195.47,238.74,180.02,238.33,177.22z M212.96,198.24
		c-0.29,0.1-0.79-0.5-1.22-1.431l-0.12,0.051l-13.77,4.92c0.01,0.18,0.02,0.35,0.01,0.5c-0.04,0.58-0.24,1.01-0.59,1.13
		c-0.67,0.24-1.62-0.66-2.09-2c-0.47-1.34-0.32-2.62,0.34-2.851c0.48-0.17,1.04,0.19,1.52,0.95v0.021l13.96-4.75l0.09-0.021
		c-0.14-0.75-0.1-1.29,0.14-1.38c0.37-0.12,1.04,0.86,1.52,2.2C213.22,196.92,213.33,198.11,212.96,198.24z"/>
	<path fill="#CA9980" d="M279.55,175.2l0.1,0.02c-1.19,5.51-1.81,11.34-1.59,17.4c0,0,1.44,6.67,0.54,20.12l-0.12-0.011
		c-9.33-1.39-41.18-7.939-41.18-7.939l-0.03-0.01c3.49-9.311,1.47-24.761,1.06-27.561l0.26,0.01c0,0,17.91,1.721,33.35-0.64
		C271.94,176.59,278.05,175.2,279.55,175.2z"/>
	<path fill="#C18362" d="M278.6,212.74c0.099-1.482,0.166-2.868,0.213-4.186c-5.5-0.173-10.764-1.126-16.094-1.896
		c-4.533-0.654-9.306-0.769-13.784-1.707c-3.871-0.812-7.26-1.67-11.022-2.182c-0.191,0.693-0.403,1.367-0.644,2.01l0.03,0.01
		c0,0,31.85,6.55,41.18,7.939L278.6,212.74z"/>
	<path fill="#7389A4" d="M235.799,202.521c-4.813-0.453-7.644-2.173-12.205,0.669c-1.956,1.218-9.979,6.644-13.576,11.05
		c1.998-0.529,3.252-0.271,3.252-0.271s1.57,0.09,3.55,0.55l0.01-0.04c5-2.319,9.49-10.109,9.49-10.109
		c0.74-0.561,2.41-1.21,2.41-1.21c1.11,0.28,6.29,1.3,6.29,1.3c0.28,2.22,1.85,1.29,1.85,1.29c0.14-0.32,0.27-0.64,0.4-0.97
		c0.241-0.643,0.453-1.316,0.644-2.01C237.222,202.676,236.521,202.589,235.799,202.521z"/>
	<path fill="#8CA1C3" d="M166.63,226.92c0,0,0.01,0,0-0.01c-2.02-5.07-10.57-9.98-10.57-9.98c-4.04-2.689-3.14-5.83-3.14-5.83
		c0.07-0.17,0.14-0.33,0.21-0.479c1.13-2.24,3.04-2.24,3.04-2.24c5.48-0.5,8.41,1.6,8.41,1.6c0.07,0.061,0.16,0.12,0.27,0.2
		c0.62,0.431,1.81,1.181,3.06,1.94c2.07,1.26,4.29,2.56,4.29,2.56c2.92,1.8,5.83,2.7,5.83,2.7c13.01,1.12,19.96,6.95,19.96,6.95
		s1.23,0.59,3.53,0.11c0,0,5.94-0.57,9.87,5.46l15.06,9.02c3.75,1.2,1.95,2.09,1.95,2.09c-13.03-0.149-25.32,16.33-25.32,16.33
		c-1.19,0.601-1.19-2.39-1.19-2.39c-5.55-7.04-9.56-7.73-9.56-7.73c-2.6-0.41-18.64,0.221-18.64,0.221
		c-6.13,0.659-8.38-1.19-8.38-1.19c-2.9-1.98-7.45-6.93-7.45-6.93l-0.01-0.021c1.53-1,3.2-2.5,4.03-4.6l0.05,0.01
		c0.73-0.51,1.35-1.08,1.86-1.66C166.18,230.4,166.59,227.37,166.63,226.92z"/>
	<path fill="#CA9980" d="M265.32,272.72l1.04,0.891l0.09,0.1c-10.37,9.72-22.06,18.06-34.76,24.72l-0.09-0.17l-28.52-40.92
		c0,0,12.29-16.479,25.32-16.33l1.77,1.521c0,0,0,0,0.01,0l5.97,5.14L265.32,272.72z"/>
	<path fill="#C18362" d="M232.73,290.015c-2.969-3.392-5.676-6.803-8.064-10.68c-2.478-4.021-6.182-7.765-9.184-11.444
		c-3.077-3.771-5.802-7.683-8.64-11.584c-0.427-0.587-0.861-1.242-1.3-1.919c-1.562,1.748-2.462,2.952-2.462,2.952l28.52,40.92
		l0.09,0.17c1.854-0.973,3.68-1.991,5.491-3.034C235.827,293.239,233.685,291.104,232.73,290.015z"/>
	<path fill="#7389A4" d="M192.33,247.22c0,0,4.01,0.69,9.56,7.73c0,0,0,2.99,1.19,2.39c0,0,0.9-1.204,2.462-2.952
		c-1.871-2.879-3.895-6.32-6.378-8.254c-6.338-4.933-14.959-2.245-22.273-2.245c-3.027,0-6.619,0.569-9.274-0.882
		c-2.195-1.201-5.705-4.83-7.646-5.119l-0.445,0.117c-0.546,0.5-1.12,0.932-1.676,1.295l0.01,0.021c0,0,4.55,4.949,7.45,6.93
		c0,0,2.25,1.85,8.38,1.19C173.69,247.44,189.73,246.81,192.33,247.22z"/>
	<path fill="#CA9980" d="M161.88,234.7c-0.83,2.1-2.5,3.6-4.03,4.6c-1.74,1.141-3.32,1.63-3.32,1.63
		c-1.98,0.641-7.71,2.78-11.83,4.33c-0.98,0.37-1.87,0.71-2.59,0.98c-1.19,0.45-1.95,0.739-1.95,0.739
		c-5.3,3.03-10.97,1.421-10.97,1.421l-19.3-2.37c-1.43-0.19-2.72-0.33-3.89-0.44c-9.5-0.89-11.15,0.54-11.15,0.54
		s-25.79,7.92-45.64,15.94c-1.95,0.8-3.85,1.59-5.65,2.37l-0.12,0.109c-7.01-7.729-13.27-16.149-18.65-25.16l0.08-0.05
		c0,0,12.89-1.41,27.97-3.84c13.66-2.19,29.12-5.22,38.41-8.771c0,0,10.52-3.88,13.65-5.6c0,0,2.84-1.59,7.12-2.46h0.01
		c4.4-0.89,10.32-1.01,16.2,2.16c0,0,4.44,3.33,12.52,3.229c0,0,15.95-1.72,16.66,6.36c0,0,0.07,0.88-0.43,1.771l0.04,0.01
		c0,0,7.35-0.601,8.72,0.81l0.05,0.04c-0.51,0.58-1.13,1.15-1.86,1.66L161.88,234.7z"/>
	<path fill="#C18362" d="M154.074,238.994c-4.901,1.005-9.393,2.99-14.088,4.749c-4.812,1.802-8.842,1.393-13.868,0.636
		c-8.653-1.303-17.476-2.965-26.604-3.113c-5.297-0.086-10.423,1.522-15.481,3.036c-6.549,1.96-13.313,3.857-19.551,6.657
		c-5.274,2.366-10.535,4.28-15.849,6.503c-3.356,1.403-6.804,2.345-10.027,3.87c0.932,1.085,1.875,2.159,2.835,3.218l0.12-0.109
		c1.8-0.78,3.7-1.57,5.65-2.37c19.85-8.021,45.64-15.94,45.64-15.94s1.65-1.43,11.15-0.54c1.17,0.11,2.46,0.25,3.89,0.44l19.3,2.37
		c0,0,5.67,1.609,10.97-1.421c0,0,0.76-0.289,1.95-0.739c0.72-0.271,1.61-0.61,2.59-0.98c4.12-1.55,9.85-3.689,11.83-4.33
		c0,0,1.58-0.489,3.32-1.63c0.335-0.22,0.678-0.467,1.016-0.736C157.244,238.643,155.594,238.683,154.074,238.994z"/>
	<path fill="#B5826E" d="M117.57,278.25l-21.26,3.479c-19.4,4.54-31.6-0.159-38.98-6.09c1.49-9.189,19.84-16.25,19.84-16.25
		c10.64-3.189,26.83-13.8,26.83-13.8c1.17,0.11,2.46,0.25,3.89,0.44l19.3,2.37c0,0,5.67,1.609,10.97-1.421
		c0,0,0.76-0.289,1.95-0.739l0.03,0.069c0,0,17.85-0.939,17.66,15.221c0,0-2.44,29.489-1.88,39.449c0,0-0.27,0.561-0.86,1.28
		c-1.41,1.74-4.66,4.47-10.49,3.01h-0.08c-0.03,1.641-0.04,3.261-0.02,4.801c0,2.09,0.05,4.02,0.15,5.659l-0.01,0.07
		c-6.64-0.57-13.17-1.56-19.56-2.939l0.04-0.17c-2.72-10.69-2.59-25.53-2.47-30.2h-0.08c-0.35-0.57-0.66-1.25-0.93-1.95l-0.04,0.01
		c-1.5-0.53-2.81-1.54-3.8-2.51L117.57,278.25z"/>
	<path fill="#945E43" d="M127.747,313.398c-0.215-1.186-0.424-2.382-0.59-3.609c-0.576-4.257-0.527-8.945-1.171-13.253
		c-0.662-4.424-1.478-8.723-1.721-13.181c-0.087-1.604-1.848-13.603-4.998-8.608c-1.348-0.426-2.34-1.604-3.24-2.634
		c-0.155,0.685-0.818,1.267-0.709,2.296c-1.748-0.117-3.466,0.292-5.222,0.38c-10.6,0.529-21.844,2.726-31.979,0.675
		c-4.745-0.96-12.452-2.01-18.198-4.979c-1.337,1.61-2.295,3.34-2.589,5.154c7.38,5.931,19.58,10.63,38.98,6.09l21.26-3.479
		l0.2-0.21c0.99,0.97,2.3,1.979,3.8,2.51l0.04-0.01c0.27,0.7,0.58,1.38,0.93,1.95h0.08c-0.12,4.67-0.25,19.51,2.47,30.2l-0.04,0.17
		C125.944,313.054,126.847,313.221,127.747,313.398z"/>
	<path fill="#F6B4AB" d="M92.85,246.13c0,0,1.65-1.43,11.15-0.54c0,0-16.19,10.61-26.83,13.8c0,0-18.35,7.061-19.84,16.25
		c-7.59-6.1-10.09-13.5-10.09-13.5l-0.03-0.069C67.06,254.05,92.85,246.13,92.85,246.13z"/>
	<path fill="#F49D91" d="M57.33,275.64c0.294-1.814,1.252-3.544,2.589-5.154c-3.298-1.703-5.952-4.036-7.024-7.353
		c6.654-3.454,14.771-5.592,21.302-8.114c4.166-1.609,8.029-4.31,12.192-6.262c2.118-0.993,5.083-1.874,7.698-3.081
		c-0.954,0.22-1.237,0.454-1.237,0.454s-25.79,7.92-45.64,15.94l0.03,0.069C47.24,262.14,49.74,269.54,57.33,275.64z"/>
	<path fill="#666666" d="M57.33,275.64c7.38,5.931,19.58,10.63,38.98,6.09l21.26-3.479l0.2-0.21c0.99,0.97,2.3,1.979,3.8,2.51
		l0.04-0.01c0.27,0.7,0.58,1.38,0.93,1.95h0.08c-0.12,4.67-0.25,19.51,2.47,30.2l-0.04,0.17C92.23,305.8,63.2,288.53,41.44,264.55
		l0.12-0.109c1.8-0.78,3.7-1.57,5.65-2.37l0.03,0.069C47.24,262.14,49.74,269.54,57.33,275.64z"/>
	<path fill="#444444" d="M122.62,282.49h-0.08c-0.35-0.57-0.66-1.25-0.93-1.95l-0.04,0.01c-1.5-0.53-2.81-1.54-3.8-2.51l-0.2,0.21
		l-21.26,3.479c-19.4,4.54-31.6-0.159-38.98-6.09c-2.315-1.86-4.151-3.84-5.593-5.696c5.831,14.147,25.637,16.874,39.352,15.589
		c4.941-0.463,9.8-1.119,14.663-1.852c1.98-0.299,3.971-0.657,5.917-0.973c3.101-0.502,2.929-0.568,4.688,1.491
		c0.334,0.392,1.244,0.694,1.756,1.325c0.275,0.341,1.085,2.262,1.279,2.838c0.664,1.972,0.466,4.62,0.766,6.694
		c0.63,4.356,1.476,8.705,2.071,13.132c0.123,0.914,0.239,2.461,0.47,4.142c0.782,0.181,1.564,0.361,2.351,0.53l0.04-0.17
		C122.37,302,122.5,287.16,122.62,282.49z"/>
	<polygon fill="#8CA1C3" points="183.38,206.95 183.169,207.019 183.481,207.255 183.48,207.25 	"/>
	<path fill="#CBCBCB" d="M180.467,213.435c0.803-1.53,2.316-3.171,3.335-4.182c-0.146-0.555-0.263-1.21-0.322-1.998l-0.312-0.236
		l-15.159,4.941L180.467,213.435z"/>
	<path fill="#CBCBCB" d="M114.12,151.36c0.06-0.021,0.12-0.04,0.18-0.07C114.24,151.31,114.18,151.34,114.12,151.36z M97.49,179.8
		c0.53,0.04,1.07,0.061,1.62,0.061c0,0,4.97-0.42,5.72-0.42c0,0,6.79,0.09,6.71-6.54c0,0,2.98-1.25,2.24-4.061
		c0,0-0.09-0.92,0.49-1.25c0,0,1.08-0.74,0.92-2.07c0,0-0.29-1.51-0.03-3.609l-0.03-0.07c2.04-0.729,1.99-2.37,1.99-2.37
		c0.24-1.229-0.93-2.689-0.93-2.689c-0.3-0.301-2.41-3.11-2.41-3.11c-0.85-1.14-1.17-2.35-1.25-3.4c1.07-0.3,2.14-0.68,2.56-1.159
		c1.01-2.091,1.37-4.551,1.49-6.341l0.23,0.011c7.97-3.141,7.61-13,7.61-13c-0.53-9.23-10.3-12.811-10.3-12.811
		c-6.62-3.26-10.6-6.149-10.6-6.149c0.65-0.4,1.64-1.74,1.64-1.74c1.49-2.061,5.39-4.61,5.39-4.61l0.04-0.13
		c2.66,0.89,4.77-0.55,4.77-0.55c1.53-1.13,1.53-4.13,1.53-4.13c0-0.351,0-0.83,0-1.4c1.31-1.46,1.73-3.569,1.73-3.569
		c0.04-0.23,0.08-0.421,0.12-0.601l-0.04-0.11c0,0-0.17-0.1-0.43-0.319c0.38,0.33,1.03-0.01,1.65-0.73
		c0.17-0.189,0.32-0.399,0.44-0.6c2.16-1.17,2.79-2.54,2.79-2.54c1.47-3.63,2.5-7.09,3.22-10.18h0.01c3-3.271,3.45-8.811,3.45-8.811
		c0.38,0.391,0.25,2.18,0.25,2.18c4.61-11.779-2.81-22.8-2.81-22.8c0.51,0.391,2.05,1.67,2.05,1.67
		C126.11,42.5,115.87,35.2,115.87,35.2c-13.58-9.86-25.69-4.221-25.69-4.221S73.46,29.58,64.2,49.51c0,0-5.24,12.29-6.24,23.57
		c0,0-8.48,16.899-25.71,23.86c-0.19,0.09-0.38,0.17-0.57,0.239c0,0-18.11,5.79-23.85,13.58C28.05,46.83,87.83,0.5,158.45,0.5
		c17.07,0,33.51,2.71,48.92,7.72l-0.06,0.17c-9.34,4.07-14.43,14.601-14.43,14.601c-7.14,14.95,3.53,21.859,3.53,21.859
		s2.06,1.101,6.3,2.32l-0.02,0.06c2.07,4.051,5.67,9.011,11.86,14.681c0,0.01,0,0.01,0.01,0.02c0.08,0.11,0.19,0.21,0.31,0.32
		c0,0,0.05,0.04,0.14,0.09c0,0,0.01-0.01,0.01,0c1.37,1.25,2.87,2.53,4.5,3.84c0,0,7.63,3.08,5.76,23.021c0,0-3.6,11.51,6.83,8.279
		c0,0,6.12-3.96,8.63,0.721c0,0,2.35,4.34,2.81,5.52c0,0,1,3.83,5.74,1.91c0,0-1.28,6.2,3.82,6.93c0,0,10.2-1.819,12.3,5.92
		c0,0,1.28,5.101,7.29,4.551c0,0,12.19-3.23,21.86-17.04l0.17,0.12c0,0,11.07,9.39,11.87,18.08c0,0,0.07,2.689-0.65,3.68
		c0,0-20.33,19.63-26.3,47.35l-0.1-0.02c-1.5,0-7.61,1.39-7.61,1.39c-15.44,2.36-33.35,0.64-33.35,0.64l-0.26-0.01
		c-0.05-0.29-0.07-0.439-0.07-0.439c-0.74-2.03-2.28-0.261-2.28-0.261c-5.3-0.76-10.34,1.011-10.34,1.011
		c-4.8,1.51-20.94,3.529-20.94,3.529c-6.65,0.841-8.75,4.04-8.75,4.04c-1.94,2.61-5.13,4.79-5.13,4.79
		c-2.78,1.601-4.96,6.061-4.96,6.061c-0.76,2.01-4.88,4.2-4.88,4.2c-2.28,1.689,0.97,3.25,1.82,3.609l-0.05,0.11l-17.84,6.25
		l-0.06,0.06c-0.11-0.08-0.2-0.14-0.27-0.2c0,0-2.93-2.1-8.41-1.6c0,0-1.91,0-3.04,2.24c-4.09-0.63-9.54-3.9-9.54-3.9
		c-6.28-4.13-16.99-6.01-16.99-6.01c-4.77-1.04-15.7-10.03-18.3-12.2c-0.37-0.319-0.57-0.49-0.57-0.49
		c-3.34-2.489-6.87-4.01-10.04-4.939c-0.25-1.59-0.2-3.271-0.2-3.271V179.8z"/>
	<path fill="#E3B39E" d="M115.16,151.104l-2.468,0.175c0.177,0.78,0.5,1.602,1.089,2.392c0,0,1.525,2.03,2.165,2.821
		C116.579,154.416,115.16,151.104,115.16,151.104z"/>
	<path fill="#FFFFFF" d="M119.346,91.407c-1.19-0.805-2.456-0.907-2.456-0.907s0,0.61,0,1.52h0.09c0.46,0.82,0.95,1.341,1.29,1.641
		c0.067,0.059,0.145,0.089,0.228,0.106C117.612,92.49,118.575,91.757,119.346,91.407z"/>
	<path fill="#222222" d="M119.92,92.93c0.17-0.189,0.32-0.399,0.44-0.6c-0.307-0.385-0.658-0.682-1.014-0.923
		c-0.771,0.35-1.734,1.083-0.849,2.359C118.882,93.852,119.41,93.522,119.92,92.93z"/>
	<path fill="#FFFFFF" d="M98.75,154.27c0,0,3.62-0.29,5.42-1.1l0.02,0.04c0.24,0.15,0.41,0.44,0.41,0.78c0,0.37-0.2,0.68-0.49,0.819
		c-0.05,0.03-0.12,0.051-0.18,0.051C100.56,155.91,98.75,154.27,98.75,154.27z"/>
	<path fill="#5B2713" d="M113.56,145.5c0.97-0.58,1.86-1,2.68-1.32c-0.12,0.45-0.26,0.92-0.44,1.4c-0.27,0.13-0.51,0.26-0.7,0.36
		c-0.49,0.279-1.12,0.689-1.26,0.739c-0.45,0.15-0.59,0.021-0.59,0.021C112.61,146.11,113.56,145.5,113.56,145.5z"/>
	<path fill="#5B2713" d="M106.18,147.979c-1.33,0.11-3.89,0.61-7.6,2.48c0,0-1.57,0.91-1.57,0.47c0,0,2.12-3.96,10.46-4.529
		c0,0,1.45-0.061,1.2,1.029c0,0-0.05,0.23-0.63,0.4C107.84,147.88,106.9,147.91,106.18,147.979z"/>
	<path fill="#CBCBCB" d="M142.7,245.26c4.12-1.55,9.85-3.689,11.83-4.33c0,0,1.58-0.489,3.32-1.63l0.01,0.021
		c0,0,4.55,4.949,7.45,6.93c0,0,2.25,1.85,8.38,1.19c0,0,16.04-0.631,18.64-0.221c0,0,4.01,0.69,9.56,7.73c0,0,0,2.99,1.19,2.39
		l28.52,40.92l0.09,0.17c-11.93,6.25-24.76,11.03-38.24,14.08l-0.05-0.25l-3.49-35.72c-2.32-19.61-17.52-23.53-17.52-23.53
		l-29.67-7.71L142.7,245.26z"/>
	<path fill="#666666" d="M193.45,312.51c-8.02,1.811-16.28,3.021-24.72,3.561l-0.01-0.08c2.99-0.53,3.69-2.82,3.69-2.82
		c0.71-5.72-5.19-5.45-5.19-5.45c-2.64,0.44-10.37-1.08-10.37-1.08c0.47-1.64-1.09-1.41-1.09-1.41c0.54-1.319-0.55-1.63-0.55-1.63
		s0.76-0.75,0.09-1.31l-0.24-0.03c0.59-0.72,0.86-1.28,0.86-1.28c-0.56-9.96,1.88-39.449,1.88-39.449
		c0.19-16.16-17.66-15.221-17.66-15.221l-0.03-0.069c0.72-0.271,1.61-0.61,2.59-0.98l0.02,0.04l29.67,7.71
		c0,0,15.2,3.92,17.52,23.53l3.49,35.72L193.45,312.51z"/>
	<path fill="#444444" d="M167.22,307.72c0,0,5.9-0.27,5.19,5.45c0,0-0.7,2.29-3.69,2.82l0.01,0.08c-3.4,0.22-6.83,0.33-10.28,0.33
		c-4.66,0-9.28-0.2-13.84-0.601l0.01-0.07c-0.1-1.64-0.15-3.569-0.15-5.659h0.06c7.95,1.72,12.32-3.431,12.32-3.431
		S164.58,308.16,167.22,307.72z"/>
	<path fill="#CBCBCB" d="M155.76,305.229c0,0,1.56-0.229,1.09,1.41c0,0-4.37,5.15-12.32,3.431h-0.06
		c-0.02-1.54-0.01-3.16,0.02-4.801h0.08c5.83,1.46,9.08-1.27,10.49-3.01l0.24,0.03c0.67,0.56-0.09,1.31-0.09,1.31
		S156.3,303.91,155.76,305.229z"/>
	<path fill="#F6B4AB" d="M97.69,183.08c3.17,0.93,6.7,2.45,10.04,4.939c0,0,0.2,0.171,0.57,0.49c-0.43,0.28-11.17,7.47-10.14,24.69
		l-0.05,0.109c0.72,0.311,1.49,0.67,2.3,1.08c0,0,6.27,3.311,9.61,4.28c-4.28,0.87-7.12,2.46-7.12,2.46
		c-3.13,1.72-13.65,5.6-13.65,5.6c-9.29,3.551-24.75,6.58-38.41,8.771l-0.01-0.04c5.85-11.29,8.51-34.03,8.51-34.03
		c0.93-10.54,2.99-18.319,2.99-18.319l-0.01-0.08c4.26-0.521,8.23-3.62,8.23-3.62v-0.07c2.08,0.04,3.92-0.59,5.41-1.39l0.02,0.04
		c0,0,5.34,1.83,10.9,2.34c0,0,7.75,0.66,9.29,2.27l-0.02,0.07C96.65,182.79,97.16,182.93,97.69,183.08z"/>
	<path fill="#FFFFFF" d="M212.75,195.58c0.47,1.34,0.58,2.53,0.21,2.66c-0.29,0.1-0.79-0.5-1.22-1.431
		c-0.11-0.239-0.21-0.5-0.31-0.77c-0.16-0.46-0.28-0.89-0.34-1.28c-0.14-0.75-0.1-1.29,0.14-1.38
		C211.6,193.26,212.27,194.24,212.75,195.58z"/>
	<path fill="#FFFFFF" d="M194.415,202.107c-0.47-1.34-0.506-2.682,1.105-3.548c0.48-0.17,1.04,0.19,1.52,0.95v0.021l-0.69,0.229
		c-0.31,0.11-0.38,0.71-0.16,1.33c0.22,0.62,0.67,1.04,0.97,0.93l0.69-0.239c0.01,0.18,0.02,0.35,0.01,0.5
		c-0.04,0.58-0.24,1.01-0.59,1.13C195.845,204.192,194.885,203.447,194.415,202.107z"/>
	<path fill="#FFFFFF" d="M164.91,210.12l17.84-6.25l0.05-0.11c0.13,0.061,0.2,0.09,0.2,0.09c5.43,1.15,10.22-3.26,11.05-4.06
		l0.04,0.04c-0.12,0.54-0.06,1.29,0.21,2.06c0.13,0.37,0.3,0.71,0.49,0.99l-0.04,0.021l-1.52,0.64c-2.11-0.311-4.71,1.22-6.09,2.18
		h-0.01l-3.75,1.23l-15.37,5.01l-0.1,0.16c-1.25-0.76-2.44-1.51-3.06-1.94L164.91,210.12z"/>
	<path fill="#8CA1C3" d="M187.14,205.72c1.38-0.96,3.98-2.49,6.09-2.18c0.12,0.02,0.24,0.04,0.36,0.07c0,0,1.48,0.319,1.72,2.189
		c0,0,0.51,1.99-1.72,3.67c0,0-2.27,2.15-3.24,2.66c0,0-2.73,1.83-5.12-0.28c0,0-1.48-0.97-1.75-4.6l-0.1-0.3l3.75-1.23H187.14z"/>
	<path fill="#FFFFFF" d="M211.62,196.86l-13.77,4.92l-0.69,0.239c-0.3,0.11-0.75-0.31-0.97-0.93c-0.22-0.62-0.15-1.22,0.16-1.33
		l0.69-0.229l13.96-4.75l0.09-0.021c0.06,0.391,0.18,0.82,0.34,1.28c0.1,0.27,0.2,0.53,0.31,0.77L211.62,196.86z"/>
	<path fill="#FCDCCE" d="M239.35,244.34c0,0,4.29,1.87,3.73,4.32c0,0-0.39,1.54-1.96,1.02c0,0-3-1.39-4.97-2.01l-5.97-5.14
		c0.48,0.16,4.39,1.46,6.88,1.62c0,0,1.01,0.04,2.29,0.109V244.34z"/>
	<path fill="#CBCBCB" d="M241.12,249.68c1.57,0.521,1.96-1.02,1.96-1.02c0.56-2.45-3.73-4.32-3.73-4.32v-0.08
		c1.66,0.101,3.75,0.26,4.71,0.48c0,0,1.5,0.319,1.11-2.36c0,0-0.33-1.57-1.63-2.479l-0.04-0.021c0.24-0.47,0.23-1.03,0.23-1.03
		c-0.39-3.989-5.95-5.949-5.95-5.949c-2.16-1.771-8.11-5.301-8.11-5.301l-3.73-2.88l0.01-0.05c0.13,0.03,0.21,0.04,0.21,0.04
		c4.79,0.97,5.04-1.63,5.04-1.63c1.54-3.73-2.28-4.3-2.28-4.3c-1.54-0.4-7.96-2.761-7.96-2.761c-1.33-0.72-2.83-1.189-4.14-1.5
		l0.01-0.04c5-2.319,9.49-10.109,9.49-10.109c0.74-0.561,2.41-1.21,2.41-1.21c1.11,0.28,6.29,1.3,6.29,1.3
		c0.28,2.22,1.85,1.29,1.85,1.29c0.14-0.32,0.27-0.64,0.4-0.97l0.03,0.01c0,0,31.85,6.55,41.18,7.939l0.12,0.011
		c-0.89,13.29-4.06,33.22-13.18,59.859l-0.1,0.12l-29.17-25.05C238.12,248.29,241.12,249.68,241.12,249.68z"/>
	<path fill="#2483D2" d="M265.42,272.6c9.12-26.64,12.29-46.569,13.18-59.859c0.9-13.45-0.54-20.12-0.54-20.12
		c-0.22-6.061,0.4-11.891,1.59-17.4c5.97-27.72,26.3-47.35,26.3-47.35c2.37-0.48,6.62-3.79,6.62-3.79l0.07-0.021
		c2.46,11.07,3.76,22.58,3.76,34.391c0,45.46-19.21,86.439-49.95,115.26l-0.09-0.1l-1.04-0.891L265.42,272.6z"/>
	<path fill="#5B2713" d="M304.68,98.62l-0.02,0.01c-1.25,1.87-4.57,2.95-7.67,3.57c-3.36,0.66-6.48,0.779-6.48,0.779
		c9.32-9.76-4.77-37.939-4.77-37.939L285.8,65C293.39,75.32,299.75,86.6,304.68,98.62z"/>
	<path d="M225.32,66.76c0.36-0.21,1.23-0.7,2.33-1.38l0.06,0.09c0.31,0.26,0.61,0.58,0.89,0.96c0.88,1.19,1.18,2.4,0.74,2.98
		c-0.04,0.06-0.1,0.109-0.16,0.16c-0.67,0.489-2.01-0.061-2.98-1.37c-0.18-0.24-0.33-0.49-0.46-0.74c-0.12-0.23-0.22-0.47-0.29-0.69
		L225.32,66.76z"/>
	<path fill="#5B2713" d="M234.22,54.9c-11.35,1.09-17.15,6.67-17.15,6.67c-1.01,1.02-1.74,0.89-2.05,0.77c0-0.01-0.01,0-0.01,0
		c-0.15-0.14-0.3-0.27-0.45-0.41c-0.01-0.01-0.01-0.01-0.01-0.02c-0.93-1.19,0.38-2.28,0.38-2.28c6.7-5.82,14.65-6.38,17.46-6.38
		c0.67,0,1.05,0.03,1.05,0.03c3.07,0.109,2.81,1.1,2.81,1.1C236.25,55.03,234.22,54.9,234.22,54.9z"/>
	<path fill="#FFFFFF" d="M234.3,60.74c-0.11,0.27-2.04,4.609-4.87,8.729l-0.09-0.06c0.44-0.58,0.14-1.79-0.74-2.98
		c-0.28-0.38-0.58-0.7-0.89-0.96l-0.06-0.09c0.23-0.15,0.47-0.29,0.72-0.45C230.23,63.76,232.53,62.229,234.3,60.74z"/>
	<path fill="#5B2713" d="M268.68,45.33c-14.33,3.35-26.41,4.729-36.35,4.99c-14.08,0.37-23.86-1.5-29.62-3.15
		c-4.24-1.22-6.3-2.32-6.3-2.32s-10.67-6.909-3.53-21.859c0,0,5.09-10.53,14.43-14.601l0.06-0.17
		C230.64,15.8,251.55,28.63,268.68,45.33z"/>
	<path fill="#5B2713" d="M55.2,179.99c-6.85,1.59-8.53-3.8-8.53-3.8c-6.76-21.25,4.45-50.74,4.45-50.74s1.01-3.29,3.62-7.29
		c4.44-6.811,13.54-15.67,30.25-13.86c13.53,1.46,18.53,6.521,18.53,6.521s3.98,2.89,10.6,6.149c0,0,9.77,3.58,10.3,12.811
		c0,0,0.36,9.859-7.61,13l-0.23-0.011c0.1-1.46,0.04-2.47,0.04-2.47l-0.02-0.05c-3.05,1.33-7.59,1.81-7.59,1.81
		c2.96-3.58-1.23-11.229-1.23-11.229c2.48,9.17-3.02,11.979-3.02,11.979c-3.67,1.511-9.28-1.3-9.28-1.3
		c4.07-3.21,4.05-8.13,3.28-11.77c-2.81,13.16-9.54,17.489-9.54,17.489c-1.43,0.79-3.48,0.74-5.55,0.341l-0.02,0.09
		c-2,7.84-9.83,6.2-9.83,6.2s-5.6-4.17-6.61,1.29c0,0-1.58,10.069,4.74,12.079c0,0,0.77,0.24,1.73,0.131l0.01,0.13
		c0,0,0.52,7.13,6.26,7.31c0,0-1.51,1.811-3.99,3.15c-1.49,0.8-3.33,1.43-5.41,1.39v0.07c0,0-3.97,3.1-8.23,3.62
		c-2.19,0.26-4.46-0.16-6.3-2.03C56.02,181,55.69,180.64,55.2,179.99z"/>
	<path fill="#CA9980" d="M118.27,93.66c0.26,0.22,0.43,0.319,0.43,0.319l0.04,0.11c-0.04,0.18-0.08,0.37-0.12,0.601
		c0,0-0.42,2.109-1.73,3.569c0-1.85,0-4.56,0-6.24h0.09C117.44,92.84,117.93,93.36,118.27,93.66z"/>
	<path fill="#FFFFFF" d="M106.88,82.21c-1.84-1.77-2.98-5.39-2.98-5.39s2.88,2.04,4.42,3.02c0,0,0.32,0.21,0.71,0.53l-0.06,0.07
		c-0.23,0.1-0.46,0.25-0.67,0.449c-0.68,0.65-0.88,1.551-0.44,2.021v0.01C107.52,82.75,107.19,82.51,106.88,82.21z"/>
	<path fill="#222222" d="M108.97,80.44l0.06-0.07c0.5,0.39,1.1,0.95,1.32,1.47l0.04,0.061c0,0.02-0.01,0.029-0.02,0.05
		c-0.11,0.21-0.27,0.43-0.47,0.62c-0.51,0.479-1.15,0.689-1.63,0.569c-0.16-0.04-0.3-0.12-0.41-0.229
		c-0.44-0.47-0.24-1.37,0.44-2.021C108.51,80.69,108.74,80.54,108.97,80.44z"/>
	<path fill="#444444" stroke="#000000" stroke-linecap="round" stroke-linejoin="round" stroke-miterlimit="10" d="M116.14,82.71
		c-2.84-8.16-10.11-9.58-10.11-9.58c-1.68-0.17-1.15-1.15-1.15-1.15c0.71-0.89,3.46,0.091,3.46,0.091c7.72,2.52,9.07,6.59,9.07,6.59
		c2.21,4.33,0.32,5.02,0.32,5.02C116.23,84.04,116.14,82.71,116.14,82.71z"/>
	<path fill="#7AA8A7" d="M62.33,183.11c0,0-2.06,7.779-2.99,18.319c0,0-2.66,22.74-8.51,34.03l0.01,0.04
		c-15.08,2.43-27.97,3.84-27.97,3.84l-0.08,0.05C8.63,215.72,0.5,188.03,0.5,158.45c0-16.62,2.57-32.641,7.32-47.681
		c0,0,0-0.01,0.01-0.01c5.74-7.79,23.85-13.58,23.85-13.58c0.19-0.069,0.38-0.149,0.57-0.239l0.02,0.039
		c0,0,6.22,15.181,22.37,21.12l0.1,0.061c-2.61,4-3.62,7.29-3.62,7.29s-11.21,29.49-4.45,50.74c0,0,1.68,5.39,8.53,3.8
		c0.49,0.649,0.82,1.01,0.82,1.01c1.84,1.87,4.11,2.29,6.3,2.03L62.33,183.11z"/>
	<path fill="#444444" stroke="#000000" stroke-linecap="round" stroke-linejoin="round" stroke-miterlimit="10" d="M66.73,67.17
		c-1.03,0.49-2.73,4.3-2.73,4.3c-2.42,3.42-6.04,1.61-6.04,1.61c1-11.28,6.24-23.57,6.24-23.57c9.26-19.93,25.98-18.53,25.98-18.53
		s12.11-5.64,25.69,4.221c0,0,10.24,7.3,13.45,16.649c0,0-1.54-1.279-2.05-1.67c0,0,7.42,11.021,2.81,22.8c0,0,0.13-1.789-0.25-2.18
		c0,0-0.45,5.54-3.45,8.811h-0.01c1.66-7.101,1.68-12.221,1.68-12.78c-3.14-4.38-9.87-9.46-9.87-9.46s-0.38-0.13-0.61-0.2
		c0.61,0.2,2.22,3.42,2.22,3.42c-3.22-0.8-15.71-9.46-15.71-9.46c-1.61,5.64-9.87,8.66-9.87,8.66c-4.03,1.41-11.08,7.25-11.08,7.25
		c-1.81-0.41-3.82-3.83-3.82-3.83c1.41-3.42-0.53-8.01-0.53-8.01s-1.16-4.88-7.65-4.65c0,0-6.04-0.229-5.34,11.61
		c0,0,0.33,2.319,1.06,4.979L66.73,67.17z"/>
	<path fill="none" stroke="#000000" stroke-linecap="round" stroke-linejoin="round" stroke-miterlimit="10" d="M7.83,110.76
		C28.05,46.83,87.83,0.5,158.45,0.5c17.07,0,33.51,2.71,48.92,7.72c23.27,7.58,44.18,20.41,61.31,37.11
		c6.23,6.06,11.96,12.64,17.12,19.67c7.59,10.32,13.95,21.6,18.88,33.62c3.34,8.16,6.02,16.66,7.96,25.439
		c2.46,11.07,3.76,22.58,3.76,34.391c0,45.46-19.21,86.439-49.95,115.26c-10.37,9.72-22.06,18.06-34.76,24.72
		c-11.93,6.25-24.76,11.03-38.24,14.08c-8.02,1.811-16.28,3.021-24.72,3.561c-3.4,0.22-6.83,0.33-10.28,0.33
		c-4.66,0-9.28-0.2-13.84-0.601c-6.64-0.57-13.17-1.56-19.56-2.939C92.23,305.8,63.2,288.53,41.44,264.55
		c-7.01-7.729-13.27-16.149-18.65-25.16C8.63,215.72,0.5,188.03,0.5,158.45c0-16.62,2.57-32.641,7.32-47.681"/>
	<path fill="none" stroke="#000000" stroke-linecap="round" stroke-linejoin="round" stroke-miterlimit="10" d="M110.03,218.67
		c4.4-0.89,10.32-1.01,16.2,2.16c0,0,4.44,3.33,12.52,3.229c0,0,15.95-1.72,16.66,6.36c0,0,0.07,0.88-0.43,1.771
		c-0.57,1.01-1.86,2.039-4.82,1.77c0,0-3.84-0.21-5.66,0.1c0,0-3.33-0.1-6.05-0.51c0,0-3.64-1.21-9.09,0.91c0,0-3.23,1.21-4.45,1.51
		"/>
	<path fill="none" stroke="#000000" stroke-linecap="round" stroke-linejoin="round" stroke-miterlimit="10" d="M22.87,239.34
		c0,0,12.89-1.41,27.97-3.84c13.66-2.19,29.12-5.22,38.41-8.771c0,0,10.52-3.88,13.65-5.6c0,0,2.84-1.59,7.12-2.46"/>
	<path fill="none" stroke="#000000" stroke-linecap="round" stroke-linejoin="round" stroke-miterlimit="10" d="M41.56,264.44
		c1.8-0.78,3.7-1.57,5.65-2.37c19.85-8.021,45.64-15.94,45.64-15.94s1.65-1.43,11.15-0.54c1.17,0.11,2.46,0.25,3.89,0.44l19.3,2.37
		c0,0,5.67,1.609,10.97-1.421c0,0,0.76-0.289,1.95-0.739c0.72-0.271,1.61-0.61,2.59-0.98c4.12-1.55,9.85-3.689,11.83-4.33
		c0,0,1.58-0.489,3.32-1.63c1.53-1,3.2-2.5,4.03-4.6c0.25-0.641,0.43-1.34,0.5-2.101"/>
	<path fill="none" stroke="#000000" stroke-linecap="round" stroke-linejoin="round" stroke-miterlimit="10" d="M166.63,226.92
		c-0.04,0.45-0.45,3.48-2.84,6.13c-0.51,0.58-1.13,1.15-1.86,1.66"/>
	<path fill="none" stroke="#000000" stroke-linecap="round" stroke-linejoin="round" stroke-miterlimit="10" d="M166.64,226.87
		c0,0,0,0.01-0.01,0.04"/>
	<path fill="none" stroke="#000000" stroke-linecap="round" stroke-linejoin="round" stroke-miterlimit="10" d="M155.02,232.2
		c0,0,7.35-0.601,8.72,0.81"/>
	<path fill="none" stroke="#000000" stroke-linecap="round" stroke-linejoin="round" stroke-miterlimit="10" d="M157.86,239.32
		c0,0,4.55,4.949,7.45,6.93c0,0,2.25,1.85,8.38,1.19c0,0,16.04-0.631,18.64-0.221c0,0,4.01,0.69,9.56,7.73c0,0,0,2.99,1.19,2.39
		c0,0,12.29-16.479,25.32-16.33c0,0,1.8-0.89-1.95-2.09l-15.06-9.02c-3.93-6.03-9.87-5.46-9.87-5.46c-2.3,0.479-3.53-0.11-3.53-0.11
		s-6.95-5.83-19.96-6.95c0,0-2.91-0.9-5.83-2.7c0,0-2.22-1.3-4.29-2.56c-1.25-0.76-2.44-1.51-3.06-1.94
		c-0.11-0.08-0.2-0.14-0.27-0.2c0,0-2.93-2.1-8.41-1.6c0,0-1.91,0-3.04,2.24c-0.07,0.149-0.14,0.31-0.21,0.479
		c0,0-0.9,3.141,3.14,5.83c0,0,8.55,4.91,10.57,9.98c0.01,0.01,0,0.01,0,0.01c0.23,0.56,0.37,1.12,0.42,1.67"/>
	
		<line fill="none" stroke="#000000" stroke-linecap="round" stroke-linejoin="round" stroke-miterlimit="10" x1="231.6" y1="298.26" x2="203.08" y2="257.34"/>
	<polyline fill="none" stroke="#000000" stroke-linecap="round" stroke-linejoin="round" stroke-miterlimit="10" points="
		230.18,242.53 236.15,247.67 265.32,272.72 266.36,273.61 	"/>
	
		<line fill="none" stroke="#000000" stroke-linecap="round" stroke-linejoin="round" stroke-miterlimit="10" x1="228.4" y1="241.01" x2="230.17" y2="242.53"/>
	<path fill="none" stroke="#000000" stroke-linecap="round" stroke-linejoin="round" stroke-miterlimit="10" d="M76.55,165.36
		c-0.73,1.43-1.89,1.89-2.87,2c-0.96,0.109-1.73-0.131-1.73-0.131c-6.32-2.01-4.74-12.079-4.74-12.079
		c1.01-5.46,6.61-1.29,6.61-1.29s7.83,1.64,9.83-6.2"/>
	<path fill="none" stroke="#000000" stroke-linecap="round" stroke-linejoin="round" stroke-miterlimit="10" d="M73.54,155.97
		c0,0-4.99-3.17-4.89,1.271"/>
	<path fill="none" stroke="#000000" stroke-linecap="round" stroke-linejoin="round" stroke-miterlimit="10" d="M74.96,162.08
		c0,0-0.49,1.17-1.23,0.78c0,0-1.56-1.17-1.36,1.029"/>
	<path fill="none" stroke="#000000" stroke-linecap="round" stroke-linejoin="round" stroke-miterlimit="10" d="M106.18,147.979
		c-1.33,0.11-3.89,0.61-7.6,2.48c0,0-1.57,0.91-1.57,0.47c0,0,2.12-3.96,10.46-4.529c0,0,1.45-0.061,1.2,1.029
		c0,0-0.05,0.23-0.63,0.4C107.84,147.88,106.9,147.91,106.18,147.979z"/>
	<path fill="none" stroke="#000000" stroke-linecap="round" stroke-linejoin="round" stroke-miterlimit="10" d="M104.11,154.81
		c0.02,0,0.05-0.01,0.07-0.02"/>
	<path fill="none" stroke="#000000" stroke-linecap="round" stroke-linejoin="round" stroke-miterlimit="10" d="M104.92,152.67
		c-0.17,0.18-0.43,0.34-0.75,0.5c-1.8,0.81-5.42,1.1-5.42,1.1s1.81,1.641,5.18,0.591"/>
	<path fill="none" stroke="#000000" stroke-linecap="round" stroke-linejoin="round" stroke-miterlimit="10" d="M104.19,153.21
		c0.24,0.15,0.41,0.44,0.41,0.78c0,0.37-0.2,0.68-0.49,0.819c-0.05,0.03-0.12,0.051-0.18,0.051c-0.04,0.02-0.08,0.02-0.12,0.02
		c-0.44,0-0.79-0.4-0.79-0.89c0-0.141,0.02-0.28,0.07-0.391"/>
	<path fill="none" stroke="#000000" stroke-linecap="round" stroke-linejoin="round" stroke-miterlimit="10" d="M114.31,151.28
		c0.02,0,0.04-0.011,0.06-0.021"/>
	<path fill="none" stroke="#000000" stroke-linecap="round" stroke-linejoin="round" stroke-miterlimit="10" d="M112.91,151.69
		c0.43-0.07,0.76-0.16,1.21-0.33c0.06-0.021,0.12-0.051,0.18-0.07"/>
	<path fill="none" stroke="#000000" stroke-linecap="round" stroke-linejoin="round" stroke-miterlimit="10" d="M115.09,149.11
		c-0.42,0.479-1.49,0.859-2.56,1.159"/>
	<path fill="none" stroke="#000000" stroke-linecap="round" stroke-linejoin="round" stroke-miterlimit="10" d="M114.31,149.68
		c0.25,0.141,0.43,0.431,0.44,0.761c0.02,0.369-0.16,0.699-0.44,0.84c0,0.01-0.01,0.01-0.01,0.01c-0.06,0.03-0.12,0.05-0.18,0.07
		c-0.04,0-0.07,0.01-0.11,0.01c-0.44,0.02-0.81-0.36-0.84-0.851c0-0.14,0.02-0.279,0.07-0.399"/>
	<path fill="none" stroke="#000000" stroke-linecap="round" stroke-linejoin="round" stroke-miterlimit="10" d="M78.39,169
		c0,0,5.76,9.97,19.1,10.8c0.53,0.04,1.07,0.061,1.62,0.061c0,0,4.97-0.42,5.72-0.42c0,0,6.79,0.09,6.71-6.54
		c0,0,2.98-1.25,2.24-4.061c0,0-0.09-0.92,0.49-1.25c0,0,1.08-0.74,0.92-2.07c0,0-0.29-1.51-0.03-3.609"/>
	<path fill="none" stroke="#000000" stroke-linecap="round" stroke-linejoin="round" stroke-miterlimit="10" d="M108.58,170.44
		c0.12,0,3.45-0.671,5.19-2.29"/>
	<path fill="none" stroke="#000000" stroke-linecap="round" stroke-linejoin="round" stroke-miterlimit="10" d="M112.52,150.19
		c0,0.029,0,0.05,0.01,0.079c0.08,1.051,0.4,2.261,1.25,3.4c0,0,2.11,2.81,2.41,3.11c0,0,1.17,1.46,0.93,2.689
		c0,0,0.05,1.641-1.99,2.37c-0.21,0.09-0.44,0.15-0.7,0.21"/>
	<path fill="none" stroke="#000000" stroke-linecap="round" stroke-linejoin="round" stroke-miterlimit="10" d="M108.63,161.17
		c0,0,0.35,2.46,2.05,1.64c0,0,1.76-1.34,2.35-1.399"/>
	<path fill="none" stroke="#000000" stroke-linecap="round" stroke-linejoin="round" stroke-miterlimit="10" d="M116.62,140.3
		c0,0,0.06,1.01-0.04,2.47c-0.12,1.79-0.48,4.25-1.49,6.341"/>
	<path fill="none" stroke="#000000" stroke-linecap="round" stroke-linejoin="round" stroke-miterlimit="10" d="M116.24,144.18
		c-0.82,0.32-1.71,0.74-2.68,1.32c0,0-0.95,0.61-0.31,1.2c0,0,0.14,0.13,0.59-0.021c0.14-0.05,0.77-0.46,1.26-0.739
		c0.19-0.101,0.43-0.23,0.7-0.36C115.98,145.1,116.12,144.63,116.24,144.18z"/>
	<path fill="none" stroke="#000000" stroke-linecap="round" stroke-linejoin="round" stroke-miterlimit="10" d="M115.11,149.38
		c0,0-0.13,1.311,0,1.97c0,0,1.16,2.761,0.85,4.811"/>
	<path fill="none" stroke="#000000" stroke-linecap="round" stroke-linejoin="round" stroke-miterlimit="10" d="M87.07,133.53
		c0,0-5.51,11.109-11.12,11.33c0,0,3.88,1.97,7.72,2.71c2.07,0.399,4.12,0.449,5.55-0.341c0,0,6.73-4.329,9.54-17.489"/>
	<path fill="none" stroke="#000000" stroke-linecap="round" stroke-linejoin="round" stroke-miterlimit="10" d="M97.21,125.01
		c0,0,0.99,2,1.55,4.73c0.77,3.64,0.79,8.56-3.28,11.77c0,0,5.61,2.811,9.28,1.3c0,0,5.5-2.81,3.02-11.979
		c0,0,4.19,7.649,1.23,11.229c0,0,4.54-0.479,7.59-1.81c1.11-0.48,2.02-1.06,2.45-1.78"/>
	<path fill="none" stroke="#000000" stroke-linecap="round" stroke-linejoin="round" stroke-miterlimit="10" d="M116.81,142.78
		c7.97-3.141,7.61-13,7.61-13c-0.53-9.23-10.3-12.811-10.3-12.811c-6.62-3.26-10.6-6.149-10.6-6.149s-5-5.061-18.53-6.521
		c-16.71-1.81-25.81,7.05-30.25,13.86c-2.61,4-3.62,7.29-3.62,7.29s-11.21,29.49-4.45,50.74c0,0,1.68,5.39,8.53,3.8
		c0.01-0.011,0.02-0.011,0.03-0.011"/>
	<path fill="none" stroke="#000000" stroke-linecap="round" stroke-linejoin="round" stroke-miterlimit="10" d="M73.69,167.49
		c0,0,0.52,7.13,6.26,7.31c0,0-1.51,1.811-3.99,3.15c-1.49,0.8-3.33,1.43-5.41,1.39c-2.25-0.05-4.8-0.88-7.47-3.149"/>
	<path fill="none" stroke="#000000" stroke-linecap="round" stroke-linejoin="round" stroke-miterlimit="10" d="M70.55,179.41
		c0,0-3.97,3.1-8.23,3.62c-2.19,0.26-4.46-0.16-6.3-2.03c0,0-0.33-0.36-0.82-1.01c-1.51-2.03-4.6-6.86-4.45-12.48"/>
	<path fill="none" stroke="#000000" stroke-linecap="round" stroke-linejoin="round" stroke-miterlimit="10" d="M87.31,181.67
		c0,0,3.79-0.229,8.84,1c0.5,0.12,1.01,0.26,1.54,0.41c3.17,0.93,6.7,2.45,10.04,4.939c0,0,0.2,0.171,0.57,0.49
		c2.6,2.17,13.53,11.16,18.3,12.2c0,0,10.71,1.88,16.99,6.01c0,0,5.45,3.271,9.54,3.9c0.01,0,0.01,0,0.02,0"/>
	<path fill="none" stroke="#000000" stroke-linecap="round" stroke-linejoin="round" stroke-miterlimit="10" d="M75.98,177.99
		c0,0,5.34,1.83,10.9,2.34c0,0,7.75,0.66,9.29,2.27"/>
	<path fill="none" stroke="#000000" stroke-linecap="round" stroke-linejoin="round" stroke-miterlimit="10" d="M97.49,179.81
		c0,0-0.05,1.681,0.2,3.271c0,0.02,0.01,0.03,0.01,0.05"/>
	<path fill="none" stroke="#000000" stroke-linecap="round" stroke-linejoin="round" stroke-miterlimit="10" d="M90.89,211.09
		c0,0,2.58,0.19,7.22,2.22c0.72,0.311,1.49,0.67,2.3,1.08c0,0,6.27,3.311,9.61,4.28h0.01"/>
	<path fill="none" stroke="#000000" stroke-linecap="round" stroke-linejoin="round" stroke-miterlimit="10" d="M62.33,183.11
		c0,0-2.06,7.779-2.99,18.319c0,0-2.66,22.74-8.51,34.03"/>
	<path fill="none" stroke="#000000" stroke-linecap="round" stroke-linejoin="round" stroke-miterlimit="10" d="M203.24,253.979
		c0,0,6.92-11.14,19.25-14.39"/>
	<path fill="none" stroke="#000000" stroke-linecap="round" stroke-linejoin="round" stroke-miterlimit="10" d="M205.28,188.88
		c0,0-0.75,2.95-4.96,5.47c0,0-3.45,1.511-6.14,5.301c0,0-0.04,0.05-0.13,0.14c-0.83,0.8-5.62,5.21-11.05,4.06
		c0,0-0.07-0.029-0.2-0.09c-0.85-0.359-4.1-1.92-1.82-3.609c0,0,4.12-2.19,4.88-4.2c0,0,2.18-4.46,4.96-6.061
		c0,0,3.19-2.18,5.13-4.79c0,0,2.1-3.199,8.75-4.04c0,0,16.14-2.02,20.94-3.529c0,0,5.04-1.771,10.34-1.011
		c0,0,1.54-1.77,2.28,0.261c0,0,0.02,0.149,0.07,0.439c0.41,2.8,2.43,18.25-1.06,27.561c-0.13,0.33-0.26,0.649-0.4,0.97
		c0,0-1.57,0.93-1.85-1.29c0,0-5.18-1.02-6.29-1.3c0,0-1.67,0.649-2.41,1.21c0,0-4.49,7.79-9.49,10.109"/>
	
		<line fill="none" stroke="#000000" stroke-linecap="round" stroke-linejoin="round" stroke-miterlimit="10" x1="187.14" y1="205.72" x2="187.3" y2="205.67"/>
	<path fill="none" stroke="#000000" stroke-linecap="round" stroke-linejoin="round" stroke-miterlimit="10" d="M215.85,221.3
		c1.79,0.32,5.36,2.11,5.36,2.11c1.44,0.62,3.99,1.12,4.74,1.26c0.13,0.03,0.21,0.04,0.21,0.04c4.79,0.97,5.04-1.63,5.04-1.63
		c1.54-3.73-2.28-4.3-2.28-4.3c-1.54-0.4-7.96-2.761-7.96-2.761c-1.33-0.72-2.83-1.189-4.14-1.5c-1.98-0.46-3.55-0.55-3.55-0.55
		s-2.41-0.529-5.92,1.32c0,0-1.88,1.05-11.2,0l-28.14-3.33l15.37-5.01l3.75-1.23"/>
	<path fill="none" stroke="#000000" stroke-linecap="round" stroke-linejoin="round" stroke-miterlimit="10" d="M225.94,224.72
		l3.73,2.88c0,0,5.95,3.53,8.11,5.301c0,0,5.56,1.96,5.95,5.949c0,0,0.01,0.561-0.23,1.03c-0.29,0.58-0.98,1.021-2.58,0.08
		c0,0-2.62-1.37-4.06-1.7c0,0-2.28-0.72-3.27-1.24c0,0-1.76-0.72-2.42-0.92c0,0-3-0.909-3.79-1.569c0,0-1.24-0.71-2.42-1.11"/>
	<path fill="none" stroke="#000000" stroke-linecap="round" stroke-linejoin="round" stroke-miterlimit="10" d="M230.13,242.51
		c0,0,0.01,0,0.04,0.021c0,0,0,0,0.01,0c0.48,0.16,4.39,1.46,6.88,1.62c0,0,1.01,0.04,2.29,0.109c1.66,0.101,3.75,0.26,4.71,0.48
		c0,0,1.5,0.319,1.11-2.36c0,0-0.33-1.57-1.63-2.479"/>
	<path fill="none" stroke="#000000" stroke-linecap="round" stroke-linejoin="round" stroke-miterlimit="10" d="M239.35,244.34
		c0,0,4.29,1.87,3.73,4.32c0,0-0.39,1.54-1.96,1.02c0,0-3-1.39-4.97-2.01c-0.02-0.01-0.03-0.01-0.05-0.02"/>
	<path fill="none" stroke="#000000" stroke-linecap="round" stroke-linejoin="round" stroke-miterlimit="10" d="M197.85,201.78
		c0.01,0.18,0.02,0.35,0.01,0.5c-0.04,0.58-0.24,1.01-0.59,1.13c-0.67,0.24-1.62-0.66-2.09-2c-0.47-1.34-0.32-2.62,0.34-2.851
		c0.48-0.17,1.04,0.19,1.52,0.95"/>
	<path fill="none" stroke="#000000" stroke-linecap="round" stroke-linejoin="round" stroke-miterlimit="10" d="M211,194.78
		l-13.96,4.75l-0.69,0.229c-0.31,0.11-0.38,0.71-0.16,1.33c0.22,0.62,0.67,1.04,0.97,0.93l0.69-0.239l13.77-4.92"/>
	<path fill="none" stroke="#000000" stroke-linecap="round" stroke-linejoin="round" stroke-miterlimit="10" d="M211.09,194.76
		c-0.14-0.75-0.1-1.29,0.14-1.38c0.37-0.12,1.04,0.86,1.52,2.2c0.47,1.34,0.58,2.53,0.21,2.66c-0.29,0.1-0.79-0.5-1.22-1.431
		c-0.11-0.239-0.21-0.5-0.31-0.77C211.27,195.58,211.15,195.15,211.09,194.76z"/>
	<path fill="none" stroke="#000000" stroke-linecap="round" stroke-linejoin="round" stroke-miterlimit="10" d="M194.09,199.83
		c-0.12,0.54-0.06,1.29,0.21,2.06c0.13,0.37,0.3,0.71,0.49,0.99c0.48,0.76,1.09,1.18,1.57,1.01l0.91-0.479"/>
	<path fill="none" stroke="#000000" stroke-linecap="round" stroke-linejoin="round" stroke-miterlimit="10" d="M186.17,206.43
		c0.03-0.02,0.39-0.31,0.96-0.71h0.01c1.38-0.96,3.98-2.49,6.09-2.18c0.12,0.02,0.24,0.04,0.36,0.07c0,0,1.48,0.319,1.72,2.189
		c0,0,0.51,1.99-1.72,3.67c0,0-2.27,2.15-3.24,2.66c0,0-2.73,1.83-5.12-0.28c0,0-1.48-0.97-1.75-4.6"/>
	
		<line fill="none" stroke="#000000" stroke-linecap="round" stroke-linejoin="round" stroke-miterlimit="10" x1="164.91" y1="210.12" x2="182.75" y2="203.87"/>
	
		<line fill="none" stroke="#000000" stroke-linecap="round" stroke-linejoin="round" stroke-miterlimit="10" x1="193.23" y1="203.54" x2="194.75" y2="202.9"/>
	<path fill="none" stroke="#000000" stroke-linecap="round" stroke-linejoin="round" stroke-miterlimit="10" d="M312.57,124.08
		c0,0-4.25,3.31-6.62,3.79c0,0-20.33,19.63-26.3,47.35c-1.19,5.51-1.81,11.34-1.59,17.4c0,0,1.44,6.67,0.54,20.12
		c-0.89,13.29-4.06,33.22-13.18,59.859"/>
	<path fill="none" stroke="#000000" stroke-linecap="round" stroke-linejoin="round" stroke-miterlimit="10" d="M236.57,199.13
		c-0.2,1.11-0.45,2.18-0.77,3.2"/>
	<path fill="none" stroke="#000000" stroke-linecap="round" stroke-linejoin="round" stroke-miterlimit="10" d="M236.34,178.95
		c0,0,1.08,6.45,0.88,13.51"/>
	<path fill="none" stroke="#000000" stroke-linecap="round" stroke-linejoin="round" stroke-miterlimit="10" d="M238.59,177.229
		c0,0,17.91,1.721,33.35-0.64c0,0,6.11-1.39,7.61-1.39"/>
	<path fill="none" stroke="#000000" stroke-linecap="round" stroke-linejoin="round" stroke-miterlimit="10" d="M237.3,204.79
		c0,0,31.85,6.55,41.18,7.939"/>
	<path fill="none" stroke="#000000" stroke-linecap="round" stroke-linejoin="round" stroke-miterlimit="10" d="M214.55,61.91
		c-6.19-5.67-9.79-10.63-11.86-14.681"/>
	<path fill="none" stroke="#000000" stroke-linecap="round" stroke-linejoin="round" stroke-miterlimit="10" d="M215.01,62.34
		c-0.15-0.14-0.3-0.27-0.45-0.41"/>
	<path fill="none" stroke="#000000" stroke-linecap="round" stroke-linejoin="round" stroke-miterlimit="10" d="M296.99,102.21
		c-0.78,1.34-1.59,2.6-2.43,3.78c-9.67,13.81-21.86,17.04-21.86,17.04c-6.01,0.55-7.29-4.551-7.29-4.551
		c-2.1-7.739-12.3-5.92-12.3-5.92c-5.1-0.729-3.82-6.93-3.82-6.93c-4.74,1.92-5.74-1.91-5.74-1.91c-0.46-1.18-2.81-5.52-2.81-5.52
		c-2.51-4.681-8.63-0.721-8.63-0.721c-10.43,3.23-6.83-8.279-6.83-8.279c1.87-19.94-5.76-23.021-5.76-23.021
		c-1.63-1.31-3.13-2.59-4.5-3.84"/>
	<path fill="none" stroke="#000000" stroke-linecap="round" stroke-linejoin="round" stroke-miterlimit="10" d="M238.33,90.729
		c1.23,1.921-2.26,2.721-2.26,2.721s-2,0.54-2.7,1.58"/>
	<path fill="none" stroke="#000000" stroke-linecap="round" stroke-linejoin="round" stroke-miterlimit="10" d="M294.73,106.11
		c0,0,11.07,9.39,11.87,18.08c0,0,0.07,2.689-0.65,3.68"/>
	<path fill="none" stroke="#000000" stroke-linecap="round" stroke-linejoin="round" stroke-miterlimit="10" d="M268.76,45.31
		c-0.03,0.011-0.05,0.011-0.08,0.021c-14.33,3.35-26.41,4.729-36.35,4.99c-14.08,0.37-23.86-1.5-29.62-3.15
		c-4.24-1.22-6.3-2.32-6.3-2.32s-10.67-6.909-3.53-21.859c0,0,5.09-10.53,14.43-14.601"/>
	<path fill="none" stroke="#000000" stroke-linecap="round" stroke-linejoin="round" stroke-miterlimit="10" d="M285.74,65.04
		c0,0,14.09,28.18,4.77,37.939c0,0,3.12-0.119,6.48-0.779c3.1-0.62,6.42-1.7,7.67-3.57"/>
	<path fill="none" stroke="#000000" stroke-linecap="round" stroke-linejoin="round" stroke-miterlimit="10" d="M117.57,57.17
		c0.23,0.07,0.61,0.2,0.61,0.2s6.73,5.08,9.87,9.46c0.66,0.93,1.17,1.82,1.41,2.63"/>
	<path fill="none" stroke="#000000" stroke-linecap="round" stroke-linejoin="round" stroke-miterlimit="10" d="M74.53,74.29
		c-2.54,5.65-5.57-1.811-5.57-1.811c-0.91-1.5-1.6-3.5-2.11-5.34c-0.73-2.66-1.06-4.979-1.06-4.979
		c-0.7-11.84,5.34-11.61,5.34-11.61c6.49-0.229,7.65,4.65,7.65,4.65s1.94,4.59,0.53,8.01c0,0,2.01,3.42,3.82,3.83
		c0,0,7.05-5.84,11.08-7.25c0,0,8.26-3.021,9.87-8.66c0,0,12.49,8.66,15.71,9.46c0,0-1.61-3.22-2.22-3.42
		c-0.02-0.01-0.03-0.01-0.04-0.02c-0.04-0.011-0.07-0.021-0.09-0.03c-0.03-0.01-0.04-0.01-0.04-0.01"/>
	<path fill="none" stroke="#000000" stroke-linecap="round" stroke-linejoin="round" stroke-miterlimit="10" d="M76.66,57.16
		c0,0-0.82-2.78-3.12-3.44c0,0-3.19-1.149-4.83,1.48"/>
	<path fill="none" stroke="#000000" stroke-linecap="round" stroke-linejoin="round" stroke-miterlimit="10" d="M106.03,73.13
		c0,0,7.27,1.42,10.11,9.58c0,0,0.09,1.33,1.59,0.97c0,0,1.89-0.689-0.32-5.02c0,0-1.35-4.07-9.07-6.59c0,0-2.75-0.98-3.46-0.091
		C104.88,71.979,104.35,72.96,106.03,73.13z"/>
	<path fill="none" stroke="#000000" stroke-linecap="round" stroke-linejoin="round" stroke-miterlimit="10" d="M121.86,90.87
		c-0.79-0.83-1.58-1.15-2.53-1.66c0,0-1.3-0.3-0.72-1.73c0,0,0.97-1.76,4.92,1.091"/>
	<path fill="#444444" stroke="#000000" stroke-linecap="round" stroke-linejoin="round" stroke-miterlimit="10" d="M121.86,90.87
		c-0.79-0.83-1.58-1.15-2.53-1.66c0,0-1.3-0.3-0.72-1.73c0,0,0.97-1.76,4.92,1.091"/>
	<path fill="none" stroke="#000000" stroke-linecap="round" stroke-linejoin="round" stroke-miterlimit="10" d="M68.26,83.44
		c0,0-3.36,4.949-1.31,12.06c0,0,1.34,5.26,4.99,9.66"/>
	<path fill="none" stroke="#000000" stroke-linecap="round" stroke-linejoin="round" stroke-miterlimit="10" d="M118.74,94.09
		c-0.04,0.18-0.08,0.37-0.12,0.601c0,0-0.42,2.109-1.73,3.569c-0.01,0.01-0.02,0.021-0.03,0.03"/>
	<path fill="none" stroke="#000000" stroke-linecap="round" stroke-linejoin="round" stroke-miterlimit="10" d="M128.05,66.78
		c0,0,0,0.02,0,0.05c0,0.56-0.02,5.68-1.68,12.78c-0.72,3.09-1.75,6.55-3.22,10.18c0,0-0.63,1.37-2.79,2.54"/>
	<path fill="none" stroke="#000000" stroke-linecap="round" stroke-linejoin="round" stroke-miterlimit="10" d="M102.81,96.78
		c0,0-0.74,2.489,3.51,2.6c0,0,2.48,0.45,3.67,1.53"/>
	<path fill="none" stroke="#000000" stroke-linecap="round" stroke-linejoin="round" stroke-miterlimit="10" d="M107.84,102.55
		c0.94,0.94,1.87,1.49,2.75,1.79c2.66,0.89,4.77-0.55,4.77-0.55c1.53-1.13,1.53-4.13,1.53-4.13c0-0.351,0-0.83,0-1.4
		c0-1.85,0-4.56,0-6.24c0-0.909,0-1.52,0-1.52s2.14,0.16,3.47,1.83"/>
	<path fill="none" stroke="#000000" stroke-linecap="round" stroke-linejoin="round" stroke-miterlimit="10" d="M96.06,103.4
		c0,0,6.47,4.689,8.1,5.68"/>
	<path fill="none" stroke="#000000" stroke-linecap="round" stroke-linejoin="round" stroke-miterlimit="10" d="M110.55,104.47
		c0,0-3.9,2.55-5.39,4.61c0,0-0.99,1.34-1.64,1.74"/>
	<path fill="none" stroke="#000000" stroke-linecap="round" stroke-linejoin="round" stroke-miterlimit="10" d="M66.73,67.17
		c-1.03,0.49-2.73,4.3-2.73,4.3c-2.42,3.42-6.04,1.61-6.04,1.61c1-11.28,6.24-23.57,6.24-23.57c9.26-19.93,25.98-18.53,25.98-18.53
		s12.11-5.64,25.69,4.221c0,0,10.24,7.3,13.45,16.649c0,0-1.54-1.279-2.05-1.67c0,0,7.42,11.021,2.81,22.8c0,0,0.13-1.789-0.25-2.18
		c0,0-0.45,5.54-3.45,8.811"/>
	<path fill="none" stroke="#000000" stroke-linecap="round" stroke-linejoin="round" stroke-miterlimit="10" d="M110.35,81.84
		c-0.22-0.52-0.82-1.08-1.32-1.47c-0.39-0.32-0.71-0.53-0.71-0.53c-1.54-0.979-4.42-3.02-4.42-3.02s1.14,3.62,2.98,5.39
		c0.31,0.3,0.64,0.54,0.98,0.71"/>
	<path fill="none" stroke="#000000" stroke-linecap="round" stroke-linejoin="round" stroke-miterlimit="10" d="M118.7,93.979
		c0,0-0.17-0.1-0.43-0.319c-0.34-0.3-0.83-0.82-1.29-1.641"/>
	<path fill="none" stroke="#000000" stroke-linecap="round" stroke-linejoin="round" stroke-miterlimit="10" d="M57.96,73.08
		c0,0-8.48,16.899-25.71,23.86c-0.19,0.09-0.38,0.17-0.57,0.239c0,0-18.11,5.79-23.85,13.58c-0.01,0-0.01,0.01-0.01,0.01"/>
	<path fill="none" stroke="#000000" stroke-linecap="round" stroke-linejoin="round" stroke-miterlimit="10" d="M25.3,164.21
		c0,0-7.03,45.65-8.03,64.96"/>
	<path fill="none" stroke="#000000" stroke-linecap="round" stroke-linejoin="round" stroke-miterlimit="10" d="M23.87,174
		c0,0,3.51-8.771,6.82-12.39"/>
	<path fill="none" stroke="#000000" stroke-linecap="round" stroke-linejoin="round" stroke-miterlimit="10" d="M32.27,96.979
		c0,0,6.22,15.181,22.37,21.12"/>
	<path fill="none" stroke="#000000" stroke-linecap="round" stroke-linejoin="round" stroke-miterlimit="10" d="M108.31,188.5
		c0,0,0,0-0.01,0.01c-0.43,0.28-11.17,7.47-10.14,24.69"/>
	<path fill="none" stroke="#000000" stroke-linecap="round" stroke-linejoin="round" stroke-miterlimit="10" d="M234.31,60.729
		c0,0,0,0-0.01,0.011c-0.11,0.27-2.04,4.609-4.87,8.729c-0.02,0.04-0.05,0.09-0.08,0.13"/>
	<path fill="none" stroke="#000000" stroke-linecap="round" stroke-linejoin="round" stroke-miterlimit="10" d="M225.13,66.86
		c0,0,0.07-0.04,0.19-0.101c0.36-0.21,1.23-0.7,2.33-1.38c0.23-0.15,0.47-0.29,0.72-0.45c1.86-1.17,4.16-2.7,5.93-4.189"/>
	<path fill="none" stroke="#000000" stroke-linecap="round" stroke-linejoin="round" stroke-miterlimit="10" d="M227.71,65.47
		c0.31,0.26,0.61,0.58,0.89,0.96c0.88,1.19,1.18,2.4,0.74,2.98c-0.04,0.06-0.1,0.109-0.16,0.16c-0.67,0.489-2.01-0.061-2.98-1.37
		c-0.18-0.24-0.33-0.49-0.46-0.74c-0.12-0.23-0.22-0.47-0.29-0.69"/>
	<path fill="none" stroke="#000000" stroke-linecap="round" stroke-linejoin="round" stroke-miterlimit="10" d="M215.02,62.34
		c0.31,0.12,1.04,0.25,2.05-0.77c0,0,5.8-5.58,17.15-6.67c0,0,2.03,0.13,2.03-0.521c0,0,0.26-0.99-2.81-1.1c0,0-0.38-0.03-1.05-0.03
		c-2.81,0-10.76,0.56-17.46,6.38c0,0-1.31,1.09-0.38,2.28c0,0.01,0,0.01,0.01,0.02c0.08,0.11,0.19,0.21,0.31,0.32
		c0,0,0.05,0.04,0.14,0.09C215.01,62.34,215.02,62.33,215.02,62.34z"/>
	<path fill="none" stroke="#000000" stroke-linecap="round" stroke-linejoin="round" stroke-miterlimit="10" d="M47.24,262.14
		c0,0,2.5,7.4,10.09,13.5c7.38,5.931,19.58,10.63,38.98,6.09l21.26-3.479"/>
	<path fill="none" stroke="#000000" stroke-linecap="round" stroke-linejoin="round" stroke-miterlimit="10" d="M104,245.59
		c0,0-16.19,10.61-26.83,13.8c0,0-18.35,7.061-19.84,16.25c0,0.021-0.01,0.04-0.01,0.061"/>
	<path fill="none" stroke="#000000" stroke-linecap="round" stroke-linejoin="round" stroke-miterlimit="10" d="M108.21,251.79
		c0,0,19.18,1.25,27.35,4.08c0,0,12.58,3.77,9.75,28.609c0,0-0.67,10.91-0.82,20.79c-0.03,1.641-0.04,3.261-0.02,4.801
		c0,2.09,0.05,4.02,0.15,5.659"/>
	<path fill="none" stroke="#000000" stroke-linecap="round" stroke-linejoin="round" stroke-miterlimit="10" d="M125.09,312.69
		c-2.72-10.69-2.59-25.53-2.47-30.2c0.03-0.94,0.05-1.471,0.05-1.471s0.12-1.81,0.12-3.619"/>
	<path fill="none" stroke="#000000" stroke-linecap="round" stroke-linejoin="round" stroke-miterlimit="10" d="M120,274.61
		c0,0,0.53,3.21,1.61,5.93c0.27,0.7,0.58,1.38,0.93,1.95"/>
	<path fill="none" stroke="#000000" stroke-linecap="round" stroke-linejoin="round" stroke-miterlimit="10" d="M115.75,275.7
		c0,0,0.76,1.14,2.02,2.34c0.99,0.97,2.3,1.979,3.8,2.51"/>
	<path fill="none" stroke="#000000" stroke-linecap="round" stroke-linejoin="round" stroke-miterlimit="10" d="M140.14,246.31
		c0,0,17.85-0.939,17.66,15.221c0,0-2.44,29.489-1.88,39.449c0,0-0.27,0.561-0.86,1.28c-1.41,1.74-4.66,4.47-10.49,3.01"/>
	<path fill="none" stroke="#000000" stroke-linecap="round" stroke-linejoin="round" stroke-miterlimit="10" d="M144.53,310.07
		c7.95,1.72,12.32-3.431,12.32-3.431c0.47-1.64-1.09-1.41-1.09-1.41c0.54-1.319-0.55-1.63-0.55-1.63s0.76-0.75,0.09-1.31"/>
	<path fill="none" stroke="#000000" stroke-linecap="round" stroke-linejoin="round" stroke-miterlimit="10" d="M156.85,306.64
		c0,0,7.73,1.521,10.37,1.08c0,0,5.9-0.27,5.19,5.45c0,0-0.7,2.29-3.69,2.82"/>
	<path fill="none" stroke="#000000" stroke-linecap="round" stroke-linejoin="round" stroke-miterlimit="10" d="M142.72,245.3
		l29.67,7.71c0,0,15.2,3.92,17.52,23.53l3.49,35.72"/>
	<path fill="none" stroke="#000000" stroke-linecap="round" stroke-linejoin="round" stroke-miterlimit="10" d="M110.39,81.9
		c0,0.02-0.01,0.029-0.02,0.05c-0.11,0.21-0.27,0.43-0.47,0.62c-0.51,0.479-1.15,0.689-1.63,0.569c-0.16-0.04-0.3-0.12-0.41-0.229
		c-0.44-0.47-0.24-1.37,0.44-2.021c0.21-0.199,0.44-0.35,0.67-0.449"/>
	<path fill="none" stroke="#000000" stroke-linecap="round" stroke-linejoin="round" stroke-miterlimit="10" d="M120.36,92.33
		c-0.12,0.2-0.27,0.41-0.44,0.6c-0.62,0.721-1.27,1.061-1.65,0.73c-0.39-0.34-0.2-1.181,0.41-1.9c0.13-0.14,0.26-0.27,0.39-0.38"/>
	<path fill="none" stroke="#000000" stroke-linecap="round" stroke-linejoin="round" stroke-miterlimit="10" d="M249.29,105.63
		c0,0,1.97-1.41,4.27-2.5"/>
	<path fill="none" stroke="#000000" stroke-linecap="round" stroke-linejoin="round" stroke-miterlimit="10" d="M180.33,213.317
		c0,0,2.238-2.896,3.422-3.905"/>
	<ellipse cx="103.873" cy="154.145" rx="0.661" ry="0.568"/>
	<ellipse cx="113.997" cy="150.529" rx="0.661" ry="0.568"/>
</g>
</svg>
