<?xml version="1.0" encoding="utf-8"?>
<!-- Generator: Adobe Illustrator 16.0.0, SVG Export Plug-In . SVG Version: 6.00 Build 0)  -->
<!DOCTYPE svg PUBLIC "-//W3C//DTD SVG 1.1//EN" "http://www.w3.org/Graphics/SVG/1.1/DTD/svg11.dtd">
<svg version="1.1" id="Layer_1" xmlns="http://www.w3.org/2000/svg" xmlns:xlink="http://www.w3.org/1999/xlink" x="0px" y="0px"
	 width="367.523px" height="264.631px" viewBox="0 0 367.523 264.631" enable-background="new 0 0 367.523 264.631"
	 xml:space="preserve">
<g>
	<path fill="none" stroke="#000000" stroke-width="2.5" stroke-linecap="round" stroke-linejoin="round" stroke-miterlimit="10" d="
		M354.537,69.274c-8.844-13.617-22.705-26.366-41.584-37.262c-71.088-41.016-187.348-41.016-258.439,0
		C18.611,52.734,0.865,80.151,1.256,107.5V158c0,27.098,17.771,54.15,53.258,74.632c71.092,41,187.352,41,258.439,0
		c35.504-20.481,53.32-47.534,53.32-74.584v-51.399C366.273,93.97,362.357,81.287,354.537,69.274z"/>
	
		<path fill="#C6E9FA" stroke="#000000" stroke-width="0.75" stroke-linecap="round" stroke-linejoin="round" stroke-miterlimit="10" d="
		M312.953,32.012c-71.088-41.016-187.348-41.016-258.439,0C19.027,52.597,1.256,79.606,1.256,106.648V158
		c0,27.098,17.771,54.15,53.258,74.632c71.092,41,187.352,41,258.439,0c35.504-20.481,53.32-47.534,53.32-74.584v-51.399l0,0
		C366.273,79.606,348.457,52.541,312.953,32.012z"/>
	<path opacity="0.2" fill="#006AD1" enable-background="new    " d="M17.279,135.408c0-5.58,0.783-11.158,2.326-16.675H4.85v35.762
		c0,13.196,4.305,26.382,12.898,38.775c-0.313-2.505-0.469-5.013-0.469-7.522V135.408z"/>
	
		<path fill="#C6E9FA" stroke="#000000" stroke-width="0.75" stroke-linecap="round" stroke-linejoin="round" stroke-miterlimit="10" d="
		M312.953,181.243c-71.088,40.997-187.348,40.997-258.439,0c-71.033-41.02-71.033-108.231,0-149.231
		c71.092-41.016,187.352-41.016,258.439,0C383.988,73.012,383.988,140.223,312.953,181.243z"/>
	
		<path fill="#C6E9FA" stroke="#000000" stroke-width="0.75" stroke-linecap="round" stroke-linejoin="round" stroke-miterlimit="10" d="
		M312.953,181.243c-71.088,40.997-187.348,40.997-258.439,0c-71.033-41.02-71.033-108.231,0-149.231
		c71.092-41.016,187.352-41.016,258.439,0C383.988,73.012,383.988,140.223,312.953,181.243z"/>
	<path opacity="0.2" fill="#006AD1" enable-background="new    " d="M183.734,204.991c-47.738,0-92.389-10.588-125.725-29.813
		c-32.098-18.534-49.773-42.885-49.771-68.563C8.24,80.94,25.918,56.6,58.012,38.074C91.348,18.841,135.996,8.25,183.734,8.25
		s92.387,10.591,125.719,29.825c32.096,18.525,49.773,42.866,49.775,68.54c0.004,25.678-17.674,50.028-49.777,68.563
		C276.121,194.403,231.473,204.991,183.734,204.991z"/>
	<path opacity="0.1" fill="#006AD1" enable-background="new    " d="M183.734,255.553c-47.738,0-92.389-10.588-125.725-29.813
		c-32.098-18.535-49.773-42.886-49.771-68.563c0.002-25.673,17.68-50.015,49.773-68.54c33.336-19.233,77.984-29.825,125.723-29.825
		s92.387,10.591,125.719,29.825c32.096,18.525,49.773,42.867,49.775,68.54c0.004,25.678-17.674,50.028-49.777,68.565
		C276.121,244.965,231.473,255.553,183.734,255.553z"/>
	<path fill="#FFFFFF" d="M360.635,158.297c-1.324,0-2.398-1.074-2.398-2.399v-12.239c0-1.324,1.074-2.401,2.398-2.401
		s2.4,1.077,2.4,2.401v12.239C363.035,157.223,361.959,158.297,360.635,158.297z"/>
</g>
</svg>
