<?xml version="1.0" encoding="utf-8"?>
<!-- Generator: Adobe Illustrator 16.0.0, SVG Export Plug-In . SVG Version: 6.00 Build 0)  -->
<!DOCTYPE svg PUBLIC "-//W3C//DTD SVG 1.1//EN" "http://www.w3.org/Graphics/SVG/1.1/DTD/svg11.dtd">
<svg version="1.1" id="Layer_1" xmlns="http://www.w3.org/2000/svg" xmlns:xlink="http://www.w3.org/1999/xlink" x="0px" y="0px"
	 width="402.5px" height="402.502px" viewBox="0 0 402.5 402.502" enable-background="new 0 0 402.5 402.502" xml:space="preserve">
<g>
	<path fill="none" stroke="#000000" stroke-width="2.5" stroke-linecap="round" stroke-linejoin="round" stroke-miterlimit="10" d="
		M372.2,305.003c-57.3,94.413-180.29,124.5-274.706,67.199C3.082,314.902-26.999,191.915,30.3,97.5
		C87.601,3.085,210.588-27,305,30.301C399.412,87.599,429.501,210.592,372.2,305.003z"/>
	
		<path fill="#FFFFFF" stroke="#000000" stroke-width="0.75" stroke-linecap="round" stroke-linejoin="round" stroke-miterlimit="10" d="
		M372.2,305.003c-57.3,94.413-180.29,124.5-274.706,67.199C3.082,314.902-26.999,191.915,30.3,97.5
		C87.601,3.085,210.588-27,305,30.301C399.412,87.599,429.501,210.592,372.2,305.003z"/>
	<linearGradient id="SVGID_1_" gradientUnits="userSpaceOnUse" x1="7.4463" y1="201.2524" x2="395.0527" y2="201.2524">
		<stop  offset="0" style="stop-color:#C6E9FA"/>
		<stop  offset="0.9967" style="stop-color:#A4C2D1"/>
	</linearGradient>
	<path fill="url(#SVGID_1_)" d="M366.902,301.789c-55.524,91.488-174.7,120.644-266.192,65.115
		C9.224,311.382-19.929,192.203,35.598,100.715C91.124,9.227,210.3-19.925,301.785,35.599
		C393.272,91.126,422.43,210.302,366.902,301.789z"/>
	<path fill="#C6E9FA" stroke="#80A9BC" stroke-width="0.75" stroke-miterlimit="10" d="M343.602,285.496
		c-47.713,78.617-150.127,103.67-228.749,55.953C36.237,293.74,11.185,191.32,58.897,112.704
		c47.714-78.615,150.13-103.67,228.745-55.955C366.262,104.461,391.318,206.881,343.602,285.496z"/>
	<g id="changecolor_1_">
		<path d="M290.979,53.407c-29.118-17.672-61.379-25.726-93.086-25.08c29.378,0.62,58.993,8.738,85.92,25.08
			c81.652,49.558,107.674,155.921,58.117,237.573c-31.883,52.534-87.281,82.032-144.484,83.198
			c59.707,1.259,118.438-28.473,151.65-83.198C398.652,209.328,372.631,102.965,290.979,53.407z"/>
		<path d="M53.405,111.522c31.884-52.534,87.283-82.031,144.487-83.195c-59.707-1.259-118.439,28.47-151.654,83.195
			C-3.319,193.176,22.7,299.543,104.352,349.096c29.121,17.675,61.385,25.729,93.094,25.083
			c-29.381-0.619-58.997-8.738-85.927-25.083C29.866,299.543,3.847,193.176,53.405,111.522z"/>
		<path opacity="0.7" d="M341.93,290.98c49.557-81.652,23.535-188.015-58.117-237.573c-26.927-16.342-56.542-24.46-85.92-25.08
			c-57.204,1.165-112.604,30.662-144.487,83.195c-49.559,81.654-23.539,188.021,58.113,237.573
			c26.93,16.345,56.546,24.464,85.927,25.083C254.648,373.013,310.047,343.515,341.93,290.98z"/>
	</g>
</g>
</svg>
