<?xml version="1.0" encoding="utf-8"?>
<!-- Generator: Adobe Illustrator 16.0.0, SVG Export Plug-In . SVG Version: 6.00 Build 0)  -->
<!DOCTYPE svg PUBLIC "-//W3C//DTD SVG 1.1//EN" "http://www.w3.org/Graphics/SVG/1.1/DTD/svg11.dtd">
<svg version="1.1" id="Layer_1" xmlns="http://www.w3.org/2000/svg" xmlns:xlink="http://www.w3.org/1999/xlink" x="0px" y="0px"
	 width="367.523px" height="264.631px" viewBox="0 0 367.523 264.631" enable-background="new 0 0 367.523 264.631"
	 xml:space="preserve">
<g>
	<g>
		<path fill="#C6E9FA" d="M364.391,91.212c7.896,31.848-9.238,65.43-51.408,89.78c-71.086,40.998-187.348,40.998-258.439,0
			C11.26,155.998-5.648,121.278,3.816,88.689c-1.707,5.857-2.561,11.782-2.561,17.709v51.351c0,27.098,17.77,54.15,53.256,74.632
			c71.092,41,187.354,41,258.439,0c35.504-20.481,53.32-47.534,53.32-74.584v-51.398C366.271,101.324,365.645,96.246,364.391,91.212
			z"/>
	</g>
	<path fill="none" stroke="#000000" stroke-width="2.5" stroke-linecap="round" stroke-linejoin="round" stroke-miterlimit="10" d="
		M354.539,69.024c-8.844-13.617-22.705-26.366-41.584-37.262c-71.088-41.016-187.348-41.016-258.439,0
		C18.613,52.484,0.869,79.901,1.26,107.251v50.499c0,27.098,17.77,54.15,53.256,74.632c71.092,41,187.352,41,258.439,0
		c35.504-20.481,53.32-47.534,53.32-74.584v-51.398C366.275,93.721,362.359,81.037,354.539,69.024z"/>
	
		<path fill="#C6E9FA" stroke="#000000" stroke-width="0.75" stroke-linecap="round" stroke-linejoin="round" stroke-miterlimit="10" d="
		M312.982,180.993c-71.086,40.998-187.348,40.998-258.439,0c-71.033-41.02-71.033-108.23,0-149.23
		c71.092-41.016,187.354-41.016,258.439,0C384.018,72.762,384.018,139.973,312.982,180.993z"/>
	<path opacity="0.2" fill="#006AD1" enable-background="new    " d="M183.764,204.741c-47.736,0-92.387-10.588-125.723-29.813
		C25.943,156.393,8.266,132.042,8.27,106.365C8.271,80.69,25.947,56.35,58.043,37.825C91.377,18.592,136.027,8,183.764,8
		c47.738,0,92.387,10.592,125.721,29.825c32.094,18.525,49.771,42.866,49.775,68.54c0.002,25.677-17.676,50.028-49.777,68.563
		C276.15,194.153,231.502,204.741,183.764,204.741z"/>
	<g id="changecolor_4_">
		<path d="M357.615,125.303c7.602,30.623-8.973,62.914-49.521,86.328c-68.342,39.416-180.165,39.416-248.513,0
			c-41.61-24.028-57.728-57.405-48.63-88.735c-1.641,5.629-2.322,11.324-2.322,17.02v15.369c0,26.052,16.92,52.061,51.037,71.751
			c68.346,39.417,180.237,39.417,248.581,0c34.135-19.69,51.382-45.699,51.382-71.704v-15.416
			C359.629,135.032,358.823,130.147,357.615,125.303z"/>
		<path opacity="0.7" d="M59.531,211.631c68.348,39.416,180.121,39.416,248.463,0c40.549-23.414,57.022-55.705,49.421-86.328
			c-5.201-20.954-21.675-41.127-49.421-57.141c-34.175-19.72-79.21-29.578-124.244-29.576
			c-45.025,0.002-90.049,9.861-124.219,29.576c-2.652,1.531-5.188,3.104-7.635,4.708c-22.162,14.531-35.882,31.936-41.135,50.027
			C1.664,154.226,17.921,187.603,59.531,211.631z"/>
	</g>
	<path fill="#FFFFFF" d="M360.646,158.047c-1.326,0-2.4-1.074-2.4-2.399v-12.239c0-1.324,1.074-2.4,2.4-2.4
		c1.324,0,2.398,1.076,2.398,2.4v12.239C363.045,156.973,361.971,158.047,360.646,158.047z"/>
	<path opacity="0.2" fill="#006AD1" enable-background="new    " d="M4.861,127.275v26.97c0,13.197,4.305,26.381,12.898,38.775
		c-0.313-2.505-0.469-5.012-0.469-7.522v-35.707C11.658,142.534,7.521,134.975,4.861,127.275z"/>
	<g>
		
			<path fill="none" stroke="#000000" stroke-width="0.75" stroke-linecap="round" stroke-linejoin="round" stroke-miterlimit="10" d="
			M364.391,91.212c7.896,31.848-9.238,65.43-51.408,89.78c-71.086,40.998-187.348,40.998-258.439,0
			C11.26,155.998-5.648,121.278,3.816,88.689c-1.707,5.857-2.561,11.782-2.561,17.709v51.351c0,27.098,17.77,54.15,53.256,74.632
			c71.092,41,187.354,41,258.439,0c35.504-20.481,53.32-47.534,53.32-74.584v-51.398C366.271,101.324,365.645,96.246,364.391,91.212
			z"/>
	</g>
	<path fill="#C6E9FA" d="M312.982,31.762c-71.086-41.016-187.348-41.016-258.439,0c-71.033,41-71.033,108.212,0,149.23
		c71.092,40.998,187.354,40.998,258.439,0C384.018,139.974,384.018,72.762,312.982,31.762z M309.482,174.928
		c-33.332,19.225-77.98,29.813-125.719,29.813c-47.736,0-92.387-10.588-125.723-29.813C25.943,156.393,8.266,132.042,8.27,106.365
		C8.271,80.69,25.947,56.35,58.043,37.825C91.377,18.592,136.027,8,183.764,8c47.738,0,92.387,10.592,125.721,29.825
		c32.094,18.525,49.771,42.866,49.775,68.54C359.262,132.042,341.584,156.393,309.482,174.928z"/>
	
		<path fill="none" stroke="#000000" stroke-width="0.75" stroke-linecap="round" stroke-linejoin="round" stroke-miterlimit="10" d="
		M312.982,31.762c-71.086-41.016-187.348-41.016-258.439,0c-71.033,41-71.033,108.212,0,149.23
		c71.092,40.998,187.354,40.998,258.439,0C384.018,139.974,384.018,72.762,312.982,31.762z"/>
</g>
</svg>
