<?xml version="1.0" encoding="utf-8"?>
<!-- Generator: Adobe Illustrator 24.1.2, SVG Export Plug-In . SVG Version: 6.00 Build 0)  -->
<svg version="1.1" id="Camada_1" xmlns="http://www.w3.org/2000/svg" xmlns:xlink="http://www.w3.org/1999/xlink" x="0px" y="0px"
	 width="512.197px" height="82.794px" viewBox="0 0 512.197 82.794" enable-background="new 0 0 512.197 82.794"
	 xml:space="preserve">
<g>
	<g>
		<path fill="#738AA5" d="M128.864,36.808c6.404,2.742,13.689,3.817,21.368,3.178c7.664-0.525,15.576-2.547,23.421-5.174
			c3.928-1.338,7.855-2.827,11.785-4.428l12.118-4.988c8.212-3.305,16.706-6.553,25.788-8.698c9.018-2.208,18.76-3.128,28.391-1.805
			c9.65,1.383,18.558,5.037,26.554,9.443c16.074,8.858,29.031,20.669,43.902,28.319c7.387,3.842,15.174,6.865,23.173,7.724
			c7.984,0.918,16.003-0.527,23.534-3.961c7.549-3.396,14.595-8.326,21.667-13.382c3.542-2.525,7.103-5.099,10.804-7.535
			c3.713-2.408,7.469-4.831,11.568-6.705c32.31-15.86,73.255-9.782,98.92,14.099c-26.69-22.743-67.037-26.369-96.801-10.026
			c-14.953,8.058-26.783,21.404-43.204,29.77c-8.132,4.194-17.776,6.447-27.188,5.745c-9.436-0.608-18.332-3.68-26.541-7.495
			c-8.225-3.824-15.887-8.644-23.197-13.37c-7.338-4.702-14.533-9.355-21.963-13.013c-7.41-3.67-15.061-6.324-22.76-7.078
			c-7.712-0.695-15.6,0.325-23.404,2.605c-7.816,2.205-15.543,5.519-23.342,9.07l-11.838,5.492
			c-4.066,1.868-8.218,3.659-12.474,5.321c-8.53,3.268-17.527,6.082-27.243,7.208c-9.634,1.235-20.18,0.424-29.995-3.318
			L128.864,36.808z"/>
		<path fill="none" stroke="#000000" stroke-miterlimit="10" d="M128.864,36.808c6.404,2.742,13.689,3.817,21.368,3.178
			c7.664-0.525,15.576-2.547,23.421-5.174c3.928-1.338,7.855-2.827,11.785-4.428l12.118-4.988
			c8.212-3.305,16.706-6.553,25.788-8.698c9.018-2.208,18.76-3.128,28.391-1.805c9.65,1.383,18.558,5.037,26.554,9.443
			c16.074,8.858,29.031,20.669,43.902,28.319c7.387,3.842,15.174,6.865,23.173,7.724c7.984,0.918,16.003-0.527,23.534-3.961
			c7.549-3.396,14.595-8.326,21.667-13.382c3.542-2.525,7.103-5.099,10.804-7.535c3.713-2.408,7.469-4.831,11.568-6.705
			c32.31-15.86,73.255-9.782,98.92,14.099c-26.69-22.743-67.037-26.369-96.801-10.026c-14.953,8.058-26.783,21.404-43.204,29.77
			c-8.132,4.194-17.776,6.447-27.188,5.745c-9.436-0.608-18.332-3.68-26.541-7.495c-8.225-3.824-15.887-8.644-23.197-13.37
			c-7.338-4.702-14.533-9.355-21.963-13.013c-7.41-3.67-15.061-6.324-22.76-7.078c-7.712-0.695-15.6,0.325-23.404,2.605
			c-7.816,2.205-15.543,5.519-23.342,9.07l-11.838,5.492c-4.066,1.868-8.218,3.659-12.474,5.321
			c-8.53,3.268-17.527,6.082-27.243,7.208c-9.634,1.235-20.18,0.424-29.995-3.318L128.864,36.808z"/>
	</g>
	<g>
		
			<ellipse transform="matrix(0.0738 -0.9973 0.9973 0.0738 52.8112 145.8164)" fill="#CC9FAD" cx="104.911" cy="44.475" rx="20.03" ry="38.985"/>
		
			<ellipse transform="matrix(0.0738 -0.9973 0.9973 0.0738 52.8112 145.8164)" fill="none" stroke="#000000" stroke-miterlimit="10" cx="104.911" cy="44.475" rx="20.03" ry="38.985"/>
	</g>
	<g>
		
			<ellipse transform="matrix(0.0738 -0.9973 0.9973 0.0738 12.6781 96.4451)" fill="#B0C7E1" cx="58.264" cy="41.397" rx="40.781" ry="57.842"/>
		
			<ellipse transform="matrix(0.0738 -0.9973 0.9973 0.0738 12.6781 96.4451)" fill="none" stroke="#000000" stroke-miterlimit="10" cx="58.264" cy="41.397" rx="40.781" ry="57.842"/>
	</g>
	<g>
		
			<ellipse transform="matrix(0.0738 -0.9973 0.9973 0.0738 12.6781 96.4451)" fill="#B0C7E1" cx="58.264" cy="41.397" rx="40.781" ry="57.842"/>
		
			<ellipse transform="matrix(0.0738 -0.9973 0.9973 0.0738 12.6781 96.4451)" fill="none" stroke="#000000" stroke-miterlimit="10" cx="58.264" cy="41.397" rx="40.781" ry="57.842"/>
	</g>
	<g>
		
			<ellipse transform="matrix(0.0738 -0.9973 0.9973 0.0738 27.9465 117.1535)" fill="#738AA5" cx="77.047" cy="43.531" rx="21.027" ry="25.247"/>
		
			<ellipse transform="matrix(0.0738 -0.9973 0.9973 0.0738 27.9465 117.1535)" fill="none" stroke="#000000" stroke-miterlimit="10" cx="77.047" cy="43.531" rx="21.027" ry="25.247"/>
	</g>
	<g>
		<path fill="#D0DDED" d="M57.367,68.255c1.945,1.108,1.225,4.073-1.012,4.141c-2.129,0.065-4.299,0.019-6.5-0.146
			c-24.17-1.79-42.74-17.05-41.48-34.09c1.26-17.05,21.88-29.41,46.05-27.62c3.142,0.232,6.185,0.692,9.104,1.354
			c2.19,0.497,2.346,3.567,0.211,4.262C50.302,20.527,40.802,29.83,39.955,41.24C39.169,51.892,46.129,61.851,57.367,68.255z"/>
		<path fill="none" stroke="#000000" stroke-linecap="round" stroke-linejoin="round" stroke-miterlimit="10" d="M57.367,68.255
			c1.945,1.108,1.225,4.073-1.012,4.141c-2.129,0.065-4.299,0.019-6.5-0.146c-24.17-1.79-42.74-17.05-41.48-34.09
			c1.26-17.05,21.88-29.41,46.05-27.62c3.142,0.232,6.185,0.692,9.104,1.354c2.19,0.497,2.346,3.567,0.211,4.262
			C50.302,20.527,40.802,29.83,39.955,41.24C39.169,51.892,46.129,61.851,57.367,68.255z"/>
	</g>
</g>
</svg>
