<?xml version="1.0" encoding="utf-8"?>
<!-- Generator: Adobe Illustrator 26.4.1, SVG Export Plug-In . SVG Version: 6.00 Build 0)  -->
<svg version="1.1" id="Camada_1" xmlns="http://www.w3.org/2000/svg" xmlns:xlink="http://www.w3.org/1999/xlink" x="0px" y="0px"
	 width="389.456px" height="123.981px" viewBox="0 0 389.456 123.981" enable-background="new 0 0 389.456 123.981"
	 xml:space="preserve">
<g>
	<g>
		<path fill="#E4F4ED" d="M290.321,45.798c0,0,7.844,1.954,11.307-3.016c3.463-4.969-6.433-9.984-17.067-14.355
			c-10.634-4.371-18.465-11.672-25.23-19.337c-6.765-7.665-17.493-10.654-23.983-7.106c-6.49,3.548-20.513,17.263-21.166,22.704
			c0,0-0.503,2.366,4.078,3.894C222.841,30.11,282.038,45.202,290.321,45.798z"/>
		<path fill="#C7D8D0" d="M218.259,28.582c-4.581-1.528-4.078-3.894-4.078-3.894c0.142-1.18,0.914-2.75,2.1-4.521
			c2.348,1.065,5.625-1.515,5.625-1.515c1.646,5.239,7.035,1.646,7.035,1.646c-0.898,6.885,9.131,2.994,9.131,2.994
			c-1.497,6.436,8.682,2.994,8.682,2.994c1.347,5.089,8.382,2.844,8.382,2.844c-0.449,5.538,8.532,2.844,8.532,2.844
			c0.449,4.341,9.58,2.994,9.58,2.994c-2.245,4.939,6.137,2.994,6.137,2.994c1.048,4.042,7.933,3.293,7.933,3.293
			c0.381,3.619,5.728,4.449,9.569,4.576c-3.265,0.78-6.567-0.032-6.567-0.032C282.038,45.202,222.841,30.11,218.259,28.582z"/>
		<path fill="none" stroke="#000000" stroke-linecap="round" stroke-linejoin="round" stroke-miterlimit="10" d="M290.321,45.798
			c0,0,7.844,1.954,11.307-3.016c3.463-4.969-6.433-9.984-17.067-14.355c-10.634-4.371-18.465-11.672-25.23-19.337
			c-6.765-7.665-17.493-10.654-23.983-7.106c-6.49,3.548-20.513,17.263-21.166,22.704c0,0-0.503,2.366,4.078,3.894
			C222.841,30.11,282.038,45.202,290.321,45.798z"/>
		<path fill="none" stroke="#000000" stroke-linecap="round" stroke-linejoin="round" stroke-miterlimit="10" d="M253.296,5.987
			c0,0-15.683,3.937-33.576,23.03"/>
		<path fill="none" stroke="#000000" stroke-linecap="round" stroke-linejoin="round" stroke-miterlimit="10" d="M249.18,4.205
			c0,0-8.904,4.469-15.515,12.294"/>
		<path fill="none" stroke="#000000" stroke-linecap="round" stroke-linejoin="round" stroke-miterlimit="10" d="M239.949,2.376
			c0,0-19.781,13.98-23.945,25.167"/>
		<path fill="none" stroke="#000000" stroke-linecap="round" stroke-linejoin="round" stroke-miterlimit="10" d="M258.536,13.113
			c0,0-16.928,5.401-30.602,18.108"/>
		<path fill="none" stroke="#000000" stroke-linecap="round" stroke-linejoin="round" stroke-miterlimit="10" d="M256.55,9.9
			c0,0-7.239,3.079-13.17,10.148"/>
		<path fill="none" stroke="#000000" stroke-linecap="round" stroke-linejoin="round" stroke-miterlimit="10" d="M263.435,17.612
			c-0.542,0.319-15.805,6.766-27.996,15.546"/>
		<path fill="none" stroke="#000000" stroke-linecap="round" stroke-linejoin="round" stroke-miterlimit="10" d="M269.456,23.453
			c0,0-16.206,5.737-25.806,11.786"/>
		<path fill="none" stroke="#000000" stroke-linecap="round" stroke-linejoin="round" stroke-miterlimit="10" d="M275.234,27.79
			c0,0-17.589,5.981-24.065,9.322"/>
		<path fill="none" stroke="#000000" stroke-linecap="round" stroke-linejoin="round" stroke-miterlimit="10" d="M281.539,32.021
			c0,0-14.464,4.496-20.946,7.393"/>
		<path fill="none" stroke="#000000" stroke-linecap="round" stroke-linejoin="round" stroke-miterlimit="10" d="M289.117,35.401
			c0,0-12.709,3.139-20.876,5.835"/>
		<path fill="none" stroke="#000000" stroke-linecap="round" stroke-linejoin="round" stroke-miterlimit="10" d="M295.094,39.441
			c0,0-11.221,3.05-19.457,3.501"/>
	</g>
	<g>
		<path fill="#E4F4ED" d="M287.546,72.016c0,0,8.471-1.434,8.227,2.142c-0.244,3.576-17.057,35.181-23.657,38.054
			c-6.599,2.874-23.883-5.476-36.442-21.712L287.546,72.016z"/>
		<path fill="#C7D8D0" d="M287.547,72.407c0,0,7.749-1.309,8.206,1.709c-4.521,0.578-11.319,1.938-10.153,4.719
			c0,0-11.597-0.521-7.818,3.518c0,0-9.252,0.391-5.603,4.17c0,0-12.249-1.824-7.558,3.258c0,0-10.424-1.955-7.167,4.04
			c0,0-10.945-2.867-8.209,4.43c0,0-4.662-1.379-7.253-0.2c-2.184-2.177-4.311-4.567-6.316-7.16L287.547,72.407z"/>
		<path fill="none" stroke="#000000" stroke-linecap="round" stroke-linejoin="round" stroke-miterlimit="10" d="M287.546,72.016
			c0,0,8.471-1.434,8.227,2.142c-0.244,3.576-17.057,35.181-23.657,38.054c-6.599,2.874-23.883-5.476-36.442-21.712L287.546,72.016z
			"/>
		<path fill="none" stroke="#000000" stroke-linecap="round" stroke-linejoin="round" stroke-miterlimit="10" d="M273.265,109.828
			c0,0-18.535-4.087-33.286-20.862"/>
		<path fill="none" stroke="#000000" stroke-linecap="round" stroke-linejoin="round" stroke-miterlimit="10" d="M276.202,102.887
			c0,0-16.685-5.569-28.385-16.714"/>
		<path fill="none" stroke="#000000" stroke-linecap="round" stroke-linejoin="round" stroke-miterlimit="10" d="M279.701,96.723
			c0,0-17.056-6.873-23.854-13.411"/>
		<path fill="none" stroke="#000000" stroke-linecap="round" stroke-linejoin="round" stroke-miterlimit="10" d="M283.166,91.069
			c0,0-14.009-5.452-20.217-10.288"/>
		<path fill="none" stroke="#000000" stroke-linecap="round" stroke-linejoin="round" stroke-miterlimit="10" d="M285.704,85.352
			c0,0-10.004-3.776-13.991-7.694"/>
		<path fill="none" stroke="#000000" stroke-linecap="round" stroke-linejoin="round" stroke-miterlimit="10" d="M288.98,79.872
			c0,0-5.513-2.236-9.827-4.864"/>
		<path fill="none" stroke="#000000" stroke-linecap="round" stroke-linejoin="round" stroke-miterlimit="10" d="M274.903,107.478
			c0,0-10.977-1.353-18.499-4.89"/>
		<path fill="none" stroke="#000000" stroke-linecap="round" stroke-linejoin="round" stroke-miterlimit="10" d="M277.389,100.816
			c0,0-8.783-1.727-15.503-4.487"/>
		<path fill="none" stroke="#000000" stroke-linecap="round" stroke-linejoin="round" stroke-miterlimit="10" d="M281.332,95.094
			c0,0-9.496-2.55-15.477-4.955"/>
		<path fill="none" stroke="#000000" stroke-linecap="round" stroke-linejoin="round" stroke-miterlimit="10" d="M284.025,89.321
			c0,0-9.367-1.66-13.486-3.934"/>
	</g>
	<g>
		
			<linearGradient id="SVGID_1_" gradientUnits="userSpaceOnUse" x1="-2197.7932" y1="24.7561" x2="-2197.7932" y2="90.8023" gradientTransform="matrix(-1 0 0 1 -2003.0651 0)">
			<stop  offset="0" style="stop-color:#4C988B"/>
			<stop  offset="0.5276" style="stop-color:#76C3BB"/>
			<stop  offset="1" style="stop-color:#E8E6D5"/>
		</linearGradient>
		<path fill="url(#SVGID_1_)" d="M12.878,72.828c0,0-5.608-4.695-9.503-6.848c-3.895-2.153-0.273-7.834,6.183-7.662
			c0,0,8.182-5.37,12.066-6.991c3.884-1.621,13.829-13.069,21.846-16.024c8.017-2.956,19.967-4.295,30.27-5.208
			c10.303-0.913,45.603-8.741,48.663-10.149c3.061-1.408,15.585-15.105,27.394-18.34c0,0-13.627,10.118-18.079,20.055
			c0,0-1.714,2.869,1.463,2.256c3.079-0.594,20.875-1.807,22.271-2.521s10.871-9.228,18.602-11.934c0,0-10.698,10.632-11.612,12.186
			c-0.915,1.555,5.08,2.146,9.01,2.233c3.27,0.072,33.911,0.656,35.039-0.075c1.128-0.731,4.787-6.949,8.939-8.552
			c0,0-4.195,6.181-3.251,8.132c0.945,1.951,12.119,4.062,30.158,8.259s47.154,15.888,63.516,17.006
			c16.363,1.118,25.038,0.363,37.464-7.95c12.426-8.314,26.2-20.578,40.001-17.479c13.802,3.099-2.073,42.169-2.073,42.169
			s0.751,32.391-8.266,34.2c-9.017,1.809-25.823-12.544-37.252-22.757C324.297,66.62,323.98,63.364,316.933,63.96
			c-7.048,0.596-68.04,25.534-88.885,30.847c-20.844,5.313-53.34,15.489-75.762,12.34c-22.422-3.149-28.812-0.352-36.499-2.225
			c-7.687-1.873-16.837-6.002-25.616-7.679c0,0-14.334,4.68-26.989,0.581c-12.656-4.099-18.429-6.38-29.871-8.509
			c-11.443-2.129-11.388-2.934-18.678-6.666c-7.291-3.732-11.119-2.916-13.24-7.373C-0.729,70.82,1.6,68.284,1.6,68.284
			S4.855,67.968,12.878,72.828z"/>
		
			<linearGradient id="SVGID_00000176040970136111865440000006863627872756225962_" gradientUnits="userSpaceOnUse" x1="-2049.1511" y1="59.8129" x2="-2049.4612" y2="76.858" gradientTransform="matrix(-1 0 0 1 -2003.0651 0)">
			<stop  offset="0" style="stop-color:#E8E6D5;stop-opacity:0.4"/>
			<stop  offset="0.9962" style="stop-color:#E8E6D5;stop-opacity:0"/>
		</linearGradient>
		<path fill="url(#SVGID_00000176040970136111865440000006863627872756225962_)" d="M72.984,66.605
			c-0.624-3.918-0.561-7.893-5.093-6.477c-4.531,1.416-3.115,8.496-9.346,9.063c-6.231,0.566-17.276,1.416-19.258-1.699
			c-1.982-3.115-3.682-7.08-8.496-7.647c-4.815-0.566-12.744-1.416-11.611,1.983c1.133,3.398,10.195,13.027,12.461,17.275
			c2.266,4.248,24.425,9.01,30.291,6.128C67.798,82.349,74.961,79.029,72.984,66.605z"/>
		
			<linearGradient id="SVGID_00000085237550328505282650000016972245857881235872_" gradientUnits="userSpaceOnUse" x1="-2095.7195" y1="49.3213" x2="-2096.1523" y2="73.1191" gradientTransform="matrix(-1 0 0 1 -2003.0651 0)">
			<stop  offset="0" style="stop-color:#E8E6D5;stop-opacity:0.4"/>
			<stop  offset="0.9962" style="stop-color:#E8E6D5;stop-opacity:0"/>
		</linearGradient>
		<path fill="url(#SVGID_00000085237550328505282650000016972245857881235872_)" d="M103.018,79.374
			c2.133-2.868,3.334-10.681-0.85-19.048s-5.733-8.987-9.917-9.762c-4.184-0.775-9.297-3.719-10.537-1.549
			c-1.24,2.169-0.93,6.818-0.465,11.622c0.465,4.804,2.205,9.36,0.405,13.435C79.854,78.146,90.697,95.943,103.018,79.374z"/>
		
			<linearGradient id="SVGID_00000038376011820620263880000001692860341238619324_" gradientUnits="userSpaceOnUse" x1="-2197.1704" y1="73.8432" x2="-2156.47" y2="76.9399" gradientTransform="matrix(-1 0 0 1 -2003.0651 0)">
			<stop  offset="0" style="stop-color:#E8E6D5"/>
			<stop  offset="0.9988" style="stop-color:#ED5500"/>
		</linearGradient>
		<path fill="url(#SVGID_00000038376011820620263880000001692860341238619324_)" d="M1.391,75.277
			c2.121,4.457,5.95,3.641,13.24,7.373c7.291,3.732,7.236,4.537,18.678,6.666c11.443,2.129,17.216,4.41,29.871,8.509
			c12.655,4.099,26.989-0.581,26.989-0.581c8.779,1.678,17.929,5.807,25.616,7.679c7.687,1.873,14.077-0.925,36.499,2.225
			c12.817,1.8,28.924-0.755,44.266-4.266c-2.85-0.987-6.254-1.871-8.594-1.511c-4.742,0.729-4.742,2.188-9.118,2.188
			c-4.377,0-5.471,1.459-9.118,0.365c-2.264-0.679-8.885-0.375-14.454-0.308c-0.019-0.009-0.032-0.027-0.053-0.034
			c-0.072-0.038-0.151-0.055-0.234-0.052c-0.06,0-0.119,0-0.179,0c-0.11,0-0.212,0.028-0.307,0.083
			c-0.005,0.004-0.009,0.007-0.014,0.011c-1.229,0.009-2.388,0.003-3.422-0.031c0.09-0.349-0.093-0.779-0.559-0.779
			c-0.444,0-0.627,0.389-0.567,0.727c-1.039-0.066-1.888-0.174-2.46-0.346c-0.918-0.275-2.022-0.736-3.193-1.306
			c0.325-0.332,0.19-1.047-0.412-1.047c-0.365,0-0.553,0.266-0.577,0.548c-0.682-0.355-1.374-0.738-2.058-1.136
			c0.723-0.06,0.708-1.205-0.054-1.205c-0.504,0-0.679,0.501-0.534,0.86c-0.447-0.267-0.883-0.539-1.31-0.812
			c0.216-0.358,0.059-0.944-0.486-0.944c-0.25,0-0.411,0.129-0.501,0.298c-0.32-0.215-0.632-0.43-0.926-0.64
			c-0.071-0.195-0.239-0.346-0.496-0.365c-0.258-0.192-0.503-0.38-0.731-0.562c0.346-0.324,0.219-1.061-0.393-1.061
			c-0.248,0-0.408,0.127-0.499,0.293c-0.077-0.072-0.162-0.147-0.231-0.216c-0.5-0.5-1.019-1.116-1.561-1.774
			c0.094-0.035,0.173-0.088,0.23-0.159c0.098,0.121,0.245,0.204,0.448,0.204c0.783,0,0.782-1.215,0-1.215
			c-0.203,0-0.351,0.083-0.448,0.204c-0.098-0.121-0.245-0.204-0.448-0.204c-0.25,0-0.41,0.129-0.501,0.297
			c-0.627-0.762-1.286-1.538-1.982-2.24c0.008-0.038,0.017-0.075,0.019-0.113c0.545-0.211,0.472-1.17-0.225-1.17
			c-0.364,0-0.551,0.264-0.577,0.545c-0.601-0.524-1.23-0.969-1.89-1.282c-0.003-0.007-0.004-0.014-0.007-0.02
			c-0.049-0.151-0.133-0.281-0.251-0.391c-0.11-0.118-0.24-0.202-0.391-0.251c-0.145-0.076-0.301-0.111-0.468-0.105
			c-0.06,0-0.119,0-0.179,0c-0.219,0.001-0.424,0.056-0.614,0.166c-0.024,0.018-0.048,0.037-0.071,0.055
			c-1.428-0.198-2.33,0.011-3.305,0.353c-0.046-0.079-0.1-0.153-0.17-0.218c-0.11-0.118-0.24-0.202-0.391-0.251
			c-0.145-0.076-0.301-0.111-0.468-0.105c-0.06,0-0.12,0-0.179,0c-0.219,0.001-0.424,0.056-0.613,0.166
			c-0.082,0.063-0.164,0.127-0.246,0.19c-0.151,0.152-0.255,0.33-0.313,0.536c-0.014,0.108-0.029,0.215-0.043,0.323
			c-0.002,0.06,0.007,0.116,0.015,0.173c-0.107,0.029-0.211,0.059-0.324,0.087c-0.585,0.146-1.127,0.44-1.707,0.792
			c-0.151-0.073-0.328-0.116-0.533-0.116c-0.747,0-1.133,0.553-1.167,1.132c-0.457,0.247-0.961,0.484-1.531,0.691
			c-0.196-0.233-0.491-0.389-0.887-0.389c-0.648,0-1.023,0.417-1.135,0.905c-0.23,0.036-0.468,0.068-0.716,0.093
			c-0.017-0.087-0.043-0.171-0.085-0.251c-0.049-0.151-0.133-0.281-0.251-0.391c-0.11-0.119-0.241-0.202-0.391-0.252
			c-0.145-0.076-0.301-0.111-0.468-0.105c-0.06,0-0.119,0-0.179,0c-0.219,0.001-0.424,0.056-0.614,0.166
			c-0.082,0.063-0.164,0.127-0.246,0.19c-0.151,0.151-0.255,0.33-0.313,0.536c-0.006,0.047-0.013,0.093-0.019,0.14
			c-0.049-0.003-0.096-0.004-0.145-0.008c-0.004-0.42-0.198-0.834-0.576-1.049c0.073-0.025,0.137-0.065,0.191-0.122
			c0.059-0.055,0.101-0.12,0.126-0.196c0.038-0.073,0.056-0.15,0.052-0.234c0-0.06,0-0.119,0-0.179c0-0.11-0.028-0.212-0.083-0.307
			c-0.032-0.041-0.063-0.082-0.095-0.123c-0.076-0.075-0.165-0.128-0.268-0.156c-0.054-0.007-0.108-0.014-0.161-0.022
			c-0.084-0.003-0.162,0.014-0.234,0.052c-0.075,0.024-0.141,0.066-0.196,0.126c-0.059,0.055-0.101,0.12-0.126,0.195
			c-0.038,0.072-0.055,0.151-0.052,0.234c0,0.06,0,0.119,0,0.179c0,0.11,0.028,0.212,0.083,0.307c0.026,0.033,0.051,0.067,0.077,0.1
			c-0.199,0.013-0.37,0.065-0.514,0.149c0.009-0.066,0.018-0.131,0.026-0.197c0.006-0.167-0.029-0.324-0.105-0.468
			c-0.049-0.151-0.133-0.281-0.251-0.391c-0.11-0.119-0.24-0.202-0.391-0.251c-0.145-0.076-0.301-0.111-0.468-0.105
			c-0.06,0-0.119,0-0.179,0c-0.219,0.001-0.424,0.056-0.614,0.166c-0.082,0.063-0.164,0.127-0.246,0.19
			c-0.15,0.152-0.255,0.33-0.313,0.536c-0.014,0.108-0.029,0.215-0.043,0.323c-0.006,0.167,0.029,0.323,0.105,0.468
			c0.012,0.036,0.032,0.067,0.048,0.101c-0.353-0.083-0.714-0.173-1.088-0.272c0,0,17.507-16.778,2.188-36.473
			c0,0-0.677-0.434-1.379-0.671c0.034-0.632-0.353-1.293-1.168-1.293c-1.44,0-1.551,2.049-0.345,2.381
			c0.075,0.515,0.302,1.223,0.742,2.184c0,0.019,0,0.038,0,0.056c0.001,0.219,0.056,0.424,0.166,0.613
			c0.063,0.082,0.127,0.164,0.19,0.246c0.037,0.037,0.081,0.062,0.121,0.093c0.424,0.885,0.796,1.811,1.118,2.762
			c-0.019,0.039-0.042,0.076-0.056,0.119c-0.076,0.145-0.111,0.301-0.105,0.468c-0.006,0.167,0.029,0.324,0.105,0.468
			c0.049,0.151,0.133,0.281,0.251,0.391c0.06,0.06,0.119,0.119,0.179,0.179c0.048,0.047,0.103,0.082,0.156,0.12
			c0.099,0.369,0.19,0.738,0.274,1.108c-0.003,0.001-0.007,0.002-0.01,0.003c-0.09-0.066-0.198-0.115-0.34-0.115
			c-0.619,0-0.74,0.752-0.381,1.07c-0.077,0.596,0.23,1.249,0.922,1.372c0.022,0.186,0.115,0.357,0.286,0.451
			c-0.496,0.531-0.42,1.518,0.223,1.912c0.078,1.151,0.076,2.252,0.009,3.28c-0.187-0.152-0.432-0.248-0.741-0.248
			c-1.455,0-1.555,2.094-0.308,2.393c-0.125,0.489,0.022,1.055,0.443,1.352c-0.063,0.194-0.136,0.368-0.209,0.545
			c-0.03-0.004-0.053-0.017-0.085-0.017c-0.593,0-0.734,0.695-0.43,1.033c-0.077,0.115-0.159,0.235-0.239,0.353
			c-0.132-0.05-0.278-0.083-0.446-0.083c-1.147,0-1.449,1.299-0.918,1.998c-0.15,0.201-0.304,0.402-0.461,0.604
			c-0.02-0.592-0.409-1.168-1.17-1.168c-0.922,0-1.296,0.84-1.133,1.533c-0.577,0.25-0.783,0.931-0.622,1.495
			c-0.875,0.002-1.259,0.762-1.154,1.432c-0.098-0.112-0.243-0.187-0.437-0.187c-0.531,0-0.693,0.554-0.503,0.914
			c-0.025,0.025-0.051,0.051-0.076,0.076c-0.145,0.146-0.245,0.319-0.303,0.515c-0.072-0.216-0.256-0.389-0.551-0.389
			c-0.783,0-0.782,1.215,0,1.215c0.266,0,0.433-0.144,0.519-0.328c0.01,0.079,0.024,0.156,0.049,0.231
			c-0.363,0.247-0.731,0.473-1.104,0.674c-0.192-0.181-0.455-0.301-0.797-0.301c-0.586,0-0.953,0.34-1.1,0.766
			c-0.098-0.111-0.242-0.186-0.435-0.186c-0.546,0-0.702,0.585-0.487,0.942c-0.104,0.048-0.206,0.096-0.309,0.144
			c-0.11-0.032-0.226-0.054-0.358-0.054c-0.193,0-0.362,0.037-0.507,0.102c-0.043-0.262-0.226-0.498-0.569-0.498
			c-0.753,0-0.773,1.111-0.081,1.199c-0.385,0.198-0.758,0.389-1.122,0.568c-0.073-0.508-0.695-0.625-1.014-0.34
			c-0.096-0.142-0.248-0.245-0.471-0.245c-0.442,0-0.625,0.386-0.568,0.723c-0.259,0.012-0.426,0.158-0.503,0.348
			c-0.115-0.044-0.234-0.071-0.363-0.066c-0.06,0-0.119,0-0.179,0c-0.052,0-0.1,0.014-0.15,0.02
			c-0.046-0.258-0.229-0.488-0.567-0.488c-0.628,0-0.743,0.773-0.364,1.083c-0.275-0.042-0.552-0.104-0.832-0.209
			c-0.348-0.13-0.689-0.277-1.024-0.438c-0.022-0.012-0.043-0.022-0.067-0.032c-1.462-0.715-2.757-1.718-3.632-2.953
			c0.001,0,0.002,0.001,0.003,0.001c0.783,0,0.782-1.215,0-1.215c-0.274,0-0.445,0.152-0.528,0.344
			c-0.298-0.594-0.504-1.23-0.589-1.907c-0.034-0.271-0.092-0.515-0.158-0.746c0.03-0.02,0.066-0.031,0.092-0.059
			c0.059-0.055,0.101-0.12,0.126-0.196c0.038-0.072,0.056-0.151,0.052-0.234c0-0.06,0-0.12,0-0.179c0-0.11-0.028-0.212-0.083-0.307
			c-0.032-0.041-0.063-0.082-0.095-0.123c-0.076-0.075-0.165-0.128-0.268-0.156c-0.054-0.007-0.108-0.014-0.161-0.022
			c-0.07-0.003-0.134,0.018-0.196,0.044c-0.412-0.713-0.878-1.291-1.092-2.006c0.068,0.011,0.137,0.021,0.212,0.021
			c0.541,0,0.89-0.291,1.057-0.67c0.065,0.23,0.247,0.421,0.556,0.421c0.783,0,0.782-1.215,0-1.215
			c-0.199,0-0.346,0.079-0.444,0.195c-0.008-0.216-0.065-0.429-0.172-0.613c0.671-0.108,0.642-1.195-0.101-1.195
			c-0.428,0-0.613,0.361-0.574,0.69c-0.087-0.022-0.179-0.035-0.279-0.038c0.025-0.06,0.041-0.114,0.069-0.176
			c0.211-0.476,0.438-0.885,0.666-1.254c0.139,0.057,0.296,0.092,0.476,0.092c0.938,0,1.309-0.869,1.124-1.569
			c0.001-0.194-0.086-0.38-0.244-0.496c0.599-0.941,0.78-1.772-0.198-3.338c-0.236-0.378-0.371-0.756-0.435-1.133
			c0.519-0.055,0.648-0.671,0.378-1.001c0.031,0.002,0.059,0.009,0.091,0.009c1.431,0,1.549-2.023,0.367-2.374
			c0.233-0.474,0.475-0.943,0.676-1.405c0.482-0.052,0.796-0.345,0.937-0.716c0.055,0.046,0.117,0.082,0.189,0.099
			c0.12,0.029,0.229,0.033,0.349,0c0.114-0.032,0.202-0.086,0.287-0.167c0.001-0.001,0.003-0.003,0.004-0.004
			c0.001-0.001,0.001-0.002,0.002-0.003c0.013-0.016,0.084-0.107,0.096-0.124c0.002-0.003,0.004-0.006,0.006-0.01
			c0.026-0.05,0.047-0.103,0.066-0.156c0.001-0.004,0.002-0.007,0.003-0.011c0.032-0.142,0.031-0.231,0-0.372
			c-0.001-0.004-0.002-0.008-0.003-0.012c-0.019-0.052-0.039-0.105-0.065-0.154c-0.023-0.044-0.131-0.168-0.101-0.132
			c-0.002-0.003-0.004-0.005-0.007-0.007c-0.041-0.036-0.083-0.075-0.132-0.101c-0.001,0-0.002-0.001-0.003-0.001
			c-0.011-0.005-0.135-0.058-0.146-0.062c-0.002-0.001-0.003-0.001-0.005-0.002c-0.027-0.007-0.086-0.012-0.087-0.012
			c-0.005-0.001-0.058-0.01-0.085-0.011c-0.058-0.002-0.117,0.013-0.173,0.022c-0.093,0.026-0.172,0.077-0.243,0.141
			c-0.101-0.205-0.258-0.378-0.472-0.489c-0.013-0.068-0.016-0.136-0.035-0.203c-0.019-0.066-0.038-0.143-0.057-0.213
			c0.078,0.014,0.159,0.024,0.246,0.024c1.567,0,1.564-2.431,0-2.431c-0.317,0-0.566,0.102-0.755,0.261
			c-0.087-0.389-0.178-0.793-0.272-1.201c0.115-0.434,0.013-0.93-0.304-1.247c-0.211-0.818-0.445-1.622-0.716-2.338
			c0.66-0.66,0.388-2.108-0.821-2.108c-0.117,0-0.222,0.017-0.322,0.042c-0.064-0.07-0.13-0.132-0.197-0.191
			c0.536-0.697,0.232-2.002-0.915-2.002c-1.412,0-1.545,1.97-0.412,2.359c-0.581,1.43-0.582,4.845-0.582,7.585
			c0,1.807-0.444,4.204-0.932,6.528c0.009-0.311-0.184-0.628-0.584-0.628c-0.783,0-0.782,1.215,0,1.215
			c0.28,0,0.455-0.158,0.535-0.357c-0.572,2.703-1.182,5.271-1.204,6.655c-0.097-0.097-0.229-0.165-0.406-0.165
			c-0.148,0-0.259,0.052-0.351,0.122c0.129-0.357-0.053-0.839-0.546-0.839c-0.783,0-0.782,1.215,0,1.215
			c0.148,0,0.258-0.052,0.351-0.122c-0.129,0.357,0.053,0.839,0.546,0.839c0.198,0,0.346-0.079,0.443-0.195
			c0.022,0.238,0.048,0.473,0.078,0.704c-0.696,0.008-1.075,0.497-1.144,1.036c-0.03,0.012-0.055,0.034-0.081,0.052
			c-0.104,0.052-0.208,0.104-0.312,0.157c-0.091,0.054-0.164,0.127-0.218,0.218c-0.007,0.016-0.013,0.031-0.02,0.047
			c-0.078-0.204-0.256-0.366-0.54-0.366c-0.783,0-0.782,1.215,0,1.215c0.045,0,0.078-0.016,0.118-0.024
			c0.008,0.144,0.073,0.28,0.169,0.384c0.055,0.059,0.12,0.101,0.195,0.126c0.068,0.036,0.142,0.049,0.22,0.049
			c-0.109,0.298-0.11,0.64-0.001,0.939c-0.054,0-0.109,0-0.164,0c-0.059,0-0.109,0.029-0.164,0.044
			c-0.069-0.222-0.252-0.403-0.553-0.403c-0.074,0-0.135,0.02-0.195,0.04c-0.149-0.069-0.322-0.11-0.522-0.11
			c-0.629,0-1.001,0.393-1.124,0.862c-0.015-0.02-0.031-0.039-0.046-0.059c-0.002-0.003-0.004-0.005-0.006-0.008
			c-0.003-0.003-0.005-0.006-0.007-0.01c-0.011-0.011-0.027-0.014-0.038-0.024c-0.096-0.09-0.222-0.154-0.392-0.154
			c-0.171,0-0.298,0.064-0.394,0.155c-0.011,0.01-0.026,0.012-0.036,0.023c-0.119,0.119-0.239,0.239-0.358,0.358
			c-0.075,0.076-0.127,0.165-0.156,0.268c-0.007,0.054-0.014,0.108-0.022,0.161c0,0.11,0.028,0.212,0.083,0.307
			c0.032,0.041,0.063,0.082,0.095,0.123c0.055,0.059,0.12,0.101,0.196,0.126c0.072,0.038,0.15,0.055,0.234,0.052
			c0.084,0.003,0.162-0.014,0.234-0.052c0.075-0.025,0.141-0.067,0.196-0.126c0.119-0.119,0.239-0.239,0.358-0.358
			c0.002-0.002,0.002-0.005,0.004-0.007c0.022-0.025,0.034-0.056,0.051-0.085c0.038,0.15,0.101,0.291,0.19,0.415
			c-1.516,0.802-2.193,1.673-3.173,2.513c-0.004,0-0.008-0.001-0.012-0.001c-0.088,0-0.169,0.01-0.247,0.025
			c-0.184-0.326-0.52-0.562-1.008-0.562c-1.114,0-1.43,1.225-0.961,1.935c-0.136,0.061-0.269,0.122-0.418,0.182
			c-0.013,0.005-0.025,0.01-0.038,0.016c0.107-0.353-0.075-0.808-0.554-0.808c-0.33,0-0.512,0.218-0.564,0.468
			c-0.051,0-0.102,0-0.153,0c-0.219,0.001-0.424,0.056-0.614,0.166c-0.082,0.063-0.164,0.127-0.246,0.19
			c-0.151,0.152-0.255,0.33-0.313,0.536c-0.014,0.108-0.029,0.215-0.043,0.323c-0.002,0.049,0.007,0.095,0.012,0.142
			c-0.244,0.098-0.479,0.187-0.708,0.272c-0.11-0.491-0.486-0.912-1.136-0.912c-0.236,0-0.432,0.06-0.597,0.154
			c-0.083-0.049-0.178-0.084-0.299-0.084c-0.674,0-0.764,0.896-0.278,1.147c0,0.078,0.007,0.156,0.021,0.233
			c-0.291,0-0.555-0.047-0.794-0.143c0.247-0.713-0.12-1.666-1.099-1.666c-0.11,0-0.209,0.014-0.304,0.036
			c-0.067-0.094-0.134-0.187-0.209-0.283c0.078-0.345-0.105-0.759-0.562-0.759c-0.034,0-0.059,0.014-0.09,0.018
			c-0.434-0.451-0.931-0.897-1.457-1.306c-0.089-0.432-0.384-0.812-0.888-0.909c0.301-0.34,0.157-1.031-0.434-1.031
			c-0.364,0-0.552,0.264-0.577,0.546c-0.094,0.006-0.176,0.028-0.246,0.065c-1.008-0.45-1.913-0.567-2.419-0.06
			c-0.695,0.695-1.143,1.886-1.658,2.825c-0.111-0.203-0.279-0.373-0.506-0.475c0.42-0.289,0.316-1.108-0.33-1.108
			c-0.591,0-0.734,0.691-0.433,1.031c-0.89,0.17-1.131,1.222-0.73,1.878c-0.113-0.033-0.231-0.076-0.356-0.138
			c-0.27-0.135-0.585-0.276-0.932-0.415c0.16-0.692-0.216-1.529-1.134-1.529c-0.6,0-0.968,0.358-1.108,0.798
			c-0.108-0.028-0.215-0.055-0.324-0.081c-0.159-0.402-0.515-0.717-1.077-0.717c-0.396,0-0.691,0.156-0.887,0.389
			c-1.416-0.123-2.677,0.059-3.291,0.826c-1.459,1.824-4.742,1.094-6.201-1.094c-1.459-2.188-3.282-5.471-5.471-6.201
			c-2.188-0.729-3.647-0.729-5.106-3.283C20.484,72.36,15.672,63.72,7.03,58.574c-4.789,1.105-7.005,5.555-3.656,7.406
			c3.895,2.153,9.503,6.848,9.503,6.848C4.855,67.968,1.6,68.284,1.6,68.284S-0.729,70.82,1.391,75.277z M83.98,63.04
			c-0.097-0.026-0.193-0.021-0.29,0c0.048-0.007,0.097-0.013,0.145-0.02C83.883,63.027,83.931,63.034,83.98,63.04z M83.761,64.076
			c0.076,0.014,0.151,0.013,0.227-0.01c-0.05,0.007-0.101,0.013-0.151,0.02C83.811,64.083,83.786,64.08,83.761,64.076z
			 M83.61,64.034c0.039,0.015,0.078,0.035,0.121,0.038c-0.014-0.002-0.029-0.004-0.043-0.006
			C83.661,64.056,83.636,64.045,83.61,64.034z M94.096,83.009c-0.783,0-0.782,1.215,0,1.215
			C94.88,84.224,94.879,83.009,94.096,83.009z M97.283,77.433c-0.784,0-0.782,1.215,0,1.215
			C98.066,78.649,98.065,77.433,97.283,77.433z M100.628,79.185c-0.784,0-0.782,1.215,0,1.215
			C101.412,80.401,101.41,79.185,100.628,79.185z M103.496,73.291c-0.783,0-0.782,1.215,0,1.215
			C104.279,74.506,104.278,73.291,103.496,73.291z M101.743,66.759c-0.783,0-0.782,1.215,0,1.215
			C102.527,67.975,102.526,66.759,101.743,66.759z M106.252,69.167c-0.059,0.055-0.101,0.12-0.126,0.196
			c-0.038,0.073-0.056,0.15-0.052,0.234c0,0.053,0,0.106,0,0.159c0,0.11,0.028,0.212,0.083,0.307
			c0.032,0.041,0.063,0.082,0.095,0.123c0.076,0.075,0.165,0.127,0.268,0.156c0.054,0.007,0.108,0.014,0.162,0.022
			c0.084,0.003,0.162-0.014,0.234-0.052c0.075-0.025,0.141-0.066,0.196-0.126c0.059-0.055,0.101-0.12,0.126-0.195
			c0.038-0.073,0.056-0.151,0.052-0.234c0-0.053,0-0.106,0-0.159c0-0.11-0.028-0.212-0.083-0.307
			c-0.032-0.041-0.063-0.082-0.095-0.123c-0.076-0.075-0.165-0.127-0.268-0.156c-0.054-0.007-0.108-0.014-0.162-0.022
			c-0.084-0.003-0.162,0.014-0.234,0.052C106.373,69.066,106.307,69.108,106.252,69.167z M90.114,85.717
			c-0.783,0-0.782,1.215,0,1.215C90.897,86.933,90.896,85.717,90.114,85.717z M85.334,85.717c-0.783,0-0.782,1.215,0,1.215
			C86.118,86.933,86.116,85.717,85.334,85.717z M95.83,83.454c-0.784,0-0.782,1.215,0,1.215
			C96.613,84.669,96.612,83.454,95.83,83.454z M98.519,79.51c-0.784,0-0.782,1.215,0,1.215C99.302,80.726,99.301,79.51,98.519,79.51
			z M91.349,75.746c-0.783,0-0.782,1.215,0,1.215C92.132,76.962,92.131,75.746,91.349,75.746z M83.462,69.613
			c0.783,0,0.782-1.215,0-1.215C82.679,68.397,82.68,69.613,83.462,69.613z M87.047,66.963c-0.784,0-0.782,1.215,0,1.215
			C87.831,68.179,87.829,66.963,87.047,66.963z M83.104,75.209c-0.11,0-0.212,0.028-0.307,0.083
			c-0.041,0.032-0.082,0.063-0.123,0.095c-0.059,0.055-0.101,0.12-0.126,0.196c-0.038,0.072-0.056,0.151-0.052,0.234
			c-0.003,0.084,0.014,0.162,0.052,0.234c0.024,0.075,0.066,0.141,0.126,0.196c0.06,0.06,0.119,0.119,0.179,0.179
			c0.076,0.075,0.165,0.127,0.268,0.156c0.054,0.007,0.108,0.014,0.161,0.022c0.11,0,0.212-0.028,0.307-0.083
			c0.041-0.032,0.082-0.063,0.123-0.095c0.059-0.055,0.101-0.12,0.126-0.196c0.038-0.072,0.055-0.15,0.052-0.234
			c0.003-0.084-0.014-0.162-0.052-0.234c-0.025-0.075-0.066-0.14-0.126-0.196c-0.06-0.06-0.119-0.119-0.179-0.179
			c-0.076-0.075-0.165-0.128-0.268-0.156C83.211,75.223,83.158,75.216,83.104,75.209z M74.5,71.265c-0.783,0-0.782,1.215,0,1.215
			C75.283,72.481,75.282,71.265,74.5,71.265z M68.406,82.199c-0.783,0-0.782,1.215,0,1.215
			C69.189,83.415,69.188,82.199,68.406,82.199z M73.604,66.784c-0.783,0-0.782,1.215,0,1.215C74.387,68,74.386,66.784,73.604,66.784
			z M71.632,74.492c-0.783,0-0.782,1.215,0,1.215C72.415,75.707,72.414,74.492,71.632,74.492z M67.33,78.614
			c-0.784,0-0.782,1.215,0,1.215C68.114,79.83,68.112,78.614,67.33,78.614z M60.698,81.841c-0.783,0-0.782,1.215,0,1.215
			C61.482,83.056,61.48,81.841,60.698,81.841z M64.283,82.378c-0.783,0-0.782,1.215,0,1.215
			C65.066,83.594,65.065,82.378,64.283,82.378z M57.113,81.482c-0.784,0-0.782,1.215,0,1.215
			C57.897,82.698,57.895,81.482,57.113,81.482z M52.095,78.435c-0.784,0-0.782,1.215,0,1.215
			C52.878,79.651,52.877,78.435,52.095,78.435z M47.793,80.586c-0.783,0-0.782,1.215,0,1.215
			C48.576,81.802,48.575,80.586,47.793,80.586z M50.302,80.586c-0.784,0-0.782,1.215,0,1.215
			C51.085,81.802,51.084,80.586,50.302,80.586z M115.905,89.727c-0.783,0-0.782,1.215,0,1.215
			C116.689,90.943,116.687,89.727,115.905,89.727z M117.63,89.011c-0.037,0-0.074,0-0.111,0c-0.783,0-0.782,1.215,0,1.215
			c0.037,0,0.074,0,0.111,0C118.413,90.226,118.412,89.011,117.63,89.011z M115.547,86.859c-0.784,0-0.782,1.215,0,1.215
			C116.33,88.075,116.329,86.859,115.547,86.859z M110.886,91.301c0.784,0,0.782-1.215,0-1.215
			C110.103,90.086,110.104,91.301,110.886,91.301z M107.839,88.473c-0.783,0-0.782,1.215,0,1.215
			C108.623,89.688,108.621,88.473,107.839,88.473z M132.444,91.034c0.007-0.054,0.014-0.108,0.022-0.162
			c0.003-0.084-0.014-0.162-0.052-0.234c-0.024-0.075-0.066-0.14-0.126-0.196c-0.055-0.059-0.12-0.101-0.196-0.126
			c-0.072-0.038-0.15-0.055-0.234-0.052c-0.06,0-0.12,0-0.179,0c-0.11,0-0.212,0.028-0.307,0.083
			c-0.041,0.032-0.082,0.063-0.123,0.095c-0.075,0.076-0.127,0.165-0.156,0.268c-0.007,0.054-0.014,0.108-0.022,0.162
			c-0.003,0.084,0.014,0.162,0.052,0.234c0.025,0.075,0.066,0.141,0.126,0.196c0.055,0.059,0.12,0.101,0.196,0.126
			c0.072,0.038,0.15,0.056,0.234,0.052c0.06,0,0.119,0,0.179,0c0.11,0,0.212-0.028,0.307-0.083c0.041-0.032,0.082-0.063,0.123-0.095
			C132.363,91.227,132.415,91.137,132.444,91.034z M128.99,87.756c-0.783,0-0.782,1.215,0,1.215
			C129.774,88.971,129.772,87.756,128.99,87.756z M124.348,85.73c0.038-0.073,0.055-0.151,0.052-0.234c0-0.06,0-0.119,0-0.179
			c0-0.11-0.028-0.212-0.083-0.307c-0.032-0.041-0.063-0.082-0.095-0.123c-0.076-0.075-0.165-0.127-0.268-0.156
			c-0.054-0.007-0.108-0.015-0.162-0.022c-0.084-0.003-0.162,0.014-0.234,0.052c-0.075,0.025-0.14,0.066-0.195,0.126
			c-0.059,0.055-0.101,0.12-0.126,0.196c-0.038,0.072-0.056,0.15-0.052,0.234c0,0.06,0,0.119,0,0.179
			c0,0.11,0.028,0.212,0.083,0.307c0.032,0.041,0.063,0.082,0.095,0.123c0.076,0.075,0.165,0.127,0.268,0.156
			c0.054,0.007,0.108,0.015,0.162,0.022c0.084,0.003,0.162-0.014,0.234-0.052c0.075-0.025,0.141-0.066,0.195-0.126
			C124.281,85.87,124.323,85.805,124.348,85.73z M118.773,86.859c-0.783,0-0.782,1.215,0,1.215
			C119.557,88.075,119.555,86.859,118.773,86.859z M124.868,87.039c-0.783,0-0.782,1.215,0,1.215
			C125.651,88.254,125.65,87.039,124.868,87.039z M140.3,97.739c0.038-0.072,0.055-0.15,0.052-0.234c0-0.06,0-0.119,0-0.179
			c0-0.11-0.028-0.212-0.083-0.307c-0.032-0.041-0.063-0.082-0.095-0.123c-0.076-0.075-0.165-0.127-0.268-0.156
			c-0.054-0.007-0.108-0.015-0.162-0.022c-0.084-0.003-0.162,0.014-0.234,0.052c-0.075,0.025-0.141,0.067-0.196,0.126
			c-0.059,0.055-0.101,0.12-0.126,0.196c-0.038,0.072-0.056,0.15-0.052,0.234c0,0.06,0,0.119,0,0.179
			c0,0.11,0.028,0.212,0.083,0.307c0.032,0.041,0.063,0.082,0.095,0.123c0.076,0.075,0.165,0.127,0.268,0.156
			c0.054,0.007,0.108,0.015,0.161,0.022c0.084,0.003,0.162-0.014,0.234-0.052c0.075-0.025,0.14-0.066,0.195-0.126
			C140.234,97.88,140.276,97.814,140.3,97.739z M145.66,101.199c-0.783,0-0.782,1.215,0,1.215
			C146.443,102.415,146.442,101.199,145.66,101.199z"/>
		<path fill="#4A827C" d="M129.095,25.385c0.701,0.659,2.155,0.789,3.262,0.538c0.105,0.104,0.215,0.201,0.335,0.284
			c1.67,1.148,4.212-0.421,5.905,0.693c-0.694,0.92-1.152,2.149-0.741,3.225c0.411,1.076,1.983,1.659,2.779,0.826
			c0.343-0.359,0.478-0.886,0.849-1.216c0.774-0.688,2.055-0.093,2.62,0.776c0.565,0.868,0.748,1.946,1.342,2.794
			c0.594,0.848,1.94,1.353,2.639,0.588c0.285-0.312,0.389-0.764,0.697-1.054c0.611-0.575,1.652-0.19,2.214,0.433
			c0.562,0.623,0.897,1.445,1.546,1.977c2.424,1.987,6.34-1.221,7.177-3.542c0.663-1.839-0.149-3.865-1.24-5.382
			c-0.69-0.96-1.939-2.623-3.083-1.638c-0.76,0.654,0.086,2.231-1.114,3.033c-1.533-0.245-1.391-2.175-0.887-3.569
			c0.504-1.394,1.512-1.026,2.823-1.53c1.311-0.504,2.218-0.908,3.741,0c1.522,0.907,6.472,0.895,6.472,0.895l0.001,0
			c-2.54-0.336-4.548-0.924-3.991-1.87c0.915-1.554,11.613-12.186,11.613-12.186c-7.731,2.706-17.206,11.221-18.602,11.934
			c-0.402,0.205-2.163,0.452-4.537,0.713c-0.234,0.026-0.472,0.052-0.718,0.078c-1.081,0.115-2.263,0.231-3.487,0.348
			c-0.281,0.027-0.564,0.054-0.849,0.081c-0.181,0.017-0.364,0.034-0.546,0.051c-0.158,0.015-0.315,0.03-0.473,0.044
			c-0.153,0.014-0.307,0.029-0.461,0.043c-0.193,0.018-0.387,0.036-0.58,0.054c-0.16,0.015-0.319,0.03-0.479,0.044
			c-0.219,0.02-0.438,0.04-0.656,0.06c-0.336,0.031-0.669,0.062-0.999,0.092c-0.048,0.004-0.097,0.009-0.145,0.013
			c-0.234,0.022-0.467,0.043-0.698,0.065c-0.118,0.011-0.236,0.022-0.353,0.033c-0.254,0.024-0.503,0.047-0.751,0.07
			c-0.067,0.006-0.135,0.013-0.202,0.019c-0.252,0.024-0.498,0.047-0.742,0.07c-0.088,0.008-0.177,0.017-0.264,0.025
			c-0.273,0.026-0.54,0.052-0.801,0.078c-0.072,0.007-0.141,0.014-0.212,0.021c-0.207,0.021-0.412,0.041-0.61,0.061
			c-0.098,0.01-0.192,0.02-0.287,0.03c-0.16,0.016-0.318,0.033-0.471,0.049c-0.104,0.011-0.204,0.022-0.304,0.033
			c-0.141,0.015-0.278,0.03-0.411,0.045c-0.093,0.01-0.184,0.021-0.273,0.031c-0.131,0.015-0.256,0.03-0.378,0.044
			c-0.081,0.01-0.162,0.019-0.238,0.029c-0.116,0.014-0.225,0.028-0.331,0.042c-0.071,0.009-0.144,0.019-0.21,0.028
			c-0.108,0.015-0.204,0.029-0.299,0.043c-0.049,0.007-0.103,0.015-0.149,0.022c-0.135,0.021-0.256,0.042-0.359,0.062
			c-3.177,0.613-1.463-2.256-1.463-2.256c1.222-2.727,3.136-5.466,5.268-8.007c0.369-0.44,0.745-0.874,1.125-1.301
			c0.03-0.033,0.059-0.066,0.089-0.099c0.372-0.417,0.747-0.828,1.125-1.229c1.284-1.366,2.584-2.642,3.813-3.785c0,0,0,0,0,0
			c0.162-0.151,0.321-0.296,0.48-0.442c0.07-0.065,0.142-0.131,0.212-0.195c0.145-0.132,0.286-0.259,0.428-0.386
			c0.083-0.075,0.167-0.151,0.249-0.224c0.135-0.121,0.267-0.237,0.399-0.354c0.085-0.075,0.172-0.152,0.256-0.226
			c0.127-0.111,0.25-0.219,0.374-0.326c0.084-0.073,0.169-0.147,0.252-0.219c0.119-0.103,0.235-0.202,0.351-0.301
			c0.082-0.07,0.164-0.14,0.243-0.208c0.115-0.097,0.226-0.191,0.336-0.283c0.074-0.062,0.148-0.125,0.221-0.185
			c0.106-0.089,0.209-0.174,0.311-0.258c0.072-0.06,0.144-0.119,0.214-0.177c0.096-0.079,0.189-0.155,0.28-0.229
			c0.068-0.056,0.135-0.11,0.2-0.163c0.086-0.07,0.171-0.139,0.252-0.204c0.062-0.05,0.122-0.098,0.181-0.145
			c0.076-0.061,0.152-0.122,0.223-0.178c0.055-0.044,0.107-0.085,0.158-0.125c0.066-0.052,0.131-0.104,0.191-0.151
			c0.051-0.04,0.097-0.076,0.144-0.112c0.052-0.04,0.105-0.082,0.151-0.118c0.049-0.038,0.093-0.072,0.135-0.105
			c0.032-0.025,0.067-0.052,0.096-0.074c0.053-0.041,0.099-0.076,0.139-0.106c0.01-0.008,0.025-0.019,0.034-0.026
			c0.04-0.03,0.068-0.052,0.092-0.069c0.006-0.004,0.016-0.012,0.02-0.015c0.022-0.017,0.036-0.027,0.036-0.027
			c-0.365,0.1-0.73,0.21-1.096,0.329c-0.184,0.06-0.369,0.129-0.553,0.193c-0.18,0.063-0.361,0.123-0.541,0.19
			c-0.255,0.095-0.511,0.2-0.766,0.304c-0.108,0.044-0.216,0.084-0.324,0.129c-0.29,0.122-0.581,0.252-0.87,0.384
			c-0.073,0.033-0.146,0.063-0.218,0.097c-0.325,0.15-0.649,0.308-0.973,0.469c-0.036,0.018-0.072,0.034-0.108,0.052
			c-0.348,0.174-0.695,0.356-1.042,0.542c-0.011,0.006-0.023,0.011-0.034,0.018c-0.716,0.385-1.427,0.794-2.133,1.222
			c-0.001,0.001-0.003,0.002-0.004,0.003h0c-1.55,0.939-3.067,1.964-4.528,3.024c0,0,0,0,0,0c-1.759,1.276-3.433,2.597-4.985,3.873
			c0,0,0,0,0,0c-0.008,0.006-0.015,0.013-0.023,0.019c-0.342,0.281-0.677,0.56-1.007,0.835c-0.017,0.014-0.033,0.028-0.05,0.042
			c-0.324,0.271-0.642,0.539-0.953,0.803c-0.017,0.014-0.034,0.029-0.051,0.043c-0.306,0.26-0.606,0.515-0.898,0.765
			c-0.021,0.018-0.042,0.036-0.063,0.054c-0.295,0.253-0.583,0.5-0.863,0.741c-0.01,0.009-0.021,0.018-0.031,0.026c0,0,0,0,0,0
			c-0.355,0.306-0.695,0.598-1.024,0.881c-0.257,0.221-0.506,0.434-0.747,0.639c-0.009,0.008-0.019,0.016-0.028,0.024
			c-0.244,0.208-0.479,0.407-0.705,0.596c-1.231,1.031-2.184,1.77-2.777,2.043c-0.363,0.167-1.185,0.425-2.361,0.751
			c-0.071,0.02-0.146,0.04-0.22,0.06c-0.154,0.042-0.313,0.085-0.478,0.13c-0.082,0.022-0.164,0.044-0.248,0.066
			c-0.215,0.057-0.438,0.116-0.669,0.176c-0.047,0.012-0.094,0.024-0.142,0.037c-0.243,0.063-0.497,0.128-0.757,0.194
			c-2.74,0.696-6.385,1.557-10.441,2.466c0.071,0.027,0.145,0.048,0.214,0.08c0.73,1.566,2.013,2.866,3.568,3.618
			c-0.144-1.059,0.942-1.894,1.958-1.915c0.008,0.491,0.266,1.017,0.68,1.305c0.304,0.211,0.653,0.32,1.015,0.388
			c0.152,0.901,0.029,1.93,0.36,2.798c0.476,1.25,1.871,1.955,3.207,2.022c1.336,0.067,2.638-0.38,3.901-0.821
			c0.946-0.33,2.015-0.781,2.312-1.738c0.263-0.846-0.199-1.735-0.684-2.477c-0.485-0.742-1.034-1.54-0.958-2.423
			c0.075-0.883,1.196-1.658,1.861-1.072c0.102,0.94,1.559,0.913,2.29,0.312C129.098,24.212,128.087,24.437,129.095,25.385z
			 M245.907,41.547c1.349-0.41,3.152-0.707,3.871,0.506c1.079,1.355,1.427,3.259,0.898,4.908c-0.244,0.76-0.658,1.463-0.844,2.239
			c-0.425,1.778,0.691,3.879,2.483,4.239c1.793,0.36,3.735-1.488,3.22-3.242c-0.176-0.6-0.589-1.159-0.528-1.781
			c0.14-1.414,2.33-1.405,3.431-0.507c1.101,0.899,1.972,2.296,3.384,2.462c-1.84,0.612-1.689,3.767,0.121,4.46
			c1.811,0.693,3.944-1.035,3.97-2.974c1.883,1.488,4.538-2.97,6.475-1.554c-0.327,1.267,0.616,2.584,1.804,3.134
			c1.188,0.55,2.551,0.521,3.859,0.482c1.075-0.032,2.322-0.156,2.908-1.058c0.695-1.07,0.05-2.676,0.852-3.669
			c0.666-0.824,1.957-0.743,2.944-0.36c0.988,0.383,1.931,0.997,2.99,1.006c1.059,0.009,2.207-1.018,1.789-1.991
			c4.973,0.764,9.946,1.527,14.919,2.291c0.856,0.131,1.768,0.29,2.396,0.886c0.32,0.304,0.541,0.701,0.869,0.996
			c1.036,0.934,2.696,0.532,3.903-0.167c1.207-0.699,2.357-1.666,3.749-1.755c1.749-0.111,3.229,1.187,4.855,1.84
			c1.718,0.69,3.629,0.655,5.48,0.61c4.255-0.103,14.086-3.494,18.341-3.597l-4.545-0.512c-0.812-1.347-1.625-2.695-2.437-4.042
			c-9.451,4.813-17.72,5.177-31.213,4.255c-6.131-0.419-14.054-2.323-22.513-4.76c-0.165,0.219-0.317,0.449-0.44,0.705
			c-0.162,0.338-0.302,0.72-0.621,0.916c-0.314,0.192-0.711,0.15-1.072,0.224c-1.111,0.228-1.643,1.454-2.34,2.35
			c-0.696,0.896-2.322,1.411-2.804,0.384c-0.221-0.471-0.047-1.023,0.128-1.513c0.454-1.266,0.908-2.533,1.362-3.799
			c0.105-0.293,0.209-0.593,0.297-0.896c-5.049-1.534-10.185-3.178-15.167-4.748c-0.033,0.031-0.069,0.058-0.1,0.093
			c-1.163,1.297,0.288,3.245,1.639,4.345c0.703,0.573,1.491,1.176,2.397,1.149c0.668-0.02,1.272-0.384,1.917-0.56
			c2.44-0.667,5.042,2.16,4.174,4.537c-2.661,1.258-5.71,1.683-8.614,1.201c-0.416-0.069-0.839-0.16-1.198-0.383
			c-0.521-0.323-0.84-0.88-1.229-1.353c-1.529-1.854-4.455-2.368-6.524-1.146c-0.187,0.11-0.376,0.236-0.592,0.261
			c-0.519,0.059-0.919-0.495-0.977-1.015c-0.058-0.519,0.098-1.041,0.075-1.563c-0.075-1.714-1.91-2.727-3.513-3.338
			c-1.984-0.757-4.001-1.423-6.045-1.998c-0.439-0.123-0.9-0.254-1.223-0.575c-0.373-0.371-0.489-0.92-0.588-1.435
			c-0.275-1.431-0.551-2.862-0.826-4.293c-1.751-0.406-3.436-0.792-5.05-1.16c-0.311,1.554,0.521,3.206,1.669,4.347
			c0.277,0.275,0.593,0.577,0.6,0.967c0.013,0.729-0.993,0.983-1.703,0.82c-0.71-0.163-1.509-0.488-2.114-0.082
			c-0.908,0.61-0.207,2.18,0.849,2.463c1.056,0.283,2.148-0.177,3.22-0.395c1.072-0.218,2.434-0.042,2.87,0.961
			c0.196,0.453,0.152,0.981,0.343,1.436C242.687,42.096,244.558,41.957,245.907,41.547z M225.428,38.448
			c0.426,0.274,1.036,0.614,1.284,1.087c0.562,1.075-0.304,2.568,0.422,3.54c0.268,0.359,0.682,0.51,1.116,0.499
			c0.634-0.016,1.313-0.376,1.65-0.937c0.567-0.945,0.43-2.144,0.183-3.218C229.64,37.499,226.55,36.695,225.428,38.448z
			 M232.007,49.376c0.58,0.316,1.288,0.173,1.945,0.106c1.464-0.149,3.258,0.391,3.604,1.821c0.097,0.4,0.064,0.821,0.143,1.225
			c0.411,2.081,4.581,3.399,6.273,2.251c1.936-1.313,0.099-4.753-1.01-6.351c-0.537-0.774-1.256-1.406-1.774-2.2
			c-0.583-0.894-0.854-2.632-1.597-3.311c-2.118-1.936-4.15,0.497-3.931,2.743c-1.139-0.015-2.486-0.042-3.465,0.654
			C231.2,47.024,230.934,48.792,232.007,49.376z M145.508,50.761c1.239,1.085,3.093-0.26,4.084-1.576
			c0.99-1.316,2.513-2.877,3.987-2.143c1.042,0.519,1.766,2.106,2.853,1.692c1.572-0.598-0.295-3.656,1.139-4.536
			c1.577,0.087,3.154,0.173,4.731,0.26c0.981,0.054,2.127,0.204,2.614,1.057c0.254,0.444,0.261,0.981,0.391,1.476
			c0.348,1.326,1.702,2.312,3.071,2.236c1.369-0.076,2.606-1.207,2.804-2.564c0.693-0.131,1.427-0.039,2.066,0.26
			c0.73,1.565,2.013,2.866,3.568,3.617c-0.207-1.52,2.125-2.584,3.137-1.431c0.916,1.044,0.38,2.709,0.875,4.007
			c0.476,1.25,1.871,1.955,3.207,2.022c1.336,0.067,2.638-0.38,3.901-0.821c0.946-0.33,2.014-0.781,2.312-1.738
			c0.263-0.846-0.199-1.735-0.684-2.477c-0.485-0.742-1.034-1.54-0.959-2.423c0.075-0.883,1.196-1.657,1.861-1.072
			c0.102,0.94,1.559,0.913,2.29,0.311c0.73-0.601,1.334-1.529,2.278-1.588c1.853-0.116,2.076,2.842,3.606,3.894
			c1.67,1.148,4.212-0.421,5.905,0.693c-0.694,0.92-1.151,2.149-0.741,3.225c0.411,1.076,1.983,1.659,2.779,0.826
			c0.343-0.359,0.478-0.887,0.849-1.216c0.774-0.688,2.055-0.093,2.62,0.775c0.565,0.868,0.748,1.946,1.342,2.794
			c0.594,0.848,1.94,1.352,2.638,0.588c0.285-0.312,0.389-0.764,0.697-1.054c0.611-0.575,1.652-0.191,2.214,0.433
			c0.562,0.623,0.897,1.445,1.546,1.977c2.424,1.987,6.34-1.221,7.177-3.541c0.663-1.839-0.149-3.865-1.24-5.381
			c-0.69-0.96-1.939-2.623-3.083-1.638c-0.76,0.654,0.086,2.231-1.114,3.033c-1.231,0.823-2.996,0.147-3.288-1.345
			c-0.164-0.838,0.178-1.68,0.316-2.522c0.139-0.842-0.039-1.885-0.82-2.228c-0.331,1.01-1.46,1.69-2.507,1.51
			c-1.048-0.18-1.885-1.197-1.86-2.26c0.016-0.657,0.317-1.281,0.337-1.937c0.056-1.835-2.686-2.963-3.938-1.619
			c-0.318,0.342-0.569,0.807-1.021,0.925c-0.71,0.186-1.303-0.667-1.271-1.4c0.032-0.734,0.424-1.403,0.549-2.126
			c0.339-1.962-1.28-3.663-2.761-4.994c-1.548-1.392-3.488-2.886-5.496-2.339c-1.297,0.353-2.368,1.531-3.71,1.458
			c-0.749-0.041-1.413-0.475-2.133-0.683c-1.069-0.309-2.214-0.113-3.32-0.227c-1.107-0.114-2.329-0.728-2.504-1.826
			c-0.253-1.588,1.83-2.56,3.42-2.321c1.59,0.239,3.125,1.101,4.713,0.851c0.818-0.129,1.571-0.549,2.392-0.658
			c2.086-0.278,3.929,1.458,6.024,1.66c1.031,0.1,2.063-0.18,3.099-0.166c1.036,0.014,2.199,0.451,2.541,1.429
			c0.13,0.37,0.135,0.798,0.382,1.102c0.515,0.633,1.567,0.211,2.108-0.4c0.54-0.612,0.99-1.425,1.787-1.6
			c0.516-0.113,1.045,0.081,1.538,0.273c0.563,0.219,1.151,0.455,1.54,0.917c0.389,0.463,0.492,1.226,0.056,1.644
			c-0.415,0.4-1.113,0.332-1.57,0.682c-0.68,0.521-0.408,1.696,0.295,2.185c0.703,0.489,1.624,0.491,2.48,0.474
			c1.073-1.967,2.712-3.597,3.659-5.628c0.376-0.806,0.596-1.73,0.623-2.635c-4.017-0.984-6.884-1.807-8.437-2.565l0-0.001
			c-0.165-0.08-0.313-0.16-0.449-0.24c-0.018-0.01-0.033-0.021-0.05-0.031c-0.11-0.066-0.207-0.132-0.296-0.197
			c-0.025-0.019-0.05-0.037-0.074-0.056c-0.074-0.058-0.137-0.117-0.194-0.174c-0.019-0.02-0.041-0.039-0.058-0.059
			c-0.066-0.075-0.12-0.149-0.156-0.223c-0.053-0.108-0.084-0.234-0.106-0.367c-0.006-0.039-0.011-0.08-0.015-0.12
			c-0.011-0.107-0.013-0.22-0.008-0.339c0.002-0.041,0-0.078,0.003-0.12c0.011-0.144,0.035-0.296,0.065-0.453
			c0.016-0.083,0.036-0.169,0.057-0.255c0.019-0.079,0.04-0.16,0.062-0.241c0.111-0.398,0.26-0.819,0.439-1.251v0
			c0.98-2.367,2.753-4.986,2.753-4.986c-3.092,1.194-5.909,4.945-7.613,7.085c-0.021,0.026-0.042,0.052-0.062,0.078
			c-0.102,0.128-0.198,0.246-0.292,0.361c-0.07,0.085-0.135,0.163-0.2,0.24c-0.061,0.073-0.123,0.146-0.179,0.211
			c-0.076,0.087-0.145,0.16-0.213,0.231c-0.038,0.04-0.08,0.087-0.116,0.122c-0.099,0.096-0.188,0.175-0.264,0.224
			c-0.025,0.016-0.068,0.032-0.121,0.047c-0.015,0.004-0.036,0.008-0.053,0.012c-0.045,0.011-0.094,0.021-0.153,0.031
			c-0.025,0.004-0.054,0.008-0.082,0.013c-0.065,0.01-0.135,0.019-0.213,0.028c-0.03,0.003-0.061,0.007-0.093,0.01
			c-0.089,0.009-0.187,0.018-0.291,0.027c-3.307,0.278-13.923,0.211-22.486,0.099c-0.27,0.976-0.207,2.101-0.106,3.132
			c0.09,0.923,0.189,1.876,0.643,2.684c0.471,0.839,1.274,1.434,1.866,2.192c0.592,0.758,0.952,1.869,0.409,2.663
			c0.182-0.59-0.682-0.904-1.3-0.893c-1.468,0.026-3.027,0.198-4.179,1.108c-1.152,0.909-1.642,2.788-0.645,3.865
			c0.808,0.873,2.295,0.978,2.903,2.001c0.565,0.951,0.003,2.255-0.928,2.854c-0.93,0.599-2.098,0.664-3.204,0.654
			c-2.465-0.023-4.928-0.336-7.321-0.929c-0.615-1.272-1.199-2.896-0.302-3.988c0.282-0.343,0.695-0.599,0.848-1.016
			c0.238-0.65-0.253-1.312-0.491-1.962c-0.274-0.748-0.215-1.585-0.483-2.335c-0.473-1.32-1.899-2.108-3.295-2.244
			c-1.396-0.136-2.784,0.254-4.132,0.64c-0.629,0.18-1.346,0.442-1.552,1.062c-0.336,1.015,0.955,1.785,2.008,1.966
			c1.054,0.181,2.389,0.441,2.609,1.487c0.283,1.344-1.554,2.02-2.923,2.124c1.068,0.758,0.364,2.633-0.873,3.065
			c-1.236,0.431-2.582-0.063-3.812-0.513c-0.979-0.358-2.132-0.676-3.009-0.113c-0.421,0.27-0.722,0.718-1.181,0.917
			c-1.142,0.496-2.239-0.783-2.743-1.921c-0.505-1.138-1.208-2.54-2.451-2.5c-0.605,0.02-1.174,0.457-1.349,1.036
			c-0.094,0.31-0.081,0.641-0.091,0.965c-0.027,0.876-0.222,1.759-0.068,2.622c0.153,0.863,0.806,1.736,1.682,1.742
			c-0.79,1.183-2.229,1.727-3.319,2.641C145.116,47.992,144.438,49.823,145.508,50.761z M195.825,38.24
			c0.229-0.588,0.734-0.856,1.161-1.271c0.601-0.584,0.535-0.735,0.586-1.527c0.065-1.005,0.488-1.961,1.596-2.147
			c2.385-0.398,4.014,2.814,3.964,4.768c-0.006,0.233-0.029,0.476-0.151,0.675c-0.109,0.178-0.286,0.305-0.408,0.474
			c-0.307,0.43-0.194,1.018-0.069,1.531c0.162,0.66,0.325,1.325,0.605,1.944c0.128,0.283,0.281,0.561,0.334,0.867
			c0.104,0.595-0.201,1.21-0.664,1.597c-0.463,0.387-1.064,0.574-1.66,0.665c-0.811,0.124-1.717,0.057-2.331-0.487
			c-0.318-0.282-0.527-0.665-0.706-1.05c-0.467-1.01-0.771-2.095-0.894-3.201c-0.044-0.396-0.085-0.836-0.382-1.102
			c-0.202-0.181-0.487-0.243-0.702-0.408C195.721,39.273,195.649,38.693,195.825,38.24z M185.427,38.089
			c0.048-0.154,0.099-0.312,0.09-0.473c-0.015-0.283-0.208-0.522-0.291-0.792c-0.221-0.72,0.58-1.525,1.301-1.307
			c0.275,0.083,0.566,0.28,0.823,0.151c0.465-0.232,0.033-0.958,0.176-1.457c0.147-0.511,0.85-0.6,1.357-0.442
			c1.65,0.513,3.658,0.071,4.652,1.853c0.242,0.434,0.38,0.97,0.183,1.425c-0.081,0.188-0.217,0.355-0.255,0.556
			c-0.07,0.37,0.207,0.729,0.182,1.105c-0.033,0.513-0.584,0.815-1.076,0.965c-0.491,0.15-1.057,0.29-1.303,0.741
			c-0.127,0.232-0.141,0.507-0.173,0.77c-0.111,0.914-0.484,1.813-1.144,2.455c-0.66,0.642-1.621,0.996-2.525,0.823
			c-1.24-0.238-2.14-1.412-2.395-2.648C184.775,40.577,185.049,39.293,185.427,38.089z M123.805,30.641
			c0.426,0.274,1.036,0.614,1.284,1.087c0.562,1.075-0.305,2.568,0.422,3.54c0.268,0.359,0.681,0.51,1.116,0.499
			c0.634-0.016,1.313-0.376,1.649-0.937c0.567-0.945,0.43-2.144,0.183-3.218C128.017,29.692,124.927,28.888,123.805,30.641z
			 M43.885,42.954c1.239,1.085,3.093-0.26,4.083-1.576c0.991-1.316,2.513-2.877,3.987-2.143c1.042,0.519,1.766,2.106,2.854,1.692
			c1.573-0.598-0.295-3.656,1.139-4.536c1.577,0.086,3.154,0.173,4.731,0.259c0.981,0.054,2.127,0.204,2.614,1.057
			c0.254,0.444,0.261,0.981,0.391,1.476c0.348,1.326,1.702,2.313,3.071,2.236c1.369-0.076,2.606-1.207,2.804-2.564
			c0.693-0.131,1.427-0.039,2.066,0.26c0.73,1.565,2.013,2.866,3.568,3.617c-0.207-1.521,2.125-2.584,3.137-1.431
			c0.916,1.044,0.38,2.709,0.875,4.007c0.476,1.25,1.871,1.955,3.207,2.022c1.336,0.067,2.638-0.38,3.901-0.821
			c0.946-0.33,2.015-0.781,2.312-1.738c0.263-0.846-0.199-1.735-0.684-2.477c-0.485-0.742-1.034-1.54-0.958-2.423
			c0.075-0.883,1.196-1.658,1.861-1.072c0.102,0.94,1.56,0.913,2.29,0.311c0.73-0.601,1.334-1.529,2.278-1.588
			c1.853-0.116,2.076,2.843,3.606,3.894c1.67,1.148,4.212-0.421,5.905,0.693c-0.694,0.92-1.151,2.148-0.74,3.225
			c0.411,1.076,1.983,1.659,2.779,0.826c0.343-0.359,0.478-0.887,0.849-1.216c0.774-0.688,2.055-0.093,2.62,0.775
			c0.565,0.868,0.748,1.946,1.342,2.794c0.594,0.848,1.94,1.353,2.639,0.588c0.285-0.312,0.388-0.764,0.696-1.054
			c0.611-0.575,1.652-0.19,2.214,0.433c0.562,0.623,0.897,1.445,1.546,1.977c2.424,1.987,6.34-1.221,7.177-3.541
			c0.663-1.839-0.149-3.865-1.24-5.382c-0.69-0.96-1.939-2.623-3.083-1.638c-0.76,0.654,0.086,2.231-1.114,3.033
			c-1.231,0.823-2.996,0.147-3.289-1.345c-0.164-0.838,0.178-1.68,0.316-2.522c0.139-0.842-0.039-1.884-0.82-2.228
			c-0.331,1.01-1.46,1.69-2.508,1.51c-1.048-0.18-1.885-1.197-1.86-2.26c0.016-0.657,0.318-1.281,0.338-1.937
			c0.055-1.835-2.686-2.962-3.938-1.619c-0.318,0.342-0.569,0.807-1.02,0.925c-0.71,0.186-1.303-0.667-1.271-1.401
			c0.032-0.733,0.424-1.403,0.549-2.126c0.257-1.486-0.61-2.821-1.689-3.96c0.735-0.325,1.34-0.946,1.64-1.691
			c-2.022,0.447-4.118,0.9-6.235,1.346c1.669,0.65,2.727,3.052,2.687,4.633c-0.006,0.233-0.029,0.476-0.151,0.675
			c-0.109,0.178-0.286,0.305-0.408,0.475c-0.307,0.43-0.195,1.018-0.069,1.531c0.162,0.66,0.325,1.325,0.604,1.945
			c0.128,0.283,0.281,0.561,0.334,0.867c0.104,0.595-0.2,1.21-0.664,1.596c-0.463,0.387-1.063,0.574-1.66,0.665
			c-0.811,0.124-1.717,0.057-2.331-0.487c-0.318-0.282-0.527-0.665-0.706-1.05c-0.467-1.01-0.771-2.095-0.894-3.201
			c-0.044-0.396-0.085-0.836-0.382-1.102c-0.202-0.181-0.487-0.242-0.702-0.408c-0.385-0.296-0.457-0.876-0.281-1.329
			c0.229-0.588,0.734-0.856,1.161-1.271c0.601-0.584,0.535-0.736,0.586-1.527c0.037-0.567,0.194-1.113,0.517-1.519
			c-1.704,0.353-3.406,0.699-5.077,1.031c0.194,0.18,0.372,0.395,0.524,0.668c0.242,0.434,0.38,0.97,0.183,1.425
			c-0.081,0.188-0.217,0.355-0.255,0.557c-0.07,0.37,0.207,0.729,0.182,1.105c-0.034,0.513-0.584,0.815-1.076,0.965
			c-0.491,0.15-1.057,0.29-1.303,0.741c-0.127,0.232-0.141,0.507-0.173,0.77c-0.111,0.914-0.484,1.813-1.144,2.455
			c-0.66,0.642-1.621,0.996-2.525,0.823c-1.24-0.238-2.14-1.412-2.395-2.648c-0.255-1.236,0.02-2.52,0.398-3.724
			c0.048-0.154,0.099-0.312,0.09-0.473c-0.016-0.282-0.209-0.522-0.291-0.792c-0.04-0.13-0.037-0.262-0.017-0.391
			c-2.232,0.399-4.282,0.74-6.056,1c0.013,0.512,0.173,1.004,0.531,1.391c0.808,0.873,2.295,0.978,2.902,2.001
			c0.565,0.951,0.003,2.255-0.927,2.854c-0.931,0.599-2.098,0.664-3.205,0.654c-2.465-0.023-4.928-0.336-7.321-0.929
			c-0.615-1.272-1.199-2.896-0.302-3.988c0.282-0.344,0.695-0.599,0.847-1.016c0.019-0.053,0.027-0.106,0.037-0.159
			c-2.723,0.264-5.51,0.564-8.271,0.923c1.022,0.773,0.326,2.611-0.898,3.039c-1.237,0.432-2.582-0.063-3.812-0.513
			c-0.979-0.358-2.132-0.676-3.009-0.113c-0.421,0.27-0.722,0.718-1.181,0.917c-0.964,0.419-1.891-0.429-2.462-1.387
			c-1.495,0.338-2.927,0.709-4.284,1.114c0.008,0.159,0.014,0.318,0.042,0.476c0.153,0.863,0.806,1.736,1.682,1.743
			c-0.789,1.183-2.228,1.727-3.319,2.641C43.493,40.185,42.815,42.016,43.885,42.954z M130.384,41.569
			c0.58,0.316,1.288,0.173,1.945,0.106c1.464-0.149,3.258,0.391,3.604,1.821c0.097,0.4,0.064,0.821,0.143,1.225
			c0.411,2.081,4.582,3.399,6.273,2.251c1.936-1.313,0.099-4.752-1.009-6.35c-0.537-0.774-1.256-1.406-1.774-2.2
			c-0.583-0.894-0.854-2.632-1.597-3.311c-2.118-1.936-4.15,0.497-3.931,2.743c-1.139-0.015-2.486-0.042-3.465,0.654
			C129.576,39.216,129.311,40.985,130.384,41.569z"/>
		<path opacity="0.3" fill="#FFFFFF" d="M108.916,37.356c0,0,67.148-4.569,153.752,6.957c2.848,0.963-0.291,1.019-6.275,1.71
			c-6.677,0.771-86.73-4.591-108.212-5.213C121.433,40.037,93.757,38.692,108.916,37.356z"/>
		<path fill="#E4F4ED" d="M131.717,21.66c0,0-1.714,2.869,1.463,2.256c-4.225,1.21-6.945-1.306-2.672-7.272
			c4.273-5.966,19.288-15.039,19.288-15.039S136.169,11.723,131.717,21.66z"/>
		<path fill="#E4F4ED" d="M162.44,21.647c-0.423,0.719,0.638,1.229,2.282,1.582l-0.001,0.002c0,0-4.911-0.736-3.073-3.485
			c1.443-2.159,12.405-10.285,12.405-10.285S163.355,20.093,162.44,21.647z"/>
		<path fill="#E4F4ED" d="M212.178,23.385c0.203,0.42,0.885,0.848,2.004,1.303l0,0c0,0-4.285-1.054-3.193-3.976
			c1.092-2.921,4.439-5.46,4.439-5.46S211.233,21.434,212.178,23.385z"/>
		<path fill="none" stroke="#000000" stroke-linecap="round" stroke-linejoin="round" stroke-miterlimit="10" d="M12.878,72.828
			c0,0-5.608-4.695-9.503-6.848c-3.895-2.153-0.273-7.834,6.183-7.662c0,0,8.182-5.37,12.066-6.991
			c3.884-1.621,13.829-13.069,21.846-16.024c8.017-2.956,19.967-4.295,30.27-5.208c10.303-0.913,45.603-8.741,48.663-10.149
			c3.061-1.408,15.585-15.105,27.394-18.34c0,0-13.627,10.118-18.079,20.055c0,0-1.714,2.869,1.463,2.256
			c3.079-0.594,20.875-1.807,22.271-2.521s10.871-9.228,18.602-11.934c0,0-10.698,10.632-11.612,12.186
			c-0.915,1.555,5.08,2.146,9.01,2.233c3.27,0.072,33.911,0.656,35.039-0.075c1.128-0.731,4.787-6.949,8.939-8.552
			c0,0-4.195,6.181-3.251,8.132c0.945,1.951,12.119,4.062,30.158,8.259s47.154,15.888,63.516,17.006
			c16.363,1.118,25.038,0.363,37.464-7.95c12.426-8.314,26.2-20.578,40.001-17.479c13.802,3.099-2.073,42.169-2.073,42.169
			s0.751,32.391-8.266,34.2c-9.017,1.809-25.823-12.544-37.252-22.757C324.297,66.62,323.98,63.364,316.933,63.96
			c-7.048,0.596-68.04,25.534-88.885,30.847c-20.844,5.313-53.34,15.489-75.762,12.34c-22.422-3.149-28.812-0.352-36.499-2.225
			c-7.687-1.873-16.837-6.002-25.616-7.679c0,0-14.334,4.68-26.989,0.581c-12.656-4.099-18.429-6.38-29.871-8.509
			c-11.443-2.129-11.388-2.934-18.678-6.666c-7.291-3.732-11.119-2.916-13.24-7.373C-0.729,70.82,1.6,68.284,1.6,68.284
			S4.855,67.968,12.878,72.828z"/>
		<path fill="none" stroke="#000000" stroke-linecap="round" stroke-linejoin="round" stroke-miterlimit="10" d="M12.878,72.828
			c0,0,7.339,6.969,14.685,9.897"/>
		<path fill="none" stroke="#000000" stroke-linecap="round" stroke-linejoin="round" stroke-miterlimit="10" d="M9.557,58.318
			c0,0,6.364,1.513,14.568,15.548"/>
		<path fill="none" stroke="#000000" stroke-linecap="round" stroke-linejoin="round" stroke-miterlimit="10" d="M90.171,97.243
			c10.17-2.775,27.98-10.209,21.06-35.531"/>
		<path fill="none" stroke="#000000" stroke-linecap="round" stroke-linejoin="round" stroke-miterlimit="10" d="M149.796,1.605
			c0,0-15.015,9.072-19.288,15.039c-4.273,5.966-1.553,8.482,2.672,7.272"/>
		<path fill="none" stroke="#000000" stroke-linecap="round" stroke-linejoin="round" stroke-miterlimit="10" d="M174.053,9.461
			c0,0-10.962,8.126-12.405,10.285c-1.838,2.749,3.073,3.485,3.073,3.485"/>
		<path fill="none" stroke="#000000" stroke-linecap="round" stroke-linejoin="round" stroke-miterlimit="10" d="M215.428,15.253
			c0,0-3.347,2.538-4.439,5.46c-1.092,2.921,3.193,3.976,3.193,3.976"/>
		<path fill="none" stroke="#000000" stroke-linecap="round" stroke-linejoin="round" stroke-miterlimit="10" d="M77.93,47.629
			c0,0,0.295,27.239-2.005,33.28c-2.299,6.041-7.762,11.058-15.005,10.563"/>
		<path fill="#ED5500" stroke="#000000" stroke-linecap="round" stroke-linejoin="round" stroke-miterlimit="10" d="
			M156.265,106.785c0,0,4.759,13.224,14.118,16.695c0,0-8.552-6.262-9.68-17.178"/>
		<path fill="#E4F4ED" stroke="#000000" stroke-linecap="round" stroke-linejoin="round" stroke-miterlimit="10" d="M231.388,92.438
			c0,0,0.168,1.383,4.916,5.571c0,0-2.376-3.739-2.468-6.16"/>
	</g>
	<g>
		<path fill="#4A827C" d="M36.33,54.592c-0.543,7.944,5.459,14.822,13.407,15.366C57.68,70.5,64.56,64.502,65.103,56.558
			c0.543-7.947-5.457-14.826-13.401-15.369C43.755,40.646,36.873,46.645,36.33,54.592z"/>
		<g>
			<path fill="#69D6CB" d="M37.965,54.703c-0.481,7.041,4.839,13.138,11.883,13.619c7.041,0.481,13.139-4.836,13.621-11.877
				c0.481-7.044-4.837-13.141-11.878-13.622C44.546,42.343,38.446,47.659,37.965,54.703z"/>
			<path fill="#69D5CA" d="M38.071,54.551c-0.474,6.937,4.808,12.948,11.798,13.425c6.987,0.478,13.036-4.759,13.51-11.696
				c0.474-6.94-4.806-12.95-11.794-13.428C44.596,42.374,38.545,47.61,38.071,54.551z"/>
			<path fill="#69D4C9" d="M38.178,54.398c-0.467,6.834,4.777,12.757,11.713,13.231c6.934,0.474,12.933-4.681,13.4-11.515
				c0.467-6.837-4.775-12.76-11.709-13.234C44.646,42.406,38.645,47.561,38.178,54.398z"/>
			<path fill="#68D3C8" d="M38.284,54.245c-0.46,6.73,4.746,12.567,11.629,13.037c6.88,0.47,12.83-4.604,13.29-11.335
				c0.46-6.733-4.745-12.57-11.624-13.04C44.696,42.438,38.744,47.512,38.284,54.245z"/>
			<path fill="#68D2C7" d="M38.391,54.092c-0.453,6.627,4.716,12.377,11.544,12.843c6.826,0.467,12.727-4.527,13.18-11.154
				c0.453-6.63-4.714-12.379-11.54-12.846C44.747,42.47,38.844,47.463,38.391,54.092z"/>
			<path fill="#68D1C6" d="M38.498,53.94c-0.446,6.523,4.685,12.186,11.459,12.649c6.772,0.463,12.624-4.45,13.07-10.973
				c0.446-6.526-4.683-12.189-11.455-12.652C44.797,42.501,38.943,47.414,38.498,53.94z"/>
			<path fill="#68D0C6" d="M38.604,53.787c-0.439,6.42,4.654,11.996,11.374,12.455c6.719,0.459,12.521-4.373,12.959-10.792
				c0.439-6.422-4.652-11.998-11.371-12.457C44.847,42.533,39.043,47.365,38.604,53.787z"/>
			<path fill="#68CFC5" d="M38.711,53.634C38.279,59.951,43.334,65.44,50,65.896c6.665,0.455,12.418-4.295,12.849-10.612
				c0.432-6.319-4.621-11.808-11.286-12.263C44.897,42.565,39.143,47.315,38.711,53.634z"/>
			<path fill="#68CEC4" d="M38.817,53.482c-0.425,6.213,4.592,11.615,11.205,12.067c6.611,0.452,12.315-4.218,12.739-10.431
				c0.425-6.215-4.59-11.618-11.202-12.069C44.947,42.596,39.242,47.266,38.817,53.482z"/>
			<path fill="#67CDC3" d="M38.924,53.329c-0.417,6.109,4.562,11.425,11.12,11.873c6.558,0.448,12.211-4.141,12.629-10.25
				c0.418-6.112-4.559-11.427-11.117-11.875C44.997,42.628,39.342,47.217,38.924,53.329z"/>
			<path fill="#67CCC2" d="M39.031,53.176c-0.41,6.006,4.531,11.235,11.035,11.679c6.504,0.444,12.108-4.064,12.519-10.07
				c0.411-6.008-4.529-11.237-11.033-11.681C45.048,42.66,39.441,47.168,39.031,53.176z"/>
			<path fill="#67CBC1" d="M39.137,53.023c-0.403,5.902,4.5,11.044,10.951,11.485c6.45,0.441,12.005-3.987,12.409-9.889
				c0.403-5.904-4.498-11.046-10.948-11.487C45.098,42.692,39.541,47.119,39.137,53.023z"/>
			<path fill="#67CAC0" d="M39.244,52.871c-0.396,5.799,4.469,10.854,10.866,11.291c6.396,0.437,11.902-3.909,12.298-9.708
				c0.396-5.801-4.467-10.856-10.863-11.293C45.148,42.723,39.64,47.07,39.244,52.871z"/>
			<path fill="#67C9BF" d="M39.35,52.718c-0.389,5.695,4.438,10.664,10.781,11.097c6.343,0.433,11.799-3.832,12.188-9.528
				c0.389-5.697-4.436-10.666-10.779-11.099C45.198,42.755,39.74,47.021,39.35,52.718z"/>
			<path fill="#67C8BE" d="M39.457,52.565c-0.382,5.592,4.407,10.474,10.696,10.903c6.289,0.43,11.696-3.755,12.078-9.347
				c0.382-5.594-4.405-10.475-10.694-10.905C45.248,42.787,39.839,46.972,39.457,52.565z"/>
			<path fill="#66C7BD" d="M39.564,52.413c-0.375,5.488,4.377,10.283,10.612,10.709c6.235,0.426,11.593-3.678,11.968-9.166
				c0.375-5.49-4.374-10.285-10.61-10.711C45.298,42.819,39.939,46.922,39.564,52.413z"/>
			<path fill="#66C6BD" d="M39.67,52.26c-0.368,5.385,4.346,10.093,10.527,10.515c6.182,0.422,11.49-3.601,11.858-8.986
				c0.368-5.387-4.343-10.094-10.525-10.517C45.349,42.85,40.038,46.873,39.67,52.26z"/>
			<path fill="#66C5BC" d="M39.777,52.107c-0.361,5.281,4.315,9.903,10.442,10.321c6.128,0.419,11.387-3.524,11.748-8.805
				c0.361-5.283-4.313-9.904-10.441-10.323C45.399,42.882,40.138,46.824,39.777,52.107z"/>
			<path fill="#66C4BB" d="M39.883,51.955c-0.354,5.178,4.284,9.712,10.357,10.127c6.074,0.415,11.284-3.446,11.637-8.624
				c0.354-5.179-4.282-9.714-10.356-10.129C45.449,42.914,40.237,46.775,39.883,51.955z"/>
			<path fill="#66C3BA" d="M39.99,51.802c-0.347,5.074,4.253,9.522,10.273,9.933c6.021,0.411,11.181-3.369,11.527-8.444
				c0.347-5.076-4.251-9.523-10.271-9.935C45.499,42.946,40.337,46.726,39.99,51.802z"/>
			<path fill="#66C3B9" d="M40.097,51.649c-0.34,4.971,4.222,9.332,10.188,9.739c5.967,0.408,11.077-3.292,11.417-8.263
				c0.34-4.972-4.22-9.333-10.187-9.74C45.549,42.977,40.436,46.677,40.097,51.649z"/>
			<path fill="#65C2B8" d="M40.203,51.496c-0.333,4.867,4.192,9.141,10.103,9.545c5.913,0.404,10.974-3.215,11.307-8.082
				c0.333-4.869-4.189-9.142-10.102-9.546C45.599,43.009,40.536,46.628,40.203,51.496z"/>
			<path fill="#65C1B7" d="M40.31,51.344c-0.326,4.764,4.161,8.951,10.018,9.351c5.86,0.4,10.871-3.138,11.197-7.902
				c0.326-4.765-4.158-8.952-10.018-9.352C45.65,43.041,40.635,46.579,40.31,51.344z"/>
			<path fill="#65C0B6" d="M40.416,51.191c-0.318,4.66,4.13,8.761,9.934,9.157c5.806,0.397,10.768-3.06,11.087-7.721
				c0.319-4.662-4.127-8.762-9.933-9.158C45.7,43.072,40.735,46.529,40.416,51.191z"/>
			<path fill="#65BFB5" d="M40.523,51.038c-0.311,4.557,4.099,8.57,9.849,8.963c5.752,0.393,10.665-2.983,10.976-7.54
				c0.311-4.558-4.097-8.571-9.849-8.964C45.75,43.104,40.834,46.48,40.523,51.038z"/>
			<path fill="#65BEB5" d="M40.63,50.886c-0.304,4.453,4.068,8.38,9.764,8.769c5.698,0.389,10.562-2.906,10.866-7.359
				c0.304-4.454-4.066-8.381-9.764-8.77C45.8,43.136,40.934,46.431,40.63,50.886z"/>
			<path fill="#64BDB4" d="M40.736,50.733c-0.297,4.35,4.038,8.19,9.679,8.575c5.645,0.386,10.459-2.829,10.756-7.179
				c0.297-4.351-4.035-8.19-9.68-8.576C45.85,43.168,41.033,46.382,40.736,50.733z"/>
			<path fill="#64BCB3" d="M40.843,50.58c-0.29,4.246,4.007,7.999,9.594,8.381c5.591,0.382,10.356-2.752,10.646-6.998
				c0.29-4.247-4.004-8-9.595-8.382C45.9,43.199,41.133,46.333,40.843,50.58z"/>
			<path fill="#64BBB2" d="M40.949,50.427c-0.283,4.143,3.976,7.809,9.51,8.187c5.537,0.378,10.253-2.674,10.536-6.817
				c0.283-4.144-3.973-7.81-9.51-8.188C45.951,43.231,41.232,46.284,40.949,50.427z"/>
			<path fill="#64BAB1" d="M41.056,50.275c-0.276,4.039,3.945,7.619,9.425,7.993c5.484,0.375,10.15-2.597,10.426-6.637
				c0.276-4.04-3.942-7.619-9.426-7.994C46.001,43.263,41.332,46.235,41.056,50.275z"/>
			<path fill="#64B9B0" d="M41.163,50.122c-0.269,3.936,3.914,7.428,9.34,7.799c5.43,0.371,10.047-2.52,10.315-6.456
				c0.269-3.936-3.911-7.429-9.341-7.8C46.051,43.295,41.431,46.186,41.163,50.122z"/>
			<path fill="#64B8AF" d="M41.269,49.969c-0.262,3.832,3.883,7.238,9.255,7.605c5.376,0.367,9.943-2.443,10.205-6.275
				c0.262-3.833-3.881-7.238-9.257-7.606C46.101,43.326,41.531,46.137,41.269,49.969z"/>
			<path fill="#63B7AE" d="M41.376,49.817c-0.255,3.729,3.853,7.048,9.171,7.411c5.323,0.364,9.84-2.366,10.095-6.095
				c0.255-3.729-3.85-7.048-9.172-7.412C46.151,43.358,41.631,46.087,41.376,49.817z"/>
			<path fill="#63B6AD" d="M41.482,49.664c-0.248,3.625,3.822,6.857,9.086,7.217c5.269,0.36,9.737-2.289,9.985-5.914
				c0.248-3.626-3.819-6.858-9.088-7.218C46.201,43.39,41.73,46.038,41.482,49.664z"/>
			<path fill="#63B5AC" d="M41.589,49.511c-0.241,3.522,3.791,6.667,9.001,7.023c5.215,0.356,9.634-2.211,9.875-5.733
				c0.241-3.522-3.788-6.667-9.003-7.024C46.252,43.422,41.83,45.989,41.589,49.511z"/>
			<path fill="#63B4AC" d="M41.696,49.359c-0.234,3.418,3.76,6.477,8.916,6.829c5.161,0.353,9.531-2.134,9.765-5.553
				c0.234-3.419-3.757-6.477-8.918-6.829C46.302,43.453,41.929,45.94,41.696,49.359z"/>
			<path fill="#63B3AB" d="M41.802,49.206c-0.226,3.315,3.729,6.286,8.832,6.635c5.108,0.349,9.428-2.057,9.654-5.372
				c0.227-3.315-3.726-6.286-8.834-6.635C46.352,43.485,42.029,45.891,41.802,49.206z"/>
			<path fill="#63B2AA" d="M41.909,49.053c-0.219,3.211,3.699,6.096,8.747,6.441c5.054,0.345,9.325-1.98,9.544-5.191
				c0.219-3.211-3.695-6.096-8.749-6.441C46.402,43.517,42.128,45.842,41.909,49.053z"/>
			<path fill="#62B1A9" d="M42.015,48.9c-0.212,3.108,3.668,5.906,8.662,6.247c5,0.342,9.222-1.903,9.434-5.011
				c0.212-3.108-3.665-5.906-8.665-6.247C46.452,43.548,42.228,45.793,42.015,48.9z"/>
			<path fill="#62B0A8" d="M42.122,48.748c-0.205,3.004,3.637,5.716,8.577,6.053c4.947,0.338,9.119-1.825,9.324-4.83
				c0.205-3.004-3.634-5.715-8.58-6.053C46.502,43.58,42.327,45.744,42.122,48.748z"/>
			<path fill="#62AFA7" d="M42.228,48.595c-0.198,2.901,3.606,5.525,8.493,5.859c4.893,0.334,9.016-1.748,9.214-4.649
				c0.198-2.901-3.603-5.525-8.496-5.859C46.553,43.612,42.427,45.694,42.228,48.595z"/>
		</g>
		<g>
			<path fill="#69D4C9" d="M58.385,57.518c0.293-4.288-2.947-8.001-7.233-8.294c-4.289-0.293-8.004,2.945-8.297,7.233
				c-0.293,4.291,2.946,8.006,7.236,8.299C54.377,65.049,58.092,61.809,58.385,57.518z"/>
			<path fill="#69D3C8" d="M58.317,57.616c0.288-4.221-2.927-7.879-7.179-8.17c-4.255-0.291-7.938,2.896-8.226,7.117
				c-0.289,4.224,2.926,7.884,7.181,8.174C54.345,65.028,58.029,61.84,58.317,57.616z"/>
			<path fill="#69D2C7" d="M58.249,57.714c0.284-4.155-2.907-7.757-7.124-8.045c-4.221-0.288-7.872,2.846-8.155,7.001
				c-0.284,4.158,2.906,7.761,7.127,8.05C54.313,65.008,57.965,61.872,58.249,57.714z"/>
			<path fill="#68D1C6" d="M58.181,57.812c0.279-4.089-2.887-7.635-7.07-7.921c-4.186-0.286-7.805,2.797-8.085,6.885
				c-0.28,4.092,2.887,7.639,7.073,7.925C54.281,64.987,57.901,61.903,58.181,57.812z"/>
			<path fill="#68D0C5" d="M58.112,57.91c0.275-4.022-2.868-7.513-7.016-7.797c-4.152-0.284-7.739,2.747-8.014,6.77
				c-0.275,4.025,2.867,7.517,7.018,7.801C54.249,64.967,57.837,61.935,58.112,57.91z"/>
			<path fill="#68CFC5" d="M58.044,58.007c0.27-3.956-2.848-7.391-6.962-7.672c-4.117-0.281-7.673,2.698-7.943,6.654
				c-0.271,3.959,2.847,7.395,6.964,7.676C54.217,64.946,57.773,61.966,58.044,58.007z"/>
			<path fill="#68CEC4" d="M57.976,58.105c0.266-3.89-2.828-7.269-6.907-7.548c-4.083-0.279-7.607,2.648-7.873,6.538
				c-0.266,3.892,2.827,7.273,6.91,7.552C54.185,64.926,57.71,61.998,57.976,58.105z"/>
			<path fill="#68CDC3" d="M57.907,58.203c0.261-3.823-2.808-7.147-6.853-7.424c-4.048-0.277-7.541,2.599-7.802,6.422
				c-0.261,3.826,2.807,7.15,6.855,7.427C54.153,64.905,57.646,62.029,57.907,58.203z"/>
			<path fill="#68CCC2" d="M57.839,58.301c0.257-3.757-2.789-7.025-6.799-7.299c-4.014-0.274-7.474,2.55-7.731,6.307
				c-0.257,3.76,2.787,7.028,6.801,7.303C54.12,64.885,57.582,62.061,57.839,58.301z"/>
			<path fill="#67CBC1" d="M57.771,58.399c0.252-3.691-2.769-6.904-6.745-7.175c-3.98-0.272-7.408,2.5-7.66,6.191
				c-0.252,3.693,2.767,6.906,6.747,7.178C54.088,64.864,57.518,62.092,57.771,58.399z"/>
			<path fill="#67CAC0" d="M57.702,58.497c0.248-3.624-2.749-6.782-6.691-7.051c-3.945-0.27-7.342,2.451-7.59,6.075
				c-0.248,3.627,2.747,6.784,6.693,7.053C54.056,64.844,57.454,62.124,57.702,58.497z"/>
			<path fill="#67C9BF" d="M57.634,58.595c0.243-3.558-2.729-6.66-6.636-6.927c-3.911-0.267-7.276,2.401-7.519,5.959
				c-0.243,3.56,2.728,6.662,6.638,6.929C54.024,64.824,57.391,62.155,57.634,58.595z"/>
			<path fill="#67C8BE" d="M57.566,58.693c0.239-3.492-2.71-6.538-6.582-6.802c-3.876-0.265-7.21,2.352-7.448,5.844
				c-0.239,3.494,2.708,6.539,6.584,6.804C53.992,64.803,57.327,62.187,57.566,58.693z"/>
			<path fill="#67C7BD" d="M57.497,58.791c0.234-3.425-2.69-6.416-6.528-6.678c-3.842-0.263-7.143,2.302-7.377,5.728
				c-0.234,3.428,2.688,6.417,6.53,6.68C53.96,64.783,57.263,62.218,57.497,58.791z"/>
			<path fill="#66C6BC" d="M57.429,58.889c0.229-3.359-2.67-6.294-6.474-6.554c-3.807-0.26-7.077,2.253-7.307,5.612
				c-0.23,3.361,2.668,6.295,6.475,6.555C53.928,64.762,57.199,62.25,57.429,58.889z"/>
			<path fill="#66C5BC" d="M57.361,58.987c0.225-3.293-2.65-6.172-6.419-6.429c-3.773-0.258-7.011,2.204-7.236,5.496
				c-0.225,3.295,2.648,6.173,6.421,6.431C53.895,64.742,57.136,62.281,57.361,58.987z"/>
			<path fill="#66C4BB" d="M57.292,59.085c0.22-3.226-2.63-6.05-6.365-6.305c-3.738-0.255-6.945,2.154-7.165,5.381
				c-0.221,3.228,2.628,6.051,6.367,6.306C53.863,64.721,57.072,62.313,57.292,59.085z"/>
			<path fill="#66C3BA" d="M57.224,59.182c0.216-3.16-2.611-5.928-6.311-6.181c-3.704-0.253-6.879,2.105-7.095,5.265
				c-0.216,3.162,2.608,5.929,6.312,6.182C53.831,64.701,57.008,62.344,57.224,59.182z"/>
			<path fill="#66C2B9" d="M57.156,59.28c0.211-3.094-2.591-5.806-6.257-6.057c-3.67-0.251-6.812,2.055-7.024,5.149
				c-0.212,3.096,2.588,5.806,6.258,6.057C53.799,64.68,56.944,62.376,57.156,59.28z"/>
			<path fill="#66C2B8" d="M57.087,59.378c0.207-3.027-2.571-5.684-6.202-5.932c-3.635-0.248-6.746,2.006-6.953,5.033
				c-0.207,3.029,2.569,5.684,6.204,5.933C53.767,64.66,56.88,62.407,57.087,59.378z"/>
			<path fill="#65C1B7" d="M57.019,59.476c0.202-2.961-2.551-5.562-6.148-5.808c-3.601-0.246-6.68,1.957-6.882,4.918
				c-0.202,2.963,2.549,5.562,6.15,5.808C53.735,64.64,56.817,62.439,57.019,59.476z"/>
			<path fill="#65C0B6" d="M56.951,59.574c0.198-2.895-2.532-5.44-6.094-5.684c-3.566-0.244-6.614,1.907-6.812,4.802
				c-0.198,2.896,2.529,5.44,6.095,5.683C53.703,64.619,56.753,62.47,56.951,59.574z"/>
			<path fill="#65BFB5" d="M56.882,59.672c0.193-2.828-2.512-5.318-6.04-5.559c-3.532-0.241-6.548,1.858-6.741,4.686
				c-0.193,2.83,2.509,5.318,6.041,5.559C53.671,64.599,56.689,62.502,56.882,59.672z"/>
			<path fill="#65BEB4" d="M56.814,59.77c0.189-2.762-2.492-5.196-5.985-5.435c-3.497-0.239-6.482,1.808-6.67,4.57
				c-0.189,2.764,2.489,5.195,5.987,5.434C53.638,64.578,56.625,62.534,56.814,59.77z"/>
			<path fill="#65BDB4" d="M56.746,59.868c0.184-2.696-2.472-5.075-5.931-5.311c-3.463-0.237-6.415,1.759-6.6,4.455
				c-0.184,2.697,2.469,5.073,5.932,5.31C53.606,64.558,56.562,62.565,56.746,59.868z"/>
			<path fill="#64BCB3" d="M56.678,59.966c0.18-2.629-2.453-4.953-5.877-5.187c-3.429-0.234-6.349,1.709-6.529,4.339
				c-0.18,2.631,2.449,4.951,5.878,5.185C53.574,64.537,56.498,62.597,56.678,59.966z"/>
			<path fill="#64BBB2" d="M56.609,60.064c0.175-2.563-2.433-4.831-5.823-5.062c-3.394-0.232-6.283,1.66-6.458,4.223
				c-0.175,2.564,2.429,4.829,5.824,5.061C53.542,64.517,56.434,62.628,56.609,60.064z"/>
			<path fill="#64BAB1" d="M56.541,60.162c0.171-2.497-2.413-4.709-5.768-4.938c-3.36-0.23-6.217,1.611-6.387,4.107
				c-0.171,2.498,2.41,4.707,5.769,4.936C53.51,64.496,56.37,62.66,56.541,60.162z"/>
			<path fill="#64B9B0" d="M56.473,60.259c0.166-2.43-2.393-4.587-5.714-4.814c-3.325-0.227-6.151,1.561-6.317,3.992
				c-0.166,2.431,2.39,4.584,5.715,4.812C53.478,64.476,56.306,62.691,56.473,60.259z"/>
			<path fill="#64B8AF" d="M56.404,60.357c0.162-2.364-2.374-4.465-5.66-4.689c-3.291-0.225-6.084,1.512-6.246,3.876
				c-0.162,2.365,2.37,4.462,5.661,4.687C53.446,64.456,56.243,62.723,56.404,60.357z"/>
			<path fill="#63B7AE" d="M56.336,60.455c0.157-2.298-2.354-4.343-5.606-4.565c-3.256-0.223-6.018,1.462-6.175,3.76
				c-0.157,2.299,2.35,4.34,5.607,4.563C53.413,64.435,56.179,62.754,56.336,60.455z"/>
			<path fill="#63B6AD" d="M56.268,60.553c0.153-2.231-2.334-4.221-5.551-4.441c-3.222-0.22-5.952,1.413-6.104,3.644
				c-0.153,2.232,2.33,4.218,5.552,4.438C53.381,64.415,56.115,62.786,56.268,60.553z"/>
			<path fill="#63B5AC" d="M56.199,60.651c0.148-2.165-2.314-4.099-5.497-4.317c-3.188-0.218-5.886,1.363-6.034,3.529
				c-0.148,2.166,2.31,4.096,5.498,4.313C53.349,64.394,56.051,62.817,56.199,60.651z"/>
			<path fill="#63B4AB" d="M56.131,60.749c0.143-2.099-2.295-3.977-5.443-4.192c-3.153-0.215-5.82,1.314-5.963,3.413
				c-0.143,2.099,2.29,3.973,5.444,4.189C53.317,64.374,55.987,62.849,56.131,60.749z"/>
			<path fill="#63B3AB" d="M56.063,60.847c0.139-2.033-2.275-3.855-5.389-4.068c-3.119-0.213-5.753,1.265-5.892,3.297
				c-0.139,2.033,2.27,3.851,5.389,4.064C53.285,64.353,55.924,62.88,56.063,60.847z"/>
			<path fill="#63B2AA" d="M55.994,60.945c0.134-1.966-2.255-3.733-5.335-3.944c-3.084-0.211-5.687,1.215-5.822,3.181
				c-0.134,1.967,2.251,3.729,5.335,3.94C53.253,64.333,55.86,62.912,55.994,60.945z"/>
			<path fill="#62B1A9" d="M55.926,61.043c0.13-1.9-2.235-3.611-5.28-3.819c-3.05-0.208-5.621,1.166-5.751,3.066
				c-0.13,1.9,2.231,3.607,5.281,3.815C53.221,64.312,55.796,62.943,55.926,61.043z"/>
			<path fill="#62B0A8" d="M55.858,61.141c0.125-1.834-2.215-3.489-5.226-3.695c-3.015-0.206-5.555,1.116-5.68,2.95
				c-0.125,1.834,2.211,3.485,5.226,3.691C53.189,64.292,55.732,62.975,55.858,61.141z"/>
			<path fill="#62AFA7" d="M55.789,61.239c0.121-1.767-2.196-3.368-5.172-3.571c-2.981-0.204-5.489,1.067-5.609,2.834
				c-0.121,1.767,2.191,3.363,5.172,3.566C53.156,64.272,55.669,63.006,55.789,61.239z"/>
		</g>
		<path opacity="0.4" fill="#FFFFFF" d="M46.329,53.359c-0.308,4.511,3.102,8.421,7.613,8.729c4.514,0.308,8.427-3.101,8.736-7.612
			c0.309-4.516-3.104-8.426-7.619-8.735C50.547,45.433,46.637,48.843,46.329,53.359z"/>
		<path opacity="0.2" fill="#FFFFFF" d="M39.063,58.194c-0.145,2.117,1.455,3.956,3.575,4.1c2.119,0.145,3.954-1.459,4.099-3.576
			c0.145-2.117-1.455-3.956-3.574-4.1C41.043,54.473,39.208,56.077,39.063,58.194z"/>
		<path fill="none" stroke="#000000" stroke-linecap="round" stroke-linejoin="round" stroke-miterlimit="10" d="M37.965,54.703
			c-0.481,7.041,4.839,13.138,11.883,13.619c7.041,0.481,13.139-4.836,13.621-11.877c0.481-7.044-4.837-13.141-11.878-13.622
			C44.546,42.343,38.446,47.659,37.965,54.703z"/>
		<path d="M44.349,55.139c-0.24,3.518,2.417,6.562,5.935,6.802c3.515,0.24,6.56-2.414,6.8-5.932c0.241-3.521-2.415-6.564-5.93-6.805
			C47.636,48.965,44.589,51.619,44.349,55.139z"/>
		<path fill="#FFFFFF" d="M43.185,51.162c-0.072,1.051,0.721,1.959,1.771,2.03c1.047,0.072,1.956-0.72,2.028-1.771
			c0.071-1.047-0.721-1.954-1.768-2.026C44.166,49.324,43.257,50.115,43.185,51.162z"/>
		<path fill="#FFFFFF" d="M53.288,60.926c-0.036,0.522,0.359,0.973,0.883,1.009c0.526,0.036,0.974-0.357,1.01-0.879
			c0.036-0.522-0.354-0.976-0.881-1.012C53.777,60.008,53.324,60.404,53.288,60.926z"/>
	</g>
	<g>
		<g>
			<path fill="#E4F4ED" d="M335.184,67.263c5.631,1.401,6.535-4.214,7.729-8.991c1.194-4.777,0.889-7.922-3.037-8.884
				c-3.346-0.82-12.263-0.886-18.099-0.586c7.557-0.696,13.827-2.941,21.539-8.101c12.426-8.314,26.2-20.578,40.001-17.479
				c13.802,3.099-2.073,42.169-2.073,42.169s0.751,32.391-8.266,34.2c-9.017,1.809-25.823-12.544-37.252-22.757
				C324.297,66.62,323.98,63.364,316.933,63.96C322.13,62.615,329.553,65.862,335.184,67.263z"/>
		</g>
		<path fill="#C7D8D0" d="M316.933,63.96c5.197-1.345,12.62,1.902,18.251,3.302c5.631,1.401,6.535-4.214,7.729-8.991
			c1.194-4.777,0.888-7.922-3.037-8.884c-3.346-0.82-12.263-0.886-18.099-0.586c5.848-0.539,10.927-2.012,16.497-5.038
			c2.287-0.452,4.821-1.218,7.526-2.456c0,0-6.776,8.34,2.997,3.388c0,0-5.473,5.343,2.215,3.388c0,0-6.906,3.257,0.651,2.997
			c0,0-8.209,2.997-0.391,2.476c0,0-8.209,2.085,0.521,3.518c0,0-7.167,1.042-0.13,2.997c0,0-8.861-1.303-1.954,2.346
			c0,0-4.821-0.261-0.391,2.215c0,0-6.515-1.303-1.955,2.997c0,0-6.515-2.476-2.997,2.867c0,0-5.212-3.127-2.997,1.955
			c0,0-7.167-5.994-5.994-1.433c0,0-2.747-4.442-10.087-4.146C322.59,64.446,320.746,63.638,316.933,63.96z"/>
		<g>
			<path fill="none" stroke="#000000" stroke-linecap="round" stroke-linejoin="round" stroke-miterlimit="10" d="M335.184,67.263
				c5.631,1.401,6.535-4.214,7.729-8.991c1.194-4.777,0.889-7.922-3.037-8.884c-3.346-0.82-12.263-0.886-18.099-0.586
				c7.557-0.696,13.827-2.941,21.539-8.101c12.426-8.314,26.2-20.578,40.001-17.479c13.802,3.099-2.073,42.169-2.073,42.169
				s0.751,32.391-8.266,34.2c-9.017,1.809-25.823-12.544-37.252-22.757C324.297,66.62,323.98,63.364,316.933,63.96
				C322.13,62.615,329.553,65.862,335.184,67.263z"/>
		</g>
		<g>
			<path fill="none" stroke="#000000" stroke-linecap="round" stroke-linejoin="round" stroke-miterlimit="10" d="M342.913,58.272
				c0,0,15.437,3.973,21.222,4.099c5.785,0.126,14.546,2.072,14.546,2.072"/>
			<path fill="none" stroke="#000000" stroke-linecap="round" stroke-linejoin="round" stroke-miterlimit="10" d="M364.135,62.371
				c0,0,6.297,4.473,13.536,6.989"/>
			<path fill="none" stroke="#000000" stroke-linecap="round" stroke-linejoin="round" stroke-miterlimit="10" d="M342.809,59.8
				c0,0,28.811,12.344,34.825,15.046"/>
			<path fill="none" stroke="#000000" stroke-linecap="round" stroke-linejoin="round" stroke-miterlimit="10" d="M342.034,61.745
				c0,0,19.634,8.141,32.985,19.814"/>
			
				<line fill="none" stroke="#000000" stroke-linecap="round" stroke-linejoin="round" stroke-miterlimit="10" x1="375.231" y1="78.454" x2="360.3" y2="71.094"/>
			<path fill="none" stroke="#000000" stroke-linecap="round" stroke-linejoin="round" stroke-miterlimit="10" d="M375.632,90.339
				c-0.402-0.027-16.569-16.648-34.492-26.082"/>
			<path fill="none" stroke="#000000" stroke-linecap="round" stroke-linejoin="round" stroke-miterlimit="10" d="M372.772,94.712
				c0,0-22.881-18.259-32.669-28.764"/>
			<path fill="none" stroke="#000000" stroke-linecap="round" stroke-linejoin="round" stroke-miterlimit="10" d="M363.25,94.061
				c-0.546,0.111-16.672-13.185-25.696-26.637"/>
			<path fill="none" stroke="#000000" stroke-linecap="round" stroke-linejoin="round" stroke-miterlimit="10" d="M343.576,80.277
				c0,0-6.878-6.488-11.14-13.781"/>
			<path fill="none" stroke="#000000" stroke-linecap="round" stroke-linejoin="round" stroke-miterlimit="10" d="M343.215,56.929
				c0,0,16.581,0.432,22.261,1.536c5.681,1.104,14.654,1.061,14.654,1.061"/>
			<path fill="none" stroke="#000000" stroke-linecap="round" stroke-linejoin="round" stroke-miterlimit="10" d="M365.476,58.465
				c0,0,7.103-3.035,14.711-3.958"/>
			<path fill="none" stroke="#000000" stroke-linecap="round" stroke-linejoin="round" stroke-miterlimit="10" d="M343.488,55.07
				c0,0,31.204-5.716,37.655-7.08"/>
			<path fill="none" stroke="#000000" stroke-linecap="round" stroke-linejoin="round" stroke-miterlimit="10" d="M343.481,53.043
				c0,0,21.007-3.593,36.531-12.168"/>
			
				<line fill="none" stroke="#000000" stroke-linecap="round" stroke-linejoin="round" stroke-miterlimit="10" x1="379.56" y1="43.954" x2="363.408" y2="47.978"/>
			<path fill="none" stroke="#000000" stroke-linecap="round" stroke-linejoin="round" stroke-miterlimit="10" d="M382.473,32.424
				c-0.399-0.058-20.518,12.942-40.035,18.359"/>
			<path fill="none" stroke="#000000" stroke-linecap="round" stroke-linejoin="round" stroke-miterlimit="10" d="M380.607,27.545
				c0,0-27.986,13.962-39.78,22.152"/>
			<path fill="none" stroke="#000000" stroke-linecap="round" stroke-linejoin="round" stroke-miterlimit="10" d="M371.163,26.16
				c-0.511-0.224-22.555,11.559-34.228,22.79"/>
		</g>
	</g>
	<g opacity="0.39">
		<path fill="#6DB5AC" d="M174.199,59.678c-0.446-2.676-1.561-4.682,0.669-4.905c2.23-0.223,3.345-0.669,4.905,4.013
			c1.561,4.682,0.223,2.899,1.115,7.804c0.892,4.905,1.115,5.797,1.338,9.811c0.223,4.013,0.223,5.351-2.23,8.919
			c-2.453,3.567-1.561,8.473-4.236,8.919c-2.676,0.446-2.899,2.899-2.676,0.446c0.223-2.453,0.892-6.02,2.23-7.581
			c1.338-1.561,2.453-4.905,1.784-8.027c-0.669-3.122,0.892-5.351,0-8.696c-0.892-3.345-1.784-6.912-1.784-6.912L174.199,59.678z"/>
		<path fill="#6DB5AC" d="M162.875,58.648c-0.446-2.676-1.561-4.682,0.669-4.905c2.23-0.223,3.344-0.669,4.905,4.014
			c1.561,4.682,0.223,2.899,1.115,7.804c0.892,4.905,1.115,5.797,1.338,9.811c0.223,4.014,0.223,5.351-2.23,8.919
			c-2.453,3.568-1.561,8.473-4.236,8.919c-2.676,0.446-2.899,2.899-2.676,0.446c0.223-2.453,0.892-6.02,2.23-7.581
			c1.338-1.561,2.453-4.905,1.784-8.027c-0.669-3.122,0.892-5.351,0-8.696c-0.892-3.345-1.784-6.912-1.784-6.912L162.875,58.648z"/>
		<path fill="#6DB5AC" d="M186.686,62.353c0.796,3.317,2.007,4.236,2.23,8.919c0.223,4.682-0.669,4.905-0.669,8.027
			c0,3.122,0,3.791-0.446,7.581c-0.446,3.79-1.188,7.616-2.007,5.797c-2.007-4.459-2.007-5.128-1.561-8.027
			c0.446-2.899,1.338-8.473,0.446-12.263c-0.892-3.79,0.223-5.574-1.115-10.257C182.226,57.448,185.348,56.779,186.686,62.353z"/>
		<path fill="#6DB5AC" d="M196.719,68.151c0.348,3.134,1.561,3.121,0.892,8.027c-0.669,4.905-1.784,4.682-1.784,8.919
			c0,4.236,1.115,5.797-1.115,7.358c-2.23,1.561-2.899,0.446-2.676-2.453c0.223-2.899,1.561-4.905,1.561-10.48
			c0-5.574,1.561-5.351,0.223-9.811C192.483,65.252,195.827,60.124,196.719,68.151z"/>
		<path fill="#6DB5AC" d="M202.74,59.678c2.818,3.194,1.561,3.345,1.784,8.027c0.223,4.682,2.23,3.345,1.115,10.48
			c-1.115,7.135,2.007,8.25-0.223,12.486c-2.23,4.236-4.237,8.696-5.128,7.135c-0.892-1.561,2.453-5.128,2.453-8.696
			c0-3.568,0.669-5.128,0.669-9.811c0-4.682-1.115-4.236-2.453-8.473C199.618,66.59,199.395,55.887,202.74,59.678z"/>
		<path fill="#6DB5AC" d="M223.699,63.022c1.199,4.318-0.223,6.02-1.115,10.257c-0.892,4.236,0,9.588-1.784,12.709
			c-1.784,3.122-1.115,4.905-3.344,6.02c-2.23,1.115-1.338-1.115-0.446-4.459c0.892-3.345,3.568-7.135,2.899-11.148
			c-0.669-4.014,0-8.919,0-12.04C219.908,61.238,221.469,54.995,223.699,63.022z"/>
		<path fill="#6DB5AC" d="M213.888,63.468c0.554,2.55,0.223,2.23,0.669,6.466c0.446,4.237,1.561,4.459,0,10.257
			c-1.561,5.797-1.115,11.371-2.899,12.486c-1.784,1.115-0.223-7.804,0.669-11.149c0.892-3.345,0.223-2.676-0.669-7.804
			c-0.892-5.128-0.446-7.804-0.892-10.48C210.321,60.57,211.658,53.212,213.888,63.468z"/>
		<path fill="#6DB5AC" d="M241.313,65.029c0,3.525-4.014,6.466-4.905,10.257c-0.892,3.79-1.338,8.473-4.013,10.48
			c-2.676,2.007-4.682,2.676-3.568-0.446c1.115-3.122,5.574-8.027,5.797-11.594C234.847,70.157,241.313,62.13,241.313,65.029z"/>
		<path fill="#6DB5AC" d="M249.786,70.38c1.913,2.072-1.561,4.236-3.344,6.466c-1.784,2.23-1.784,6.02-4.013,5.351
			C240.199,81.529,247.111,67.482,249.786,70.38z"/>
	</g>
	<g>
		<path opacity="0.3" fill="#FFFFFF" d="M124.41,63.856c0,0,26.355-13.646,28.525-14.785c2.169-1.139,13.382,11.373,14.687,22.886
			c1.305,11.513-8.462,22.591-17.792,27.264l-22.966-14.763C126.863,84.459,134.654,74.05,124.41,63.856z"/>
		<path fill="none" stroke="#000000" stroke-linecap="round" stroke-linejoin="round" stroke-miterlimit="10" d="M124.41,63.856
			c0,0,26.355-13.646,28.525-14.785c2.169-1.139,13.382,11.373,14.687,22.886c1.305,11.513-8.462,22.591-17.792,27.264
			l-22.966-14.763"/>
		<path fill="#C1E8D9" stroke="#000000" stroke-linecap="round" stroke-linejoin="round" stroke-miterlimit="10" d="M125.563,65.356
			c0,0,27.524-11.174,34.319-12.492c6.599-1.28-33.653,13.609-33.653,13.609"/>
		<path fill="#C1E8D9" stroke="#000000" stroke-linecap="round" stroke-linejoin="round" stroke-miterlimit="10" d="M127.631,69.124
			c0,0,34.909-9.21,36.675-10.275c1.766-1.064-37.268,9.049-37.268,9.049"/>
		<path fill="#C1E8D9" stroke="#000000" stroke-linecap="round" stroke-linejoin="round" stroke-miterlimit="10" d="M128.651,72.08
			c0,0,36.598-6.627,38.497-7.577c1.9-0.95-39.007,6.27-39.007,6.27"/>
		<path fill="#C1E8D9" stroke="#000000" stroke-linecap="round" stroke-linejoin="round" stroke-miterlimit="10" d="M128.844,74.885
			c0,0,38.441-1.214,40.528-1.897c2.087-0.683-40.389,0.436-40.389,0.436"/>
		<path fill="#C1E8D9" stroke="#000000" stroke-linecap="round" stroke-linejoin="round" stroke-miterlimit="10" d="M128.88,77.978
			c0,0,37.019,3.928,39.111,3.55c2.092-0.378-38.784-4.932-38.784-4.932"/>
		<path fill="#C1E8D9" stroke="#000000" stroke-linecap="round" stroke-linejoin="round" stroke-miterlimit="10" d="M127.008,82.912
			c0,0,27.513,14.598,29.224,14.972c1.711,0.374-28.611-15.907-28.611-15.907"/>
		<path fill="#C1E8D9" stroke="#000000" stroke-linecap="round" stroke-linejoin="round" stroke-miterlimit="10" d="M128.104,80.443
			c0,0,32.736,9.942,34.653,9.99c1.917,0.048-34.204-11.116-34.204-11.116"/>
	</g>
</g>
</svg>
