<?xml version="1.0" encoding="utf-8"?>
<!-- Generator: Adobe Illustrator 16.0.0, SVG Export Plug-In . SVG Version: 6.00 Build 0)  -->
<!DOCTYPE svg PUBLIC "-//W3C//DTD SVG 1.1//EN" "http://www.w3.org/Graphics/SVG/1.1/DTD/svg11.dtd">
<svg version="1.1" id="Layer_1" xmlns="http://www.w3.org/2000/svg" xmlns:xlink="http://www.w3.org/1999/xlink" x="0px" y="0px"
	 width="653.288px" height="668.728px" viewBox="0 0 653.288 668.728" enable-background="new 0 0 653.288 668.728"
	 xml:space="preserve">
<g>
	<circle fill="#FFFFFF" cx="326.645" cy="334.364" r="311.679"/>
	<g>
		<defs>
			<circle id="SVGID_4_" cx="326.645" cy="334.364" r="311.679"/>
		</defs>
		<clipPath id="SVGID_2_">
			<use xlink:href="#SVGID_4_"  overflow="visible"/>
		</clipPath>
		<g clip-path="url(#SVGID_2_)">
			<rect x="334.235" y="318.275" fill="#7A7A7B" width="53.697" height="63.686"/>
			
				<rect x="334.235" y="318.275" fill="none" stroke="#000000" stroke-width="1.5897" stroke-linecap="round" stroke-linejoin="round" stroke-miterlimit="10" width="53.697" height="63.686"/>
			<polygon fill="#C4D2D2" points="139.358,508.953 156.024,461.501 300.059,377.203 466.71,408.365 454.593,482.169 
				281.013,677.39 134.598,652.988 			"/>
			<polygon fill="#93A6A6" points="135.074,638.56 263.651,665.484 280.694,506.205 156.024,461.501 139.358,508.953 			"/>
			
				<polygon fill="none" stroke="#000000" stroke-width="1.9986" stroke-linecap="round" stroke-linejoin="round" stroke-miterlimit="10" points="
				139.358,508.953 156.024,461.501 300.059,377.203 466.71,408.365 454.593,482.169 281.013,677.39 134.598,652.988 			"/>
			<path fill="#404041" d="M243.534,146.705c-6.465,18.277,3.025,155.64,8.766,175.728c5.738,20.086,60.834,21.469,112.484,21.924
				c51.65,0.457,113.16,5.343,112.822-26.082c-0.34-31.424-2.633-147.924-7.225-173.75s-97.189-20.402-132.936-20.669
				C302.364,123.595,249.806,128.975,243.534,146.705z"/>
			
				<path fill="none" stroke="#000000" stroke-width="1.9986" stroke-linecap="round" stroke-linejoin="round" stroke-miterlimit="10" d="
				M243.534,146.705c-6.465,18.277,3.025,155.64,8.766,175.728c5.738,20.086,60.834,21.469,112.484,21.924
				c51.65,0.457,113.16,5.343,112.822-26.082c-0.34-31.424-2.633-147.924-7.225-173.75s-97.189-20.402-132.936-20.669
				C302.364,123.595,249.806,128.975,243.534,146.705z"/>
			<polygon fill="#7FACCD" points="254.677,153.133 450.868,149.116 456.741,318.275 266.724,318.275 			"/>
			<linearGradient id="SVGID_3_" gradientUnits="userSpaceOnUse" x1="352.8135" y1="-295.8423" x2="364.5402" y2="313.9502">
				<stop  offset="0" style="stop-color:#FFFFFF"/>
				<stop  offset="1" style="stop-color:#FFFFFF;stop-opacity:0"/>
			</linearGradient>
			<polygon fill="url(#SVGID_3_)" points="364.89,150.876 310.884,318.275 363.003,318.275 415.122,149.848 			"/>
			
				<polygon fill="none" stroke="#000000" stroke-width="1.0679" stroke-linecap="round" stroke-linejoin="round" stroke-miterlimit="10" points="
				254.677,153.133 450.868,149.116 456.741,318.275 266.724,318.275 			"/>
			<path fill="#FCDCCE" d="M247.378,262.366c0,0,20.268-4.54,29.634,0c9.367,4.542,20.151,5.394,28.663,4.823
				c8.514-0.566,13.34,1.448,19.584,0.156c6.244-1.291,20.432-4.416,29.514-3.278c9.084,1.136,12.59-3.121,10.979-6.242
				c-1.613-3.122-8.709-8.515-18.924-9.364c-10.215-0.853-19.865,1.986-20.716,0c-0.853-1.987,6.241-9.083,12.202-16.178
				c5.959-7.096,16.459-14.756,25.258-19.298c8.799-4.54,23.555-9.934,22.42-17.028c-1.137-7.095-22.135,1.702-22.135,1.702
				s-12.203,2.555-14.76,3.405c-2.555,0.852-9.852,10.334-11.838,9.201c-1.988-1.134-13.988-9.768-16.258-10.052
				s-19.582-7.233-24.406-7.022s-26.109,22.516-31.217,24.845c-5.111,2.327-18.932,0-18.932,0S241.015,250.73,247.378,262.366z"/>
			<g>
				<path fill="#F0C2B2" d="M366.04,258.664c-6.197,2.911-19.404,0.688-24.152,1.67c-6.057,1.253-13.572,2.924-20.674,0
					c-7.1-2.924-12.111-2.715-28.818-2.924c-16.705-0.209-19.421-5.012-27.356-6.682s-14.942-19.001-14.942-19.001l-5.805,12.483
					c0.043,7.107,0.805,13.984,3.086,18.155c0,0,20.268-4.54,29.634,0c9.367,4.542,20.151,5.394,28.663,4.823
					c8.514-0.566,13.34,1.448,19.584,0.156c6.244-1.291,20.432-4.416,29.514-3.278C363.065,265.104,366.696,261.648,366.04,258.664z
					"/>
				<path fill="#F0C2B2" d="M322.677,248.848c1.094,0.231,2.662,0.289,4.525,0.224c-0.564-0.105-0.953-0.29-1.091-0.611
					c-0.853-1.987,6.241-9.083,12.202-16.178c5.959-7.096,16.459-14.756,25.258-19.298c7.93-4.093,20.697-8.879,22.309-14.979
					c-7.504,6.638-25.9,10.706-33.34,14.088c-9.189,4.177-26.73,24.434-30.072,28.193
					C319.126,244.044,315.784,247.386,322.677,248.848z"/>
			</g>
			
				<path fill="none" stroke="#000000" stroke-width="1.9986" stroke-linecap="round" stroke-linejoin="round" stroke-miterlimit="10" d="
				M247.378,262.366c0,0,20.268-4.54,29.634,0c9.367,4.542,20.151,5.394,28.663,4.823c8.514-0.566,13.34,1.448,19.584,0.156
				c6.244-1.291,20.432-4.416,29.514-3.278c9.084,1.136,12.59-3.121,10.979-6.242c-1.613-3.122-8.709-8.515-18.924-9.364
				c-10.215-0.853-19.865,1.986-20.716,0c-0.853-1.987,6.241-9.083,12.202-16.178c5.959-7.096,16.459-14.756,25.258-19.298
				c8.799-4.54,23.555-9.934,22.42-17.028c-1.137-7.095-22.135,1.702-22.135,1.702s-12.203,2.555-14.76,3.405
				c-2.555,0.852-9.852,10.334-11.838,9.201c-1.988-1.134-13.988-9.768-16.258-10.052s-19.582-7.233-24.406-7.022
				s-26.109,22.516-31.217,24.845c-5.111,2.327-18.932,0-18.932,0S241.015,250.73,247.378,262.366z"/>
			<polygon fill="#FFFFFF" points="205.236,435.697 268.319,456.089 225.792,484.548 160.79,461.777 			"/>
			
				<polygon fill="none" stroke="#000000" stroke-width="1.0679" stroke-linecap="round" stroke-linejoin="round" stroke-miterlimit="10" points="
				205.236,435.697 268.319,456.089 225.792,484.548 160.79,461.777 			"/>
			<path fill="#404041" d="M194.198,496.742c-1.602,4.568-11.197,5.359-21.432,1.766c-10.238-3.588-17.239-10.201-15.637-14.766
				c1.602-4.564,11.197-5.354,21.434-1.766C188.8,485.568,195.801,492.179,194.198,496.742z"/>
			
				<path fill="none" stroke="#000000" stroke-width="1.0679" stroke-linecap="round" stroke-linejoin="round" stroke-miterlimit="10" d="
				M194.198,496.742c-1.602,4.568-11.197,5.359-21.432,1.766c-10.238-3.588-17.239-10.201-15.637-14.766
				c1.602-4.564,11.197-5.354,21.434-1.766C188.8,485.568,195.801,492.179,194.198,496.742z"/>
			<polyline fill="#C4D2D2" points="353.31,470.546 441.194,370.724 334.251,351.73 248.196,441.609 			"/>
			<path fill="#93A6A6" d="M441.194,370.724l6.471,50.141l-77.971,50.689c0,0-11.58-10.527-10.209-10.053
				S441.194,370.724,441.194,370.724z"/>
			
				<path fill="none" stroke="#000000" stroke-width="1.9986" stroke-linecap="round" stroke-linejoin="round" stroke-miterlimit="10" d="
				M441.194,370.724l6.471,50.141l-77.971,50.689c0,0-11.58-10.527-10.209-10.053S441.194,370.724,441.194,370.724z"/>
			
				<polyline fill="none" stroke="#000000" stroke-width="1.9986" stroke-linecap="round" stroke-linejoin="round" stroke-miterlimit="10" points="
				353.31,470.546 441.194,370.724 334.251,351.73 248.196,441.609 			"/>
			<polygon fill="#7FACCD" points="279.87,428.564 332.431,371.246 409.712,387.117 354.548,449.707 			"/>
			
				<polygon fill="none" stroke="#000000" stroke-width="1.0679" stroke-linecap="round" stroke-linejoin="round" stroke-miterlimit="10" points="
				279.87,428.564 332.431,371.246 409.712,387.117 354.548,449.707 			"/>
			<polygon fill="#404041" points="332.056,365.541 335.382,362.333 369.282,369.593 365.704,373.029 			"/>
			
				<polygon fill="none" stroke="#000000" stroke-width="1.0679" stroke-linecap="round" stroke-linejoin="round" stroke-miterlimit="10" points="
				332.056,365.541 335.382,362.333 369.282,369.593 365.704,373.029 			"/>
			<ellipse fill="#FFFFFF" cx="407.533" cy="378.427" rx="7.589" ry="3.533"/>
			
				<ellipse fill="none" stroke="#000000" stroke-width="1.0679" stroke-linecap="round" stroke-linejoin="round" stroke-miterlimit="10" cx="407.533" cy="378.427" rx="7.589" ry="3.533"/>
			<path fill="#FCDCCE" d="M346.187,483.359c0,0-56.643,3.969-93.94,39.682c-44.632,42.729-32.142,140.064-32.142,140.064h304.34
				l9.125-100.785l-40.471-50.541l-60.42-38.34L346.187,483.359z"/>
			<ellipse fill="#FDEBE3" cx="368.253" cy="504.302" rx="21.188" ry="9.043"/>
			<path fill="#F0C2B2" d="M275.493,539.548c0,0-3.157,18.018,16.291,21.137c19.447,3.119,42.852-29.67,36.471-42.078"/>
			<path fill="#F0C2B2" d="M524.55,661.935l7.395-81.646c-12.723-15.934-25.547-31.838-25.547-31.838l-15.617-31.836l-13.189-14.676
				l-44.912-28.5l-41.963,4.813c-0.695,0.635-1.385,1.297-2.057,2.006c43.842-6.324,84.102,81.408-3.598,136.67
				c-87.697,55.262-165.291-11.482-165.291-11.482l0,0c-3.044,31.301,0.334,57.66,0.334,57.66h300.533
				C521.974,662.707,523.274,662.318,524.55,661.935z"/>
			
				<path fill="none" stroke="#000000" stroke-width="1.9986" stroke-linecap="round" stroke-linejoin="round" stroke-miterlimit="10" d="
				M346.187,483.359c0,0-56.643,3.969-93.94,39.682c-44.632,42.729-32.142,140.064-32.142,140.064h304.34l9.125-100.785
				l-40.471-50.541l-60.42-38.34L346.187,483.359z"/>
			<path fill="#FCDCCE" d="M477.606,425.031c0,0,24.254,0.262,28.711-4.457c4.455-4.721,9.961-13.371,8.389-17.305
				c0,0-8.27-8.369-24.686-14.984c-16.414-6.615-14.068-23.324-7.119-26.996c0.918-4.063-2.098-8.785,5.771-11.146
				c1.047-2.229,1.441-3.409,1.441-3.409s-3.146-4.852,0-8.13c3.146-3.281,7.475-5.115,7.475-5.115s-4.59-6.164-3.541-9.313
				c1.049-3.146,15.869-5.9,15.869-5.9s6.938-9.752,16.313-11.091c9.373-1.339,14.285-8.185,14.285-8.185l11.902-4.166
				l54.461,42.408v32.139l-11.904,25.891c0,0-13.986,42.855-13.393,52.08c0.596,9.225-44.559,12.531-46.127,12.201
				C479.21,447.648,477.606,425.031,477.606,425.031z"/>
			<path fill="#F0C2B2" d="M578.181,377.109c0,0-30.473-25.631-36.453-14.809s-15.377,17.371-36.736,17.941
				c-16.387,0.436-24.387-7-27.225-10.488c-0.918,6.365,2.023,14.408,12.254,18.531c16.416,6.615,24.686,14.984,24.686,14.984
				c0.523,1.311,0.252,3.146-0.494,5.184c6.021,1.445,12.219,4.006,16.408,8.525c10.09,10.887-14.221,33.4-17.557,36.396
				c0.213,0.076,0.434,0.15,0.648,0.227l67.873-7.512c0.082-1.885,0.508-4.549,1.164-7.691L579.89,427.8l4.84-13.1L578.181,377.109z
				"/>
			
				<path fill="none" stroke="#000000" stroke-width="1.9986" stroke-linecap="round" stroke-linejoin="round" stroke-miterlimit="10" d="
				M477.606,425.031c0,0,24.254,0.262,28.711-4.457c4.455-4.721,9.961-13.371,8.389-17.305c0,0-8.27-8.369-24.686-14.984
				c-16.414-6.615-14.068-23.324-7.119-26.996c0.918-4.063-2.098-8.785,5.771-11.146c1.047-2.229,1.441-3.409,1.441-3.409
				s-3.146-4.852,0-8.13c3.146-3.281,7.475-5.115,7.475-5.115s-4.59-6.164-3.541-9.313c1.049-3.146,15.869-5.9,15.869-5.9
				s6.938-9.752,16.313-11.091c9.373-1.339,14.285-8.185,14.285-8.185l11.902-4.166l54.461,42.408v32.139l-11.904,25.891
				c0,0-13.986,42.855-13.393,52.08c0.596,9.225-44.559,12.531-46.127,12.201C479.21,447.648,477.606,425.031,477.606,425.031z"/>
			<path fill="#F28474" d="M488.601,424.693c0,0-23.973,6.885,14.863,12.094c38.836,5.207,78.572,5.381,78.572,5.381
				s14.873-1.066,24.842,3.248s36.604,15.324,38.984,26.336s0,41.365,0,41.365s-48.211-7.439-58.328,27.977
				c-3.869,16.068-4.762,23.51-4.762,24.4c0,0.893-1.488,20.236-1.488,21.131c0,0.891-1.189,8.033-1.189,8.033
				s-32.736,30.951-60.711,30.951c-24.104-42.557-65.768-111.002-74.396-119.336c-8.631-8.332-10.119-10.117-10.119-12.201
				c0-2.082-19.939-12.201-36.604-13.391c-16.666-1.191-36.604,0-52.078,2.678c1.785-4.762,3.57-5.357,3.57-5.357
				s7.738-17.559,12.795-21.725c8.334-15.475,22.619-29.758,48.213-27.973c1.785-7.439,19.938-19.045,42.852-13.988
				C476.532,419.376,488.601,424.693,488.601,424.693z"/>
			<path fill="#EF6B57" d="M349.757,478.001c0,0-1.785,0.596-3.57,5.357c15.475-2.678,35.412-3.869,52.078-2.678
				c16.664,1.189,36.604,11.309,36.604,13.391c0,2.084,1.488,3.869,10.119,12.201c7.135,6.891,36.857,54.881,60.561,95.35
				l74.732-39.043c0,0,1.154-0.439,3.01-1.158c0.613-3.838,1.865-10.447,4.244-20.328c7.158-25.061,33.389-28.662,48.117-28.627
				l2.672-36.445l-8.9,7.053c0,0-30.992,3.959-35.182-4.818s-25.689-25.131-18.43-14.459s9.705,44.195,0,26.744
				c-9.703-17.451-31.83-34.064-21.779-18.428c10.053,15.637,10.611,32.389-2.791,37.975c-13.402,5.584-40.209-2.793-56.961-26.248
				c-16.754-23.455-43.559-34.064-89.352-27.563c-45.793,6.504-42.377,0-42.377,0C357.495,460.443,349.757,478.001,349.757,478.001z
				"/>
			
				<path fill="none" stroke="#000000" stroke-width="1.9986" stroke-linecap="round" stroke-linejoin="round" stroke-miterlimit="10" d="
				M488.601,424.693c0,0-23.973,6.885,14.863,12.094c38.836,5.207,78.572,5.381,78.572,5.381s14.873-1.066,24.842,3.248
				s36.604,15.324,38.984,26.336s0,41.365,0,41.365s-48.211-7.439-58.328,27.977c-3.869,16.068-4.762,23.51-4.762,24.4
				c0,0.893-1.488,20.236-1.488,21.131c0,0.891-1.189,8.033-1.189,8.033s-32.736,30.951-60.711,30.951
				c-24.104-42.557-65.768-111.002-74.396-119.336c-8.631-8.332-10.119-10.117-10.119-12.201c0-2.082-19.939-12.201-36.604-13.391
				c-16.666-1.191-36.604,0-52.078,2.678c1.785-4.762,3.57-5.357,3.57-5.357s7.738-17.559,12.795-21.725
				c8.334-15.475,22.619-29.758,48.213-27.973c1.785-7.439,19.938-19.045,42.852-13.988
				C476.532,419.376,488.601,424.693,488.601,424.693z"/>
			
				<path fill="none" stroke="#000000" stroke-width="1.0679" stroke-linecap="round" stroke-linejoin="round" stroke-miterlimit="10" d="
				M410.765,428.304c0,0,10.875,0.588,14.477,0c3.598-0.588,29.352-1.973,29.352-1.973s-12.738-1.939-18.83-1.939"/>
			
				<path fill="none" stroke="#000000" stroke-width="1.0679" stroke-linecap="round" stroke-linejoin="round" stroke-miterlimit="10" d="
				M349.757,478.001c0,0,21.018-12,49.398-13.326c28.381-1.328,52.777,5.811,67.549,14.938c14.771,9.131,44.25,31.324,56.152,47.791
				c11.904,16.467,40.67,48.607,40.869,45.234"/>
			
				<path fill="none" stroke="#000000" stroke-width="1.0679" stroke-linecap="round" stroke-linejoin="round" stroke-miterlimit="10" d="
				M353.626,479.589c0,0,42.061-14.283,67.652-4.762c25.594,9.525,42.457,37.896,47.416,49.6
				c4.961,11.705,17.459,27.578,17.459,27.578"/>
			
				<path fill="none" stroke="#000000" stroke-width="1.0679" stroke-linecap="round" stroke-linejoin="round" stroke-miterlimit="10" d="
				M384.575,467.884c0,0,39.449-4.563,70.018,12.5c30.568,17.061,49.219,35.117,62.512,53.566
				c13.291,18.451,39.082,43.646,39.082,48.805"/>
			
				<path fill="none" stroke="#000000" stroke-width="1.0679" stroke-linecap="round" stroke-linejoin="round" stroke-miterlimit="10" d="
				M584.149,556.566c0,0,1.201-13.686-1.773-30.553c-2.977-16.863-14.086-43.844-14.086-43.844"/>
			
				<path fill="none" stroke="#000000" stroke-width="1.0679" stroke-linecap="round" stroke-linejoin="round" stroke-miterlimit="10" d="
				M589.12,536.58c0.195-0.461,0.994-20.287,1.191-31.396c0.199-11.111-3.174-25.195-6.746-32.537
				c-3.57-7.34-16.863-15.475-16.863-15.475"/>
			
				<path fill="none" stroke="#000000" stroke-width="1.9986" stroke-linecap="round" stroke-linejoin="round" stroke-miterlimit="10" d="
				M523.132,294.404c0,0,1.973,8.307,6.334,8.93c0.934-1.454,1.244-3.53,1.244-3.53S524.896,299.803,523.132,294.404z"/>
			<path fill="#404041" d="M564.917,265.124c0,0-11.855,2.55-16.27,4.365c-5.951,4.762-22.861,28.966-25.516,39.48
				c-2.656,10.516,8.455,35.313,13.217,45.831c4.76,10.514,5.555,25.986,0.594,37.496c5.953-7.936,8.531-10.715,8.531-10.715
				s-5.951,37.027,6.15,46.982c12.102,9.959,20.533,13.025,32.16,13.523c11.625,0.5,23.291,2.467,35.217,8.725
				c11.924,6.258,19.453,11.715,27.918,10.523c5.291-20.434,31.439-139.271-4.301-188.971
				C613.425,263.736,579.923,260.896,564.917,265.124z"/>
			<path fill="#29292A" d="M642.618,272.365c-6.469-1.912-13.146-3.538-19.789-4.867c0.012,0.035,31.232,94.992-82.59,104.629
				c0.318,6.955-0.686,14.111-3.297,20.17c5.953-7.936,8.531-10.715,8.531-10.715s-5.951,37.027,6.15,46.982
				c12.102,9.959,20.533,13.025,32.16,13.523c11.625,0.5,23.291,2.467,35.217,8.725c11.924,6.258,19.453,11.715,27.918,10.523
				C652.21,440.902,678.358,322.064,642.618,272.365z"/>
			
				<path fill="none" stroke="#000000" stroke-width="1.9986" stroke-linecap="round" stroke-linejoin="round" stroke-miterlimit="10" d="
				M564.917,265.124c0,0-11.855,2.55-16.27,4.365c-5.951,4.762-22.861,28.966-25.516,39.48
				c-2.656,10.516,8.455,35.313,13.217,45.831c4.76,10.514,5.555,25.986,0.594,37.496c5.953-7.936,8.531-10.715,8.531-10.715
				s-5.951,37.027,6.15,46.982c12.102,9.959,20.533,13.025,32.16,13.523c11.625,0.5,23.291,2.467,35.217,8.725
				c11.924,6.258,19.453,11.715,27.918,10.523c5.291-20.434,31.439-139.271-4.301-188.971
				C613.425,263.736,579.923,260.896,564.917,265.124z"/>
			<path fill="#F6A99E" d="M490.114,346.733c0,0-0.395,1.181-1.441,3.409c-4.547,1.363-5.455,3.518-5.592,5.875
				c0.008-0.016,1.727-2.924,5.592-3.68c3.871-0.76,10.717-5.107,11.803-8.257c-4.092-0.888-8.145-1.448-11.75-1.804
				C488.767,344.638,490.114,346.733,490.114,346.733z"/>
			
				<path fill="none" stroke="#000000" stroke-width="1.0679" stroke-linecap="round" stroke-linejoin="round" stroke-miterlimit="10" d="
				M490.114,346.733c0,0-0.395,1.181-1.441,3.409c-4.547,1.363-5.455,3.518-5.592,5.875c0.008-0.016,1.727-2.924,5.592-3.68
				c3.871-0.76,10.717-5.107,11.803-8.257c-4.092-0.888-8.145-1.448-11.75-1.804C488.767,344.638,490.114,346.733,490.114,346.733z"
				/>
			<path fill="#F6A99E" d="M490.114,346.733c0,0-0.08,0.235-0.25,0.67c5.002-0.675,10.611-3.429,10.611-3.429
				s1.736-2.935-2.064-5.371c-3.803-2.439-8.297,0-8.297,0C486.968,341.881,490.114,346.733,490.114,346.733z"/>
			
				<path fill="none" stroke="#000000" stroke-width="1.0679" stroke-linecap="round" stroke-linejoin="round" stroke-miterlimit="10" d="
				M490.114,346.733c0,0-0.08,0.235-0.25,0.67c5.002-0.675,10.611-3.429,10.611-3.429s1.736-2.935-2.064-5.371
				c-3.803-2.439-8.297,0-8.297,0C486.968,341.881,490.114,346.733,490.114,346.733z"/>
			<path fill="#FFFFFF" d="M488.673,350.142c0,0,9.738-2.584,11.803-6.603c0,0-7.795-2.626-10.361,3.193L488.673,350.142z"/>
			
				<path fill="none" stroke="#000000" stroke-width="1.0679" stroke-linecap="round" stroke-linejoin="round" stroke-miterlimit="10" d="
				M488.673,350.142c0,0,9.738-2.584,11.803-6.603c0,0-7.795-2.626-10.361,3.193L488.673,350.142z"/>
			
				<path fill="none" stroke="#000000" stroke-width="1.0679" stroke-linecap="round" stroke-linejoin="round" stroke-miterlimit="10" d="
				M509.917,318.275c0,0-3.641,1.856-5.5,9.883c-1.859,8.025-2.207,13.457-3.941,16.199"/>
			
				<path fill="none" stroke="#000000" stroke-width="1.0679" stroke-linecap="round" stroke-linejoin="round" stroke-miterlimit="10" d="
				M497.823,328.329c0,0,1.984,0.024,2.313,1.306c0.326,1.281-0.15,1.835-0.15,1.835"/>
			<g>
				<g>
					<path fill="#FFFFFF" d="M267.366,467.33c0,0,25.689-2.813,34.125,7.92c7.393,9.41,24.73,33.166,26.646,38.535
						c1.916,5.367-4.021,21.219-19.15,27.902c-16.488,7.283-30.791,0.564-30.791,0.564l-18.115-18.115
						C260.081,524.136,243.978,488.744,267.366,467.33z"/>
					<path fill="#EAEAEA" d="M318.95,499.003c0,0.002-0.047,16.74-17.504,26.041c-17.459,9.301-34.723,5.734-34.723,5.734l0,0
						l11.473,11.473c0,0,14.303,6.719,30.791-0.564c15.129-6.684,21.066-22.535,19.15-27.902
						C327.302,511.443,323.54,505.615,318.95,499.003z"/>
					<path fill="#D3D3D3" d="M321.259,510.246l-62.057-9.496c0,0-2.695,8.625-3.301,9.494c1.594,8.197,4.18,13.893,4.18,13.893
						l18.115,18.115c0,0,4.907,2.301,12.281,2.748c-9.584-9.029-9.494-22.291-9.854-27.15c9.36-0.9,29.161,6.48,35.282,3.779
						C322.024,518.927,321.259,510.246,321.259,510.246z"/>
					
						<path fill="none" stroke="#000000" stroke-width="1.0679" stroke-linecap="round" stroke-linejoin="round" stroke-miterlimit="10" d="
						M318.95,499.003c0,0.002-0.047,16.74-17.504,26.041c-17.459,9.301-34.723,5.734-34.723,5.734l0,0l11.473,11.473
						c0,0,14.303,6.719,30.791-0.564c15.129-6.684,21.066-22.535,19.15-27.902C327.302,511.443,323.54,505.615,318.95,499.003z"/>
					
						<path fill="none" stroke="#000000" stroke-width="1.9986" stroke-linecap="round" stroke-linejoin="round" stroke-miterlimit="10" d="
						M267.366,467.33c0,0,25.689-2.813,34.125,7.92c7.393,9.41,24.73,33.166,26.646,38.535c1.916,5.367-4.021,21.219-19.15,27.902
						c-16.488,7.283-30.791,0.564-30.791,0.564l-18.115-18.115C260.081,524.136,243.978,488.744,267.366,467.33z"/>
				</g>
			</g>
			<path fill="#FCDCCE" d="M261.231,481.578c8.242,2.684,27.029,7.479,36.615,10.641c9.586,3.164,26.84,9.105,23.006,19.561
				c-3.836,10.455-12.079,5.264-20.129,3.154c-8.053-2.107-13.42-4.023-27.99-5.75c8.626,11.502,0,21.662-6.52,23.387
				c3.645,11.887-10.543,17.064-10.543,17.064c0,4.883-2.014,11.373-12.631,14.75c-3.13,0.994-17.727,1.389-22.129,1.043
				c-19.018-1.502-30.229-7.934-33.297-9.854c-3.068-1.918-8.053-1.15-11.693,0.959c-3.643,2.109-40.834,27.801-40.834,27.801
				s-6.326-7.479-11.504-35.084c-5.175-27.605,6.137-43.707,6.137-43.707s51.377-14.381,55.02-17.637
				c3.644-3.26,33.74-20.896,42.559-25.113c8.82-4.219,32.591-5.943,38.533-4.986c5.943,0.961,16.836,9.191,16.836,9.191
				l-15.301,0.332L261.231,481.578z"/>
			<path fill="#F0C2B2" d="M320.853,511.779c0.119-0.326,0.219-0.648,0.297-0.967c-19.014,3.289-39.697-7.75-51.029-11.871
				c-11.33-4.119-26.094-6.867-29.527-3.434s3.09,8.24,0,17.512s-31.932,17.168-47.727,12.018s-51.443,5.816-51.203,6.545
				l-19.002,11.344c0.217,2.037,0.514,4.141,0.922,6.324c5.178,27.605,11.504,35.084,11.504,35.084s37.191-25.691,40.834-27.801
				c3.641-2.109,8.625-2.877,11.693-0.959c3.068,1.92,14.279,8.352,33.297,9.854c4.402,0.346,18.999-0.049,22.129-1.043
				c10.617-3.377,12.631-9.867,12.631-14.75c0,0,14.188-5.178,10.543-17.064c6.52-1.725,15.146-11.885,6.52-23.387
				c14.57,1.727,19.938,3.643,27.99,5.75C308.773,517.042,317.017,522.234,320.853,511.779z"/>
			
				<path fill="none" stroke="#000000" stroke-width="1.9986" stroke-linecap="round" stroke-linejoin="round" stroke-miterlimit="10" d="
				M261.231,481.578c8.242,2.684,27.029,7.479,36.615,10.641c9.586,3.164,26.84,9.105,23.006,19.561
				c-3.836,10.455-12.079,5.264-20.129,3.154c-8.053-2.107-13.42-4.023-27.99-5.75c8.626,11.502,0,21.662-6.52,23.387
				c3.645,11.887-10.543,17.064-10.543,17.064c0,4.883-2.014,11.373-12.631,14.75c-3.13,0.994-17.727,1.389-22.129,1.043
				c-19.018-1.502-30.229-7.934-33.297-9.854c-3.068-1.918-8.053-1.15-11.693,0.959c-3.643,2.109-40.834,27.801-40.834,27.801
				s-6.326-7.479-11.504-35.084c-5.175-27.605,6.137-43.707,6.137-43.707s51.377-14.381,55.02-17.637
				c3.644-3.26,33.74-20.896,42.559-25.113c8.82-4.219,32.591-5.943,38.533-4.986c5.943,0.961,16.836,9.191,16.836,9.191
				l-15.301,0.332L261.231,481.578z"/>
			<path fill="#EAEAEA" d="M267.366,467.33c0,0-14.762-8.758-21.281-14.316c-6.516-5.561-14.76-17.447-15.527-22.238
				c-0.766-4.791,0.191-12.652-5.559-12.846c-5.752-0.189-8.436,12.273-9.393,26.076c-0.961,13.801-2.258,26.34-2.258,26.34
				l7.883-4.396l3.959-19.834c0,0,18.02,22.428,19.938,30.48c5.943,2.299,14.994,4.889,14.994,4.889S266.155,475.943,267.366,467.33
				z"/>
			<path fill="#CCCCCC" d="M246.153,463.699c-8.861-5.574-24.672-25.115-26.727-29.324c0.859,11.174,2.432,23.609-2.284,33.754
				c0.024,0.021,0.048,0.039,0.073,0.061l4.016-2.24l3.959-19.834c0,0,18.02,22.428,19.938,30.48
				c5.943,2.299,14.994,4.889,14.994,4.889s0.191-0.178,0.5-0.5C258.622,477.298,253.146,468.097,246.153,463.699z"/>
			
				<path fill="none" stroke="#000000" stroke-width="1.9986" stroke-linecap="round" stroke-linejoin="round" stroke-miterlimit="10" d="
				M267.366,467.33c0,0-14.762-8.758-21.281-14.316c-6.516-5.561-14.76-17.447-15.527-22.238
				c-0.766-4.791,0.191-12.652-5.559-12.846c-5.752-0.189-8.436,12.273-9.393,26.076c-0.961,13.801-2.258,26.34-2.258,26.34
				l7.883-4.396l3.959-19.834c0,0,18.02,22.428,19.938,30.48c5.943,2.299,14.994,4.889,14.994,4.889S266.155,475.943,267.366,467.33
				z"/>
			
				<path fill="none" stroke="#000000" stroke-width="1.0679" stroke-linecap="round" stroke-linejoin="round" stroke-miterlimit="10" d="
				M225.19,446.115c0,0-6.404-7.666-6.092-15.494"/>
			<g>
				<path fill="#404041" d="M269.03,432.587l-7.154,6.02l2.482,2.77c0.023,0.029,0.037,0.063,0.061,0.092
					c0.027,0.029,0.064,0.049,0.092,0.078l0.086,0.098l0.016-0.01c1.344,1.254,3.805,1.01,5.652-0.633
					c1.93-1.717,2.445-4.291,1.15-5.748L269.03,432.587z"/>
				
					<path fill="none" stroke="#000000" stroke-width="1.0679" stroke-linecap="round" stroke-linejoin="round" stroke-miterlimit="10" d="
					M269.03,432.587l-7.154,6.02l2.482,2.77c0.023,0.029,0.037,0.063,0.061,0.092c0.027,0.029,0.064,0.049,0.092,0.078l0.086,0.098
					l0.016-0.01c1.344,1.254,3.805,1.01,5.652-0.633c1.93-1.717,2.445-4.291,1.15-5.748L269.03,432.587z"/>
				
					<ellipse transform="matrix(0.7475 -0.6643 0.6643 0.7475 -222.3765 286.4208)" fill="#FFFFFF" cx="265.533" cy="435.696" rx="4.679" ry="3.534"/>
				
					<ellipse transform="matrix(0.7475 -0.6643 0.6643 0.7475 -222.3765 286.4208)" fill="none" stroke="#000000" stroke-width="1.0679" stroke-linecap="round" stroke-linejoin="round" stroke-miterlimit="10" cx="265.533" cy="435.696" rx="4.679" ry="3.534"/>
			</g>
			<g>
				<path fill="#404041" d="M283.022,436.667l-7.154,6.02l2.48,2.768c0.025,0.031,0.039,0.066,0.064,0.094
					c0.025,0.029,0.061,0.049,0.088,0.076l0.088,0.1l0.014-0.012c1.346,1.254,3.807,1.01,5.654-0.633
					c1.93-1.715,2.445-4.289,1.148-5.748L283.022,436.667z"/>
				
					<path fill="none" stroke="#000000" stroke-width="1.0679" stroke-linecap="round" stroke-linejoin="round" stroke-miterlimit="10" d="
					M283.022,436.667l-7.154,6.02l2.48,2.768c0.025,0.031,0.039,0.066,0.064,0.094c0.025,0.029,0.061,0.049,0.088,0.076l0.088,0.1
					l0.014-0.012c1.346,1.254,3.807,1.01,5.654-0.633c1.93-1.715,2.445-4.289,1.148-5.748L283.022,436.667z"/>
				<path fill="#FFFFFF" d="M283.022,436.667c1.297,1.459,0.779,4.029-1.15,5.75c-1.931,1.715-4.547,1.924-5.844,0.467
					c-1.297-1.461-0.783-4.031,1.148-5.752C279.108,435.419,281.726,435.207,283.022,436.667z"/>
				
					<path fill="none" stroke="#000000" stroke-width="1.0679" stroke-linecap="round" stroke-linejoin="round" stroke-miterlimit="10" d="
					M283.022,436.667c1.297,1.459,0.779,4.029-1.15,5.75c-1.931,1.715-4.547,1.924-5.844,0.467
					c-1.297-1.461-0.783-4.031,1.148-5.752C279.108,435.419,281.726,435.207,283.022,436.667z"/>
			</g>
			<g>
				<path fill="#404041" d="M297.015,440.748l-7.154,6.02l2.482,2.77c0.023,0.031,0.036,0.063,0.061,0.092
					c0.027,0.031,0.064,0.049,0.092,0.076l0.086,0.098l0.013-0.01c1.347,1.254,3.808,1.01,5.655-0.631
					c1.93-1.719,2.447-4.293,1.15-5.75L297.015,440.748z"/>
				
					<path fill="none" stroke="#000000" stroke-width="1.0679" stroke-linecap="round" stroke-linejoin="round" stroke-miterlimit="10" d="
					M297.015,440.748l-7.154,6.02l2.482,2.77c0.023,0.031,0.036,0.063,0.061,0.092c0.027,0.031,0.064,0.049,0.092,0.076l0.086,0.098
					l0.013-0.01c1.347,1.254,3.808,1.01,5.655-0.631c1.93-1.719,2.447-4.293,1.15-5.75L297.015,440.748z"/>
				<path fill="#FFFFFF" d="M297.015,440.748c1.295,1.455,0.781,4.029-1.15,5.748c-1.932,1.715-4.549,1.924-5.845,0.467
					c-1.296-1.459-0.78-4.033,1.149-5.748C293.101,439.498,295.718,439.287,297.015,440.748z"/>
				
					<path fill="none" stroke="#000000" stroke-width="1.0679" stroke-linecap="round" stroke-linejoin="round" stroke-miterlimit="10" d="
					M297.015,440.748c1.295,1.455,0.781,4.029-1.15,5.748c-1.932,1.715-4.549,1.924-5.845,0.467
					c-1.296-1.459-0.78-4.033,1.149-5.748C293.101,439.498,295.718,439.287,297.015,440.748z"/>
			</g>
			<g>
				<path fill="#404041" d="M311.007,444.828l-7.154,6.018l2.48,2.768c0.025,0.031,0.037,0.066,0.064,0.092
					c0.025,0.031,0.061,0.049,0.088,0.08l0.088,0.098l0.012-0.012c1.346,1.254,3.809,1.008,5.656-0.633
					c1.93-1.717,2.445-4.291,1.148-5.748L311.007,444.828z"/>
				
					<path fill="none" stroke="#000000" stroke-width="1.0679" stroke-linecap="round" stroke-linejoin="round" stroke-miterlimit="10" d="
					M311.007,444.828l-7.154,6.018l2.48,2.768c0.025,0.031,0.037,0.066,0.064,0.092c0.025,0.031,0.061,0.049,0.088,0.08l0.088,0.098
					l0.012-0.012c1.346,1.254,3.809,1.008,5.656-0.633c1.93-1.717,2.445-4.291,1.148-5.748L311.007,444.828z"/>
				<path fill="#FFFFFF" d="M311.007,444.828c1.295,1.455,0.78,4.029-1.15,5.746c-1.932,1.717-4.547,1.926-5.844,0.469
					c-1.297-1.461-0.782-4.033,1.148-5.75C307.093,443.578,309.71,443.365,311.007,444.828z"/>
				
					<path fill="none" stroke="#000000" stroke-width="1.0679" stroke-linecap="round" stroke-linejoin="round" stroke-miterlimit="10" d="
					M311.007,444.828c1.295,1.455,0.78,4.029-1.15,5.746c-1.932,1.717-4.547,1.926-5.844,0.469c-1.297-1.461-0.782-4.033,1.148-5.75
					C307.093,443.578,309.71,443.365,311.007,444.828z"/>
			</g>
			<g>
				<path fill="#404041" d="M324.999,448.906l-7.154,6.02l2.481,2.768c0.024,0.031,0.037,0.066,0.062,0.092
					c0.027,0.031,0.063,0.051,0.092,0.078l0.086,0.098l0.013-0.01c1.347,1.254,3.808,1.008,5.655-0.633
					c1.93-1.717,2.445-4.291,1.15-5.748L324.999,448.906z"/>
				
					<path fill="none" stroke="#000000" stroke-width="1.0679" stroke-linecap="round" stroke-linejoin="round" stroke-miterlimit="10" d="
					M324.999,448.906l-7.154,6.02l2.481,2.768c0.024,0.031,0.037,0.066,0.062,0.092c0.027,0.031,0.063,0.051,0.092,0.078
					l0.086,0.098l0.013-0.01c1.347,1.254,3.808,1.008,5.655-0.633c1.93-1.717,2.445-4.291,1.15-5.748L324.999,448.906z"/>
				<path fill="#FFFFFF" d="M324.999,448.906c1.295,1.455,0.779,4.029-1.15,5.748c-1.932,1.715-4.549,1.924-5.844,0.467
					c-1.297-1.459-0.781-4.033,1.148-5.75C321.085,447.656,323.702,447.445,324.999,448.906z"/>
				
					<path fill="none" stroke="#000000" stroke-width="1.0679" stroke-linecap="round" stroke-linejoin="round" stroke-miterlimit="10" d="
					M324.999,448.906c1.295,1.455,0.779,4.029-1.15,5.748c-1.932,1.715-4.549,1.924-5.844,0.467
					c-1.297-1.459-0.781-4.033,1.148-5.75C321.085,447.656,323.702,447.445,324.999,448.906z"/>
			</g>
			<path fill="#EAEAEA" d="M9.739,333.355c0,0,65.75-12.631,75.789-18.139c10.043-5.506,22.998-11.334,32.066-12.306
				s-1.621,1.943,17.813-2.268s27.855-7.449,29.475-7.449c1.621,0,37.57-3.887,37.57-3.887s1.945-0.647,12.309-5.183
				c10.365-4.533,31.74-7.125,31.74-7.125l2.775-7.693c0,0,2.127-28.259,0-52.55c-31.6,0-60.748,7.124-66.58,8.097
				c-5.828,0.971-11.659-2.916-15.223-2.916c-3.563,0-10.691,1.62-11.984,2.592c-1.296,0.973-15.547,3.239-20.404,3.239
				c-4.859,0-29.796-2.267-36.599,1.942c-6.802,4.211-3.241,5.184-12.958,5.508c-9.716,0.323-12.955-1.297-17.813,0.323
				c-4.859,1.62-38.219,16.518-39.189,17.166c-0.973,0.647-37.571,9.718-37.571,9.718l17.165,70.93"/>
			<path fill="#DCDCDC" d="M249.276,269.306c0,0,0.467-6.201,0.744-15.291v-0.001c0,0-20.58,15.839-27.236,19.616
				c-6.655,3.777-21.586-1.438-26.264-1.799c-4.676-0.359-22.836,12.965-22.836,12.965s1.43-2.891,1.43-3.43
				c0-0.541-1.799-1.439-4.678-1.08s11.693-26.084,6.836-28.049c-4.857-1.966-36.518,37.403-40.654,37.765
				c-4.138,0.36,7.734-23.027,7.734-23.027s-13.936,17.919-16.143,20.481c-2.209,2.564-0.947-1.413,4.809-12.566
				c5.758-11.154,9.895-24.285,6.656-22.486c-3.237,1.799-35.258,37.418-39.396,37.598s-7.556-20.508-7.556-20.508L67.54,256.181
				c0,0-5.578,63.322-5.578,64.582c0,0.273,0.977,0.565,2.609,0.84c9.83-2.416,17.93-4.725,20.957-6.387
				c10.043-5.506,22.998-11.334,32.066-12.306s-1.621,1.943,17.813-2.268s27.855-7.449,29.475-7.449
				c1.621,0,37.57-3.887,37.57-3.887s1.945-0.647,12.309-5.183c10.365-4.533,31.74-7.125,31.74-7.125L249.276,269.306z"/>
			
				<path fill="none" stroke="#000000" stroke-width="1.9986" stroke-linecap="round" stroke-linejoin="round" stroke-miterlimit="10" d="
				M9.739,333.355c0,0,65.75-12.631,75.789-18.139c10.043-5.506,22.998-11.334,32.066-12.306s-1.621,1.943,17.813-2.268
				s27.855-7.449,29.475-7.449c1.621,0,37.57-3.887,37.57-3.887s1.945-0.647,12.309-5.183c10.365-4.533,31.74-7.125,31.74-7.125
				l2.775-7.693c0,0,2.127-28.259,0-52.55c-31.6,0-60.748,7.124-66.58,8.097c-5.828,0.971-11.659-2.916-15.223-2.916
				c-3.563,0-10.691,1.62-11.984,2.592c-1.296,0.973-15.547,3.239-20.404,3.239c-4.859,0-29.796-2.267-36.599,1.942
				c-6.802,4.211-3.241,5.184-12.958,5.508c-9.716,0.323-12.955-1.297-17.813,0.323c-4.859,1.62-38.219,16.518-39.189,17.166
				c-0.973,0.647-37.571,9.718-37.571,9.718l17.165,70.93"/>
			<path fill="#EAEAEA" d="M92.069,267.169c0,0-6.83,30.131-7.936,37.16s1.154,60.26,1.908,70.807
				c0.753,10.545,7.783,17.576,3.516,30.131c-4.27,12.555-5.994,34.568-1.605,45.318c4.386,10.75,2.898,22.654,2.898,26.824
				c0,4.164,3.273,22.316,4.166,24.4s2.381,30.355,2.381,30.355l-67.852,19.84c0,0-27.377-38.889-27.377-42.457
				c0-3.574-13.691-62.311-12.201-68.801c1.486-6.492,5.355-188.321,5.355-188.321L92.069,267.169z"/>
			<path fill="#DCDCDC" d="M12.562,333.018l23.367,29.329c0,0,17.615-23.407,19.336-23.037c1.719,0.369,2.328,3.713,2.328,3.713
				l-0.609,8.707c0,0-11.943,34.09-10.946,34.688s17.534-9.564,17.534-9.564s2.191-1.395-10.162,20.125s0.199,52.006,15.144,32.877
				s22.774-30.584,21.716-27.055s-24.902,49.174-27.693,62.922c-2.789,13.748,2.602,18.793,2.944,18.191s13.233-35.58,13.233-35.58
				s1.356,11.211,0.561,14.598c-0.797,3.389-0.799,31.682,0,33.873c0.797,2.191,6.773,2.592,6.773,2.592l1.992,24.508
				c0,0-17.334,13.15-17.932,13.15S44.442,524.5,41.454,521.113s-18.133-35.066-18.531-36.064
				c-0.398-0.996-51.348-115.131-51.348-115.131l20.383-29.318"/>
			
				<path fill="none" stroke="#000000" stroke-width="1.9986" stroke-linecap="round" stroke-linejoin="round" stroke-miterlimit="10" d="
				M92.069,267.169c0,0-6.83,30.131-7.936,37.16s1.154,60.26,1.908,70.807c0.753,10.545,7.783,17.576,3.516,30.131
				c-4.27,12.555-5.994,34.568-1.605,45.318c4.386,10.75,2.898,22.654,2.898,26.824c0,4.164,3.273,22.316,4.166,24.4
				s2.381,30.355,2.381,30.355l-67.852,19.84c0,0-27.377-38.889-27.377-42.457c0-3.574-13.691-62.311-12.201-68.801
				c1.486-6.492,5.355-188.321,5.355-188.321L92.069,267.169z"/>
			<path fill="#FCDCCE" d="M10.499,272.365l47.914,58.924l-4.166-22.617c0,0,13.094-30.057,31.842-36.307
				c19.344-3.57,32.473-7.354,36.98-11.725c4.506-4.369,3.965-10.137,3.244-15.006c-0.723-4.867,0.359-8.47,2.704-10.273
				c2.343-1.803,8.832-10.088,8.292-19.915c5.588-0.094,15.141-6.585,15.141-11.992s-5.769-13.88-5.769-13.88
				s2.524-4.146,3.425-10.635c0.902-6.49,0.723-22.332-1.081-29.823c-1.803-7.491-3.419-10.073-3.419-10.073
				s3.41-8.483,2.084-11.606c-4.166-9.82-22.914-33.926-31.842-35.711c0,0-53.567-30.354-88.088,3.868
				C-6.76,129.818,10.499,272.365,10.499,272.365z"/>
			<path fill="#F0C2B2" d="M124.458,234.843c-4.495,7.028-0.73,15.164-5.523,23.551c-4.793,8.386-20.719,11.514-49.994,6.504
				c-23.646-4.047-47.033,7.08-55.154,11.509l44.627,54.882l-4.166-22.617c0,0,13.094-30.057,31.842-36.307
				c19.344-3.57,32.473-7.354,36.98-11.725c4.506-4.369,3.965-10.137,3.244-15.006c-0.723-4.867,0.359-8.47,2.704-10.273
				c1.683-1.295,5.491-5.939,7.312-12.089C133.688,225.32,127.64,229.871,124.458,234.843z"/>
			
				<path fill="none" stroke="#000000" stroke-width="1.9986" stroke-linecap="round" stroke-linejoin="round" stroke-miterlimit="10" d="
				M10.499,272.365l47.914,58.924l-4.166-22.617c0,0,13.094-30.057,31.842-36.307c19.344-3.57,32.473-7.354,36.98-11.725
				c4.506-4.369,3.965-10.137,3.244-15.006c-0.723-4.867,0.359-8.47,2.704-10.273c2.343-1.803,8.832-10.088,8.292-19.915
				c5.588-0.094,15.141-6.585,15.141-11.992s-5.769-13.88-5.769-13.88s2.524-4.146,3.425-10.635
				c0.902-6.49,0.723-22.332-1.081-29.823c-1.803-7.491-3.419-10.073-3.419-10.073s3.41-8.483,2.084-11.606
				c-4.166-9.82-22.914-33.926-31.842-35.711c0,0-53.567-30.354-88.088,3.868C-6.76,129.818,10.499,272.365,10.499,272.365z"/>
			<path fill="#CA8E58" d="M148.104,186.566c0,0-6.166,7.93-8.945,10.111c-2.775,2.183-9.722,7.581-9.722,7.581
				s17.54-21.095,19.979-21.777L148.104,186.566z"/>
			
				<path fill="none" stroke="#000000" stroke-width="1.0679" stroke-linecap="round" stroke-linejoin="round" stroke-miterlimit="10" d="
				M148.104,186.566c0,0-6.166,7.93-8.945,10.111c-2.775,2.183-9.722,7.581-9.722,7.581s17.54-21.095,19.979-21.777L148.104,186.566
				z"/>
			<path fill="#CA8E58" d="M85.165,200.035c0,0,2.014,5.969,4.197,7.951c2.183,1.984,3.969,0,3.969,0l1.389,2.384l2.678,1.89v-3.48
				l3.473,3.48l2.777-4.473c0,0,1.389-1.983,6.547-9.125c5.158-7.143,17.063-12.499,19.243-19.641
				c2.184-7.143-1.389-20.436-1.389-20.436s16.068-10.058,19.442-14.949c0.596-2.708,1.926-6.478,1.926-6.478h-3.121l3.121-3.174
				h-2.16l0.734-4.935c0,0-0.896-7.167-6.648-14.905c-5.754-7.737-11.178-18.692-24.834-22.242
				c-13.655-3.55-95.266-56.378-120.543,57.945c-9.336,42.229,8.891,78.979,8.891,78.979l27.17,7.729l2.182-2.331h5.951
				l-1.785-1.836c0,0,3.16-1.19,5.25-1.984l-2.67-1.982c0,0,5.753-1.786,9.918-5.357c4.168-3.57,7.143-14.879,7.143-14.879
				S71.843,193.671,85.165,200.035z"/>
			<path fill="#C07837" d="M73.397,185.507c-21.4-7.758-46.277-24.342-46.277-24.342l-14.711,21.133l-9.848,41.176
				c1.348,3.434,2.295,5.353,2.295,5.353l27.17,7.729l2.182-2.331h5.951l-1.785-1.836c0,0,3.16-1.19,5.25-1.984l-2.67-1.982
				c0,0,5.753-1.786,9.918-5.357c4.168-3.57,7.143-14.879,7.143-14.879s13.828-14.514,27.15-8.15c0,0,2.014,5.969,4.197,7.951
				c2.183,1.984,3.969,0,3.969,0l1.389,2.384l2.678,1.89v-3.48l3.473,3.48l2.777-4.473c0,0,1.389-1.983,6.547-9.125
				c5.158-7.143,17.063-12.499,19.243-19.641c0.192-0.629,0.337-1.309,0.446-2.02l0,0
				C129.884,177.001,94.796,193.264,73.397,185.507z"/>
			
				<path fill="none" stroke="#000000" stroke-width="1.9986" stroke-linecap="round" stroke-linejoin="round" stroke-miterlimit="10" d="
				M85.165,200.035c0,0,2.014,5.969,4.197,7.951c2.183,1.984,3.969,0,3.969,0l1.389,2.384l2.678,1.89v-3.48l3.473,3.48l2.777-4.473
				c0,0,1.389-1.983,6.547-9.125c5.158-7.143,17.063-12.499,19.243-19.641c2.184-7.143-1.389-20.436-1.389-20.436
				s16.068-10.058,19.442-14.949c0.596-2.708,1.926-6.478,1.926-6.478h-3.121l3.121-3.174h-2.16l0.734-4.935
				c0,0-0.896-7.167-6.648-14.905c-5.754-7.737-11.178-18.692-24.834-22.242c-13.655-3.55-95.266-56.378-120.543,57.945
				c-9.336,42.229,8.891,78.979,8.891,78.979l27.17,7.729l2.182-2.331h5.951l-1.785-1.836c0,0,3.16-1.19,5.25-1.984l-2.67-1.982
				c0,0,5.753-1.786,9.918-5.357c4.168-3.57,7.143-14.879,7.143-14.879S71.843,193.671,85.165,200.035z"/>
			<path fill="#FCDCCE" d="M86.386,201.835c0,0-5.355-10.713-17.855-3.869c-12.498,6.846-8.424,22.915-6.592,29.463
				c1.832,6.546,7.783,15.475,16.117,10.713"/>
			
				<path fill="none" stroke="#000000" stroke-width="1.0679" stroke-linecap="round" stroke-linejoin="round" stroke-miterlimit="10" d="
				M86.386,201.835c0,0-5.355-10.713-17.855-3.869c-12.498,6.846-8.424,22.915-6.592,29.463c1.832,6.546,7.783,15.475,16.117,10.713
				"/>
			
				<path fill="none" stroke="#000000" stroke-width="1.0679" stroke-linecap="round" stroke-linejoin="round" stroke-miterlimit="10" d="
				M75.323,204.835c0,0,7.186-2.12,7.773,1.768c0.59,3.887-6.007,5.301-3.061,9.07c2.943,3.77,4.945,11.426,2.236,10.838
				c-2.709-0.59-6.344-5.654-8.473-4.477s-4.602,5.248-6.842,4.508"/>
			
				<path fill="none" stroke="#000000" stroke-width="1.0679" stroke-linecap="round" stroke-linejoin="round" stroke-miterlimit="10" d="
				M80.345,211.565c0,0-8.521-3.978-11.693,2.581"/>
			
				<path fill="none" stroke="#000000" stroke-width="1.0679" stroke-linecap="round" stroke-linejoin="round" stroke-miterlimit="10" d="
				M137.31,215.446c0,0-0.324-6.021-2.117-10.146"/>
			
				<path fill="none" stroke="#000000" stroke-width="1.0679" stroke-linecap="round" stroke-linejoin="round" stroke-miterlimit="10" d="
				M244.974,476.048c0,0-4.137-4.227-8.076-5.502"/>
			
				<path fill="none" stroke="#000000" stroke-width="1.0679" stroke-linecap="round" stroke-linejoin="round" stroke-miterlimit="10" d="
				M272.733,509.183c0,0-12.666-3.711-16.256-4.781s-10.08-3.043-12.281-4.316"/>
			
				<path fill="none" stroke="#000000" stroke-width="1.0679" stroke-linecap="round" stroke-linejoin="round" stroke-miterlimit="10" d="
				M266.214,532.57c0,0-23.523-7.111-27.23-8.5"/>
			
				<path fill="none" stroke="#000000" stroke-width="1.0679" stroke-linecap="round" stroke-linejoin="round" stroke-miterlimit="10" d="
				M255.671,549.634c0,0-19.699-2.51-25.261-3.439"/>
			
				<path fill="none" stroke="#000000" stroke-width="1.0679" stroke-linecap="round" stroke-linejoin="round" stroke-miterlimit="10" d="
				M185.214,554.664c0,0-12.228-4.543-17.586-2.658"/>
			<path fill="#EAEAEA" d="M131.433,505.06c0,0-0.836-1.484-4.273,0c-3.44,1.482-65.493,28.334-65.493,28.334
				s-2.292,2.781-3.437,4.094c-1.146,1.309-3.275,2.129-6.223,2.129s-7.205,0.49-10.314,2.293c-3.111,1.799-4.748,1.963-7.205,1.963
				c-2.455,0-18.994-3.766-22.758-3.766c-3.766,0-8.512,0.164-8.512,0.164s-13.25,42.883-3.926,60.936S63.7,618.863,63.7,618.863
				s50.264-13.291,64.746-21.625c14.482-8.332,19.84-14.484,21.029-29.758C150.667,552.203,133.229,507.117,131.433,505.06z"/>
			<path fill="#DCDCDC" d="M89.085,572.148c-21.922,8.5-64.869,0-64.869,0l36.583,46.688c1.843,0.035,2.901,0.027,2.901,0.027
				s50.264-13.291,64.746-21.625c14.482-8.332,19.84-14.484,21.029-29.758c0.482-6.191-2.094-17.277-5.449-28.412l0,0
				C144.026,539.068,111.007,563.648,89.085,572.148z"/>
			
				<path fill="none" stroke="#000000" stroke-width="1.9986" stroke-linecap="round" stroke-linejoin="round" stroke-miterlimit="10" d="
				M131.433,505.06c0,0-0.836-1.484-4.273,0c-3.44,1.482-65.493,28.334-65.493,28.334s-2.292,2.781-3.437,4.094
				c-1.146,1.309-3.275,2.129-6.223,2.129s-7.205,0.49-10.314,2.293c-3.111,1.799-4.748,1.963-7.205,1.963
				c-2.455,0-18.994-3.766-22.758-3.766c-3.766,0-8.512,0.164-8.512,0.164s-13.25,42.883-3.926,60.936S63.7,618.863,63.7,618.863
				s50.264-13.291,64.746-21.625c14.482-8.332,19.84-14.484,21.029-29.758C150.667,552.203,133.229,507.117,131.433,505.06z"/>
			
				<path fill="none" stroke="#000000" stroke-width="1.0679" stroke-linecap="round" stroke-linejoin="round" stroke-miterlimit="10" d="
				M320.589,506.349c0,0-3.367-2.172-4.127,0.543c-0.762,2.717-2.281,6.844-1.738,7.822s3.258,1.955,3.258,1.955"/>
			
				<path fill="none" stroke="#000000" stroke-width="1.0679" stroke-linecap="round" stroke-linejoin="round" stroke-miterlimit="10" d="
				M365.751,257.825c0,0-8.363-2.289-9.561-0.238c-1.195,2.05-3.52,6.296-1.418,6.48"/>
			
				<path fill="none" stroke="#000000" stroke-width="1.0679" stroke-linecap="round" stroke-linejoin="round" stroke-miterlimit="10" d="
				M373.108,194.699c0,0,2.221,2.904,4.615,3.247c2.393,0.342,8.887-1.708,8.887-1.708"/>
			
				<path fill="none" stroke="#000000" stroke-width="1.0679" stroke-linecap="round" stroke-linejoin="round" stroke-miterlimit="10" d="
				M338.247,210.421c0,0-5.98,2.392-7.348,2.392"/>
			
				<path fill="none" stroke="#000000" stroke-width="1.0679" stroke-linecap="round" stroke-linejoin="round" stroke-miterlimit="10" d="
				M114.816,303.333c0.067-2.604,16.521-17.342,24.61-30.502c8.091-13.159,11.071-21.055,10.107-27.371"/>
			
				<path fill="none" stroke="#000000" stroke-width="1.0679" stroke-linecap="round" stroke-linejoin="round" stroke-miterlimit="10" d="
				M178.573,226.632c0,0,12.232,12.758,15.854,25.794s6.254-18.731,6.254-18.731"/>
			
				<path fill="none" stroke="#000000" stroke-width="1.0679" stroke-linecap="round" stroke-linejoin="round" stroke-miterlimit="10" d="
				M164.882,293.194c0,0,12.64-13.52,16.85-12.993"/>
			
				<path fill="none" stroke="#000000" stroke-width="1.0679" stroke-linecap="round" stroke-linejoin="round" stroke-miterlimit="10" d="
				M-4.032,310.73l39.961,51.617c0,0,19.477-27.932,21.055-22.668c1.579,5.264,0,12.051,0,12.051l1.43-20.441"/>
			
				<path fill="none" stroke="#000000" stroke-width="1.0679" stroke-linecap="round" stroke-linejoin="round" stroke-miterlimit="10" d="
				M58.413,298.869c0,0,14.314,9.756,14.338,11.861s-1.391,23.635-1.391,23.635"/>
			
				<path fill="none" stroke="#000000" stroke-width="1.0679" stroke-linecap="round" stroke-linejoin="round" stroke-miterlimit="10" d="
				M71.36,337.519"/>
			
				<path fill="none" stroke="#000000" stroke-width="1.0679" stroke-linecap="round" stroke-linejoin="round" stroke-miterlimit="10" d="
				M85.511,428.566c0,0-9.625,27.457-12.76,38.764c-3.135,11.309-11.854,25.141-14.338,25.857"/>
			
				<path fill="none" stroke="#000000" stroke-width="1.0679" stroke-linecap="round" stroke-linejoin="round" stroke-miterlimit="10" d="
				M58.229,537.488c0,0,18.156,6.959,21.088,14.059s4.234,28.68,4.234,28.68"/>
			
				<path fill="none" stroke="#000000" stroke-width="1.0679" stroke-linecap="round" stroke-linejoin="round" stroke-miterlimit="10" d="
				M37.671,543.603c0,0,21.945,9.75,25.629,9.502c3.685-0.248-4.887-5.191-4.887-5.191"/>
			
				<path fill="none" stroke="#FDEFE8" stroke-width="3.3507" stroke-linecap="round" stroke-linejoin="round" stroke-miterlimit="10" d="
				M263.774,223.551c0,0,13.642-3.122,23.215-14.61"/>
			
				<path fill="none" stroke="#FDEFE8" stroke-width="3.3507" stroke-linecap="round" stroke-linejoin="round" stroke-miterlimit="10" d="
				M144.321,156.604c0,0,1.861,13.205,1.861,18.044"/>
			
				<path fill="none" stroke="#FDEFE8" stroke-width="3.3507" stroke-linecap="round" stroke-linejoin="round" stroke-miterlimit="10" d="
				M129.438,211.617c0,0,3.425,5.473,2.825,8.824"/>
			
				<path fill="none" stroke="#FDEFE8" stroke-width="3.3507" stroke-linecap="round" stroke-linejoin="round" stroke-miterlimit="10" d="
				M515.454,319.328c0,0-5.072,3.588-5.537,11.988"/>
		</g>
	</g>
	
		<circle fill="none" stroke="#000000" stroke-width="2.1358" stroke-linecap="round" stroke-linejoin="round" stroke-miterlimit="10" cx="326.645" cy="334.364" r="311.679"/>
</g>
</svg>
