<?xml version="1.0" encoding="utf-8"?>
<!-- Generator: Adobe Illustrator 16.0.0, SVG Export Plug-In . SVG Version: 6.00 Build 0)  -->
<!DOCTYPE svg PUBLIC "-//W3C//DTD SVG 1.1//EN" "http://www.w3.org/Graphics/SVG/1.1/DTD/svg11.dtd">
<svg version="1.1" id="Layer_1" xmlns="http://www.w3.org/2000/svg" xmlns:xlink="http://www.w3.org/1999/xlink" x="0px" y="0px"
	 width="383.619px" height="383.62px" viewBox="0 0 383.619 383.62" enable-background="new 0 0 383.619 383.62"
	 xml:space="preserve">
<g>
	<defs>
		<circle id="SVGID_1_" cx="191.809" cy="191.811" r="191.309"/>
	</defs>
	<clipPath id="SVGID_2_">
		<use xlink:href="#SVGID_1_"  overflow="visible"/>
	</clipPath>
	<g clip-path="url(#SVGID_2_)">
		<circle fill="#E8E8E8" cx="191.809" cy="191.811" r="191.309"/>
		<path fill="#D8D8D8" d="M209.975,208.192l-4.603-19.03c-0.411-1.697-1.904-2.351-3.34-1.461c-1.436,0.895-2.261,2.992-1.853,4.688
			l1.684,6.961c-3.76,3.262-8.54,7.389-9.83,8.426c-2.216,1.779-3.79,2.879-7.818,1.726c-4.028-1.154-12.338-2.61-21.095-2.292
			c-4.949,0.182-16.085,0.76-26.461,1.428c0.712-1.297,1.437-2.646,2.132-3.979c2.684-5.144,3.475-9.891-0.302-11.116
			c-0.251-0.083-0.523-0.148-0.816-0.198c0.005-0.006,13.09-12.963-2.902-10.572c0,0-5.673,1.027-13.343,3.914
			c-2.923,1.101-6.042,2.291-9.033,3.525l0.008-0.004c-0.091,0.038-0.178,0.074-0.269,0.112c-0.453,0.188-0.903,0.376-1.349,0.567
			c-0.156,0.064-0.31,0.131-0.464,0.198c-0.41,0.176-0.814,0.353-1.215,0.53c-0.148,0.066-0.297,0.131-0.445,0.198
			c-0.435,0.192-0.862,0.388-1.283,0.583c-0.097,0.045-0.195,0.09-0.291,0.135c-1.032,0.481-2.012,0.967-2.93,1.449
			c-0.122,0.064-0.238,0.128-0.357,0.193c-0.325,0.174-0.641,0.35-0.947,0.522c-0.135,0.077-0.267,0.153-0.397,0.229
			c-0.292,0.17-0.57,0.34-0.841,0.509c-0.112,0.07-0.228,0.141-0.336,0.21c-0.365,0.233-0.714,0.47-1.034,0.702
			c-4.487,3.255-11.205,7.69-11.205,7.69c-0.506,0.146-9.867,7.749-18.803,14.468c-3.872,0.764-6.899,1.391-8.458,1.767
			c-7.284,1.754-28.546,5.535-34.365,6.483c-5.822,0.949-22.723,2.576-27.944,3.857c-4.293,1.049-8.244,2.031-13.343,6.301
			c-1.108,0.911-2.269,1.968-3.503,3.221c0.01,0.01,0.021,0.02,0.031,0.031c-0.001,0.001-0.002,0.002-0.003,0.003
			c0.049,0.054,0.103,0.095,0.152,0.148c5.589,6.29,15.003,2.494,18.018,1.96c3.024-0.543,32.197-6.936,38.077-7.916l0,0
			c0.05-0.006,0.113-0.018,0.16-0.026c1.509-0.245,4.508-0.658,8.22-1.149c-4,2.683-7.548,5.615-10.39,8.527
			c-2.659,2.727-3.403,4.83-3.403,4.83s-2.683,2.894-3.541,6.789c-2.76,4.867-3.282,9.098-4.037,13.918
			c-0.753,4.82-0.583,17.383-1.189,33.165c-0.604,15.782-6.798,37.398-8.152,40.744l-0.001-0.001l0.001,0.001l0,0
			c0,0-2.524,2.735-2.949,4.598c-1.061,0.548-2.951,1.847-2.646,4.041c0,0,0.093,0.063,0.268,0.179l-18.778,31.005l0.811,1.091l0,0
			l23.357,31.453l5.312-2.041l0,0l4.271-1.641L49.958,361.4l0-0.001c0,0,3.818-3.175,4.23-7.503c0,0,4.054-3.558,4.53-8.475
			c4.615-4.788,26.46-27.953,39.755-50.971c14.923-25.835,15.819-32.385,16.64-34.07c0.507-1.039,0.755-1.763,0.872-2.164
			c0.175-0.041,0.352-0.082,0.533-0.129c0.054-0.014,0.105-0.023,0.16-0.037c0.001-0.002,0.001-0.002,0.002-0.003h-0.001
			c1.342-0.349,2.768-0.846,4.016-1.569c3.672-2.123,6.9-8.453,4.814-15.382c0.268,0.018,0.546,0.011,0.831-0.008l0.006,0.001
			l-0.004-0.001c3.801-0.258,8.77-3.577,9.882-6.37c0.758-1.903-0.447-9.399-2.275-15.148c1.704-0.314,3.156-0.584,4.253-0.793
			c10.533-1.994,25.191-4.688,33.822-4.002c8.631,0.688,14.476,2.652,17.245,0.405c1.759-1.428,8.877-8.71,13.23-13.202l2.283,9.443
			c0.369,1.514,1.596,2.189,2.873,1.688c0.17-0.053,0.34-0.126,0.509-0.232c0.201-0.126,0.381-0.292,0.551-0.477
			C209.771,211.365,210.324,209.641,209.975,208.192z"/>
		<g>
			<path fill="#D8D8D8" d="M444.939,184.319c-0.162-0.223-0.396-0.435-0.679-0.637c-0.043-0.03-0.075-0.063-0.121-0.093
				c-0.169-0.11-0.321-0.232-0.461-0.359c-0.077-0.068-0.14-0.145-0.209-0.217c-0.058-0.061-0.12-0.119-0.172-0.181
				c-0.062-0.073-0.11-0.146-0.165-0.219c-0.047-0.065-0.1-0.131-0.142-0.194c-0.042-0.064-0.076-0.126-0.113-0.189
				c-0.043-0.072-0.089-0.146-0.125-0.216c-0.026-0.048-0.045-0.091-0.067-0.137c-0.039-0.081-0.08-0.161-0.109-0.233
				c-0.011-0.024-0.018-0.045-0.027-0.067c-0.121-0.298-0.172-0.502-0.172-0.505l0,0h-0.001c0.089-0.052,0.145-0.119,0.179-0.199
				c0.01-0.024,0.008-0.056,0.014-0.082c0.002-0.007,0-0.015,0.002-0.021c0.01-0.055,0.021-0.11,0.014-0.177
				c-0.006-0.051-0.025-0.108-0.041-0.163c-0.017-0.06-0.031-0.118-0.058-0.182c-0.028-0.069-0.067-0.146-0.106-0.22
				c-0.031-0.059-0.061-0.116-0.098-0.178c-0.052-0.088-0.11-0.181-0.174-0.273c-0.035-0.056-0.072-0.109-0.112-0.165
				c-0.076-0.107-0.157-0.216-0.243-0.329c-0.033-0.043-0.067-0.087-0.102-0.129c-0.102-0.131-0.207-0.262-0.318-0.395
				c-0.016-0.02-0.031-0.038-0.048-0.057c-0.997-1.188-2.282-2.502-2.837-3.334c-0.01-0.015-0.016-0.027-0.025-0.041
				c-0.064-0.1-0.114-0.189-0.154-0.272c-0.013-0.026-0.023-0.052-0.033-0.077c-0.027-0.066-0.041-0.127-0.047-0.18
				c-0.001-0.021-0.006-0.045-0.005-0.063c0.005-0.062,0.026-0.112,0.072-0.146c0.002-0.001,0.002-0.004,0.003-0.005
				c0.057-0.039,0.094-0.095,0.115-0.166c0.006-0.016,0.002-0.04,0.006-0.058c0.012-0.059,0.021-0.117,0.016-0.193
				c-0.1-1.366-2.919-5.308-3.636-7.271c-0.409-1.119-0.355-1.58-0.169-2.016c0.105-0.245,0.253-0.488,0.385-0.835
				c0.102-0.267,0.194-0.594,0.249-1.039c0.046-0.376,0.104-0.774,0.175-1.215c0.262-1.601,0.715-3.773,1.508-7.563
				c0.174-0.835,0.363-1.74,0.572-2.745c0.004-0.014,0.009-0.027,0.012-0.042c0.078-0.368,0.186-0.751,0.307-1.143
				c0.036-0.113,0.076-0.23,0.115-0.345c0.111-0.328,0.236-0.661,0.374-1.003c0.037-0.092,0.071-0.184,0.11-0.277
				c0.18-0.425,0.379-0.859,0.596-1.299c0.047-0.097,0.098-0.193,0.146-0.288c0.092-0.181,0.193-0.365,0.289-0.548l2.782-4.535
				c0.126-0.184,0.251-0.366,0.378-0.549c0.154-0.217,0.309-0.436,0.465-0.651c0.206-0.286,0.414-0.57,0.625-0.854
				c0.172-0.231,0.346-0.463,0.521-0.691c0.191-0.251,0.384-0.5,0.577-0.748c0.205-0.261,0.409-0.521,0.614-0.778
				c0.163-0.204,0.327-0.404,0.49-0.604c0.235-0.29,0.47-0.574,0.704-0.855c0.266-0.316,0.529-0.632,0.793-0.938
				c0.054-0.062,0.107-0.124,0.161-0.187c0.345-0.397,0.687-0.786,1.023-1.162c0.058-0.063,0.114-0.125,0.171-0.189
				c0.311-0.343,0.617-0.678,0.918-0.998c0.039-0.042,0.08-0.087,0.119-0.129c0.305-0.325,0.6-0.631,0.891-0.928
				c0.082-0.086,0.166-0.173,0.248-0.256c0.27-0.273,0.531-0.535,0.784-0.779c0.081-0.08,0.159-0.155,0.239-0.23
				c0.227-0.219,0.447-0.427,0.655-0.617c0.03-0.029,0.064-0.061,0.095-0.089c0.338-0.308,0.635-0.608,0.944-0.913
				c3.796-3.713,5.63-7.232,7.319-12.75c0.543-1.775,1.491-4.298,2.558-7.082c0.69-1.799,1.429-3.707,2.142-5.595
				c1.894-5.017,3.594-9.879,3.652-12.124c0.023-0.907-0.223-1.857-0.623-2.816c-1.535-3.686-5.467-7.508-6.227-9.654
				c-0.093-0.258-0.192-0.586-0.298-0.942c-0.994-3.379-2.597-10.725-4.954-14.333c-0.096-0.146-0.242-0.271-0.432-0.368
				c-1.319-0.688-4.707-0.075-7.09,3.562c-0.166,0.253-0.309,0.506-0.44,0.758c-0.011,0.021-0.021,0.042-0.032,0.062
				c-0.03,0.062-0.062,0.122-0.092,0.184v-0.001l-0.002,0.004c-0.08,0.168-0.154,0.337-0.221,0.503
				c-0.01,0.022-0.02,0.045-0.028,0.067c-0.057,0.145-0.107,0.288-0.153,0.431c-0.006,0.014-0.01,0.027-0.015,0.041
				c-0.106,0.328-0.188,0.655-0.249,0.976c0,0.005-0.002,0.009-0.002,0.011c-0.005,0.028-0.008,0.056-0.014,0.082
				c-0.035,0.207-0.062,0.413-0.082,0.616c-0.004,0.032-0.007,0.064-0.01,0.098c-0.031,0.376-0.037,0.744-0.02,1.103
				c0.002,0.01,0.001,0.019,0.002,0.027c0.003,0.064,0.008,0.128,0.012,0.191c0.004,0.043,0.008,0.086,0.012,0.128
				c0.016,0.17,0.033,0.337,0.057,0.5v0.004c0.004,0.027,0.006,0.055,0.01,0.08c0.002,0.02,0.007,0.037,0.01,0.057
				c0.03,0.197,0.064,0.393,0.104,0.581c0.002,0.007,0.004,0.015,0.006,0.022c0.007,0.033,0.015,0.064,0.022,0.098
				c0.014,0.064,0.029,0.127,0.045,0.19c0.018,0.075,0.036,0.15,0.055,0.224c0.02,0.078,0.042,0.151,0.062,0.227
				c0.016,0.054,0.029,0.108,0.045,0.16c0.018,0.059,0.035,0.115,0.053,0.174c0.022,0.069,0.043,0.138,0.065,0.206
				c0.011,0.03,0.021,0.06,0.03,0.09c0.035,0.106,0.07,0.213,0.105,0.313l-2.27-4.654l-1.269-2.604h-0.001l-0.002-0.001
				l-5.689,2.771l0.991,2.038l-3.198,1.558l-10.529,5.125c-0.354-0.617-0.7-1.2-1.038-1.748c-0.002-0.002-0.003-0.004-0.005-0.007
				c-0.325-0.525-0.643-1.019-0.95-1.482c-0.033-0.051-0.065-0.1-0.099-0.149c-0.599-0.893-1.16-1.672-1.672-2.344
				c-0.038-0.049-0.074-0.097-0.111-0.145c-0.246-0.32-0.482-0.617-0.704-0.887c-0.024-0.029-0.047-0.056-0.071-0.086
				c-0.205-0.249-0.4-0.477-0.58-0.684c-0.025-0.027-0.051-0.057-0.074-0.084c-0.186-0.21-0.354-0.396-0.51-0.561
				c-0.035-0.038-0.064-0.07-0.098-0.105c-0.139-0.146-0.268-0.28-0.379-0.39c-0.006-0.006-0.014-0.015-0.02-0.021
				c-0.005-0.115-0.025-0.231-0.034-0.347c-0.12-1.671-0.509-3.336-1.179-4.944c-0.118-0.285-0.225-0.573-0.361-0.855
				c-0.906-1.857-2.136-3.453-3.589-4.771c-2.509-2.28-5.696-3.715-9.099-4.152c-0.479-0.062-0.959-0.111-1.445-0.133
				c-0.729,0.009-1.311,0.1-1.76,0.252c-0.748,0.255-1.127,0.686-1.202,1.205c-0.05,0.343,0.065,0.632,0.302,0.875
				c0.391,0.408,1.123,0.69,2.001,0.89c0.436,0.081,0.87,0.19,1.302,0.317c0.061,0.018,0.121,0.034,0.183,0.053
				c0.413,0.128,0.825,0.279,1.231,0.449c0.072,0.031,0.143,0.063,0.215,0.094c0.411,0.182,0.82,0.38,1.222,0.606
				c0.027,0.015,0.054,0.032,0.081,0.048c0.379,0.218,0.751,0.459,1.118,0.718c0.07,0.05,0.142,0.097,0.213,0.147
				c0.364,0.267,0.72,0.556,1.068,0.864c0.087,0.074,0.171,0.153,0.257,0.23c0.344,0.318,0.682,0.651,1.01,1.013
				c0.061,0.066,0.119,0.141,0.18,0.209c0.286,0.327,0.564,0.673,0.834,1.033c0.072,0.096,0.146,0.188,0.217,0.287
				c0.287,0.398,0.561,0.822,0.826,1.264c0.043,0.068,0.082,0.139,0.123,0.209l-0.018,0.012c-2.777-3.967-6.789-5.995-11.592-4.371
				c-0.422,0.143-0.81,0.306-1.18,0.476c-0.081,0.038-0.162,0.075-0.24,0.113c-0.342,0.167-0.668,0.344-0.969,0.533
				c0-0.001,0-0.001,0-0.001c-0.008,0.006-0.015,0.012-0.023,0.017c-0.044,0.028-0.083,0.059-0.125,0.087
				c-0.19,0.125-0.375,0.253-0.547,0.384c-0.064,0.051-0.125,0.103-0.188,0.153c-0.007,0.005-0.014,0.012-0.021,0.018
				c-0.059,0.049-0.121,0.095-0.177,0.145c-0.081,0.068-0.157,0.139-0.234,0.21c-0.069,0.063-0.136,0.129-0.202,0.193
				c-0.084,0.084-0.169,0.167-0.248,0.253c-0.044,0.046-0.084,0.093-0.126,0.14c-0.054,0.061-0.104,0.119-0.156,0.181
				c-0.104,0.125-0.202,0.25-0.298,0.379c-0.039,0.052-0.084,0.102-0.119,0.153c-0.016,0.022-0.029,0.046-0.045,0.067
				c-0.104,0.15-0.2,0.303-0.292,0.457c-0.025,0.041-0.054,0.083-0.079,0.125c-0.023,0.041-0.043,0.084-0.065,0.125
				c-0.04,0.072-0.079,0.146-0.116,0.221c-0.042,0.08-0.086,0.16-0.124,0.24c-0.035,0.074-0.064,0.148-0.099,0.224
				c-0.027,0.064-0.058,0.128-0.084,0.19c-0.014,0.036-0.031,0.07-0.045,0.105c-0.012,0.032-0.021,0.064-0.035,0.096
				c-0.027,0.075-0.053,0.148-0.078,0.223c-0.051,0.14-0.096,0.279-0.138,0.418c0,0-0.001,0.007-0.003,0.011
				c-0.007,0.025-0.02,0.053-0.027,0.079c-0.055-0.033-0.436-0.264-1.048-0.545c-0.011-0.005-0.022-0.01-0.032-0.014
				c-0.022-0.011-0.045-0.021-0.067-0.031c-0.016-0.008-0.03-0.014-0.046-0.021c-0.113-0.052-0.234-0.102-0.362-0.154
				c-0.036-0.016-0.071-0.03-0.108-0.045c-0.018-0.007-0.033-0.014-0.053-0.021c-0.014-0.006-0.024-0.011-0.039-0.017
				c-0.133-0.053-0.276-0.104-0.422-0.156c-0.044-0.016-0.084-0.031-0.129-0.047c-0.034-0.013-0.065-0.023-0.101-0.034
				c-0.007-0.003-0.015-0.005-0.021-0.007c-0.188-0.063-0.384-0.126-0.589-0.184c-0.009-0.002-0.017-0.003-0.024-0.007
				c-0.015-0.004-0.029-0.007-0.045-0.011c-0.084-0.023-0.173-0.044-0.26-0.066c-0.138-0.036-0.275-0.071-0.418-0.104
				c-0.045-0.011-0.09-0.02-0.135-0.029c-0.09-0.019-0.182-0.034-0.272-0.052c-0.132-0.023-0.264-0.048-0.399-0.069
				c-0.071-0.011-0.14-0.023-0.212-0.033c-0.078-0.011-0.159-0.018-0.239-0.027c-0.135-0.016-0.272-0.026-0.412-0.038
				c-0.096-0.008-0.189-0.02-0.288-0.024c-0.062-0.004-0.124-0.005-0.186-0.006c-0.146-0.006-0.295-0.003-0.443-0.002
				c-0.12,0-0.236-0.005-0.356-0.001c-0.039,0-0.08,0.003-0.119,0.005c-0.184,0.01-0.372,0.031-0.559,0.05
				c-0.115,0.014-0.229,0.018-0.346,0.034c-0.142,0.02-0.285,0.054-0.428,0.079c-0.162,0.03-0.324,0.057-0.488,0.096
				c-0.045,0.011-0.09,0.018-0.134,0.029c-0.125,0.03-0.251,0.078-0.377,0.114c-0.071,0.021-0.144,0.038-0.215,0.062
				c0.07-0.021,0.138-0.039,0.208-0.059c-0.105,0.031-0.211,0.065-0.317,0.101c-0.123,0.042-0.244,0.071-0.366,0.117
				c-0.271,0.104-0.543,0.234-0.814,0.366c-0.088,0.043-0.175,0.073-0.262,0.119c-0.361,0.189-0.721,0.404-1.078,0.652
				c-3.218,2.229-4.215,5.088-4.469,7.179c-0.002,0.013-0.006,0.028-0.006,0.042c-0.008,0.07-0.012,0.133-0.018,0.199
				c-0.148,1.52,0.082,2.58,0.082,2.58h0.001h0.001l-0.033,0.043c-0.5-0.379-1.125-0.762-1.861-1.062
				c-0.039-0.017-0.08-0.033-0.121-0.049c-0.099-0.039-0.2-0.076-0.304-0.111c-0.054-0.018-0.106-0.035-0.16-0.052
				c-0.166-0.052-0.337-0.099-0.513-0.142c-0.08-0.02-0.158-0.039-0.24-0.057c-0.088-0.018-0.18-0.032-0.271-0.048
				c-0.091-0.015-0.181-0.029-0.274-0.041c-0.09-0.013-0.18-0.022-0.273-0.03c-0.105-0.011-0.215-0.017-0.326-0.021
				c-0.082-0.004-0.163-0.01-0.246-0.012c-0.186-0.002-0.375,0.002-0.567,0.013c-0.074,0.005-0.15,0.014-0.226,0.02
				c-0.137,0.013-0.275,0.026-0.414,0.046c-0.086,0.012-0.174,0.025-0.261,0.04c-0.144,0.024-0.29,0.054-0.437,0.087
				c-0.08,0.017-0.158,0.033-0.238,0.053c-0.222,0.057-0.447,0.12-0.676,0.195c-0.055,0.018-0.111,0.041-0.166,0.06
				c-0.185,0.065-0.371,0.136-0.561,0.214c-0.087,0.035-0.176,0.074-0.264,0.113c-0.169,0.075-0.34,0.158-0.514,0.244
				c-0.086,0.043-0.173,0.085-0.26,0.131c-0.236,0.125-0.473,0.258-0.715,0.404c-0.021,0.014-0.041,0.022-0.062,0.035
				c-0.411,0.252-0.78,0.505-1.126,0.758c-0.053,0.038-0.109,0.076-0.16,0.113c-0.315,0.237-0.602,0.473-0.865,0.706
				c-0.059,0.053-0.115,0.103-0.17,0.155c-0.25,0.229-0.478,0.457-0.682,0.684c-0.042,0.046-0.08,0.094-0.12,0.14
				c-0.196,0.227-0.376,0.452-0.53,0.673c-0.019,0.026-0.034,0.051-0.051,0.076c-0.147,0.215-0.271,0.428-0.385,0.637
				c-0.023,0.045-0.05,0.092-0.072,0.135c-0.104,0.208-0.189,0.411-0.264,0.61c-0.021,0.055-0.039,0.107-0.057,0.161
				c-0.065,0.191-0.119,0.379-0.158,0.562c-0.012,0.053-0.02,0.104-0.03,0.156c-0.03,0.163-0.054,0.323-0.067,0.479
				c-0.005,0.062-0.008,0.121-0.012,0.182c-0.006,0.129-0.008,0.254-0.004,0.375c0.001,0.064,0.002,0.129,0.006,0.191
				c0,0-4.617-0.714-9.057,4.129c-2.266,2.477-3.582,5.049-4.133,7.62c-0.218,1.019-0.312,2.036-0.299,3.048
				c0.018,1.428,0.246,2.841,0.672,4.226l-30.988,14.505l-13.619,6.375l1.137,2.329l0.504,1.035l-9.387,4.571l0.003,0.005
				l-0.001,0.001l-1.296,5.592l-0.692,2.979l-45.775,24.066l0.001,0.003h-0.001l0.105,0.216l0.176,0.362l0.001,0.002l-0.73,0.357
				l-0.003-0.006l0.002-0.002l-0.273-0.559l-36.075,19.182l-12.198,6.486c-0.06,0.028-0.102,0.076-0.154,0.114
				c-0.243,0.176-0.391,0.432-0.423,0.713c-0.02,0.179-0.01,0.36,0.074,0.532c0.242,0.496,0.861,0.694,1.38,0.44l49.972-22.175
				l-0.001-0.003l0,0l-0.014-0.026l-0.259-0.535l0.73-0.354l0.281,0.578l0.003-0.001l0.001,0.003l47.173-21.197l0.596,0.277
				l7.377,3.444l-0.001-0.001l9.39-4.57l-0.004-0.008l0,0l0.004,0.008l2.117,4.341l0.273,0.562l35.124-17.103l0.005,0.005
				c-2.317,5.003-0.451,10.354,4.096,18.994c4.547,8.641,10.809,17.588,12.86,19.711c0.122,0.127,0.231,0.258,0.333,0.391
				c0.004,0.007,0.012,0.012,0.016,0.02c0.104,0.139,0.196,0.28,0.278,0.425c0.001,0.002,0.003,0.004,0.003,0.004
				c1.164,2.055,0.295,4.777-0.002,8.106c-0.339,3.804-1.08,8.639,1.41,11.399c2.307,2.552,2.448,4.532,2.548,7.275
				c0.008,0.223,0.017,0.449,0.024,0.684c0.009,0.239,0.018,0.442,0.027,0.655c0.061,1.526,0.143,2.458,0.491,3.104
				c0.017,0.03,0.042,0.054,0.06,0.083c0.067,0.112,0.137,0.222,0.224,0.32c0.033,0.037,0.08,0.07,0.116,0.105
				c0.084,0.084,0.165,0.166,0.268,0.241c0.009,0.007,0.021,0.014,0.029,0.019c0.14,0.102,0.293,0.199,0.47,0.295
				c0.879,0.478,1.521,0.982,1.911,1.325c0.281,0.248,0.436,0.415,0.436,0.415s-0.594,2.103,2.555,1.777
				c0.04-0.005,0.1-0.015,0.145-0.021c0.117-0.015,0.248-0.032,0.389-0.054c0.101-0.015,0.2-0.029,0.312-0.049
				c0.176-0.029,0.367-0.063,0.57-0.104c0.13-0.023,0.264-0.051,0.404-0.078c0.232-0.047,0.477-0.098,0.736-0.155
				c0.147-0.032,0.303-0.067,0.459-0.103c0.246-0.056,0.503-0.114,0.771-0.18c0.178-0.041,0.361-0.086,0.549-0.133
				c0.15-0.035,0.297-0.071,0.452-0.11c-0.009,0.001-0.019,0.004-0.028,0.005c5.053-1.265,13.141-3.736,22.377-7.435
				c1.201-0.481,2.414-0.975,3.649-1.497c0.589-0.25,1.172-0.502,1.753-0.756c14.104-6.158,25.395-13.368,26.483-14.129
				C445.355,185.93,445.503,185.085,444.939,184.319z"/>
		</g>
		<g>
			<polygon fill="#CCCCCC" points="294.171,151.867 134.556,157.493 134.556,50.538 141.594,45.544 			"/>
			<g>
				<g>
					<g>
						<path fill="#FFFFFF" d="M296.105,149.935c0,1.062-0.87,1.933-1.934,1.933H141.594c-1.063,0-1.933-0.871-1.933-1.933V47.478
							c0-1.062,0.869-1.934,1.933-1.934h152.577c1.063,0,1.934,0.871,1.934,1.934V149.935z"/>
					</g>
					<linearGradient id="SVGID_3_" gradientUnits="userSpaceOnUse" x1="139.6616" y1="98.7056" x2="296.105" y2="98.7056">
						<stop  offset="0" style="stop-color:#C6E9FA"/>
						<stop  offset="0.9967" style="stop-color:#A0C3E7"/>
					</linearGradient>
					<path opacity="0.8" fill="url(#SVGID_3_)" d="M296.105,149.935c0,1.062-0.87,1.933-1.934,1.933H141.594
						c-1.063,0-1.933-0.871-1.933-1.933V47.478c0-1.062,0.869-1.934,1.933-1.934h152.577c1.063,0,1.934,0.871,1.934,1.934V149.935z"
						/>
					<path fill="none" stroke="#000000" stroke-linecap="round" stroke-linejoin="round" stroke-miterlimit="10" d="
						M296.105,149.935c0,1.062-0.87,1.933-1.934,1.933H141.594c-1.063,0-1.933-0.871-1.933-1.933V47.478
						c0-1.062,0.869-1.934,1.933-1.934h152.577c1.063,0,1.934,0.871,1.934,1.934V149.935z"/>
					<linearGradient id="SVGID_4_" gradientUnits="userSpaceOnUse" x1="144.3848" y1="98.7061" x2="291.3823" y2="98.7061">
						<stop  offset="0" style="stop-color:#C6E9FA"/>
						<stop  offset="0.9967" style="stop-color:#A4C2D1"/>
					</linearGradient>
					<rect x="144.385" y="49.454" opacity="0.8" fill="url(#SVGID_4_)" width="146.998" height="98.504"/>
					<linearGradient id="SVGID_5_" gradientUnits="userSpaceOnUse" x1="142.937" y1="98.7061" x2="292.8296" y2="98.7061">
						<stop  offset="0" style="stop-color:#C6E9FA"/>
						<stop  offset="0.9967" style="stop-color:#A0C3E7"/>
					</linearGradient>
					<path opacity="0.8" fill="url(#SVGID_5_)" d="M152.551,48.629c-1.063,0-2.548,0.614-3.299,1.365l-4.948,4.949
						c-0.751,0.752-1.367,2.237-1.367,3.3v88.607c0,1.063,0.87,1.933,1.932,1.933h146.027c1.063,0,1.934-0.869,1.934-1.933V50.562
						c0-1.064-0.87-1.934-1.934-1.934H152.551z"/>
					<path fill="none" stroke="#000000" stroke-linecap="round" stroke-linejoin="round" stroke-miterlimit="10" d="M152.551,48.629
						c-1.063,0-2.548,0.614-3.299,1.365l-4.948,4.949c-0.751,0.752-1.367,2.237-1.367,3.3v88.607c0,1.063,0.87,1.933,1.932,1.933
						h146.027c1.063,0,1.934-0.869,1.934-1.933V50.562c0-1.064-0.87-1.934-1.934-1.934H152.551z"/>
					<path fill="#C6E9FA" d="M147.607,144.939V59.588c0-0.451,0.365-1.33,0.684-1.648l4.783-4.783
						c0.319-0.319,1.197-0.684,1.648-0.684h133.437v92.467H147.607z"/>
					<g>
						<g>
							
								<circle fill="#FFFFFF" stroke="#000000" stroke-linecap="round" stroke-linejoin="round" stroke-miterlimit="10" cx="161.475" cy="131.167" r="15.635"/>
							<linearGradient id="SVGID_6_" gradientUnits="userSpaceOnUse" x1="146.6177" y1="131.168" x2="176.333" y2="131.168">
								<stop  offset="0" style="stop-color:#C6E9FA"/>
								<stop  offset="0.9967" style="stop-color:#A0C3E7"/>
							</linearGradient>
							<circle fill="url(#SVGID_6_)" cx="161.475" cy="131.167" r="14.855"/>
							<circle fill="#C6E9FA" cx="161.476" cy="131.168" r="12.182"/>
						</g>
						<g>
							
								<circle fill="#FFFFFF" stroke="#000000" stroke-linecap="round" stroke-linejoin="round" stroke-miterlimit="10" cx="199.081" cy="131.167" r="15.634"/>
							<linearGradient id="SVGID_7_" gradientUnits="userSpaceOnUse" x1="184.2227" y1="131.168" x2="213.938" y2="131.168">
								<stop  offset="0" style="stop-color:#C6E9FA"/>
								<stop  offset="0.9967" style="stop-color:#A0C3E7"/>
							</linearGradient>
							<circle fill="url(#SVGID_7_)" cx="199.08" cy="131.167" r="14.855"/>
							<circle fill="#C6E9FA" cx="199.081" cy="131.168" r="12.182"/>
						</g>
						<g>
							
								<circle fill="#FFFFFF" stroke="#000000" stroke-linecap="round" stroke-linejoin="round" stroke-miterlimit="10" cx="236.686" cy="131.167" r="15.634"/>
							<linearGradient id="SVGID_8_" gradientUnits="userSpaceOnUse" x1="221.8281" y1="131.168" x2="251.5435" y2="131.168">
								<stop  offset="0" style="stop-color:#C6E9FA"/>
								<stop  offset="0.9967" style="stop-color:#A0C3E7"/>
							</linearGradient>
							<circle fill="url(#SVGID_8_)" cx="236.686" cy="131.167" r="14.855"/>
							<circle fill="#C6E9FA" cx="236.686" cy="131.168" r="12.182"/>
						</g>
						<g>
							
								<circle fill="#FFFFFF" stroke="#000000" stroke-linecap="round" stroke-linejoin="round" stroke-miterlimit="10" cx="274.292" cy="131.167" r="15.634"/>
							<linearGradient id="SVGID_9_" gradientUnits="userSpaceOnUse" x1="259.4331" y1="131.168" x2="289.1489" y2="131.168">
								<stop  offset="0" style="stop-color:#C6E9FA"/>
								<stop  offset="0.9967" style="stop-color:#A0C3E7"/>
							</linearGradient>
							<circle fill="url(#SVGID_9_)" cx="274.29" cy="131.167" r="14.856"/>
							<circle fill="#C6E9FA" cx="274.292" cy="131.168" r="12.182"/>
						</g>
					</g>
					<g>
						<g>
							
								<circle fill="#FFFFFF" stroke="#000000" stroke-linecap="round" stroke-linejoin="round" stroke-miterlimit="10" cx="161.475" cy="98.282" r="15.634"/>
							<linearGradient id="SVGID_10_" gradientUnits="userSpaceOnUse" x1="146.6177" y1="98.2812" x2="176.333" y2="98.2812">
								<stop  offset="0" style="stop-color:#C6E9FA"/>
								<stop  offset="0.9967" style="stop-color:#A0C3E7"/>
							</linearGradient>
							<circle fill="url(#SVGID_10_)" cx="161.475" cy="98.281" r="14.856"/>
							<circle fill="#C6E9FA" cx="161.476" cy="98.282" r="12.182"/>
						</g>
						<g>
							
								<circle fill="#FFFFFF" stroke="#000000" stroke-linecap="round" stroke-linejoin="round" stroke-miterlimit="10" cx="199.081" cy="98.282" r="15.633"/>
							<linearGradient id="SVGID_11_" gradientUnits="userSpaceOnUse" x1="184.2227" y1="98.2812" x2="213.938" y2="98.2812">
								<stop  offset="0" style="stop-color:#C6E9FA"/>
								<stop  offset="0.9967" style="stop-color:#A0C3E7"/>
							</linearGradient>
							<circle fill="url(#SVGID_11_)" cx="199.08" cy="98.281" r="14.856"/>
							<circle fill="#C6E9FA" cx="199.08" cy="98.282" r="12.182"/>
						</g>
						<g>
							
								<circle fill="#FFFFFF" stroke="#000000" stroke-linecap="round" stroke-linejoin="round" stroke-miterlimit="10" cx="236.686" cy="98.282" r="15.633"/>
							<linearGradient id="SVGID_12_" gradientUnits="userSpaceOnUse" x1="221.8281" y1="98.2812" x2="251.5435" y2="98.2812">
								<stop  offset="0" style="stop-color:#C6E9FA"/>
								<stop  offset="0.9967" style="stop-color:#A0C3E7"/>
							</linearGradient>
							<circle fill="url(#SVGID_12_)" cx="236.686" cy="98.281" r="14.855"/>
							<circle fill="#C6E9FA" cx="236.686" cy="98.282" r="12.182"/>
						</g>
						<g>
							
								<circle fill="#FFFFFF" stroke="#000000" stroke-linecap="round" stroke-linejoin="round" stroke-miterlimit="10" cx="274.292" cy="98.282" r="15.634"/>
							<linearGradient id="SVGID_13_" gradientUnits="userSpaceOnUse" x1="259.4331" y1="98.2812" x2="289.1489" y2="98.2812">
								<stop  offset="0" style="stop-color:#C6E9FA"/>
								<stop  offset="0.9967" style="stop-color:#A0C3E7"/>
							</linearGradient>
							<circle fill="url(#SVGID_13_)" cx="274.29" cy="98.281" r="14.856"/>
							<circle fill="#C6E9FA" cx="274.291" cy="98.282" r="12.182"/>
						</g>
					</g>
					<g>
						<g>
							
								<circle fill="#FFFFFF" stroke="#000000" stroke-linecap="round" stroke-linejoin="round" stroke-miterlimit="10" cx="161.475" cy="65.396" r="15.635"/>
							<linearGradient id="SVGID_14_" gradientUnits="userSpaceOnUse" x1="146.6177" y1="65.3955" x2="176.333" y2="65.3955">
								<stop  offset="0" style="stop-color:#C6E9FA"/>
								<stop  offset="0.9967" style="stop-color:#A0C3E7"/>
							</linearGradient>
							<circle fill="url(#SVGID_14_)" cx="161.475" cy="65.395" r="14.855"/>
							<path fill="#C6E9FA" d="M171.89,71.715c-3.491,5.753-10.984,7.585-16.735,4.095c-5.751-3.489-7.583-10.982-4.093-16.735
								c3.491-5.749,10.983-7.582,16.734-4.092C173.546,58.474,175.38,65.964,171.89,71.715z"/>
						</g>
						<g>
							
								<circle fill="#FFFFFF" stroke="#000000" stroke-linecap="round" stroke-linejoin="round" stroke-miterlimit="10" cx="199.081" cy="65.396" r="15.634"/>
							<linearGradient id="SVGID_15_" gradientUnits="userSpaceOnUse" x1="184.2227" y1="65.3955" x2="213.938" y2="65.3955">
								<stop  offset="0" style="stop-color:#C6E9FA"/>
								<stop  offset="0.9967" style="stop-color:#A0C3E7"/>
							</linearGradient>
							<circle fill="url(#SVGID_15_)" cx="199.08" cy="65.395" r="14.855"/>
							<path fill="#C6E9FA" d="M209.494,71.715c-3.489,5.753-10.981,7.585-16.733,4.095c-5.752-3.489-7.583-10.982-4.094-16.735
								c3.491-5.749,10.982-7.582,16.733-4.092C211.151,58.474,212.984,65.964,209.494,71.715z"/>
						</g>
						<g>
							
								<circle fill="#FFFFFF" stroke="#000000" stroke-linecap="round" stroke-linejoin="round" stroke-miterlimit="10" cx="236.686" cy="65.396" r="15.634"/>
							<linearGradient id="SVGID_16_" gradientUnits="userSpaceOnUse" x1="221.8281" y1="65.3955" x2="251.5435" y2="65.3955">
								<stop  offset="0" style="stop-color:#C6E9FA"/>
								<stop  offset="0.9967" style="stop-color:#A0C3E7"/>
							</linearGradient>
							<circle fill="url(#SVGID_16_)" cx="236.686" cy="65.395" r="14.855"/>
							<path fill="#C6E9FA" d="M247.1,71.715c-3.492,5.753-10.983,7.585-16.735,4.095c-5.751-3.489-7.583-10.982-4.093-16.735
								c3.49-5.749,10.982-7.582,16.733-4.092C248.757,58.474,250.589,65.964,247.1,71.715z"/>
						</g>
						<g>
							
								<circle fill="#FFFFFF" stroke="#000000" stroke-linecap="round" stroke-linejoin="round" stroke-miterlimit="10" cx="274.292" cy="65.396" r="15.635"/>
							<linearGradient id="SVGID_17_" gradientUnits="userSpaceOnUse" x1="259.4331" y1="65.3955" x2="289.1489" y2="65.3955">
								<stop  offset="0" style="stop-color:#C6E9FA"/>
								<stop  offset="0.9967" style="stop-color:#A0C3E7"/>
							</linearGradient>
							<circle fill="url(#SVGID_17_)" cx="274.29" cy="65.395" r="14.856"/>
							<path fill="#C6E9FA" d="M284.705,71.715c-3.491,5.753-10.983,7.585-16.734,4.095c-5.751-3.489-7.584-10.982-4.094-16.735
								c3.491-5.749,10.983-7.582,16.734-4.092C286.363,58.474,288.195,65.964,284.705,71.715z"/>
						</g>
					</g>
				</g>
				<g>
					<path fill="#DDDDDD" d="M149.4,102.145c-0.287-1.193,0.789-2.476,2.405-2.866l18.113-4.368c1.618-0.39,3.161,0.263,3.448,1.455
						c0.288,1.194-0.788,2.476-2.405,2.867l-18.114,4.368C151.231,103.988,149.688,103.34,149.4,102.145z"/>
					<path fill="#FFFFFF" d="M164.949,98.396c-0.159-0.661,0.435-1.37,1.33-1.586l3.996-0.965c0.893-0.217,1.747,0.146,1.905,0.806
						c0.161,0.659-0.437,1.368-1.329,1.585l-3.996,0.963C165.96,99.417,165.108,99.053,164.949,98.396z"/>
					<path fill="none" stroke="#000000" stroke-linecap="round" stroke-linejoin="round" stroke-miterlimit="10" d="M149.4,102.145
						c-0.287-1.193,0.789-2.476,2.405-2.866l18.113-4.368c1.618-0.39,3.161,0.263,3.448,1.455c0.288,1.194-0.788,2.476-2.405,2.867
						l-18.114,4.368C151.231,103.988,149.688,103.34,149.4,102.145z"/>
				</g>
				<g>
					<path fill="#DDDDDD" d="M262.308,102.145c-0.287-1.193,0.789-2.476,2.406-2.866l18.113-4.368
						c1.617-0.39,3.16,0.263,3.447,1.455c0.288,1.194-0.789,2.476-2.405,2.867l-18.113,4.368
						C264.139,103.988,262.596,103.34,262.308,102.145z"/>
					<path fill="#FFFFFF" d="M277.856,98.396c-0.159-0.661,0.436-1.37,1.331-1.586l3.996-0.965c0.893-0.217,1.746,0.146,1.904,0.806
						c0.162,0.659-0.437,1.368-1.328,1.585l-3.995,0.963C278.869,99.417,278.017,99.053,277.856,98.396z"/>
					<path fill="none" stroke="#000000" stroke-linecap="round" stroke-linejoin="round" stroke-miterlimit="10" d="
						M262.308,102.145c-0.287-1.193,0.789-2.476,2.406-2.866l18.113-4.368c1.617-0.39,3.16,0.263,3.447,1.455
						c0.288,1.194-0.789,2.476-2.405,2.867l-18.113,4.368C264.139,103.988,262.596,103.34,262.308,102.145z"/>
				</g>
				<g>
					<path fill="#DDDDDD" d="M190.505,108.109c-0.882-0.857-0.659-2.514,0.499-3.709l12.961-13.385
						c1.158-1.194,2.81-1.471,3.691-0.616c0.883,0.854,0.66,2.514-0.497,3.709l-12.962,13.386
						C193.039,108.686,191.388,108.964,190.505,108.109z"/>
					<path fill="#FFFFFF" d="M201.632,96.622c-0.487-0.474-0.365-1.391,0.275-2.052l2.859-2.955c0.639-0.66,1.553-0.812,2.04-0.34
						c0.489,0.473,0.364,1.391-0.274,2.051l-2.859,2.953C203.033,96.941,202.12,97.09,201.632,96.622z"/>
					<path fill="none" stroke="#000000" stroke-linecap="round" stroke-linejoin="round" stroke-miterlimit="10" d="
						M190.505,108.109c-0.882-0.857-0.659-2.514,0.499-3.709l12.961-13.385c1.158-1.194,2.81-1.471,3.691-0.616
						c0.883,0.854,0.66,2.514-0.497,3.709l-12.962,13.386C193.039,108.686,191.388,108.964,190.505,108.109z"/>
				</g>
				<g>
					<path fill="#DDDDDD" d="M225.692,93.681c0.558-1.097,2.207-1.372,3.689-0.621l16.62,8.424c1.483,0.753,2.234,2.248,1.68,3.343
						c-0.555,1.097-2.205,1.374-3.689,0.623l-16.621-8.426C225.89,96.271,225.137,94.776,225.692,93.681z"/>
					<path fill="#FFFFFF" d="M239.957,100.914c0.309-0.607,1.221-0.762,2.042-0.346l3.667,1.859
						c0.819,0.413,1.234,1.241,0.928,1.848c-0.306,0.605-1.221,0.759-2.04,0.344l-3.665-1.858
						C240.066,102.345,239.653,101.516,239.957,100.914z"/>
					<path fill="none" stroke="#000000" stroke-linecap="round" stroke-linejoin="round" stroke-miterlimit="10" d="M225.692,93.681
						c0.558-1.097,2.207-1.372,3.689-0.621l16.62,8.424c1.483,0.753,2.234,2.248,1.68,3.343c-0.555,1.097-2.205,1.374-3.689,0.623
						l-16.621-8.426C225.89,96.271,225.137,94.776,225.692,93.681z"/>
				</g>
				<circle opacity="0.8" fill="#D94732" cx="274.291" cy="98.282" r="13.603"/>
				<circle opacity="0.8" fill="#D94732" cx="236.686" cy="98.282" r="13.604"/>
				<circle opacity="0.8" fill="#D94732" cx="199.081" cy="98.282" r="13.603"/>
				<circle opacity="0.8" fill="#D94732" cx="161.476" cy="98.282" r="13.604"/>
			</g>
		</g>
		<g>
			<polygon fill="#CCCCCC" points="291.949,334.278 132.333,339.904 132.333,232.949 139.371,227.955 			"/>
			<g>
				<g>
					<g>
						<path fill="#FFFFFF" d="M293.552,332.346c0,1.063-0.871,1.933-1.934,1.933H139.041c-1.063,0-1.932-0.869-1.932-1.933V229.889
							c0-1.06,0.869-1.934,1.932-1.934h152.578c1.062,0,1.934,0.874,1.934,1.934V332.346z"/>
					</g>
					<linearGradient id="SVGID_18_" gradientUnits="userSpaceOnUse" x1="137.1084" y1="281.1172" x2="293.5522" y2="281.1172">
						<stop  offset="0" style="stop-color:#C6E9FA"/>
						<stop  offset="0.9967" style="stop-color:#A4C2D1"/>
					</linearGradient>
					<path opacity="0.8" fill="url(#SVGID_18_)" d="M293.552,332.346c0,1.063-0.871,1.933-1.934,1.933H139.041
						c-1.063,0-1.932-0.869-1.932-1.933V229.889c0-1.06,0.869-1.934,1.932-1.934h152.578c1.062,0,1.934,0.874,1.934,1.934V332.346z"
						/>
					<path fill="none" stroke="#000000" stroke-linecap="round" stroke-linejoin="round" stroke-miterlimit="10" d="
						M293.552,332.346c0,1.063-0.871,1.933-1.934,1.933H139.041c-1.063,0-1.932-0.869-1.932-1.933V229.889
						c0-1.06,0.869-1.934,1.932-1.934h152.578c1.062,0,1.934,0.874,1.934,1.934V332.346z"/>
					<linearGradient id="SVGID_19_" gradientUnits="userSpaceOnUse" x1="141.8311" y1="281.1172" x2="288.8276" y2="281.1172">
						<stop  offset="0" style="stop-color:#C6E9FA"/>
						<stop  offset="0.9967" style="stop-color:#A4C2D1"/>
					</linearGradient>
					<rect x="141.831" y="231.865" opacity="0.8" fill="url(#SVGID_19_)" width="146.997" height="98.504"/>
					<linearGradient id="SVGID_20_" gradientUnits="userSpaceOnUse" x1="140.3828" y1="281.1172" x2="290.2749" y2="281.1172">
						<stop  offset="0" style="stop-color:#C6E9FA"/>
						<stop  offset="0.9967" style="stop-color:#A4C2D1"/>
					</linearGradient>
					<path opacity="0.8" fill="url(#SVGID_20_)" d="M149.998,231.04c-1.063,0-2.548,0.613-3.301,1.365l-4.946,4.949
						c-0.752,0.752-1.368,2.235-1.368,3.299v88.608c0,1.063,0.87,1.933,1.933,1.933h146.028c1.062,0,1.932-0.869,1.932-1.933v-96.29
						c0-1.062-0.869-1.932-1.932-1.932H149.998z"/>
					<path fill="none" stroke="#000000" stroke-linecap="round" stroke-linejoin="round" stroke-miterlimit="10" d="M149.998,231.04
						c-1.063,0-2.548,0.613-3.301,1.365l-4.946,4.949c-0.752,0.752-1.368,2.235-1.368,3.299v88.608c0,1.063,0.87,1.933,1.933,1.933
						h146.028c1.062,0,1.932-0.869,1.932-1.933v-96.29c0-1.062-0.869-1.932-1.932-1.932H149.998z"/>
					<path fill="#C6E9FA" d="M145.054,327.352v-85.353c0-0.451,0.363-1.329,0.683-1.648l4.784-4.785
						c0.319-0.317,1.197-0.68,1.647-0.68h133.437v92.466H145.054z"/>
					<g>
						
							<circle fill="#FFFFFF" stroke="#000000" stroke-linecap="round" stroke-linejoin="round" stroke-miterlimit="10" cx="165.899" cy="258.859" r="22.264"/>
						<linearGradient id="SVGID_21_" gradientUnits="userSpaceOnUse" x1="144.7407" y1="258.8594" x2="187.0576" y2="258.8594">
							<stop  offset="0" style="stop-color:#C6E9FA"/>
							<stop  offset="0.9967" style="stop-color:#A4C2D1"/>
						</linearGradient>
						<path fill="url(#SVGID_21_)" d="M183.983,269.834c-6.061,9.988-19.073,13.171-29.061,7.108
							c-9.988-6.062-13.171-19.074-7.109-29.061c6.062-9.987,19.073-13.17,29.061-7.107
							C186.863,246.833,190.047,259.846,183.983,269.834z"/>
						<path fill="#C6E9FA" d="M180.335,267.619c-4.972,8.189-15.64,10.801-23.831,5.829c-8.19-4.972-10.801-15.641-5.831-23.831
							c4.971-8.188,15.64-10.8,23.831-5.829C182.695,248.76,185.305,259.429,180.335,267.619z"/>
						<path opacity="0.8" fill="#D94732" d="M173.284,254.905c4.491-0.904-15.116,0.344-19.7,2.242
							c-4.584,1.899-6.589,5.295-4.587,8.273c2.001,2.977,7.287,5.106,11.756,1.803c4.468-3.305,9.617-5.594,14.262-6.297
							c4.645-0.708,5.778-2.45,5.936-3.779c0.159-1.326-4.738,0.736-9.48,2.877c-4.742,2.14-15.732,5.574-16.593,3.273
							C154.015,260.998,156.132,258.352,173.284,254.905z"/>
					</g>
					<g>
						
							<circle fill="#FFFFFF" stroke="#000000" stroke-linecap="round" stroke-linejoin="round" stroke-miterlimit="10" cx="215.183" cy="258.859" r="22.265"/>
						<linearGradient id="SVGID_22_" gradientUnits="userSpaceOnUse" x1="194.0249" y1="258.8594" x2="236.3413" y2="258.8594">
							<stop  offset="0" style="stop-color:#C6E9FA"/>
							<stop  offset="0.9967" style="stop-color:#A4C2D1"/>
						</linearGradient>
						<path fill="url(#SVGID_22_)" d="M233.268,269.834c-6.062,9.988-19.073,13.171-29.061,7.108
							c-9.989-6.062-13.171-19.074-7.108-29.061c6.062-9.987,19.072-13.17,29.061-7.107
							C236.146,246.833,239.331,259.846,233.268,269.834z"/>
						<path fill="#C6E9FA" d="M229.619,267.619c-4.971,8.189-15.641,10.801-23.831,5.829c-8.189-4.972-10.8-15.641-5.831-23.831
							c4.972-8.188,15.641-10.8,23.831-5.829C231.98,248.76,234.589,259.429,229.619,267.619z"/>
					</g>
					<g>
						
							<circle fill="#FFFFFF" stroke="#000000" stroke-linecap="round" stroke-linejoin="round" stroke-miterlimit="10" cx="264.468" cy="258.859" r="22.265"/>
						<linearGradient id="SVGID_23_" gradientUnits="userSpaceOnUse" x1="243.3091" y1="258.8594" x2="285.6255" y2="258.8594">
							<stop  offset="0" style="stop-color:#C6E9FA"/>
							<stop  offset="0.9967" style="stop-color:#A4C2D1"/>
						</linearGradient>
						<path fill="url(#SVGID_23_)" d="M282.552,269.834c-6.061,9.988-19.072,13.171-29.062,7.108
							c-9.987-6.062-13.171-19.074-7.108-29.061c6.062-9.987,19.072-13.17,29.061-7.107
							C285.43,246.833,288.615,259.846,282.552,269.834z"/>
						<path fill="#C6E9FA" d="M278.902,267.619c-4.971,8.189-15.64,10.801-23.83,5.829c-8.189-4.972-10.8-15.641-5.828-23.831
							c4.971-8.188,15.639-10.8,23.83-5.829C281.263,248.76,283.875,259.429,278.902,267.619z"/>
					</g>
					<g>
						<path fill="#FFFFFF" stroke="#000000" stroke-linecap="round" stroke-linejoin="round" stroke-miterlimit="10" d="
							M184.932,316.795c-6.38,10.511-20.073,13.863-30.585,7.479c-10.511-6.376-13.86-20.07-7.48-30.584
							c6.379-10.51,20.073-13.859,30.584-7.48C187.961,292.588,191.312,306.284,184.932,316.795z"/>
						<linearGradient id="SVGID_24_" gradientUnits="userSpaceOnUse" x1="144.7407" y1="305.2432" x2="187.0576" y2="305.2432">
							<stop  offset="0" style="stop-color:#C6E9FA"/>
							<stop  offset="0.9967" style="stop-color:#A4C2D1"/>
						</linearGradient>
						<path fill="url(#SVGID_24_)" d="M183.983,316.218c-6.061,9.991-19.073,13.171-29.061,7.109
							c-9.988-6.062-13.171-19.072-7.109-29.061c6.062-9.986,19.073-13.168,29.061-7.109
							C186.863,293.22,190.047,306.231,183.983,316.218z"/>
						<circle fill="#C6E9FA" cx="165.504" cy="305.004" r="17.348"/>
					</g>
					<g>
						<path fill="#FFFFFF" stroke="#000000" stroke-linecap="round" stroke-linejoin="round" stroke-miterlimit="10" d="
							M234.216,316.795c-6.381,10.511-20.073,13.863-30.585,7.479c-10.512-6.376-13.861-20.07-7.482-30.584
							c6.38-10.51,20.074-13.859,30.585-7.48S240.596,306.284,234.216,316.795z"/>
						<linearGradient id="SVGID_25_" gradientUnits="userSpaceOnUse" x1="194.0249" y1="305.2432" x2="236.3413" y2="305.2432">
							<stop  offset="0" style="stop-color:#C6E9FA"/>
							<stop  offset="0.9967" style="stop-color:#A4C2D1"/>
						</linearGradient>
						<path fill="url(#SVGID_25_)" d="M233.268,316.218c-6.062,9.991-19.073,13.171-29.061,7.109
							c-9.989-6.062-13.171-19.072-7.108-29.061c6.062-9.986,19.072-13.168,29.061-7.109
							C236.146,293.22,239.331,306.231,233.268,316.218z"/>
						<circle fill="#C6E9FA" cx="214.788" cy="305.004" r="17.348"/>
					</g>
					<g>
						<path fill="#FFFFFF" stroke="#000000" stroke-linecap="round" stroke-linejoin="round" stroke-miterlimit="10" d="
							M283.501,316.795c-6.38,10.511-20.074,13.863-30.586,7.479c-10.512-6.376-13.861-20.07-7.481-30.584
							c6.38-10.51,20.073-13.859,30.585-7.48S289.88,306.284,283.501,316.795z"/>
						<linearGradient id="SVGID_26_" gradientUnits="userSpaceOnUse" x1="243.3091" y1="305.2432" x2="285.6255" y2="305.2432">
							<stop  offset="0" style="stop-color:#C6E9FA"/>
							<stop  offset="0.9967" style="stop-color:#A4C2D1"/>
						</linearGradient>
						<path fill="url(#SVGID_26_)" d="M282.552,316.218c-6.061,9.991-19.072,13.171-29.062,7.109
							c-9.987-6.062-13.171-19.072-7.108-29.061c6.062-9.986,19.072-13.168,29.061-7.109
							C285.43,293.22,288.615,306.231,282.552,316.218z"/>
						<circle fill="#C6E9FA" cx="264.073" cy="305.004" r="17.347"/>
					</g>
				</g>
				<g>
					<path fill="#DDDDDD" d="M149.892,262.625c-0.374-1.557,1.029-3.227,3.133-3.735l23.598-5.693
						c2.106-0.505,4.118,0.342,4.491,1.896c0.375,1.557-1.027,3.228-3.133,3.736l-23.598,5.69
						C152.278,265.027,150.268,264.177,149.892,262.625z"/>
					<path fill="#FFFFFF" d="M170.148,257.74c-0.208-0.86,0.567-1.784,1.733-2.067l5.206-1.257c1.162-0.28,2.275,0.192,2.482,1.05
						c0.208,0.859-0.57,1.783-1.732,2.065l-5.205,1.254C171.467,259.068,170.357,258.599,170.148,257.74z"/>
					<path fill="none" stroke="#000000" stroke-linecap="round" stroke-linejoin="round" stroke-miterlimit="10" d="
						M149.892,262.625c-0.374-1.557,1.029-3.227,3.133-3.735l23.598-5.693c2.106-0.505,4.118,0.342,4.491,1.896
						c0.375,1.557-1.027,3.228-3.133,3.736l-23.598,5.69C152.278,265.027,150.268,264.177,149.892,262.625z"/>
				</g>
			</g>
		</g>
		<g>
			<g>
				<g>
					<polygon fill="#FCDCCE" points="50.427,248.545 19.2,288.465 42.879,331.943 52.283,332.283 89.51,269.703 					"/>
					<path fill="#F1C3B3" d="M48.091,332.132l4.192,0.151l37.227-62.58l-39.083-21.158L19.2,288.465l0.794,1.459
						c5.129-6.082,13.496-15.923,16.591-19.119c4.592-4.742,20.8,5.906,27.553,12.062s4.322,14.53-1.081,23.984
						C59.864,312.441,53.093,323.787,48.091,332.132z"/>
					<polygon fill="none" stroke="#000000" stroke-linecap="round" stroke-linejoin="round" stroke-miterlimit="10" points="
						50.427,248.545 19.2,288.465 42.879,331.943 52.283,332.283 89.51,269.703 					"/>
				</g>
				<g>
					<g>
						<path fill="#C4D2D2" d="M119.942,149.829c0,0,10.667,0.752,14.958,5.105c4.29,4.354,16.536,17.486,19.785,21.007
							c3.25,3.519,6.837,22.284,5.664,24.832c-1.175,2.549-6.722,3.82-10.515,1.927c2.04,7.951-1.132,13.023-4.736,13.621
							c-3.603,0.597-8.735-1.412-8.735-1.412s-2.961,4.099-10.599-0.729c-9.882,0.555-14.746-3.589-14.994-3.82
							c-0.248-0.235-24.651-11.487-24.651-11.487l10.701-28.366L119.942,149.829z"/>
						<g>
							<path fill="#B1BFBF" d="M131.682,162.131c0,0-0.108,0.199-0.288,0.532C131.599,162.334,131.682,162.131,131.682,162.131z"/>
							<path fill="#B1BFBF" d="M110.771,210.36c0.249,0.231,5.111,4.375,14.994,3.82c7.638,4.828,10.6,0.729,10.6,0.729
								s2.235,0.875,4.792,1.299c0.001-0.002,0.001-0.002,0.002-0.002c-5.167-4.121-2.189-11.403-2.189-11.403l2.335-17.007
								c0,0,0.461-4.822-0.74-6.716s-3.789-1.747-3.789-1.747s-1.089-2.562-2.577-3.122c-1.487-0.562-2.049-3.864-2.049-3.864
								s-1.201,0.225-1.826-0.148c-0.626-0.374,2.619-6.136,1.953-7.322c-0.666-1.184-3.939,5.988-4.375,5.46
								c-0.365-0.446,2.546-5.925,3.493-7.673c-0.542,0.859-1.951,2.592-5.106,3.906c-4.363,1.818-15.331-5.876-15.331-5.876
								l-4.375,4.923l-11.173,25.327l-0.573,11.058l14.855,7.819C110.351,210.138,110.74,210.328,110.771,210.36z"/>
						</g>
						<path fill="none" stroke="#000000" stroke-linecap="round" stroke-linejoin="round" stroke-miterlimit="10" d="
							M119.942,149.829c0,0,10.667,0.752,14.958,5.105c4.29,4.354,16.536,17.486,19.785,21.007
							c3.25,3.519,6.837,22.284,5.664,24.832c-1.175,2.549-6.722,3.82-10.515,1.927c2.04,7.951-1.132,13.023-4.736,13.621
							c-3.603,0.597-8.735-1.412-8.735-1.412s-2.961,4.099-10.599-0.729c-9.882,0.555-14.746-3.589-14.994-3.82
							c-0.248-0.235-24.651-11.487-24.651-11.487l10.701-28.366L119.942,149.829z"/>
						<path fill="none" stroke="#000000" stroke-linecap="round" stroke-linejoin="round" stroke-miterlimit="10" d="
							M150.654,203.05c0,0-7.952-6.146-9.738-9.275c-1.788-3.132-7.925-11.501-8.941-11.967c-1.015-0.469-2.693-0.163-2.917-1.344
							c-0.226-1.184-1.535-3.016-2.362-3.552c-0.831-0.537-3.711-2.632-3.711-2.632s-18.23-0.686-22.196-2.23"/>
						<path fill="none" stroke="#000000" stroke-linecap="round" stroke-linejoin="round" stroke-miterlimit="10" d="
							M136.364,214.909c0,0-5.705-7.561-8.252-11.043c-2.547-3.479-8.164-11.992-9.373-14.204c-1.209-2.209-5.747-5.378-7.086-6.149
							c-1.334-0.77-4.438-2.047-4.438-2.047l-9.29-3.205"/>
						<path fill="none" stroke="#000000" stroke-linecap="round" stroke-linejoin="round" stroke-miterlimit="10" d="
							M122.985,174.28c0,0,1.801,0.008,3.423-1.948c1.621-1.953,5.302-7.788,5.868-7.456c0.569,0.335-1.386,8.709-4.596,8.855"/>
						<path fill="none" stroke="#000000" stroke-linecap="round" stroke-linejoin="round" stroke-miterlimit="10" d="
							M125.311,175.952c0,0,5.104-1.071,8.035-4.936"/>
						<path fill="none" stroke="#000000" stroke-linecap="round" stroke-linejoin="round" stroke-miterlimit="10" d="
							M131.976,181.808c0,0,3.455,0.062,6.17-4.258"/>
						<path fill="none" stroke="#000000" stroke-linecap="round" stroke-linejoin="round" stroke-miterlimit="10" d="
							M115.333,184.433c0,0,5.651-0.334,6.888-7.123"/>
						<path fill="none" stroke="#000000" stroke-linecap="round" stroke-linejoin="round" stroke-miterlimit="10" d="
							M119.274,179.403c0,0-0.659,4.559-5.573,4.275"/>
					</g>
					<g>
						<path fill="#C4D2D2" d="M62.9,165.503c-2.611,1.643-3.342,3.47-3.342,3.47s-2.634,1.804-3.479,5.406
							c-2.712,3.782-3.227,7.872-3.972,12.462c-0.743,4.59-0.587,17.465-1.195,33.289c-0.606,15.826-6.701,35.212-8.032,38.042
							c0,0-5.072,3.488-1.947,5.502c3.128,2.011,18.527,17.294,42.423,17.388c0,0,25.251-15.566,39.913-35.527
							c14.661-19.959,15.545-26.252,16.352-27.618c0.806-1.365,0.949-2.177,0.949-2.177s1.766-1.805,1.624-2.875
							c-0.138-1.07-0.373-3.635,0.119-4.748c0.49-1.116,1.059-1.881,1.061-2.936c0.001-1.055,1.354-4.405,2.626-6.225
							c1.272-1.82,1.808-5.696,1.808-5.696s2.4-1.62,2.599-2.397c0.2-0.778,0.2-0.778,0.2-0.778s0.971-0.806,1.288-1.883
							c0.317-1.077,3.255-6.346,4.068-7.256c0.812-0.909,4.118-5.341,6.932-9.71c2.813-4.37,3.512-9.198-1.088-12.008
							c0,0,12.855-7.622-2.838-12.013c0,0-5.565-1.374-13.091-1.705c-7.526-0.333-16.384-0.602-20.789,0.802
							c-4.404,1.402-10.997,3.056-10.997,3.056c-0.811-0.107-24.764,9.952-32.285,10.461
							C74.282,160.337,67.618,162.534,62.9,165.503z M105.886,188.652c0,0,4.098-4.751,5.014-5.641
							c0.917-0.891,1.475-1.563,2.372-3.649c0.9-2.083,9.872-7.172,12.928-9.049c3.058-1.877,5.238-3.431,6.669-4.503
							c1.126,0.205,1.308-0.192,2.489-0.765c1.832,0.368,5.408-1.396,5.408-1.396c-6.415,6.293-17.636,25.091-17.636,25.091
							s-2.366,2.987-4.348,5.26c-1.979,2.274-4.884,4.028-6.956,3.8C109.751,197.575,105.886,188.652,105.886,188.652z"/>
						<g>
							<path fill="#B1BFBF" d="M137.019,145.246l-12.391,1.212c0.155-0.05,0.309-0.097,0.458-0.146
								C127.814,145.443,132.25,145.216,137.019,145.246z"/>
						</g>
						<g>
							<path fill="#B1BFBF" d="M92.649,197.365c-5.758-1.574,6.792-0.064,8.46-1.29c1.259-0.928-3.756-4.661-4.357-5.005
								c-2.861-1.646-5.76-3.245-8.695-4.769c-3.044-1.583-8.047-0.668-10.471-3.467c2.821-0.167,5.045-0.36,7.713,0.758
								c1.541,0.648,2.978,1.477,4.559,2.058c1.28,0.472,2.647,1.394,4.055,1.388c2.157-0.008,0.848-3.186,0.013-4.137
								c-2.068-2.362-5.202-3.855-7.807-5.533c-1.24-0.799-2.464-1.508-3.786-2.122c-1.489-0.692-3.358-1.019-4.714-1.994
								c1.918-0.998,4.737,0.955,6.307,1.966c1.974,1.271,3.874,2.65,5.858,3.903c1.483,0.937,3.695,2.73,5.483,2.362
								c1.321-0.273,2.375-1.075,2.469-2.482c0.084-1.244-0.727-3.996-1.72-4.773c2.401,1.879,2.776-0.219,2.776-0.219
								c3.099,3.845,10.903,5.493,13.494-3.883c6.772-1.589,17.185-3.869,20.729-11.47c0.339,0.747,2.254,1.234,3.313-1.273
								c3.147,1.138,22.748-0.957,25.378-3.509c-3.568,3.718-4.098,3.758-4.098,3.758s-8.599-1.59-17.117,6.295
								c0.094-0.094,0.187-0.188,0.277-0.277c0,0-3.577,1.765-5.409,1.398c-1.182,0.57-1.361,0.968-2.489,0.762
								c-1.431,1.072-3.613,2.627-6.669,4.504c-3.055,1.877-12.027,6.966-12.927,9.049c-0.898,2.085-1.455,2.759-2.372,3.65
								c-0.917,0.887-5.015,5.639-5.015,5.639s3.866,8.924,5.939,9.148C111.826,197.8,98.407,198.937,92.649,197.365z"/>
							<path fill="#B1BFBF" d="M134.704,171.045c-0.002,0.001-0.002,0.004-0.003,0.004c-1.682,2.697-3.457,5.247-5.241,7.63
								C131.102,176.179,132.912,173.513,134.704,171.045z"/>
						</g>
						<g>
							<path fill="#B1BFBF" d="M129.874,207.655c-0.1,0.014-0.156,0.021-0.156,0.021S129.775,207.669,129.874,207.655z"/>
							<path fill="#B1BFBF" d="M64.815,277.841l0.195-0.357c0,0,17.464,3.727,16.653-1.912c-4.497-0.544-9.181-1.438-9.183-1.439
								c6.02,1.15,17.948-2.338,21.83-7.215c-3.247-1.209-7.687-0.55-11.249-1.101c-7.781-1.204-18.061,0.413-24.68-4.735
								c2.849-1.15,6.302-0.057,9.382,0.29c2.888,0.326,5.897-0.077,8.739-0.165c3.368-0.103,6.605-0.299,9.936-0.571
								c7.041-0.574,13.91-0.168,19.772-4.84c10.301-8.206,20.081-20.903,24.527-33.326c-0.291,0.411-3.653-1.755-5.962-2.048
								c-2.305-0.292,7.28-2.205,10.384-5.018c3.105-2.81,3.908-6.658,0.733-7.428c-2.75-0.666-5.373-0.402-6.021-0.32
								c1.101-0.153,7.934-1.255,9.761-4.779c1.991-3.839-0.374-5.312,0.563-7.016c0.935-1.703,1.527-1.888,1.408-1.92
								c-0.116-0.032-2.285-1.562-1.458-1.896c0.826-0.332,2.36-1.846,0.601-3.23c2.408,0.378,3.188,0.831,3.34-0.041
								c0.153-0.871-3.87-3.567-3.155-4.914c0.714-1.347,5.837,2.41,6.843,1.325c1.005-1.085,1.501-5.812,2.514-8.575
								c1.015-2.762,4.417-4.906,8.394-9.004c3.978-4.101,4.292-6.503,2.537-8.719c0.304-0.109,0.703-0.117,1.168-0.041
								c-0.357,0.246-0.586,0.382-0.586,0.382c4.599,2.81,3.9,7.639,1.087,12.008c-2.814,4.37-6.12,8.801-6.932,9.711
								c-0.812,0.91-3.75,6.179-4.068,7.256c-0.316,1.078-1.287,1.884-1.287,1.884s0,0-0.201,0.777
								c-0.198,0.777-2.598,2.398-2.598,2.398s-0.536,3.875-1.807,5.696c-1.272,1.818-2.626,5.169-2.626,6.224
								c-0.002,1.053-0.57,1.819-1.062,2.936c-0.491,1.114-0.256,3.678-0.118,4.748c0.141,1.07-1.625,2.874-1.625,2.874
								s-0.144,0.812-0.949,2.178c-0.805,1.367-1.69,7.659-16.351,27.618c-14.662,19.959-39.913,35.527-39.913,35.527
								C76.429,281.033,70.221,279.725,64.815,277.841z"/>
						</g>
						<path fill="none" stroke="#000000" stroke-linecap="round" stroke-linejoin="round" stroke-miterlimit="10" d="M62.9,165.503
							c-2.611,1.643-3.342,3.47-3.342,3.47s-2.634,1.804-3.479,5.406c-2.712,3.782-3.227,7.872-3.972,12.462
							c-0.743,4.59-0.587,17.465-1.195,33.289c-0.606,15.826-6.701,35.212-8.032,38.042c0,0-5.072,3.488-1.947,5.502
							c3.128,2.011,18.527,17.294,42.423,17.388c0,0,25.251-15.566,39.913-35.527c14.661-19.959,15.545-26.252,16.352-27.618
							c0.806-1.365,0.949-2.177,0.949-2.177s1.766-1.805,1.624-2.875c-0.138-1.07-0.373-3.635,0.119-4.748
							c0.49-1.116,1.059-1.881,1.061-2.936c0.001-1.055,1.354-4.405,2.626-6.225c1.272-1.82,1.808-5.696,1.808-5.696
							s2.4-1.62,2.599-2.397c0.2-0.778,0.2-0.778,0.2-0.778s0.971-0.806,1.288-1.883c0.317-1.077,3.255-6.346,4.068-7.256
							c0.812-0.909,4.118-5.341,6.932-9.71c2.813-4.37,3.512-9.198-1.088-12.008c0,0,12.855-7.622-2.838-12.013
							c0,0-5.565-1.374-13.091-1.705c-7.526-0.333-16.384-0.602-20.789,0.802c-4.404,1.402-10.997,3.056-10.997,3.056
							c-0.811-0.107-24.764,9.952-32.285,10.461C74.282,160.337,67.618,162.534,62.9,165.503z M105.886,188.652
							c0,0,4.098-4.751,5.014-5.641c0.917-0.891,1.475-1.563,2.372-3.649c0.9-2.083,9.872-7.172,12.928-9.049
							c3.058-1.877,5.238-3.431,6.669-4.503c1.126,0.205,1.308-0.192,2.489-0.765c1.832,0.368,5.408-1.396,5.408-1.396
							c-6.415,6.293-17.636,25.091-17.636,25.091s-2.366,2.987-4.348,5.26c-1.979,2.274-4.884,4.028-6.956,3.8
							C109.751,197.575,105.886,188.652,105.886,188.652z"/>
						<path fill="none" stroke="#000000" stroke-linecap="round" stroke-linejoin="round" stroke-miterlimit="10" d="
							M140.766,163.648c0,0,11.01-10.882,21.04-4.421"/>
						<path fill="none" stroke="#000000" stroke-linecap="round" stroke-linejoin="round" stroke-miterlimit="10" d="
							M105.886,188.652c0,0-10.628-14.608-13.272-20.374"/>
						<path fill="none" stroke="#000000" stroke-linecap="round" stroke-linejoin="round" stroke-miterlimit="10" d="
							M102.182,153.873"/>
						<path fill="none" stroke="#000000" stroke-linecap="round" stroke-linejoin="round" stroke-miterlimit="10" d="
							M102.667,184.132c0,0-3.771-10.333-5.379-13.583"/>
						<path fill="none" stroke="#000000" stroke-linecap="round" stroke-linejoin="round" stroke-miterlimit="10" d="
							M113.424,179.094c0,0-0.712-10.224-2.544-13.694"/>
						<path fill="none" stroke="#000000" stroke-linecap="round" stroke-linejoin="round" stroke-miterlimit="10" d="
							M132.868,165.811c-0.006-0.45,1.66-5.218-0.42-9.219"/>
						<path fill="none" stroke="#000000" stroke-linecap="round" stroke-linejoin="round" stroke-miterlimit="10" d="
							M135.357,165.046c0,0,3.488-9.437-2.337-14.74"/>
						<path fill="none" stroke="#000000" stroke-linecap="round" stroke-linejoin="round" stroke-miterlimit="10" d="
							M129.901,142.998"/>
						<path fill="none" stroke="#000000" stroke-linecap="round" stroke-linejoin="round" stroke-miterlimit="10" d="
							M111.405,197.658c-0.154-0.103-11.379-5.265-15.048-7.554c-3.671-2.289-6.693-3.647-8.468-5.452"/>
						<path fill="none" stroke="#000000" stroke-linecap="round" stroke-linejoin="round" stroke-miterlimit="10" d="
							M109.385,195.356c0,0-8.018-7.095-11.698-10.055c-3.682-2.958-10.914-8.957-10.914-8.957"/>
						<path fill="none" stroke="#000000" stroke-linecap="round" stroke-linejoin="round" stroke-miterlimit="10" d="
							M150.605,190.084c0,0-3.925-2.984-5.83-4.411c-1.905-1.425-4.279-2.834-3.84-1.814c0.438,1.018,4.316,4.112,5.091,4.613"/>
						<path fill="none" stroke="#000000" stroke-linecap="round" stroke-linejoin="round" stroke-miterlimit="10" d="
							M134.355,184.34c0,0,8.416,6.833,13.451,8.92"/>
						<path fill="none" stroke="#000000" stroke-linecap="round" stroke-linejoin="round" stroke-miterlimit="10" d="
							M146.43,195.397c0,0-10.421-3.427-10.401-2.221"/>
						<path fill="none" stroke="#000000" stroke-linecap="round" stroke-linejoin="round" stroke-miterlimit="10" d="
							M152.096,183.524c0,0-1.204-7.713-5.008-10.924"/>
						<path fill="none" stroke="#000000" stroke-linecap="round" stroke-linejoin="round" stroke-miterlimit="10" d="
							M140.569,215.739c0,0-6.506,1.68-7.925,2.238"/>
						<path fill="none" stroke="#000000" stroke-linecap="round" stroke-linejoin="round" stroke-miterlimit="10" d="
							M141.043,207.294c0,0-8.972-1.14-14.412,1.395"/>
						<path fill="none" stroke="#000000" stroke-linecap="round" stroke-linejoin="round" stroke-miterlimit="10" d="
							M42.879,258.171c0,0,20.975,13.469,35.69,12.808"/>
						<path fill="none" stroke="#000000" stroke-linecap="round" stroke-linejoin="round" stroke-miterlimit="10" d="
							M44.912,252.282c0,0,3.519,12.682,28.111,11.119"/>
						<path fill="none" stroke="#000000" stroke-linecap="round" stroke-linejoin="round" stroke-miterlimit="10" d="M92.31,274.939
							c0,0-6.672,0.681-10.646,0.632c-3.973-0.055-16.535-3.075-16.535-3.075"/>
					</g>
					<g>
						<g>
							<g>
								<path fill="#666666" d="M229.528,190.519c0,0-12.239,5.749-14.41,6.617c-2.176,0.867-3.72,1.316-7.671-1.579
									c-3.95-2.896-12.101-7.926-20.691-11.339c-8.594-3.41-36.215-13.833-45.033-16.555
									c-8.819-2.724-47.244-12.065-54.388-13.387c-7.146-1.321-28.006-6.542-33.714-8.059c-5.712-1.518-22.292-7.073-27.415-7.996
									c-5.122-0.927-9.743-1.75-16.507,2.56c5.58,8.991,14.987,8.994,17.984,9.698c3.001,0.706,32.186,6.333,37.625,7.706
									c5.439,1.373,30.469,8.66,38.184,10.882c7.715,2.221,49.074,11.914,59.44,14.231c10.37,2.318,24.797,5.629,33.322,9.896
									c8.526,4.263,14.323,8.684,17.021,7.538C215.795,199.664,229.528,190.519,229.528,190.519z"/>
								<path fill="none" stroke="#000000" stroke-linecap="round" stroke-linejoin="round" stroke-miterlimit="10" d="
									M229.528,190.519c0,0-12.239,5.749-14.41,6.617c-2.176,0.867-3.72,1.316-7.671-1.579
									c-3.95-2.896-12.101-7.926-20.691-11.339c-8.594-3.41-36.215-13.833-45.033-16.555
									c-8.819-2.724-47.244-12.065-54.388-13.387c-7.146-1.321-28.006-6.542-33.714-8.059c-5.712-1.518-22.292-7.073-27.415-7.996
									c-5.122-0.927-9.743-1.75-16.507,2.56c5.58,8.991,14.987,8.994,17.984,9.698c3.001,0.706,32.186,6.333,37.625,7.706
									c5.439,1.373,30.469,8.66,38.184,10.882c7.715,2.221,49.074,11.914,59.44,14.231c10.37,2.318,24.797,5.629,33.322,9.896
									c8.526,4.263,14.323,8.684,17.021,7.538C215.795,199.664,229.528,190.519,229.528,190.519z"/>
								
									<line fill="none" stroke="#000000" stroke-linecap="round" stroke-linejoin="round" stroke-miterlimit="10" x1="65.151" y1="158.148" x2="67.548" y2="149.737"/>
							</g>
							
								<circle fill="#212121" stroke="#000000" stroke-linecap="round" stroke-linejoin="round" stroke-miterlimit="10" cx="155.528" cy="181.731" r="0.746"/>
						</g>
						<g>
							<path fill="#FFFFFF" d="M224.943,180.946c-1.409,0.298-2.221,2.083-1.821,3.986l4.498,21.359
								c0.404,1.906,1.867,3.209,3.273,2.913c1.41-0.298,2.225-2.079,1.824-3.987l-4.499-21.357
								C227.816,181.954,226.352,180.651,224.943,180.946z"/>
							<path id="changecolor_1_" fill="#CEEEFB" d="M230.262,194.905c-0.609-2.85-2.124-4.939-3.381-4.668
								c-1.256,0.271-1.778,2.795-1.169,5.643c0.612,2.85,2.127,4.941,3.382,4.668C230.352,200.279,230.874,197.755,230.262,194.905
								z M232.428,205.091c-0.432-2.012-1.799-3.424-3.055-3.152s-1.925,2.117-1.494,4.129s1.799,3.422,3.057,3.152
								C232.192,208.948,232.86,207.103,232.428,205.091z M226.617,188.532c1.257-0.27,1.923-2.117,1.493-4.128
								c-0.432-2.011-1.8-3.423-3.057-3.153c-1.256,0.273-1.922,2.118-1.492,4.131C223.993,187.392,225.36,188.804,226.617,188.532z
								"/>
							<path fill="none" stroke="#000000" stroke-linecap="round" stroke-linejoin="round" stroke-miterlimit="10" d="
								M224.943,180.946c-1.409,0.298-2.221,2.083-1.821,3.986l4.498,21.359c0.404,1.906,1.867,3.209,3.273,2.913
								c1.41-0.298,2.225-2.079,1.824-3.987l-4.499-21.357C227.816,181.954,226.352,180.651,224.943,180.946z"/>
						</g>
						<g>
							<g>
								<path fill="#9F9F9F" d="M228.79,193.517c0,0-12.316,5.575-14.502,6.416c-2.186,0.838-3.733,1.265-7.644-1.686
									c-3.91-2.952-11.993-8.092-20.535-11.623c-8.543-3.53-36.019-14.335-44.797-17.181c-8.78-2.845-47.071-12.716-54.198-14.14
									c-7.129-1.416-27.913-6.926-33.601-8.524c-5.69-1.597-22.191-7.38-27.298-8.378c-5.109-0.994-9.72-1.882-16.542,2.333
									c5.454,9.069,14.86,9.2,17.848,9.95c2.992,0.743,32.095,6.778,37.514,8.225c5.422,1.447,30.346,9.081,38.03,11.41
									c7.683,2.326,48.901,12.593,59.238,15.053c10.334,2.463,24.715,5.975,33.18,10.356c8.466,4.384,14.198,8.882,16.916,7.772
									C214.932,202.468,228.79,193.517,228.79,193.517z"/>
								<g>
									
										<linearGradient id="SVGID_27_" gradientUnits="userSpaceOnUse" x1="-40.6064" y1="7143.918" x2="-78.7607" y2="7184.0542" gradientTransform="matrix(-0.4838 -0.8752 0.8752 -0.4838 -6233.3511 3571.2119)">
										<stop  offset="0" style="stop-color:#FFFFFF"/>
										<stop  offset="1" style="stop-color:#FFFFFF;stop-opacity:0"/>
									</linearGradient>
									<path fill="url(#SVGID_27_)" d="M67.39,150.493l-2.512,8.376c0.049,0.015,0.111,0.029,0.157,0.04
										c5.422,1.447,30.346,9.081,38.03,11.41c7.683,2.326,48.901,12.593,59.238,15.053c10.334,2.463,24.715,5.975,33.18,10.356
										c8.466,4.384,14.198,8.882,16.916,7.772c2.534-1.033,16.391-9.984,16.391-9.984s-12.316,5.575-14.502,6.416
										c-2.186,0.838-3.733,1.265-7.644-1.686c-3.91-2.952-11.993-8.092-20.535-11.623c-8.543-3.53-36.019-14.335-44.797-17.181
										c-8.78-2.845-47.071-12.716-54.198-14.14C81.549,154.2,67.39,150.493,67.39,150.493z"/>
								</g>
								<path fill="none" stroke="#000000" stroke-linecap="round" stroke-linejoin="round" stroke-miterlimit="10" d="
									M228.79,193.517c0,0-12.316,5.575-14.502,6.416c-2.186,0.838-3.733,1.265-7.644-1.686
									c-3.91-2.952-11.993-8.092-20.535-11.623c-8.543-3.53-36.019-14.335-44.797-17.181c-8.78-2.845-47.071-12.716-54.198-14.14
									c-7.129-1.416-27.913-6.926-33.601-8.524c-5.69-1.597-22.191-7.38-27.298-8.378c-5.109-0.994-9.72-1.882-16.542,2.333
									c5.454,9.069,14.86,9.2,17.848,9.95c2.992,0.743,32.095,6.778,37.514,8.225c5.422,1.447,30.346,9.081,38.03,11.41
									c7.683,2.326,48.901,12.593,59.238,15.053c10.334,2.463,24.715,5.975,33.18,10.356c8.466,4.384,14.198,8.882,16.916,7.772
									C214.932,202.468,228.79,193.517,228.79,193.517z"/>
								<g>
									<g>
										<path fill="#6D6D6D" d="M93.344,158.196c0.079,0.145,0.103,0.318,0.05,0.486l-1.913,6.229
											c-0.101,0.328-0.448,0.512-0.776,0.413c-0.329-0.104-0.513-0.451-0.413-0.779l1.913-6.23
											c0.102-0.327,0.45-0.512,0.778-0.411C93.143,157.952,93.268,158.061,93.344,158.196z"/>
									</g>
									<g>
										<path fill="#6D6D6D" d="M96.272,158.997c0.078,0.144,0.103,0.314,0.05,0.482l-1.912,6.231
											c-0.102,0.327-0.45,0.512-0.777,0.41c-0.329-0.101-0.513-0.448-0.414-0.777l1.913-6.229
											c0.102-0.328,0.45-0.513,0.778-0.413C96.07,158.752,96.197,158.861,96.272,158.997z"/>
									</g>
									<g>
										<path fill="#6D6D6D" d="M99.2,159.795c0.08,0.142,0.104,0.316,0.052,0.484l-1.915,6.229
											c-0.1,0.328-0.448,0.513-0.778,0.414c-0.328-0.102-0.513-0.451-0.41-0.78l1.911-6.23c0.103-0.327,0.448-0.512,0.778-0.409
											C99,159.55,99.126,159.658,99.2,159.795z"/>
									</g>
									<g>
										<path fill="#6D6D6D" d="M102.13,160.595c0.078,0.142,0.1,0.315,0.05,0.483l-1.913,6.229
											c-0.101,0.328-0.448,0.514-0.779,0.413c-0.325-0.101-0.511-0.449-0.412-0.776l1.915-6.23
											c0.101-0.331,0.45-0.514,0.776-0.414C101.927,160.353,102.053,160.458,102.13,160.595z"/>
									</g>
									<g>
										<path fill="#6D6D6D" d="M105.058,161.393c0.079,0.142,0.1,0.315,0.051,0.483l-1.914,6.23
											c-0.101,0.328-0.45,0.514-0.78,0.415c-0.326-0.104-0.512-0.451-0.41-0.78l1.912-6.229
											c0.102-0.329,0.449-0.511,0.779-0.412C104.856,161.149,104.981,161.256,105.058,161.393z"/>
									</g>
									<g>
										<path fill="#6D6D6D" d="M107.985,162.192c0.079,0.143,0.102,0.314,0.049,0.486l-1.912,6.229
											c-0.1,0.328-0.448,0.512-0.778,0.413c-0.326-0.103-0.512-0.451-0.411-0.781l1.913-6.228
											c0.103-0.329,0.448-0.513,0.777-0.412C107.785,161.948,107.911,162.056,107.985,162.192z"/>
									</g>
									<g>
										<path fill="#6D6D6D" d="M110.914,162.991c0.079,0.143,0.103,0.317,0.051,0.484l-1.914,6.23
											c-0.101,0.328-0.448,0.51-0.777,0.412c-0.329-0.101-0.511-0.452-0.412-0.778l1.913-6.23
											c0.102-0.325,0.45-0.513,0.778-0.412C110.711,162.748,110.838,162.855,110.914,162.991z"/>
									</g>
									<g>
										<path fill="#6D6D6D" d="M113.84,163.79c0.081,0.144,0.104,0.316,0.051,0.485l-1.912,6.23
											c-0.101,0.327-0.448,0.512-0.776,0.411c-0.328-0.1-0.513-0.451-0.413-0.777l1.913-6.231
											c0.101-0.327,0.448-0.512,0.778-0.413C113.64,163.545,113.767,163.655,113.84,163.79z"/>
									</g>
									<g>
										<path fill="#6D6D6D" d="M116.768,164.588c0.08,0.146,0.104,0.317,0.052,0.485l-1.912,6.231
											c-0.101,0.327-0.447,0.512-0.778,0.41c-0.328-0.099-0.513-0.446-0.414-0.778l1.916-6.229
											c0.102-0.328,0.447-0.514,0.775-0.412C116.57,164.344,116.693,164.454,116.768,164.588z"/>
									</g>
									<g>
										<path fill="#6D6D6D" d="M119.697,165.39c0.081,0.143,0.103,0.316,0.051,0.48l-1.911,6.232
											c-0.103,0.328-0.449,0.514-0.778,0.411c-0.328-0.1-0.515-0.448-0.413-0.777l1.913-6.229
											c0.101-0.329,0.447-0.513,0.776-0.413C119.496,165.146,119.622,165.252,119.697,165.39z"/>
									</g>
									<g>
										<path fill="#6D6D6D" d="M122.626,166.188c0.079,0.143,0.101,0.315,0.049,0.483l-1.911,6.229
											c-0.103,0.33-0.449,0.514-0.779,0.413c-0.327-0.102-0.512-0.446-0.411-0.778l1.911-6.229
											c0.102-0.329,0.449-0.513,0.781-0.412C122.426,165.942,122.55,166.052,122.626,166.188z"/>
									</g>
									<g>
										<path fill="#6D6D6D" d="M125.555,166.986c0.079,0.142,0.103,0.316,0.051,0.483l-1.914,6.232
											c-0.101,0.328-0.448,0.51-0.777,0.411c-0.329-0.1-0.512-0.45-0.41-0.776l1.912-6.232c0.101-0.329,0.448-0.513,0.78-0.411
											C125.354,166.741,125.479,166.851,125.555,166.986z"/>
									</g>
									<g>
										<path fill="#6D6D6D" d="M128.482,167.784c0.079,0.145,0.101,0.32,0.049,0.486l-1.91,6.229
											c-0.101,0.329-0.448,0.515-0.778,0.412c-0.327-0.102-0.511-0.446-0.411-0.777l1.913-6.231
											c0.1-0.327,0.448-0.51,0.775-0.409C128.281,167.54,128.406,167.649,128.482,167.784z"/>
									</g>
									<g>
										<path fill="#6D6D6D" d="M131.411,168.585c0.079,0.143,0.102,0.316,0.05,0.484l-1.912,6.23
											c-0.102,0.326-0.451,0.511-0.778,0.41c-0.328-0.102-0.512-0.447-0.411-0.775l1.913-6.232
											c0.101-0.327,0.449-0.512,0.778-0.412C131.209,168.34,131.336,168.448,131.411,168.585z"/>
									</g>
									<g>
										<path fill="#6D6D6D" d="M134.341,169.386c0.078,0.141,0.101,0.314,0.048,0.481l-1.913,6.232
											c-0.101,0.324-0.447,0.512-0.776,0.409c-0.33-0.098-0.513-0.451-0.412-0.777l1.913-6.229
											c0.1-0.329,0.45-0.513,0.777-0.412C134.137,169.14,134.264,169.247,134.341,169.386z"/>
									</g>
									<g>
										<path fill="#6D6D6D" d="M137.268,170.183c0.078,0.142,0.101,0.316,0.05,0.483l-1.914,6.23
											c-0.099,0.327-0.447,0.513-0.777,0.411c-0.329-0.1-0.512-0.451-0.413-0.775l1.916-6.23c0.1-0.33,0.446-0.512,0.776-0.414
											C137.067,169.939,137.193,170.045,137.268,170.183z"/>
									</g>
									<g>
										<path fill="#6D6D6D" d="M140.196,170.982c0.079,0.142,0.102,0.315,0.049,0.485l-1.912,6.23
											c-0.1,0.325-0.45,0.51-0.777,0.411c-0.328-0.102-0.512-0.452-0.413-0.777l1.914-6.231c0.1-0.327,0.449-0.514,0.776-0.41
											C139.994,170.736,140.122,170.846,140.196,170.982z"/>
									</g>
									<g>
										<path fill="#6D6D6D" d="M143.125,171.781c0.078,0.142,0.101,0.315,0.051,0.482l-1.914,6.232
											c-0.1,0.327-0.448,0.513-0.776,0.411c-0.329-0.103-0.512-0.452-0.412-0.777l1.914-6.229
											c0.101-0.331,0.448-0.515,0.776-0.414C142.923,171.539,143.048,171.646,143.125,171.781z"/>
									</g>
									<g>
										<path fill="#6D6D6D" d="M146.053,172.581c0.078,0.143,0.1,0.315,0.049,0.484l-1.913,6.231
											c-0.1,0.325-0.449,0.511-0.777,0.408c-0.33-0.099-0.512-0.448-0.411-0.777l1.911-6.228
											c0.101-0.328,0.448-0.514,0.778-0.414C145.85,172.338,145.978,172.443,146.053,172.581z"/>
									</g>
									<g>
										<path fill="#6D6D6D" d="M148.98,173.38c0.079,0.145,0.102,0.315,0.049,0.483l-1.911,6.23
											c-0.101,0.328-0.449,0.512-0.777,0.412c-0.328-0.104-0.513-0.452-0.413-0.777l1.912-6.23
											c0.104-0.33,0.45-0.514,0.778-0.413C148.78,173.132,148.906,173.243,148.98,173.38z"/>
									</g>
									<g>
										<path fill="#6D6D6D" d="M151.908,174.179c0.078,0.143,0.102,0.314,0.05,0.484l-1.912,6.229
											c-0.101,0.33-0.449,0.512-0.779,0.414c-0.324-0.103-0.51-0.45-0.411-0.779l1.911-6.229
											c0.101-0.329,0.45-0.515,0.776-0.412C151.708,173.933,151.833,174.042,151.908,174.179z"/>
									</g>
								</g>
								
									<line fill="none" stroke="#000000" stroke-linecap="round" stroke-linejoin="round" stroke-miterlimit="10" x1="64.877" y1="158.869" x2="67.39" y2="150.493"/>
							</g>
							
								<circle fill="#212121" stroke="#000000" stroke-linecap="round" stroke-linejoin="round" stroke-miterlimit="10" cx="156.16" cy="179.412" r="0.747"/>
							
								<line fill="none" stroke="#000000" stroke-linecap="round" stroke-linejoin="round" stroke-miterlimit="10" x1="188.494" y1="192.721" x2="190.223" y2="188.46"/>
							
								<line fill="none" stroke="#000000" stroke-linecap="round" stroke-linejoin="round" stroke-miterlimit="10" x1="192.496" y1="194.318" x2="194.026" y2="190.373"/>
						</g>
					</g>
					<g>
						<path fill="#C4D2D2" d="M89.291,274.493l3.785-13.236l-12.209-5.792l2.843-33.187l5.886-15.696l18.439-2.116
							c0,0,1.097-2.681,4.395-6.656c5.637-0.957,9.808-7.957,13.03-12.872c3.221-4.915,13.594-19.718,13.594-19.718
							c14.335-11.804,22.751-5.992,22.751-5.992c4.6,2.81,3.901,7.638,1.088,12.008c-2.814,4.369-6.12,8.801-6.932,9.71
							c-0.812,0.91-3.75,6.179-4.068,7.256c-0.316,1.077-1.288,1.883-1.288,1.883s0,0-0.2,0.778
							c-0.198,0.777-2.599,2.397-2.599,2.397s-0.536,3.876-1.808,5.696c-1.272,1.819-2.625,5.17-2.626,6.225
							c-0.002,1.055-0.571,1.819-1.061,2.936c-0.492,1.113-0.257,3.678-0.119,4.748c0.142,1.07-1.624,2.875-1.624,2.875
							s-0.144,0.812-0.949,2.177c-0.806,1.366-1.69,7.659-16.352,27.618c-14.662,19.961-39.913,35.527-39.913,35.527"/>
						<path fill="#B1BFBF" d="M134.704,171.045c-0.002,0.001-0.002,0.004-0.003,0.004c-1.682,2.697-3.457,5.247-5.241,7.63
							C131.102,176.179,132.912,173.513,134.704,171.045z"/>
						<path fill="#B1BFBF" d="M129.874,207.655c-0.1,0.014-0.156,0.021-0.156,0.021S129.775,207.669,129.874,207.655z"/>
						<path fill="#B1BFBF" d="M86.44,260.635c7.041-0.574,13.91-0.168,19.772-4.84c10.301-8.206,20.081-20.903,24.527-33.325
							c-0.291,0.41-3.653-1.756-5.961-2.049c-2.305-0.292,7.28-2.205,10.384-5.018c3.105-2.81,3.908-6.658,0.733-7.428
							c-2.75-0.666-5.373-0.402-6.021-0.32c1.101-0.153,7.934-1.255,9.761-4.779c1.991-3.839-0.374-5.312,0.563-7.016
							c0.935-1.703,1.527-1.888,1.408-1.92c-0.116-0.032-2.285-1.562-1.458-1.896c0.826-0.332,2.36-1.846,0.601-3.23
							c2.408,0.378,3.188,0.831,3.34-0.041c0.152-0.871-3.87-3.567-3.155-4.914c0.714-1.347,5.837,2.41,6.843,1.325
							c1.005-1.085,1.501-5.812,2.514-8.575c1.015-2.762,4.417-4.906,8.394-9.004c3.978-4.101,4.292-6.503,2.537-8.719
							c0.304-0.109,0.703-0.117,1.168-0.041c-0.357,0.246-0.586,0.382-0.586,0.382c4.599,2.81,3.9,7.639,1.087,12.008
							c-2.814,4.37-6.12,8.801-6.932,9.711c-0.812,0.91-3.75,6.179-4.068,7.256c-0.316,1.078-1.287,1.884-1.287,1.884
							s0,0-0.201,0.777c-0.198,0.777-2.598,2.398-2.598,2.398s-0.536,3.875-1.807,5.696c-1.272,1.818-2.626,5.169-2.626,6.224
							c-0.002,1.053-0.57,1.819-1.062,2.936c-0.491,1.114-0.257,3.678-0.118,4.748c0.141,1.07-1.625,2.874-1.625,2.874
							s-0.144,0.812-0.949,2.178c-0.805,1.367-1.69,7.659-16.351,27.618c-14.662,19.959-39.913,35.527-39.913,35.527"/>
						<path fill="none" stroke="#000000" stroke-linecap="round" stroke-linejoin="round" stroke-miterlimit="10" d="
							M83.356,281.062c0,0,25.251-15.566,39.913-35.527c14.661-19.959,15.545-26.252,16.352-27.618
							c0.806-1.365,0.949-2.177,0.949-2.177s1.766-1.805,1.624-2.875c-0.138-1.07-0.373-3.635,0.119-4.748
							c0.49-1.116,1.059-1.881,1.061-2.936c0.001-1.055,1.354-4.405,2.626-6.225c1.272-1.82,1.808-5.696,1.808-5.696
							s2.4-1.62,2.599-2.397c0.2-0.778,0.2-0.778,0.2-0.778s0.971-0.806,1.288-1.883c0.317-1.077,3.255-6.346,4.068-7.256
							c0.812-0.909,4.118-5.341,6.932-9.71c2.813-4.37,3.512-9.198-1.088-12.008c0,0-7.485-5.646-21.04,4.421"/>
						<g>
							<path fill="#C4D2D2" d="M40.656,261.575c0,0-3.68-0.247-3.271,3.012c0,0,21.675,24.911,38.236,28.466
								c0,0,3.748-1.605,4.157-5.841c0,0,4.059-1.925,4.468-6.832C84.245,280.38,65.737,278.614,40.656,261.575z"/>
							<g>
								<path fill="none" stroke="#000000" stroke-linecap="round" stroke-linejoin="round" stroke-miterlimit="10" d="
									M40.656,261.575c0,0-3.68-0.247-3.271,3.012c0,0,21.675,24.911,38.236,28.466c0,0,3.748-1.605,4.157-5.841
									c0,0,4.059-1.925,4.468-6.832C84.245,280.38,65.737,278.614,40.656,261.575z"/>
								<path fill="none" stroke="#000000" stroke-linecap="round" stroke-linejoin="round" stroke-miterlimit="10" d="
									M39.916,263.534c0,0,17.43,17.636,39.862,23.678"/>
							</g>
						</g>
						<path fill="none" stroke="#000000" stroke-linecap="round" stroke-linejoin="round" stroke-miterlimit="10" d="M111.825,197.8
							c2.072,0.229,4.977-1.525,6.956-3.8c1.982-2.272,4.348-5.26,4.348-5.26s11.221-18.798,17.636-25.091"/>
						<path fill="none" stroke="#000000" stroke-linecap="round" stroke-linejoin="round" stroke-miterlimit="10" d="
							M150.605,190.084c0,0-3.925-2.984-5.83-4.411c-1.905-1.425-4.279-2.834-3.84-1.814c0.438,1.018,4.316,4.112,5.091,4.613"/>
						<path fill="none" stroke="#000000" stroke-linecap="round" stroke-linejoin="round" stroke-miterlimit="10" d="
							M134.355,184.34c0,0,8.416,6.833,13.451,8.92"/>
						<path fill="none" stroke="#000000" stroke-linecap="round" stroke-linejoin="round" stroke-miterlimit="10" d="
							M146.43,195.397c0,0-10.421-3.427-10.401-2.221"/>
						<path fill="none" stroke="#000000" stroke-linecap="round" stroke-linejoin="round" stroke-miterlimit="10" d="
							M152.096,183.524c0,0-1.204-7.713-5.008-10.924"/>
						<path fill="none" stroke="#000000" stroke-linecap="round" stroke-linejoin="round" stroke-miterlimit="10" d="
							M140.569,215.739c0,0-6.506,1.68-7.925,2.238"/>
						<path fill="none" stroke="#000000" stroke-linecap="round" stroke-linejoin="round" stroke-miterlimit="10" d="
							M141.043,207.294c0,0-8.972-1.14-14.412,1.395"/>
					</g>
				</g>
			</g>
		</g>
		<g>
			<g>
				<g>
					<g id="XMLID_45_">
						<g>
							<path id="changecolor" fill="#CEEEFB" d="M259.871,146.422l3.447-3.744l0.639,0.554l0.596-0.686l0.475,0.41l-37.393,39.887
								c-0.378,0.435-1.027,0.492-1.439,0.129c-0.418-0.362-0.449-1.015-0.065-1.446l34.465-42.439l0.471,0.408l-0.602,0.693
								l0.623,0.546l-3.248,3.916L259.871,146.422z"/>
							<polygon fill="#BBBBBB" points="300.773,104.464 265.577,142.357 265.091,141.933 261.601,138.886 261.116,138.46 
								293.908,98.467 							"/>
							<polygon fill="#BBBBBB" points="309.566,104.786 300.773,104.464 293.908,98.467 292.4,89.799 							"/>
							<polygon fill="#BBBBBB" points="316.436,96.922 309.566,104.786 292.4,89.799 299.269,81.934 312.457,93.447 							"/>
							<polygon fill="#CCCCCC" points="314.054,94.843 312.457,93.447 299.269,81.934 292.4,89.799 307.185,102.706 							"/>
							<path fill="#FFFFFF" d="M403.241-15.746l-9.942,11.383l-0.018,0.017c-0.439-0.402-0.894-0.814-1.373-1.229
								c-1.285-1.124-2.503-2.115-3.641-2.976l10.041-11.5L403.241-15.746z"/>
							<path fill="#D0D2D3" d="M404.105-14.991l-9.98,11.433c-0.268-0.262-0.549-0.524-0.844-0.79l0.018-0.015l9.943-11.384
								L404.105-14.991z"/>
							<polygon fill="#0091C7" points="398.898,7.538 397.816,8.777 391.167,16.394 386.621,12.423 394.351,3.567 							"/>
							<polygon fill="#00ADEE" points="404.956,8.858 402.991,11.11 398.898,7.538 394.351,3.567 396.315,1.317 							"/>
							<path fill="#00ADEE" d="M408.733-16.851l-2.919,3.35l-1.708-1.49l-0.864-0.756l-4.934-4.304l-1.707-1.491l4.162-4.768
								l6.1,5.317l0.016,0.017c0.49,0.535,0.945,0.967,1.273,1.305C408.152-19.671,408.364-18.513,408.733-16.851z"/>
							<polygon fill="#A6A8AB" points="341.953,51.659 325.56,70.438 322.021,67.345 338.412,48.567 							"/>
							<polygon fill="#FFFFFF" points="325.559,70.437 341.21,52.505 338.375,50.077 322.722,68.008 							"/>
							<path fill="#D0D2D3" d="M392.754,17.781l-24.429,27.986l-0.023,0.024l-16.188,18.553l-5.878,6.729l-25.689,29.432
								l-4.11-3.583l-3.979-3.477l83.291-95.416c0.648,0.663,1.244,1.295,1.782,1.892l-1.214,1.396l-1.965,2.251l-7.73,8.854
								l4.547,3.972L392.754,17.781z"/>
							<path fill="#E6E7E8" d="M379.07-14.099c1.375,0.557,4.656,2.088,9.197,5.549c1.139,0.86,2.355,1.851,3.641,2.975
								c0.479,0.414,0.934,0.826,1.373,1.229c0.295,0.264,0.576,0.527,0.844,0.789c0.576,0.548,1.118,1.073,1.621,1.588
								l-83.289,95.418l-13.188-11.515l-2.828-2.465l32.955-36.602l5.076-5.64c1.241,0.133,2.889,0.233,4.987,0.199
								c5.648-0.087,9.13-6.978,9.13-6.978c4.707,3.495,8.572,2.831,11.918-1.058c3.344-3.891,0.547-7.819,0.547-7.819
								c3.279,1.144,8.949-0.382,11.123-5.005c1.941-4.127-2.393-9.296-3.354-10.365c-0.017-0.018-0.025-0.035-0.041-0.052
								c-0.029-0.039-0.059-0.077-0.09-0.124c1.472,0.85,5.591-0.336,7.254-2.7c1.683-2.396,4.468-9.724-2.141-17.13
								c-0.74-0.732-1.494-1.377-2.25-1.945c-4.107-3.061-8.467-3.837-12.227-3.012c-1.418,0.255-2.572,0.164-2.807-0.729
								c-0.215-0.814,0.377-1.716,2.158-2.496c5.576-2.063,11.918-1.195,16.545,2.839C376.878-17.696,378.161-15.975,379.07-14.099z
								 M325.56,70.438l16.393-18.779l-3.541-3.092l-16.391,18.777L325.56,70.438z"/>
							<path fill="#C4D2D2" d="M372.175,16.567c1.943-4.128-2.393-9.297-3.354-10.367c-0.016-0.016-0.024-0.033-0.041-0.051
								c-0.091-0.098-0.14-0.148-0.14-0.148c0.015,0.01,0.029,0.019,0.052,0.025c1.471,0.849,5.59-0.336,7.254-2.701
								c1.682-2.395,4.467-9.724-2.143-17.131c-0.739-0.73-1.493-1.376-2.249-1.943l-0.019,0.029
								c-4.1-2.571-8.586-2.881-12.377,0.486c-2.969,2.634-3.553,5.57-3.262,7.91c-0.268-0.041-7.367-1.111-11.047,4.691
								c-3.75,5.918-0.166,10.928-0.166,10.928l-0.015,0.052c-2.206-0.56-5.94-0.59-9.151,3.901
								c-2.797,3.92-2.502,6.561-1.727,8.105c0,0-4.531,1.141-6.734,7.33c-2.195,6.186-0.916,11.304,2.338,15.183l5.075-5.641
								c1.241,0.133,2.89,0.234,4.988,0.2c5.647-0.088,9.13-6.978,9.13-6.978c4.705,3.495,8.572,2.831,11.918-1.059
								c3.344-3.89,0.547-7.818,0.547-7.818C364.332,22.715,370.001,21.189,372.175,16.567z"/>
							<path fill="#B1BFBF" d="M408.556,14.7c-4.721,4.118-8.799,5.707-15.58,10.531c-6.766,4.812-19.973,15.486-24.65,20.536
								l24.429-27.986l-1.587-1.388l6.648-7.616C397.816,8.777,405.32,16.261,408.556,14.7z"/>
							<path fill="#C4D2D2" d="M408.556,14.7c0.891-0.434,2.105-2.169,3.037-4.175c1.082-2.31,1.794-4.973,1.229-6.396
								c-1.057-2.658,1.592-7.169-0.682-10.773c-1.482-2.342-2.72-7.131-3.407-10.207c-0.369-1.662-0.581-2.82-0.581-2.82
								c-0.328-0.338-0.781-0.77-1.273-1.305l-0.016-0.017c-1.488-1.619-3.262-4.163-2.596-7.827c0.889-4.89,4.523-6.65,5.681-5.872
								c3.957,2.66,8.85,9.904,10.788,12.025c1.935,2.117,9.558,4.722,11.163,8.817c1.608,4.092,1.327,19.883,1.966,26.095
								c0.641,6.209,0.244,10.313-2.288,15.805c-1.505,3.259-3.649,9.364-4.864,15.22c-0.004,0.005-0.001,0.013-0.004,0.018
								c-0.099,0.465-0.186,0.922-0.269,1.383c0.001,0.02-0.007,0.043-0.014,0.064c-0.629,3.488-0.878,6.794-0.397,9.232
								c1.345,6.829,1.844,9.506,2.408,11.491c0.57,1.989-0.539,2.019,1.089,3.766s6.788,4.804,6.216,5.716s7.426,3.205,6.397,4.558
								c0,0-0.003,0.005,0.002,0.007c0.081,0.105,1.039,1.338,2.603,1.626c1.627,0.294,2.213,1.388,1.479,2.559
								s-8.934,13.088-20.209,24.708c-11.282,11.62-21.726,19.586-24.494,21.113c-2.775,1.528-3.047-0.641-3.047-0.641
								s-1.126-0.52-2.838-0.687c-1.707-0.165-2.117-0.968-3.43-3.789c-1.316-2.817-2.098-4.759-5.469-6.327
								c-3.368-1.57-4.57-6.314-5.738-9.949c-1.169-3.637-1.34-6.834-4.061-7.995c-2.717-1.157-11.969-6.96-19.521-13.147
								c-7.552-6.188-11.355-10.39-11.17-15.898l-0.01-0.007l5.877-6.728l16.189-18.553l0.023-0.025
								c4.678-5.049,17.885-15.724,24.65-20.535C399.757,20.408,403.835,18.819,408.556,14.7z"/>
						</g>
					</g>
				</g>
				<path fill="#0091C7" d="M406.878-20.976l-0.016-0.017l-3.373-2.939c0.562,1.729,1.453,4.146,2.458,5.695l-2.349,2.803
					l0.506,0.442l1.708,1.491l2.92-3.35c-0.369-1.662-0.581-2.82-0.581-2.82C407.824-20.009,407.371-20.44,406.878-20.976z"/>
				<path fill="#B1BFBF" d="M368.822,6.2c-0.016-0.016-0.024-0.033-0.04-0.052c-0.092-0.097-0.141-0.147-0.141-0.147
					c0.015,0.01,0.029,0.019,0.052,0.025c1.471,0.849,5.59-0.336,7.254-2.701c0.774-1.104,1.779-3.252,1.997-5.973
					c-0.392-2.289-0.989-3.752-1.345-2.694c-0.785,2.341-5.347,5.659-7.373,5.465c-2.029-0.192-5.566-5.287-9.082-8.093
					c-1.997-1.592-2.6-3.74-2.748-5.301c-1.436,2.063-1.719,4.176-1.497,5.945c-0.229-0.035-5.419-0.814-9.226,2.551l0.001-0.001
					c2.417-2.069,4.165-1.355,6.133-1.201c1.968,0.155,5.188,2.544,7.474,4.292c2.285,1.746,4.412,4.242,6.138,6.284
					c1.726,2.043,4.021,5.997,3.576,8.235c-0.446,2.238-4.454,5.958-7.507,6.081c-3.055,0.122-11.46-7.187-12.514-7.608
					c-1.055-0.422-0.873,1.011,3.326,4.004s5.044,6.162,6.381,8.079c1.336,1.916-2.998,7.231-5.637,7.615
					c-2.637,0.383-5.152-1.915-7.725-3.528c-2.573-1.613-8.744-4.045-8.744-4.045c2.287,3.232,6.838,5.729,6.258,6.973
					c-0.579,1.246-2.013,4.801-8.193,5.479c-6.182,0.68-7.43-6.696-8.758-4.771c-1.326,1.926,4.29,4.248,3.804,5.022
					c-0.484,0.773-3.863-1.105-2.819-0.091c1.042,1.014,2.646,0.94,4.218,0.728c1.572-0.213-0.367,0.969-2.693,1.429
					c-1.202,0.236-2.35-0.839-3.181-1.934c0.467,2.484,1.586,4.69,3.186,6.596l5.075-5.639c1.241,0.132,2.89,0.234,4.988,0.199
					c5.647-0.087,9.132-6.979,9.132-6.979c4.705,3.496,8.57,2.832,11.915-1.057c3.344-3.889,0.55-7.819,0.55-7.819
					c3.277,1.144,8.947-0.382,11.12-5.004C374.119,12.438,369.783,7.271,368.822,6.2z"/>
				<path fill="#B1BFBF" d="M412.357,11.664c0.455-2.119,6.392-6.706,6.219-9.22c-0.174-2.513-5.27,4.567-5.676,1.032
					c-0.408-3.535,9.258-7.094,9.027-9.862c-0.232-2.769-6.188,1.148-7.795-1.17c-1.605-2.318-3.486-5.248-3.719-8.018
					c-0.23-2.769-0.638-6.303-3.678-8.429c-1.244-0.87-2.043-2.271-2.598-3.675c-0.154,3.056,1.395,5.241,2.725,6.687l0.016,0.017
					c0.49,0.534,0.945,0.965,1.271,1.305c0,0,0.213,1.158,0.582,2.82c0.688,3.076,1.926,7.866,3.407,10.206
					c2.274,3.604-0.376,8.116,0.681,10.775c0.566,1.421-0.145,4.084-1.227,6.395c-0.933,2.006-2.146,3.741-3.039,4.174
					c-4.719,4.118-8.799,5.708-15.578,10.531c-6.709,4.771-19.74,15.299-24.523,20.401c7.721-6.881,16.179-14.213,19.469-16.275
					c5.406-3.389,15.27-7.262,17.568-9.536C407.792,17.548,411.902,13.784,412.357,11.664z"/>
				<g>
					<path fill="#B1BFBF" d="M400.984,129.164c-2.965,0.546,0.064-3.239,2.856-6.298c2.793-3.06,11.345-9.721,14.491-12.996
						c3.148-3.275,13.334-13.941,9.027-9.862c-4.305,4.077-11.52,8.955-15.217,12.76c-3.697,3.803-11.641,10.191-15.372,10.912
						s-3.255-2.479-5.274-4.839s-8.043-4.607-7.566-7.807c0.475-3.199,6.601-2.855,9.275-4.679
						c2.672-1.823,16.557-16.292,15.083-15.686c-1.474,0.607-7.394,7.608-10.638,9.292c-3.242,1.683-13.68,8.912-15.129,6.691
						c-1.449-2.223-2.724-3.676-1.17-5.106s8.373-5.682,3.599-3.647c-4.774,2.036-5.578,0.875-13.956-2.849
						c-8.379-3.724-18.474-15.521-19.505-21.196c-1.032-5.678,5.955-16.819,11.751-19.087c5.797-2.27,10.946-5.601,13.25-9.621
						c2.303-4.022,18.605-20.255,18.605-20.255l-0.951-0.479c-0.381,0.262-0.769,0.533-1.169,0.817
						c-6.767,4.812-19.973,15.487-24.651,20.537l-0.022,0.024l-16.189,18.553l-5.876,6.728l0.009,0.007
						c-0.187,5.51,3.617,9.713,11.169,15.899c7.553,6.188,16.805,11.99,19.521,13.147c2.721,1.16,2.893,4.357,4.062,7.994
						c1.169,3.636,2.37,8.377,5.737,9.95c3.371,1.569,4.152,3.509,5.469,6.327c1.312,2.821,1.723,3.622,3.43,3.788
						c1.713,0.168,2.84,0.687,2.84,0.687s0.27,2.168,3.046,0.641c0.782-0.432,2.175-1.375,4.025-2.769
						C403.439,128.12,401.803,129.013,400.984,129.164z"/>
					<path fill="#B1BFBF" d="M442.141,79.508c-0.005-0.003-0.002-0.008-0.002-0.008c0.468-0.616-0.938-1.427-2.551-2.215
						c0.468,0.334,0.897,0.747,1.255,1.223c1.548,2.063-5.927,10.495-4.314,9.319c1.611-1.176,4.346-4.489,5.133-5.744
						c0.788-1.257,1.591-0.096,3.24,0.062c0.904,0.088,1.191,0.843,1.174,1.773c0.062-0.095,0.115-0.175,0.146-0.227
						c0.734-1.171,0.148-2.265-1.479-2.559C443.179,80.846,442.222,79.612,442.141,79.508z"/>
					<path fill="#B1BFBF" d="M424.081,61.655c0.306,5.439,3.128,8.958,2.888,11.431c-0.238,2.474,0.126,8.169-1.843,11.309
						c-1.968,3.139-7.631,8.333-10.129,10.921c-2.497,2.588-9.03,11.61-5.413,8.631c3.617-2.978,11.502-9.623,13.627-12.664
						c2.125-3.039,10.11-11.588,11.645-13.687c0.805-1.1,1.984-1.358,3.149-1.062c-1.37-0.65-2.489-1.229-2.262-1.591
						c0.572-0.913-4.589-3.971-6.217-5.716c-1.628-1.746-0.518-1.775-1.088-3.765c-0.566-1.986-1.063-4.663-2.408-11.492
						c-0.481-2.438-0.231-5.744,0.396-9.232c0.008-0.021,0.016-0.045,0.014-0.063c0.084-0.462,0.171-0.92,0.27-1.383
						c0.003-0.006,0.002-0.014,0.004-0.018c0.497-2.396,1.15-4.829,1.851-7.096C424.958,45.454,423.818,56.983,424.081,61.655z"/>
				</g>
			</g>
			<g>
				<path fill="none" stroke="#000000" stroke-linecap="round" stroke-linejoin="round" stroke-miterlimit="10" d="M397.815,8.776
					c0,0,7.509,7.482,10.739,5.925c1.924-0.929,5.326-7.912,4.27-10.569c-1.055-2.658,1.592-7.168-0.684-10.773
					s-3.99-13.027-3.99-13.027c-1.316-1.37-4.768-4.26-3.879-9.148c0.886-4.887,4.523-6.652,5.68-5.874
					c3.955,2.661,8.85,9.904,10.785,12.026c1.938,2.121,9.561,4.725,11.166,8.817c1.607,4.094,1.322,19.884,1.965,26.095
					c0.642,6.209,0.244,10.315-2.291,15.803c-2.533,5.488-6.889,19.088-5.547,25.918c1.342,6.832,1.844,9.506,2.41,11.494
					c0.567,1.989-0.541,2.02,1.087,3.766c1.626,1.747,6.788,4.801,6.216,5.714c-0.572,0.911,7.426,3.206,6.397,4.557
					c0,0,0.976,1.337,2.604,1.633s2.215,1.389,1.48,2.562c-0.736,1.172-8.934,13.088-20.214,24.707
					c-11.278,11.618-21.722,19.589-24.493,21.116c-2.772,1.526-3.045-0.642-3.045-0.642s-1.125-0.523-2.836-0.688
					s-2.117-0.965-3.434-3.786c-1.315-2.82-2.095-4.762-5.465-6.331c-3.372-1.569-4.57-6.315-5.738-9.95s-1.342-6.828-4.062-7.991
					c-2.72-1.161-11.968-6.96-19.521-13.147c-7.551-6.188-11.359-10.392-11.172-15.9"/>
				<path fill="none" stroke="#000000" stroke-linecap="round" stroke-linejoin="round" stroke-miterlimit="10" d="M376.938,100.127
					c3.11,1.407,6.96,0.19,6.96,0.19"/>
				<path fill="none" stroke="#000000" stroke-linecap="round" stroke-linejoin="round" stroke-miterlimit="10" d="M383.982,107.993
					c0,0,1.715-1.286,5.748-1.93c4.034-0.647,7.521-0.999,10.656-3.391"/>
				<path fill="none" stroke="#000000" stroke-linecap="round" stroke-linejoin="round" stroke-miterlimit="10" d="M426.713,43.275
					c-0.675,3.995-3.05,11.571-2.974,15.792c0.074,4.222-0.846,9.45-0.846,9.45"/>
				<path fill="none" stroke="#000000" stroke-linecap="round" stroke-linejoin="round" stroke-miterlimit="10" d="M428.439,65.462
					c0.146,2.04-1.424,4.006-3.156,7.639c-1.733,3.632-13.199,20.756-17.086,25.941c-3.887,5.185-10.166,9.414-9.24,10.539"/>
				<path fill="none" stroke="#000000" stroke-linecap="round" stroke-linejoin="round" stroke-miterlimit="10" d="M407.697,101.45
					c1.77-0.522,16.558-16.292,19.564-21.664"/>
				<path fill="none" stroke="#000000" stroke-linecap="round" stroke-linejoin="round" stroke-miterlimit="10" d="M442.14,79.498
					c-0.133,1.369-1.111,1.481-4.715,3.757c-3.605,2.276-13.127,15.724-20.613,19.558"/>
				<path fill="none" stroke="#000000" stroke-linecap="round" stroke-linejoin="round" stroke-miterlimit="10" d="M435.743,74.941
					c-0.883,1.987-2.29,5.097-5.31,8.466"/>
				<path fill="none" stroke="#000000" stroke-linecap="round" stroke-linejoin="round" stroke-miterlimit="10" d="M443.519,83.086
					c0,0-13.781,18.214-22.87,25.763c-9.088,7.547-9.315,13.758-22.697,17.703"/>
				<path fill="none" stroke="#000000" stroke-linecap="round" stroke-linejoin="round" stroke-miterlimit="10" d="M368.304,45.797
					c4.657-5.042,17.896-15.745,24.676-20.565c6.778-4.822,10.855-6.411,15.574-10.53"/>
				<path fill="none" stroke="#000000" stroke-linecap="round" stroke-linejoin="round" stroke-miterlimit="10" d="M395.727,23.843
					c-3.186,2.835-13.837,14.848-19.312,25.688"/>
				<path fill="none" stroke="#000000" stroke-linecap="round" stroke-linejoin="round" stroke-miterlimit="10" d="M374.291,47.3
					c0,0-11.027,4.977-22.176,17.045"/>
				<path fill="none" stroke="#000000" stroke-linecap="round" stroke-linejoin="round" stroke-miterlimit="10" d="M371.541-15.72
					c-4.104-2.573-8.589-2.881-12.381,0.486c-3.793,3.365-3.686,7.215-2.857,9.695"/>
				<path fill="none" stroke="#000000" stroke-linecap="round" stroke-linejoin="round" stroke-miterlimit="10" d="M355.904-7.321
					c0,0-7.302-1.224-11.052,4.689c-3.751,5.915-0.169,10.928-0.169,10.928"/>
				<path fill="none" stroke="#000000" stroke-linecap="round" stroke-linejoin="round" stroke-miterlimit="10" d="M346.566,9.093
					c0,0-6.139-3.711-11.047,3.157c-4.909,6.87-0.297,9.815-0.297,9.815"/>
				<path fill="none" stroke="#000000" stroke-linecap="round" stroke-linejoin="round" stroke-miterlimit="10" d="M333.791,20.358
					c0,0-4.531,1.138-6.729,7.325c-2.2,6.187-0.92,11.307,2.334,15.181"/>
				<path fill="none" stroke="#000000" stroke-linecap="round" stroke-linejoin="round" stroke-miterlimit="10" d="M356.736-4.7
					c0,0,1.658,2.062,5.102,3.955c3.441,1.891,5.395,4.9,6.986,6.945"/>
				<path fill="none" stroke="#000000" stroke-linecap="round" stroke-linejoin="round" stroke-miterlimit="10" d="M348.254,10.536
					c0,0,3.29,2.455,4.63,4.168c1.342,1.713,5.614,5.594,8.172,6.865"/>
				<path fill="none" stroke="#000000" stroke-linecap="round" stroke-linejoin="round" stroke-miterlimit="10" d="M336.837,23.079
					c0,0,3.954,1.281,6.543,1.966c2.59,0.685,6.483,2.435,5.211,5.404"/>
				<path fill="none" stroke="#000000" stroke-linecap="round" stroke-linejoin="round" stroke-miterlimit="10" d="M346.718,27.837
					c0,0-2.367,1.116-3.475,4.063"/>
				<path fill="none" stroke="#000000" stroke-linecap="round" stroke-linejoin="round" stroke-miterlimit="10" d="M360.794,23.479
					c0,0-3.223,2.369-4.791,6.148"/>
				<path fill="none" stroke="#000000" stroke-linecap="round" stroke-linejoin="round" stroke-miterlimit="10" d="M371.234,12.279
					c0,0-1.825,5.384-5.766,7.405"/>
				<path fill="none" stroke="#000000" stroke-linecap="round" stroke-linejoin="round" stroke-miterlimit="10" d="M376.687-3.355
					c0,0-0.707,3.573-3.784,6.033"/>
				<path fill="none" stroke="#000000" stroke-linecap="round" stroke-linejoin="round" stroke-miterlimit="10" d="M350.556-0.688
					c0,0-4.07,2.611-4.725,9.427"/>
				<path fill="none" stroke="#000000" stroke-linecap="round" stroke-linejoin="round" stroke-miterlimit="10" d="M338.947,13.982
					c0,0-4.213,4.291-4.296,7.589"/>
				<path fill="none" stroke="#000000" stroke-linecap="round" stroke-linejoin="round" stroke-miterlimit="10" d="M410.695,12.179
					c1.431-2.938,6.82-10.993,9.666-13.97"/>
				<path fill="none" stroke="#000000" stroke-linecap="round" stroke-linejoin="round" stroke-miterlimit="10" d="M408.073,16.945
					c1.04-0.572,9.132-11.47,14.509-13.563"/>
				<g>
					
						<rect x="389.737" y="4.097" transform="matrix(-0.7534 -0.6575 0.6575 -0.7534 682.1121 275.7383)" fill="none" stroke="#000000" stroke-linecap="round" stroke-linejoin="round" stroke-miterlimit="10" width="6.037" height="11.759"/>
					
						<rect x="393.917" y="4.719" transform="matrix(-0.7533 -0.6577 0.6577 -0.7533 696.6216 273.7361)" fill="none" stroke="#000000" stroke-linecap="round" stroke-linejoin="round" stroke-miterlimit="10" width="11.47" height="2.986"/>
					<path fill="none" stroke="#000000" stroke-linecap="round" stroke-linejoin="round" stroke-miterlimit="10" d="M331.447,36.665
						c0,0,2.37,0.85,8.016,0.761c5.646-0.089,9.129-6.977,9.129-6.977c4.705,3.495,8.568,2.832,11.916-1.058
						c3.346-3.89,0.549-7.822,0.549-7.822c3.273,1.146,8.948-0.377,11.122-5.002c2.174-4.624-3.537-10.565-3.537-10.565
						c1.433,0.898,5.623-0.285,7.306-2.679c1.682-2.393,4.464-9.721-2.143-17.129c-4.721-4.659-10.018-5.933-14.474-4.957
						c-1.421,0.255-2.575,0.166-2.81-0.727c-0.213-0.812,0.379-1.717,2.162-2.496c5.57-2.064,11.917-1.196,16.543,2.841
						c1.656,1.446,2.938,3.169,3.844,5.046c1.719,0.695,6.414,2.913,12.842,8.523c2.312,2.019,4.158,3.874,5.617,5.497
						l-10.911,12.501l6.14,5.36l-72.21,82.723l-24.104-21.038l38.028-42.241"/>
					<polyline fill="none" stroke="#000000" stroke-linecap="round" stroke-linejoin="round" stroke-miterlimit="10" points="
						394.128,-3.56 404.107,-14.989 398.308,-20.052 388.269,-8.55 					"/>
					<polyline fill="none" stroke="#000000" stroke-linecap="round" stroke-linejoin="round" stroke-miterlimit="10" points="
						408.734,-16.848 405.812,-13.5 396.604,-21.54 400.765,-26.31 406.878,-20.976 					"/>
					
						<rect x="293.018" y="88.131" transform="matrix(-0.7533 -0.6577 0.6577 -0.7533 472.3273 363.8839)" fill="none" stroke="#000000" stroke-linecap="round" stroke-linejoin="round" stroke-miterlimit="10" width="22.789" height="10.445"/>
					<polygon fill="none" stroke="#000000" stroke-linecap="round" stroke-linejoin="round" stroke-miterlimit="10" points="
						309.569,104.787 292.401,89.802 293.908,98.47 300.775,104.464 					"/>
					<polygon fill="none" stroke="#000000" stroke-linecap="round" stroke-linejoin="round" stroke-miterlimit="10" points="
						265.582,142.357 261.117,138.462 293.908,98.47 300.775,104.464 					"/>
					<polygon fill="#666666" stroke="#000000" stroke-linecap="round" stroke-linejoin="round" stroke-miterlimit="10" points="
						265.095,141.932 261.605,138.887 260.468,140.19 261.091,140.732 257.841,144.652 259.873,146.425 263.318,142.676 
						263.957,143.234 					"/>
					<path fill="none" stroke="#000000" stroke-linecap="round" stroke-linejoin="round" stroke-miterlimit="10" d="
						M260.597,139.089l-34.468,42.437c-0.38,0.436-0.351,1.086,0.065,1.448c0.417,0.363,1.063,0.305,1.444-0.131l37.391-39.885
						L260.597,139.089z"/>
					
						<line fill="none" stroke="#000000" stroke-linecap="round" stroke-linejoin="round" stroke-miterlimit="10" x1="395.748" y1="-1.97" x2="312.457" y2="93.446"/>
					
						<rect x="329.635" y="47.039" transform="matrix(-0.7533 -0.6577 0.6577 -0.7533 542.9265 322.6726)" fill="none" stroke="#000000" stroke-linecap="round" stroke-linejoin="round" stroke-miterlimit="10" width="4.701" height="24.925"/>
					
						<line fill="none" stroke="#000000" stroke-linecap="round" stroke-linejoin="round" stroke-miterlimit="10" x1="403.24" y1="-15.747" x2="393.3" y2="-4.362"/>
				</g>
				<path fill="none" stroke="#000000" stroke-linecap="round" stroke-linejoin="round" stroke-miterlimit="10" d="M379.069-14.098
					c0,0,0.792,1.658,2.118,2.425"/>
			</g>
		</g>
		<g>
			<path fill="#BBBBBB" stroke="#000000" stroke-linecap="round" stroke-linejoin="round" stroke-miterlimit="10" d="
				M94.891,356.773c28.424,16.736,61.546,26.347,96.917,26.347c35.372,0,68.494-9.61,96.919-26.347H94.891z"/>
			<path fill="#666666" stroke="#000000" stroke-linecap="round" stroke-linejoin="round" stroke-miterlimit="10" d="
				M261.75,369.905H121.867c21.665,8.52,45.251,13.215,69.941,13.215C216.498,383.12,240.085,378.425,261.75,369.905z"/>
		</g>
	</g>
</g>
<circle fill="none" stroke="#000000" stroke-linecap="round" stroke-linejoin="round" stroke-miterlimit="10" cx="191.809" cy="191.811" r="191.309"/>
</svg>
