<?xml version="1.0" encoding="utf-8"?>
<!-- Generator: Adobe Illustrator 16.0.0, SVG Export Plug-In . SVG Version: 6.00 Build 0)  -->
<!DOCTYPE svg PUBLIC "-//W3C//DTD SVG 1.1//EN" "http://www.w3.org/Graphics/SVG/1.1/DTD/svg11.dtd">
<svg version="1.1" id="Layer_1" xmlns="http://www.w3.org/2000/svg" xmlns:xlink="http://www.w3.org/1999/xlink" x="0px" y="0px"
	 width="383.619px" height="383.621px" viewBox="0 0 383.619 383.621" enable-background="new 0 0 383.619 383.621"
	 xml:space="preserve">
<g>
	<g>
		<defs>
			<circle id="SVGID_1_" cx="191.81" cy="191.811" r="191.31"/>
		</defs>
		<clipPath id="SVGID_2_">
			<use xlink:href="#SVGID_1_"  overflow="visible"/>
		</clipPath>
		<g clip-path="url(#SVGID_2_)">
			<circle fill="#E8E8E8" cx="191.81" cy="191.811" r="191.31"/>
			<path fill="#D8D8D8" d="M195.231,189.707c-1.086-0.563-3.125,0.379-4.553,2.103l-6.25,7.55c-2.062-1.946-3.994-3.685-4.775-4.139
				c-2.139-1.241-9.585,2.741-19.612,6.438c-10.024,3.698-25.371,6.178-36.374,7.899c-1.367,0.214-3.246,0.517-5.503,0.88
				c-0.452-0.18-0.97-0.312-1.568-0.391c0.015-0.012,12.91-11.861-3.906-9.448c0,0-5.954,1.019-13.886,3.739
				c-3.593,1.232-7.467,2.584-11.054,3.974c-0.114,0.045-0.227,0.09-0.341,0.134c-0.465,0.182-0.923,0.362-1.376,0.545
				c-0.129,0.053-0.257,0.104-0.384,0.155c-0.468,0.188-0.928,0.38-1.379,0.571c-0.086,0.035-0.174,0.072-0.259,0.109
				c-1.064,0.45-2.074,0.903-3.017,1.355c-0.121,0.059-0.236,0.115-0.354,0.172c-0.335,0.165-0.662,0.329-0.978,0.492
				c-0.135,0.07-0.269,0.14-0.398,0.208c-0.299,0.159-0.583,0.317-0.86,0.476c-0.112,0.062-0.229,0.127-0.337,0.19
				c-0.37,0.217-0.724,0.435-1.047,0.647c-2.702,1.795-6.21,3.975-8.603,5.442c-3.715,0.661-6.615,1.198-8.215,1.534
				c-8.393,1.763-35.654,7.559-41.49,8.613c-5.837,1.054-36.431,5.035-39.632,5.569c-3.194,0.531-12.305,0.062-21.439,8.476
				c4.646,4.604,9.446,4.111,14.771,3.553c5.322-0.561,23.655-4.842,29.802-5.936c3.573-0.636,12.611-2.146,21.014-3.459
				c4.062-0.633,9.291-1.424,12.893-1.885c0.066-0.008,0.133-0.018,0.198-0.025c0.142-0.018,0.278-0.033,0.414-0.051
				c0.152-0.019,0.3-0.037,0.445-0.055c0.086-0.01,0.173-0.021,0.256-0.029c0.232-0.027,0.46-0.054,0.67-0.076
				c1.573-0.172,4.652-0.6,8.607-1.184c-5.635,3.876-11.104,7.428-14.128,8.756c-7.864,3.461-14.697,8.066-19.428,12.572
				c-2.617,2.493-3.244,4.396-3.244,4.396s-2.629,2.645-3.24,6.158c-2.559,4.418-2.784,8.229-3.214,12.571
				c-0.428,4.343,0.727,15.629,1.307,29.815c0.417,10.19-2,23.131-3.832,30.738l0,0l0,0c-0.721,2.985-1.35,5.149-1.683,6.004h-0.001
				h0.001v0.002c0,0-5.061,5.104-1.622,5.629c2.817,0.424,14.958,5.387,33.039,1.978c0.037-0.008,0.075-0.017,0.113-0.022
				c0.71-0.135,1.43-0.283,2.158-0.444c0.169-0.038,0.341-0.079,0.512-0.118c0.605-0.141,1.216-0.287,1.833-0.443
				c0.229-0.06,0.456-0.119,0.686-0.181c0.577-0.153,1.16-0.319,1.747-0.49c0.25-0.071,0.498-0.144,0.749-0.221
				c0.612-0.187,1.23-0.386,1.854-0.591c0.22-0.071,0.438-0.141,0.661-0.217c0.845-0.287,1.698-0.588,2.562-0.916
				c0,0,25.334-23.83,39.205-47.293c13.869-23.461,14.314-29.36,15.057-30.887c0.458-0.943,0.666-1.596,0.758-1.959
				c0.188-0.041,0.38-0.084,0.572-0.129c0.052-0.012,0.101-0.021,0.151-0.033c0.002-0.004,0.002-0.004,0.002-0.004v0.002
				c1.399-0.334,2.876-0.807,4.147-1.476c3.74-1.972,6.684-7.71,3.928-13.899c0.288,0.01,0.584,0,0.885-0.021h0.005h-0.003
				c4.022-0.295,9.049-3.359,10.016-5.889c0.815-2.138-2.24-11.943-5.375-16.901c1.293-2.091,3.693-6.194,5.775-10.147
				c0.021-0.039,0.038-0.078,0.06-0.117c11.018-2.865,22.588-5.98,27.873-7.465c9.729-2.734,19.733-7.06,24.779-9.598
				c5.045-2.538,6.335-2.008,8.054-1.025c0.349,0.199,1.019,0.627,1.852,1.172l-6.6,7.971c-1.428,1.725-1.704,3.576-0.616,4.141
				c1.09,0.562,3.128-0.377,4.555-2.104l6.289-7.594c2.782,1.869,5.528,3.744,5.528,3.744s-2.188-2.296-4.662-4.793l1.134-1.371
				c2.291,1.477,4.241,2.748,4.241,2.748s-1.58-1.584-3.585-3.539l7.057-8.521C196.046,192.122,196.321,190.271,195.231,189.707z"/>
			<g>
				<path fill="#D8D8D8" d="M434.935,184.319c-0.162-0.223-0.396-0.435-0.68-0.637c-0.043-0.03-0.075-0.063-0.121-0.093
					c-0.168-0.11-0.32-0.232-0.461-0.359c-0.076-0.068-0.141-0.145-0.209-0.217c-0.058-0.061-0.119-0.119-0.173-0.181
					c-0.061-0.073-0.109-0.146-0.163-0.219c-0.049-0.065-0.101-0.131-0.144-0.194c-0.042-0.064-0.076-0.126-0.113-0.189
					c-0.043-0.072-0.088-0.146-0.125-0.216c-0.024-0.048-0.045-0.091-0.065-0.137c-0.039-0.081-0.08-0.161-0.11-0.233
					c-0.011-0.024-0.018-0.045-0.026-0.067c-0.12-0.298-0.172-0.502-0.173-0.505h0.001h-0.002c0.089-0.052,0.146-0.119,0.181-0.199
					c0.01-0.024,0.008-0.056,0.013-0.082c0.002-0.007,0.001-0.015,0.003-0.021c0.01-0.055,0.021-0.11,0.014-0.177
					c-0.006-0.051-0.024-0.108-0.042-0.163c-0.017-0.06-0.029-0.118-0.058-0.182c-0.027-0.069-0.066-0.146-0.106-0.22
					c-0.029-0.059-0.061-0.116-0.097-0.178c-0.053-0.088-0.111-0.181-0.174-0.273c-0.036-0.056-0.072-0.109-0.113-0.165
					c-0.076-0.107-0.156-0.216-0.242-0.329c-0.032-0.043-0.067-0.087-0.103-0.129c-0.102-0.131-0.206-0.262-0.317-0.395
					c-0.016-0.02-0.031-0.038-0.049-0.057c-0.996-1.188-2.282-2.502-2.836-3.334c-0.01-0.015-0.017-0.027-0.025-0.041
					c-0.063-0.1-0.114-0.189-0.153-0.272c-0.015-0.026-0.023-0.052-0.033-0.077c-0.027-0.066-0.041-0.127-0.047-0.18
					c-0.002-0.021-0.007-0.045-0.006-0.063c0.005-0.062,0.026-0.112,0.071-0.146c0.003-0.001,0.003-0.004,0.005-0.005
					c0.056-0.039,0.093-0.095,0.114-0.166c0.006-0.016,0.002-0.04,0.005-0.058c0.013-0.059,0.022-0.117,0.018-0.193
					c-0.101-1.366-2.92-5.308-3.637-7.271c-0.408-1.119-0.355-1.58-0.168-2.016c0.104-0.245,0.252-0.488,0.385-0.835
					c0.102-0.267,0.192-0.594,0.248-1.039c0.047-0.376,0.104-0.774,0.176-1.215c0.262-1.601,0.714-3.773,1.507-7.563
					c0.175-0.835,0.364-1.74,0.573-2.745c0.003-0.014,0.008-0.027,0.011-0.042c0.079-0.368,0.187-0.751,0.309-1.143
					c0.034-0.113,0.075-0.23,0.114-0.345c0.111-0.328,0.235-0.661,0.373-1.003c0.037-0.092,0.072-0.184,0.111-0.277
					c0.18-0.425,0.379-0.859,0.596-1.299c0.047-0.097,0.099-0.193,0.146-0.288c0.091-0.181,0.191-0.365,0.289-0.548l2.78-4.535
					c0.127-0.184,0.251-0.366,0.379-0.549c0.153-0.217,0.31-0.436,0.466-0.651c0.204-0.286,0.414-0.57,0.625-0.854
					c0.172-0.231,0.346-0.463,0.52-0.691c0.191-0.251,0.385-0.5,0.578-0.748c0.204-0.261,0.408-0.521,0.613-0.778
					c0.164-0.204,0.327-0.404,0.489-0.604c0.235-0.29,0.471-0.574,0.704-0.855c0.267-0.316,0.53-0.632,0.794-0.938
					c0.054-0.062,0.107-0.124,0.16-0.187c0.347-0.397,0.688-0.786,1.023-1.162c0.059-0.063,0.115-0.125,0.172-0.189
					c0.311-0.343,0.617-0.678,0.917-0.998c0.04-0.042,0.081-0.087,0.12-0.129c0.305-0.325,0.6-0.631,0.89-0.928
					c0.083-0.086,0.167-0.173,0.249-0.256c0.271-0.273,0.531-0.535,0.783-0.779c0.082-0.08,0.16-0.155,0.239-0.23
					c0.228-0.219,0.446-0.427,0.654-0.617c0.031-0.029,0.064-0.061,0.097-0.089c0.338-0.308,0.634-0.608,0.942-0.913
					c3.797-3.713,5.631-7.232,7.319-12.75c0.543-1.775,1.491-4.298,2.558-7.082c0.691-1.799,1.431-3.707,2.144-5.595
					c1.893-5.017,3.594-9.879,3.651-12.124c0.023-0.907-0.224-1.857-0.624-2.816c-1.534-3.686-5.467-7.508-6.227-9.654
					c-0.093-0.258-0.192-0.586-0.298-0.942c-0.994-3.379-2.596-10.725-4.953-14.333c-0.096-0.146-0.243-0.271-0.433-0.368
					c-1.319-0.688-4.706-0.075-7.091,3.562c-0.165,0.253-0.308,0.506-0.439,0.758c-0.01,0.021-0.021,0.042-0.031,0.062
					c-0.031,0.062-0.062,0.122-0.092,0.184v-0.001l-0.002,0.004c-0.081,0.168-0.154,0.337-0.222,0.503
					c-0.01,0.022-0.02,0.045-0.028,0.067c-0.058,0.145-0.107,0.288-0.153,0.431c-0.005,0.014-0.009,0.027-0.015,0.041
					c-0.105,0.328-0.188,0.655-0.248,0.976c-0.001,0.005-0.002,0.009-0.002,0.009c-0.006,0.03-0.009,0.058-0.015,0.084
					c-0.035,0.207-0.062,0.413-0.082,0.616c-0.004,0.032-0.008,0.064-0.01,0.098c-0.031,0.376-0.037,0.744-0.02,1.103
					c0.001,0.01,0,0.019,0.001,0.027c0.003,0.064,0.009,0.128,0.013,0.191c0.003,0.043,0.008,0.086,0.012,0.128
					c0.016,0.17,0.033,0.337,0.058,0.5v0.004c0.004,0.027,0.005,0.055,0.009,0.08c0.003,0.02,0.007,0.037,0.01,0.057
					c0.03,0.197,0.065,0.393,0.104,0.581c0.002,0.007,0.004,0.015,0.006,0.022c0.008,0.033,0.016,0.064,0.022,0.098
					c0.015,0.064,0.029,0.127,0.046,0.19c0.018,0.075,0.034,0.15,0.055,0.224c0.02,0.078,0.041,0.151,0.062,0.227
					c0.016,0.054,0.029,0.108,0.045,0.16c0.019,0.059,0.035,0.115,0.053,0.174c0.021,0.069,0.044,0.138,0.064,0.206
					c0.012,0.03,0.021,0.06,0.031,0.09c0.035,0.106,0.07,0.213,0.105,0.313l-2.271-4.654l-1.269-2.604h-0.001l-0.001-0.001
					l-5.69,2.771l0.991,2.038l-3.198,1.558l-10.528,5.125c-0.354-0.617-0.7-1.2-1.039-1.748c-0.002-0.002-0.003-0.004-0.004-0.007
					c-0.326-0.525-0.643-1.019-0.951-1.482c-0.032-0.051-0.064-0.1-0.099-0.149c-0.599-0.893-1.159-1.672-1.672-2.344
					c-0.038-0.049-0.074-0.097-0.111-0.145c-0.246-0.32-0.48-0.617-0.704-0.887c-0.023-0.029-0.047-0.056-0.069-0.086
					c-0.206-0.249-0.4-0.477-0.581-0.684c-0.024-0.027-0.05-0.057-0.073-0.084c-0.186-0.21-0.354-0.396-0.51-0.561
					c-0.035-0.038-0.065-0.07-0.1-0.105c-0.138-0.146-0.268-0.28-0.378-0.39c-0.006-0.006-0.014-0.015-0.02-0.021
					c-0.006-0.115-0.025-0.231-0.035-0.347c-0.119-1.671-0.508-3.336-1.178-4.944c-0.119-0.285-0.226-0.573-0.361-0.855
					c-0.906-1.857-2.137-3.453-3.59-4.771c-2.509-2.28-5.696-3.715-9.098-4.152c-0.479-0.062-0.96-0.111-1.445-0.133
					c-0.729,0.009-1.312,0.1-1.76,0.252c-0.749,0.255-1.128,0.686-1.203,1.205c-0.049,0.343,0.065,0.632,0.302,0.875
					c0.392,0.408,1.123,0.69,2.001,0.89c0.437,0.081,0.871,0.19,1.303,0.317c0.062,0.018,0.121,0.034,0.183,0.053
					c0.414,0.128,0.825,0.279,1.231,0.449c0.071,0.031,0.144,0.063,0.215,0.094c0.41,0.182,0.819,0.38,1.222,0.606
					c0.026,0.015,0.054,0.032,0.081,0.048c0.379,0.218,0.751,0.459,1.118,0.718c0.069,0.05,0.143,0.097,0.213,0.147
					c0.363,0.267,0.721,0.556,1.067,0.864c0.087,0.074,0.172,0.153,0.257,0.23c0.346,0.318,0.684,0.651,1.011,1.013
					c0.061,0.066,0.12,0.141,0.181,0.209c0.285,0.327,0.563,0.673,0.834,1.033c0.072,0.096,0.146,0.188,0.217,0.287
					c0.287,0.398,0.562,0.822,0.826,1.264c0.042,0.068,0.082,0.139,0.123,0.209l-0.018,0.012c-2.778-3.967-6.789-5.995-11.593-4.371
					c-0.423,0.143-0.811,0.306-1.181,0.476c-0.081,0.038-0.161,0.075-0.239,0.113c-0.342,0.167-0.669,0.344-0.969,0.533
					c0-0.001,0-0.001,0-0.001c-0.008,0.006-0.016,0.012-0.023,0.017c-0.045,0.028-0.084,0.059-0.126,0.087
					c-0.189,0.125-0.374,0.253-0.546,0.384c-0.064,0.051-0.125,0.103-0.188,0.153c-0.008,0.005-0.016,0.012-0.021,0.018
					c-0.06,0.049-0.121,0.095-0.178,0.145c-0.08,0.068-0.157,0.139-0.234,0.21c-0.068,0.063-0.135,0.129-0.2,0.193
					c-0.084,0.084-0.17,0.167-0.249,0.253c-0.044,0.046-0.083,0.093-0.126,0.14c-0.054,0.061-0.104,0.119-0.156,0.181
					c-0.104,0.125-0.202,0.25-0.297,0.379c-0.039,0.052-0.084,0.102-0.12,0.153c-0.017,0.022-0.029,0.046-0.045,0.067
					c-0.104,0.15-0.2,0.303-0.292,0.457c-0.025,0.041-0.055,0.083-0.078,0.125c-0.024,0.041-0.043,0.084-0.066,0.125
					c-0.04,0.072-0.078,0.146-0.115,0.221c-0.042,0.08-0.086,0.16-0.124,0.24c-0.035,0.074-0.064,0.148-0.099,0.224
					c-0.027,0.064-0.059,0.128-0.084,0.19c-0.015,0.036-0.031,0.07-0.045,0.105c-0.013,0.032-0.021,0.064-0.035,0.096
					c-0.026,0.075-0.053,0.148-0.079,0.223c-0.05,0.14-0.096,0.279-0.138,0.418c0,0-0.001,0.007-0.002,0.011
					c-0.008,0.025-0.02,0.053-0.027,0.079c-0.055-0.033-0.437-0.264-1.049-0.545c-0.01-0.005-0.021-0.01-0.032-0.014
					c-0.021-0.011-0.044-0.021-0.066-0.031c-0.017-0.008-0.029-0.014-0.046-0.021c-0.112-0.052-0.234-0.102-0.362-0.154
					c-0.036-0.016-0.07-0.03-0.107-0.045c-0.018-0.007-0.033-0.014-0.053-0.021c-0.014-0.006-0.024-0.011-0.039-0.017
					c-0.133-0.053-0.276-0.104-0.422-0.156c-0.045-0.016-0.084-0.031-0.13-0.047c-0.034-0.013-0.065-0.023-0.102-0.034
					c-0.006-0.003-0.014-0.005-0.021-0.007c-0.188-0.063-0.384-0.126-0.589-0.184c-0.008-0.002-0.018-0.003-0.024-0.007
					c-0.015-0.004-0.028-0.007-0.044-0.011c-0.084-0.023-0.174-0.044-0.261-0.066c-0.138-0.036-0.274-0.071-0.418-0.104
					c-0.045-0.011-0.089-0.02-0.134-0.029c-0.09-0.019-0.183-0.034-0.273-0.052c-0.131-0.023-0.264-0.048-0.398-0.069
					c-0.071-0.011-0.141-0.023-0.212-0.033c-0.078-0.011-0.158-0.018-0.238-0.027c-0.136-0.016-0.273-0.026-0.412-0.038
					c-0.096-0.008-0.189-0.02-0.289-0.024c-0.061-0.004-0.123-0.005-0.186-0.006c-0.146-0.006-0.296-0.003-0.443-0.002
					c-0.119,0-0.236-0.005-0.355-0.001c-0.04,0-0.08,0.003-0.118,0.005c-0.186,0.01-0.373,0.031-0.561,0.05
					c-0.115,0.014-0.229,0.018-0.345,0.034c-0.144,0.02-0.285,0.054-0.428,0.079c-0.162,0.03-0.324,0.057-0.488,0.096
					c-0.045,0.011-0.09,0.018-0.135,0.029c-0.125,0.03-0.25,0.078-0.378,0.114c-0.07,0.021-0.143,0.038-0.215,0.062
					c0.07-0.021,0.14-0.039,0.208-0.059c-0.104,0.031-0.211,0.065-0.316,0.101c-0.123,0.042-0.244,0.071-0.366,0.117
					c-0.271,0.104-0.542,0.234-0.814,0.366c-0.087,0.043-0.175,0.073-0.262,0.119c-0.359,0.189-0.72,0.404-1.077,0.652
					c-3.219,2.229-4.215,5.088-4.469,7.179c-0.002,0.013-0.006,0.028-0.007,0.042c-0.008,0.07-0.011,0.133-0.019,0.199
					c-0.147,1.52,0.083,2.58,0.083,2.58l0,0h0.002l-0.033,0.043c-0.499-0.379-1.124-0.762-1.86-1.062
					c-0.04-0.017-0.08-0.033-0.121-0.049c-0.1-0.039-0.201-0.076-0.305-0.111c-0.053-0.018-0.105-0.035-0.16-0.052
					c-0.166-0.052-0.337-0.099-0.513-0.142c-0.079-0.02-0.158-0.039-0.239-0.057c-0.088-0.018-0.18-0.032-0.271-0.048
					c-0.09-0.015-0.181-0.029-0.272-0.041c-0.09-0.013-0.181-0.022-0.273-0.03c-0.105-0.011-0.216-0.017-0.325-0.021
					c-0.082-0.004-0.164-0.01-0.247-0.012c-0.186-0.002-0.374,0.002-0.567,0.013c-0.074,0.005-0.15,0.014-0.226,0.02
					c-0.137,0.013-0.274,0.026-0.413,0.046c-0.087,0.012-0.175,0.025-0.263,0.04c-0.143,0.024-0.289,0.054-0.437,0.087
					c-0.079,0.017-0.157,0.033-0.237,0.053c-0.223,0.057-0.447,0.12-0.677,0.195c-0.055,0.018-0.11,0.041-0.165,0.06
					c-0.186,0.065-0.371,0.136-0.562,0.214c-0.087,0.035-0.175,0.074-0.263,0.113c-0.17,0.075-0.34,0.158-0.514,0.244
					c-0.087,0.043-0.174,0.085-0.261,0.131c-0.235,0.125-0.474,0.258-0.715,0.404c-0.021,0.014-0.041,0.022-0.062,0.035
					c-0.41,0.252-0.779,0.505-1.126,0.758c-0.053,0.038-0.108,0.076-0.159,0.113c-0.315,0.237-0.603,0.473-0.866,0.706
					c-0.058,0.053-0.113,0.103-0.17,0.155c-0.249,0.229-0.478,0.457-0.681,0.684c-0.043,0.046-0.08,0.094-0.121,0.14
					c-0.195,0.227-0.376,0.452-0.53,0.673c-0.019,0.026-0.034,0.051-0.051,0.076c-0.146,0.215-0.271,0.428-0.384,0.637
					c-0.023,0.045-0.051,0.092-0.072,0.135c-0.104,0.208-0.189,0.411-0.264,0.61c-0.021,0.055-0.04,0.107-0.059,0.161
					c-0.064,0.191-0.118,0.379-0.157,0.562c-0.013,0.053-0.021,0.104-0.03,0.156c-0.029,0.163-0.053,0.323-0.066,0.479
					c-0.006,0.062-0.009,0.121-0.012,0.182c-0.006,0.129-0.008,0.254-0.005,0.375c0.001,0.064,0.002,0.129,0.006,0.191
					c0,0-4.616-0.714-9.057,4.129c-2.267,2.477-3.581,5.049-4.133,7.62c-0.219,1.019-0.312,2.036-0.3,3.048
					c0.019,1.428,0.247,2.841,0.672,4.226l-30.987,14.505l-13.618,6.375l1.137,2.329l0.503,1.035l-9.387,4.571l0.003,0.005v0.001
					l-1.297,5.592l-0.691,2.979l-45.776,24.066l0.001,0.003l0,0l0.105,0.216l0.176,0.362v0.002l-0.729,0.357l-0.003-0.006
					l0.003-0.002l-0.274-0.559l-36.075,19.182l-12.197,6.486c-0.061,0.028-0.103,0.076-0.154,0.114
					c-0.243,0.176-0.392,0.432-0.423,0.713c-0.021,0.179-0.011,0.36,0.073,0.532c0.242,0.496,0.861,0.694,1.381,0.44l49.971-22.175
					v-0.003l0,0l-0.016-0.026l-0.259-0.535l0.73-0.354l0.281,0.578l0.004-0.001v0.003l47.173-21.197l0.596,0.277l7.378,3.444
					l-0.002-0.001l9.392-4.57l-0.005-0.008l0,0l0.005,0.008l2.117,4.341l0.272,0.562l35.123-17.103l0.005,0.005
					c-2.316,5.003-0.45,10.354,4.098,18.994c4.547,8.641,10.808,17.588,12.858,19.711c0.123,0.127,0.232,0.258,0.333,0.391
					c0.005,0.007,0.013,0.012,0.018,0.02c0.104,0.139,0.194,0.28,0.276,0.425c0.002,0.002,0.004,0.004,0.004,0.005
					c1.163,2.054,0.295,4.776-0.002,8.105c-0.34,3.804-1.08,8.639,1.41,11.399c2.307,2.552,2.447,4.532,2.547,7.274
					c0.008,0.224,0.018,0.449,0.025,0.685c0.008,0.239,0.018,0.442,0.025,0.655c0.062,1.525,0.145,2.457,0.491,3.104
					c0.019,0.03,0.042,0.055,0.061,0.084c0.066,0.111,0.138,0.221,0.224,0.319c0.033,0.037,0.08,0.069,0.117,0.104
					c0.084,0.084,0.164,0.166,0.268,0.242c0.008,0.006,0.021,0.014,0.029,0.018c0.139,0.103,0.293,0.199,0.469,0.295
					c0.879,0.479,1.521,0.982,1.912,1.326c0.281,0.248,0.435,0.414,0.435,0.414s-0.593,2.104,2.557,1.777
					c0.039-0.005,0.1-0.016,0.144-0.021c0.118-0.014,0.248-0.031,0.391-0.053c0.1-0.016,0.198-0.029,0.312-0.05
					c0.176-0.028,0.367-0.063,0.57-0.104c0.13-0.022,0.265-0.051,0.405-0.077c0.231-0.048,0.476-0.099,0.734-0.155
					c0.147-0.031,0.304-0.066,0.46-0.104c0.246-0.055,0.502-0.113,0.771-0.18c0.179-0.041,0.361-0.086,0.55-0.133
					c0.149-0.035,0.296-0.07,0.451-0.109c-0.009,0-0.019,0.004-0.028,0.004c5.054-1.264,13.141-3.735,22.377-7.435
					c1.202-0.481,2.414-0.976,3.649-1.497c0.59-0.25,1.172-0.502,1.753-0.756c14.104-6.158,25.396-13.368,26.482-14.129
					C435.351,185.93,435.498,185.085,434.935,184.319z"/>
			</g>
			<g>
				<polygon fill="#CCCCCC" points="284.167,151.867 124.551,157.493 124.551,50.538 131.589,45.544 				"/>
				<g>
					<g>
						<g>
							<path fill="#FFFFFF" d="M286.101,149.935c0,1.062-0.871,1.933-1.935,1.933H131.589c-1.062,0-1.933-0.871-1.933-1.933V47.478
								c0-1.062,0.869-1.934,1.933-1.934h152.578c1.062,0,1.935,0.871,1.935,1.934V149.935L286.101,149.935z"/>
						</g>
						
							<linearGradient id="SVGID_3_" gradientUnits="userSpaceOnUse" x1="138.0159" y1="308.9683" x2="294.4617" y2="308.9683" gradientTransform="matrix(1 0 0 -1 -8.3599 407.6748)">
							<stop  offset="0" style="stop-color:#C6E9FA"/>
							<stop  offset="0.9967" style="stop-color:#A0C3E7"/>
						</linearGradient>
						<path opacity="0.8" fill="url(#SVGID_3_)" enable-background="new    " d="M286.101,149.935c0,1.062-0.871,1.933-1.935,1.933
							H131.589c-1.062,0-1.933-0.871-1.933-1.933V47.478c0-1.062,0.869-1.934,1.933-1.934h152.578c1.062,0,1.935,0.871,1.935,1.934
							V149.935L286.101,149.935z"/>
						<path fill="none" stroke="#000000" stroke-linecap="round" stroke-linejoin="round" stroke-miterlimit="10" d="
							M286.101,149.935c0,1.062-0.871,1.933-1.935,1.933H131.589c-1.062,0-1.933-0.871-1.933-1.933V47.478
							c0-1.062,0.869-1.934,1.933-1.934h152.578c1.062,0,1.935,0.871,1.935,1.934V149.935L286.101,149.935z"/>
						
							<linearGradient id="SVGID_4_" gradientUnits="userSpaceOnUse" x1="142.7395" y1="308.9683" x2="289.7371" y2="308.9683" gradientTransform="matrix(1 0 0 -1 -8.3599 407.6748)">
							<stop  offset="0" style="stop-color:#C6E9FA"/>
							<stop  offset="0.9967" style="stop-color:#A4C2D1"/>
						</linearGradient>
						
							<rect x="134.38" y="49.454" opacity="0.8" fill="url(#SVGID_4_)" enable-background="new    " width="146.998" height="98.504"/>
						
							<linearGradient id="SVGID_5_" gradientUnits="userSpaceOnUse" x1="141.2922" y1="308.9692" x2="291.1843" y2="308.9692" gradientTransform="matrix(1 0 0 -1 -8.3599 407.6748)">
							<stop  offset="0" style="stop-color:#C6E9FA"/>
							<stop  offset="0.9967" style="stop-color:#A0C3E7"/>
						</linearGradient>
						<path opacity="0.8" fill="url(#SVGID_5_)" enable-background="new    " d="M142.546,48.629c-1.062,0-2.548,0.614-3.299,1.365
							l-4.948,4.949c-0.751,0.752-1.366,2.237-1.366,3.3v88.607c0,1.063,0.87,1.933,1.932,1.933h146.027
							c1.062,0,1.933-0.869,1.933-1.933V50.562c0-1.064-0.87-1.934-1.933-1.934L142.546,48.629L142.546,48.629z"/>
						<path fill="none" stroke="#000000" stroke-linecap="round" stroke-linejoin="round" stroke-miterlimit="10" d="
							M142.546,48.629c-1.062,0-2.548,0.614-3.299,1.365l-4.948,4.949c-0.751,0.752-1.366,2.237-1.366,3.3v88.607
							c0,1.063,0.87,1.933,1.932,1.933h146.027c1.062,0,1.933-0.869,1.933-1.933V50.562c0-1.064-0.87-1.934-1.933-1.934
							L142.546,48.629L142.546,48.629z"/>
						<path fill="#C6E9FA" d="M137.602,144.939V59.588c0-0.451,0.364-1.33,0.684-1.648l4.783-4.783
							c0.319-0.319,1.197-0.684,1.647-0.684h133.438v92.467L137.602,144.939L137.602,144.939z"/>
						<g>
							<g>
								
									<circle fill="#FFFFFF" stroke="#000000" stroke-linecap="round" stroke-linejoin="round" stroke-miterlimit="10" cx="151.47" cy="131.167" r="15.635"/>
								
									<linearGradient id="SVGID_6_" gradientUnits="userSpaceOnUse" x1="144.9749" y1="276.5073" x2="174.6848" y2="276.5073" gradientTransform="matrix(1 0 0 -1 -8.3599 407.6748)">
									<stop  offset="0" style="stop-color:#C6E9FA"/>
									<stop  offset="0.9967" style="stop-color:#A0C3E7"/>
								</linearGradient>
								<circle fill="url(#SVGID_6_)" cx="151.47" cy="131.167" r="14.855"/>
								<circle fill="#C6E9FA" cx="151.471" cy="131.168" r="12.182"/>
							</g>
							<g>
								
									<circle fill="#FFFFFF" stroke="#000000" stroke-linecap="round" stroke-linejoin="round" stroke-miterlimit="10" cx="189.076" cy="131.167" r="15.634"/>
								
									<linearGradient id="SVGID_7_" gradientUnits="userSpaceOnUse" x1="182.5803" y1="276.5073" x2="212.2898" y2="276.5073" gradientTransform="matrix(1 0 0 -1 -8.3599 407.6748)">
									<stop  offset="0" style="stop-color:#C6E9FA"/>
									<stop  offset="0.9967" style="stop-color:#A0C3E7"/>
								</linearGradient>
								<circle fill="url(#SVGID_7_)" cx="189.075" cy="131.167" r="14.855"/>
								<circle fill="#C6E9FA" cx="189.076" cy="131.168" r="12.182"/>
							</g>
							<g>
								
									<circle fill="#FFFFFF" stroke="#000000" stroke-linecap="round" stroke-linejoin="round" stroke-miterlimit="10" cx="226.681" cy="131.167" r="15.634"/>
								
									<linearGradient id="SVGID_8_" gradientUnits="userSpaceOnUse" x1="220.1863" y1="276.5073" x2="249.8953" y2="276.5073" gradientTransform="matrix(1 0 0 -1 -8.3599 407.6748)">
									<stop  offset="0" style="stop-color:#C6E9FA"/>
									<stop  offset="0.9967" style="stop-color:#A0C3E7"/>
								</linearGradient>
								<circle fill="url(#SVGID_8_)" cx="226.681" cy="131.167" r="14.855"/>
								<circle fill="#C6E9FA" cx="226.681" cy="131.168" r="12.182"/>
							</g>
							<g>
								
									<circle fill="#FFFFFF" stroke="#000000" stroke-linecap="round" stroke-linejoin="round" stroke-miterlimit="10" cx="264.286" cy="131.167" r="15.634"/>
								
									<linearGradient id="SVGID_9_" gradientUnits="userSpaceOnUse" x1="257.7898" y1="276.5073" x2="287.5007" y2="276.5073" gradientTransform="matrix(1 0 0 -1 -8.3599 407.6748)">
									<stop  offset="0" style="stop-color:#C6E9FA"/>
									<stop  offset="0.9967" style="stop-color:#A0C3E7"/>
								</linearGradient>
								<circle fill="url(#SVGID_9_)" cx="264.285" cy="131.167" r="14.856"/>
								<circle fill="#C6E9FA" cx="264.286" cy="131.168" r="12.182"/>
							</g>
						</g>
						<g>
							<g>
								
									<circle fill="#FFFFFF" stroke="#000000" stroke-linecap="round" stroke-linejoin="round" stroke-miterlimit="10" cx="151.47" cy="98.282" r="15.634"/>
								
									<linearGradient id="SVGID_10_" gradientUnits="userSpaceOnUse" x1="144.9739" y1="309.394" x2="174.6858" y2="309.394" gradientTransform="matrix(1 0 0 -1 -8.3599 407.6748)">
									<stop  offset="0" style="stop-color:#C6E9FA"/>
									<stop  offset="0.9967" style="stop-color:#A0C3E7"/>
								</linearGradient>
								<circle fill="url(#SVGID_10_)" cx="151.47" cy="98.281" r="14.856"/>
								<circle fill="#C6E9FA" cx="151.471" cy="98.282" r="12.182"/>
							</g>
							<g>
								
									<circle fill="#FFFFFF" stroke="#000000" stroke-linecap="round" stroke-linejoin="round" stroke-miterlimit="10" cx="189.076" cy="98.282" r="15.633"/>
								
									<linearGradient id="SVGID_11_" gradientUnits="userSpaceOnUse" x1="182.5793" y1="309.394" x2="212.2917" y2="309.394" gradientTransform="matrix(1 0 0 -1 -8.3599 407.6748)">
									<stop  offset="0" style="stop-color:#C6E9FA"/>
									<stop  offset="0.9967" style="stop-color:#A0C3E7"/>
								</linearGradient>
								<circle fill="url(#SVGID_11_)" cx="189.075" cy="98.281" r="14.856"/>
								<circle fill="#C6E9FA" cx="189.075" cy="98.282" r="12.182"/>
							</g>
							<g>
								
									<circle fill="#FFFFFF" stroke="#000000" stroke-linecap="round" stroke-linejoin="round" stroke-miterlimit="10" cx="226.681" cy="98.282" r="15.634"/>
								
									<linearGradient id="SVGID_12_" gradientUnits="userSpaceOnUse" x1="220.1863" y1="309.394" x2="249.8953" y2="309.394" gradientTransform="matrix(1 0 0 -1 -8.3599 407.6748)">
									<stop  offset="0" style="stop-color:#C6E9FA"/>
									<stop  offset="0.9967" style="stop-color:#A0C3E7"/>
								</linearGradient>
								<circle fill="url(#SVGID_12_)" cx="226.681" cy="98.281" r="14.855"/>
								<circle fill="#C6E9FA" cx="226.681" cy="98.282" r="12.182"/>
							</g>
							<g>
								
									<circle fill="#FFFFFF" stroke="#000000" stroke-linecap="round" stroke-linejoin="round" stroke-miterlimit="10" cx="264.286" cy="98.282" r="15.634"/>
								
									<linearGradient id="SVGID_13_" gradientUnits="userSpaceOnUse" x1="257.7898" y1="309.394" x2="287.5007" y2="309.394" gradientTransform="matrix(1 0 0 -1 -8.3599 407.6748)">
									<stop  offset="0" style="stop-color:#C6E9FA"/>
									<stop  offset="0.9967" style="stop-color:#A0C3E7"/>
								</linearGradient>
								<circle fill="url(#SVGID_13_)" cx="264.285" cy="98.281" r="14.856"/>
								<circle fill="#C6E9FA" cx="264.286" cy="98.282" r="12.182"/>
							</g>
						</g>
						<g>
							<g>
								
									<circle fill="#FFFFFF" stroke="#000000" stroke-linecap="round" stroke-linejoin="round" stroke-miterlimit="10" cx="151.47" cy="65.396" r="15.635"/>
								
									<linearGradient id="SVGID_14_" gradientUnits="userSpaceOnUse" x1="144.9749" y1="342.2798" x2="174.6848" y2="342.2798" gradientTransform="matrix(1 0 0 -1 -8.3599 407.6748)">
									<stop  offset="0" style="stop-color:#C6E9FA"/>
									<stop  offset="0.9967" style="stop-color:#A0C3E7"/>
								</linearGradient>
								<circle fill="url(#SVGID_14_)" cx="151.47" cy="65.395" r="14.855"/>
								<path fill="#C6E9FA" d="M161.885,71.715c-3.49,5.753-10.983,7.585-16.734,4.095c-5.751-3.489-7.583-10.982-4.093-16.735
									c3.49-5.749,10.982-7.582,16.733-4.092C163.542,58.474,165.375,65.964,161.885,71.715z"/>
							</g>
							<g>
								
									<circle fill="#FFFFFF" stroke="#000000" stroke-linecap="round" stroke-linejoin="round" stroke-miterlimit="10" cx="189.076" cy="65.396" r="15.634"/>
								
									<linearGradient id="SVGID_15_" gradientUnits="userSpaceOnUse" x1="182.5803" y1="342.2798" x2="212.2898" y2="342.2798" gradientTransform="matrix(1 0 0 -1 -8.3599 407.6748)">
									<stop  offset="0" style="stop-color:#C6E9FA"/>
									<stop  offset="0.9967" style="stop-color:#A0C3E7"/>
								</linearGradient>
								<circle fill="url(#SVGID_15_)" cx="189.075" cy="65.395" r="14.855"/>
								<path fill="#C6E9FA" d="M199.489,71.715C196,77.468,188.507,79.3,182.755,75.81c-5.752-3.489-7.583-10.982-4.094-16.735
									c3.491-5.749,10.982-7.582,16.733-4.092C201.146,58.474,202.979,65.964,199.489,71.715z"/>
							</g>
							<g>
								
									<circle fill="#FFFFFF" stroke="#000000" stroke-linecap="round" stroke-linejoin="round" stroke-miterlimit="10" cx="226.681" cy="65.396" r="15.635"/>
								
									<linearGradient id="SVGID_16_" gradientUnits="userSpaceOnUse" x1="220.1863" y1="342.2798" x2="249.8953" y2="342.2798" gradientTransform="matrix(1 0 0 -1 -8.3599 407.6748)">
									<stop  offset="0" style="stop-color:#C6E9FA"/>
									<stop  offset="0.9967" style="stop-color:#A0C3E7"/>
								</linearGradient>
								<circle fill="url(#SVGID_16_)" cx="226.681" cy="65.395" r="14.855"/>
								<path fill="#C6E9FA" d="M237.095,71.715c-3.492,5.753-10.983,7.585-16.734,4.095c-5.752-3.489-7.584-10.982-4.094-16.735
									c3.489-5.749,10.981-7.582,16.733-4.092C238.753,58.474,240.585,65.964,237.095,71.715z"/>
							</g>
							<g>
								
									<circle fill="#FFFFFF" stroke="#000000" stroke-linecap="round" stroke-linejoin="round" stroke-miterlimit="10" cx="264.286" cy="65.396" r="15.635"/>
								
									<linearGradient id="SVGID_17_" gradientUnits="userSpaceOnUse" x1="257.7898" y1="342.2798" x2="287.5007" y2="342.2798" gradientTransform="matrix(1 0 0 -1 -8.3599 407.6748)">
									<stop  offset="0" style="stop-color:#C6E9FA"/>
									<stop  offset="0.9967" style="stop-color:#A0C3E7"/>
								</linearGradient>
								<circle fill="url(#SVGID_17_)" cx="264.285" cy="65.395" r="14.856"/>
								<path fill="#C6E9FA" d="M274.7,71.715c-3.492,5.753-10.984,7.585-16.734,4.095c-5.752-3.489-7.584-10.982-4.094-16.735
									c3.49-5.749,10.982-7.582,16.733-4.092C276.357,58.474,278.19,65.964,274.7,71.715z"/>
							</g>
						</g>
					</g>
					<g>
						<path fill="#DDDDDD" d="M139.395,102.145c-0.287-1.193,0.789-2.476,2.404-2.866l18.113-4.368
							c1.618-0.39,3.161,0.263,3.448,1.455c0.288,1.194-0.788,2.476-2.405,2.867l-18.114,4.368
							C141.226,103.988,139.683,103.34,139.395,102.145z"/>
						<path fill="#FFFFFF" d="M154.944,98.396c-0.159-0.661,0.435-1.37,1.33-1.586l3.996-0.965c0.893-0.217,1.747,0.146,1.904,0.806
							c0.161,0.659-0.437,1.368-1.328,1.585l-3.996,0.963C155.955,99.417,155.104,99.053,154.944,98.396z"/>
						<path fill="none" stroke="#000000" stroke-linecap="round" stroke-linejoin="round" stroke-miterlimit="10" d="
							M139.395,102.145c-0.287-1.193,0.789-2.476,2.404-2.866l18.113-4.368c1.618-0.39,3.161,0.263,3.448,1.455
							c0.288,1.194-0.788,2.476-2.405,2.867l-18.114,4.368C141.226,103.988,139.683,103.34,139.395,102.145z"/>
					</g>
					<g>
						<path fill="#DDDDDD" d="M252.304,102.145c-0.287-1.193,0.788-2.476,2.404-2.866l18.113-4.368
							c1.617-0.39,3.16,0.263,3.447,1.455c0.288,1.194-0.788,2.476-2.405,2.867l-18.113,4.368
							C254.134,103.988,252.591,103.34,252.304,102.145z"/>
						<path fill="#FFFFFF" d="M267.851,98.396c-0.158-0.661,0.436-1.37,1.332-1.586l3.996-0.965
							c0.893-0.217,1.745,0.146,1.903,0.806c0.161,0.659-0.438,1.368-1.329,1.585l-3.995,0.963
							C268.864,99.417,268.013,99.053,267.851,98.396z"/>
						<path fill="none" stroke="#000000" stroke-linecap="round" stroke-linejoin="round" stroke-miterlimit="10" d="
							M252.304,102.145c-0.287-1.193,0.788-2.476,2.404-2.866l18.113-4.368c1.617-0.39,3.16,0.263,3.447,1.455
							c0.288,1.194-0.788,2.476-2.405,2.867l-18.113,4.368C254.134,103.988,252.591,103.34,252.304,102.145z"/>
					</g>
					<g>
						<path fill="#DDDDDD" d="M180.5,108.109c-0.882-0.857-0.659-2.514,0.499-3.709l12.961-13.385
							c1.158-1.194,2.811-1.471,3.691-0.616c0.883,0.854,0.66,2.514-0.497,3.709l-12.962,13.386
							C183.034,108.686,181.383,108.964,180.5,108.109z"/>
						<path fill="#FFFFFF" d="M191.627,96.622c-0.486-0.474-0.364-1.391,0.275-2.052l2.859-2.955c0.639-0.66,1.553-0.812,2.039-0.34
							c0.489,0.473,0.364,1.391-0.273,2.051l-2.859,2.953C193.028,96.941,192.115,97.09,191.627,96.622z"/>
						<path fill="none" stroke="#000000" stroke-linecap="round" stroke-linejoin="round" stroke-miterlimit="10" d="M180.5,108.109
							c-0.882-0.857-0.659-2.514,0.499-3.709l12.961-13.385c1.158-1.194,2.811-1.471,3.691-0.616
							c0.883,0.854,0.66,2.514-0.497,3.709l-12.962,13.386C183.034,108.686,181.383,108.964,180.5,108.109z"/>
					</g>
					<g>
						<path fill="#DDDDDD" d="M215.687,93.681c0.559-1.097,2.207-1.372,3.688-0.621l16.621,8.424
							c1.482,0.753,2.234,2.248,1.68,3.343c-0.556,1.097-2.205,1.374-3.689,0.623l-16.62-8.426
							C215.885,96.271,215.132,94.776,215.687,93.681z"/>
						<path fill="#FFFFFF" d="M229.952,100.914c0.31-0.607,1.22-0.762,2.041-0.346l3.668,1.859c0.818,0.413,1.234,1.241,0.927,1.848
							c-0.306,0.605-1.221,0.759-2.04,0.344l-3.665-1.858C230.062,102.345,229.647,101.516,229.952,100.914z"/>
						<path fill="none" stroke="#000000" stroke-linecap="round" stroke-linejoin="round" stroke-miterlimit="10" d="
							M215.687,93.681c0.559-1.097,2.207-1.372,3.688-0.621l16.621,8.424c1.482,0.753,2.234,2.248,1.68,3.343
							c-0.556,1.097-2.205,1.374-3.689,0.623l-16.62-8.426C215.885,96.271,215.132,94.776,215.687,93.681z"/>
					</g>
					<circle opacity="0.8" fill="#D94732" enable-background="new    " cx="264.286" cy="98.282" r="13.603"/>
					<circle opacity="0.8" fill="#D94732" enable-background="new    " cx="226.681" cy="98.282" r="13.603"/>
					<circle opacity="0.8" fill="#D94732" enable-background="new    " cx="189.076" cy="98.282" r="13.603"/>
					<circle opacity="0.8" fill="#D94732" enable-background="new    " cx="151.471" cy="98.282" r="13.604"/>
				</g>
			</g>
			<g>
				<polygon fill="#CCCCCC" points="281.944,334.278 122.328,339.904 122.328,232.949 129.366,227.955 				"/>
				<g>
					<g>
						<g>
							<path fill="#FFFFFF" d="M283.547,332.346c0,1.063-0.869,1.933-1.933,1.933H129.036c-1.062,0-1.932-0.869-1.932-1.933V229.889
								c0-1.06,0.869-1.935,1.932-1.935h152.579c1.062,0,1.933,0.875,1.933,1.935L283.547,332.346L283.547,332.346z"/>
						</g>
						
							<linearGradient id="SVGID_18_" gradientUnits="userSpaceOnUse" x1="135.4641" y1="126.5581" x2="291.907" y2="126.5581" gradientTransform="matrix(1 0 0 -1 -8.3599 407.6748)">
							<stop  offset="0" style="stop-color:#C6E9FA"/>
							<stop  offset="0.9967" style="stop-color:#A4C2D1"/>
						</linearGradient>
						<path opacity="0.8" fill="url(#SVGID_18_)" enable-background="new    " d="M283.547,332.346c0,1.063-0.869,1.933-1.933,1.933
							H129.036c-1.062,0-1.932-0.869-1.932-1.933V229.889c0-1.06,0.869-1.935,1.932-1.935h152.579c1.062,0,1.933,0.875,1.933,1.935
							L283.547,332.346L283.547,332.346z"/>
						<path fill="none" stroke="#000000" stroke-linecap="round" stroke-linejoin="round" stroke-miterlimit="10" d="
							M283.547,332.346c0,1.063-0.869,1.933-1.933,1.933H129.036c-1.062,0-1.932-0.869-1.932-1.933V229.889
							c0-1.06,0.869-1.935,1.932-1.935h152.579c1.062,0,1.933,0.875,1.933,1.935L283.547,332.346L283.547,332.346z"/>
						
							<linearGradient id="SVGID_19_" gradientUnits="userSpaceOnUse" x1="140.1858" y1="126.5581" x2="287.1824" y2="126.5581" gradientTransform="matrix(1 0 0 -1 -8.3599 407.6748)">
							<stop  offset="0" style="stop-color:#C6E9FA"/>
							<stop  offset="0.9967" style="stop-color:#A4C2D1"/>
						</linearGradient>
						
							<rect x="131.826" y="231.865" opacity="0.8" fill="url(#SVGID_19_)" enable-background="new    " width="146.997" height="98.504"/>
						
							<linearGradient id="SVGID_20_" gradientUnits="userSpaceOnUse" x1="138.7375" y1="126.5586" x2="288.6316" y2="126.5586" gradientTransform="matrix(1 0 0 -1 -8.3599 407.6748)">
							<stop  offset="0" style="stop-color:#C6E9FA"/>
							<stop  offset="0.9967" style="stop-color:#A4C2D1"/>
						</linearGradient>
						<path opacity="0.8" fill="url(#SVGID_20_)" enable-background="new    " d="M139.993,231.041
							c-1.062,0-2.548,0.612-3.301,1.365l-4.946,4.948c-0.752,0.752-1.368,2.235-1.368,3.299v88.608c0,1.062,0.87,1.933,1.934,1.933
							h146.026c1.063,0,1.934-0.868,1.934-1.933V232.97c0-1.061-0.869-1.932-1.934-1.932H139.993V231.041z"/>
						<path fill="none" stroke="#000000" stroke-linecap="round" stroke-linejoin="round" stroke-miterlimit="10" d="
							M139.993,231.041c-1.062,0-2.548,0.612-3.301,1.365l-4.946,4.948c-0.752,0.752-1.368,2.235-1.368,3.299v88.608
							c0,1.062,0.87,1.933,1.934,1.933h146.026c1.063,0,1.934-0.868,1.934-1.933V232.97c0-1.061-0.869-1.932-1.934-1.932H139.993
							V231.041z"/>
						<path fill="#C6E9FA" d="M135.049,327.352V242c0-0.451,0.363-1.33,0.684-1.648l4.784-4.785c0.318-0.316,1.196-0.68,1.646-0.68
							h133.438v92.466H135.049z"/>
						<g>
							
								<circle fill="#FFFFFF" stroke="#000000" stroke-linecap="round" stroke-linejoin="round" stroke-miterlimit="10" cx="155.894" cy="258.859" r="22.264"/>
							
								<linearGradient id="SVGID_21_" gradientUnits="userSpaceOnUse" x1="143.0959" y1="148.8169" x2="185.4128" y2="148.8169" gradientTransform="matrix(1 0 0 -1 -8.3599 407.6748)">
								<stop  offset="0" style="stop-color:#C6E9FA"/>
								<stop  offset="0.9967" style="stop-color:#A4C2D1"/>
							</linearGradient>
							<path fill="url(#SVGID_21_)" d="M173.979,269.833c-6.062,9.988-19.073,13.172-29.062,7.108
								c-9.987-6.062-13.171-19.073-7.108-29.062c6.062-9.986,19.072-13.17,29.061-7.106
								C176.858,246.833,180.042,259.846,173.979,269.833z"/>
							<path fill="#C6E9FA" d="M170.33,267.619c-4.972,8.189-15.64,10.801-23.831,5.83c-8.189-4.973-10.801-15.642-5.831-23.832
								c4.972-8.188,15.641-10.8,23.831-5.828C172.69,248.759,175.3,259.429,170.33,267.619z"/>
							<path opacity="0.8" fill="#D94732" enable-background="new    " d="M163.279,254.906c4.491-0.904-15.116,0.344-19.7,2.241
								c-4.584,1.899-6.589,5.295-4.587,8.272c2.001,2.978,7.287,5.106,11.756,1.804c4.468-3.306,9.617-5.595,14.262-6.298
								c4.646-0.707,5.778-2.449,5.937-3.778c0.159-1.325-4.738,0.735-9.48,2.877c-4.741,2.14-15.731,5.574-16.593,3.272
								C144.01,260.998,146.127,258.352,163.279,254.906z"/>
						</g>
						<g>
							
								<circle fill="#FFFFFF" stroke="#000000" stroke-linecap="round" stroke-linejoin="round" stroke-miterlimit="10" cx="205.177" cy="258.859" r="22.264"/>
							
								<linearGradient id="SVGID_22_" gradientUnits="userSpaceOnUse" x1="192.3796" y1="148.8169" x2="234.696" y2="148.8169" gradientTransform="matrix(1 0 0 -1 -8.3599 407.6748)">
								<stop  offset="0" style="stop-color:#C6E9FA"/>
								<stop  offset="0.9967" style="stop-color:#A4C2D1"/>
							</linearGradient>
							<path fill="url(#SVGID_22_)" d="M223.263,269.833c-6.062,9.988-19.072,13.172-29.062,7.108
								c-9.989-6.062-13.171-19.073-7.107-29.062c6.062-9.986,19.071-13.17,29.061-7.106
								C226.142,246.833,229.325,259.846,223.263,269.833z"/>
							<path fill="#C6E9FA" d="M219.613,267.619c-4.971,8.189-15.64,10.801-23.83,5.83c-8.188-4.973-10.8-15.642-5.831-23.832
								c4.972-8.188,15.642-10.8,23.832-5.828C221.975,248.759,224.585,259.429,219.613,267.619z"/>
						</g>
						<g>
							
								<circle fill="#FFFFFF" stroke="#000000" stroke-linecap="round" stroke-linejoin="round" stroke-miterlimit="10" cx="254.462" cy="258.859" r="22.266"/>
							
								<linearGradient id="SVGID_23_" gradientUnits="userSpaceOnUse" x1="241.6638" y1="148.8169" x2="283.9802" y2="148.8169" gradientTransform="matrix(1 0 0 -1 -8.3599 407.6748)">
								<stop  offset="0" style="stop-color:#C6E9FA"/>
								<stop  offset="0.9967" style="stop-color:#A4C2D1"/>
							</linearGradient>
							<path fill="url(#SVGID_23_)" d="M272.547,269.833c-6.061,9.988-19.071,13.172-29.062,7.108
								c-9.986-6.062-13.17-19.073-7.108-29.062c6.063-9.986,19.073-13.17,29.062-7.106
								C275.425,246.833,278.609,259.846,272.547,269.833z"/>
							<path fill="#C6E9FA" d="M268.897,267.619c-4.972,8.189-15.642,10.801-23.831,5.83c-8.189-4.973-10.8-15.642-5.828-23.832
								c4.971-8.188,15.64-10.8,23.83-5.828C271.259,248.759,273.869,259.429,268.897,267.619z"/>
						</g>
						<g>
							<path fill="#FFFFFF" stroke="#000000" stroke-linecap="round" stroke-linejoin="round" stroke-miterlimit="10" d="
								M174.927,316.794c-6.381,10.512-20.073,13.863-30.586,7.479c-10.511-6.376-13.859-20.069-7.479-30.584
								c6.379-10.51,20.073-13.858,30.584-7.479C177.957,292.587,181.307,306.285,174.927,316.794z"/>
							
								<linearGradient id="SVGID_24_" gradientUnits="userSpaceOnUse" x1="143.0959" y1="102.4312" x2="185.4128" y2="102.4312" gradientTransform="matrix(1 0 0 -1 -8.3599 407.6748)">
								<stop  offset="0" style="stop-color:#C6E9FA"/>
								<stop  offset="0.9967" style="stop-color:#A4C2D1"/>
							</linearGradient>
							<path fill="url(#SVGID_24_)" d="M173.979,316.218c-6.062,9.99-19.073,13.171-29.062,7.109
								c-9.987-6.062-13.171-19.072-7.108-29.062c6.062-9.985,19.072-13.168,29.061-7.108
								C176.858,293.22,180.042,306.231,173.979,316.218z"/>
							<circle fill="#C6E9FA" cx="155.5" cy="305.004" r="17.348"/>
						</g>
						<g>
							<path fill="#FFFFFF" stroke="#000000" stroke-linecap="round" stroke-linejoin="round" stroke-miterlimit="10" d="
								M224.211,316.794c-6.38,10.512-20.071,13.863-30.584,7.479c-10.512-6.376-13.86-20.069-7.481-30.584
								c6.38-10.51,20.074-13.858,30.585-7.479C227.241,292.587,230.591,306.285,224.211,316.794z"/>
							
								<linearGradient id="SVGID_25_" gradientUnits="userSpaceOnUse" x1="192.3796" y1="102.4312" x2="234.696" y2="102.4312" gradientTransform="matrix(1 0 0 -1 -8.3599 407.6748)">
								<stop  offset="0" style="stop-color:#C6E9FA"/>
								<stop  offset="0.9967" style="stop-color:#A4C2D1"/>
							</linearGradient>
							<path fill="url(#SVGID_25_)" d="M223.263,316.218c-6.062,9.99-19.072,13.171-29.062,7.109
								c-9.989-6.062-13.171-19.072-7.107-29.062c6.062-9.985,19.071-13.168,29.061-7.108
								C226.142,293.22,229.325,306.231,223.263,316.218z"/>
							<circle fill="#C6E9FA" cx="204.783" cy="305.004" r="17.348"/>
						</g>
						<g>
							<path fill="#FFFFFF" stroke="#000000" stroke-linecap="round" stroke-linejoin="round" stroke-miterlimit="10" d="
								M273.496,316.794c-6.38,10.512-20.073,13.863-30.585,7.479c-10.512-6.376-13.861-20.069-7.481-30.584
								c6.38-10.51,20.073-13.858,30.586-7.479C276.525,292.587,279.876,306.285,273.496,316.794z"/>
							
								<linearGradient id="SVGID_26_" gradientUnits="userSpaceOnUse" x1="241.6638" y1="102.4312" x2="283.9802" y2="102.4312" gradientTransform="matrix(1 0 0 -1 -8.3599 407.6748)">
								<stop  offset="0" style="stop-color:#C6E9FA"/>
								<stop  offset="0.9967" style="stop-color:#A4C2D1"/>
							</linearGradient>
							<path fill="url(#SVGID_26_)" d="M272.547,316.218c-6.061,9.99-19.071,13.171-29.062,7.109
								c-9.986-6.062-13.17-19.072-7.108-29.062c6.063-9.985,19.073-13.168,29.062-7.108
								C275.425,293.22,278.609,306.231,272.547,316.218z"/>
							<circle fill="#C6E9FA" cx="254.068" cy="305.004" r="17.347"/>
						</g>
					</g>
					<g>
						<path fill="#DDDDDD" d="M139.887,262.625c-0.374-1.557,1.028-3.227,3.133-3.734l23.598-5.693
							c2.106-0.505,4.118,0.342,4.491,1.896c0.375,1.557-1.027,3.229-3.133,3.736l-23.599,5.689
							C142.273,265.027,140.263,264.177,139.887,262.625z"/>
						<path fill="#FFFFFF" d="M160.144,257.74c-0.208-0.859,0.566-1.783,1.732-2.066l5.206-1.258
							c1.162-0.279,2.275,0.192,2.482,1.051c0.208,0.859-0.57,1.783-1.732,2.064l-5.205,1.254
							C161.462,259.068,160.352,258.599,160.144,257.74z"/>
						<path fill="none" stroke="#000000" stroke-linecap="round" stroke-linejoin="round" stroke-miterlimit="10" d="
							M139.887,262.625c-0.374-1.557,1.028-3.227,3.133-3.734l23.598-5.693c2.106-0.505,4.118,0.342,4.491,1.896
							c0.375,1.557-1.027,3.229-3.133,3.736l-23.599,5.689C142.273,265.027,140.263,264.177,139.887,262.625z"/>
					</g>
				</g>
			</g>
			<g>
				<g>
					<g>
						<g id="XMLID_44_">
							<g>
								<path id="changecolor_1_" fill="#CEEEFB" d="M256.187,143.309l3.446-3.744l0.64,0.554l0.596-0.686l0.476,0.41
									l-37.394,39.887c-0.378,0.435-1.027,0.492-1.438,0.129c-0.418-0.362-0.448-1.015-0.064-1.446l34.465-42.439l0.472,0.408
									l-0.603,0.693l0.623,0.546l-3.248,3.916L256.187,143.309z"/>
								<polygon fill="#BBBBBB" points="297.089,101.351 261.893,139.244 261.407,138.819 257.917,135.772 257.432,135.347 
									290.224,95.354 								"/>
								<polygon fill="#BBBBBB" points="305.882,101.673 297.089,101.351 290.224,95.354 288.716,86.686 								"/>
								<polygon fill="#BBBBBB" points="312.753,93.809 305.882,101.673 288.716,86.686 295.585,78.82 308.772,90.334 								"/>
								<polygon fill="#CCCCCC" points="310.37,91.729 308.772,90.334 295.585,78.82 288.716,86.686 303.501,99.593 								"/>
								<path fill="#FFFFFF" d="M399.557-18.859l-9.942,11.383l-0.018,0.017c-0.439-0.402-0.895-0.814-1.373-1.229
									c-1.285-1.124-2.503-2.115-3.641-2.976l10.04-11.5L399.557-18.859z"/>
								<path fill="#D0D2D3" d="M400.422-18.104l-9.98,11.433c-0.268-0.262-0.549-0.524-0.844-0.79l0.018-0.015l9.943-11.384
									L400.422-18.104z"/>
								<polygon fill="#0091C7" points="395.215,4.425 394.133,5.664 387.483,13.28 382.937,9.31 390.667,0.454 								"/>
								<polygon fill="#00ADEE" points="401.271,5.745 399.307,7.997 395.215,4.425 390.667,0.454 392.632,-1.796 								"/>
								<path fill="#00ADEE" d="M405.05-19.964l-2.919,3.35l-1.708-1.49l-0.864-0.756l-4.935-4.304l-1.707-1.491l4.162-4.768
									l6.101,5.317l0.016,0.017c0.49,0.535,0.945,0.967,1.273,1.305C404.469-22.784,404.68-21.626,405.05-19.964z"/>
								<polygon fill="#A6A8AB" points="338.269,48.546 321.877,67.325 318.338,64.231 334.728,45.454 								"/>
								<polygon fill="#FFFFFF" points="321.876,67.323 337.526,49.392 334.69,46.964 319.038,64.895 								"/>
								<path fill="#D0D2D3" d="M389.07,14.668l-24.429,27.986l-0.023,0.024L348.43,61.231l-5.878,6.729l-25.689,29.432
									l-4.109-3.583l-3.979-3.477l83.291-95.416c0.648,0.663,1.244,1.295,1.782,1.892l-1.214,1.396l-1.965,2.251l-7.73,8.854
									l4.547,3.972L389.07,14.668z"/>
								<path fill="#E6E7E8" d="M375.386-17.212c1.375,0.557,4.655,2.088,9.196,5.549c1.14,0.86,2.355,1.851,3.642,2.975
									c0.479,0.414,0.934,0.826,1.373,1.229c0.295,0.264,0.576,0.527,0.844,0.789c0.576,0.548,1.118,1.073,1.621,1.588
									l-83.289,95.418L295.585,78.82l-2.828-2.465l32.956-36.602l5.075-5.64c1.241,0.133,2.89,0.233,4.987,0.199
									c5.648-0.087,9.13-6.978,9.13-6.978c4.707,3.495,8.572,2.831,11.918-1.058c3.344-3.891,0.547-7.819,0.547-7.819
									c3.279,1.144,8.949-0.382,11.123-5.005c1.941-4.127-2.393-9.296-3.354-10.365c-0.018-0.018-0.025-0.035-0.041-0.052
									c-0.029-0.039-0.06-0.077-0.09-0.124c1.472,0.85,5.591-0.336,7.254-2.7c1.683-2.396,4.468-9.724-2.142-17.13
									c-0.739-0.732-1.493-1.377-2.25-1.945c-4.106-3.061-8.467-3.837-12.227-3.012c-1.418,0.255-2.572,0.164-2.807-0.729
									c-0.216-0.814,0.377-1.716,2.157-2.496c5.576-2.063,11.918-1.195,16.545,2.839C373.194-20.81,374.477-19.088,375.386-17.212
									z M321.877,67.325l16.393-18.779l-3.541-3.092l-16.391,18.777L321.877,67.325z"/>
								<path fill="#C4D2D2" d="M368.491,13.454c1.943-4.128-2.393-9.297-3.354-10.367c-0.017-0.016-0.024-0.033-0.041-0.051
									c-0.091-0.098-0.141-0.148-0.141-0.148c0.016,0.01,0.029,0.019,0.053,0.025c1.471,0.849,5.59-0.336,7.254-2.701
									c1.682-2.395,4.467-9.724-2.144-17.131c-0.738-0.73-1.493-1.376-2.249-1.943l-0.019,0.029
									c-4.101-2.571-8.586-2.881-12.377,0.486c-2.969,2.634-3.553,5.57-3.262,7.91c-0.269-0.041-7.367-1.111-11.048,4.691
									c-3.75,5.918-0.166,10.928-0.166,10.928l-0.015,0.052c-2.206-0.56-5.939-0.59-9.151,3.901
									c-2.797,3.92-2.502,6.561-1.727,8.105c0,0-4.531,1.141-6.734,7.33c-2.194,6.186-0.916,11.304,2.339,15.183l5.074-5.641
									c1.241,0.133,2.891,0.234,4.988,0.2c5.647-0.088,9.13-6.978,9.13-6.978c4.705,3.495,8.572,2.831,11.918-1.059
									c3.344-3.89,0.547-7.818,0.547-7.818C360.647,19.602,366.317,18.076,368.491,13.454z"/>
								<path fill="#B1BFBF" d="M404.872,11.587c-4.721,4.118-8.799,5.707-15.579,10.531c-6.767,4.812-19.974,15.486-24.65,20.536
									l24.429-27.986l-1.587-1.388l6.648-7.616C394.133,5.664,401.636,13.147,404.872,11.587z"/>
								<path fill="#C4D2D2" d="M404.872,11.587c0.892-0.434,2.105-2.169,3.037-4.175c1.082-2.31,1.794-4.973,1.229-6.396
									c-1.058-2.658,1.592-7.169-0.683-10.773c-1.481-2.342-2.72-7.131-3.406-10.207c-0.369-1.662-0.581-2.82-0.581-2.82
									c-0.328-0.338-0.781-0.77-1.273-1.305l-0.016-0.017c-1.488-1.619-3.263-4.163-2.597-7.827c0.89-4.89,4.523-6.65,5.682-5.872
									c3.957,2.66,8.85,9.904,10.788,12.025c1.935,2.117,9.558,4.722,11.163,8.817c1.607,4.092,1.326,19.883,1.966,26.095
									c0.641,6.209,0.244,10.313-2.288,15.805c-1.505,3.259-3.649,9.364-4.864,15.22c-0.004,0.005-0.001,0.013-0.004,0.018
									c-0.099,0.465-0.186,0.922-0.269,1.383c0.001,0.02-0.008,0.043-0.015,0.064c-0.629,3.488-0.878,6.794-0.396,9.232
									c1.345,6.829,1.844,9.506,2.407,11.491c0.57,1.989-0.538,2.02,1.09,3.766c1.628,1.747,6.788,4.804,6.216,5.716
									s7.426,3.205,6.396,4.558c0,0-0.003,0.005,0.002,0.007c0.081,0.105,1.039,1.338,2.604,1.626
									c1.627,0.294,2.213,1.388,1.479,2.559c-0.733,1.171-8.934,13.088-20.209,24.708c-11.281,11.62-21.726,19.586-24.493,21.113
									c-2.775,1.528-3.048-0.641-3.048-0.641s-1.126-0.52-2.838-0.687c-1.707-0.165-2.117-0.968-3.43-3.789
									c-1.316-2.817-2.098-4.759-5.469-6.327c-3.368-1.57-4.57-6.314-5.738-9.949c-1.169-3.637-1.34-6.834-4.061-7.995
									c-2.718-1.157-11.97-6.96-19.521-13.147c-7.552-6.188-11.354-10.39-11.17-15.898l-0.01-0.007l5.877-6.728l16.188-18.553
									l0.023-0.025c4.678-5.049,17.885-15.724,24.649-20.535C396.073,17.295,400.151,15.706,404.872,11.587z"/>
							</g>
						</g>
					</g>
					<path fill="#0091C7" d="M403.194-24.089l-0.016-0.017l-3.373-2.939c0.562,1.729,1.453,4.146,2.458,5.695l-2.35,2.803
						l0.507,0.442l1.708,1.491l2.92-3.35c-0.369-1.662-0.581-2.82-0.581-2.82C404.14-23.122,403.687-23.554,403.194-24.089z"/>
					<path fill="#B1BFBF" d="M365.138,3.087c-0.017-0.016-0.024-0.033-0.04-0.052c-0.092-0.097-0.142-0.147-0.142-0.147
						c0.016,0.01,0.029,0.019,0.053,0.025c1.471,0.849,5.59-0.336,7.254-2.701c0.773-1.104,1.778-3.252,1.997-5.973
						c-0.393-2.289-0.989-3.752-1.346-2.694c-0.784,2.341-5.347,5.659-7.372,5.465c-2.029-0.192-5.566-5.287-9.082-8.093
						c-1.997-1.592-2.601-3.74-2.748-5.301c-1.437,2.063-1.72,4.176-1.497,5.945c-0.229-0.035-5.419-0.814-9.227,2.551l0.001-0.001
						c2.417-2.069,4.165-1.355,6.133-1.201c1.969,0.155,5.188,2.544,7.475,4.292c2.285,1.746,4.412,4.242,6.138,6.284
						c1.727,2.043,4.021,5.997,3.576,8.235c-0.446,2.238-4.454,5.958-7.507,6.081c-3.056,0.122-11.46-7.187-12.515-7.608
						c-1.055-0.422-0.872,1.011,3.326,4.004c4.199,2.993,5.044,6.162,6.381,8.079c1.336,1.916-2.998,7.231-5.637,7.615
						c-2.637,0.383-5.152-1.915-7.725-3.528c-2.573-1.613-8.744-4.045-8.744-4.045c2.287,3.232,6.838,5.729,6.258,6.973
						c-0.579,1.246-2.013,4.801-8.193,5.479c-6.182,0.68-7.43-6.696-8.758-4.771c-1.326,1.926,4.29,4.248,3.805,5.022
						c-0.484,0.773-3.863-1.105-2.819-0.091c1.042,1.014,2.646,0.94,4.218,0.728c1.572-0.213-0.367,0.969-2.693,1.429
						c-1.201,0.236-2.35-0.839-3.181-1.934c0.467,2.484,1.586,4.69,3.187,6.596l5.074-5.639c1.241,0.132,2.891,0.234,4.988,0.199
						c5.647-0.087,9.132-6.979,9.132-6.979c4.705,3.496,8.57,2.832,11.915-1.057s0.55-7.819,0.55-7.819
						c3.277,1.144,8.947-0.382,11.12-5.004C370.435,9.325,366.099,4.157,365.138,3.087z"/>
					<path fill="#B1BFBF" d="M408.674,8.551c0.455-2.119,6.392-6.706,6.219-9.22c-0.174-2.513-5.271,4.567-5.676,1.032
						c-0.408-3.535,9.258-7.094,9.026-9.862c-0.231-2.769-6.188,1.148-7.795-1.17c-1.604-2.318-3.485-5.248-3.719-8.018
						c-0.23-2.769-0.638-6.303-3.678-8.429c-1.244-0.87-2.043-2.271-2.599-3.675c-0.153,3.056,1.396,5.241,2.726,6.687l0.016,0.017
						c0.49,0.534,0.945,0.965,1.271,1.305c0,0,0.213,1.158,0.582,2.82c0.688,3.076,1.926,7.866,3.406,10.206
						c2.274,3.604-0.376,8.116,0.682,10.775c0.565,1.421-0.146,4.084-1.228,6.395c-0.933,2.006-2.146,3.741-3.039,4.174
						c-4.719,4.118-8.799,5.708-15.577,10.531c-6.71,4.771-19.74,15.299-24.523,20.401c7.721-6.881,16.179-14.213,19.469-16.275
						c5.406-3.389,15.271-7.262,17.568-9.536C404.108,14.435,408.219,10.671,408.674,8.551z"/>
					<g>
						<path fill="#B1BFBF" d="M397.301,126.051c-2.965,0.546,0.063-3.239,2.855-6.298c2.793-3.06,11.345-9.721,14.491-12.996
							c3.148-3.275,13.334-13.941,9.027-9.862c-4.306,4.077-11.521,8.955-15.218,12.76c-3.696,3.803-11.641,10.191-15.372,10.912
							c-3.73,0.721-3.255-2.479-5.273-4.839c-2.02-2.36-8.043-4.607-7.566-7.807c0.476-3.199,6.602-2.855,9.275-4.679
							c2.672-1.823,16.557-16.292,15.083-15.686c-1.474,0.607-7.395,7.608-10.638,9.292c-3.242,1.683-13.681,8.912-15.129,6.691
							c-1.449-2.223-2.725-3.676-1.171-5.106c1.555-1.43,8.373-5.682,3.6-3.647c-4.774,2.036-5.578,0.875-13.956-2.849
							c-8.379-3.724-18.475-15.521-19.505-21.196c-1.032-5.678,5.955-16.819,11.751-19.087c5.797-2.27,10.945-5.601,13.25-9.621
							c2.303-4.022,18.604-20.255,18.604-20.255l-0.949-0.478c-0.382,0.262-0.77,0.533-1.17,0.817
							c-6.767,4.812-19.973,15.487-24.65,20.537l-0.022,0.024l-16.188,18.553l-5.876,6.728l0.009,0.007
							c-0.188,5.51,3.617,9.713,11.169,15.899c7.553,6.188,16.805,11.99,19.521,13.147c2.721,1.16,2.893,4.357,4.062,7.994
							c1.169,3.636,2.37,8.377,5.737,9.95c3.371,1.569,4.151,3.509,5.469,6.327c1.312,2.821,1.723,3.622,3.43,3.788
							c1.713,0.168,2.84,0.687,2.84,0.687s0.271,2.168,3.047,0.641c0.781-0.432,2.175-1.375,4.024-2.769
							C399.756,125.007,398.119,125.899,397.301,126.051z"/>
						<path fill="#B1BFBF" d="M438.457,76.395c-0.005-0.003-0.002-0.008-0.002-0.008c0.469-0.616-0.938-1.427-2.551-2.215
							c0.468,0.334,0.897,0.747,1.255,1.223c1.548,2.063-5.927,10.495-4.313,9.319c1.61-1.176,4.346-4.489,5.133-5.744
							c0.788-1.257,1.591-0.096,3.24,0.062c0.903,0.088,1.19,0.843,1.174,1.773c0.062-0.095,0.115-0.175,0.146-0.227
							c0.734-1.171,0.148-2.265-1.479-2.559C439.495,77.732,438.538,76.499,438.457,76.395z"/>
						<path fill="#B1BFBF" d="M420.396,58.542c0.306,5.439,3.128,8.958,2.888,11.431c-0.237,2.474,0.126,8.169-1.843,11.309
							c-1.968,3.139-7.631,8.333-10.129,10.921c-2.497,2.588-9.03,11.61-5.413,8.631c3.617-2.978,11.502-9.623,13.627-12.664
							c2.125-3.039,10.11-11.588,11.646-13.687c0.805-1.1,1.983-1.358,3.148-1.062c-1.37-0.65-2.489-1.229-2.262-1.591
							c0.572-0.913-4.589-3.971-6.217-5.716c-1.628-1.746-0.519-1.775-1.088-3.765c-0.566-1.986-1.063-4.663-2.408-11.492
							c-0.481-2.438-0.231-5.744,0.396-9.232c0.008-0.021,0.017-0.045,0.015-0.063c0.084-0.462,0.171-0.92,0.27-1.383
							c0.003-0.006,0.002-0.014,0.004-0.018c0.497-2.396,1.15-4.829,1.852-7.096C421.274,42.341,420.135,53.87,420.396,58.542z"/>
					</g>
				</g>
				<g>
					<path fill="none" stroke="#000000" stroke-linecap="round" stroke-linejoin="round" stroke-miterlimit="10" d="M394.132,5.663
						c0,0,7.509,7.482,10.738,5.925c1.925-0.929,5.326-7.912,4.271-10.569c-1.055-2.658,1.592-7.168-0.685-10.773
						c-2.275-3.605-3.989-13.027-3.989-13.027c-1.316-1.37-4.769-4.26-3.879-9.148c0.886-4.887,4.522-6.652,5.68-5.874
						c3.955,2.661,8.85,9.904,10.785,12.026c1.938,2.121,9.561,4.725,11.166,8.817c1.606,4.094,1.321,19.884,1.965,26.095
						c0.642,6.209,0.244,10.315-2.291,15.803c-2.533,5.488-6.889,19.088-5.547,25.918c1.342,6.832,1.844,9.506,2.41,11.494
						c0.566,1.989-0.541,2.02,1.087,3.766c1.626,1.747,6.788,4.801,6.216,5.714c-0.572,0.911,7.426,3.206,6.396,4.557
						c0,0,0.977,1.337,2.604,1.633s2.215,1.389,1.48,2.562c-0.736,1.172-8.935,13.088-20.215,24.707
						c-11.277,11.618-21.722,19.589-24.492,21.116c-2.772,1.526-3.046-0.642-3.046-0.642s-1.125-0.523-2.836-0.688
						s-2.116-0.965-3.434-3.786c-1.315-2.82-2.095-4.762-5.465-6.331c-3.372-1.569-4.57-6.315-5.738-9.95
						c-1.168-3.635-1.342-6.828-4.062-7.991c-2.721-1.161-11.969-6.96-19.521-13.147c-7.551-6.188-11.359-10.392-11.172-15.9"/>
					<path fill="none" stroke="#000000" stroke-linecap="round" stroke-linejoin="round" stroke-miterlimit="10" d="M373.255,97.014
						c3.109,1.407,6.96,0.19,6.96,0.19"/>
					<path fill="none" stroke="#000000" stroke-linecap="round" stroke-linejoin="round" stroke-miterlimit="10" d="M380.299,104.88
						c0,0,1.715-1.286,5.748-1.93c4.033-0.647,7.521-0.999,10.655-3.391"/>
					<path fill="none" stroke="#000000" stroke-linecap="round" stroke-linejoin="round" stroke-miterlimit="10" d="M423.029,40.162
						c-0.675,3.995-3.05,11.571-2.974,15.792c0.074,4.222-0.846,9.45-0.846,9.45"/>
					<path fill="none" stroke="#000000" stroke-linecap="round" stroke-linejoin="round" stroke-miterlimit="10" d="M424.756,62.349
						c0.146,2.04-1.425,4.006-3.156,7.639c-1.733,3.632-13.199,20.756-17.086,25.941s-10.166,9.414-9.24,10.539"/>
					<path fill="none" stroke="#000000" stroke-linecap="round" stroke-linejoin="round" stroke-miterlimit="10" d="M404.013,98.337
						c1.77-0.522,16.558-16.292,19.563-21.664"/>
					<path fill="none" stroke="#000000" stroke-linecap="round" stroke-linejoin="round" stroke-miterlimit="10" d="M438.456,76.385
						c-0.133,1.369-1.11,1.481-4.715,3.757S420.614,95.866,413.129,99.7"/>
					<path fill="none" stroke="#000000" stroke-linecap="round" stroke-linejoin="round" stroke-miterlimit="10" d="M432.059,71.828
						c-0.883,1.987-2.29,5.097-5.311,8.466"/>
					<path fill="none" stroke="#000000" stroke-linecap="round" stroke-linejoin="round" stroke-miterlimit="10" d="M439.836,79.973
						c0,0-13.781,18.214-22.87,25.763c-9.088,7.547-9.315,13.758-22.697,17.703"/>
					<path fill="none" stroke="#000000" stroke-linecap="round" stroke-linejoin="round" stroke-miterlimit="10" d="M364.62,42.684
						c4.657-5.042,17.896-15.745,24.677-20.565c6.777-4.822,10.854-6.411,15.573-10.53"/>
					<path fill="none" stroke="#000000" stroke-linecap="round" stroke-linejoin="round" stroke-miterlimit="10" d="M392.044,20.729
						c-3.187,2.835-13.838,14.848-19.312,25.688"/>
					<path fill="none" stroke="#000000" stroke-linecap="round" stroke-linejoin="round" stroke-miterlimit="10" d="M370.606,44.187
						c0,0-11.027,4.977-22.176,17.045"/>
					<path fill="none" stroke="#000000" stroke-linecap="round" stroke-linejoin="round" stroke-miterlimit="10" d="M367.856-18.833
						c-4.104-2.573-8.589-2.881-12.381,0.486c-3.793,3.365-3.687,7.215-2.857,9.695"/>
					<path fill="none" stroke="#000000" stroke-linecap="round" stroke-linejoin="round" stroke-miterlimit="10" d="M352.22-10.435
						c0,0-7.302-1.224-11.052,4.689c-3.752,5.915-0.17,10.928-0.17,10.928"/>
					<path fill="none" stroke="#000000" stroke-linecap="round" stroke-linejoin="round" stroke-miterlimit="10" d="M342.883,5.979
						c0,0-6.14-3.711-11.047,3.157c-4.909,6.87-0.298,9.815-0.298,9.815"/>
					<path fill="none" stroke="#000000" stroke-linecap="round" stroke-linejoin="round" stroke-miterlimit="10" d="M330.106,17.245
						c0,0-4.531,1.138-6.729,7.325c-2.2,6.187-0.921,11.307,2.334,15.181"/>
					<path fill="none" stroke="#000000" stroke-linecap="round" stroke-linejoin="round" stroke-miterlimit="10" d="M353.052-7.813
						c0,0,1.658,2.062,5.102,3.955c3.441,1.891,5.396,4.9,6.986,6.945"/>
					<path fill="none" stroke="#000000" stroke-linecap="round" stroke-linejoin="round" stroke-miterlimit="10" d="M344.57,7.423
						c0,0,3.29,2.455,4.63,4.168c1.343,1.713,5.614,5.594,8.172,6.865"/>
					<path fill="none" stroke="#000000" stroke-linecap="round" stroke-linejoin="round" stroke-miterlimit="10" d="M333.153,19.966
						c0,0,3.954,1.281,6.543,1.966c2.59,0.685,6.483,2.435,5.211,5.404"/>
					<path fill="none" stroke="#000000" stroke-linecap="round" stroke-linejoin="round" stroke-miterlimit="10" d="M343.034,24.724
						c0,0-2.367,1.116-3.475,4.063"/>
					<path fill="none" stroke="#000000" stroke-linecap="round" stroke-linejoin="round" stroke-miterlimit="10" d="M357.11,20.366
						c0,0-3.223,2.369-4.791,6.148"/>
					<path fill="none" stroke="#000000" stroke-linecap="round" stroke-linejoin="round" stroke-miterlimit="10" d="M367.551,9.166
						c0,0-1.825,5.384-5.767,7.405"/>
					<path fill="none" stroke="#000000" stroke-linecap="round" stroke-linejoin="round" stroke-miterlimit="10" d="M373.004-6.469
						c0,0-0.707,3.573-3.784,6.033"/>
					<path fill="none" stroke="#000000" stroke-linecap="round" stroke-linejoin="round" stroke-miterlimit="10" d="M346.872-3.802
						c0,0-4.069,2.611-4.725,9.427"/>
					<path fill="none" stroke="#000000" stroke-linecap="round" stroke-linejoin="round" stroke-miterlimit="10" d="M335.263,10.869
						c0,0-4.213,4.291-4.296,7.589"/>
					<path fill="none" stroke="#000000" stroke-linecap="round" stroke-linejoin="round" stroke-miterlimit="10" d="M407.011,9.065
						c1.431-2.938,6.819-10.993,9.666-13.97"/>
					<path fill="none" stroke="#000000" stroke-linecap="round" stroke-linejoin="round" stroke-miterlimit="10" d="M404.389,13.832
						c1.04-0.572,9.132-11.47,14.509-13.563"/>
					<g>
						
							<rect x="386.068" y="0.992" transform="matrix(0.7534 0.6576 -0.6576 0.7534 100.4637 -254.1502)" fill="none" stroke="#000000" stroke-linecap="round" stroke-linejoin="round" stroke-miterlimit="10" width="6.036" height="11.759"/>
						
							<rect x="390.23" y="1.6" transform="matrix(0.7533 0.6577 -0.6577 0.7533 99.7212 -259.6571)" fill="none" stroke="#000000" stroke-linecap="round" stroke-linejoin="round" stroke-miterlimit="10" width="11.47" height="2.986"/>
						<path fill="none" stroke="#000000" stroke-linecap="round" stroke-linejoin="round" stroke-miterlimit="10" d="
							M327.763,33.552c0,0,2.37,0.85,8.016,0.761c5.646-0.089,9.129-6.977,9.129-6.977c4.705,3.495,8.568,2.832,11.916-1.058
							c3.347-3.89,0.549-7.822,0.549-7.822c3.273,1.146,8.948-0.377,11.122-5.002c2.175-4.624-3.537-10.565-3.537-10.565
							c1.434,0.898,5.623-0.285,7.307-2.679c1.682-2.393,4.464-9.721-2.144-17.129c-4.721-4.659-10.018-5.933-14.474-4.957
							c-1.421,0.255-2.575,0.166-2.81-0.727c-0.214-0.812,0.379-1.717,2.161-2.496c5.57-2.064,11.917-1.196,16.543,2.841
							c1.656,1.446,2.938,3.169,3.845,5.046c1.719,0.695,6.414,2.913,12.842,8.523c2.312,2.019,4.158,3.874,5.617,5.497
							L382.934,9.31l6.14,5.36l-72.21,82.723L292.76,76.355l38.027-42.241"/>
						<polyline fill="none" stroke="#000000" stroke-linecap="round" stroke-linejoin="round" stroke-miterlimit="10" points="
							390.444,-6.673 400.424,-18.103 394.624,-23.165 384.586,-11.663 						"/>
						<polyline fill="none" stroke="#000000" stroke-linecap="round" stroke-linejoin="round" stroke-miterlimit="10" points="
							405.051,-19.961 402.129,-16.613 392.921,-24.653 397.081,-29.423 403.194,-24.089 						"/>
						
							<rect x="289.333" y="85.013" transform="matrix(0.7533 0.6577 -0.6577 0.7533 133.5394 -175.5227)" fill="none" stroke="#000000" stroke-linecap="round" stroke-linejoin="round" stroke-miterlimit="10" width="22.789" height="10.445"/>
						<polygon fill="none" stroke="#000000" stroke-linecap="round" stroke-linejoin="round" stroke-miterlimit="10" points="
							305.885,101.674 288.717,86.688 290.224,95.356 297.091,101.351 						"/>
						<polygon fill="none" stroke="#000000" stroke-linecap="round" stroke-linejoin="round" stroke-miterlimit="10" points="
							261.897,139.244 257.433,135.349 290.224,95.356 297.091,101.351 						"/>
						<polygon fill="#666666" stroke="#000000" stroke-linecap="round" stroke-linejoin="round" stroke-miterlimit="10" points="
							261.411,138.818 257.921,135.773 256.784,137.077 257.407,137.619 254.157,141.539 256.188,143.312 259.634,139.562 
							260.272,140.121 						"/>
						<path fill="none" stroke="#000000" stroke-linecap="round" stroke-linejoin="round" stroke-miterlimit="10" d="
							M256.913,135.976l-34.469,42.437c-0.379,0.436-0.352,1.086,0.065,1.448c0.416,0.363,1.062,0.305,1.443-0.131l37.392-39.885
							L256.913,135.976z"/>
						
							<line fill="none" stroke="#000000" stroke-linecap="round" stroke-linejoin="round" stroke-miterlimit="10" x1="392.063" y1="-5.083" x2="308.772" y2="90.333"/>
						
							<rect x="325.942" y="43.927" transform="matrix(0.7533 0.6577 -0.6577 0.7533 118.0873 -202.0081)" fill="none" stroke="#000000" stroke-linecap="round" stroke-linejoin="round" stroke-miterlimit="10" width="4.701" height="24.926"/>
						
							<line fill="none" stroke="#000000" stroke-linecap="round" stroke-linejoin="round" stroke-miterlimit="10" x1="399.556" y1="-18.86" x2="389.616" y2="-7.476"/>
					</g>
					<path fill="none" stroke="#000000" stroke-linecap="round" stroke-linejoin="round" stroke-miterlimit="10" d="M375.385-17.211
						c0,0,0.792,1.658,2.118,2.425"/>
				</g>
			</g>
			<g>
				<g>
					<g>
						<polygon fill="#FCDCCE" points="40.422,255.565 9.195,295.485 32.874,338.964 42.278,339.304 79.505,276.724 						"/>
						<path fill="#F1C3B3" d="M38.086,339.152l4.192,0.151l37.227-62.58l-39.083-21.158l-31.227,39.92l0.794,1.459
							c5.129-6.081,13.496-15.923,16.591-19.118c4.592-4.742,20.8,5.905,27.553,12.062c6.754,6.155,4.322,14.53-1.08,23.983
							C49.859,319.462,43.088,330.808,38.086,339.152z"/>
						<polygon fill="none" stroke="#000000" stroke-linecap="round" stroke-linejoin="round" stroke-miterlimit="10" points="
							40.422,255.565 9.195,295.485 32.874,338.964 42.278,339.304 79.505,276.724 						"/>
					</g>
					<g>
						<g>
							<path fill="#C4D2D2" d="M109.938,156.85c0,0,10.667,0.752,14.958,5.105c4.29,4.354,16.536,17.486,19.785,21.007
								c3.25,3.519,6.837,22.284,5.664,24.833c-1.176,2.549-6.723,3.82-10.516,1.927c2.04,7.95-1.132,13.022-4.735,13.62
								s-8.735-1.411-8.735-1.411s-2.961,4.099-10.6-0.729c-9.882,0.555-14.745-3.589-14.993-3.82
								c-0.248-0.234-24.651-11.486-24.651-11.486l10.701-28.366L109.938,156.85z"/>
							<g>
								<path fill="#B1BFBF" d="M121.677,169.151c0,0-0.108,0.199-0.288,0.532C121.594,169.354,121.677,169.151,121.677,169.151z"/>
								<path fill="#B1BFBF" d="M100.766,217.38c0.249,0.231,5.11,4.375,14.993,3.82c7.639,4.828,10.601,0.729,10.601,0.729
									s2.235,0.875,4.792,1.299c0.001-0.002,0.001-0.002,0.002-0.002c-5.167-4.121-2.189-11.403-2.189-11.403l2.335-17.007
									c0,0,0.462-4.822-0.739-6.716s-3.789-1.747-3.789-1.747s-1.089-2.562-2.577-3.122c-1.487-0.562-2.049-3.864-2.049-3.864
									s-1.201,0.225-1.826-0.148c-0.626-0.374,2.619-6.136,1.953-7.322c-0.666-1.184-3.939,5.988-4.375,5.46
									c-0.365-0.446,2.546-5.925,3.493-7.673c-0.542,0.859-1.951,2.592-5.106,3.906c-4.363,1.818-15.331-5.876-15.331-5.876
									l-4.375,4.923l-11.173,25.326l-0.573,11.059l14.855,7.818C100.346,217.158,100.735,217.349,100.766,217.38z"/>
							</g>
							<path fill="none" stroke="#000000" stroke-linecap="round" stroke-linejoin="round" stroke-miterlimit="10" d="
								M109.938,156.85c0,0,10.667,0.752,14.958,5.105c4.29,4.354,16.536,17.486,19.785,21.007
								c3.25,3.519,6.837,22.284,5.664,24.833c-1.176,2.549-6.723,3.82-10.516,1.927c2.04,7.95-1.132,13.022-4.735,13.62
								s-8.735-1.411-8.735-1.411s-2.961,4.099-10.6-0.729c-9.882,0.555-14.745-3.589-14.993-3.82
								c-0.248-0.234-24.651-11.486-24.651-11.486l10.701-28.366L109.938,156.85z"/>
							<path fill="none" stroke="#000000" stroke-linecap="round" stroke-linejoin="round" stroke-miterlimit="10" d="
								M140.649,210.07c0,0-7.952-6.146-9.738-9.275c-1.788-3.131-7.925-11.5-8.94-11.966c-1.016-0.469-2.693-0.163-2.917-1.344
								c-0.227-1.184-1.535-3.016-2.362-3.552c-0.831-0.537-3.711-2.632-3.711-2.632s-18.23-0.686-22.196-2.23"/>
							<path fill="none" stroke="#000000" stroke-linecap="round" stroke-linejoin="round" stroke-miterlimit="10" d="
								M126.359,221.93c0,0-5.705-7.562-8.252-11.044c-2.547-3.479-8.164-11.991-9.373-14.203c-1.209-2.209-5.747-5.378-7.086-6.149
								c-1.334-0.77-4.438-2.047-4.438-2.047l-9.29-3.205"/>
							<path fill="none" stroke="#000000" stroke-linecap="round" stroke-linejoin="round" stroke-miterlimit="10" d="
								M112.98,181.301c0,0,1.801,0.008,3.423-1.948c1.621-1.953,5.302-7.788,5.868-7.456c0.568,0.335-1.387,8.709-4.597,8.855"/>
							<path fill="none" stroke="#000000" stroke-linecap="round" stroke-linejoin="round" stroke-miterlimit="10" d="
								M115.306,182.973c0,0,5.104-1.071,8.034-4.936"/>
							<path fill="none" stroke="#000000" stroke-linecap="round" stroke-linejoin="round" stroke-miterlimit="10" d="
								M121.971,188.828c0,0,3.454,0.062,6.17-4.258"/>
							<path fill="none" stroke="#000000" stroke-linecap="round" stroke-linejoin="round" stroke-miterlimit="10" d="
								M105.328,191.453c0,0,5.651-0.334,6.888-7.123"/>
							<path fill="none" stroke="#000000" stroke-linecap="round" stroke-linejoin="round" stroke-miterlimit="10" d="
								M109.269,186.424c0,0-0.659,4.559-5.573,4.275"/>
						</g>
						<g>
							<path fill="#C4D2D2" d="M52.895,172.523c-2.611,1.643-3.342,3.47-3.342,3.47s-2.635,1.804-3.479,5.406
								c-2.712,3.782-3.227,7.872-3.972,12.462c-0.743,4.59-0.587,17.465-1.195,33.289c-0.606,15.826-6.701,35.212-8.032,38.042
								c0,0-5.071,3.488-1.946,5.502c3.128,2.011,18.526,17.294,42.423,17.388c0,0,25.251-15.565,39.913-35.526
								c14.66-19.959,15.545-26.252,16.352-27.618c0.806-1.365,0.949-2.178,0.949-2.178s1.766-1.805,1.624-2.875
								c-0.139-1.069-0.373-3.635,0.119-4.747c0.489-1.116,1.059-1.882,1.061-2.937c0.001-1.055,1.354-4.404,2.626-6.225
								c1.272-1.82,1.809-5.695,1.809-5.695s2.399-1.621,2.599-2.398c0.2-0.777,0.2-0.777,0.2-0.777s0.971-0.807,1.288-1.883
								c0.316-1.077,3.255-6.346,4.067-7.256c0.812-0.909,4.118-5.341,6.933-9.71c2.812-4.37,3.512-9.198-1.088-12.008
								c0,0,12.854-7.622-2.839-12.013c0,0-5.564-1.374-13.091-1.705c-7.525-0.333-16.384-0.603-20.789,0.802
								c-4.403,1.402-10.997,3.056-10.997,3.056c-0.811-0.107-24.764,9.952-32.284,10.461
								C64.277,167.357,57.613,169.555,52.895,172.523z M95.881,195.673c0,0,4.099-4.751,5.015-5.641
								c0.917-0.891,1.475-1.563,2.372-3.649c0.899-2.083,9.872-7.172,12.928-9.049c3.058-1.877,5.238-3.431,6.669-4.503
								c1.126,0.205,1.308-0.192,2.489-0.765c1.832,0.368,5.408-1.396,5.408-1.396c-6.415,6.293-17.637,25.091-17.637,25.091
								s-2.366,2.986-4.348,5.26c-1.979,2.273-4.884,4.027-6.956,3.8C99.746,204.596,95.881,195.673,95.881,195.673z"/>
							<g>
								<path fill="#B1BFBF" d="M127.014,152.267l-12.392,1.212c0.155-0.05,0.31-0.097,0.458-0.146
									C117.81,152.464,122.246,152.236,127.014,152.267z"/>
							</g>
							<g>
								<path fill="#B1BFBF" d="M82.644,204.386c-5.758-1.574,6.792-0.064,8.46-1.29c1.259-0.929-3.756-4.661-4.357-5.005
									c-2.86-1.646-5.76-3.245-8.695-4.77c-3.044-1.583-8.047-0.668-10.471-3.467c2.821-0.167,5.045-0.36,7.713,0.758
									c1.541,0.647,2.979,1.477,4.56,2.058c1.279,0.472,2.646,1.394,4.055,1.388c2.157-0.009,0.848-3.186,0.013-4.137
									c-2.067-2.362-5.202-3.855-7.807-5.533c-1.24-0.799-2.464-1.508-3.786-2.122c-1.489-0.692-3.357-1.019-4.714-1.994
									c1.918-0.998,4.737,0.955,6.307,1.966c1.975,1.271,3.874,2.65,5.858,3.903c1.483,0.937,3.695,2.73,5.483,2.362
									c1.32-0.273,2.375-1.075,2.469-2.482c0.084-1.244-0.728-3.996-1.72-4.773c2.4,1.879,2.775-0.219,2.775-0.219
									c3.1,3.845,10.903,5.493,13.494-3.883c6.772-1.589,17.185-3.869,20.729-11.47c0.34,0.747,2.255,1.234,3.313-1.272
									c3.147,1.138,22.748-0.957,25.378-3.509c-3.568,3.718-4.098,3.758-4.098,3.758s-8.6-1.59-17.117,6.295
									c0.094-0.094,0.187-0.188,0.277-0.277c0,0-3.577,1.765-5.409,1.398c-1.183,0.57-1.361,0.968-2.489,0.762
									c-1.431,1.072-3.613,2.627-6.669,4.504c-3.055,1.877-12.027,6.966-12.927,9.049c-0.898,2.085-1.455,2.759-2.372,3.65
									c-0.917,0.887-5.016,5.639-5.016,5.639s3.866,8.924,5.939,9.147C101.821,204.82,88.402,205.957,82.644,204.386z"/>
								<path fill="#B1BFBF" d="M124.699,178.065c-0.002,0.001-0.002,0.004-0.003,0.004c-1.682,2.697-3.457,5.247-5.241,7.63
									C121.097,183.199,122.907,180.533,124.699,178.065z"/>
							</g>
							<g>
								<path fill="#B1BFBF" d="M119.869,214.675c-0.1,0.015-0.156,0.021-0.156,0.021S119.77,214.689,119.869,214.675z"/>
								<path fill="#B1BFBF" d="M54.811,284.861l0.194-0.357c0,0,17.465,3.728,16.653-1.912c-4.497-0.543-9.181-1.438-9.183-1.438
									c6.02,1.149,17.947-2.338,21.83-7.215c-3.247-1.209-7.688-0.55-11.249-1.101c-7.781-1.205-18.062,0.412-24.681-4.735
									c2.85-1.149,6.303-0.058,9.382,0.29c2.889,0.326,5.897-0.077,8.739-0.165c3.368-0.103,6.605-0.3,9.937-0.571
									c7.041-0.574,13.91-0.168,19.771-4.84c10.301-8.206,20.081-20.902,24.527-33.326c-0.291,0.411-3.653-1.755-5.962-2.048
									c-2.306-0.292,7.279-2.205,10.384-5.019c3.104-2.809,3.908-6.657,0.733-7.428c-2.75-0.666-5.373-0.402-6.021-0.32
									c1.101-0.152,7.934-1.254,9.761-4.778c1.991-3.839-0.374-5.312,0.563-7.017c0.935-1.703,1.526-1.887,1.408-1.92
									c-0.116-0.031-2.285-1.562-1.458-1.896c0.825-0.332,2.359-1.847,0.601-3.229c2.408,0.377,3.188,0.83,3.34-0.041
									c0.153-0.871-3.87-3.567-3.154-4.915c0.714-1.347,5.837,2.411,6.843,1.325c1.005-1.085,1.501-5.812,2.514-8.575
									c1.015-2.762,4.417-4.906,8.395-9.004c3.978-4.101,4.292-6.503,2.536-8.719c0.305-0.109,0.703-0.117,1.168-0.041
									c-0.356,0.246-0.586,0.382-0.586,0.382c4.6,2.81,3.9,7.639,1.088,12.008c-2.814,4.37-6.12,8.801-6.933,9.711
									c-0.812,0.91-3.75,6.179-4.067,7.256c-0.316,1.077-1.287,1.884-1.287,1.884s0,0-0.201,0.777
									c-0.198,0.777-2.599,2.398-2.599,2.398s-0.535,3.875-1.807,5.695c-1.271,1.818-2.626,5.169-2.626,6.225
									c-0.002,1.053-0.57,1.818-1.062,2.936c-0.491,1.113-0.257,3.678-0.118,4.748c0.141,1.07-1.625,2.873-1.625,2.873
									s-0.145,0.812-0.949,2.179c-0.805,1.367-1.69,7.659-16.351,27.618c-14.662,19.959-39.913,35.527-39.913,35.527
									C66.424,288.054,60.216,286.746,54.811,284.861z"/>
							</g>
							<path fill="none" stroke="#000000" stroke-linecap="round" stroke-linejoin="round" stroke-miterlimit="10" d="
								M52.895,172.523c-2.611,1.643-3.342,3.47-3.342,3.47s-2.635,1.804-3.479,5.406c-2.712,3.782-3.227,7.872-3.972,12.462
								c-0.743,4.59-0.587,17.465-1.195,33.289c-0.606,15.826-6.701,35.212-8.032,38.042c0,0-5.071,3.488-1.946,5.502
								c3.128,2.011,18.526,17.294,42.423,17.388c0,0,25.251-15.565,39.913-35.526c14.66-19.959,15.545-26.252,16.352-27.618
								c0.806-1.365,0.949-2.178,0.949-2.178s1.766-1.805,1.624-2.875c-0.139-1.069-0.373-3.635,0.119-4.747
								c0.489-1.116,1.059-1.882,1.061-2.937c0.001-1.055,1.354-4.404,2.626-6.225c1.272-1.82,1.809-5.695,1.809-5.695
								s2.399-1.621,2.599-2.398c0.2-0.777,0.2-0.777,0.2-0.777s0.971-0.807,1.288-1.883c0.316-1.077,3.255-6.346,4.067-7.256
								c0.812-0.909,4.118-5.341,6.933-9.71c2.812-4.37,3.512-9.198-1.088-12.008c0,0,12.854-7.622-2.839-12.013
								c0,0-5.564-1.374-13.091-1.705c-7.525-0.333-16.384-0.603-20.789,0.802c-4.403,1.402-10.997,3.056-10.997,3.056
								c-0.811-0.107-24.764,9.952-32.284,10.461C64.277,167.357,57.613,169.555,52.895,172.523z M95.881,195.673
								c0,0,4.099-4.751,5.015-5.641c0.917-0.891,1.475-1.563,2.372-3.649c0.899-2.083,9.872-7.172,12.928-9.049
								c3.058-1.877,5.238-3.431,6.669-4.503c1.126,0.205,1.308-0.192,2.489-0.765c1.832,0.368,5.408-1.396,5.408-1.396
								c-6.415,6.293-17.637,25.091-17.637,25.091s-2.366,2.986-4.348,5.26c-1.979,2.273-4.884,4.027-6.956,3.8
								C99.746,204.596,95.881,195.673,95.881,195.673z"/>
							<path fill="none" stroke="#000000" stroke-linecap="round" stroke-linejoin="round" stroke-miterlimit="10" d="
								M130.761,170.669c0,0,11.01-10.882,21.039-4.421"/>
							<path fill="none" stroke="#000000" stroke-linecap="round" stroke-linejoin="round" stroke-miterlimit="10" d="
								M95.881,195.673c0,0-10.628-14.608-13.271-20.375"/>
							<path fill="none" stroke="#000000" stroke-linecap="round" stroke-linejoin="round" stroke-miterlimit="10" d="
								M92.177,160.894"/>
							<path fill="none" stroke="#000000" stroke-linecap="round" stroke-linejoin="round" stroke-miterlimit="10" d="
								M92.662,191.152c0,0-3.771-10.333-5.379-13.583"/>
							<path fill="none" stroke="#000000" stroke-linecap="round" stroke-linejoin="round" stroke-miterlimit="10" d="
								M103.419,186.114c0,0-0.712-10.224-2.544-13.694"/>
							<path fill="none" stroke="#000000" stroke-linecap="round" stroke-linejoin="round" stroke-miterlimit="10" d="
								M122.863,172.831c-0.006-0.45,1.66-5.218-0.42-9.219"/>
							<path fill="none" stroke="#000000" stroke-linecap="round" stroke-linejoin="round" stroke-miterlimit="10" d="
								M125.353,172.066c0,0,3.487-9.437-2.337-14.74"/>
							<path fill="none" stroke="#000000" stroke-linecap="round" stroke-linejoin="round" stroke-miterlimit="10" d="
								M119.896,150.019"/>
							<path fill="none" stroke="#000000" stroke-linecap="round" stroke-linejoin="round" stroke-miterlimit="10" d="
								M101.4,204.679c-0.154-0.104-11.379-5.266-15.048-7.555c-3.671-2.289-6.693-3.646-8.469-5.452"/>
							<path fill="none" stroke="#000000" stroke-linecap="round" stroke-linejoin="round" stroke-miterlimit="10" d="
								M99.38,202.376c0,0-8.018-7.094-11.697-10.055c-3.683-2.958-10.914-8.957-10.914-8.957"/>
							<path fill="none" stroke="#000000" stroke-linecap="round" stroke-linejoin="round" stroke-miterlimit="10" d="
								M140.601,197.104c0,0-3.926-2.983-5.83-4.411c-1.905-1.425-4.279-2.834-3.84-1.814c0.438,1.018,4.315,4.113,5.091,4.613"/>
							<path fill="none" stroke="#000000" stroke-linecap="round" stroke-linejoin="round" stroke-miterlimit="10" d="
								M124.351,191.36c0,0,8.416,6.833,13.451,8.921"/>
							<path fill="none" stroke="#000000" stroke-linecap="round" stroke-linejoin="round" stroke-miterlimit="10" d="
								M136.425,202.417c0,0-10.421-3.426-10.4-2.221"/>
							<path fill="none" stroke="#000000" stroke-linecap="round" stroke-linejoin="round" stroke-miterlimit="10" d="
								M142.091,190.545c0,0-1.203-7.713-5.008-10.924"/>
							<path fill="none" stroke="#000000" stroke-linecap="round" stroke-linejoin="round" stroke-miterlimit="10" d="
								M130.564,222.759c0,0-6.506,1.681-7.925,2.238"/>
							<path fill="none" stroke="#000000" stroke-linecap="round" stroke-linejoin="round" stroke-miterlimit="10" d="
								M131.039,214.314c0,0-8.972-1.141-14.412,1.395"/>
							<path fill="none" stroke="#000000" stroke-linecap="round" stroke-linejoin="round" stroke-miterlimit="10" d="
								M32.874,265.191c0,0,20.976,13.469,35.69,12.809"/>
							<path fill="none" stroke="#000000" stroke-linecap="round" stroke-linejoin="round" stroke-miterlimit="10" d="
								M34.907,259.302c0,0,3.519,12.683,28.111,11.119"/>
							<path fill="none" stroke="#000000" stroke-linecap="round" stroke-linejoin="round" stroke-miterlimit="10" d="
								M82.305,281.96c0,0-6.673,0.681-10.646,0.631c-3.973-0.055-16.535-3.074-16.535-3.074"/>
						</g>
						<g>
							<g>
								<g>
									<path fill="#666666" d="M220.804,192.901c0,0-8.222-10.736-9.75-12.506c-1.533-1.771-2.696-2.88-7.538-2.127
										c-4.839,0.753-14.391,1.468-23.587,0.546c-9.199-0.927-38.52-4.381-47.602-6.021c-9.083-1.641-47.497-11.025-54.448-13.14
										c-6.951-2.116-27.874-7.079-33.64-8.358c-5.771-1.28-23.047-3.977-28.02-5.515c-4.975-1.534-9.456-2.93-13.479-9.868
										c9.092-5.415,17.445-1.088,20.43-0.335c2.99,0.753,31.49,9.186,36.951,10.47c5.46,1.284,31.037,6.33,38.908,7.908
										s49.053,12.002,59.323,14.714c10.271,2.714,24.605,6.413,34.138,6.547c9.532,0.138,16.712-1.12,18.581,1.139
										C212.818,178.463,220.804,192.901,220.804,192.901z"/>
									<path fill="none" stroke="#000000" stroke-linecap="round" stroke-linejoin="round" stroke-miterlimit="10" d="
										M220.804,192.901c0,0-8.222-10.736-9.75-12.506c-1.533-1.771-2.696-2.88-7.538-2.127
										c-4.839,0.753-14.391,1.468-23.587,0.546c-9.199-0.927-38.52-4.381-47.602-6.021c-9.083-1.641-47.497-11.025-54.448-13.14
										c-6.951-2.116-27.874-7.079-33.64-8.358c-5.771-1.28-23.047-3.977-28.02-5.515c-4.975-1.534-9.456-2.93-13.479-9.868
										c9.092-5.415,17.445-1.088,20.43-0.335c2.99,0.753,31.49,9.186,36.951,10.47c5.46,1.284,31.037,6.33,38.908,7.908
										s49.053,12.002,59.323,14.714c10.271,2.714,24.605,6.413,34.138,6.547c9.532,0.138,16.712-1.12,18.581,1.139
										C212.818,178.463,220.804,192.901,220.804,192.901z"/>
									
										<line fill="none" stroke="#000000" stroke-linecap="round" stroke-linejoin="round" stroke-miterlimit="10" x1="59.966" y1="146.008" x2="58.225" y2="154.578"/>
								</g>
								
									<circle fill="#212121" stroke="#000000" stroke-linecap="round" stroke-linejoin="round" stroke-miterlimit="10" cx="150.125" cy="171.023" r="0.746"/>
							</g>
							<g>
								<path fill="#FFFFFF" d="M217.22,208.764c-1.414-0.265-2.271-2.03-1.912-3.942l4.006-21.458
									c0.358-1.915,1.793-3.252,3.206-2.987c1.416,0.265,2.271,2.027,1.914,3.943l-4.008,21.456
									C220.069,207.689,218.636,209.027,217.22,208.764z"/>
								<path id="changecolor" fill="#CEEEFB" d="M220.92,189.072c-1.261-0.242-2.727,1.882-3.272,4.745
									c-0.545,2.86,0.037,5.373,1.298,5.615c1.261,0.241,2.726-1.882,3.271-4.744C222.763,191.824,222.183,189.312,220.92,189.072
									z M222.561,180.361c-1.262-0.241-2.598,1.2-2.982,3.221c-0.385,2.022,0.325,3.851,1.588,4.094
									c1.262,0.242,2.597-1.201,2.981-3.222C224.534,182.434,223.822,180.602,222.561,180.361z"/>
								<path fill="none" stroke="#000000" stroke-linecap="round" stroke-linejoin="round" stroke-miterlimit="10" d="
									M217.22,208.764c-1.414-0.265-2.271-2.03-1.912-3.942l4.006-21.458c0.358-1.915,1.793-3.252,3.206-2.987
									c1.416,0.265,2.271,2.027,1.914,3.943l-4.008,21.456C220.069,207.689,218.636,209.027,217.22,208.764z"/>
							</g>
							<g>
								<g>
									<path fill="#9F9F9F" d="M219.871,196.354c0,0-8.05-10.861-9.552-12.658c-1.502-1.796-2.647-2.921-7.499-2.245
										c-4.853,0.678-14.415,1.238-23.596,0.17c-9.183-1.07-38.444-4.991-47.498-6.774c-9.057-1.784-47.314-11.78-54.233-14.003
										c-6.918-2.229-27.758-7.521-33.505-8.892c-5.75-1.372-22.979-4.344-27.927-5.956c-4.948-1.616-9.409-3.082-13.319-10.083
										c9.176-5.271,17.458-0.812,20.434-0.013c2.977,0.805,31.341,9.685,36.779,11.056c5.44,1.373,30.933,6.823,38.778,8.525
										c7.845,1.703,48.853,12.778,59.082,15.656c10.228,2.873,24.5,6.799,34.029,7.087c9.528,0.286,16.726-0.856,18.561,1.435
										C212.116,181.793,219.871,196.354,219.871,196.354z"/>
									<g>
										
											<linearGradient id="SVGID_27_" gradientUnits="userSpaceOnUse" x1="-5854.5332" y1="-1361.4878" x2="-5892.6875" y2="-1401.6237" gradientTransform="matrix(-0.8484 0.5294 -0.5294 -0.8484 -5654.9346 2085.749)">
											<stop  offset="0" style="stop-color:#FFFFFF"/>
											<stop  offset="1" style="stop-color:#FFFFFF;stop-opacity:0"/>
										</linearGradient>
										<path fill="url(#SVGID_27_)" d="M57.92,155.455l1.878-8.541c0.051,0.012,0.111,0.028,0.157,0.041
											c5.44,1.373,30.933,6.823,38.778,8.525c7.845,1.703,48.853,12.778,59.082,15.656c10.228,2.873,24.5,6.799,34.029,7.087
											c9.528,0.286,16.726-0.856,18.561,1.435c1.711,2.135,9.466,16.695,9.466,16.695s-8.05-10.861-9.552-12.658
											c-1.502-1.796-2.647-2.921-7.499-2.245c-4.853,0.678-14.415,1.238-23.596,0.17c-9.183-1.07-38.444-4.991-47.498-6.774
											c-9.057-1.784-47.314-11.78-54.233-14.003C72.095,159.102,57.92,155.455,57.92,155.455z"/>
									</g>
									<path fill="none" stroke="#000000" stroke-linecap="round" stroke-linejoin="round" stroke-miterlimit="10" d="
										M219.871,196.354c0,0-8.05-10.861-9.552-12.658c-1.502-1.796-2.647-2.921-7.499-2.245
										c-4.853,0.678-14.415,1.238-23.596,0.17c-9.183-1.07-38.444-4.991-47.498-6.774c-9.057-1.784-47.314-11.78-54.233-14.003
										c-6.918-2.229-27.758-7.521-33.505-8.892c-5.75-1.372-22.979-4.344-27.927-5.956c-4.948-1.616-9.409-3.082-13.319-10.083
										c9.176-5.271,17.458-0.812,20.434-0.013c2.977,0.805,31.341,9.685,36.779,11.056c5.44,1.373,30.933,6.823,38.778,8.525
										c7.845,1.703,48.853,12.778,59.082,15.656c10.228,2.873,24.5,6.799,34.029,7.087c9.528,0.286,16.726-0.856,18.561,1.435
										C212.116,181.793,219.871,196.354,219.871,196.354z"/>
									<g>
										<g>
											<path fill="#6D6D6D" d="M84.345,161.346c0.138-0.088,0.243-0.228,0.279-0.399l1.358-6.374
												c0.071-0.336-0.144-0.665-0.479-0.738c-0.337-0.07-0.667,0.145-0.738,0.48l-1.359,6.373
												c-0.07,0.336,0.144,0.667,0.479,0.738C84.05,161.461,84.211,161.428,84.345,161.346z"/>
										</g>
										<g>
											<path fill="#6D6D6D" d="M87.293,162.07c0.139-0.087,0.242-0.225,0.278-0.396l1.359-6.375
												c0.069-0.335-0.145-0.666-0.479-0.736c-0.336-0.072-0.666,0.142-0.739,0.478l-1.357,6.374
												c-0.071,0.336,0.144,0.666,0.479,0.739C86.997,162.187,87.16,162.152,87.293,162.07z"/>
										</g>
										<g>
											<path fill="#6D6D6D" d="M90.239,162.797c0.139-0.085,0.244-0.226,0.281-0.397l1.356-6.374
												c0.072-0.336-0.143-0.666-0.479-0.74c-0.336-0.07-0.667,0.145-0.738,0.481l-1.36,6.374
												c-0.068,0.336,0.144,0.665,0.48,0.736C89.944,162.914,90.107,162.881,90.239,162.797z"/>
										</g>
										<g>
											<path fill="#6D6D6D" d="M93.188,163.523c0.137-0.086,0.241-0.228,0.278-0.398l1.358-6.373
												c0.071-0.336-0.142-0.668-0.479-0.74c-0.333-0.07-0.666,0.146-0.738,0.479l-1.357,6.375
												c-0.071,0.338,0.145,0.667,0.479,0.739C92.892,163.637,93.054,163.604,93.188,163.523z"/>
										</g>
										<g>
											<path fill="#6D6D6D" d="M96.134,164.25c0.139-0.085,0.241-0.228,0.28-0.397l1.357-6.375
												c0.071-0.336-0.144-0.667-0.479-0.741c-0.335-0.068-0.666,0.145-0.736,0.482l-1.359,6.373
												c-0.071,0.336,0.144,0.664,0.479,0.738C95.84,164.364,96.001,164.332,96.134,164.25z"/>
										</g>
										<g>
											<path fill="#6D6D6D" d="M99.081,164.975c0.14-0.086,0.243-0.226,0.279-0.4l1.359-6.373
												c0.071-0.335-0.144-0.664-0.479-0.738c-0.334-0.07-0.667,0.145-0.738,0.482l-1.356,6.371
												c-0.071,0.338,0.142,0.667,0.479,0.738C98.788,165.09,98.95,165.058,99.081,164.975z"/>
										</g>
										<g>
											<path fill="#6D6D6D" d="M102.029,165.701c0.138-0.087,0.244-0.228,0.28-0.398l1.356-6.375
												c0.072-0.336-0.144-0.664-0.479-0.738c-0.336-0.072-0.666,0.146-0.738,0.48l-1.359,6.373
												c-0.068,0.335,0.145,0.668,0.479,0.739C101.733,165.814,101.896,165.783,102.029,165.701z"/>
										</g>
										<g>
											<path fill="#6D6D6D" d="M104.974,166.426c0.141-0.086,0.243-0.226,0.279-0.398l1.359-6.374
												c0.072-0.336-0.143-0.665-0.479-0.737c-0.335-0.072-0.667,0.145-0.738,0.479l-1.359,6.375
												c-0.071,0.336,0.144,0.665,0.479,0.739C104.68,166.543,104.844,166.509,104.974,166.426z"/>
										</g>
										<g>
											<path fill="#6D6D6D" d="M107.92,167.152c0.142-0.088,0.245-0.227,0.281-0.398l1.36-6.374
												c0.07-0.336-0.143-0.665-0.48-0.737c-0.334-0.073-0.666,0.141-0.74,0.479l-1.354,6.374
												c-0.071,0.337,0.141,0.667,0.478,0.737C107.628,167.27,107.79,167.234,107.92,167.152z"/>
										</g>
										<g>
											<path fill="#6D6D6D" d="M110.87,167.877c0.14-0.086,0.244-0.227,0.279-0.396l1.359-6.374
												c0.07-0.337-0.143-0.668-0.479-0.738c-0.335-0.072-0.667,0.141-0.738,0.479l-1.357,6.373
												c-0.071,0.336,0.142,0.666,0.478,0.738C110.575,167.991,110.737,167.96,110.87,167.877z"/>
										</g>
										<g>
											<path fill="#6D6D6D" d="M113.817,168.604c0.138-0.085,0.242-0.227,0.278-0.397l1.359-6.373
												c0.07-0.338-0.143-0.667-0.479-0.739c-0.335-0.07-0.665,0.141-0.738,0.48l-1.359,6.373
												c-0.07,0.336,0.144,0.666,0.481,0.739C113.522,168.721,113.684,168.686,113.817,168.604z"/>
										</g>
										<g>
											<path fill="#6D6D6D" d="M116.764,169.33c0.138-0.086,0.243-0.227,0.279-0.397l1.358-6.376
												c0.071-0.336-0.144-0.664-0.479-0.737c-0.336-0.073-0.666,0.144-0.735,0.479l-1.36,6.375
												c-0.072,0.336,0.143,0.666,0.481,0.738C116.47,169.446,116.633,169.412,116.764,169.33z"/>
										</g>
										<g>
											<path fill="#6D6D6D" d="M119.711,170.057c0.14-0.088,0.243-0.23,0.279-0.4l1.36-6.372
												c0.071-0.336-0.143-0.667-0.479-0.739c-0.335-0.07-0.664,0.143-0.737,0.48l-1.358,6.375
												c-0.072,0.335,0.144,0.663,0.478,0.735C119.416,170.172,119.578,170.138,119.711,170.057z"/>
										</g>
										<g>
											<path fill="#6D6D6D" d="M122.659,170.781c0.139-0.086,0.242-0.227,0.279-0.398l1.358-6.374
												c0.07-0.335-0.145-0.665-0.479-0.737c-0.336-0.07-0.666,0.143-0.737,0.479l-1.358,6.375
												c-0.071,0.335,0.143,0.666,0.479,0.739C122.363,170.897,122.526,170.864,122.659,170.781z"/>
										</g>
										<g>
											<path fill="#6D6D6D" d="M125.608,171.507c0.137-0.085,0.241-0.226,0.276-0.397l1.359-6.376
												c0.069-0.333-0.142-0.665-0.479-0.735c-0.336-0.074-0.667,0.145-0.738,0.479l-1.358,6.373
												c-0.071,0.336,0.145,0.667,0.479,0.738C125.311,171.623,125.475,171.59,125.608,171.507z"/>
										</g>
										<g>
											<path fill="#6D6D6D" d="M128.554,172.234c0.137-0.086,0.241-0.229,0.278-0.398l1.358-6.375
												c0.072-0.334-0.143-0.666-0.479-0.737c-0.336-0.072-0.667,0.146-0.737,0.478l-1.356,6.376
												c-0.072,0.336,0.142,0.664,0.479,0.738C128.259,172.349,128.421,172.317,128.554,172.234z"/>
										</g>
										<g>
											<path fill="#6D6D6D" d="M131.501,172.959c0.139-0.086,0.243-0.227,0.279-0.399l1.359-6.374
												c0.07-0.333-0.146-0.665-0.479-0.737c-0.336-0.07-0.667,0.146-0.739,0.479l-1.357,6.375
												c-0.072,0.335,0.142,0.668,0.479,0.736C131.205,173.075,131.369,173.042,131.501,172.959z"/>
										</g>
										<g>
											<path fill="#6D6D6D" d="M134.448,173.685c0.137-0.085,0.242-0.226,0.279-0.396l1.358-6.376
												c0.072-0.335-0.143-0.666-0.479-0.737c-0.337-0.07-0.667,0.146-0.739,0.479l-1.356,6.373
												c-0.073,0.338,0.142,0.667,0.477,0.739C134.154,173.799,134.316,173.767,134.448,173.685z"/>
										</g>
										<g>
											<path fill="#6D6D6D" d="M137.396,174.41c0.137-0.086,0.24-0.227,0.278-0.399l1.358-6.374
												c0.071-0.334-0.144-0.665-0.479-0.735c-0.337-0.074-0.666,0.143-0.737,0.479l-1.359,6.371
												c-0.07,0.336,0.143,0.667,0.479,0.74C137.1,174.524,137.264,174.494,137.396,174.41z"/>
										</g>
										<g>
											<path fill="#6D6D6D" d="M140.342,175.137c0.141-0.088,0.242-0.227,0.278-0.399l1.36-6.374
												c0.07-0.335-0.145-0.664-0.479-0.737c-0.337-0.069-0.668,0.146-0.738,0.479l-1.359,6.374
												c-0.07,0.338,0.143,0.667,0.479,0.739C140.047,175.255,140.211,175.22,140.342,175.137z"/>
										</g>
										<g>
											<path fill="#6D6D6D" d="M143.289,175.862c0.139-0.087,0.242-0.226,0.279-0.399l1.359-6.372
												c0.071-0.337-0.145-0.666-0.479-0.74c-0.333-0.068-0.665,0.145-0.738,0.48l-1.358,6.373
												c-0.071,0.336,0.144,0.668,0.479,0.737C142.995,175.979,143.158,175.945,143.289,175.862z"/>
										</g>
									</g>
									
										<line fill="none" stroke="#000000" stroke-linecap="round" stroke-linejoin="round" stroke-miterlimit="10" x1="59.798" y1="146.914" x2="57.92" y2="155.455"/>
								</g>
								<path fill="#212121" stroke="#000000" stroke-linecap="round" stroke-linejoin="round" stroke-miterlimit="10" d="
									M148.916,173.753c0.218,0.348,0.677,0.453,1.027,0.237c0.351-0.218,0.458-0.68,0.239-1.029
									c-0.219-0.351-0.682-0.457-1.028-0.236C148.804,172.94,148.698,173.401,148.916,173.753z"/>
								
									<line fill="none" stroke="#000000" stroke-linecap="round" stroke-linejoin="round" stroke-miterlimit="10" x1="184.274" y1="177.452" x2="183.713" y2="182.017"/>
								
									<line fill="none" stroke="#000000" stroke-linecap="round" stroke-linejoin="round" stroke-miterlimit="10" x1="188.548" y1="178.003" x2="187.967" y2="182.194"/>
							</g>
						</g>
						<g>
							<path fill="#C4D2D2" d="M79.286,281.514l3.785-13.236l-12.209-5.792l2.843-33.188l5.886-15.695l18.439-2.115
								c0,0,1.097-2.682,4.395-6.656c5.638-0.957,9.809-7.957,13.03-12.873c3.221-4.915,13.594-19.718,13.594-19.718
								c14.335-11.804,22.751-5.992,22.751-5.992c4.601,2.81,3.901,7.638,1.089,12.008c-2.814,4.369-6.12,8.801-6.933,9.71
								c-0.812,0.91-3.75,6.179-4.067,7.256c-0.316,1.077-1.288,1.883-1.288,1.883s0,0-0.2,0.778
								c-0.198,0.777-2.599,2.396-2.599,2.396s-0.536,3.877-1.809,5.696c-1.271,1.819-2.625,5.17-2.626,6.226
								c-0.002,1.055-0.571,1.818-1.061,2.936c-0.492,1.113-0.258,3.678-0.119,4.748c0.142,1.07-1.624,2.875-1.624,2.875
								s-0.145,0.812-0.949,2.177c-0.806,1.366-1.69,7.659-16.352,27.618c-14.662,19.961-39.913,35.527-39.913,35.527"/>
							<path fill="#B1BFBF" d="M124.699,178.065c-0.002,0.001-0.002,0.004-0.003,0.004c-1.682,2.697-3.457,5.247-5.241,7.63
								C121.097,183.199,122.907,180.533,124.699,178.065z"/>
							<path fill="#B1BFBF" d="M119.869,214.675c-0.1,0.015-0.156,0.021-0.156,0.021S119.77,214.689,119.869,214.675z"/>
							<path fill="#B1BFBF" d="M76.436,267.656c7.041-0.574,13.91-0.169,19.771-4.841c10.301-8.206,20.081-20.903,24.527-33.325
								c-0.291,0.41-3.653-1.756-5.961-2.049c-2.305-0.292,7.28-2.205,10.384-5.018c3.105-2.811,3.908-6.658,0.733-7.428
								c-2.75-0.666-5.373-0.402-6.021-0.32c1.102-0.153,7.935-1.256,9.761-4.779c1.991-3.839-0.374-5.312,0.563-7.016
								c0.935-1.703,1.527-1.889,1.408-1.92c-0.116-0.033-2.285-1.562-1.458-1.896c0.826-0.332,2.359-1.846,0.601-3.23
								c2.408,0.379,3.188,0.832,3.34-0.041c0.152-0.871-3.87-3.566-3.154-4.914c0.714-1.347,5.837,2.41,6.843,1.325
								c1.005-1.085,1.501-5.812,2.514-8.575c1.016-2.762,4.417-4.906,8.395-9.004c3.978-4.101,4.292-6.503,2.537-8.719
								c0.304-0.109,0.702-0.117,1.168-0.041c-0.357,0.246-0.587,0.382-0.587,0.382c4.6,2.81,3.9,7.639,1.088,12.008
								c-2.814,4.37-6.12,8.801-6.933,9.711c-0.812,0.91-3.75,6.179-4.067,7.256c-0.316,1.078-1.287,1.884-1.287,1.884
								s0,0-0.201,0.776c-0.198,0.777-2.599,2.398-2.599,2.398s-0.535,3.875-1.807,5.696c-1.271,1.817-2.626,5.169-2.626,6.224
								c-0.002,1.053-0.57,1.819-1.062,2.936c-0.491,1.115-0.258,3.679-0.118,4.748c0.141,1.07-1.625,2.875-1.625,2.875
								s-0.145,0.812-0.949,2.178c-0.805,1.367-1.69,7.658-16.351,27.618c-14.662,19.959-39.913,35.526-39.913,35.526"/>
							<path fill="none" stroke="#000000" stroke-linecap="round" stroke-linejoin="round" stroke-miterlimit="10" d="
								M73.351,288.082c0,0,25.251-15.565,39.913-35.526c14.66-19.959,15.545-26.253,16.352-27.618
								c0.806-1.365,0.949-2.178,0.949-2.178s1.766-1.805,1.624-2.875c-0.139-1.069-0.373-3.635,0.119-4.748
								c0.489-1.115,1.059-1.881,1.061-2.936c0.001-1.055,1.354-4.404,2.626-6.225c1.272-1.82,1.809-5.696,1.809-5.696
								s2.399-1.62,2.599-2.397c0.2-0.777,0.2-0.777,0.2-0.777s0.971-0.807,1.288-1.883c0.316-1.077,3.255-6.346,4.067-7.256
								c0.812-0.909,4.118-5.341,6.933-9.71c2.812-4.37,3.512-9.198-1.088-12.008c0,0-7.485-5.646-21.04,4.421"/>
							<g>
								<path fill="#C4D2D2" d="M30.651,268.596c0,0-3.68-0.247-3.271,3.012c0,0,21.676,24.911,38.236,28.466
									c0,0,3.748-1.605,4.157-5.841c0,0,4.059-1.925,4.468-6.832C74.24,287.4,55.732,285.634,30.651,268.596z"/>
								<g>
									<path fill="none" stroke="#000000" stroke-linecap="round" stroke-linejoin="round" stroke-miterlimit="10" d="
										M30.651,268.596c0,0-3.68-0.247-3.271,3.012c0,0,21.676,24.911,38.236,28.466c0,0,3.748-1.605,4.157-5.841
										c0,0,4.059-1.925,4.468-6.832C74.24,287.4,55.732,285.634,30.651,268.596z"/>
									<path fill="none" stroke="#000000" stroke-linecap="round" stroke-linejoin="round" stroke-miterlimit="10" d="
										M29.911,270.555c0,0,17.43,17.636,39.862,23.678"/>
								</g>
							</g>
							<path fill="none" stroke="#000000" stroke-linecap="round" stroke-linejoin="round" stroke-miterlimit="10" d="
								M101.82,204.82c2.072,0.229,4.977-1.525,6.956-3.8c1.981-2.272,4.348-5.261,4.348-5.261s11.222-18.797,17.636-25.09"/>
							<path fill="none" stroke="#000000" stroke-linecap="round" stroke-linejoin="round" stroke-miterlimit="10" d="
								M140.601,197.104c0,0-3.926-2.983-5.83-4.411c-1.905-1.425-4.279-2.834-3.84-1.814c0.438,1.018,4.315,4.113,5.091,4.613"/>
							<path fill="none" stroke="#000000" stroke-linecap="round" stroke-linejoin="round" stroke-miterlimit="10" d="
								M124.351,191.36c0,0,8.416,6.833,13.451,8.921"/>
							<path fill="none" stroke="#000000" stroke-linecap="round" stroke-linejoin="round" stroke-miterlimit="10" d="
								M136.425,202.417c0,0-10.421-3.426-10.4-2.221"/>
							<path fill="none" stroke="#000000" stroke-linecap="round" stroke-linejoin="round" stroke-miterlimit="10" d="
								M142.091,190.545c0,0-1.203-7.713-5.008-10.924"/>
							<path fill="none" stroke="#000000" stroke-linecap="round" stroke-linejoin="round" stroke-miterlimit="10" d="
								M130.564,222.759c0,0-6.506,1.681-7.925,2.238"/>
							<path fill="none" stroke="#000000" stroke-linecap="round" stroke-linejoin="round" stroke-miterlimit="10" d="
								M131.039,214.314c0,0-8.972-1.141-14.412,1.395"/>
						</g>
					</g>
				</g>
			</g>
			<g>
				<path fill="#BBBBBB" stroke="#000000" stroke-linecap="round" stroke-linejoin="round" stroke-miterlimit="10" d="
					M94.893,356.773c28.424,16.736,61.546,26.348,96.917,26.348c35.372,0,68.494-9.611,96.919-26.348H94.893z"/>
				<path fill="#666666" stroke="#000000" stroke-linecap="round" stroke-linejoin="round" stroke-miterlimit="10" d="
					M261.752,369.905H121.869c21.665,8.521,45.251,13.216,69.941,13.216C216.5,383.121,240.087,378.425,261.752,369.905z"/>
			</g>
		</g>
	</g>
</g>
<circle fill="none" stroke="#000000" stroke-linecap="round" stroke-linejoin="round" stroke-miterlimit="10" cx="191.81" cy="191.811" r="191.31"/>
</svg>
