<?xml version="1.0" encoding="utf-8"?>
<!-- Generator: Adobe Illustrator 16.0.0, SVG Export Plug-In . SVG Version: 6.00 Build 0)  -->
<!DOCTYPE svg PUBLIC "-//W3C//DTD SVG 1.1//EN" "http://www.w3.org/Graphics/SVG/1.1/DTD/svg11.dtd">
<svg version="1.1" id="Layer_1" xmlns="http://www.w3.org/2000/svg" xmlns:xlink="http://www.w3.org/1999/xlink" x="0px" y="0px"
	 width="179.632px" height="554.61px" viewBox="0 0 179.632 554.61" enable-background="new 0 0 179.632 554.61"
	 xml:space="preserve">
<g>
	<g>
		<path fill="#592612" d="M132.571,26.801c0,0,5.181,9.709,4.706,21.433c-0.473,11.722-2.307,17.051,0.032,23.918
			c2.337,6.868,4.941,15.749,2.455,22.025c-2.487,6.276-9.592,10.302-9.592,10.302l-34.693-6.844l-6.869-20.627l28.483-37.537
			L132.571,26.801z"/>
		<path fill="#421D0E" d="M109.554,49.424L90.165,74.977c-0.093,1.907-0.182,3.833-0.265,5.668l4.506,13.535
			c4.182,2.038,9.694,4.74,10.874,5.318l0.404,0.08l15.225-3.196l4.33-4.557c0.161-0.107,1.432-6.971-0.752-17.457
			c-2.193-10.531,2.694-20.089,6.849-29.495C124.289,43.3,115.691,47.189,109.554,49.424z"/>
		<path fill="none" stroke="#000000" stroke-linecap="round" stroke-linejoin="round" stroke-miterlimit="10" d="M132.571,26.801
			c0,0,5.181,9.709,4.706,21.433c-0.473,11.722-2.307,17.051,0.032,23.918c2.337,6.868,4.941,15.749,2.455,22.025
			c-2.487,6.276-9.592,10.302-9.592,10.302l-34.693-6.844l-6.869-20.627l28.483-37.537L132.571,26.801z"/>
		<path fill="#E8BBA3" d="M144.902,538.574c-5.377-0.167-11.039-3.971-13.674-5.007c-8.191-3.22-18.177-15.52-24.359-20.034
			c-6.184-4.515,13.249-104.991,16.614-114.971c3.366-9.979,7.909-17.583,8.803-24.474c1.536-11.854,5.279-23.243,8.674-34.657
			c3.52-11.835,4.651-22.754,5.617-35.003c0.734-9.31,1.747-18.604,2.569-27.906c0.679-7.687,1.344-15.377,1.963-23.069
			c0,0-52.04-8.631-56.375-5.948s-5.161,62.964-4.541,77.828c0.619,14.864-0.827,36.647-0.827,36.647s0.087,17.024-0.558,25.676
			c-0.645,8.65-4.535,20.173-8.207,36.094c-3.672,15.921-7.066,44.912-5.157,63.208c1.909,18.297-5.156,36.732-5.504,43.39
			c-0.58,11.116,7.55,13.773,19.706,13.054s20.174,0.469,26.517,1.895s18.941,2.494,21.715-0.595c0,0,3.837,2.381,7.973-0.464
			C149.068,542.026,150.574,538.751,144.902,538.574z"/>
		<path fill="none" stroke="#000000" stroke-linecap="round" stroke-linejoin="round" stroke-miterlimit="10" d="M144.902,538.574
			c-5.377-0.167-11.039-3.971-13.674-5.007c-8.191-3.22-18.177-15.52-24.359-20.034c-6.184-4.515,13.249-104.991,16.614-114.971
			c3.366-9.979,7.909-17.583,8.803-24.474c1.536-11.854,5.279-23.243,8.674-34.657c3.52-11.835,4.651-22.754,5.617-35.003
			c0.734-9.31,1.747-18.604,2.569-27.906c0.679-7.687,1.344-15.377,1.963-23.069c0,0-52.04-8.631-56.375-5.948
			s-5.161,62.964-4.541,77.828c0.619,14.864-0.827,36.647-0.827,36.647s0.087,17.024-0.558,25.676
			c-0.645,8.65-4.535,20.173-8.207,36.094c-3.672,15.921-7.066,44.912-5.157,63.208c1.909,18.297-5.156,36.732-5.504,43.39
			c-0.58,11.116,7.55,13.773,19.706,13.054s20.174,0.469,26.517,1.895s18.941,2.494,21.715-0.595c0,0,3.837,2.381,7.973-0.464
			C149.068,542.026,150.574,538.751,144.902,538.574z"/>
		<path fill="none" stroke="#000000" stroke-linecap="round" stroke-linejoin="round" stroke-miterlimit="10" d="M94.652,82.592
			c0,0-3.054,4.17,0,12.607"/>
		<path fill="#EAD0BF" d="M136.679,448.859c14.743-16.562,43.938-57.049,42.395-66.83c-1.041-6.591-10.441-27.069-16.462-39.721
			c-1.611-3.514-3.325-7.099-5.021-10.389c-0.004-0.01-0.01-0.021-0.01-0.021h-0.001c-0.966-1.874-1.926-3.653-2.856-5.265
			c-7.281-12.61-25.754-40.385-25.754-40.385s9.059-17.34,12.434-21.604c3.374-4.263,17.584-17.583,20.071-30.727
			c2.485-13.145,1.775-23.091-3.02-34.992c-4.797-11.9-20.782-30.549-20.782-30.549s12.433-6.937,10.835-16.697
			c-1.54-9.406-8.607-14.128-8.607-14.128s1.503-18.198,0.082-26.013c-1.422-7.815-7.461-18.294-14.742-19.716
			c-7.283-1.42-22.913-1.417-26.288-2.928s-8.525-14.3-7.46-24.957c-8.881-4.44-21.137-4.086-21.137-4.086
			s3.375,16.342-7.281,21.314C52.415,86.142,39.095,88.806,30.747,95.2c-8.348,6.395-8.171,20.426-1.599,40.497
			c6.573,20.071,25.754,63.941,26.82,77.086c1.066,13.144-14.564,34.102-10.302,64.474c4.263,30.373,34.28,51.865,45.825,63.41
			c6.775,6.774,12.485,13.871,21.801,21.313c9.314,7.441,23.342,18.458,19.113,25.711c-4.384,7.518-21.807,27.793-48.43,84.18
			c-5.428,11.496-9.693,11.143-16.396,20.772c-5.753,8.267,21.159,51.681,25.675,56.078c0.939,0.915,2.443,1.565,4.25,2.01
			c0.47,0.495,1.072,1.206,1.397,1.9c0.579,1.232,2.607,1.479,3.387,1.479s1.533-0.402,2.169-1.556
			c0.838,0.784,1.73,0.801,2.686,0.801c0.956,0,1.911-0.755,1.895-1.387c0.687,0.852,1.93,1.034,3.137,0.78
			c1.208-0.255,1.233-1.255,1.183-1.834c0.704,0.956,1.912,1.031,2.742,0.855c0.831-0.177,1.85-1.017,1.724-1.818
			c-0.019-0.119-0.119-0.343-0.25-0.6c0.036-0.047,0.075-0.094,0.095-0.14c2.373,2.055,5.163,0.553,5.896-0.135
			c0.71-0.667,1.185-2.098,0.058-2.846c-0.786-0.521-1.71-1.571-2.585-2.257c-2.712-2.122-6.414-3.752-7.755-6.509
			c-2.392-4.92-10.199-32.656-9.924-38.318C103.631,493.486,121.935,465.421,136.679,448.859z"/>
		<path fill="#E8BBA3" d="M126.039,92.023c-0.266-0.076-0.532-0.146-0.8-0.198c-7.283-1.42-22.913-1.417-26.287-2.928
			c-2.055-0.92-4.764-6.019-6.332-12.271c-2.447-0.162-4.009-0.266-4.009-0.266l0.902,9.89c0,0,4.203,10.16,11.928,10.747
			C109.166,97.584,118.809,90.38,126.039,92.023z"/>
		<path fill="#E8BBA3" d="M123.733,125.761c-0.185,8.5,13.213,17.462,13.213,17.74c0,0.137,3.851-0.428,7.738-1.033
			c-2.331-3.272-4.785-4.914-4.785-4.914s1.503-18.198,0.082-26.013c-0.861-4.74-3.425-10.459-6.933-14.544
			C133.182,97.325,142.074,119.341,123.733,125.761z"/>
		<path fill="#E8BBA3" d="M53.691,268.905l60.389,2.889l22.551,0.433c1.859-3.233,3.637-6.146,4.771-7.58
			c3.374-4.263,17.584-17.583,20.071-30.727c0.284-1.505,0.521-2.966,0.722-4.397c-1.753,4.754-4.296,10.043-7.99,14.8
			c-9.847,12.669-40.007,14.8-55.874,9.148c-15.866-5.653-35.404-18.978-29.365-34.134c6.039-15.156,26.169-24.037,33.036-25.222
			c6.867-1.183,8.009-1.607,11.364-2.524c3.354-0.918,9.436-1.116,16.471-2.099c7.032-0.984,5.452-2.958,5.452-2.958h-13.076
			c0,0-0.656-2.553,1.195-4.04c1.852-1.488,8.708-0.742,11.529-1.399c2.819-0.656,3.77-3.148,3.77-3.148h-17.741
			c0,0,0.591-2.1,2.296-3.345c1.705-1.247,7.347-1.64,8.658-2.493c1.313-0.854,0.459-1.968,0.459-1.968
			c2.886-1.246,6.243-0.633,6.243-0.633l0,0c-0.6-0.721-0.95-1.129-0.95-1.129s2.732-1.524,5.472-4.15
			c-7.849-2.005-20.91-4.982-21.484-4.57c-0.826,0.591-9.947,13.736-9.947,13.736s-38.509,11.646-61.505,18.604
			c3.137,8.936,5.415,16.497,5.761,20.784c0.899,11.088-10.086,27.742-10.982,50.919L53.691,268.905z"/>
		<path fill="#E8BBA3" d="M81.367,491.701c-0.621-0.907-1.188-1.758-1.394-2.815c-0.117-0.601,0.118-2.381-1-2.023
			c-1.249,0.399-1.194,4.394-1.159,5.432c0.079,2.309,1.621,4.323,3.857,4.88c1.155,0.287,2.278-0.521,2.114-1.724
			C83.598,494.072,82.118,492.796,81.367,491.701z"/>
		<path fill="#E8BBA3" d="M117.211,348.29c-11.167-11.382-23.317-21.775-34.759-32.878c-22.108-21.454,1.146-39.466,0.982-40.255
			l-25.219-1.904c-0.423,0.181-5.434,4.776-11.001,9.95c-0.504,0.469,1.697,5.797,1.966,6.533c0.739,2.024,1.58,3.982,2.667,5.845
			c0.897,1.536,1.582,2.834,1.976,4.213c10.904,18.666,29.225,32.431,37.669,40.874c6.775,6.774,12.485,13.871,21.8,21.313
			c9.315,7.441,23.342,18.458,19.113,25.711c-0.509,0.874-1.198,1.924-2.054,3.179c0.096-0.016,0.187-0.02,0.287-0.046
			c1.509-0.394,3.641-2.854,4.318-4.217c1.672-3.37,1.003-7.93,0.09-11.451C132.433,365.072,124.302,355.517,117.211,348.29z"/>
		<path fill="#E8BBA3" d="M136.679,448.859c14.743-16.562,43.938-57.049,42.395-66.83c-0.301-1.906-1.304-4.979-2.719-8.683
			c-0.678,3.935-1.888,8.665-4.055,13.681c-4.914,11.369-8.188,6.55-11.711,9.814c-3.525,3.266-10.804,19.249-26.913,42.991
			s-38.334,49.122-39.382,56.9c-1.049,7.777,15.558,30.768,15.558,30.768l0,0c-3.062-10.17-6.684-24.465-6.495-28.353
			C103.631,493.486,121.935,465.421,136.679,448.859z"/>
		<path fill="none" stroke="#000000" stroke-linecap="round" stroke-linejoin="round" stroke-miterlimit="10" d="M136.679,448.859
			c14.743-16.562,43.938-57.049,42.395-66.83c-1.041-6.591-10.441-27.069-16.461-39.721c-1.612-3.514-3.326-7.099-5.021-10.389
			c-0.005-0.01-0.011-0.021-0.011-0.021l0,0c-0.967-1.874-1.927-3.653-2.857-5.265c-7.281-12.61-25.754-40.385-25.754-40.385
			s9.059-17.34,12.434-21.604c3.374-4.263,17.584-17.583,20.071-30.727c2.485-13.145,1.775-23.091-3.02-34.992
			c-4.797-11.9-20.782-30.549-20.782-30.549s12.434-6.937,10.835-16.697c-1.54-9.406-8.607-14.128-8.607-14.128
			s1.503-18.198,0.082-26.013c-1.422-7.815-7.461-18.294-14.742-19.716c-7.283-1.42-22.913-1.417-26.287-2.928
			c-3.375-1.512-8.526-14.3-7.46-24.957c-8.881-4.44-21.138-4.086-21.138-4.086s3.375,16.342-7.281,21.314
			C52.416,86.142,39.095,88.806,30.747,95.2c-8.349,6.395-8.171,20.426-1.599,40.497s25.754,63.941,26.82,77.086
			c1.066,13.144-14.563,34.102-10.302,64.474c4.264,30.373,34.28,51.865,45.826,63.41c6.775,6.774,12.485,13.871,21.8,21.313
			c9.315,7.441,23.342,18.458,19.113,25.711c-4.383,7.518-21.807,27.793-48.429,84.18c-5.428,11.496-9.694,11.143-16.396,20.772
			c-5.754,8.267,21.158,51.681,25.674,56.078c0.939,0.915,2.444,1.565,4.25,2.01c0.47,0.495,1.072,1.206,1.397,1.9
			c0.579,1.232,2.607,1.479,3.387,1.479c0.78,0,1.534-0.402,2.17-1.556c0.837,0.784,1.729,0.801,2.685,0.801
			c0.956,0,1.912-0.755,1.895-1.387c0.688,0.852,1.93,1.034,3.137,0.78c1.208-0.255,1.233-1.255,1.184-1.834
			c0.703,0.956,1.911,1.031,2.741,0.855c0.831-0.177,1.85-1.017,1.725-1.818c-0.02-0.119-0.12-0.343-0.25-0.6
			c0.035-0.047,0.074-0.094,0.095-0.14c2.373,2.055,5.162,0.553,5.896-0.135c0.71-0.667,1.185-2.098,0.058-2.846
			c-0.787-0.521-1.711-1.571-2.585-2.257c-2.713-2.122-6.415-3.752-7.756-6.509c-2.392-4.92-10.198-32.656-9.924-38.318
			S121.935,465.421,136.679,448.859z"/>
		<path fill="#E8BBA3" d="M56.754,104.479c0,0,0.11,21.556-7.378,24.781c-7.488,3.224-12.583,2.704-12.583,2.704l-0.833,16.121
			c0,0,7.489-0.208,8.217,0c0.729,0.208,14.248-6.968,14.248-6.968s3.64-11.857,4.057-13.417c0.416-1.56,1.665-18.41,1.665-18.41"/>
		<path fill="#E8BBA3" d="M92.674,76.841l-14.497-7.874l-7.63,4.77c0,0-2.125,8.757,3.664,24.589
			c7.797-15.595,24.741-9.43,24.741-9.43C96.921,87.987,94.249,82.994,92.674,76.841z"/>
		<path fill="#E8BBA3" d="M154.658,224.913c0,0-0.733,2.741-3.947,2.741c-3.213,0-1.223,4.32,0,4.821
			C153.743,233.719,156.74,226.889,154.658,224.913z"/>
		<path fill="#FFFFFF" d="M137.672,168.378c0,0,12.434-6.937,10.835-16.697c-1.54-9.406-8.607-14.128-8.607-14.128
			c-4.715-5.054-11.108-11.094-16.082-20.329c-4.781-8.881-16.148-25.826-17.014-27.114c-0.979-0.079-1.905-0.164-2.77-0.255
			l0.057,0.168c0,0,18.899,24.333,9.698,35.118s-26.79,6.563-32.762,5.476c-5.974-1.088-17.255-8.794-19.579-22.233
			c-2.324-13.44-4.421-24.691-4.421-24.691l-0.001-0.001c-1.008,0.384-2.023,0.757-3.045,1.126v0.001c0,0,4.813,23.066,2.656,38.497
			c-2.157,15.43-19.248,19.754-24.89,19.832l0,0c4.303,11.812,10.716,27.698,15.871,41.673l20.966,1.711l38.327-12.941
			C106.911,173.592,128.113,166.151,137.672,168.378z"/>
		<path fill="#DEDFDE" d="M147.875,148.955c0.011,0.094,1.213,9.629-7.508,12.173c-8.764,2.557-18.236-1.588-20.842-3.956
			c-2.603-2.368-9.255-5.613-14.348-3.481c-5.091,2.131-8.385,9.402-13.832,15.678c-5.447,6.275-26.376,13.046-33.392,2.368
			c-7.017-10.679-2.487-30.55-2.251-31.26c0.237-0.71,0.356-9.354,0.475-9.828c0.021-0.085-0.852,0.096-2.3,0.449
			c-5.61,9.166-17.584,11.989-22.13,12.052c4.303,11.812,10.716,27.698,15.871,41.673l8.43,0.688
			c10.018-1.662,22.509-3.829,22.509-3.829s1.768-0.045,4.751-0.121l23.603-7.969c0,0,21.202-7.441,30.761-5.214
			c0,0,12.434-6.937,10.835-16.697C148.349,150.724,148.132,149.816,147.875,148.955z"/>
		<path fill="none" stroke="#000000" stroke-linecap="round" stroke-linejoin="round" stroke-miterlimit="10" d="M137.672,168.378
			c0,0,12.434-6.937,10.835-16.697c-1.54-9.406-8.607-14.128-8.607-14.128c-4.715-5.054-11.108-11.094-16.082-20.329
			c-4.781-8.881-16.148-25.826-17.014-27.114c-0.979-0.079-1.905-0.164-2.77-0.255l0.057,0.168c0,0,18.899,24.333,9.698,35.118
			s-26.79,6.563-32.762,5.476c-5.974-1.088-17.255-8.794-19.579-22.233c-2.324-13.44-4.421-24.691-4.421-24.691l-0.001-0.001
			c-1.008,0.384-2.023,0.757-3.045,1.126v0.001c0,0,4.813,23.066,2.656,38.497c-2.157,15.43-19.248,19.754-24.89,19.832l0,0
			c4.303,11.812,10.716,27.698,15.871,41.673l20.966,1.711l38.327-12.941C106.911,173.592,128.113,166.151,137.672,168.378z"/>
		<path fill="#FFFFFF" d="M128.969,286.25c0,0,9.059-17.34,12.434-21.604c0.521-0.659,1.301-1.533,2.256-2.589v-0.001
			c0,0-7.241,5.4-21.117,3.739c0,0-12.631-1.557-18.713-3.053c-6.083-1.497-20.74-5.315-33.304-4.802
			c0,0-21.689,0.521-23.192-10.953l0,0c-2.066,8.823-3.263,18.885-1.666,30.269c1.548,11.029,6.5,20.883,12.722,29.519
			c0.017-0.198,2.526-29.198,28.003-31.044C112.015,273.875,124.504,279.487,128.969,286.25z"/>
		<path fill="#DEDFDE" d="M142.428,263.432c-0.21-0.099-0.414-0.202-0.64-0.288c-12.151,11.436-33.698,13.024-33.698,13.024
			l0.001,0.003c11.455,1.639,17.924,5.605,20.878,10.079c0,0,9.059-17.34,12.434-21.604
			C141.675,264.302,142.023,263.893,142.428,263.432z"/>
		<g>
			<path fill="#DEDFDE" d="M75.881,278.458c-5.739,2.209-21.854,6.501-30.933-10.313c0.057,2.94,0.278,5.974,0.718,9.112
				c1.548,11.029,6.5,20.883,12.722,29.519C58.402,306.609,60.18,286.091,75.881,278.458z"/>
			<polygon fill="#DEDFDE" points="77.981,277.547 77.976,277.551 77.981,277.547 			"/>
		</g>
		<path fill="none" stroke="#000000" stroke-linecap="round" stroke-linejoin="round" stroke-miterlimit="10" d="M128.969,286.25
			c0,0,9.059-17.34,12.434-21.604c0.521-0.659,1.301-1.533,2.256-2.589v-0.001c0,0-7.241,5.4-21.117,3.739
			c0,0-12.631-1.557-18.713-3.053c-6.083-1.497-20.74-5.315-33.304-4.802c0,0-21.689,0.521-23.192-10.953l0,0
			c-2.066,8.823-3.263,18.885-1.666,30.269c1.548,11.029,6.5,20.883,12.722,29.519c0.017-0.198,2.526-29.198,28.003-31.044
			C112.015,273.875,124.504,279.487,128.969,286.25z"/>
		<path fill="#EAD0BF" d="M160.589,237.295c0,0,4.41,8.839,4.083,12.224c-0.324,3.384-6.807,10.622-9.036,13.917
			c-2.229,3.294-8.16,7.657-10.926,8.271c-2.765,0.614-4.322,0.208-6.323,2.188c-2.002,1.978-3.357,2.036-6.813,2.639
			c-3.458,0.604-8.026,0.759-8.386-0.399c-0.36-1.155,1.46-2.812,2.548-3.008c1.087-0.198,2.572-0.043,2.572-0.043
			s-5.387-1.831-6.497-2.879c-1.11-1.049-1.414-1.644-0.422-3.337c-1.179-1.383-0.926-3.195,1.331-3.586
			c2.258-0.389,6.004,1.032,6.004,1.032s1.163-1.769,2.755-2.108c1.592-0.338,7.143,0.153,9.433,0.645
			c3.093-2.455,5.953-5.056,7.648-5.806c-1.032-2.702-0.538-6.161,1.508-7.308c2.045-1.146,5.224-2.939,5.224-2.939
			S159.656,240.191,160.589,237.295z"/>
		<path fill="none" stroke="#000000" stroke-linecap="round" stroke-linejoin="round" stroke-miterlimit="10" d="M160.589,237.295
			c0,0,4.41,8.839,4.083,12.224c-0.324,3.384-6.807,10.622-9.036,13.917c-2.229,3.294-8.16,7.657-10.926,8.271
			c-2.765,0.614-4.322,0.208-6.323,2.188c-2.002,1.978-3.357,2.036-6.813,2.639c-3.458,0.604-8.026,0.759-8.386-0.399
			c-0.36-1.155,1.46-2.812,2.548-3.008c1.087-0.198,2.572-0.043,2.572-0.043s-5.387-1.831-6.497-2.879
			c-1.11-1.049-1.414-1.644-0.422-3.337c-1.179-1.383-0.926-3.195,1.331-3.586c2.258-0.389,6.004,1.032,6.004,1.032
			s1.163-1.769,2.755-2.108c1.592-0.338,7.143,0.153,9.433,0.645c3.093-2.455,5.953-5.056,7.648-5.806
			c-1.032-2.702-0.538-6.161,1.508-7.308c2.045-1.146,5.224-2.939,5.224-2.939S159.656,240.191,160.589,237.295z"/>
		<path fill="none" stroke="#000000" stroke-linecap="round" stroke-linejoin="round" stroke-miterlimit="10" d="M148.56,257.044
			c0,0,1.282,0.922,3.045,0.493c1.762-0.429,7.146-3.821,8.984-4.066"/>
		<path fill="none" stroke="#000000" stroke-linecap="round" stroke-linejoin="round" stroke-miterlimit="10" d="M128.724,264.313
			c0,0-0.633,1.131-0.07,1.489c0.563,0.359,4.417,1.29,7.55,1.686c3.134,0.397,6.004,1.034,8.688,0.413
			c2.684-0.618,7.829-2.448,7.829-2.448"/>
		<path fill="none" stroke="#000000" stroke-linecap="round" stroke-linejoin="round" stroke-miterlimit="10" d="M121.389,266.867
			c0,0,8.078,2.789,10.379,3.23c2.301,0.44,8.648,1.24,13.073,0.622"/>
		<path fill="none" stroke="#000000" stroke-linecap="round" stroke-linejoin="round" stroke-miterlimit="10" d="M128.308,273.083
			c0,0,7.044,2.191,10.736,0.236"/>
		<path fill="#EAD0BF" d="M28.265,97.634c0,0-8.175,10.523-14.925,36.726c-6.749,26.203-13.499,47.695-12.788,61.903
			c0.71,14.21,7.993,14.032,20.781,13.145c12.789-0.888,29.484-3.908,40.319-9.237c10.834-5.329,22.024-10.124,27.708-10.302
			c5.684-0.177,8.516,0.707,14.235,0.771c5.722,0.064,13.306-2.057,16.389-2.187c3.085-0.128,12.275-0.063,14.074-0.964
			c1.802-0.899,2.122-2.57,1.802-3.341c-0.321-0.771-3.022-0.835-6.428-1.157c-3.406-0.322-6.427-0.578-8.226-0.578
			c-1.801,0-2.366,0.128-2.469-0.578c-0.103-0.708,5.104-1.351,7.932-1.158c2.827,0.194,8.612-0.898,10.218-1.413
			c1.607-0.514,2.635-2.185,2.25-3.021c-0.386-0.836-3.728-0.9-5.462-0.9c-1.736,0-6.428-0.514-9.255-0.257
			c-2.828,0.257-4.822,0.193-5.335-0.321c-0.516-0.514,5.012-1.992,7.004-2.25c1.993-0.257,5.721-1.349,6.748-2.185
			c1.029-0.835-0.191-3.535-2.248-3.728s-2.635-0.321-6.234-0.065c-3.599,0.258-7.133,1.415-7.648,0.965
			c-0.513-0.45,1.994-1.415,3.407-1.543c1.414-0.129,3.085-0.385,3.471-1.285s-0.964-2.7-3.343-3.535
			c-2.378-0.835-4.369-0.385-6.876-0.256c0,0-0.578-1.929-4.436-2.442c-3.855-0.515-8.547-1.029-10.732,0.192
			c-2.186,1.222-8.29,7.263-11.054,9.191c-2.764,1.928-12.597,5.721-18.253,7.584c-5.656,1.864-20.63,5.334-26.222,5.527
			c-5.592,0.193-11.312-0.321-11.312-0.321s4.777-21.175,6.79-30.292c2.013-9.118,5.684-19.774,7.224-20.722"/>
		<g>
			<path fill="#E8BBA3" d="M113.366,166.732c0.243,0.832,3.341,0.77,3.341,0.77c-0.513-0.45,1.994-1.415,3.407-1.543
				c1.414-0.129,3.085-0.385,3.471-1.285c0.074-0.176,0.082-0.386,0.03-0.616c-1.193,0.297-2.829,0.28-4.551,0.358
				C116.449,164.535,113.124,165.901,113.366,166.732z"/>
			<path fill="#E8BBA3" d="M119.086,174.765c-0.516-0.514,5.012-1.992,7.004-2.25c1.993-0.257,5.721-1.349,6.748-2.185
				c0.57-0.463,0.446-1.496-0.12-2.359c-0.664,2.01-3.259,1.97-6.645,2.386c-3.386,0.416-6.95,1.426-7.9,2.257
				C117.223,173.445,119.086,174.765,119.086,174.765z"/>
			<path fill="#E8BBA3" d="M120.134,179.683c-1.13,0.357-1.396,2.152-1.396,2.152c-0.103-0.708,5.104-1.351,7.932-1.158
				c2.827,0.194,8.612-0.898,10.218-1.413c1.607-0.514,2.635-2.185,2.25-3.021c-1.491,1.55-4.154,1.777-7.539,2.192
				C128.212,178.852,121.262,179.327,120.134,179.683z"/>
		</g>
		<path fill="#E8BBA3" d="M116.362,187.23c-4.486,1.122-10.514,2.243-18.084,0.982c-7.571-1.262-22.148,0.56-34.133,4.766
			c-11.985,4.206-21.238,9.251-41.706,13.739c-10.448,2.29-16.981-0.682-20.879-4.14c2.485,7.803,9.271,7.56,19.772,6.831
			c12.789-0.888,29.484-3.908,40.319-9.237c10.834-5.329,22.024-10.124,27.708-10.302c5.684-0.177,8.516,0.707,14.235,0.771
			c5.722,0.064,13.306-2.057,16.389-2.187c3.085-0.128,12.275-0.063,14.074-0.964c1.025-0.51,1.559-1.268,1.779-1.971
			C130.512,188.974,120.845,186.109,116.362,187.23z"/>
		<g>
			<path fill="#E8BBA3" d="M31.448,180.213c0.657-2.913,4.847-21.501,6.699-29.892c1.997-9.046,5.625-19.599,7.186-20.692
				c0.009-0.015,0.02-0.031,0.029-0.045c0,0,3.952-4.462,1.858-9.018c-2.095-4.555-6.683,0-6.683,0
				c-3.642,4.738-6.566,12.623-8.329,24.419c-2.268,15.185-7.011,28.886-13.89,35.737C22.241,179.864,27.347,179.933,31.448,180.213
				z"/>
			<polygon fill="#E8BBA3" points="38.546,180.967 38.545,180.967 38.546,180.967 			"/>
		</g>
		<path fill="none" stroke="#000000" stroke-linecap="round" stroke-linejoin="round" stroke-miterlimit="10" d="M45.371,129.599
			c-1.54,0.947-5.21,11.604-7.224,20.722c-2.013,9.118-6.79,30.292-6.79,30.292s5.72,0.514,11.312,0.321
			c5.591-0.192,20.566-3.663,26.222-5.527c5.656-1.864,15.489-5.656,18.253-7.584c2.764-1.928,8.868-7.969,11.054-9.191
			c2.186-1.221,6.877-0.707,10.732-0.192c3.857,0.514,4.436,2.442,4.436,2.442c2.507-0.129,4.498-0.579,6.876,0.256
			c2.379,0.835,3.729,2.635,3.343,3.535s-2.057,1.156-3.471,1.285c-1.413,0.128-3.92,1.093-3.407,1.543
			c0.516,0.45,4.05-0.707,7.648-0.965c3.6-0.256,4.178-0.128,6.234,0.065s3.277,2.893,2.248,3.728
			c-1.027,0.835-4.755,1.928-6.748,2.185c-1.992,0.257-7.52,1.735-7.004,2.25c0.513,0.514,2.507,0.579,5.335,0.321
			c2.827-0.257,7.519,0.257,9.255,0.257c1.734,0,5.076,0.064,5.462,0.9c0.385,0.836-0.643,2.507-2.25,3.021
			c-1.605,0.514-7.391,1.606-10.218,1.413c-2.828-0.192-8.034,0.451-7.932,1.158c0.103,0.706,0.668,0.578,2.469,0.578
			c1.799,0,4.819,0.256,8.226,0.578c3.405,0.322,6.106,0.386,6.428,1.157c0.32,0.771,0,2.442-1.802,3.341
			c-1.799,0.901-10.989,0.836-14.074,0.964c-3.083,0.13-10.667,2.25-16.389,2.187c-5.72-0.064-8.552-0.948-14.235-0.771
			c-5.684,0.178-16.874,4.974-27.708,10.302c-10.835,5.329-27.531,8.349-40.319,9.237c-12.788,0.887-20.071,1.066-20.781-13.145
			c-0.71-14.208,6.039-35.7,12.788-61.903c6.75-26.203,14.925-36.726,14.925-36.726"/>
		<path fill="none" stroke="#000000" stroke-linecap="round" stroke-linejoin="round" stroke-miterlimit="10" d="M113.366,160.883
			c0,0-3.503-0.655-5.837-0.509c-2.335,0.146-6.057,1.897-7.298,1.459"/>
		<path fill="none" stroke="#000000" stroke-linecap="round" stroke-linejoin="round" stroke-miterlimit="10" d="M31.358,180.613
			c0,0-14.343-3.241-23.157,5.369"/>
		<path fill="#EAD0BF" d="M131.313,30.665c0,0,2.813,11.481-1.689,17.837c-4.502,6.358-8.137,6.237-8.034,12.18
			c0.094,5.431,0.452,8.918-1.532,9.846c-1.294,0.603-3.842,0-5.828,0c-1.06,2.251-1.324,3.708-2.119,3.84
			c-0.794,0.132-1.589,0-1.589,0s1.06,1.854,0,2.251c-1.059,0.397-2.914,1.191-3.575,2.648c-0.663,1.458-1.325,4.901-4.239,4.371
			c-2.913-0.53-9.005,0.928-16.554-6.356c-7.548-7.284-10.461-19.997-5.562-36.552C85.491,24.176,113.698,4.973,131.313,30.665z"/>
		<path fill="#E8BBA3" d="M129.623,48.502c3.418-4.825,2.622-12.6,2.038-16.067l-8.978-1.616c0.29,0.073,8.423,7.115,5.663,12.633
			c-2.761,5.519-6.929,4.038-8.271,3.384c-1.345-0.654-3.595-0.335-3.979,0.682c-0.383,1.017,0.695,1.799,1.458,2.287
			c0.761,0.487,0.338,2.664-0.461,3.42s-2.835-0.738-3.706-1.444c-0.869-0.705-2.177-0.154-1.087,1.022
			c1.09,1.177,0.437,8.728,1.488,9.381c1.053,0.653,2.754-2.25,4.264-2.904c1.509-0.654,2.173,3.631,2.349,5.918
			c0.177,2.287-1.316,4.102-2.349,3.375c-1.032-0.726-3.139-3.049-4.735-2.935c-1.597,0.115-1.938,1.047-1.622,2.136
			c0.315,1.089-0.197,3.965-1.175,4.488s-2.503,0.259-2.503,0.259s0.437,2.587-0.871,3.604c-1.307,1.016-2.495,2.104-2.954,3.412
			c-0.458,1.307-5.033,5.252-11.64-2.057c-6.608-7.309-7.279-22.048-6.652-28.801c0.421-4.542-3.415-5.436-5.972-5.535
			c-3.934,15.376-0.953,27.212,6.224,34.137c7.549,7.284,13.641,5.826,16.554,6.356c2.914,0.53,3.576-2.913,4.239-4.371
			c0.661-1.457,2.517-2.25,3.575-2.648c1.06-0.397,0-2.251,0-2.251s0.795,0.132,1.589,0c0.795-0.132,1.06-1.589,2.119-3.84
			c1.986,0,4.534,0.603,5.828,0c1.984-0.928,1.626-4.415,1.532-9.846C121.486,54.739,125.121,54.86,129.623,48.502z"/>
		<path fill="#E29081" d="M111.99,72.608c-0.882-0.331-3.318,0.8-6.403-2.615l-0.071,0.164c0,0,0.07,2.351,0.765,4.211
			c0.703,1.885,2.27,2.713,3.092,2.742c0.001,0-0.003,0,0,0c0.646-0.393,0.647-0.304,1.148-0.491c1.06-0.397,0-2.251,0-2.251
			s0.795,0.132,1.589,0c0.251-0.042,0.447-0.229,0.635-0.518C112.755,73.756,112.823,72.92,111.99,72.608z"/>
		<path fill="none" stroke="#000000" stroke-linecap="round" stroke-linejoin="round" stroke-miterlimit="10" d="M131.313,30.665
			c0,0,2.813,11.481-1.689,17.837c-4.502,6.358-8.137,6.237-8.034,12.18c0.094,5.431,0.452,8.918-1.532,9.846
			c-1.294,0.603-3.842,0-5.828,0c-1.06,2.251-1.324,3.708-2.119,3.84c-0.794,0.132-1.589,0-1.589,0s1.06,1.854,0,2.251
			c-1.059,0.397-2.914,1.191-3.575,2.648c-0.663,1.458-1.325,4.901-4.239,4.371c-2.913-0.53-9.005,0.928-16.554-6.356
			c-7.548-7.284-10.461-19.997-5.562-36.552C85.491,24.176,113.698,4.973,131.313,30.665z"/>
		<path fill="none" stroke="#000000" stroke-linecap="round" stroke-linejoin="round" stroke-miterlimit="10" d="M113.789,67.557
			c0,0,2.237-0.723,3.305,1.411"/>
		<path fill="#592612" d="M132.545,38.523c0,0,2.365-6.986-1.543-16.104c-3.906-9.118-19.656-20.367-34.221-21.788
			c-14.564-1.42-29.365,8.762-35.641,26.169c-6.277,17.406-6.869,33.983-11.723,45.47c-4.856,11.485-5.521,14.189-10.872,18.403
			c8.819-3.501,14.038-5.325,14.038-5.325s8.437,14.394,0.859,23.038c4.974-3.316,5.566-4.5,5.566-4.5s-0.71,17.406-5.803,24.866
			c-5.092,7.46-4.264,18.261-2.25,24.938c0,0,2.083,5.502,4.155,8.213c2.615,3.419,6.266,6.517,15.62,6.162
			c-3.315-4.026-2.725-4.974-2.725-4.974s0.119,1.54,5.329,0.83c-2.841-3.553-5.662-18.409,3.22-25.632
			c9.345-9.643,0.096-17.353,0.451-32.272c0.355-14.919,2.724-17.121,2.724-17.121s-2.222,11.082,1.375,16.647
			c0.52-9.829,1.807-16.647,3.718-19.899c7.861-13.382-4.026-31.018-0.83-40.728c3.198-9.709,7.601-12.497,9.851-8.826
			s3.554,5.163,6.396,3.625C103.082,38.176,128.759,25.971,132.545,38.523z"/>
		<path fill="#421D0E" d="M98.399,0.935c1.14,0.274,36.386,8.954,26.512,32.126c0.014,0.015,0.026,0.029,0.041,0.045
			c3.626,0.366,6.508,1.924,7.593,5.519c0,0,2.365-6.985-1.543-16.104C127.239,13.74,112.493,2.987,98.399,0.935z"/>
		<g>
			<path fill="#421D0E" d="M70.731,168.065c-3.315-4.026-2.725-4.974-2.725-4.974s0.119,1.54,5.329,0.83
				c-0.453-0.566-1.003-1.536-1.575-2.794c0,0,0,0,0,0c-9.739-0.232-13.603-9.438-13.603-9.438s0.334,2.334,1.5,5.668
				c-9.073-9.704-6.143-25.925-4.171-33.271c-0.641,1.759-1.393,3.365-2.28,4.665c-5.092,7.46-4.264,18.261-2.25,24.938
				c0,0,2.083,5.502,4.155,8.213C57.727,165.322,61.377,168.42,70.731,168.065z"/>
			<polygon fill="#421D0E" points="56.662,120.26 56.658,120.262 56.654,120.277 			"/>
		</g>
		<path fill="#421D0E" d="M78.177,60.3c0.531,4.383,4.771,5.25,7.332,11.963c0.9,2.362,1.379,4.896,1.59,7.295
			c2.43-12.27-5.837-26.347-3.105-34.641c0.503-1.529,1.037-2.886,1.587-4.074l-2.658-1.522c0,0-8.507,5.311-7.871,15.813
			c0.637,10.503,3.126,14.693,3.126,14.693S77.168,65.22,78.177,60.3z"/>
		<path fill="none" stroke="#000000" stroke-linecap="round" stroke-linejoin="round" stroke-miterlimit="10" d="M132.545,38.523
			c0,0,2.365-6.986-1.543-16.104c-3.906-9.118-19.656-20.367-34.221-21.788c-14.564-1.42-29.365,8.762-35.641,26.169
			c-6.277,17.406-6.869,33.983-11.723,45.47c-4.856,11.485-5.521,14.189-10.872,18.403c8.819-3.501,14.038-5.325,14.038-5.325
			s8.437,14.394,0.859,23.038c4.974-3.316,5.566-4.5,5.566-4.5s-0.71,17.406-5.803,24.866c-5.092,7.46-4.264,18.261-2.25,24.938
			c0,0,2.083,5.502,4.155,8.213c2.615,3.419,6.266,6.517,15.62,6.162c-3.315-4.026-2.725-4.974-2.725-4.974s0.119,1.54,5.329,0.83
			c-2.841-3.553-5.662-18.409,3.22-25.632c9.345-9.643,0.096-17.353,0.451-32.272c0.355-14.919,2.724-17.121,2.724-17.121
			s-2.222,11.082,1.375,16.647c0.52-9.829,1.807-16.647,3.718-19.899c7.861-13.382-4.026-31.018-0.83-40.728
			c3.198-9.709,7.601-12.497,9.851-8.826s3.554,5.163,6.396,3.625C103.082,38.176,128.759,25.971,132.545,38.523z"/>
		<path fill="none" stroke="#000000" stroke-linecap="round" stroke-linejoin="round" stroke-miterlimit="10" d="M119.178,52.238
			c0,0-0.576,0.592-1.623,2.741"/>
		<path fill="#0D0E0E" stroke="#000000" stroke-linecap="round" stroke-linejoin="round" stroke-miterlimit="10" d="M113.186,51.452
			c1.213,2.939,5.14,4.078,5.14,4.078l0.853-0.108c0,0-2.835-0.882-3.946-1.931C114.12,52.443,113.186,51.452,113.186,51.452z"/>
		<path fill="#592612" d="M113.789,45.283c-0.018,0.004,6.794-0.33,9.439,4.848C122.512,47.32,121.263,43.63,113.789,45.283z"/>
		<path fill="none" stroke="#000000" stroke-linecap="round" stroke-linejoin="round" stroke-miterlimit="10" d="M113.789,45.283
			c-0.018,0.004,6.794-0.33,9.439,4.848C122.512,47.32,121.263,43.63,113.789,45.283z"/>
		<path fill="none" stroke="#000000" stroke-linecap="round" stroke-linejoin="round" stroke-miterlimit="10" d="M111.715,66.272
			c0,0-0.368-1.708,2.074-2.149"/>
		<path fill="none" stroke="#000000" stroke-linecap="round" stroke-linejoin="round" stroke-miterlimit="10" d="M110.521,74.368
			c0,0-3.573-2.393-5.005-4.211"/>
		<path fill="none" stroke="#000000" stroke-linecap="round" stroke-linejoin="round" stroke-miterlimit="10" d="M106.557,69.829
			c0,0-1.537-0.113-2.364,1.375"/>
		<path fill="none" stroke="#000000" stroke-linecap="round" stroke-linejoin="round" stroke-miterlimit="10" d="M116.752,54.739
			c0,0-0.373,0.762-1.311,0.791"/>
		<path fill="none" stroke="#000000" stroke-linecap="round" stroke-linejoin="round" stroke-miterlimit="10" d="M115.768,50.131
			c0.213,0,3.715,0,3.892,2.673"/>
		<g>
			<path fill="#EAD0BF" d="M94.138,36.989c0,0,0.025-6.732-3.404-8.129c-3.43-1.396-7.434,3.78-8.469,6.956
				c-1.037,3.175-1.38,10.906,1.242,12.563c2.622,1.658,3.658,0.83,3.658,0.83"/>
			<path fill="#E8BBA3" d="M92.983,31.247c-1.056-0.203-2.471-0.397-2.621-0.428c-0.185-0.038-4.101,0.814-6.021,1.235
				c-0.962,1.25-1.709,2.631-2.077,3.761c-0.523,1.603-0.868,4.363-0.746,6.92c0.556-0.758,1.519-2.098,2.026-2.184
				c0.699-0.118,1.614,1.311,2.356,1.75c0.742,0.439,0.026,1.942,1.126,2.901c1.101,0.96,1.364,0.026,1.232-3.184
				c-0.131-3.21,1.253-4.617,2.042-4.271c0.79,0.345,0-1.641,0-2.732c0-1.091,2.404-0.88,2.897-0.523c0,0,0.209-0.69,0.433-1.397
				C93.472,32.468,93.262,31.837,92.983,31.247z"/>
			<path fill="none" stroke="#000000" stroke-linecap="round" stroke-linejoin="round" stroke-miterlimit="10" d="M94.138,36.989
				c0,0,0.025-6.732-3.404-8.129c-3.43-1.396-7.434,3.78-8.469,6.956c-1.037,3.175-1.38,10.906,1.242,12.563
				c2.622,1.658,3.658,0.83,3.658,0.83"/>
			<path fill="none" stroke="#000000" stroke-linecap="round" stroke-linejoin="round" stroke-miterlimit="10" d="M90.892,37.749
				c0,0,0.139-4.763-1.932-5.316s-3.451,0.621-3.451,0.621"/>
			<path fill="none" stroke="#000000" stroke-linecap="round" stroke-linejoin="round" stroke-miterlimit="10" d="M89.513,37.403
				c0,0-1.656,1.106-1.312,2.417c0.345,1.311-0.275,7.041-1.174,5.384c-0.898-1.657-0.552-2.761-1.518-3.175
				c-0.967-0.414-2.279-1.381-2.209-2.209"/>
		</g>
		<g>
			<path fill="#592612" d="M96.013,34.493c0,0-24.366,0.341-26.333,35.129l-6.658-20.827l25.98-30.646l10.188,12.41"/>
			<path fill="none" stroke="#000000" stroke-linecap="round" stroke-linejoin="round" stroke-miterlimit="10" d="M96.013,34.493
				c0,0-15.844,0.222-23.011,18.55"/>
		</g>
		<path fill="none" stroke="#000000" stroke-linecap="round" stroke-linejoin="round" stroke-miterlimit="10" d="M153.743,222.171
			c0,0,2.074,2.964,0,5.483"/>
		<g>
			<g>
				<path fill="#F6ECE5" d="M140.243,320.583c-0.245,0-0.483-0.126-0.614-0.353c-3.194-5.478-7.038-10.501-7.076-10.552
					c-0.24-0.312-0.181-0.758,0.131-0.996c0.312-0.241,0.758-0.18,0.996,0.131c0.038,0.05,3.937,5.143,7.176,10.701
					c0.198,0.34,0.084,0.774-0.256,0.972C140.488,320.552,140.365,320.583,140.243,320.583z"/>
				<path fill="#F6ECE5" d="M95.389,129.954c-0.226,0-0.447-0.107-0.586-0.308c-0.021-0.032-2.262-3.268-5.046-5.485
					c-0.307-0.244-0.358-0.692-0.113-0.998c0.245-0.307,0.691-0.358,0.998-0.114c2.955,2.353,5.238,5.652,5.333,5.792
					c0.223,0.323,0.141,0.765-0.183,0.987C95.668,129.913,95.527,129.954,95.389,129.954z"/>
				<path fill="#F6ECE5" d="M25.023,109.964c-0.086,0-0.174-0.016-0.259-0.05c-0.365-0.143-0.545-0.555-0.401-0.92
					c3.2-8.155,6.966-9.71,7.125-9.771c0.368-0.143,0.778,0.037,0.921,0.402c0.142,0.363-0.035,0.773-0.396,0.918
					c-0.062,0.026-3.401,1.514-6.328,8.97C25.575,109.792,25.307,109.964,25.023,109.964z"/>
				<path fill="#F6ECE5" d="M154.941,202.524c-0.31,0-0.595-0.205-0.683-0.518c-0.626-2.21-2.678-5.463-2.698-5.497
					c-0.21-0.331-0.111-0.771,0.221-0.979c0.331-0.212,0.77-0.112,0.979,0.219c0.09,0.141,2.184,3.462,2.864,5.87
					c0.107,0.378-0.111,0.771-0.489,0.877C155.071,202.515,155.006,202.524,154.941,202.524z"/>
				<path fill="#F6ECE5" d="M64.903,180.725c-0.006,0-0.011,0-0.016,0c-0.391-0.028-0.685-0.37-0.656-0.761
					c0.025-0.345,0.292-0.614,0.624-0.654c0.448-0.095,4.406-1.221,7.609-2.657c0.359-0.161,0.778,0,0.939,0.358
					c0.16,0.358,0,0.779-0.358,0.939C69.973,179.327,65.411,180.725,64.903,180.725z"/>
			</g>
		</g>
		<path fill="none" stroke="#000000" stroke-linecap="round" stroke-linejoin="round" stroke-miterlimit="10" d="M136.221,62.326
			c0,0-0.808,7.483,0,15.155"/>
		<path fill="none" stroke="#000000" stroke-linecap="round" stroke-linejoin="round" stroke-miterlimit="10" d="M52.583,85.349
			c0,0-1.972-4.661-1.26-8.988"/>
		<path fill="none" stroke="#000000" stroke-linecap="round" stroke-linejoin="round" stroke-miterlimit="10" d="M79.73,88.896
			c0,0,2.949-5.933,2.603-12.536"/>
		<path fill="none" stroke="#000000" stroke-linecap="round" stroke-linejoin="round" stroke-miterlimit="10" d="M101.521,140.232
			c0,0,3.882,1.92,5.343,6.17"/>
		<path fill="none" stroke="#000000" stroke-linecap="round" stroke-linejoin="round" stroke-miterlimit="10" d="M111.154,264.161
			c0,0-5.711-2.21-8.476-4.112"/>
		<path fill="none" stroke="#000000" stroke-linecap="round" stroke-linejoin="round" stroke-miterlimit="10" d="M55.935,215.923
			c0,0,1.628-5.343,1.156-8.182"/>
		<path fill="none" stroke="#000000" stroke-linecap="round" stroke-linejoin="round" stroke-miterlimit="10" d="M82.275,268.905
			c0,0,21.361,1.423,28.879,4.703c7.516,3.28,10.592,3.663,15.203,9.663"/>
	</g>
	<path fill="none" stroke="#000000" stroke-linecap="round" stroke-linejoin="round" stroke-miterlimit="10" d="M88.69,388.941
		c0,0,1.294,5.899,1.294,10.059"/>
	<path fill="none" stroke="#000000" stroke-linecap="round" stroke-linejoin="round" stroke-miterlimit="10" d="M132.784,382.419
		c0,0,3.891,4.078,2.549,8.451"/>
	<path fill="none" stroke="#000000" stroke-linecap="round" stroke-linejoin="round" stroke-miterlimit="10" d="M137.879,544.701
		c0,0-1.425-0.927-2.081-0.927"/>
	<path fill="none" stroke="#000000" stroke-linecap="round" stroke-linejoin="round" stroke-miterlimit="10" d="M117.668,549.213
		c0,0-0.842-1.773-1.621-2.517c-0.78-0.744-3.416-2.459-4.434-3.7"/>
	<path fill="none" stroke="#000000" stroke-linecap="round" stroke-linejoin="round" stroke-miterlimit="10" d="M113.357,550.915
		c0,0-0.637-2.129-1.663-2.991c-1.027-0.862-3.695-2.464-4.065-3.449"/>
	<path fill="none" stroke="#000000" stroke-linecap="round" stroke-linejoin="round" stroke-miterlimit="10" d="M109.037,551.969
		c0,0-0.218-3.101-1.038-3.881c-0.822-0.78-3.819-1.685-4.6-2.915"/>
	<path fill="none" stroke="#000000" stroke-linecap="round" stroke-linejoin="round" stroke-miterlimit="10" d="M104.458,552.555
		c0,0-0.36-2.794-1.798-3.984c-1.437-1.19-1.668-1.551-3.038-2.454"/>
	<path fill="none" stroke="#000000" stroke-linecap="round" stroke-linejoin="round" stroke-miterlimit="10" d="M84.518,482.636
		c0,0-4.886,2.84-5.113,5.227s1.591,5.454,1.591,5.454"/>
</g>
</svg>
