<?xml version="1.0" encoding="UTF-8"?>
<svg version="1.1" xmlns="http://www.w3.org/2000/svg" width="32" height="32">
<path d="M0 0 C10.56 0 21.12 0 32 0 C32 10.56 32 21.12 32 32 C21.44 32 10.88 32 0 32 C0 21.44 0 10.88 0 0 Z " fill="#FDFDFD" transform="translate(0,0)"/>
<path d="M0 0 C8.91 0 17.82 0 27 0 C27 0.66 27 1.32 27 2 C25.948125 2.391875 24.89625 2.78375 23.8125 3.1875 C18.85162294 5.33654391 15.84238366 8.16873118 13.5625 13.125 C12.61378205 16.18349359 12.61378205 16.18349359 15 19 C14.96856707 21.73990408 14.44521663 24.28417854 14 27 C13.67 27 13.34 27 13 27 C13 25.35 13 23.7 13 22 C11.02 22 9.04 22 7 22 C7 22.66 7 23.32 7 24 C7.66 24 8.32 24 9 24 C10.625 25.375 10.625 25.375 12 27 C12 27.66 12 28.32 12 29 C12.99 29 13.98 29 15 29 C15 29.66 15 30.32 15 31 C16.98 30.34 18.96 29.68 21 29 C20.67 29.99 20.34 30.98 20 32 C13.4 32 6.8 32 0 32 C0 21.44 0 10.88 0 0 Z " fill="#FCFBFB" transform="translate(0,0)"/>
<path d="M0 0 C1.4783226 2.95664519 1.06032783 5.74229737 1 9 C0.01 9.33 -0.98 9.66 -2 10 C-1.67 10.99 -1.34 11.98 -1 13 C-0.96079185 14.99961564 -0.95556653 17.00049364 -1 19 C0.98 19 2.96 19 5 19 C4 22 4 22 2.125 23.1875 C0 24 0 24 -3 24 C-3 23.34 -3 22.68 -3 22 C-3.99 22 -4.98 22 -6 22 C-6 21.34 -6 20.68 -6 20 C-6.99 19.67 -7.98 19.34 -9 19 C-9 18.34 -9 17.68 -9 17 C-9.66 17 -10.32 17 -11 17 C-11 16.34 -11 15.68 -11 15 C-8.50935112 14.31292445 -6.62113708 14 -4 14 C-4.37125 13.113125 -4.7425 12.22625 -5.125 11.3125 C-6 8 -6 8 -5.375 5.3125 C-3.88153064 2.80075607 -2.4518436 1.55283428 0 0 Z " fill="#B5C5D2" transform="translate(18,7)"/>
<path d="M0 0 C0.54738937 5.4738937 -0.97764041 9.51194763 -4 14 C-4.99 14.66 -5.98 15.32 -7 16 C-6.7525 14.824375 -6.7525 14.824375 -6.5 13.625 C-5.71088016 9.48212086 -6.61966639 6.96845913 -8 3 C-3.375 0 -3.375 0 0 0 Z " fill="#8D99B0" transform="translate(27,2)"/>
<path d="M0 0 C0.66 0 1.32 0 2 0 C2.144375 1.11375 2.28875 2.2275 2.4375 3.375 C2.78372035 6.82142047 2.78372035 6.82142047 4 9 C3.71887936 11.00800456 3.38932033 13.01014051 3 15 C2.67 15 2.34 15 2 15 C2 13.35 2 11.7 2 10 C-0.31 10 -2.62 10 -5 10 C-5.33 8.68 -5.66 7.36 -6 6 C-4.02 5.67 -2.04 5.34 0 5 C0 3.35 0 1.7 0 0 Z " fill="#EDEBEF" transform="translate(11,12)"/>
<path d="M0 0 C1.4783226 2.95664519 1.06032783 5.74229737 1 9 C0.01 9.33 -0.98 9.66 -2 10 C-1.67 10.99 -1.34 11.98 -1 13 C-2.32 13 -3.64 13 -5 13 C-6.15363649 8.96227228 -6.04336367 6.69751521 -4 3 C-1.875 1.1875 -1.875 1.1875 0 0 Z " fill="#A4A8B6" transform="translate(18,7)"/>
<path d="M0 0 C0.66 0 1.32 0 2 0 C2 0.66 2 1.32 2 2 C3.32 2.33 4.64 2.66 6 3 C6.33 4.32 6.66 5.64 7 7 C4.6739143 7.38063221 2.33944736 7.71269945 0 8 C-1 7 -1 7 -1.125 4 C-1 1 -1 1 0 0 Z " fill="#E0E3E7" transform="translate(17,19)"/>
<path d="M0 0 C1.32 1.65 2.64 3.3 4 5 C2.8125 7.4375 2.8125 7.4375 1 10 C-1.6875 10.8125 -1.6875 10.8125 -4 11 C-3.67 10.01 -3.34 9.02 -3 8 C-2.34 8 -1.68 8 -1 8 C-1.020625 7.05125 -1.04125 6.1025 -1.0625 5.125 C-1 2 -1 2 0 0 Z " fill="#EEF1F4" transform="translate(19,7)"/>
<path d="M0 0 C0 1.65 0 3.3 0 5 C-1.32 4.67 -2.64 4.34 -4 4 C-4 3.34 -4 2.68 -4 2 C-4.66 2 -5.32 2 -6 2 C-6 1.34 -6 0.68 -6 0 C-3.50907189 -1.24546405 -2.58919267 -0.7767578 0 0 Z " fill="#DCCCCB" transform="translate(13,22)"/>
<path d="M0 0 C0 1.65 0 3.3 0 5 C-0.94875 4.814375 -1.8975 4.62875 -2.875 4.4375 C-5.89868793 3.71313368 -5.89868793 3.71313368 -8 5 C-7 2 -7 2 -5.125 0.8125 C-3 0 -3 0 0 0 Z " fill="#9F636A" transform="translate(27,2)"/>
</svg>
