<svg width="500" height="500" viewBox="0 0 500 500" fill="none" xmlns="http://www.w3.org/2000/svg">
  <circle cx="250" cy="250" r="230" fill="#6366f1"/>
  <path d="M120 200L250 140L380 200L250 260L120 200Z" fill="white"/>
  <path d="M150 215V280C150 280 180 320 250 320C320 320 350 280 350 280V215L250 265L150 215Z" fill="white"/>
  <path d="M250 180C250 180 230 220 230 250C230 260 240 265 250 265C260 265 270 260 270 250C270 220 250 180 250 180Z" fill="#6366f1"/>
  <path d="M235 265L220 285H280L265 265" fill="#6366f1"/>
</svg>