<svg width="10mm" height="10mm" viewBox="0 0 10 10" version="1.1" xmlns="http://www.w3.org/2000/svg">
<title>GCLCOutputFigure</title>

<!-- Changing color 0 60 180 -->

<!-- Drawing circle O Rc -->
<path d="M8.50,5.00  a3.50,3.50 0 0,0 -2.50,-3.36" fill="none" stroke="#003CB4" stroke-width="1.50"></path>
<path d="M5.21,1.51  a3.50,3.50 0 0,0 -3.61,4.34" fill="none" stroke="#003CB4" stroke-width="1.50"></path>
<path d="M1.88,6.59  a3.50,3.50 0 0,0 6.37,-0.29" fill="none" stroke="#003CB4" stroke-width="1.50"></path>
<path d="M8.46,5.54  a3.50,3.50 0 0,0 0.04,-0.54" fill="none" stroke="#003CB4" stroke-width="1.50"></path>

<!-- Changing color 200 0 0 -->

<!-- Drawing segment C A -->
<line x1="5.36" y1="1.85" x2="2.05" y2="5.89" style="stroke:#C80000; stroke-width:2.00"></line>

<!-- Drawing segment C B -->
<line x1="5.82" y1="1.88" x2="8.07" y2="5.56" style="stroke:#C80000; stroke-width:2.00"></line>

<!-- Changing color 0 140 0 -->

<!-- Drawing segment O A -->
<line x1="4.63" y1="5.14" x2="2.17" y2="6.06" style="stroke:#008C00; stroke-width:2.00"></line>

<!-- Drawing segment O B -->
<line x1="5.39" y1="5.11" x2="7.89" y2="5.79" style="stroke:#008C00; stroke-width:2.00"></line>

<!-- Changing color 0 0 0 -->

<!-- Marking point A by circle -->
<circle cx="1.80" cy="6.20" r="0.40" fill="none" stroke="#000000" stroke-width="2.00"></circle>
<text x="1.80" y="7.20" style="font-size:4.22pt; font-style:italic; fill:#000000" text-anchor="middle" dy="4.217926">A</text>

<!-- Marking point B by circle -->
<circle cx="8.28" cy="5.90" r="0.40" fill="none" stroke="#000000" stroke-width="2.00"></circle>
<text x="8.28" y="6.90" style="font-size:4.22pt; font-style:italic; fill:#000000" text-anchor="middle" dy="4.217926">B</text>

<!-- Marking point C by circle -->
<circle cx="5.61" cy="1.54" r="0.40" fill="none" stroke="#000000" stroke-width="2.00"></circle>
<text x="5.61" y="0.54" style="font-size:4.22pt; font-style:italic; fill:#000000" text-anchor="middle">C</text>

<!-- Marking point O by circle -->
<circle cx="5.00" cy="5.00" r="0.40" fill="none" stroke="#000000" stroke-width="2.00"></circle>
<text x="5.00" y="6.00" style="font-size:4.22pt; font-style:italic; fill:#000000" text-anchor="middle" dy="4.217926">O</text>

<!-- Printing text at point Tc -->
<text x="4.50" y="6.60" style="font-size:4.22pt; font-style:italic; fill:#000000" text-anchor="middle" dy="4.217926"> 2a (centre) </text>

<!-- Printing text at point Tp -->
<text x="5.60" y="3.70" style="font-size:4.22pt; font-style:italic; fill:#000000" text-anchor="middle" dy="4.217926"> a (circ.) </text>

<!-- Printing text at point Th -->
<text x="5.00" y="0.50" style="font-size:4.22pt; font-style:italic; fill:#000000" text-anchor="middle"> angle at centre = 2x circumference </text>
</svg>