<?xml version="1.0" encoding="utf-8"?>
<!-- Generator: Adobe Illustrator 24.0.1, SVG Export Plug-In . SVG Version: 6.00 Build 0)  -->
<svg version="1.1" id="Camada_1" xmlns="http://www.w3.org/2000/svg" xmlns:xlink="http://www.w3.org/1999/xlink" x="0px" y="0px"
	 width="266.68px" height="318.89px" viewBox="0 0 266.68 318.89" enable-background="new 0 0 266.68 318.89" xml:space="preserve">
<g>
	<g>
		<g>
			<path fill="#F59E92" stroke="#000000" stroke-linecap="round" stroke-linejoin="round" stroke-miterlimit="10" d="M36.16,260.48
				c0,0,28.38-6.36,25.36-26.38c-5.34-8.14-22.82,4.83-22.82,4.83l-8.08,15.02L36.16,260.48z"/>
			<g>
				<g>
					<path fill="#F7BF83" d="M201,124.38c0,0,16.15,27.16,22.19,37.21c6.04,10.05,34.47,33.76,32.4,54.08s-26.95,33.4-36.3,36.08
						c-9.36,2.67-30.68,2.37-30.68,2.37l-6.17-46.46l-0.29-43.38L201,124.38z"/>
					<path fill="none" stroke="#000000" stroke-linecap="round" stroke-linejoin="round" stroke-miterlimit="10" d="M201,124.38
						c0,0,16.15,27.16,22.19,37.21c6.04,10.05,34.47,33.76,32.4,54.08s-26.95,33.4-36.3,36.08c-9.36,2.67-30.68,2.37-30.68,2.37
						l-6.17-46.46l-0.29-43.38L201,124.38z"/>
					<path fill="#F7BF83" d="M74.18,206.9c1.26,5.63,3.47,11.35,4.31,17.04c0.76,5.13,2.98,10.24,2.86,15.52
						c-0.11,4.64,0.02,9.28,0.47,13.92c0.02,0.25,0.06,0.52,0.22,0.72c0.16,0.2,0.43,0.28,0.67,0.34
						c15.41,4.27,33.12,7.23,49.15,5.24c4.75-0.59,8.97-2.5,13.77-2.94c7.52-0.69,14.83-0.53,22.1-3
						c10.92-3.71,20.09-12.29,24.51-22.94c2.44-5.89,3.47-12.25,4.45-18.54c1.53-9.78,3-19.58,3.43-29.47
						c0.39-8.96-0.1-17.95,0.28-26.91c0.33-7.82,1.31-15.6,2.48-23.34c0.69-4.56-1.34-8.62-5.02-11.37
						c-0.1-0.07-0.19-0.14-0.29-0.22c-2.83-2.04-6.15-3.28-9.32-4.77c-4.32-2.03-7.25-5.52-11.52-7.45
						c-5.03-2.27-10.37-3.72-15.5-5.73c-1.66,5.85-14.61,2.6-19.28,3.16c-6.46,0.77-12.8,2.53-18.72,5.23
						c-1.27,0.58-2.54,1.23-3.71,2c-0.7-0.93-1.26-1.76-1.57-2.38c-1.56-3.13-7.28-19.87-7.28-19.87l-16.37,5.33
						c0,0-10.75,1.77-16.74,2.14c-5.99,0.36-19.02,4.33-33.09,22.05c-14.07,17.72-33.29,73.89-34.98,75.59
						c-1.69,1.71-4.15,10.01-4.2,12.63c-0.05,2.62-3.17,6.01-4.52,8.73c-1.35,2.72,2.55,12.08,3.32,15.1
						c0.77,3.02,17.85,23.44,32.06,27.78c4.96-22.62,25.36-26.38,25.36-26.38l-11.95-8.65c0,0-0.19-2.39,0.94-4.54
						c1.13-2.15-2.85-2.93-2.78-5.29c0.07-2.36,3.94-18.35,7.69-20.49c3.75-2.13,3.39-12.19,9.38-27.83
						C64.8,173.03,70.8,191.79,74.18,206.9z"/>
					<path fill="#F39F45" d="M74.91,191.12c-2.15-12.19,8.12-33.2,8.67-36.2c0.55-3-2.42-1.81-6.62,3.59
						c-4.2,5.4-6.46,8.65-6.95,6.62c-0.5-2.03-8.79-25.59-10.03-27.42c-1.24-1.83-4.48-1.22-2.66,3.45
						c1.83,4.67,5.4,28.39-5.26,37.67c-10.66,9.28-17.45,8.48-14.47,12.48c2.97,4,13.12,6.93,10.91,9.76
						c-2.21,2.83-21.12,5.95-21.43,7.12c-0.31,1.17,15.6,6.43,15.46,7.24c-0.14,0.81-14.43,7.92-13.3,11.88
						c1.14,3.96,16.35-1.96,26.13,5.6c1.04,0.8,1.97,1.49,2.82,2.08c1.99-0.8,3.33-0.88,3.33-0.88l-11.95-8.65
						c0,0-0.19-2.39,0.94-4.54c1.13-2.15-2.85-2.93-2.78-5.29c0.07-2.36,3.94-18.35,7.69-20.49c3.75-2.13,3.39-12.19,9.38-27.83
						c0,5.73,5.99,24.49,9.38,39.61c0.8,3.58,1.66,7.32,2.5,10.94l12.61-8.86C89.3,208.99,77.06,203.3,74.91,191.12z"/>
					<path fill="none" stroke="#000000" stroke-linecap="round" stroke-linejoin="round" stroke-miterlimit="10" d="M202.9,132.54
						c0.69-4.56-1.34-8.62-5.02-11.37c-0.1-0.07-0.19-0.14-0.29-0.22c-2.83-2.04-6.15-3.28-9.32-4.77
						c-4.32-2.03-7.25-5.52-11.52-7.45c-5.03-2.27-10.37-3.72-15.5-5.73c-1.66,5.85-14.61,2.6-19.28,3.16
						c-6.46,0.77-12.8,2.53-18.72,5.23c-1.27,0.58-2.54,1.23-3.71,2c-0.7-0.93-1.26-1.76-1.57-2.38
						c-1.56-3.13-7.28-19.87-7.28-19.87l-16.37,5.33c0,0-10.75,1.77-16.74,2.14c-5.99,0.36-19.02,4.33-33.09,22.05
						c-14.07,17.72-33.29,73.89-34.98,75.59c-1.69,1.71-4.15,10.01-4.2,12.63c-0.05,2.62-3.17,6.01-4.52,8.73
						c-1.35,2.72,2.55,12.08,3.32,15.1c0.77,3.02,17.85,23.44,32.06,27.78c4.96-22.62,25.36-26.38,25.36-26.38l-11.95-8.65
						c0,0-0.19-2.39,0.94-4.54c1.13-2.15-2.85-2.93-2.78-5.29c0.07-2.36,3.94-18.35,7.69-20.49c3.75-2.13,3.39-12.19,9.38-27.83
						c0,5.73,5.99,24.49,9.38,39.61c1.26,5.63,3.47,11.35,4.31,17.04c0.76,5.13,2.98,10.24,2.86,15.52
						c-0.11,4.64,0.02,9.28,0.47,13.92c0.02,0.25,0.06,0.52,0.22,0.72c0.16,0.2,0.43,0.28,0.67,0.34
						c15.41,4.27,33.12,7.23,49.15,5.24c4.75-0.59,8.97-2.5,13.77-2.94c7.52-0.69,14.83-0.53,22.1-3
						c10.92-3.71,20.09-12.29,24.51-22.94c2.44-5.89,3.47-12.25,4.45-18.54c1.53-9.78,3-19.58,3.43-29.47
						c0.39-8.96-0.1-17.95,0.28-26.91"/>
					<path fill="#FCDCCE" d="M161.11,104.75l-0.28-13.96l-37.69-22.26c0,0-12.33,22.43-12.46,22.61
						c-1.78,2.47-1.54,32.47,28.21,37.43c5.36,0.89,11.37-0.54,15.29-4.31c4.54-4.36,4.89-11.4,4.93-17.7"/>
					<path fill="#F1C3B3" d="M112.27,107.14c2.17-5.47,6.45-15.64,9.3-18.13c3.94-3.46,12.09,15.36,18.36,20.75
						c5.26,4.52,11.7,10.39,17.82,8.54c1.18-3.66,1.33-7.84,1.35-11.74l1.22-1.1l-0.14-0.21l0.92-0.5l-0.28-13.77l-1.07-0.82
						l-36.62-21.63c0,0-12.33,22.43-12.46,22.61C109.85,92.28,109.47,99.38,112.27,107.14z"/>
					<path fill="none" stroke="#000000" stroke-linecap="round" stroke-linejoin="round" stroke-miterlimit="10" d="M161.11,104.75
						l-0.28-13.96l-37.69-22.26c0,0-12.33,22.43-12.46,22.61c-1.78,2.47-1.54,32.47,28.21,37.43c5.36,0.89,11.37-0.54,15.29-4.31
						c4.54-4.36,4.89-11.4,4.93-17.7"/>
					<path fill="#F39F45" d="M195.37,177.31c0,0-4.92-12.06-6.32-15.8c-1.4-3.74-3.48-12.05-1.68-11.58
						c1.8,0.47,4.84,4.68,6.83,3.04c1.99-1.64,5.37-12.3,5.37-12.3s2.89,29.84,4.38,37.81c1.49,7.97,4.53,28.33,4.53,28.33
						s8.89,1.17,6.9,4.1c-1.99,2.93-12.99,7.45-18.26,8.29c-5.27,0.84-7.96-12.03-7.96-12.03"/>
					<path fill="none" stroke="#000000" stroke-linecap="round" stroke-linejoin="round" stroke-miterlimit="10" d="M203.82,215.67
						c0,0,7.3-2.06,14.27,0"/>
					<path fill="#F39F45" d="M192.23,245.43c-19.67-2.31-44.91-12.19-50.93-14.63c-0.72,3.53-1.44,6.83-2.01,8.94
						c9.65,4.7,30.77,8.17,44.49,10.28c13.72,2.11,33.33,3.62,38.46,0c3.93-2.77,7.67-11.9,8.6-18.74
						C225.32,238.67,212.8,247.84,192.23,245.43z"/>
					
						<line fill="none" stroke="#000000" stroke-linecap="round" stroke-linejoin="round" stroke-miterlimit="10" x1="170.49" y1="219.18" x2="167.27" y2="214.93"/>
					<path fill="none" stroke="#000000" stroke-linecap="round" stroke-linejoin="round" stroke-miterlimit="10" d="M64.8,167.29
						c0,0-0.83-13.85-1.65-17.27"/>
					<path fill="#421D0E" d="M195.62,41.08c0,0,3.99,15.81-3.65,27.1c0,0-3.41,8.34-5.79,16.5c-2.38,8.17-11.78,20.02-24.1,18.52
						c-12.32-1.5,13.22-37.28,13.22-37.28l15.46-23.28L195.62,41.08z"/>
					<path fill="none" stroke="#000000" stroke-linecap="round" stroke-linejoin="round" stroke-miterlimit="10" d="M195.62,41.08
						c0,0,3.99,15.81-3.65,27.1c0,0-3.41,8.34-5.79,16.5c-2.38,8.17-11.78,20.02-24.1,18.52c-12.32-1.5,13.22-37.28,13.22-37.28
						l15.46-23.28L195.62,41.08z"/>
					<path fill="#FCDCCE" d="M186.18,57.45c0,0-1.36,11.27-3.09,13.74c-1.73,2.48-2.85,3.22-3.96,7.92
						c-1.11,4.71-3.71,8.91-8.91,14.12c-5.2,5.2-8.42,10.28-9.53,12.26c-1.11,1.98-4.46,4.71-11.51,4.21
						c-7.06-0.5-17.33-11.51-21.54-19.44c-4.21-7.92-4.71-15.6-4.58-20.06c0.12-4.46,1.86-13.49,6.56-19.93
						c4.71-6.44,13.99-19.56,35.54-18.32C186.68,33.18,185.93,51.51,186.18,57.45z"/>
					<path fill="#F1C3B3" d="M163.62,92.75c0,0-3.29-2.15-4.14-1.61c-0.85,0.54,0.41,4.05,0.36,4.29s1.14,1.41,1.14,1.41l3.69-1.42
						l2.57-1.44C167.24,93.99,164.79,93.37,163.62,92.75z"/>
					<path fill="#F1C3B3" d="M164.67,78.44c0,0,1.03-5.2,1.06-6.11c0.03-0.92-2.08-3.49-6.58-4.07c-4.5-0.58-9.81-1.1-10.19,0.22
						c-0.33,1.15,12.77,2.35,12.92,3.73c0.15,1.38-2.16,3.47-2.64,3.71c-0.48,0.24,1.79-0.33,2.64,0.78
						C162.73,77.81,163.03,80.9,164.67,78.44z"/>
					<path fill="#F1C3B3" d="M179.12,79.12c1.11-4.71,2.23-5.45,3.96-7.92c1.73-2.48,3.09-13.74,3.09-13.74
						c-0.25-5.94,0.5-24.27-21.05-25.5c-21.54-1.24-30.83,11.89-35.54,18.32c-4.71,6.44-6.44,15.47-6.56,19.93
						c-0.12,4.15,0.31,11.08,3.76,18.41l0.55,0.33c0,0-0.9-23.1,4.01-28.18c4.92-5.08,25.47-7.26,28.37-19.69
						c11.09,12.15,14.81,13.29,19.26,15.59c4.45,2.29,5.74,11.84,1.52,12.82c-4.22,0.98-9.12,4.37-9.61,13.22
						c-0.49,8.85,0.91,11.55-4.01,11.27c-4.92-0.28-4.59,3.38-4.59,3.38l-3.58,4.3c0,0,0.83,5.87-5.07,7.89
						c4.06-0.63,6.19-2.56,7.03-4.06c1.12-1.98,4.33-7.06,9.53-12.26C175.41,88.03,178.01,83.82,179.12,79.12z"/>
					<path fill="#F1A497" d="M150.02,96.11c0,0,3.58,5.39,8.7,5.54c5.12,0.15,5.63-3.99,5.63-3.99s1.56-1.4,1.36-1.82
						c-0.2-0.42-3.06,0.64-3.06,0.64s-1.15-0.2-3.66-0.12S150.02,96.11,150.02,96.11z"/>
					<path fill="none" stroke="#000000" stroke-linecap="round" stroke-linejoin="round" stroke-miterlimit="10" d="M150.02,96.11
						c0,0,3.58,5.39,8.7,5.54c5.12,0.15,5.63-3.99,5.63-3.99s1.56-1.4,1.36-1.82c-0.2-0.42-3.06,0.64-3.06,0.64s-1.15-0.2-3.66-0.12
						S150.02,96.11,150.02,96.11z"/>
					<path fill="none" stroke="#000000" stroke-linecap="round" stroke-linejoin="round" stroke-miterlimit="10" d="M186.18,57.45
						c0,0-1.36,11.27-3.09,13.74c-1.73,2.48-2.85,3.22-3.96,7.92c-1.11,4.71-3.71,8.91-8.91,14.12c-5.2,5.2-8.42,10.28-9.53,12.26
						c-1.11,1.98-4.46,4.71-11.51,4.21c-7.06-0.5-17.33-11.51-21.54-19.44c-4.21-7.92-4.71-15.6-4.58-20.06
						c0.12-4.46,1.86-13.49,6.56-19.93c4.71-6.44,13.99-19.56,35.54-18.32C186.68,33.18,185.93,51.51,186.18,57.45z"/>
					<path fill="#592612" d="M186.18,63.67c0,0-0.12-7.3-4.63-10.25c-4.52-2.95-18.07-8.34-21.02-12.51c0,0-3.13,5.39-8.86,7.99
						c-5.73,2.61-19.28,5.04-24.84,11.12c-5.56,6.08-3.65,11.47-6.08,18.07c-2.43,6.6-8.34,13.55-16.33,16.33
						c-7.99,2.78-15.45,2.81-15.45,2.81s14.93-26.61,17.36-32.51c2.43-5.91,8.86-38.57,21.72-52.29
						c12.86-13.72,19.28-9.21,19.28-9.21s5.38-5.59,16.16-0.71c10.77,4.88,27.97,21.39,32.14,38.58"/>
					<path fill="#421D0E" d="M150.92,32.88c1.2-1.46,2.53-2.8,4.01-3.91c-5.73,0.2-22.69,15.88-25.9,20.22
						c-3.21,4.34-7.68,12.82-9.36,21.3c-1.69,8.48-12.7,24.37-30.7,26.74c0,0,7.46-0.03,15.45-2.81c7.99-2.78,13.9-9.73,16.33-16.33
						c2.43-6.6,0.52-11.99,6.08-18.07c2.6-2.85,6.96-4.89,11.45-6.53C140.93,45.73,144.78,37.67,150.92,32.88z"/>
					<path fill="#421D0E" d="M185.18,58.46c0.95,2.68,1,5.2,1,5.2l9.44-22.58c-1.76-7.25-5.83-14.37-10.76-20.55
						c1.2,2.77,2.48,6.15,3.74,10.19c4.63,14.82-3.42,27.73-3.42,27.73L185.18,58.46z"/>
					<path fill="none" stroke="#000000" stroke-linecap="round" stroke-linejoin="round" stroke-miterlimit="10" d="M186.18,63.67
						c0,0-0.12-7.3-4.63-10.25c-4.52-2.95-18.07-8.34-21.02-12.51c0,0-3.13,5.39-8.86,7.99c-5.73,2.61-19.28,5.04-24.84,11.12
						c-5.56,6.08-3.65,11.47-6.08,18.07c-2.43,6.6-8.34,13.55-16.33,16.33c-7.99,2.78-15.45,2.81-15.45,2.81
						s14.93-26.61,17.36-32.51c2.43-5.91,8.86-38.57,21.72-52.29c12.86-13.72,19.28-9.21,19.28-9.21s5.38-5.59,16.16-0.71
						c10.77,4.88,27.97,21.39,32.14,38.58"/>
					<path fill="none" stroke="#000000" stroke-linecap="round" stroke-linejoin="round" stroke-miterlimit="10" d="M150.02,96.11
						c0,0,4.42,1.97,6.8,2.29c2.38,0.32,5.01,1.09,7.33-0.64"/>
					<path d="M161.22,73.83c0,0-5.13,5-12.6-1.62C152.99,78.41,159.57,77.39,161.22,73.83z"/>
					<path fill="none" stroke="#000000" stroke-linecap="round" stroke-linejoin="round" stroke-miterlimit="10" d="M161.22,73.83
						c0,0-5.13,5-12.6-1.62C152.99,78.41,159.57,77.39,161.22,73.83z"/>
					<path d="M173.38,75.22c0,0,4.6,2.29,7.12-1.72C178.16,78.26,175.38,76.7,173.38,75.22z"/>
					<path fill="none" stroke="#000000" stroke-linecap="round" stroke-linejoin="round" stroke-miterlimit="10" d="M173.38,75.22
						c0,0,4.6,2.29,7.12-1.72C178.16,78.26,175.38,76.7,173.38,75.22z"/>
					<path fill="#592612" stroke="#000000" stroke-linecap="round" stroke-linejoin="round" stroke-miterlimit="10" d="
						M174.44,71.14c0,0,4.73-3.7,9.34-2.08c-4.39-0.32-8.96,3.27-8.96,3.27L174.44,71.14z"/>
					<path fill="#592612" stroke="#000000" stroke-linecap="round" stroke-linejoin="round" stroke-miterlimit="10" d="M148.19,66.1
						c0,0,8.13-1.87,17.05,4.26c-0.9,0.78-0.9,0.78-0.9,0.78S157.63,67.04,148.19,66.1z"/>
					<path fill="none" stroke="#000000" stroke-linecap="round" stroke-linejoin="round" stroke-miterlimit="10" d="M161.88,91.8
						c0,0,1.14,0.65,2.97,1.57c1.83,0.92,4.33,1.11,5.36-0.14c0.52-2.62,0.38-13.08,1.58-17.05"/>
					<path fill="none" stroke="#000000" stroke-linecap="round" stroke-linejoin="round" stroke-miterlimit="10" d="M150.02,96.11
						c0,0-1.54-0.36-2.73,0.34"/>
					<path fill="none" stroke="#000000" stroke-linecap="round" stroke-linejoin="round" stroke-miterlimit="10" d="M126.17,60.77
						c0,0,18.87-30.73,30.55-32.24"/>
					<path fill="none" stroke="#000000" stroke-linecap="round" stroke-linejoin="round" stroke-miterlimit="10" d="M147.32,3.21
						c0,0,10.04,13.09,11.39,20.64c1.35,7.55,0.28,14.38,1.81,17.05"/>
					<path fill="none" stroke="#000000" stroke-linecap="round" stroke-linejoin="round" stroke-miterlimit="10" d="M184.23,68.26
						c0,0,14.75-15.06,5.92-34.47"/>
				</g>
			</g>
			<path fill="#FDEAE2" d="M166.24,172.14c0.64,1.47-0.37,1.94-2.65,2.93c-2.28,0.99-4.68,3.24-5.32,1.77
				c-0.64-1.47,0.41-4.58,2.69-5.57C163.24,170.27,165.61,170.67,166.24,172.14z"/>
			
				<line fill="none" stroke="#000000" stroke-linecap="round" stroke-linejoin="round" stroke-miterlimit="10" x1="102.75" y1="232.84" x2="105.03" y2="233.24"/>
			<linearGradient id="SVGID_1_" gradientUnits="userSpaceOnUse" x1="160.6138" y1="1.6177" x2="160.6138" y2="17.3231">
				<stop  offset="0" style="stop-color:#72402F"/>
				<stop  offset="1" style="stop-color:#72402F;stop-opacity:0"/>
			</linearGradient>
			<path fill="url(#SVGID_1_)" d="M161.7,17.03c2.4-2.86,4.99-5.59,8.38-7.28c-4.94-4.44-9.97-9.42-18.92-5.84
				c2.18,2.41,6.47,7.98,9.1,14.9C160.71,18.22,161.19,17.63,161.7,17.03z"/>
			<path fill="#FDEAE2" d="M146.35,77.94c0,0,1.25,1.08,1.49,2.12c0.35,1.52-0.71,2.95-1.47,2.95c-1.47,0-1.96-3.13-1.62-3.97
				C145.1,78.21,145.57,77.73,146.35,77.94z"/>
			<path fill="#FDEAE2" d="M155.47,58c0.53-0.29,2.63-5.33,1.95-6.05c-0.68-0.71-2.79,2.11-3,2.75C154.22,55.35,153.65,59,155.47,58
				z"/>
			<path fill="#FDEAE2" d="M166.83,86.46c-0.81,0.41-2,4.83-1.04,5.31C166.75,92.26,167.64,86.05,166.83,86.46z"/>
			<path fill="none" stroke="#000000" stroke-linecap="round" stroke-linejoin="round" stroke-miterlimit="10" d="M47.8,216.17
				c0,0-5.65-5.29-17.56-7.12"/>
			<path fill="none" stroke="#000000" stroke-linecap="round" stroke-linejoin="round" stroke-miterlimit="10" d="M49.58,225.44
				c0,0-9.91-2-15.88,0.42"/>
			<path fill="none" stroke="#000000" stroke-linecap="round" stroke-linejoin="round" stroke-miterlimit="10" d="M48.39,194.58
				c0,0-21.8-12.76-16.55-30.51"/>
			<path fill="none" stroke="#000000" stroke-linecap="round" stroke-linejoin="round" stroke-miterlimit="10" d="M64.55,163.39
				c0,0-6.17-16.81-6.44-29.01"/>
			<linearGradient id="SVGID_2_" gradientUnits="userSpaceOnUse" x1="140.6003" y1="1.6175" x2="140.6003" y2="17.3233">
				<stop  offset="0" style="stop-color:#72402F"/>
				<stop  offset="1" style="stop-color:#72402F;stop-opacity:0"/>
			</linearGradient>
			<path fill="url(#SVGID_2_)" d="M133.09,13.65c1.03-0.13,2.07-0.24,3.1-0.32c7.6-1.75,15.49-0.46,15.49-0.46s-2.8-5.2-4.82-7.69
				c-3.78-2-9.95,0.01-17.36,8.9C130.73,13.9,131.95,13.8,133.09,13.65z"/>
		</g>
	</g>
	<g>
		<g>
			<g>
				<path fill="#E8BBA3" d="M209.71,145.39c0,0,0.23-3.69-2.26-3.28c-1.87,0.31-4.68,3.76-6.02,6.59c-1.34,2.83-2.58,7.11-0.49,8.05
					"/>
				<path fill="none" stroke="#000000" stroke-linecap="round" stroke-linejoin="round" stroke-miterlimit="10" d="M209.71,145.39
					c0,0,0.23-3.69-2.26-3.28c-1.87,0.31-4.68,3.76-6.02,6.59c-1.34,2.83-2.58,7.11-0.49,8.05"/>
				<path fill="none" stroke="#000000" stroke-linecap="round" stroke-linejoin="round" stroke-miterlimit="10" d="M206.03,148.37
					c0,0-1.78,0.03-1.82,1.07c-0.04,1.03-0.96,2.17-1.24,1.85"/>
				<path fill="none" stroke="#000000" stroke-linecap="round" stroke-linejoin="round" stroke-miterlimit="10" d="M206.6,144.79
					c0,0,1.56,0.37,0.18,3.98"/>
			</g>
			<path fill="#FCDCCE" d="M226.69,185.78c0,0-2.34,2.2-1.32,4.46c1.02,2.26,3.1,7.73,4.28,10.75c1.18,3.02-25.07,13.71-39.17-2.65
				c-14.1-16.36,0.69-33.29,0.69-33.29s4.4,4.54,9.37,4.56C200.53,169.62,222.34,179.92,226.69,185.78z"/>
			<path fill="#E8BBA3" d="M200.53,169.62c0,0,21.81,10.3,26.16,16.16c0,0-1.74,1.64-1.56,3.55c-1.3,0.71-5.27,1.71-12.6-0.64
				c-8.74-2.8-14.37-7.22-15.33-12.39c-0.52-2.8-0.77-5.32,0.01-7.31C198.25,169.36,199.38,169.61,200.53,169.62z"/>
			<path fill="none" stroke="#000000" stroke-linecap="round" stroke-linejoin="round" stroke-miterlimit="10" d="M226.69,185.78
				c0,0-2.34,2.2-1.32,4.46c1.02,2.26,3.1,7.73,4.28,10.75c1.18,3.02-25.07,13.71-39.17-2.65c-14.1-16.36,0.69-33.29,0.69-33.29
				s4.4,4.54,9.37,4.56C200.53,169.62,222.34,179.92,226.69,185.78z"/>
			<path fill="#FCDCCE" d="M190.53,164.68c-0.16-0.02-6.02-6.71-15.69-1.47c-5.14-0.24-5.88-0.41-8.32,0.43
				c-0.25-2.68-4.1-8.78-5.28-11.16c-1.18-2.38-2.55-5.56-2.54-7.27c0.01-1.71,0.88-4.49,0.29-7.83c-0.59-3.34-2.52-5.12-2.52-5.12
				s-0.34-2.42-1.89-3.1c-1.55-0.68-3.32-0.23-3.27,1.97c-1.35-0.92-3.58-1.43-4.04,1.58c-1.49-1.38-3.91-0.33-3.78,1.68
				c0.13,2,1.66,2.84,1.66,2.84s-2.08-1.53-2.84-2.31c-0.76-0.78-3.54-0.27-2.63,2.4c0.91,2.67,2.96,2.93,3.38,3.82
				c0.41,0.89,1.04,3.24,2.13,5.5c1.09,2.26,2.29,3,2.29,3s-0.35,5.84-0.08,9.13c0.27,3.29,2.14,15.08,4.68,17.23
				c2.53,2.15,8.29,6.28,8.29,6.28"/>
			<path fill="#E8BBA3" d="M139.78,137.57c0.82,0.81,1.81,0.9,2.73,0.43c0.53-0.27,0.53-1.42,0.4-2.53c0.58,0.5,1.32,1.07,1.79,1.42
				c-0.46-0.41-1.12-1.22-1.21-2.5c-0.04-0.59,0.15-1.1,0.47-1.49c0.15,0.59,0.56,2.14,1.06,3.24c0.63,1.38,2.6,1.19,2.95-0.27
				c0.46,2.12,1.53,1.78,2.69,1.37c1.16-0.41,0.43-3.71,0.68-4.42c-0.01,1.46,2.15,2,4.22,2.21c-2.9,1.45-0.56,4.69-0.56,4.69
				s-1.43-0.61-1.67-1.37c-0.32-0.69-1.34,1.46-1.03,4.58c0.31,3.12,3.36,3.75,3.48,3.86l-0.36,2.38c0,0-5.49,4.15-5.6,4.2
				c-0.03,0.02-1.08-0.11-2.49-0.28c0.05-1.92,0.14-3.44,0.14-3.44s-1.21-0.74-2.29-3c-1.09-2.26-1.71-4.61-2.13-5.5
				C142.66,140.29,140.73,140.01,139.78,137.57z"/>
			<path fill="none" stroke="#000000" stroke-linecap="round" stroke-linejoin="round" stroke-miterlimit="10" d="M190.53,164.68
				c-0.16-0.02-6.02-6.71-15.69-1.47c-5.14-0.24-5.88-0.41-8.32,0.43c-0.25-2.68-4.1-8.78-5.28-11.16
				c-1.18-2.38-2.55-5.56-2.54-7.27c0.01-1.71,0.88-4.49,0.29-7.83c-0.59-3.34-2.52-5.12-2.52-5.12s-0.34-2.42-1.89-3.1
				c-1.55-0.68-3.32-0.23-3.27,1.97c-1.35-0.92-3.58-1.43-4.04,1.58c-1.49-1.38-3.91-0.33-3.78,1.68c0.13,2,1.66,2.84,1.66,2.84
				s-2.08-1.53-2.84-2.31c-0.76-0.78-3.54-0.27-2.63,2.4c0.91,2.67,2.96,2.93,3.38,3.82c0.41,0.89,1.04,3.24,2.13,5.5
				c1.09,2.26,2.29,3,2.29,3s-0.35,5.84-0.08,9.13c0.27,3.29,2.14,15.08,4.68,17.23c2.53,2.15,8.29,6.28,8.29,6.28"/>
			<path fill="none" stroke="#000000" stroke-linecap="round" stroke-linejoin="round" stroke-miterlimit="10" d="M156.48,132.26
				c0,0-0.74-0.53-1.52-0.23c-0.78,0.3-1.89,0.09-2.65-0.02c-0.75-0.12-1.48,1.24-0.7,2.17c0.78,0.93,1.84,1.31,1.84,1.31
				s-0.3,2.21-0.04,3.39"/>
			
				<line fill="none" stroke="#000000" stroke-linecap="round" stroke-linejoin="round" stroke-miterlimit="10" x1="151.31" y1="131.13" x2="151.56" y2="132.38"/>
			<path fill="none" stroke="#000000" stroke-linecap="round" stroke-linejoin="round" stroke-miterlimit="10" d="M150.94,132.29
				c0,0,0.39,2.72,0.26,3.8c-0.13,1.08-0.92,1.7-2,1.53c-1.08-0.16-1.09-1.05-1.28-2c-0.18-0.95-0.66-2.91-0.66-2.91"/>
			<path fill="none" stroke="#000000" stroke-linecap="round" stroke-linejoin="round" stroke-miterlimit="10" d="M147.27,133.94
				c0,0,1,2.36,0.14,3.4c-0.86,1.04-2.26-0.12-2.26-0.12"/>
			<path fill="none" stroke="#000000" stroke-linecap="round" stroke-linejoin="round" stroke-miterlimit="10" d="M143.09,136.94
				c0,0-0.83,2.84-3.17,1"/>
			<path fill="none" stroke="#000000" stroke-linecap="round" stroke-linejoin="round" stroke-miterlimit="10" d="M150.62,142.29
				c0.77-2.86,2.83-6.82,2.83-6.82s0.92,0.05,1.28-0.04"/>
			<path fill="#E8BBA3" d="M246.62,172.36c0,0,3.69-0.32,3.33,2.18c-0.27,1.87-3.65,4.77-6.44,6.17c-2.8,1.4-7.05,2.75-8.04,0.68"/>
			<path fill="none" stroke="#000000" stroke-linecap="round" stroke-linejoin="round" stroke-miterlimit="10" d="M246.62,172.36
				c0,0,3.69-0.32,3.33,2.18c-0.27,1.87-3.65,4.77-6.44,6.17c-2.8,1.4-7.05,2.75-8.04,0.68"/>
			<path fill="#FCDCCE" d="M231.21,184.81c4.02-1.9,7.56-5.21,10.78-8.21c2.01-1.87,3.95-3.83,5.77-5.88
				c1.93-2.19,2.5-6.23,2.77-9.13c0.91-9.96,0.68-20.67-9.27-24.97c-5.74-2.48-11.37-3.5-17.55-2.54c-1.49,0.23-3.72,1.06-5.14,1.58
				c-1.1,0.4-2.14,0.97-3.15,1.58c-7.95,4.79-15.8,14.17-16.8,23.83c-0.69,6.64,1.03,9.57,1.35,12.37
				c0.32,2.8,5.24,10.88,14.45,11.63C223.65,185.82,226.54,187.01,231.21,184.81z"/>
			<path fill="#E8BBA3" d="M218.06,152.75c0.09,0.22,0.4,0.75,0.7,0.72c0.23-0.02,0.21-0.33,0.24-0.5c0.04-0.27,0.1-0.54,0.12-0.82
				c0.02-0.19,0.02-0.39-0.01-0.59c-0.02-0.14-0.12-0.35-0.08-0.48c0.13-0.52,0.53,0.57,0.72,0.67c0.53,0.28,0.47-0.76,0.47-1
				c-0.02-0.62-0.15-1.24-0.4-1.81c-0.48-1.14-1.41-2.1-2.64-2.4c-0.73-0.18-1.49-0.21-2.24-0.25c-0.28-0.01-1.29-0.13-1.42,0.24
				c-0.07,0.19,0.09,0.35,0.24,0.42c0.32,0.14,0.84,0.1,1.19,0.15c0.67,0.1,1.05,0.22,1.62,0.61c0.29,0.2,0.6,0.49,0.57,0.88
				c-0.07,0.79-1.45-0.11-1.74-0.26c-0.7-0.36-1.58-0.77-2.37-0.45c-0.28,0.12-0.85,0.52-0.92,0.84c-0.05,0.26,0.16,0.58,0.26,0.8
				c0.33,0.71,0.94,1.02,1.67,1.38"/>
			<path fill="#E8BBA3" d="M228.25,158.59c-0.21-0.25,0.06-0.62,0.26-0.77c0.14-0.1,0.29-0.23,0.44-0.31
				c0.15-0.08,0.36-0.07,0.44-0.23c-0.34-0.05-1.44-0.37-0.9-0.86c0.71-0.64,1.92-0.51,2.77-0.37c3.07,0.51,5.71,3,6.08,6.12
				c0.04,0.31,0.07,0.65,0.06,0.96c-0.01,0.22-0.04,0.76-0.3,0.54c-0.17-0.14-0.23-0.59-0.27-0.78c-0.07-0.37-0.15-0.74-0.25-1.11
				c-0.15-0.57-0.37-1.53-0.92-1.86c-0.06,0.4-0.07,0.72-0.01,1.12c0.06,0.42,0.18,0.82,0.27,1.24c0.12,0.5,0.31,1.06,0.2,1.57
				c-0.05,0.22-0.05,0.22-0.22,0.08c-0.19-0.15-0.39-0.39-0.53-0.58c-0.29-0.4-0.58-0.73-0.92-1.09c-0.45-0.47-0.74-1.05-1.19-1.51
				c-0.4-0.41-0.82-0.71-1.32-1c-0.45-0.26-0.91-0.48-1.25-0.89"/>
			<path fill="#DC9E90" d="M218.93,173.8c0,0-1.65-2.39-1.99-3.59c-0.34-1.2-0.82-1.9-1.9-2.15c-1.08-0.24-1.08-0.62-1.41-1.3
				c-0.33-0.68-1.47-0.73-2.43-0.53c-0.96,0.2-2.32,0.21-3.31,0.22c0.38,1.45,0.1,3.59,2.21,5.74c1.98,2.02,4.18,2.31,5.83,2.2
				C217.58,174.28,218.93,173.8,218.93,173.8z"/>
			<path fill="#C75853" d="M217.57,172.74c0.02-0.14-3.04-1.25-4.18-2.12c-1.13-0.87-3.25-2.68-3.5-3.28c0,0,1.51,0.36,1.89,0.42
				c0.38,0.07,0.71,0.02,1.09,0.62c0.38,0.6,0.69,0.7,1.34,0.93c0.65,0.23,0.96,0.21,1.59,0.97
				C216.42,171.06,217.57,172.74,217.57,172.74z"/>
			<path fill="#E8BBA3" d="M222.67,165.58c0.43-0.43,0.52-1.18-0.82-2.07c-1.34-0.9-3.26-1.5-4.56-2.93
				c-1.3-1.43-2.06-2.38-3.46-2.43c-1.4-0.04-2.01,1.09-1.53,2.27c0.48,1.18,2.61,2.03,2.92,2.45c0.3,0.42,1.09,1.08,1.86,1.28
				c0.77,0.19,2.36,1.48,2.91,1.83C220.54,166.33,221.78,166.45,222.67,165.58z"/>
			<path fill="#E8BBA3" d="M249.66,168.47c-5,6.29-14.05,14.27-18.44,16.34c-4.67,2.2-7.56,1.01-16.78,0.26
				c-9.21-0.75-14.14-8.83-14.45-11.63c-0.32-2.8-2.04-5.73-1.35-12.37c0.49-4.76,2.82-8.94,5.18-12.3
				c-4.51,7.13-4.63,14.17-3.94,16.96c0.77,3.12,1.61,8.89,2.8,11.4c1.19,2.51,6.76,5.66,10.44,6.36c5.58,1.06,8.85-1.08,17.9-0.8
				c9.05,0.28,18.9-17.67,19.12-17.62L249.66,168.47z"/>
			<path fill="none" stroke="#000000" stroke-linecap="round" stroke-linejoin="round" stroke-miterlimit="10" d="M231.21,184.81
				c4.02-1.9,7.56-5.21,10.78-8.21c2.01-1.87,3.95-3.83,5.77-5.88c1.93-2.19,2.5-6.23,2.77-9.13c0.91-9.96,0.68-20.67-9.27-24.97
				c-5.74-2.48-11.37-3.5-17.55-2.54c-1.49,0.23-3.72,1.06-5.14,1.58c-1.1,0.4-2.14,0.97-3.15,1.58
				c-7.95,4.79-15.8,14.17-16.8,23.83c-0.69,6.64,1.03,9.57,1.35,12.37c0.32,2.8,5.24,10.88,14.45,11.63
				C223.65,185.82,226.54,187.01,231.21,184.81z"/>
			<path fill="none" stroke="#000000" stroke-linecap="round" stroke-linejoin="round" stroke-miterlimit="10" d="M218.93,173.8
				c0,0-1.43-1.07-2.06-2.07c-0.63-1-1.48-1.98-2.02-2.18c-0.54-0.21-1.18-0.36-1.56-0.66c-0.38-0.3-0.64-0.97-1.14-1.05
				c-0.5-0.08-1.94-0.36-2.74-0.63c-0.81-0.27-2.06-1.06-2.06-1.06"/>
			<path fill="none" stroke="#000000" stroke-linecap="round" stroke-linejoin="round" stroke-miterlimit="10" d="M217.57,172.74
				c0.02-0.14-3.04-1.25-4.18-2.12c-1.13-0.87-3.25-2.68-3.5-3.28"/>
			<path fill="#331C1A" stroke="#000000" stroke-linecap="round" stroke-linejoin="round" stroke-miterlimit="10" d="M218.51,162.65
				c-0.06-0.01,1.03,0.12,1.37,0.62c0.34,0.5,0.12,1.11-0.3,1.01C219.17,164.17,218.51,162.65,218.51,162.65z"/>
			<path fill="#331C1A" stroke="#000000" stroke-linecap="round" stroke-linejoin="round" stroke-miterlimit="10" d="M215.84,161.08
				c0,0-0.59-1.29-1.15-1.23c-0.55,0.06-0.63,0.81-0.04,1.05L215.84,161.08z"/>
			<path fill="none" stroke="#000000" stroke-linecap="round" stroke-linejoin="round" stroke-miterlimit="10" d="M223.18,163.92
				c-0.03,0.08,0.16,3.32-3.61,1.92"/>
			<path fill="none" stroke="#000000" stroke-linecap="round" stroke-linejoin="round" stroke-miterlimit="10" d="M213.93,157.51
				c0.03,0.09-2.98,1-1.37,4.08"/>
			<path fill="#FFFFFF" stroke="#000000" stroke-linecap="round" stroke-linejoin="round" stroke-miterlimit="10" d="M218.19,153.02
				c0.25,0.02,0.49-1.98-0.52-3.23c-1.01-1.25-3.64-1.93-5.95-0.91C212.15,151.2,215.69,152.84,218.19,153.02z"/>
			<path fill="#121212" stroke="#000000" stroke-linecap="round" stroke-linejoin="round" stroke-miterlimit="10" d="M217.3,149.42
				c0.33,0.41,0.68,0.6,0.78,1.07c-0.54,1.34-2.04,2.09-2.04,2.09c-1.25-0.31-1.83-0.68-2.81-1.46c0.12-1.22,0.69-2.1,1.3-2.71
				C215.88,148.5,216.69,148.67,217.3,149.42z"/>
			<path fill="#FFFFFF" stroke="#000000" stroke-linecap="round" stroke-linejoin="round" stroke-miterlimit="10" d="M235.63,163.87
				c0,0,0.02-3.49-2.58-4.97c-2.6-1.47-4.81-0.14-4.81-0.14s1.42,2.64,3.02,3.62C232.85,163.36,235.63,163.87,235.63,163.87z"/>
			<path fill="#121212" stroke="#000000" stroke-linecap="round" stroke-linejoin="round" stroke-miterlimit="10" d="M229.6,160.8
				c0.2-0.79,0.66-1.92,1.62-2.54c0.57,0.08,1.19,0.28,1.84,0.64c1.05,0.6,1.68,1.53,2.05,2.42c-0.22,0.47-0.78,1.45-1.84,1.93
				c-0.7-0.23-1.43-0.52-2-0.88C230.66,162.01,230.08,161.41,229.6,160.8z"/>
			<path fill="none" stroke="#000000" stroke-linecap="round" stroke-linejoin="round" stroke-miterlimit="10" d="M236.92,163.59
				c-0.02-0.07,0.2-3.16-2.47-4.98c-2.67-1.83-5.48-1.02-5.48-1.02"/>
			<path fill="none" stroke="#000000" stroke-linecap="round" stroke-linejoin="round" stroke-miterlimit="10" d="M219.06,151.27
				c0,0-0.48-2.97-3.01-3.8c-2.52-0.83-4.43,0.46-4.43,0.47"/>
			<path fill="none" stroke="#000000" stroke-linecap="round" stroke-linejoin="round" stroke-miterlimit="10" d="M243.73,176.1
				c0,0,0.01,1.78-1.02,1.85c-1.03,0.06-2.14,1.01-1.82,1.28"/>
			<path fill="none" stroke="#000000" stroke-linecap="round" stroke-linejoin="round" stroke-miterlimit="10" d="M142.89,140.9
				c0,0,0.03-0.98,0.73-1.65"/>
			<path fill="none" stroke="#000000" stroke-linecap="round" stroke-linejoin="round" stroke-miterlimit="10" d="M147.48,149.65
				c0,0,1.34,0.56,2.53,0.2"/>
			<path fill="#FCDCCE" d="M227.81,196.37c0.04,0.16,7.11,5.52,2.58,15.54c0.6,5.11,0.82,5.84,0.16,8.33
				c2.69,0.06,9.05,3.47,11.51,4.47c2.46,1,5.73,2.14,7.43,2.01c1.7-0.13,4.42-1.19,7.79-0.84c3.37,0.35,5.29,2.15,5.29,2.15
				s2.44,0.17,3.23,1.67c0.79,1.5,0.47,3.3-1.74,3.41c1.02,1.28,1.68,3.47-1.29,4.14c1.49,1.39,0.6,3.88-1.4,3.89
				c-2.01,0.01-2.95-1.45-2.95-1.45s1.67,1.96,2.5,2.67c0.83,0.7,0.52,3.51-2.21,2.79c-2.73-0.72-3.14-2.75-4.05-3.1
				c-0.92-0.35-3.31-0.81-5.64-1.73c-2.33-0.92-3.15-2.07-3.15-2.07s-5.8,0.76-9.1,0.73c-3.3-0.03-15.2-1.06-17.52-3.44
				c-2.33-2.37-6.85-7.82-6.85-7.82"/>
			<path fill="#E8BBA3" d="M245.81,228.74l3.14-1.28c0,0,5.86,4.07,10.41,2.77c1.07,0.89,1.51,2.72,2.81,2.97
				c-1.17-0.18-3.45,0.04-3.74,0.62c-0.3,0.58,0.06,1.84,1.01,2.29c0.67,0.31,3.18,0.53,4.61,0.63c-0.32,0.21-0.74,0.39-1.29,0.51
				c0.03,0.03,0.05,0.06,0.08,0.09c-1.54-0.31-3.52-0.65-3.93-0.5c-0.68,0.26-0.9,1.28,0.2,2.21c0.81,0.69,2.62,1.37,3.51,1.67
				c-0.34,0.26-0.77,0.41-1.27,0.41c-1.29,0.01-2.14-0.6-2.58-1.03c0.35,0.4,0.89,1.01,1.39,1.53c-0.75-0.1-1.62,0-2.29,0.69
				c-0.74,0.76-0.62,1.66-0.32,2.38c-1.73-0.89-2.14-2.37-2.91-2.66c-0.92-0.35-3.31-0.81-5.64-1.73c-2.33-0.92-3.15-2.07-3.15-2.07
				s-1.95,0.26-4.23,0.46L245.81,228.74z"/>
			<path fill="none" stroke="#000000" stroke-linecap="round" stroke-linejoin="round" stroke-miterlimit="10" d="M227.81,196.37
				c0.04,0.16,7.11,5.52,2.58,15.54c0.6,5.11,0.82,5.84,0.16,8.33c2.69,0.06,9.05,3.47,11.51,4.47c2.46,1,5.73,2.14,7.43,2.01
				c1.7-0.13,4.42-1.19,7.79-0.84c3.37,0.35,5.29,2.15,5.29,2.15s2.44,0.17,3.23,1.67c0.79,1.5,0.47,3.3-1.74,3.41
				c1.02,1.28,1.68,3.47-1.29,4.14c1.49,1.39,0.6,3.88-1.4,3.89c-2.01,0.01-2.95-1.45-2.95-1.45s1.67,1.96,2.5,2.67
				c0.83,0.7,0.52,3.51-2.21,2.79c-2.73-0.72-3.14-2.75-4.05-3.1c-0.92-0.35-3.31-0.81-5.64-1.73c-2.33-0.92-3.15-2.07-3.15-2.07
				s-5.8,0.76-9.1,0.73c-3.3-0.03-15.2-1.06-17.52-3.44c-2.33-2.37-6.85-7.82-6.85-7.82"/>
			<path fill="none" stroke="#000000" stroke-linecap="round" stroke-linejoin="round" stroke-miterlimit="10" d="M262.57,228.03
				c0,0,0.58,0.7,0.34,1.5c-0.24,0.8,0.05,1.89,0.21,2.64c0.17,0.75-1.14,1.56-2.12,0.86c-0.98-0.71-1.43-1.75-1.43-1.75
				s-2.18,0.46-3.37,0.28"/>
			
				<line fill="none" stroke="#000000" stroke-linecap="round" stroke-linejoin="round" stroke-miterlimit="10" x1="264.06" y1="233.1" x2="262.79" y2="232.95"/>
			<path fill="none" stroke="#000000" stroke-linecap="round" stroke-linejoin="round" stroke-miterlimit="10" d="M262.93,233.55
				c0,0-2.74-0.2-3.82,0.01c-1.07,0.21-1.63,1.04-1.39,2.11c0.24,1.06,1.13,1.01,2.08,1.13c0.96,0.12,2.95,0.45,2.95,0.45"/>
			<path fill="none" stroke="#000000" stroke-linecap="round" stroke-linejoin="round" stroke-miterlimit="10" d="M261.54,237.34
				c0,0-2.42-0.83-3.41,0.1c-0.98,0.93,0.28,2.25,0.28,2.25"/>
			<path fill="none" stroke="#000000" stroke-linecap="round" stroke-linejoin="round" stroke-miterlimit="10" d="M258.84,241.72
				c0,0-2.77,1.03-0.77,3.23"/>
			<path fill="none" stroke="#000000" stroke-linecap="round" stroke-linejoin="round" stroke-miterlimit="10" d="M252.97,234.59
				c2.8-0.97,6.6-3.31,6.6-3.31s-0.12-0.92-0.05-1.28"/>
			<path fill="none" stroke="#000000" stroke-linecap="round" stroke-linejoin="round" stroke-miterlimit="10" d="M254.91,242.2
				c0,0,0.98-0.11,1.6-0.84"/>
			<path fill="none" stroke="#000000" stroke-linecap="round" stroke-linejoin="round" stroke-miterlimit="10" d="M245.86,238.24
				c0,0-0.66-1.3-0.38-2.51"/>
			<path id="changecolor" fill="#D4565E" d="M197.9,169.21c0,0-2.55-2.64-3.42-2.68c-0.86-0.04-3.82-3.62-4.55-3.92
				c-0.73-0.31-4.58-2.93-8.15-2.32c-3.58,0.61-6.71,2.16-7.79,1.61c-1.08-0.55-1.77-0.47-2.12-0.04c-0.36,0.43-2.45,0.2-3.17,0.48
				c-0.72,0.28-1.37,1.34-1.44,0.55c-0.07-0.78-0.92-2.17-0.86-2.6c0.06-0.43,1.37-1.97,0.33-2.13c-1.04-0.16-1.8-0.22-2-0.86
				c-0.19-0.64-0.46-3.29-1.22-3.41c-0.75-0.11-2.8-7.29-3.48-8.17c-0.68-0.88-0.91-0.98-0.91-0.98s-11.21,6.86-13.08,7.73
				c-1.87,0.87-1.91,3-1.91,3s3.42,5.46,3.27,8.33c-0.15,2.88,1.9,9.8,3.21,11.36c1.31,1.55,2.39,2.58,3.84,3.5
				c0.26,0.16,3.16,3.05,5.16,4.52c0,0-5.28,8-8.62,10.74c-3.34,2.74-8.51,11.38-10.57,10.65c-2.06-0.73-12.02,1.66-13.96,1.78
				c-1.94,0.12-13.8,2.39-17.27,11.37c-3.47,8.98-4.38,19.86-4.41,24.95c-0.03,5.09,0.4,8.83-0.22,9.07
				c-0.62,0.24-7.83-0.7-10.45-0.44c-2.63,0.26-4.53,0.14-5.39,1.43c-0.87,1.29-2.14,3.6,1.08,7.68c3.21,4.08,17.71,5.89,21.75,7.85
				c4.04,1.96,6.49-5.27,7.79-9.41c1.3-4.14,3.14-10.7,4.87-13.78c1.73-3.08,4.28-7.77,4.31-8.52c0.03-0.75,1.36,0.38,1.79-0.23
				c0.43-0.6,0.75-1.64,0.75-1.64s5.97,0.25,7.51-0.01c1.54-0.26,8.51-0.53,8.83,0.1c0.32,0.63-3.34,13.59-3.71,20.38
				c-0.37,6.79-0.37,11.67-1.63,13.88c0,0-1.04-0.85-1.38,0.27c-0.34,1.12-1.2,3.99-1.86,4.47c-0.66,0.48-8.57,11.79-12.1,15.17
				c-3.52,3.38-5.4,8.02-6.25,10.81c-0.85,2.79,1.26,6.45,1.42,8.73c0.15,2.28,3.48,7.8,6.56,9.44c3.09,1.64,6.56-1.41,7.3-6.23
				c0.74-4.81,1.52-9.37,2.12-10.03c0.6-0.66,1.98-0.95,2.11-1.26c0.13-0.32,11.17-8.64,15.7-14.2c4.53-5.57,4.25-8.11,5.29-8.87
				c1.03-0.76,2.24-0.99,2.61-1.77c0.37-0.78,21.57-22.35,27.92-33.55c6.35-11.2,16.83-15.39,16.83-15.39s1.41-0.33,2.79,0.56
				c1.51,1.97,4.45,4.82,4.61,5.08c0.95,1.44,2,2.49,3.57,3.77c1.58,1.28,8.54,3.2,11.41,2.99c2.87-0.2,8.39,3.11,8.39,3.11
				s2.12-0.08,2.96-1.97c0.84-1.89,7.48-13.22,7.48-13.22s-0.11-0.23-1-0.89c-0.89-0.67-8.11-2.57-8.24-3.33
				c-0.13-0.75-2.79-0.97-3.43-1.15c-0.64-0.18-0.71-0.94-0.89-1.98c-0.18-1.04-1.69,0.29-2.12,0.37c-0.42,0.07-1.83-0.75-2.61-0.81
				c-0.78-0.06,0.26-0.72,0.53-1.45c0.26-0.72,0-2.81,0.42-3.18c0.42-0.37,0.5-1.06-0.07-2.12c-0.57-1.06,0.92-4.23,1.46-7.82
				c0.54-3.58-2.15-7.39-2.47-8.11c-0.32-0.72-3.61-3.96-3.66-4.82c-0.05-0.86-2.33-2.94-2.33-2.94s-9.14,14.54-26.37,1.73
				C182.89,178.66,197.9,169.21,197.9,169.21z"/>
			<path opacity="0.2" d="M110.19,253.52c-0.45-0.51-1.09-0.79-1.52-1.24c0.02,0.56,0.48,1.02,0.32,1.65
				c-0.62-0.03-0.96-0.84-1.35-1.22c-0.6-0.59-1.41-1.09-2.17-1.44c-0.21-0.1-0.43-0.2-0.63-0.3c0.14-1.39-0.09-4.45-0.07-8.27
				c0.03-5.09,0.95-15.97,4.41-24.95c0.8-2.06,2.04-3.77,3.5-5.18c-0.57,0.85-1.06,1.77-1.55,2.67c-0.85,1.57-2.27,3.3-2.27,5.17
				c-0.01,1.88,2.08,4.02,1.65,5.89c-2.07-0.57-1.68,3.61-1.55,4.8c0.48,4.5,1.21,9.38,0.73,13.89c-0.18,1.72-0.18,3.73,0.29,5.45
				c0.52,1.93,2.67,4.05,2.2,6.14C111.34,255.72,110.98,254.42,110.19,253.52z"/>
			<path opacity="0.2" d="M179.61,250.51c-0.17-2.64,3.21-5.55,4.35-7.76c2.13-4.13,3.28-8.78,5.91-12.65
				c4.35-6.38,12.64-8.87,19.88-10c0.65-0.1,1.4-0.13,2-0.37c1.02-0.41,1.94-1.2,2.97-1.68c1.3-0.6,3.69-1.82,5.14-1.4
				c-0.71,0.91-2.22,1.12-3.11,1.95c-1.56,1.44-2.87,3.59-3.25,5.69c-0.54,2.96,3.03,0.03,4.44,0.25c-0.27,1.11-1.35,1.92-1.36,3.22
				c-0.01,1.15,0.53,0.88,1.29,1.53c0.64,0.56,0.63,1.38,1.23,2.01c0.99,1.05,2.42,2.07,3.69,2.75c3.02,1.61,7.79,2.64,11.21,1.74
				c1.35-0.36,2.34-0.61,3.68-0.16c1.07,0.36,1.98,0.87,2.94,1.46c0.51,0.32,1.72,1.32,2.32,1.42c-0.42,0.76-0.73,1.36-0.87,1.68
				c-0.84,1.89-2.96,1.97-2.96,1.97s-5.52-3.31-8.39-3.11c-2.87,0.21-9.84-1.71-11.41-2.99c-1.58-1.28-2.63-2.34-3.57-3.77
				c-0.17-0.25-3.11-3.1-4.61-5.08c-1.37-0.89-2.79-0.56-2.79-0.56s-10.48,4.19-16.83,15.39c-1.95,3.43-5.84,5.41-9.47,10.24
				C180.74,251.98,179.67,251.46,179.61,250.51z"/>
			<path opacity="0.2" d="M146.12,205.65c-1.08-0.43-3.17-1.29-4.69-1.27c2.43-1.35,6.67-8.09,9.55-10.45
				c3.34-2.74,8.62-10.74,8.62-10.74c-2-1.47-4.91-4.35-5.16-4.52c-1.45-0.92-2.53-1.95-3.84-3.5c-1.31-1.55-3.36-8.48-3.21-11.36
				c0.15-2.88-3.27-8.33-3.27-8.33s0.04-2.12,1.91-3c0.68-0.31,2.56-1.41,4.7-2.67c0.27,0.68,0.07,1.56-0.01,2.26
				c-0.26,2.41-0.54,4.45,0.07,6.83c0.33,1.3,1.24,1.98,2.07,2.95c0.59,0.68,1.08,1.44,1.67,2.09c0.53,0.6,1.12,0.64,1.07,1.53
				c-0.05,0.99-0.93,2.13-1.18,3.11c-0.39,1.51-1.38,3.95,0.68,4.61c0.84,0.27,1.43-0.4,1.64,0.6c0.2,0.99-0.04,1.18,0.95,1.63
				c0.99,0.45,2.13,0.79,3.23,0.65c2.5-0.33,4.49-2.95,6.29-4.48c1.5-1.26,3.55-3.89,5.71-3.35c-0.15,0.69-0.88,1.15-1.31,1.7
				c-0.71,0.92-1.47,1.72-2.22,2.61c-1.13,1.34-1.58,3.47-2.08,5.11c-0.35,1.15-1.66,4.8-0.05,5.55c0.54,0.25,1.61-0.18,2.18-0.26
				c1.24-0.17,2.65-0.67,3.89-0.43c0.02,0.05,0.02,0.11,0,0.16c-0.06,0.61-3.83,2-4.37,2.27c-2.25,1.14-4.35,2.28-6.71,3.16
				c-1.46,0.54-2.81,1.19-3.8,2.44c-1.05,1.32-1.68,3.04-2.57,4.46c-0.96,1.54-1.37,3.36-1.79,5.1c-0.22,0.9-0.51,2.09-0.39,3.04
				c0.1,0.79,0.66,1.41,0.91,2.05c-0.89,0.4-1.88,0.44-2.85,0.42c-1.44-0.03-1.78,0.09-0.95,1.24c0.62,0.86,2.85,2.19,2.41,3.31
				c-1.13-0.49-2.15-1.79-3.23-2.47C148.79,206.95,147.47,206.18,146.12,205.65z"/>
			<g>
				<path opacity="0.2" d="M119.31,258.86c-1.15,3.64-3.17,9.65-6.38,9.73c0.96-0.71,1.89-1.27,2.61-2.43
					c1.54-2.52,1.39-5.68,1.99-8.54c0.78-3.77,2.64-7.42,3.68-11.18c0.51-1.82,1-3.98,1.93-5.64c0.77-1.37,1.43-2.31,1.85-3.89
					c0.49-1.83,0.46-2.38-0.72-3.71c-0.68-0.77-2.05-1.99-1.94-3.11c1.52,0.76,5.19,5.05,7.08,3.09c0.59-0.62-0.3-2.46-0.48-3.35
					c-0.31-1.56-1.2-3.45-1.22-5.04c0.23,0.09,0.4,0.26,0.62,0.37c2.05,1,3.11,4.65,3.6,6.7c0.42,1.75,0.8,1.68,2.37,1.04
					c1.31-0.53,2.88-0.84,3.89-1.79c0.79-0.74,1.3-1.92,2.55-1.04c1.12,0.78,0.34,2.2,2.23,2.21c0.35,0,0.58-0.35,0.93-0.33
					c0.22,0.01,0.96,0.26,1.08,0.24c0.68-0.09,0.66,0.16,1.09-0.58c0.7-1.19,0.22-2.79-0.57-3.7c-1.38-1.56-2.67-3.31-4.07-4.85
					c1.3,0.87,2.62,1.89,3.88,2.89c1.41,1.12,3.01,2.05,4.38,3.21c0.88,0.74,1.71,2.46,2.72,2.84c0.4-1.25-0.23-2.49,0.04-3.69
					c0.93,1.04,0.9,3.14,1.28,4.47c0.49,1.71,0.57,3.97,1.44,5.5c0.74,1.3,2.18,2.41,3.34,3.37c1.11,0.93,3.54,1.67,4.15,2.92
					c-0.73,0.4-1.98-0.01-2.82-0.18c-1.54-0.31-2.94-0.88-4.37-1.49c-1.27-0.54-3.57-2.32-4.77-0.85c-0.89,1.09-0.84,4.4-1.13,5.79
					c-0.47,2.34-0.61,4.74-1.1,7.11c-0.57,2.8-1.51,5.41-1.45,8.33c0.03,1.86,0.06,4.52,1.56,5.81c1.59,1.37,3.37,1.81,4.22,4.06
					c-1.99-1.87-5.27-0.89-7.67-1.86c-0.18,0.74,0.28,1.47,0.65,2.06c-0.49-0.2-1.32-0.45-1.76-0.77c-0.58-0.44-0.79-1.2-1.45-1.38
					c-0.47,2.34,0.61,3.71,1.07,5.84c-1.46-0.95-2.08-0.98-2.89-2.7c-2.48,1.32-4.5,3.1-6.29,5.11c2.22-2.95,4.03-5.43,4.33-5.65
					c0.66-0.48,1.52-3.36,1.86-4.47c0.34-1.12,1.38-0.27,1.38-0.27c1.26-2.21,1.25-7.09,1.63-13.88c0.37-6.79,4.03-19.75,3.71-20.38
					c-0.32-0.63-7.29-0.37-8.83-0.1c-1.54,0.26-7.51,0.01-7.51,0.01s-0.33,1.04-0.75,1.64c-0.43,0.6-1.76-0.52-1.79,0.23
					c-0.03,0.75-2.59,5.44-4.31,8.52C122.45,248.16,120.61,254.72,119.31,258.86z"/>
				<path fill="#E7E6E6" d="M128.96,286.49c0.46-0.54,0.94-1.13,1.43-1.74c-0.44,0.63-0.89,1.27-1.33,1.9L128.96,286.49z"/>
			</g>
			<path opacity="0.2" d="M134.66,300.19c0.42-3.03-4.97-4.8-4.43-8.06c1.71,0.6,3.17,2.88,4.81,3.9c3.34,2.06,3.14-0.99,4.64-3.29
				c1.36-2.1,5.26-3.18,7.39-4.47c1.89-1.15,4.21-1.71,6.01-3.05c1.35-1.01,2.62-2.7,3.61-4.03c0.75-1,0.91-2.34,1.65-3.32
				c0.86-1.13,1.62-1.02,0.57-2.45c4.56-0.45,8.07-6.37,10.33-9.75c1.74-2.61,4.07-4.56,5.56-7.39c1-1.89,1.88-3.7,2.99-5.54
				c0.71-1.18,1.89-4.03,3.12-4.51l5.82-2.43c-8.44,12.12-22.85,29.15-23.16,29.79c-0.37,0.78-1.57,1.01-2.61,1.77
				c-1.04,0.76-0.76,3.31-5.29,8.87c-4.53,5.57-15.57,13.89-15.7,14.2c-0.13,0.31-1.51,0.6-2.11,1.26
				c-0.6,0.66-1.38,5.21-2.12,10.03c-0.01,0.06-0.02,0.12-0.03,0.18c-0.03-2.46,0.44-5.08-0.84-7.35c-1.15-2.04-4.08-3.24-4.87-5.31
				c0.21,0.02,0.45,0.02,0.65,0.05c-0.59-0.65-2.09-0.67-1.96-1.68C130.93,297.59,132.55,300.33,134.66,300.19z"/>
			<path fill="none" stroke="#000000" stroke-linecap="round" stroke-linejoin="round" stroke-miterlimit="10" d="M197.9,169.21
				c0,0-2.55-2.64-3.42-2.68c-0.86-0.04-3.82-3.62-4.55-3.92c-0.73-0.31-4.58-2.93-8.15-2.32c-3.58,0.61-6.71,2.16-7.79,1.61
				c-1.08-0.55-1.77-0.47-2.12-0.04c-0.36,0.43-2.45,0.2-3.17,0.48c-0.72,0.28-1.37,1.34-1.44,0.55c-0.07-0.78-0.92-2.17-0.86-2.6
				c0.06-0.43,1.37-1.97,0.33-2.13c-1.04-0.16-1.8-0.22-2-0.86c-0.19-0.64-0.46-3.29-1.22-3.41c-0.75-0.11-2.8-7.29-3.48-8.17
				c-0.68-0.88-0.91-0.98-0.91-0.98s-11.21,6.86-13.08,7.73c-1.87,0.87-1.91,3-1.91,3s3.06,5.46,3.27,8.33
				c0.36,5.16,1.56,8.47,3.21,11.36c1.01,1.77,2.39,2.58,3.84,3.5c0.26,0.16,3.16,3.05,5.16,4.52c0,0-5.28,8-8.62,10.74
				c-3.34,2.74-8.51,11.38-10.57,10.65c-2.06-0.73-12.02,1.66-13.96,1.78c-1.94,0.12-13.8,2.39-17.27,11.37
				c-3.47,8.98-4.38,19.86-4.41,24.95c-0.03,5.09,0.4,8.83-0.22,9.07c-0.62,0.24-7.83-0.7-10.45-0.44
				c-2.63,0.26-4.53,0.14-5.39,1.43c-0.87,1.29-2.14,3.6,1.08,7.68c3.21,4.08,17.71,5.89,21.75,7.85c4.04,1.96,6.49-5.27,7.79-9.41
				c1.3-4.14,3.14-10.7,4.87-13.78c1.73-3.08,4.28-7.77,4.31-8.52c0.03-0.75,1.36,0.38,1.79-0.23c0.43-0.6,0.75-1.64,0.75-1.64
				s5.97,0.25,7.51-0.01c1.54-0.26,8.51-0.53,8.83,0.1c0.32,0.63-3.34,13.59-3.71,20.38c-0.37,6.79-0.37,11.67-1.63,13.88
				c0,0-1.04-0.85-1.38,0.27c-0.34,1.12-1.2,3.99-1.86,4.47c-0.66,0.48-8.57,11.79-12.1,15.17c-3.52,3.38-5.4,8.02-6.25,10.81
				c-0.85,2.79,1.26,6.45,1.42,8.73c0.15,2.28,3.48,7.8,6.56,9.44c3.09,1.64,6.56-1.41,7.3-6.23c0.74-4.81,1.52-9.37,2.12-10.03
				c0.6-0.66,1.98-0.95,2.11-1.26c0.13-0.32,11.17-8.64,15.7-14.2c4.53-5.57,4.25-8.11,5.29-8.87c1.03-0.76,2.24-0.99,2.61-1.77
				c0.37-0.78,21.57-22.35,27.92-33.55c6.35-11.2,16.83-15.39,16.83-15.39s1.41-0.33,2.79,0.56c1.51,1.97,4.45,4.82,4.61,5.08
				c0.95,1.44,2,2.49,3.57,3.77c1.58,1.28,8.54,3.2,11.41,2.99c2.87-0.2,8.39,3.11,8.39,3.11s2.12-0.08,2.96-1.97
				c0.84-1.89,7.48-13.22,7.48-13.22s-0.11-0.23-1-0.89c-0.89-0.67-8.11-2.57-8.24-3.33c-0.13-0.75-2.79-0.97-3.43-1.15
				c-0.64-0.18-0.71-0.94-0.89-1.98c-0.18-1.04-1.69,0.29-2.12,0.37c-0.42,0.07-1.83-0.75-2.61-0.81c-0.78-0.06,0.26-0.72,0.53-1.45
				c0.26-0.72,0-2.81,0.42-3.18c0.42-0.37,0.5-1.06-0.07-2.12c-0.57-1.06,0.92-4.23,1.46-7.82c0.54-3.58-2.15-7.39-2.47-8.11
				c-0.32-0.72-3.61-3.96-3.66-4.82c-0.05-0.86-2.33-2.94-2.33-2.94s-9.14,14.54-26.37,1.73
				C182.89,178.66,197.9,169.21,197.9,169.21z"/>
			<path fill="none" stroke="#000000" stroke-linecap="round" stroke-linejoin="round" stroke-miterlimit="10" d="M247.29,175.45
				c0,0-0.41-1.55-3.99-0.09"/>
			<path fill="#E3AB8D" stroke="#000000" stroke-linecap="round" stroke-linejoin="round" stroke-miterlimit="10" d="M240.57,159.11
				c0,0-0.88-2.88-5.47-4.72C238,155.18,240.31,156.49,240.57,159.11z"/>
			<path fill="#E3AB8D" stroke="#000000" stroke-linecap="round" stroke-linejoin="round" stroke-miterlimit="10" d="M220.37,146.43
				c0,0-1.54-2.59-6.43-3.28C216.94,143.22,219.49,143.95,220.37,146.43z"/>
			<path fill="none" stroke="#000000" stroke-linecap="round" stroke-linejoin="round" stroke-miterlimit="10" d="M167.11,163.22
				c0,0-3.86,0.76-5.23,1.81c-1.37,1.05-3.86,2.94-4.01,2.59c-0.15-0.36,0.51-1.13,0.51-1.13"/>
			<path fill="none" stroke="#000000" stroke-linecap="round" stroke-linejoin="round" stroke-miterlimit="10" d="M165.01,157.73
				c0,0-5.5,0.05-7.55-0.97"/>
			<path fill="none" stroke="#000000" stroke-linecap="round" stroke-linejoin="round" stroke-miterlimit="10" d="M159.6,183.2
				c0,0,1.32-1.93,2.77-3.98c1.45-2.05,6.2-8.15,7.47-9.02"/>
			<path fill="none" stroke="#000000" stroke-linecap="round" stroke-linejoin="round" stroke-miterlimit="10" d="M171.87,161.87
				c0,0-3.19,2.88-4.83,3.96"/>
			<path fill="none" stroke="#000000" stroke-linecap="round" stroke-linejoin="round" stroke-miterlimit="10" d="M231.01,218.89
				c0,0-3.09,1.23-4.37,2.22c-1.28,1-3.85,3.66-4.15,4.65"/>
			<path fill="none" stroke="#000000" stroke-linecap="round" stroke-linejoin="round" stroke-miterlimit="10" d="M233.87,219.98
				c0,0-3.1,1.84-4.79,2.18"/>
			<path fill="none" stroke="#000000" stroke-linecap="round" stroke-linejoin="round" stroke-miterlimit="10" d="M232.2,214.55
				c0,0-3.05-0.64-5.99,0.54"/>
			<path fill="none" stroke="#000000" stroke-linecap="round" stroke-linejoin="round" stroke-miterlimit="10" d="M208.33,226.65
				c0,0,3.26-1.86,5.04-3.14"/>
			<path fill="none" stroke="#000000" stroke-linecap="round" stroke-linejoin="round" stroke-miterlimit="10" d="M227.46,191.68
				c0,0-7.13,9.2-17.87,8.06c-10.75-1.13-21.36-12.15-21.47-19.28c-0.12-7.48,2.12-10.18,6.37-13.93"/>
			<path fill="none" stroke="#FFFFFF" stroke-linecap="round" stroke-linejoin="round" stroke-miterlimit="10" d="M157.71,136.13
				c0,0,0.49,1.68,0.48,2.22"/>
			<path fill="none" stroke="#FFFFFF" stroke-linecap="round" stroke-linejoin="round" stroke-miterlimit="10" d="M256.64,226.68
				c0,0-1.53-0.02-2.12,0.11"/>
			<path fill="none" stroke="#000000" stroke-linecap="round" stroke-linejoin="round" stroke-miterlimit="10" d="M225.28,188.04
				c0,0-2.85,2.71-8.03,1.6"/>
			<path fill="none" stroke="#000000" stroke-linecap="round" stroke-linejoin="round" stroke-miterlimit="10" d="M198.93,169.46
				c0,0-2.22,1.2-1.94,5.66"/>
		</g>
		<path fill="none" stroke="#000000" stroke-linecap="round" stroke-linejoin="round" stroke-miterlimit="10" d="M141.24,204.48
			c0,0,5.84,0.51,8.11,1.51"/>
		<path fill="none" stroke="#000000" stroke-linecap="round" stroke-linejoin="round" stroke-miterlimit="10" d="M142.46,203.62
			c0,0,3.72-1.45,5.38-1.52"/>
		<path fill="none" stroke="#000000" stroke-linecap="round" stroke-linejoin="round" stroke-miterlimit="10" d="M147.21,234.66
			c0,0,2.03,0.63,2.72,2.96"/>
		<path fill="none" stroke="#000000" stroke-linecap="round" stroke-linejoin="round" stroke-miterlimit="10" d="M128.56,236.36
			c0,0-1.61-2.13-2.36-2.77"/>
		<path fill="none" stroke="#000000" stroke-linecap="round" stroke-linejoin="round" stroke-miterlimit="10" d="M104.54,251.75
			c0,0,2.01,1.45,2.52,3.23c0.5,1.78,1.16,1.49,1.16,1.49"/>
		<path fill="none" stroke="#000000" stroke-linecap="round" stroke-linejoin="round" stroke-miterlimit="10" d="M104.85,251.32
			c0,0,2.53,1.54,3.28,2.24"/>
		<path fill="none" stroke="#000000" stroke-linecap="round" stroke-linejoin="round" stroke-miterlimit="10" d="M136.79,301.3
			c0,0-0.93-1.4-2.52-1.95c-1.59-0.55-3.61-0.82-3.61-0.82"/>
		<path fill="none" stroke="#000000" stroke-linecap="round" stroke-linejoin="round" stroke-miterlimit="10" d="M135.91,299.33
			c0,0-2.38-1.13-3.39-2.5c-1.01-1.38-1.97-1.87-1.97-1.87"/>
		<path fill="none" stroke="#000000" stroke-linecap="round" stroke-linejoin="round" stroke-miterlimit="10" d="M142.04,269.05
			c0,0,0.32,1.45,1.1,2.55"/>
		<path fill="none" stroke="#000000" stroke-linecap="round" stroke-linejoin="round" stroke-miterlimit="10" d="M142.47,268.06
			c0,0,0.37,1.01,1.31,1.25"/>
		<g>
			<polygon fill="#E7E6E6" points="140.41,204.58 140.41,204.58 140.42,204.58 			"/>
		</g>
		<path fill="none" stroke="#000000" stroke-linecap="round" stroke-linejoin="round" stroke-miterlimit="10" d="M212.33,173.8
			c0,0-2.53-1.16-3.43-3.22"/>
		<path fill="#674122" stroke="#000000" stroke-linecap="round" stroke-linejoin="round" stroke-miterlimit="10" d="M220.57,136.99
			c-2.59,0.05-5.13,1.31-6.73,3.35c2.57-0.94,5.16-1.82,7.78-2.62c0.87-0.27,1.79-0.53,2.68-0.31c0.88,0.22,1.67,1.1,1.45,1.98
			c0.65-0.52,1.38-0.95,2.16-1.27c0.1,2.11,1.06,4.18,2.6,5.62c0.52-1.76,1.81-3.27,3.45-4.08c0.75,2.54,2.4,4.8,4.6,6.28
			c0.28-0.46,0.55-0.92,0.83-1.38c2.52,4.41,4.42,9.17,5.64,14.1c0.53,2.14,0.93,4.34,0.67,6.53c-0.42,3.59-2.55,6.73-4.62,9.7
			c0.66-0.25,1.21-0.75,1.53-1.38c-0.45,0.87,0.06,3.07,0.02,4.07c-0.58-1.08,0.68-1.57,1.27-2.22c0.9-0.99,2.03-1.86,2.72-3
			c1.41-2.35,2.26-3.22,3.13-5.82c1.55-4.64,3.05-13.47,1.45-18.27c-1.53-4.59-4.17-8.21-8.47-10.59c-3.92-2.17-8.39-3.1-12.82-3.75
			c-2.07-0.31-4.18-0.56-6.26-0.33c-4.1,0.45-7.94,2.86-10.13,6.36"/>
	</g>
	<g>
		<path fill="#FCDCCE" d="M208.8,228.43c0,0-9.18-2.27-13.97-3.73c0,0-11.92-4.69-17.5-6.62c-5.58-1.93-6.96-6.68-9.4-5.58
			c-2.44,1.1,1.14,8.01,5.08,11.16c3.94,3.15,8.9,3.49,8.23,7.22c-0.67,3.73-10.36,6.73-15.58,8.45
			c-5.22,1.72-13.41,6.25-15.65,7.88c-2.24,1.62-0.85,3.65,0.31,4.71c-3.23,1.4-3.86,2.93-3.62,4.34c0.25,1.41,3.23,2.45,6.71,1.7
			c0,0-2.94,0.79-2.33,3.12c0.6,2.33,2.8,2.47,5.37,2.08c2.57-0.39,7.17,0.5,11.39-0.68c4.22-1.18,8.09-2.08,8.09-2.08
			s-4.32,3.63-7.76,5.27c-3.44,1.63-6.7,1.39-6.38,3.38c0.32,1.99,5.69,2.62,13.28-0.77c7.58-3.39,16.59-7.79,21.84-9.82
			c5.25-2.03,16.78-7.78,16.78-7.78S214.91,237.58,208.8,228.43z"/>
		<path fill="#F1C3B3" d="M213.88,244.61l-2.75-0.07c0,0-7.83,1.38-15.98,6.19c-8.14,4.81-19.34,16.01-28,18.32
			c-1.81,0.48-3.26,0.83-4.43,1.07c1.89,0.97,6.43,0.77,12.33-1.87c7.58-3.39,16.59-7.79,21.84-9.82
			c5.25-2.03,16.78-7.78,16.78-7.78S214.43,249.44,213.88,244.61z"/>
		<path fill="none" stroke="#000000" stroke-linecap="round" stroke-linejoin="round" stroke-miterlimit="10" d="M208.8,228.43
			c0,0-9.18-2.27-13.97-3.73c0,0-11.92-4.69-17.5-6.62c-5.58-1.93-6.96-6.68-9.4-5.58c-2.44,1.1,1.14,8.01,5.08,11.16
			c3.94,3.15,8.9,3.49,8.23,7.22c-0.67,3.73-10.36,6.73-15.58,8.45c-5.22,1.72-13.41,6.25-15.65,7.88
			c-2.24,1.62-0.85,3.65,0.31,4.71c-3.23,1.4-3.86,2.93-3.62,4.34c0.25,1.41,3.23,2.45,6.71,1.7c0,0-2.94,0.79-2.33,3.12
			c0.6,2.33,2.8,2.47,5.37,2.08c2.57-0.39,7.17,0.5,11.39-0.68c4.22-1.18,8.09-2.08,8.09-2.08s-4.32,3.63-7.76,5.27
			c-3.44,1.63-6.7,1.39-6.38,3.38c0.32,1.99,5.69,2.62,13.28-0.77c7.58-3.39,16.59-7.79,21.84-9.82c5.25-2.03,16.78-7.78,16.78-7.78
			S214.91,237.58,208.8,228.43z"/>
		<path fill="none" stroke="#000000" stroke-linecap="round" stroke-linejoin="round" stroke-miterlimit="10" d="M150.31,251.9
			c0,0,16.66-4.19,22.3-6.38"/>
		<path fill="none" stroke="#000000" stroke-linecap="round" stroke-linejoin="round" stroke-miterlimit="10" d="M153.41,257.94
			c0,0,17.1-4.15,21.31-5.34"/>
	</g>
	<g>
		<path fill="#FCDCCE" d="M54.42,236.67c0,0,13.91,3.64,19.99,4.38c6.08,0.75,11.97,5.13,15.6,8.2c3.63,3.07,10.86,6.48,10.9,8.42
			c0.04,1.93-3.35,2.76-3.35,2.76s8.05,6.16,9.17,6.9c1.12,0.74,0.4,2.34-1.54,2.85c2.08,1.12,1.87,2.05,0.64,3.22
			c-1.23,1.16-4.94,0.61-4.94,0.61s-1.3,1.47-2.92,1.58c-1.63,0.11-13.11-2.03-17.03-3.24c2.25,1.96,8.13,3.62,10.22,4.25
			c2.1,0.64,1.88,2.19,0.42,2.66c-1.46,0.47-9.24-1.94-12.41-2.83c-3.17-0.88-13.13-4.28-18.89-7.83
			c-5.76-3.56-21.26-16.85-21.26-16.85S43.75,241.3,54.42,236.67z"/>
		<path fill="#F1C3B3" d="M105.19,270.19c1.95-0.52,2.66-2.12,1.54-2.85c-0.85-0.56-5.68-4.24-7.97-5.98c0,0,0,0,0,0
			c-0.08,3.88-5.22,3.94-5.22,3.94s0.5,0.43,2.63,1.26c-1.21,0.72-9.08,0.46-9.91,0.73c-0.83,0.27-4.14,0.03,1.52,2.5
			c-2.77,1.53-17.38-4.91-17.82-4.19c-0.44,0.73,5.12,3.89,5.12,3.89s-8.86-1.75-16.49-6.57c-0.01,0-0.01,0-0.02-0.01
			c-4.19-1.9-7.34-6.43-10.28-9.83c-1.59-1.83-5.31-4.62-6.6-6.54c-1.84,2.82-2.66,5.23-2.66,5.23s15.5,13.29,21.26,16.85
			c5.76,3.56,15.73,6.95,18.89,7.83c3.16,0.88,10.95,3.3,12.41,2.83c1.46-0.47,1.68-2.02-0.42-2.66c-2.1-0.64-7.97-2.3-10.22-4.25
			c3.92,1.21,15.4,3.35,17.03,3.24c1.63-0.11,2.92-1.58,2.92-1.58s3.72,0.55,4.94-0.61C107.05,272.24,107.27,271.3,105.19,270.19z"
			/>
		<path fill="none" stroke="#000000" stroke-linecap="round" stroke-linejoin="round" stroke-miterlimit="10" d="M54.42,236.67
			c0,0,13.91,3.64,19.99,4.38c6.08,0.75,11.97,5.13,15.6,8.2c3.63,3.07,10.86,6.48,10.9,8.42c0.04,1.93-3.35,2.76-3.35,2.76
			s8.05,6.16,9.17,6.9c1.12,0.74,0.4,2.34-1.54,2.85c2.08,1.12,1.87,2.05,0.64,3.22c-1.23,1.16-4.94,0.61-4.94,0.61
			s-1.3,1.47-2.92,1.58c-1.63,0.11-13.11-2.03-17.03-3.24c2.25,1.96,8.13,3.62,10.22,4.25c2.1,0.64,1.88,2.19,0.42,2.66
			c-1.46,0.47-9.24-1.94-12.41-2.83c-3.17-0.88-13.13-4.28-18.89-7.83c-5.76-3.56-21.26-16.85-21.26-16.85S43.75,241.3,54.42,236.67
			z"/>
		<path fill="none" stroke="#000000" stroke-linecap="round" stroke-linejoin="round" stroke-miterlimit="10" d="M97.56,260.44
			c0,0-5.64-3.37-8.67-4.86c-3.03-1.49-9.17-6.9-14.03-9.45"/>
		<path fill="none" stroke="#000000" stroke-linecap="round" stroke-linejoin="round" stroke-miterlimit="10" d="M105.19,270.19
			c0,0-5.06-1.31-9.08-3.35c-4.02-2.04-14.58-8.45-18.5-10.95"/>
		<path fill="none" stroke="#000000" stroke-linecap="round" stroke-linejoin="round" stroke-miterlimit="10" d="M100.88,274.01
			c0,0-10.1-2.78-14.89-5c-4.78-2.21-12.74-8.1-12.74-8.1"/>
		<path fill="none" stroke="#000000" stroke-linecap="round" stroke-linejoin="round" stroke-miterlimit="10" d="M80.93,272.35
			c0,0-6.3-2.72-11.57-6.32"/>
	</g>
	<path fill="none" stroke="#000000" stroke-linecap="round" stroke-linejoin="round" stroke-miterlimit="10" d="M78.6,199.84
		c0,0,7.3,15.14,30.36,14.54"/>
</g>
</svg>
