<?xml version="1.0" encoding="utf-8"?>
<!-- Generator: Adobe Illustrator 16.0.0, SVG Export Plug-In . SVG Version: 6.00 Build 0)  -->
<!DOCTYPE svg PUBLIC "-//W3C//DTD SVG 1.1//EN" "http://www.w3.org/Graphics/SVG/1.1/DTD/svg11.dtd">
<svg version="1.1" id="Layer_1" xmlns="http://www.w3.org/2000/svg" xmlns:xlink="http://www.w3.org/1999/xlink" x="0px" y="0px"
	 width="295.357px" height="73.189px" viewBox="0 0 295.357 73.189" enable-background="new 0 0 295.357 73.189"
	 xml:space="preserve">
<g>
	<g>
		<g>
			<g>
				<g>
					<g>
						<g>
							<g>
								<g>
									<polygon fill="#909090" stroke="#000000" stroke-width="1.8613" stroke-miterlimit="10" points="246.575,39.286 
										243.529,34.009 213.703,51.229 212.588,55.392 216.745,56.503 									"/>
									<polygon fill="#909090" stroke="#000000" stroke-width="1.8613" stroke-miterlimit="10" points="276.396,22.064 
										216.745,56.503 212.588,55.392 213.703,51.229 273.352,16.788 277.515,17.906 									"/>
								</g>
							</g>
						</g>
						<path fill="#909090" stroke="#000000" stroke-width="1.8613" stroke-miterlimit="10" d="M262.953,9.472
							c4.659-8.068,14.968-10.83,23.04-6.172c8.064,4.654,10.827,14.971,6.172,23.035c-4.654,8.064-14.973,10.83-23.037,6.176
							C261.06,27.849,258.296,17.537,262.953,9.472z"/>
					</g>
				</g>
				<g>
					<g>
						<g>
							<g>
								<g>
									<g>
										<g>
											<polygon fill="#909090" stroke="#000000" stroke-width="1.8613" stroke-miterlimit="10" points="21.885,16.747 
												81.535,51.187 82.65,55.347 78.49,56.462 18.84,22.021 17.726,17.862 											"/>
											<g>
												<polygon fill="#909090" stroke="#000000" stroke-width="1.8613" stroke-miterlimit="10" points="83.869,51.19 
													143.52,16.751 147.677,17.862 146.563,22.024 86.913,56.466 82.75,55.349 												"/>
												
													<polygon fill="#DB3333" stroke="#000000" stroke-width="2" stroke-linecap="round" stroke-linejoin="round" stroke-miterlimit="10" points="
													113.69,33.968 116.738,39.245 146.563,22.024 147.677,17.862 143.52,16.751 												"/>
											</g>
											<path fill="#909090" stroke="#000000" stroke-width="1.8613" stroke-miterlimit="10" d="M147.742,34.685
												c-9.31,0.004-16.862-7.547-16.86-16.863c0-9.313,7.551-16.861,16.86-16.861c9.314,0,16.869,7.549,16.869,16.861
												C164.611,27.136,157.057,34.688,147.742,34.685z"/>
										</g>
										<path fill="#909090" stroke="#000000" stroke-width="1.8613" stroke-miterlimit="10" d="M17.794,34.685
											C8.479,34.688,0.926,27.138,0.931,17.821c0-9.313,7.549-16.861,16.863-16.861c9.31,0,16.865,7.549,16.865,16.861
											C34.659,27.136,27.104,34.688,17.794,34.685z"/>
									</g>
									<path fill="#909090" stroke="#000000" stroke-width="1.8613" stroke-miterlimit="10" d="M97.312,63.782
										c-4.657,8.068-14.967,10.83-23.04,6.172C66.208,65.3,63.446,54.983,68.1,46.919c4.654-8.064,14.974-10.83,23.038-6.176
										C99.205,45.405,101.97,55.718,97.312,63.782z"/>
								</g>
							</g>
						</g>
					</g>
				</g>
				<polygon fill="#909090" stroke="#000000" stroke-width="1.8613" stroke-miterlimit="10" points="151.836,16.747 211.486,51.187 
					212.602,55.347 208.441,56.462 148.791,22.021 147.677,17.862 				"/>
				
					<polygon fill="#DB3333" stroke="#000000" stroke-width="2" stroke-linecap="round" stroke-linejoin="round" stroke-miterlimit="10" points="
					178.619,39.241 181.665,33.964 151.838,16.747 147.676,17.864 148.793,22.021 				"/>
				<path fill="#909090" stroke="#000000" stroke-width="1.8613" stroke-miterlimit="10" d="M227.193,63.823
					c-4.658,8.068-14.967,10.83-23.039,6.172c-8.064-4.654-10.826-14.971-6.173-23.035c4.655-8.064,14.974-10.83,23.038-6.176
					C229.088,45.446,231.852,55.758,227.193,63.823z"/>
				
					<path fill="#DB3333" stroke="#000000" stroke-width="2" stroke-linecap="round" stroke-linejoin="round" stroke-miterlimit="10" d="
					M147.676,34.726c-9.314,0.003-16.868-7.547-16.862-16.863C130.813,8.55,138.361,1,147.676,1c9.311,0,16.865,7.55,16.865,16.862
					C164.541,27.176,156.986,34.729,147.676,34.726z"/>
			</g>
		</g>
	</g>
</g>
</svg>
