<?xml version="1.0" encoding="utf-8"?>
<!-- Generator: Adobe Illustrator 16.0.0, SVG Export Plug-In . SVG Version: 6.00 Build 0)  -->
<!DOCTYPE svg PUBLIC "-//W3C//DTD SVG 1.1//EN" "http://www.w3.org/Graphics/SVG/1.1/DTD/svg11.dtd">
<svg version="1.1" id="Layer_1" xmlns="http://www.w3.org/2000/svg" xmlns:xlink="http://www.w3.org/1999/xlink" x="0px" y="0px"
	 width="345.952px" height="514.746px" viewBox="0 0 345.952 514.746" enable-background="new 0 0 345.952 514.746"
	 xml:space="preserve">
<g>
	<g>
		<path fill="#222222" d="M25.613,44.188c0,0-3.782,2.131-3.267,8.376c0.516,6.252,8.076,20.142,9.49,31.663
			c1.414,11.517-16.82,35.271-26.708,44.27c3.112-5.315,3.64-27.578-0.347-55.875C1.149,46.846,19.227,40.506,22.474,39.581
			c0.317-0.092,0.492-0.128,0.492-0.128L25.613,44.188z"/>
		<path fill="none" stroke="#000000" stroke-linecap="round" stroke-linejoin="round" stroke-miterlimit="10" d="M25.613,44.188
			c0,0-3.782,2.131-3.267,8.376c0.516,6.252,8.076,20.142,9.49,31.663c1.414,11.517-16.82,35.271-26.708,44.27
			c3.112-5.315,3.64-27.578-0.347-55.875C1.149,46.846,19.227,40.506,22.474,39.581c0.317-0.092,0.492-0.128,0.492-0.128
			L25.613,44.188z"/>
		<path fill="#7FACCD" d="M28.191,44.465c-0.036,1.459-3.388,2.412-3.388,2.412s-3.352-7.013-3.161-7.614
			c0.192-0.595,3.364-1.857,3.364-1.857S28.229,43.005,28.191,44.465z"/>
		<path fill="none" stroke="#000000" stroke-linecap="round" stroke-linejoin="round" stroke-miterlimit="10" d="M28.191,44.465
			c-0.036,1.459-3.388,2.412-3.388,2.412s-3.352-7.013-3.161-7.614c0.192-0.595,3.364-1.857,3.364-1.857
			S28.229,43.005,28.191,44.465z"/>
		<g>
			<g id="XMLID_33_">
				<g>
					<path fill="#2483D2" d="M115.237,101.288c-1.416-1.92-3.17-3.674-5.107-5.242c-8.381-6.846-20.385-10.554-25.525-11.987
						c-1.585-0.438-4.08-1.08-7.049-1.787c4.334,23.57-2.512,50.057-2.512,50.057s-15.021-20.08-19.944-24.446
						c-4.923-4.351-17.499-23.823-17.499-23.823l-0.254-0.388c-5.463,3.423-11.262,8.075-15.966,12.898
						c-9.054,9.272-20.652,27.817-20.855,38.573c-0.219,10.757,2.529,21.917,4.215,27.178c0.338,1.046,0.759,2.916,1.23,5.277
						c0,0,1.923,27.886,1.079,30.668c-0.842,2.764-3.506,18.511-3.658,22.995c-0.135,4.502-0.135,37.377-1.112,41.728
						c-0.995,4.366-1.265,10.115-1.265,10.115s2.023,0.202,5.227,0.558c9.003,0.993,27.262,3.169,35.657,5.344
						c5.732,1.483,14.331,2.091,22.896,1.988c8.396-0.066,16.758-0.791,22.338-1.988c9.223-1.957,17.67-5.514,20.418-6.744
						c0.606-0.27,0.943-0.421,0.943-0.421s1.821-20.653,1.821-23.739c0-3.085,0-15.896,0-15.896l-1.821-19.625
						c0-7.284,2.968-35.557,4.063-48.926h0.017c0,0,0.135,2.545,4.198,4.079c0.877,0.337,2.546-0.271,4.619-1.451
						c7.485-4.298,20.282-16.267,19.827-18.915C140.661,143.995,122.824,111.54,115.237,101.288z"/>
					<path fill="#444444" d="M109.69,454.645c1.315,0.523,1.467,1.164,1.467,1.164c0.117,2.141-0.051,3.894-0.422,5.377
						c0,0.019-0.016,0.035-0.016,0.052c-1.366,2.866-9.441,2.528-17.265,3.22c-7.874,0.709-12.155-6.592-12.155-6.592
						c-0.691-5.464-1.197-14.331-1.197-14.331c7.232-0.016,18.443-2.95,21.361-7.738
						C101.464,435.796,106.825,444.394,109.69,454.645z"/>
					<path fill="#222222" d="M81.3,457.866c0,0,4.281,7.301,12.155,6.592c7.823-0.691,15.898-0.354,17.265-3.22
						c-2.023,7.806-10.201,7.081-16.709,7.435c-7.721,0.423-11.093-4.062-12.07-7.165C81.721,460.8,81.502,459.484,81.3,457.866z"/>
					<path fill="#222222" d="M18.126,491.079c0.71,0.168,20.351,4.939,27.279,1.349c7.064-3.674,7.048-9.896,9.408-12.931
						c-1.535,1.972-1.956,7.873-2.799,11.801c-0.844,3.929-8.852,6.879-17.281,6.609C26.726,497.637,19.104,496.61,18.126,491.079z"
						/>
					<path fill="#444444" d="M57.493,473.327c0.422,3.54-1.129,4.197-2.68,6.17c-2.36,3.034-2.344,9.257-9.408,12.931
						c-6.929,3.591-26.569-1.181-27.279-1.349c-0.066-0.287-0.1-0.592-0.117-0.91c-0.286-6.322,8.008-17.889,8.008-17.889
						C29.812,472.737,48.306,474.809,57.493,473.327z"/>
					<path fill="#0160BA" d="M32.103,183.056c7.352-3.513,13.49,2.543,9.478,4.494c-7.165,4.434-27.786,8.927-29.472,7.864
						C12.108,195.415,20.454,188.587,32.103,183.056z"/>
					<path fill="#2483D2" d="M107.499,356.844c-0.557-4.08,0.151-30.482-0.422-35.404c-0.556-4.924,2.191-36.098,0.473-49.163
						v-0.017c-2.748,1.23-11.195,4.787-20.418,6.744c-5.58,1.197-13.941,1.922-22.338,1.988c-8.564,0.103-17.163-0.505-22.896-1.988
						c-8.396-2.175-26.654-4.351-35.657-5.344c0,0,3.086,15.206,7.367,28.508c0,0,2.782,20.266,5.665,33.112
						c0,0,1.687,46.565,2.529,55.568c0.843,8.986,0.708,30.348,0,32.725c-0.708,2.394-3.659,18.545-2.529,26.554
						c0.455,3.254,2.462,6.087,4.721,8.345c0,0-0.337,10.774,1.331,13.724c0,0,0.236,0.034,0.691,0.084
						c3.795,0.457,22.289,2.529,31.477,1.047c0.541-0.086,1.062-0.169,1.535-0.287c0,0,7.029-17.568,7.586-19.254
						c0.573-1.687,0-5.766-0.691-8.008c-0.707-2.243-1.129-8.716-1.129-10.959c0-2.242-3.793-42.57-3.929-51
						c-0.067-3.355,0.22-8.024,0.591-12.645c0.572-7.014,1.349-13.876,1.518-15.729c0.033-0.454,0.101-2.378,0.185-5.328
						c0.118,0.894,3.474,15.343,4.722,18.106c1.264,2.816,3.658,33.585,5.479,36.67c1.163,1.957-0.387,3.523-1.72,4.975
						c-0.759,0.843-1.449,1.651-1.5,2.477c-0.152,2.243,2.106,10.538,1.112,14.18c-0.978,3.658-0.691,12.932,3.237,15.881
						c1.028,0.775,3.067,1.13,5.614,1.13c7.232-0.016,18.443-2.95,21.361-7.738c3.928-6.456,2.814-8.277,2.814-8.277
						s0.169-0.152,0.405-0.455c1.079-1.214,3.675-4.739,2.546-8.818c-0.725-2.597-2.698-8.616-4.434-13.858c0,0,0,0,0-0.016
						c0.049-0.743,1.467-23.166,0.64-28.274C102.593,370.888,108.056,360.924,107.499,356.844z"/>
					<path fill="#C18362" d="M183.366,148.344l-1.535,17.146c0,0-35.977,2.107-42.013,2.815c-6.036,0.691-18.428-2.024-18.428-2.024
						c7.485-4.298,20.282-16.267,19.827-18.915L183.366,148.344z"/>
					<path fill="#CB9A80" d="M77.556,82.271c4.334,23.57-2.512,50.057-2.512,50.057s-15.021-20.08-19.944-24.446
						c-4.923-4.351-17.499-23.823-17.499-23.823l-0.254-0.388c5.025-3.169,9.762-5.328,13.117-5.646
						C55.42,77.55,68.621,80.181,77.556,82.271z"/>
				</g>
			</g>
		</g>
		<g>
			<polygon fill="#CB9A80" points="143.624,149.424 140.867,159.53 181.594,158.305 182.206,150.343 			"/>
		</g>
		<g>
			<path fill="#0160BA" d="M64.794,434.819c0-2.242-3.793-42.57-3.929-51c-0.067-3.355,0.22-8.024,0.591-12.645
				c0.052-0.636,0.105-1.268,0.16-1.896c-3.464,6.776-11.404,22.317-12.715,24.94c-1.687,3.372-2.248,12.926-1.687,16.858
				c0.562,3.935,6.745-21.637,8.712-22.197c1.967-0.562,1.404,14.048,2.81,19.105c1.405,5.059,1.405,30.91,3.934,34.282
				c2.529,3.372,1.405,8.71-10.397,11.239c-11.801,2.528-16.016,5.057-9.553,5.34c6.463,0.28,17.14-4.779,20.512-6.184
				c1.324-0.551,2.516-0.142,3.461,0.773c0.414-1.84-0.119-5.55-0.77-7.658C65.216,443.535,64.794,437.062,64.794,434.819z
				 M74.752,435.804c-5.339-1.126,0-7.587,4.216-10.396c4.214-2.808-6.464-8.993-2.811-8.993c3.654,0,18.826,10.398,18.826,10.398
				s-1.967-11.24-9.272-12.926c-7.306-1.688-10.678-2.811-9.272-5.902c1.404-3.092,3.371-4.775,3.652-10.114
				c0.281-5.34-0.843-17.14-1.404-20.793c-0.562-3.654,7.306-20.513,6.182-22.761c-1.124-2.247-9.272,8.991-10.678,5.058
				s-4.496-17.702-7.306-22.479c-2.089-3.552-1.849-29.936-1.587-43.236c5.078-1.384,23.65-14.447,34.182-17.458
				c3.723-1.063,6.434-0.95,8.408-0.299c-0.086-1.313-0.195-2.537-0.338-3.626v-0.017c-2.748,1.23-11.195,4.787-20.418,6.744
				c-5.58,1.197-13.941,1.922-22.338,1.988c-8.564,0.103-17.163-0.505-22.896-1.988c-8.396-2.175-26.654-4.351-35.657-5.344
				c0,0,0.392,1.922,1.078,4.964c7.547-0.685,19.797-1.479,26.127-0.176c9.555,1.969,28.942,13.207,30.629,15.174
				c0.11,0.13,0.315,0.177,0.594,0.161c-0.842,12.758-1.067,36.076-1.053,58.474c0.98,4.322,3.276,13.782,4.264,15.966
				c1.264,2.816,3.658,33.585,5.479,36.67c1.163,1.957-0.387,3.523-1.72,4.975c-0.759,0.843-1.449,1.651-1.5,2.477
				c-0.152,2.243,2.106,10.538,1.112,14.18c-0.957,3.577-0.693,12.51,2.994,15.663c1.9-1.794,4.824-3.694,9.217-4.697
				c5.521-1.264,12.9-1.903,18.313-2.225c3.538-6.016,2.503-7.746,2.503-7.746s0.169-0.152,0.405-0.455
				c0.201-0.228,0.46-0.556,0.732-0.93C93.068,434.157,79.377,436.778,74.752,435.804z M46.935,349.259
				c-3.372-0.844-3.372,17.142-7.307,21.635c-3.934,4.496-13.768,21.917-13.768,21.917s-2.248-32.033-2.248-36.526
				c0-4.495,5.339-10.96,1.686-17.141c-3.654-6.184,3.091-15.736-1.404-19.671c-2.543-2.227-7.514-12.362-11.352-20.748
				c0.347,1.154,0.701,2.308,1.066,3.443c0,0,2.782,20.266,5.665,33.112c0,0,1.687,46.565,2.529,55.568
				c0.843,8.986,0.708,30.348,0,32.725c-0.121,0.41-0.312,1.245-0.532,2.351c1.414-3.121,3.016-7.695,4.871-14.848
				c3.932-15.173,18.826-43.273,21.073-49.454C49.462,355.439,50.306,350.101,46.935,349.259z M100.322,360.778
				c0.894,2.905,1.612,11.299,3.279,17.025c-0.04-0.68-0.095-1.261-0.166-1.706c-0.801-4.948,4.077-14.177,4.093-18.587
				c-0.966,0.408-1.984,0.678-2.991,0.74C100.041,358.532,99.197,357.125,100.322,360.778z M100.322,348.698
				c-3.934,4.775-6.181,8.429-1.404,5.9c2.421-1.281,5.632-3.352,8.359-4.613c-0.027-4.652,0.027-10.789,0.039-16.25
				C105.21,339.398,102.44,346.125,100.322,348.698z"/>
			<path fill="#0160BA" d="M34.009,462.778c-3.871-1.009-9.24-4.936-12.935-7.927c0.822,1.327,1.84,2.541,2.92,3.621
				c0,0-0.337,10.774,1.331,13.724c0,0,0.236,0.034,0.691,0.084c0.135,0.017,0.329,0.038,0.5,0.059
				c-1.838-3.644,0.568-7.963,3.84-5.345c4.215,3.371,28.099,2.529,26.412-3.091C55.083,458.284,40.472,464.463,34.009,462.778z"/>
			<path fill="#3196DB" d="M38.785,325.374c-0.708,7.797,2.247,13.486,6.744,17.422c4.496,3.935,6.743,10.116,3.935,16.858
				c-2.811,6.745-16.298,34.843-16.859,40.464c-0.562,5.619,19.105-38.215,21.354-43.271c2.247-5.059,6.183-16.301,2.247-19.109
				C52.272,334.928,39.347,319.192,38.785,325.374z"/>
			<path fill="#3196DB" d="M83.744,337.737c-0.516,5.156-0.562,11.801,3.934,13.488c4.497,1.687,8.991,1.687,10.116-3.934
				c1.124-5.619-1.687-8.994-1.687-17.984C96.107,320.316,84.869,326.497,83.744,337.737z"/>
		</g>
		<g>
			<path fill="#0160BA" d="M20.522,245.853c-8.711-2.528-12.927-4.214-7.869-8.709s0-10.959-0.844-21.917
				c-0.842-10.959,6.183-14.611,13.488-15.455c7.305-0.844-16.297,10.677-5.339,9.272c7.448-0.955,16.448-9.174,21.453-14.344
				c-2.042-2.104-3.669-4.008-5.161-5.896c-5.48,3.393-15.699,6.077-20.964,6.679c-0.139,0.03-0.272,0.059-0.386,0.072
				c-0.165,0.023-0.313,0.015-0.466,0.015c-1.172,0.092-2.004,0.048-2.327-0.156c0,0,0.21-0.169,0.57-0.451
				c-2.039-1.659-2.24-6.271-3.116-8.679c-0.478-1.316-1.771-5.994-3.099-10.932c0.504,8.472,1.139,21.087,0.586,22.912
				c-0.842,2.764-3.506,18.511-3.658,22.995c-0.135,4.502-0.135,37.377-1.112,41.728c-0.995,4.366-1.265,10.115-1.265,10.115
				s1.536,0.155,4.047,0.429c5.48-8.178,5.63-24.646,8.717-24.868c3.934-0.281,29.223,12.927,42.99,15.456
				c13.77,2.527,4.215,9.834,6.463,10.114c2.247,0.282,10.115-3.653,10.127-7.869C73.37,262.148,29.231,248.382,20.522,245.853z
				 M122.318,157.821c3.845-2.124,10.956-6.571,17.681-13.532c-0.478-1.031-1.078-2.261-1.783-3.653
				c-3.275,4.54-8.897,11.49-15.772,16.596c0.985-4.32,5.321-16.818,4.573-21.807c-0.843-5.62-2.248-18.263-3.091-12.925
				s-1.968,25.009-3.372,26.976c-1.059,1.479,0.907-30.011-6.571-49.739c-1.15-1.322-2.451-2.556-3.853-3.69
				c-1.625-1.329-3.391-2.534-5.211-3.633c2.84,10.654,8.17,30.482,9.184,33.035c1.393,3.514,0.269,19.812-0.293,26.273
				c-0.246,2.833-0.492,8.201-0.691,13.34c0.53,0.838,1.573,1.886,3.653,2.671c0.877,0.337,2.546-0.271,4.619-1.451
				c1.166-0.669,2.468-1.538,3.82-2.518c-1.476-1.991-2.972-3.911-2.972-5.297C122.239,158.313,122.271,158.086,122.318,157.821z
				 M72.224,187.409c-1.119,0.084-2.176,0.396-3.189,0.866c3.313,2.012,8.053,4.923,12.32,7.671
				c9.824-15.572,17.744-34.789,17.844-56.025C99.202,139.032,87.116,186.287,72.224,187.409z M67.934,214.069
				c-4.224-2.231-8.247-4.559-11.798-6.921c-4.328,10.948-7.653,23.232-11.73,27.747C40.544,239.17,53.602,230.783,67.934,214.069z
				 M11.529,120.533c0,0,12.964-23.924,28.793-32.341c-1.644-2.464-2.722-4.134-2.722-4.134l-0.254-0.388
				c-5.463,3.423-11.262,8.075-15.966,12.898c-9.054,9.272-20.652,27.817-20.855,38.573c-0.021,1.043-0.007,2.089,0.024,3.132
				C2.583,132.758,6.398,124.197,11.529,120.533z M34.29,124.467c-2.811-3.652-7.867-13.769-11.521-14.895
				c-3.653-1.124-2.247,4.498,0.843,7.308c3.092,2.811,3.653,9.272-0.562,5.901c-4.214-3.371-8.991-0.282-1.123,3.371
				c7.868,3.654,27.537,27.537,27.537,27.537c-3.935-15.174-5.34-28.942-8.992-30.908C36.819,120.815,37.101,128.119,34.29,124.467z
				"/>
			<path fill="#3196DB" d="M101.165,121.936c0,0,0.661,25.829-15.734,46.084C85.431,168.02,86.554,143.854,101.165,121.936z"/>
			<path fill="#3196DB" d="M106.785,98.333c0,0,12.927,32.596,2.249,66.314L106.785,98.333z"/>
		</g>
		<g>
			<path fill="none" stroke="#000000" stroke-linecap="round" stroke-linejoin="round" stroke-miterlimit="10" d="M60.865,176.229
				c-14.242,13.109-47.077,20.24-48.763,19.186c-1.686-1.054-5.689-27.817-7.376-33.086c-1.687-5.27-4.426-16.438-4.215-27.187
				c0.21-10.748,11.802-29.293,20.863-38.565c9.062-9.272,22.109-17.877,29.083-18.545c6.603-0.633,27.818,4.244,34.141,6.021
				c6.321,1.776,23.04,6.977,30.627,17.231c7.587,10.256,25.431,42.711,25.992,46.082c0.562,3.372-20.371,21.915-24.446,20.371
				c-4.075-1.545-4.21-4.086-4.21-4.086"/>
			<path fill="none" stroke="#000000" stroke-linecap="round" stroke-linejoin="round" stroke-miterlimit="10" d="M20.532,120.391
				c0,0,17.07,14.541,22.339,21.705c4.142,5.634,13.753,24.549,18.904,36.172"/>
			<path fill="none" stroke="#000000" stroke-linecap="round" stroke-linejoin="round" stroke-miterlimit="10" d="M12.103,195.415
				c0,0,24.994-20.429,48.759-19.18"/>
			<path fill="none" stroke="#000000" stroke-linecap="round" stroke-linejoin="round" stroke-miterlimit="10" d="M37.59,84.052
				c0,0,12.587,19.477,17.504,23.834c4.917,4.356,19.95,24.446,19.95,24.446s6.836-26.488,2.505-50.053"/>
			<path fill="none" stroke="#000000" stroke-linecap="round" stroke-linejoin="round" stroke-miterlimit="10" d="M108.481,98.333
				c0,0,3.794,22.479,5.621,27.114c1.826,4.638-0.983,25.43-1.125,32.033c-0.141,6.604-4.496,46.26-4.496,55.093l1.827,19.624
				c0,0,0,12.811,0,15.902s-1.827,23.744-1.827,23.744s-10.114,4.775-21.354,7.165c-11.24,2.389-33.858,2.95-45.239,0
				c-11.38-2.95-40.884-5.901-40.884-5.901s0.28-5.76,1.265-10.115c0.983-4.355,0.982-37.23,1.123-41.727
				c0.141-4.497,2.811-20.23,3.653-23.006c0.843-2.774-1.087-30.669-1.087-30.669"/>
			<path fill="none" stroke="#000000" stroke-linecap="round" stroke-linejoin="round" stroke-miterlimit="10" d="M95.276,153.266
				c0,0-12.364,35.968-19.529,32.033"/>
			<path fill="none" stroke="#000000" stroke-linecap="round" stroke-linejoin="round" stroke-miterlimit="10" d="M26.995,114.769
				c0,0,12.984,18.533,17.381,29.568"/>
			<path fill="none" stroke="#000000" stroke-linecap="round" stroke-linejoin="round" stroke-miterlimit="10" d="M7.185,243.323
				c0,0,15.174,1.123,27.257,5.901s38.215,14.611,38.917,17.141c0.702,2.528-3.091,5.478-3.512,5.619"/>
			<path fill="none" stroke="#000000" stroke-linecap="round" stroke-linejoin="round" stroke-miterlimit="10" d="M85.301,270.297
				c0,0-3.513-4.354,2.669-9.412c6.183-5.059,19.107-18.406,19.107-18.406"/>
			<path fill="none" stroke="#000000" stroke-linecap="round" stroke-linejoin="round" stroke-miterlimit="10" d="M22.64,208.34
				c0,0,13.436-6.137,18.94-13.465"/>
			<path fill="none" stroke="#000000" stroke-linecap="round" stroke-linejoin="round" stroke-miterlimit="10" d="M50.177,110.556
				c0,0,8.01,25.71,9.414,35.405"/>
			<path fill="none" stroke="#000000" stroke-linecap="round" stroke-linejoin="round" stroke-miterlimit="10" d="M121.392,166.277
				c0,0,12.379,2.727,18.421,2.022c6.042-0.702,42.008-2.81,42.008-2.81l1.546-17.142l-42.148-0.982"/>
			<path fill="none" stroke="#000000" stroke-linecap="round" stroke-linejoin="round" stroke-miterlimit="10" d="M6.233,273.663
				c0,0,6.291,30.917,13.316,43.141"/>
			<path fill="none" stroke="#000000" stroke-linecap="round" stroke-linejoin="round" stroke-miterlimit="10" d="M13.598,302.163
				c0,0,4.687,34.167,8.199,41.895"/>
			<path fill="none" stroke="#000000" stroke-linecap="round" stroke-linejoin="round" stroke-miterlimit="10" d="M19.263,335.286
				c0,0,1.691,46.568,2.534,55.559c0.843,8.991,0.702,30.346,0,32.734s-3.663,18.546-2.534,26.555
				c1.129,8.007,11.525,13.346,12.369,14.33"/>
			<path fill="none" stroke="#000000" stroke-linecap="round" stroke-linejoin="round" stroke-miterlimit="10" d="M23.993,458.472
				c0,0-0.349,10.769,1.327,13.72c0,0,24.296,3.092,33.708,0.842c0,0,7.025-17.562,7.586-19.248c0.562-1.687,0-5.76-0.703-8.008
				c-0.701-2.248-1.123-8.712-1.123-10.959c0-2.246-3.793-42.57-3.934-51c-0.141-8.429,1.827-25.29,2.107-28.381
				c0.281-3.09,1.826-74.421,1.826-74.421"/>
			<path fill="none" stroke="#000000" stroke-linecap="round" stroke-linejoin="round" stroke-miterlimit="10" d="M63.159,350.085
				c-0.013,0.42,3.455,15.33,4.721,18.138c1.264,2.811,3.652,33.58,5.479,36.67c1.826,3.091-3.09,5.196-3.23,7.445
				c-0.142,2.249,2.107,10.538,1.123,14.19c-0.983,3.653-0.703,12.927,3.231,15.876c3.935,2.952,23.041-0.141,26.976-6.603
				c3.934-6.462,2.811-8.289,2.811-8.289s4.354-4.215,2.949-9.272c-1.405-5.058-7.504-23.041-7.504-23.041"/>
			<path fill="none" stroke="#000000" stroke-linecap="round" stroke-linejoin="round" stroke-miterlimit="10" d="M104.684,427.064
				c0,0-11.04,7.333-19.356,8.177"/>
			<path fill="none" stroke="#000000" stroke-linecap="round" stroke-linejoin="round" stroke-miterlimit="10" d="M30.227,455.753
				c0,0,24.7,1.122,32.933-7.308"/>
			<path fill="none" stroke="#000000" stroke-linecap="round" stroke-linejoin="round" stroke-miterlimit="10" d="M71.635,409.874
				c-0.894,1.066,0.6,3.45,2.848,4.854c2.248,1.403,10.845,5.196,10.845,5.196"/>
			<path fill="none" stroke="#000000" stroke-linecap="round" stroke-linejoin="round" stroke-miterlimit="10" d="M102.792,404.379
				c0,0,1.477-23.091,0.633-28.289c-0.843-5.197,4.632-15.172,4.071-19.246c-0.56-4.075,0.144-30.487-0.419-35.404
				c-0.562-4.918,2.184-36.095,0.459-49.168"/>
			<path fill="none" stroke="#000000" stroke-linecap="round" stroke-linejoin="round" stroke-miterlimit="10" d="M48.491,354.315
				c0,0,1.264,4.073-0.984,8.57c-2.247,4.496-16.857,30.707-18.264,36.99"/>
			<path fill="none" stroke="#000000" stroke-linecap="round" stroke-linejoin="round" stroke-miterlimit="10" d="M61.447,371.178
				c0,0-6.071,13.485-9.585,17.138"/>
			<path fill="none" stroke="#000000" stroke-linecap="round" stroke-linejoin="round" stroke-miterlimit="10" d="M85.327,351.645
				c0,0-1.291,11.38-5.646,17.141"/>
			<path fill="none" stroke="#000000" stroke-linecap="round" stroke-linejoin="round" stroke-miterlimit="10" d="M26.019,472.276
				c0,0-8.297,11.576-8.016,17.897c0.282,6.321,8.291,7.448,16.72,7.729c8.431,0.28,16.438-2.671,17.281-6.604
				s1.265-9.834,2.81-11.801c1.545-1.968,3.098-2.635,2.673-6.164"/>
			<path fill="none" stroke="#000000" stroke-linecap="round" stroke-linejoin="round" stroke-miterlimit="10" d="M80.103,443.528
				c0,0,0.842,14.893,1.826,17.984c0.983,3.092,4.355,7.587,12.082,7.165c7.727-0.421,17.843,0.662,17.141-12.875
				c0,0-0.983-4.379-21.637,0.314"/>
			<path fill="none" stroke="#000000" stroke-linecap="round" stroke-linejoin="round" stroke-miterlimit="10" d="M101.458,435.802
				c0,0,5.363,8.598,8.23,18.84"/>
			<path fill="none" stroke="#000000" stroke-linecap="round" stroke-linejoin="round" stroke-miterlimit="10" d="M18.106,491.071
				c0,0,20.23,5.019,27.297,1.351s7.052-9.882,9.41-12.925"/>
			<path fill="none" stroke="#000000" stroke-linecap="round" stroke-linejoin="round" stroke-miterlimit="10" d="M81.287,457.869
				c0,0,4.294,7.298,12.162,6.595c7.868-0.704,16.007-0.365,17.276-3.273"/>
		</g>
		<g>
			<path fill="#CB9A80" d="M53.361,13.85c-11.19,5.536-16.155,17.359-19.321,25.956c-3.169,8.596,3.476,14.128,6.392,27.239
				c2.913,13.109,0.161,16.158,0.161,16.158l34.16,14.121l1.821-15.305c1.612-2.389,12.729,1.326,16.946-3.373
				c2.048-2.283,1.041-5.864,0.748-7.953c-0.292-2.09,2.87-1.432,3.23-2.924c0.361-1.487-7.607-4.377-7.607-4.377l0.381-0.631
				c0,0,7.547,1.893,8.039,0.401c-0.263-0.735,0.141-3.698,0.141-3.698s6.627-1.992,5.119-4.33
				c-1.061-1.647-5.217-6.582-6.489-12.429c-0.528-2.438,0.624-4.706,0.823-7.49c0.678-9.456-5.521-21.525-5.521-21.525
				S64.55,8.315,53.361,13.85z"/>
			<path fill="#C18362" d="M93.185,39.042c-2.045-0.013-7.534,2.709-8.533,4.049c-1,1.344,8.109,2.892,8.109,2.892s0,0,1.639-1.455
				c1.639-1.454,1.57-3.755,1.57-3.755C95.607,39.499,94.624,39.047,93.185,39.042z"/>
			<path fill="#C18362" d="M76.216,85.022l0.358-3.002c1.612-2.389,12.729,1.326,16.944-3.373c1.166-1.298,1.343-3.021,1.225-4.646
				c-0.002,0-1.821,7.007-12.559,2.991c-10.737-4.015-17.357-16.525-17.357-16.525l-9.582-22.167l-13.396,2.545l-3.621,12.088
				c0,0,12.934,6.586,13.512,16.896C52.002,74.481,68.702,84.534,76.216,85.022z"/>
			<path fill="#C18362" d="M44.354,52.471l32.22,29.549c0,0-2.409,20.909-2.683,25.148s-2.873,7.247-3.42,0.41
				s-7.246-8.615-14.768-11.076c-2.712-0.888-5.762-0.814-8.348-0.968c0,0-4.336-2.65-5.446-7.815
				c-0.118-0.549,0.32-1.124,0.53-1.746c4.375-12.99-2.188-26.802-2.188-26.802"/>
			<path fill="#C18362" d="M98.271,62.999c-0.171-0.937,0.182-3.533,0.182-3.533s6.627-1.992,5.119-4.33
				c0,0-1.951,1.205-6.314,1.799C93.239,57.477,96.8,60.936,98.271,62.999z"/>
			<path fill="none" stroke="#000000" stroke-linecap="round" stroke-linejoin="round" stroke-miterlimit="10" d="M74.753,97.325
				l1.821-15.305c1.612-2.389,12.729,1.326,16.946-3.373c2.048-2.283,1.041-5.864,0.748-7.953c-0.292-2.09,2.87-1.432,3.23-2.924
				c0.361-1.487-7.607-4.377-7.607-4.377l0.381-0.631c0,0,7.644,1.893,8.039,0.401c-0.263-0.735,0.141-3.698,0.141-3.698
				s6.627-1.992,5.119-4.33c-1.061-1.647-5.217-6.582-6.489-12.429c-0.528-2.438,0.624-4.706,0.823-7.49
				c0.678-9.456-5.521-21.525-5.521-21.525S64.55,8.315,53.361,13.85c-11.19,5.536-16.155,17.359-19.321,25.956
				c-3.169,8.596,3.476,14.128,6.392,27.239c2.913,13.109,0.161,16.158,0.161,16.158"/>
			<path fill="#222222" d="M23.362,37.591c0,0,1.107,2.311,3.364,6.106c-3.912,12.336,13.315,21.73,13.315,21.73
				s4.018-2.492,4.981-8.65c0.964-6.16,3.142-8.046,8.541-12.93c-2.782,8.033-0.019,16.479,3.546,17.547
				c-7.17-17.244,7.694-20.744,7.694-20.744c22.794-5.219,27.058-19.378,28.847-24.22c1.79-4.84,1.158-8.666-12.58-13.362
				C67.335-1.621,51.969,1.544,51.969,1.544C23.007,8.878,23.362,37.591,23.362,37.591z"/>
			<path fill="none" stroke="#000000" stroke-linecap="round" stroke-linejoin="round" stroke-miterlimit="10" d="M23.362,37.591
				c0,0,1.107,2.311,3.364,6.106c-3.912,12.336,13.315,21.73,13.315,21.73s4.018-2.492,4.981-8.65
				c0.964-6.16,3.142-8.046,8.541-12.93c-2.782,8.033-0.019,16.479,3.546,17.547c-7.17-17.244,7.694-20.744,7.694-20.744
				c22.794-5.219,27.058-19.378,28.847-24.22c1.79-4.84,1.158-8.666-12.58-13.362C67.335-1.621,51.969,1.544,51.969,1.544
				C23.007,8.878,23.362,37.591,23.362,37.591z"/>
			<path fill="none" stroke="#000000" stroke-linecap="round" stroke-linejoin="round" stroke-miterlimit="10" d="M96.811,58.409
				c1.036-1.737,3.64-1.034,3.64-1.034"/>
			<path fill="none" stroke="#000000" stroke-linecap="round" stroke-linejoin="round" stroke-miterlimit="10" d="M89.558,64.431
				c0.068-0.952,1.021-2.076,1.021-2.076"/>
			<path fill="#444444" stroke="#000000" stroke-linecap="round" stroke-linejoin="round" stroke-miterlimit="10" d="M95.97,40.772
				c-3.385-3.375-10.062,1.367-10.062,1.367s3.877-3.478,6.613-3.862c2.332-0.33,3.935,1.756,3.935,1.756S95.944,40.68,95.97,40.772
				z"/>
			<path fill="#CB9A80" d="M67.342,58.264c0,0-0.491,1.748-2.515,2.202c-2.021,0.454-5.324-2.291-7.424-5.671
				c-2.098-3.384-3.48-12.12,0.271-14.486c3.752-2.362,7.436,2.597,7.436,2.597"/>
			<path fill="none" stroke="#000000" stroke-linecap="round" stroke-linejoin="round" stroke-miterlimit="10" d="M67.342,58.264
				c0,0-0.491,1.748-2.515,2.202c-2.021,0.454-5.324-2.291-7.424-5.671c-2.098-3.384-3.48-12.12,0.271-14.486
				c3.752-2.362,7.436,2.597,7.436,2.597"/>
			<path fill="none" stroke="#000000" stroke-linecap="round" stroke-linejoin="round" stroke-miterlimit="10" d="M61.151,54.532
				c0.479-1.027,1.508-0.834,3.083,0.137c1.577,0.974,1.621-0.865,0.464-2.08c-1.156-1.213-2.238-2.731-1.303-4.012
				c0.934-1.278,1.115-4.781-2.322-5.592c-3.436-0.806-3.463,3.625-3.463,3.625"/>
			<path fill="none" stroke="#000000" stroke-linecap="round" stroke-linejoin="round" stroke-miterlimit="10" d="M59.845,47.23
				c1.553-1.254,3.762,0.989,3.762,0.989"/>
			<g>
				<g>
					<path fill="#FFFFFF" d="M86.746,45.609c0.809,0.653,3.017,1.72,4.049,3.087c1.927-0.954,1.659-2.922,1.659-2.922l-5.592-0.862
						C86.862,44.912,86.231,45.189,86.746,45.609z"/>
					
						<line fill="none" stroke="#000000" stroke-linecap="round" stroke-linejoin="round" stroke-miterlimit="10" x1="95.263" y1="46.35" x2="86.316" y2="44.756"/>
					
						<line fill="none" stroke="#000000" stroke-linecap="round" stroke-linejoin="round" stroke-miterlimit="10" x1="92.608" y1="43.994" x2="92.584" y2="45.564"/>
					<path stroke="#000000" stroke-width="0.5" stroke-linecap="round" stroke-linejoin="round" stroke-miterlimit="10" d="
						M90.642,45.721l2.119,0.261l-0.357,1.066c-0.426,1.092-1.233,1.792-1.809,1.57c-0.575-0.226-0.699-1.29-0.273-2.38
						L90.642,45.721z"/>
				</g>
			</g>
		</g>
		<g>
			<g>
				<g id="XMLID_32_">
					<g>
						<path d="M208.886,487.083c5.191-1.266,10.115-4.215,11.229-6.188c0,0,2.394,3.794-6.138,7.451
							c-8.547,3.658-16.759,2.243-20.265,1.399c-3.523-0.842-2.462-5.092-2.462-5.092c0.237,0.354,0.573,0.658,1.046,0.877
							C197.083,487.792,203.676,488.347,208.886,487.083z"/>
						<path d="M233.888,470.51c0.067,0.303,0.117,0.607,0.151,0.878c0.691,4.922-1.905,5.359-5.63,6.642
							c-3.727,1.279-6.238,0.135-6.508,0c1.012-1.434,2.275-2.849,3.844-3.592C228.409,473.174,232.488,471.624,233.888,470.51z"/>
						<path d="M234.512,468.418c0,0,2.612,3.205,8.784,2.936c5.698-0.271,10.064,0.539,11.937-2.936
							c0.135,3.542,0.858,5.598-8.144,6.155c-8.986,0.556-12.948-3.204-12.948-3.204l-0.102,0.019
							c-0.034-0.271-0.084-0.575-0.151-0.878c0.624-0.488,0.691-1.315,0.573-2.073L234.512,468.418z"/>
						<path fill="#222222" d="M234.512,468.418l-0.051,0.019c-0.135-0.978-0.573-1.855-0.573-1.855
							c1.383-0.136,2.36-0.37,2.816-0.708c0.691-0.521,0.943-5.866,0.927-12.374c0,0,6.204,0.572,11.431,0.421
							c2.967,2.664,8.143,8.852,6.608,13.488c-0.118,0.37-0.271,0.707-0.438,1.01c-1.872,3.475-6.238,2.665-11.937,2.936
							C237.124,471.624,234.512,468.418,234.512,468.418z"/>
						<path fill="#222222" d="M216.607,465.167c6.794,1.331,13.503,1.77,17.28,1.415c0,0,0.438,0.878,0.573,1.855
							c0.118,0.758,0.051,1.585-0.573,2.073c-1.399,1.113-5.479,2.664-8.143,3.928c-1.568,0.743-2.832,2.158-3.844,3.592
							c-0.726,1.012-1.332,2.056-1.787,2.866c-1.113,1.973-6.037,4.922-11.229,6.188c-5.21,1.264-11.803,0.708-16.59-1.552
							c-0.473-0.219-0.809-0.523-1.046-0.877c-2.141-3.27,4.839-11.667,7.368-13.453c2.815-1.955,3.236-3.474,3.236-3.474
							C204.603,466.415,209.813,463.834,216.607,465.167z"/>
						<path fill="#444444" d="M236.704,429.34c-0.709-5.767-0.152-49.314-1.416-55.502c-1.266-6.17-0.979-27.818-0.558-30.481
							c0.422-2.665-3.507-26.689-3.507-31.056c0-4.35,0.844-18.814,0.557-21.209c-0.286-2.395-3.692-5.041-4.652-5.969
							c6.254-1.955,15.459-4.602,21.09-5.26c6.188-0.725,14.381-2.107,21.092-4.366c3.221-1.078,6.104-2.378,8.262-3.878
							c4.686-3.287,8.193-7.419,9.846-9.577c0.135,4.521-1.822,13.033-3.237,21.328c-1.399,8.278-4.215,40.884-4.636,48.185
							c-0.422,7.3-5.328,21.496-6.744,39.333c-1.399,17.854-2.951,29.504-6.744,35.269c-3.793,5.767-4.35,15.31-4.35,20.367
							c0,5.766-4.771,11.11-6.744,14.904c-1.973,3.793,3.658,11.093-1.398,12.071c-1.231,0.253-2.816,0.37-4.502,0.421
							c-5.227,0.151-11.431-0.421-11.431-0.421C237.614,444.259,237.108,432.727,236.704,429.34z"/>
						<path fill="#444444" d="M201.854,467.728c-0.994,0.473-1.669,0.794-1.972,0.675c-1.113-0.422-1.113-14.331-3.221-23.604
							s0.271-15.174,0-20.805c-0.286-5.614-3.102-15.865-6.608-29.504c-3.508-13.622-2.664-39.046-3.086-51.42
							c-0.422-12.359-2.529-28.173-2.529-28.173c-7.721-16.27-10.756-41.187-10.756-41.187c4.688,2.967,19.675,11.361,41.053,12.797
							l2.26-6.779l1.584,0.151l1.332,0.119l0.523,7.3c0,0,2.765-0.944,6.693-2.176c0.96,0.928,4.366,3.574,4.652,5.969
							c0.287,2.395-0.557,16.859-0.557,21.209c0,4.366,3.929,28.391,3.507,31.056c-0.421,2.663-0.708,24.312,0.558,30.481
							c1.264,6.188,0.707,49.735,1.416,55.502c0.404,3.387,0.91,14.919,0.927,24.159c0.017,6.508-0.235,11.853-0.927,12.374
							c-0.456,0.338-1.434,0.572-2.816,0.708c-3.777,0.354-10.486-0.084-17.28-1.415
							C209.813,463.834,204.603,466.415,201.854,467.728z"/>
						<path fill="#FFFFFF" d="M211.802,129.512c-1.518,4.247-3.287,8.717-4.771,12.964c0,0-2.865-6.288-6.068-11.937
							c-0.203-0.354-0.405-0.69-0.59-1.027C200.742,129.613,206.288,130.944,211.802,129.512z"/>
						<path fill="#E7D1C9" d="M230.28,97.158c0.521,4.924-0.405,12.224-5.446,16.084c-0.624,0.489-1.265,0.945-1.871,1.4
							c-4.333,3.152-8.177,5.781-9.694,10.553c-0.438,1.399-0.944,2.85-1.467,4.317c-5.514,1.432-11.06,0.101-11.43,0
							c-0.018,0-0.018,0-0.018,0c-1.736-3.002-3.541-5.682-5.024-6.981c-4.384-3.843-3.591-4.518-3.321-6.236
							c0.27-1.722-0.27-10.757-0.657-12.493c-0.405-1.72,4.652-11.432,22.321-13.42C231.343,88.391,229.74,92.252,230.28,97.158z"/>
						<path fill="#B0C7E1" d="M267.843,155.493c-0.186,0.91-1.315,6.557,0.033,9.846c0.641,1.567,1.214,3.557,1.383,5.646
							c0.068,0.859,0.068,1.722-0.033,2.58c-0.017,0.169-0.034,0.339-0.068,0.506c-0.236,1.636-0.825,3.221-1.938,4.553
							c-3.187,3.844-10.874,17.5-11.684,21.495c-1.989-13.876-4.637-36.82-4.265-51.017c0.404-15.831,13.773-22.541,13.773-22.541
							c-0.034,0.522-0.067,0.994-0.084,1.416c-0.27,6.002-1.602,11.313,0.523,15.428c1.584,3.066,3.691,7.99,2.393,11.953
							C267.876,155.358,267.859,155.407,267.843,155.493z"/>
						<path fill="#738AA5" d="M317.831,196.158c-0.252-1.332,1.197-5.058,2.124-9.442c0.944-4.383-1.45-9.762-1.45-9.762
							c0.305-3.371-0.877-6.795-1.889-9.02c-0.689-1.518-1.298-2.477-1.298-2.477c-1.466-5.717-6.255-5.717-9.44-7.437
							c-3.187-1.721-4.248-5.716-6.912-8.919c-2.648-3.203-20.198-31.999-25.914-39.703c-1.5-2.023-3.152-3.659-4.889-4.957
							c-4.873-3.709-10.469-4.975-15.561-5.951c-6.694-1.299-13.774-4.266-14.213-4.435c1.062,1.535,2.258,2.815,3.709,3.642
							c3.727,2.125,5.715,11.413,6.119,16.203c0,0-11.16-1.197-14.752-1.332c-1.82-0.067-4.248,1.129-6.507,2.681l-3.996-0.607
							c-4.333,3.152-8.177,5.781-9.694,10.553c-0.438,1.399-0.944,2.85-1.467,4.317c-1.518,4.247-3.287,8.717-4.771,12.964v0.186
							h1.197v7.789h-1.197c0,0-0.674,38.659,1.197,45.976c1.854,7.3,3.305,13.928,3.305,18.918c0,5.006,0.219,26.266,2.444,35.555
							c2.208,9.307,5.412,18.613,4.603,28.965v0.017l1.332,0.119l0.523,7.3c0,0,2.765-0.944,6.693-2.176
							c6.254-1.955,15.459-4.602,21.09-5.26c6.188-0.725,14.381-2.107,21.092-4.366c3.221-1.078,6.104-2.378,8.262-3.878
							c4.686-3.287,8.193-7.419,9.846-9.577c0.691-0.892,1.062-1.449,1.062-1.449s0.928-7.84,0-10.891c0,0,1.585-18.326,0-22.728
							c-1.601-4.382-8.109-16.218-8.648-21.394c-0.522-5.177-1.854-8.768-3.591-10.892c-1.721-2.125-2.781-6.373-2.781-8.902
							c0-2.477-5.193-4.298-4.301-11.717c-0.236,1.636-0.825,3.221-1.938,4.553c-3.187,3.844-10.874,17.5-11.684,21.495
							c-1.989-13.876-4.637-36.82-4.265-51.017c0.404-15.831,13.773-22.541,13.773-22.541c-0.034,0.522-0.067,0.994-0.084,1.416
							c-0.27,6.002-1.602,11.313,0.523,15.428c1.584,3.066,3.691,7.99,2.393,11.953c0,0-0.017,0.049-0.033,0.135
							c-0.186,0.91-1.315,6.557,0.033,9.846c0.641,1.567,1.214,3.557,1.383,5.646c0,0,1.146,4.435,3.406,5.768
							c2.258,1.331,2.528,10.367,8.227,12.088c2.731,0.825,3.793,1.231,4.165,1.752c0.05,0.068,0.101,0.135,0.117,0.22
							c0,0.019,0,0.019,0.018,0.034c0.202,0.539-0.101,1.264-0.034,2.646c0.135,3.052,1.197,6.188,7.57,6.121
							c0,0,0.691,2.427,3.523,4.096c5.9,3.457,23.755,11.718,25.171,1.872C322.248,199.917,318.101,197.491,317.831,196.158z"/>
						<path fill="#738AA5" d="M213.977,250.899c-2.226-9.289-2.444-30.549-2.444-35.555c0-4.99-1.45-11.618-3.305-18.918
							c-1.871-7.316-1.197-45.976-1.197-45.976h-1.197v-7.789h1.197v-0.186c0,0-2.865-6.288-6.068-11.937l-3.137,0.404
							c-1.012-1.937-4.787-5.09-9.407-5.209c-4.905-0.135-20.72,0.254-21.513-0.943c-0.809-1.181,5.445-6.508,8.632-10.756
							c2.647-3.525,5.193-4.503,8.953-10.656c0,0-16,4.014-20.519,8.396c-2.646,2.579-7.418,7.367-10.385,16.082
							c-1.619,4.739-2.698,10.605-2.613,17.941c0,0.387-1.215,9.828-3.339,15.813c-2.124,5.968-6.643,19.926-5.446,24.562
							c0,0-1.465,2.142-1.077,6.39c0,0-4.738,7.976-0.067,15.546c3.944,6.371,14.498,13.993,24.951,8.783
							c5.176-2.563,6.035-11.01,6.086-16c0.018-2.259-0.135-3.81-0.135-3.81h0.018c0.557,1.314,1.196,2.562,1.922,3.709
							c0,0,0.017,0.033,0.05,0.101c0.32,0.708,2.073,4.923-0.05,11.329c-2.344,7.049-8.06,19.675-6.322,27.111
							c1.719,7.435,5.158,28.171,4.568,33.347c0,0,0.523,0.388,1.551,1.03c4.688,2.967,19.675,11.361,41.053,12.797l2.26-6.779
							l1.584,0.151v-0.017C219.389,269.512,216.185,260.206,213.977,250.899z"/>
						<path fill="#738AA5" d="M213.977,250.899c-2.226-9.289-2.444-30.549-2.444-35.555c0-4.99-1.45-11.618-3.305-18.918
							c-1.871-7.316-1.197-45.976-1.197-45.976h-1.197v-7.789h1.197v-0.186c0,0-2.865-6.288-6.068-11.937l-3.137,0.404
							c-1.012-1.937-4.787-5.09-9.407-5.209c-4.905-0.135-20.72,0.254-21.513-0.943c-0.809-1.181,5.445-6.508,8.632-10.756
							c2.647-3.525,5.193-4.503,8.953-10.656c0,0-16,4.014-20.519,8.396c-2.646,2.579-7.418,7.367-10.385,16.082
							c-1.619,4.739-2.698,10.605-2.613,17.941c0,0.387-1.215,9.828-3.339,15.813c-2.124,5.968-6.643,19.926-5.446,24.562
							c0,0-1.465,2.142-1.077,6.39c0,0-4.738,7.976-0.067,15.546c3.944,6.371,14.498,13.993,24.951,8.783
							c5.176-2.563,6.035-11.01,6.086-16c0.018-2.259-0.135-3.81-0.135-3.81h0.018c0.557,1.314,1.196,2.562,1.922,3.709
							c0,0,0.017,0.033,0.05,0.101c0.32,0.708,2.073,4.923-0.05,11.329c-2.344,7.049-8.06,19.675-6.322,27.111
							c1.719,7.435,5.158,28.171,4.568,33.347c0,0,0.523,0.388,1.551,1.03c4.688,2.967,19.675,11.361,41.053,12.797l2.26-6.779
							l1.584,0.151v-0.017C219.389,269.512,216.185,260.206,213.977,250.899z"/>
						<path fill="#B0C7E1" d="M158.931,136.374c0,0,7.705,4.366,9.829,11.278c1.838,5.969-0.235,16.574-0.86,22.61l-0.168-0.018
							c-5.563-4.233-7.891-22.795-8.818-33.871H158.931z"/>
						<rect x="205.823" y="142.667" fill="#FFFFFF" width="2.394" height="7.787"/>
						<path fill="#B0C7E1" d="M233.466,112.569c-4.987,0.363-9.61,5.912-11.869,7.463l-5.217-0.435
							c0.607-0.454,7.83-5.866,8.454-6.355c5.041-3.86,5.968-11.16,5.446-16.084c-0.54-4.905,1.062-8.767-16.607-6.776
							c-17.669,1.988-22.727,11.7-22.321,13.42c0.388,1.736,0.927,10.771,0.657,12.493c-0.27,1.719-1.062,2.394,3.321,6.236
							c1.483,1.3,3.288,3.979,5.024,6.981c0,0,0,0,0.018,0c0.185,0.337,0.387,0.673,0.59,1.027l-3.137,0.404
							c-1.012-1.937-4.787-5.09-9.407-5.209c-4.905-0.135-20.72,0.254-21.513-0.943c-0.809-1.181,5.445-6.508,8.632-10.756
							c2.647-3.525,5.193-4.503,8.953-10.656c0.775-1.248,1.601-2.731,2.478-4.484c5.177-10.369,23.771-15.679,31.477-16.875
							c0.405-0.069,12.357-0.811,15.156,3.841c1.688,2.835,3.086,5.802,4.772,8.178c0,0,0,0,0.017,0.018
							c1.062,1.535,2.258,2.815,3.709,3.642c3.727,2.125,5.715,11.413,6.119,16.203
							C248.218,113.901,237.051,112.306,233.466,112.569z"/>
					</g>
				</g>
			</g>
			<g>
				<g>
					
						<ellipse transform="matrix(0.987 0.1606 -0.1606 0.987 80.0953 -26.3597)" fill="#383838" cx="203.115" cy="482.308" rx="3.232" ry="0.703"/>
					<path fill="#383838" d="M250.175,466.373c0.023,0.387-1.401,0.792-3.183,0.902c-1.78,0.11-3.243-0.114-3.268-0.501
						c-0.024-0.391,1.399-0.793,3.181-0.903S250.15,465.984,250.175,466.373z"/>
				</g>
				<g>
					<path fill="#383838" d="M231.224,312.301c0-4.35,0.844-18.814,0.557-21.209c-0.286-2.395-3.692-5.041-4.652-5.969
						c-3.929,1.231-6.693,2.176-6.693,2.176l-0.523-7.3l-1.332-0.119l-1.584-0.151l-2.26,6.779
						c-21.378-1.436-36.365-9.83-41.053-12.797c0,0,0.278,2.276,0.876,5.889c9.188,3.239,22.165,7.495,27.854,7.84
						c9.271,0.563-3.092,4.776,3.652,5.901c6.744,1.124,10.396-1.404,14.893-2.247c4.496-0.844,5.058,3.373,0.842,4.496
						c-4.214,1.123-5.619,3.651-1.403,4.495c4.214,0.842,10.396,3.09,8.991,5.901c-1.405,2.81-3.652,5.339-1.124,7.024
						c2.529,1.686,6.743,28.94,6.182,32.595c-0.065,0.428-0.017,0.381,0.116-0.013c0.051-1.065,0.108-1.853,0.169-2.236
						C235.152,340.692,231.224,316.667,231.224,312.301z"/>
					<path fill="#383838" d="M286.147,263.837c0.029-0.091,0.041-0.182,0.043-0.271c-1.895,2.268-4.869,5.422-8.619,8.053
						c-2.158,1.5-5.041,2.8-8.262,3.878c-6.711,2.259-14.904,3.642-21.092,4.366c-5.631,0.658-14.836,3.305-21.09,5.26
						c0.96,0.928,4.366,3.574,4.652,5.969c0.287,2.395-0.557,16.859-0.557,21.209c0,4.366,3.929,28.391,3.507,31.056
						c-0.061,0.384-0.118,1.171-0.169,2.236c1.004-2.972,6.974-26.678,7.471-30.896c0.562-4.776-1.123-8.991-1.404-4.776
						c-0.282,4.216-3.654,19.109-3.935,16.859c-0.28-2.248-2.528-14.33-3.653-21.074c-1.124-6.743,0-15.175-1.686-16.58
						c0,0,21.355-2.246,29.504-4.775S284.181,270.018,286.147,263.837z"/>
					<g>
						<path fill="#383838" d="M196.472,428.391c1.031-1.354,2.732-1.619,5.379-0.174c12.364,6.743,33.438-3.934,26.413-3.934
							s-26.413-2.529-29.223-3.935c-2.81-1.407-3.935-17.14-4.215-25.853c-0.28-8.71,5.619-10.114,7.868-12.926
							c2.248-2.81,15.453-5.337,19.107-5.9c3.652-0.563,9.553-13.768,8.43-12.081c-1.124,1.687-9.835,5.901-20.794,10.116
							c-10.958,4.214-13.769,15.734-17.983,15.453s-0.281-7.588,1.687-12.645c1.968-5.059,9.834-2.248,2.81-8.991
							c-7.025-6.745-4.496-33.438-5.9-40.181c-0.573-2.752-2.881-6.902-5.408-10.855c0.538,4.304,1.984,16.574,2.326,26.584
							c0.422,12.374-0.422,37.798,3.086,51.42c3.507,13.639,6.322,23.89,6.608,29.504
							C196.73,425.426,196.628,426.874,196.472,428.391z"/>
						<path fill="#383838" d="M225.735,458.563c-5.059-0.561-16.578,1.125-20.513,3.091s-4.215,1.968-5.901-3.933
							c-0.311-1.089-0.842-3.014-1.423-5.378c0.94,7.842,1.149,15.743,1.984,16.06c0.303,0.119,0.978-0.202,1.972-0.675
							c2.748-1.313,7.959-3.894,14.753-2.562c5.462,1.07,10.844,1.553,14.716,1.521c-6.635-0.188-22.424-2.334-20.762-4.471
							c1.967-2.529,16.016-0.843,20.231-0.563C235.007,461.934,230.793,459.125,225.735,458.563z"/>
					</g>
					<g>
						<path fill="#383838" d="M255.312,440.792c-4.588,4.271-10.891,10.118-13.965,12.972c2.209,0.126,5.085,0.232,7.715,0.156
							c1.686-0.051,3.271-0.168,4.502-0.421c5.057-0.979-0.574-8.278,1.398-12.071C255.069,441.22,255.188,441.008,255.312,440.792z
							"/>
						<path fill="#383838" d="M236.704,429.34c0.166,1.394,0.35,4.177,0.509,7.601c0.433-7.22,1.075-14.184,2.009-16.873
							c2.248-6.462,10.116,1.967,14.331,2.248c4.216,0.282,4.216-2.812-1.967-7.026c-6.181-4.214-6.463-9.271-10.115-14.891
							c-3.653-5.619-2.249-23.604-0.843-20.231c1.405,3.372,16.016,6.183,18.264,5.058s-8.711-5.619-12.645-8.991
							c-3.933-3.371,25.008-7.587,20.231-10.116c-4.776-2.528-15.454,5.62-14.33,3.935c1.125-1.687,7.024-5.059,6.462-8.149
							c-0.562-3.09-10.959,1.687-17.421,0.844c-6.462-0.844-6.463-12.646-6.463-12.646l-0.31,0.404
							c-0.133,7.675,0.006,19.117,0.871,23.333C236.552,380.026,235.995,423.574,236.704,429.34z"/>
					</g>
				</g>
			</g>
			<g>
				<path fill="#617A93" d="M274.627,267.067c-13.638,9.584-38.235,13.043-56.032,12.352c-0.01,0.148-0.004,0.294-0.016,0.445v0.017
					l1.332,0.119l0.523,7.3c0,0,2.765-0.944,6.693-2.176c6.254-1.955,15.459-4.602,21.09-5.26
					c6.188-0.725,14.381-2.107,21.092-4.366c3.221-1.078,6.104-2.378,8.262-3.878c4.686-3.287,8.193-7.419,9.846-9.577
					c0.691-0.892,1.062-1.449,1.062-1.449s0.155-1.326,0.276-3.093C285.322,259.715,280.681,262.814,274.627,267.067z"/>
				<path fill="#617A93" d="M216.995,279.729l1.584,0.151v-0.017c0.012-0.151,0.006-0.297,0.016-0.445
					c-2.555-0.102-4.969-0.285-7.191-0.55c-14.969-1.78-34.156-11.7-39.723-14.72c0.427,3.776,0.636,6.914,0.451,8.532
					c0,0,0.523,0.388,1.551,1.03c4.688,2.967,19.675,11.361,41.053,12.797L216.995,279.729z"/>
				<g>
					<path fill="#617A93" d="M170.731,125.659l-4.215,4.427c0,0,13.697-1.265,18.334-1.265s6.955-0.633,10.537,4.847
						c3.583,5.479,6.744,10.536,8.008,16.649c1.265,6.11,2.107-5.059,0.844-8.43c-1.265-3.373-6.111-12.434-9.484-14.332
						C191.384,125.659,177.685,125.028,170.731,125.659z"/>
					<path fill="#617A93" d="M177.475,230.399c-1.054-7.798,1.054-24.657,1.054-24.657s-11.984-8.161-10.629-35.479
						c0,0-6.862-6.248-8.76-30.694c-0.293-3.782-4.426-8.429-5.057-3.16c-0.633,5.268-0.633,19.177,6.321,29.926
						c6.954,10.747,5.901,13.276,1.897,10.114c-4.005-3.16-6.111-1.896-3.162,0.633c2.951,2.529,4.637,5.69-1.475,2.529
						c-6.111-3.162-13.277-0.844-13.909,2.95c-0.632,3.793,10.537-7.587,19.178,2.529c8.64,10.116,0.632,0.21-9.905,0.421
						s-11.17,5.269-9.904,7.375c0,0,11.59-10.536,18.967,0.844c7.375,11.38-3.162,11.591-3.162,11.591l4.271,12.64
						c0.931-0.27,1.862-0.602,2.796-1.065c5.176-2.563,6.035-11.01,6.086-16c0.018-2.259-0.135-3.81-0.135-3.81h0.018
						c0.557,1.314,1.196,2.562,1.922,3.709c0,0,0.017,0.033,0.05,0.101c0.32,0.708,2.073,4.923-0.05,11.329
						c-2.344,7.049-8.06,19.675-6.322,27.111c1.719,7.435,5.158,28.171,4.568,33.347c0,0,0.523,0.388,1.551,1.03
						c0.361,0.228,0.806,0.498,1.288,0.787c0.758-1.257,1.311-2.713,1.239-4.27C175.999,265.592,178.528,238.196,177.475,230.399z"
						/>
					<path fill="#617A93" d="M167.569,181.506c0,0,0.211,5.9,8.008,10.747c7.799,4.847,19.6,6.745,30.559,4.847
						c10.959-1.895,16.227-0.209,23.814-0.42c7.586-0.211,21.495-3.162,23.392-9.905l2.95,14.331c0,0-14.963,4.847-24.867,3.371
						c-9.905-1.476-19.178-2.95-30.137-0.422C190.33,206.584,170.731,215.014,167.569,181.506z"/>
					<path fill="#617A93" d="M210.562,148.209c0,0,4.215-23.393,12.434-29.505c8.219-6.111,9.483-7.165,16.016-5.9
						c6.533,1.265,9.207,1.097,9.207,1.097s-11.735,3.75-14.896,4.593c-3.161,0.844-13.277,8.853-15.174,12.224
						S210.562,148.209,210.562,148.209z"/>
					<g>
						<path fill="#617A93" d="M294.016,175.816c-4.005,3.372-10.116,0.843-5.901-3.372s10.959-9.904,10.115-13.487
							c-0.842-3.583-11.168,7.587-14.119,4.216c-2.951-3.373,8.852-7.377,8.43-9.906c-0.422-2.528-9.694-10.115-14.963-14.119
							c-5.269-4.005-4.847-14.963-7.797-17.07c-2.951-2.107-4.526,10.028-4.848,15.806c-0.083,1.497,0.523,4.109,1.223,6.892
							c1.34,2.854,2.632,6.657,1.862,9.941c-0.027,0.246-0.071,0.465-0.142,0.643c0,0-0.017,0.049-0.033,0.135
							c-0.174,0.85-1.166,5.82-0.203,9.153c0.076,0.231,0.145,0.472,0.236,0.692c0.086,0.203,0.168,0.428,0.246,0.662
							c0.535,1.451,0.99,3.171,1.137,4.984c0,0,1.146,4.435,3.406,5.768c2.258,1.331,2.528,10.367,8.227,12.088
							c2.731,0.825,3.793,1.231,4.165,1.752c0.05,0.068,0.101,0.135,0.117,0.22c0,0.019,0,0.019,0.018,0.034
							c0.202,0.539-0.101,1.264-0.034,2.646c0.135,3.052,1.197,6.188,7.57,6.121c0,0,0.691,2.427,3.523,4.096
							c0.818,0.479,1.872,1.053,3.074,1.654c1.526-2.404,2.354-5.08-0.041-6.578c-5.059-3.16,2.74-5.9,0.421-8.85
							c-2.317-2.951-8.008-4.637-5.269-9.484c2.74-4.847,9.062-9.062,13.909-9.693s9.062,0,5.479-3.793
							C310.242,163.172,298.02,172.444,294.016,175.816z"/>
						<path fill="#617A93" d="M288.479,226.975c-1.601-4.382-8.109-16.218-8.648-21.394c-0.522-5.177-1.854-8.768-3.591-10.892
							c-1.721-2.125-2.781-6.373-2.781-8.902c0-2.161-3.95-3.823-4.366-9.139c-1.138,4.461-4.095,15.878-6.267,22.56
							c-2.739,8.43,11.38-8.219,9.273-2.739c-2.107,5.479-11.592,25.921-12.224,32.875c-0.632,6.955,7.587,11.17,7.587,19.389
							c0,5.951,2.762,19.082,4.285,25.875c2.232-0.883,4.228-1.88,5.824-2.988c4.686-3.287,8.193-7.419,9.846-9.577
							c0.691-0.892,1.062-1.449,1.062-1.449s0.928-7.84,0-10.891C288.479,249.703,290.063,231.376,288.479,226.975z"/>
					</g>
				</g>
			</g>
			<g>
				<path fill="none" stroke="#000000" stroke-linecap="round" stroke-linejoin="round" stroke-miterlimit="10" d="M207.02,142.47
					c0,0-7.308-16.078-11.692-19.931c-4.385-3.854-3.588-4.519-3.322-6.245c0.266-1.728-0.266-10.763-0.664-12.49
					c-0.398-1.727,4.651-11.428,22.322-13.419c17.671-1.992,16.076,1.859,16.608,6.776c0.532,4.916-0.397,12.224-5.447,16.077
					c-5.05,3.852-9.831,6.511-11.56,11.958S209.013,136.756,207.02,142.47z"/>
				<path fill="none" stroke="#000000" stroke-linecap="round" stroke-linejoin="round" stroke-miterlimit="10" d="M221.503,120.016
					c2.392-2.79,8.37-7.574,11.957-7.443c3.588,0.133,14.749,1.329,14.749,1.329c-0.397-4.784-2.392-14.083-6.112-16.209
					c-3.72-2.126-5.713-7.175-8.504-11.825c-2.791-4.651-14.752-3.915-15.146-3.854c-7.707,1.196-26.309,6.511-31.49,16.875
					s-8.237,10.896-11.427,15.147c-3.188,4.251-9.433,9.567-8.636,10.763c0.797,1.194,16.607,0.798,21.524,0.931
					c4.916,0.131,8.901,3.719,9.566,5.58"/>
				<path fill="none" stroke="#000000" stroke-linecap="round" stroke-linejoin="round" stroke-miterlimit="10" d="M184.484,103.386
					c0,0-15.999,4.007-20.517,8.39c-4.518,4.385-15.146,15.148-12.621,40.791"/>
				<path fill="none" stroke="#000000" stroke-linecap="round" stroke-linejoin="round" stroke-miterlimit="10" d="M150.964,145.792
					c0.011,0.398-1.215,9.834-3.34,15.812s-6.643,19.928-5.447,24.579c0,0-1.463,2.126-1.063,6.38c0,0-4.741,7.982-0.069,15.544
					c3.944,6.383,14.49,14.006,24.955,8.792c7.488-3.73,5.948-19.82,5.948-19.82"/>
				<path fill="none" stroke="#000000" stroke-linecap="round" stroke-linejoin="round" stroke-miterlimit="10" d="M158.387,127.977
					c0,0,1.298,36.15,9.337,42.263"/>
				<path fill="none" stroke="#000000" stroke-linecap="round" stroke-linejoin="round" stroke-miterlimit="10" d="M158.919,136.377
					c0,0,7.707,4.366,9.832,11.274s-0.99,20.062-1.027,25.111c-0.036,5.051,0.762,25.778,10.461,32.82"/>
				<path fill="none" stroke="#000000" stroke-linecap="round" stroke-linejoin="round" stroke-miterlimit="10" d="M173.875,200.789
					c0,0,2.333,4.397,0,11.44c-2.334,7.041-8.048,19.664-6.32,27.105c1.728,7.438,5.158,28.166,4.572,33.35
					c0,0,16.555,12.092,42.597,13.817l2.258-6.774l2.924,0.266l0.531,7.309c0,0,18.602-6.381,27.77-7.443
					c9.169-1.062,22.721-3.585,29.365-8.236c6.644-4.651,10.896-11.029,10.896-11.029s0.931-7.839,0-10.895
					c0,0,1.595-18.329,0-22.718c-1.595-4.387-8.106-16.217-8.637-21.396c-0.532-5.181-1.86-8.77-3.588-10.895
					c-1.728-2.126-2.79-6.378-2.79-8.902s-5.422-4.38-4.227-12.218"/>
				<path fill="none" stroke="#000000" stroke-linecap="round" stroke-linejoin="round" stroke-miterlimit="10" d="M268.166,104.437
					c0,0-2.952,17.546-3.217,23.54c-0.265,5.995-1.595,11.31,0.532,15.43c2.126,4.118,5.182,11.559-0.266,15.545
					s-4.917,5.58-5.979,7.973"/>
				<path fill="none" stroke="#000000" stroke-linecap="round" stroke-linejoin="round" stroke-miterlimit="10" d="M267.87,155.364
					c0,0-1.465,6.379,0,9.967c1.465,3.587,2.55,9.433-0.65,13.287"/>
				<path fill="none" stroke="#000000" stroke-linecap="round" stroke-linejoin="round" stroke-miterlimit="10" d="M269.247,170.981
					c0,0,1.15,4.447,3.41,5.775c2.259,1.328,2.523,10.363,8.238,12.092c5.713,1.726,4.118,1.593,4.251,4.648
					c0.134,3.057,1.201,6.18,7.574,6.111c0,0,0.688,2.436,3.53,4.1c5.896,3.453,23.746,11.725,25.169,1.876
					c0.819-5.665-3.322-8.101-3.588-9.43c-0.267-1.328,1.196-5.047,2.126-9.434s-1.462-9.771-1.462-9.771
					c0.53-5.653-3.188-11.487-3.188-11.487c-1.461-5.713-6.244-5.713-9.434-7.44c-3.189-1.727-4.252-5.713-6.91-8.913
					c-2.656-3.201-20.195-32.01-25.909-39.717s-13.553-9.567-20.462-10.896c-6.909-1.328-14.226-4.456-14.226-4.456"/>
				<path fill="none" stroke="#000000" stroke-linecap="round" stroke-linejoin="round" stroke-miterlimit="10" d="M285.187,190.844
					c-0.565-0.629-0.837-5.983-1.103-9.438c-0.266-3.453,1.728-8.635,5.847-11.824c4.119-3.188,9.832-8.105,7.972-10.498
					c-1.86-2.392-8.237,2.925-9.301,4.652"/>
				<path fill="none" stroke="#000000" stroke-linecap="round" stroke-linejoin="round" stroke-miterlimit="10" d="M316.608,167.94
					c-0.688-1.402-2.628-2.743-8.143-2.212c-5.515,0.532-8.287,1.728-12.215,5.847c-3.929,4.119-7.25,6.909-8.579,5.314"/>
				<path fill="none" stroke="#000000" stroke-linecap="round" stroke-linejoin="round" stroke-miterlimit="10" d="M298.265,173.569
					c0,0-11.789,11.156-5.544,26.039"/>
				<path fill="none" stroke="#000000" stroke-linecap="round" stroke-linejoin="round" stroke-miterlimit="10" d="M148.718,184.6
					c0,0,16.421-1.011,23.409,16.436"/>
				<path fill="none" stroke="#000000" stroke-linecap="round" stroke-linejoin="round" stroke-miterlimit="10" d="M154.025,176.949
					c0,0,10.78,2.857,15.677,13.228"/>
				<path fill="none" stroke="#000000" stroke-linecap="round" stroke-linejoin="round" stroke-miterlimit="10" d="M157.06,161.349
					c0,0,5.844,11.414,10.826,16.403"/>
				
					<rect x="205.823" y="142.667" fill="none" stroke="#000000" stroke-linecap="round" stroke-linejoin="round" stroke-miterlimit="10" width="2.394" height="7.787"/>
				<path fill="none" stroke="#000000" stroke-linecap="round" stroke-linejoin="round" stroke-miterlimit="10" d="M207.02,150.454
					c0,0-0.66,38.663,1.197,45.971s3.318,13.934,3.318,18.926s0.208,26.252,2.43,35.554c2.22,9.3,5.411,18.607,4.612,28.968"/>
				<path fill="none" stroke="#000000" stroke-linecap="round" stroke-linejoin="round" stroke-miterlimit="10" d="M265.044,126.561
					c0,0-13.381,6.713-13.779,22.547s2.923,42.512,4.916,55.416c1.993,12.902,0.627,31.901,6.227,39.609
					c5.6,7.707,2.068,28.857,6.891,31.368"/>
				<path fill="none" stroke="#000000" stroke-linecap="round" stroke-linejoin="round" stroke-miterlimit="10" d="M200.356,129.506
					c0,0,5.727,1.493,11.442,0"/>
				<path fill="none" stroke="#000000" stroke-linecap="round" stroke-linejoin="round" stroke-miterlimit="10" d="M173.675,273.714
					c0,0,4.151,34.099,15.109,48.569"/>
				<path fill="none" stroke="#000000" stroke-linecap="round" stroke-linejoin="round" stroke-miterlimit="10" d="M184.438,314.906
					c0,0,2.098,15.806,2.52,28.171c0.422,12.364-0.422,37.792,3.092,51.42c3.512,13.631,6.32,23.884,6.603,29.505
					c0.281,5.621-2.108,11.521,0,20.793c2.107,9.272,2.108,23.183,3.231,23.604c1.124,0.42,7.446-5.058,16.719-3.231
					c9.273,1.826,18.404,1.965,20.091,0.701c1.686-1.265,0.702-30.767,0-36.527s-0.14-49.315-1.404-55.495
					c-1.265-6.182-0.983-27.818-0.562-30.487c0.421-2.67-3.513-26.695-3.513-31.051c0-4.354,0.844-18.825,0.562-21.214
					s-3.693-5.05-4.656-5.967"/>
				<path fill="none" stroke="#000000" stroke-linecap="round" stroke-linejoin="round" stroke-miterlimit="10" d="M199.321,379.887
					c0.422-0.141,7.931-6.464,14.644-8.149c6.712-1.686,11.488-4.637,12.472-6.322"/>
				<path fill="none" stroke="#000000" stroke-linecap="round" stroke-linejoin="round" stroke-miterlimit="10" d="M192.297,363.168
					c0,0,1.771,5.479,8.148,8.569"/>
				<path fill="none" stroke="#000000" stroke-linecap="round" stroke-linejoin="round" stroke-miterlimit="10" d="M201.851,421.051
					c0,0,14.471,4.217,21.355,2.811"/>
				<path fill="none" stroke="#000000" stroke-linecap="round" stroke-linejoin="round" stroke-miterlimit="10" d="M237.624,453.506
					c0,0,10.871,0.983,15.929,0s-0.562-8.289,1.405-12.082s6.744-9.135,6.744-14.895c0-5.057,0.561-14.609,4.354-20.371
					c3.794-5.76,5.339-17.421,6.743-35.265c1.405-17.841,6.323-32.03,6.744-39.338c0.422-7.307,3.232-39.898,4.637-48.189
					c1.405-8.289,3.365-16.8,3.229-21.326"/>
				<path fill="none" stroke="#000000" stroke-linecap="round" stroke-linejoin="round" stroke-miterlimit="10" d="M254.958,441.424
					c-1.546,2.95-8.992,7.445-8.992,7.445"/>
				<path fill="none" stroke="#000000" stroke-linecap="round" stroke-linejoin="round" stroke-miterlimit="10" d="M243.156,373.846
					c0,0,2.811,4.636,11.802,6.742"/>
				<path fill="none" stroke="#000000" stroke-linecap="round" stroke-linejoin="round" stroke-miterlimit="10" d="M249.058,370.894
					c0,0,5.338-3.652,10.255-4.636c4.919-0.982,8.712-3.09,8.712-3.09"/>
				<path fill="none" stroke="#000000" stroke-linecap="round" stroke-linejoin="round" stroke-miterlimit="10" d="M239.784,403.911
					c0,0,7.025,9.693,15.876,12.223"/>
				<path fill="none" stroke="#000000" stroke-linecap="round" stroke-linejoin="round" stroke-miterlimit="10" d="M201.851,467.726
					c0,0-0.422,1.515-3.232,3.482c-2.809,1.968-11.099,12.083-6.321,14.331c4.776,2.246,11.38,2.81,16.579,1.545
					c5.197-1.265,10.114-4.215,11.238-6.182c1.125-1.968,2.951-5.199,5.621-6.463c2.669-1.264,6.744-2.812,8.148-3.936
					c1.404-1.122,0-3.929,0-3.929"/>
				<path fill="none" stroke="#000000" stroke-linecap="round" stroke-linejoin="round" stroke-miterlimit="10" d="M191.249,484.653
					c0,0-1.06,4.258,2.453,5.101c3.512,0.843,11.723,2.25,20.263-1.404c8.539-3.653,6.149-7.446,6.149-7.446"/>
				<path fill="none" stroke="#000000" stroke-linecap="round" stroke-linejoin="round" stroke-miterlimit="10" d="M221.886,478.036
					c0,0,2.584,1.349,6.519,0s6.603-1.771,5.479-7.531"/>
				<path fill="none" stroke="#000000" stroke-linecap="round" stroke-linejoin="round" stroke-miterlimit="10" d="M234.508,468.42
					c0,0,2.608,3.211,8.79,2.93c6.182-0.282,10.816,0.701,12.362-3.935c1.546-4.638-3.645-10.839-6.599-13.497"/>
				<path fill="none" stroke="#000000" stroke-linecap="round" stroke-linejoin="round" stroke-miterlimit="10" d="M234.142,471.366
					c0,0,3.958,3.756,12.949,3.204c8.99-0.552,8.267-2.614,8.138-6.149"/>
			</g>
			<g>
				<path fill="#E7D1C9" d="M229.403,55.049c0.373-4.169-1.189-11.9-1.189-12.797c0-0.891-8.253-10.858-8.999-11.454
					c-0.744-0.596-16.065-8.403-23.13-2.153c-7.066,6.247-11.008,12.568-11.381,14.727c-0.373,2.157-2.307,7.138-2.307,7.138
					s-0.076,3.942-0.969,11.307c-0.892,7.364-2.081,14.282,1.414,19.265c3.496,4.982,3.941,6.77,4.462,8.852
					c0.521,2.082,2.68,5.205,5.506,6.545c1.188,2.975,2.923,7.056,0.47,11.669c-2.455,4.61,8.9,18.087,11.875,16.448
					s22.389-19.342,22.984-25.587c0.595-6.246,0.668-6.174,0.445-9.892c-0.125-2.098,0.096-4.219,0.385-6.293
					c0.258-1.845,0.456-3.66,0.972-5.457c0.2-0.704,0.505-1.364,0.679-2.076c0.232-0.947,0.373-1.916,0.647-2.854
					c0.264-0.904,0.664-1.771,1.017-2.645c0.367-0.918,0.929-1.84,1.115-2.819c0.207-1.095-0.096-2.171-0.632-3.126
					c-0.241-0.428-0.581-0.811-0.785-1.257c-0.206-0.446-0.443-0.604-0.774-0.951c-0.771-0.808-1.823-1.622-1.936-2.827
					C229.159,57.603,229.295,56.258,229.403,55.049z"/>
				<path fill="#DDBDB1" d="M187.305,89.932c0.521,2.082,2.68,5.205,5.506,6.545c1.175,2.939,2.41,9.579,0.068,14.188
					c-0.146,2.684,0.016,5.416,1.229,5.719c2.45,0.612,11.637-1.327,13.065-8.574c0.672-3.408,1.82-5.568,3.219-7.141
					c0.49-0.745,1.336-1.349,2.201-1.984c1.928-1.419,4.098-2.777,5.286-4.916c-0.728,0.043-1.275,0.727-1.851,1.127
					c-0.776,0.535-1.66,0.927-2.488,1.371c-1.15,0.615-2.568,1.416-3.85,1.614c-0.056-0.968,1.366-2.181,1.919-2.891
					c1.188-1.538,2.462-3.208,3.415-4.894c1.004-1.769,2.562-4.719,2.267-6.857c-0.499,0.316-0.79,1.288-1.048,1.848
					c-0.498,1.078-1.002,2.04-1.717,2.999c-1.099,1.474-2.164,2.954-3.396,4.318c-1.053,1.161-2.85,3.521-4.639,2.536
					c-0.935-0.512-1.051-1.508-0.773-2.415c0.478-1.558,1.074-3.095,1.544-4.682c0.308-1.031,1.149-9.427-0.296-9.159
					c-0.025,0.008-0.048,0.015-0.072,0.022c-0.863,3.125-0.843,6.193-2.312,9.182c-1.098,2.232-2.453,4.943-5.02,5.773
					c-1.9,0.615-3.971,0.967-5.84,0.217c-1.559-0.631-3.392-1.773-4.158-3.308c-0.565-1.135-1.287-3.18-0.17-4.173
					c0.807-0.717,1.656-0.618,2.682-0.658c1.722-0.068,3.389-0.353,5.032-0.89c1.663-0.541,7.921-3.225,6.372-5.765
					c-0.767-1.267-3.147-1.446-4.426-1.63c-1.438-0.209-2.859-0.138-4.227,0.367c-1.771,0.646-3.277,0.763-5.02-0.217
					c-1.287-0.723-2.75-2.348-1.18-3.647c1.511-1.249,2.834,0.898,4.438,0.868c1.985-0.034,3.973-2.992,5.222-4.346
					c0.971-1.051,1.257-2.489-0.585-2.897c-1.405-0.311-2.731,0.664-3.864,1.258c-1.145,0.601-2.525,1.771-3.861,1.738
					c-1.451-0.034-2.125-1.044-2.043-2.403c-0.705,0.296-0.664,1.498-1.068,2.09c-0.462,0.676-1.258,1.398-2.104,1.477
					c-2.053,0.19-2.654-2.173-2.801-3.771c-0.163-1.799-1.002-4.485,0.387-5.992c0.554-0.597,1.48-0.812,2.004-1.464
					c0.74-0.915,0.843-1.295,2.22-1.232c1.156,0.053,4.213,2.143,5.362,1.165c0.586-0.499,0.332-2.575,0.146-3.199
					c-0.35-1.164-1.315-1.609-2.368-2.048c-0.788-0.329-1.478-0.717-1.882-1.521c-0.587-1.168,0.232-1.959,0.982-2.916
					c0.613-0.786,1.23-1.596,1.682-2.485c0.359-0.715,0.395-1.415,0.581-2.173c0.479-1.936,0.333-4.053,1.028-5.933
					c0.537-1.443,1.346-2.86,2.509-3.91c3.427-3.11,9.286-3.989,13.729-3.067c1.422,0.297,2.874,0.366,4.294,0.629
					c1.271,0.237,2.842,0.837,4.142,0.69c0.788-0.087,1.165-0.999,0.922-1.755c-0.796-2.475-4.019-3.27-6.128-3.924
					c-3.125-0.971-6.498-1.675-9.812-1.488c-2.265,0.132-4.373,1.547-6.076,2.957c-1.54,1.271-2.627,2.871-3.837,4.43
					c-0.498,0.641-1.177,0.829-1.741,1.43c-0.543,0.576-0.939,1.273-1.461,1.865c-1.057,1.202-2.996,2.342-3.626,3.833
					c-0.424,0.995-0.459,2.275-0.771,3.335c-0.357,1.205-0.773,2.396-1.203,3.578c-0.169,0.468-0.646,1.23-0.646,1.733
					c0,0-0.076,3.942-0.969,11.307c-0.892,7.364-2.081,14.282,1.414,19.265C186.339,86.063,186.784,87.85,187.305,89.932z"/>
				<path fill="#DDBDB1" d="M198.087,58.72c-0.1-0.298-0.176-0.57-0.225-0.785c-0.423-1.828,0.338-4.113,1.814-5.187
					c1.635-1.196,4.18-1.187,6.014-0.629c1.609,0.487,2.494,1.596,3.691,2.726c0.366,0.344,0.837,0.688,0.995,1.216
					c0.169,0.562-0.05,0.933,0.365,1.418c0.797,0.934,2.354,0.32,3.392,0.459c-0.096,0.881-2.763,0.846-3.51,1.106
					c0.695,1.238,3.025,0.804,4.17,1.097c0.193,1.659-5.782-0.883-6.6-1.001c0.807,0.675,1.281,0.963,0.527,2.01
					c-0.656,0.909-1.489,1.51-2.584,1.397c0.422-0.629,1.445-0.779,1.736-1.573c0.309-0.843-0.621-1.171-1.306-1.417
					c-1.324-0.479-2.647,0.028-3.979-0.032c-0.712-0.032-2.243-0.278-2.201,0.919c0.018,0.438,0.688,0.88-0.082,0.945
					C199.258,61.479,198.481,59.903,198.087,58.72z"/>
				
					<path fill="none" stroke="#000000" stroke-width="0.75" stroke-linecap="round" stroke-linejoin="round" stroke-miterlimit="10" d="
					M192.028,111.226c2.453-4.612,1.971-11.774,0.782-14.749c-2.826-1.34-4.984-4.463-5.506-6.545
					c-0.521-2.082-0.966-3.869-4.462-8.852c-3.495-4.982-2.306-11.9-1.414-19.265c0.893-7.364,0.969-11.307,0.969-11.307
					s1.934-4.98,2.307-7.138c0.373-2.158,4.314-8.479,11.381-14.727c7.064-6.25,22.386,1.558,23.13,2.153
					c0.746,0.596,8.999,10.563,8.999,11.454c0,0.896,1.562,8.628,1.189,12.797c-0.033,0.387-0.108,0.824-0.061,1.213
					c0.037,0.31,0.207,0.576,0.294,0.87c0.271,0.907,0.429,1.827,0.885,2.671c0.447,0.829,0.862,1.577,1.493,2.282
					c0.576,0.644,1.111,1.414,1.155,2.298c0.042,0.816,0.022,1.781-0.101,2.584c-0.133,0.881-0.368,1.742-0.508,2.623
					c-0.238,1.496-0.93,2.942-1.328,4.404c-0.288,1.071-0.721,2.094-1.021,3.16c-0.258,0.92-0.4,1.863-0.654,2.786
					c-0.143,0.517-0.291,1.026-0.339,1.562c-0.104,1.168-0.398,2.343-0.511,3.548c-0.127,1.347-0.204,2.711-0.123,4.064
					c0.223,3.718,0.149,3.646-0.445,9.892"/>
				
					<path fill="none" stroke="#000000" stroke-width="0.75" stroke-linecap="round" stroke-linejoin="round" stroke-miterlimit="10" d="
					M196.73,66.469c0,0,3.679,1.684,1.64,3.854"/>
				
					<path fill="none" stroke="#000000" stroke-width="0.75" stroke-linecap="round" stroke-linejoin="round" stroke-miterlimit="10" d="
					M196.065,70.145c0,0-2.083-1.195-3.191,0.711"/>
				
					<path fill="none" stroke="#000000" stroke-width="0.75" stroke-linecap="round" stroke-linejoin="round" stroke-miterlimit="10" d="
					M191.854,60.839c0,0-4.521,6.337-4.521,8.11c0,1.771,2.039,2.924,2.926,3.059"/>
				<path fill="#D19C95" d="M205.772,77.59c0,0-3.855-0.352-6.117-1.461c-2.26-1.104-5.143-0.667-6.072-0.354
					c-0.93,0.31-2.837-0.313-3.679,0.266c-0.843,0.578-1.152,3.238-1.152,3.238s-0.442,5.094,4.921,4.697
					C199.034,83.576,203.202,80.032,205.772,77.59z"/>
				
					<path fill="none" stroke="#000000" stroke-width="0.75" stroke-linecap="round" stroke-linejoin="round" stroke-miterlimit="10" d="
					M205.772,77.59c0,0-3.855-0.352-6.117-1.461c-2.26-1.104-5.143-0.667-6.072-0.354c-0.93,0.31-2.837-0.313-3.679,0.266
					c-0.843,0.578-1.152,3.238-1.152,3.238s-0.442,5.094,4.921,4.697C199.034,83.576,203.202,80.032,205.772,77.59z"/>
				<path fill="#888888" d="M209.494,54.205c0,0-4.116-3.601-7.759-3.13c-3.646,0.473-3.875,2.103-3.875,2.103
					s0.305,0.392,0.822,0.221c0.516-0.169,1.736-1.627,4.523-1.282C205.993,52.459,209.494,54.205,209.494,54.205z"/>
				<path fill="#888888" d="M190.234,55.64c0.196,0.151-1.625,0.231-2.63-0.348c-1.006-0.578-2.822-1.236-4.525-0.312
					C184.162,53.473,186.29,52.625,190.234,55.64z"/>
				
					<path fill="none" stroke="#000000" stroke-width="0.75" stroke-linecap="round" stroke-linejoin="round" stroke-miterlimit="10" d="
					M209.494,54.205c0,0-4.116-3.601-7.759-3.13c-3.646,0.473-3.875,2.103-3.875,2.103s0.305,0.392,0.822,0.221
					c0.516-0.169,1.736-1.627,4.523-1.282C205.993,52.459,209.494,54.205,209.494,54.205z"/>
				
					<path fill="none" stroke="#000000" stroke-width="0.75" stroke-linecap="round" stroke-linejoin="round" stroke-miterlimit="10" d="
					M190.234,55.64c0.196,0.151-1.625,0.231-2.63-0.348c-1.006-0.578-2.822-1.236-4.525-0.312
					C184.162,53.473,186.29,52.625,190.234,55.64z"/>
				<path fill="#FFFFFF" d="M208.52,58.816c0,0-4.038-3.435-6.218-3.089c-2.199,0.297-1.901,3.664-1.901,3.664
					S205.829,59.448,208.52,58.816z"/>
				<path fill="#FFFFFF" d="M190.817,60.614c0,0-1.793-3.775-4.301-2.413c-2.308,1.44-2.539,2.943-2.539,2.943
					S188.331,61.124,190.817,60.614z"/>
				<path fill="#5E7496" d="M202.302,55.727c1.201-0.192,2.965,0.768,4.311,1.666c-0.018,0.687-0.247,1.309-0.609,1.789
					c-1.24,0.112-3.046,0.175-4.089,0.198c-0.469-0.52-0.526-1.205-0.526-2.012c0-0.424,0.321-1.052,0.493-1.236
					C202.013,55.979,202.151,55.84,202.302,55.727z"/>
				<path fill="#5E7496" d="M189.317,58.619c0.263,1.052-0.024,2.102-0.087,2.249c-1.504,0.245-2.41,0.199-3.734,0.24
					c-0.265-0.416-0.423-0.906-0.423-1.438c0-0.125,0.02-0.242,0.038-0.361c0.351-0.356,0.805-0.733,1.405-1.108
					C188.674,57.578,188.559,58.006,189.317,58.619z"/>
				<path stroke="#000000" stroke-width="0.5" stroke-linecap="round" stroke-linejoin="round" stroke-miterlimit="10" d="
					M186.12,59.579c0,0.766,0.385,1.388,0.86,1.388c0.474,0,0.862-0.622,0.862-1.388c0-0.771-0.389-1.394-0.862-1.394
					C186.505,58.185,186.12,58.808,186.12,59.579z"/>
				<path stroke="#000000" stroke-width="0.5" stroke-linecap="round" stroke-linejoin="round" stroke-miterlimit="10" d="
					M202.407,57.563c0,0.943,0.385,1.713,0.861,1.713c0.475,0,0.861-0.77,0.861-1.713c0-0.951-0.387-1.721-0.861-1.721
					C202.792,55.842,202.407,56.612,202.407,57.563z"/>
				
					<path fill="none" stroke="#000000" stroke-width="0.75" stroke-linecap="round" stroke-linejoin="round" stroke-miterlimit="10" d="
					M204.401,74.13c0,0,2.342,2.039,2.506,3.059c0.166,1.021,0.264,6.316,0,6.647"/>
				
					<path fill="none" stroke="#000000" stroke-width="0.75" stroke-linecap="round" stroke-linejoin="round" stroke-miterlimit="10" d="
					M186.935,77.452c0,0,0.691,2.404,0.757,3.785c0.066,1.385,0.196,3.391,0.196,3.391"/>
				<path fill="#FFFFFF" d="M204.605,77.915c0,0-3.948-0.098-5.618-0.625c-1.328-0.42-4.582-0.068-6.113,0.162
					c-1.53,0.23-3.023,0.562-3.279,1.529c-0.258,0.974,0.408,2.059,0.943,2.322c0.979,0.184,3.404,0,6.038-0.066
					c2.271-0.055,5.134-1.473,6.12-1.904C203.684,78.901,204.605,77.915,204.605,77.915z"/>
				
					<path fill="none" stroke="#000000" stroke-width="0.75" stroke-linecap="round" stroke-linejoin="round" stroke-miterlimit="10" d="
					M204.605,77.915c0,0-3.948-0.098-5.618-0.625c-1.328-0.42-4.582-0.068-6.113,0.162c-1.53,0.23-3.023,0.562-3.279,1.529
					c-0.258,0.974,0.408,2.059,0.943,2.322c0.979,0.184,3.404,0,6.038-0.066c2.271-0.055,5.134-1.473,6.12-1.904
					C203.684,78.901,204.605,77.915,204.605,77.915z"/>
				
					<path fill="none" stroke="#000000" stroke-width="0.75" stroke-linecap="round" stroke-linejoin="round" stroke-miterlimit="10" d="
					M206.195,89.405c0,0-5.224,6.571-11.726,5.927c-4.934-0.487-7.273-5.833-7.273-5.833"/>
				
					<path fill="none" stroke="#000000" stroke-width="0.75" stroke-linecap="round" stroke-linejoin="round" stroke-miterlimit="10" d="
					M192.811,96.477c0,0,2.796,1.293,3.255,2.514"/>
				<path fill="#B0B0B0" d="M216.185,35.055c0,0-12.588-7.639-19.454-2.52c-6.866,5.118-1.112,12.376-7.194,13.73
					c0.166-2.355-1.648-3.9-1.648-3.9s2.393,9.909-5.614,10.639c-0.056,0.814-1.111,10.965-1.111,10.965l-0.674,3.013
					c0,0-3.378-4.996-3.46-8.552c-0.08-3.555,1.219-6.314,0.975-6.314c-0.242,0-2.273-1.3-2.193-4.713
					c2.438,0.729,5.119-0.486,3.736-3.41c-1.38-2.927-3.737-9.016,3.533-15.19c7.273-6.175,16.41-9.833,25.409-11.537
					c8.998-1.708,17.12,2.11,17.853,6.985c4.629-2.843,12.51,2.68,15.841,6.742s12.023,13.487,7.149,31.114
					c-4.875,17.628-15.354,17.464-11.861,21.891c0,0-4.234,4.449-8.86,2.328c0.381-3.648,0.853-9.231,0.853-9.231l3.353-13.125
					c0,0-2.087,0.516-2.412,2.453c-0.324,1.939-2.03,5.158-5.037,2.941c-3.005-2.221-2.193-9.996-4.794-12.446
					c-2.598-2.447-4.953-6.917-5.035-12.925C215.456,37.981,216.185,35.055,216.185,35.055z"/>
				<g>
					<path fill="#9D9D9D" d="M215.897,24.25c0.656-0.493,1.43-0.919,1.973-1.448C217.718,23.585,216.856,24.011,215.897,24.25z"/>
					<path fill="#9D9D9D" d="M175.861,48.396c0.586,0.164,1.167,0.339,1.696,0.462c1.381,0.318,2.484,0.089,3.805-0.408
						c2.279-0.853,3.116-2.492,4.074-4.549c0.146,0.635,0.143,1.344,0.012,1.983c0.559-1.028,0.412-2.815,0.319-3.948
						c-0.093-1.115-0.262-2.404-0.929-3.307c1.725,0.668,2.746,2.262,3.326,4.011c-0.166-0.178-0.277-0.274-0.277-0.274
						s2.393,9.909-5.614,10.639c-0.056,0.814-1.111,10.965-1.111,10.965l-0.674,3.013c0,0-3.378-4.996-3.46-8.552
						c-0.08-3.555,1.219-6.314,0.975-6.314C177.786,52.116,176.146,51.06,175.861,48.396z"/>
					
						<path fill="none" stroke="#000000" stroke-width="0.75" stroke-linecap="round" stroke-linejoin="round" stroke-miterlimit="10" d="
						M182.273,53.004c0,0-1.868,0.269-4.271-0.889"/>
					<path fill="#9D9D9D" d="M189.536,46.266c0.02-0.284,0.009-0.551-0.022-0.81c1.424-1.128,2.841-2.754,3.062-4.524
						c0.232-1.859-0.301-3.709-0.588-5.492c-0.219-1.357-0.152-2.907,0.293-4.19c0.543-1.562,2.285-2.897,3.668-3.722
						c1.287-0.769,2.626-1.508,4.035-2.021c1.836-0.67,4.066-0.713,6.012-0.777c2.457-0.081,4.927-0.05,7.385-0.171
						c0.551-0.026,1.582-0.076,2.518-0.309c-0.311,0.233-0.602,0.476-0.818,0.767c1.717-0.406,3.24,0.258,4.805-0.83
						c0.728-0.507,1.402-1.033,2.113-1.528c0.76-0.528,1.664-1.294,2.619-1.674c0.938,0.988,1.548,2.094,1.725,3.266
						c0.01-0.008,0.021-0.009,0.03-0.015c-1.72,1.891-3.884,3.509-5.385,5.537c-1.335,1.807-1.993,4.273-2.017,6.519
						c-0.034,3.707-0.16,7.376,0.713,11.03c0.459,1.909,1.111,3.593,1.844,5.402c0.534,1.315,1.997,2.539,2.947,3.581
						c1.562,1.719,3.398,3.145,5.146,4.659c1.154,1.001,2.028,1.903,2.799,3.146c-0.62,0.254-1.779,0.904-2.016,2.312
						c-0.324,1.939-2.03,5.158-5.037,2.941c-3.005-2.221-2.193-9.996-4.794-12.446c-2.598-2.447-4.953-6.917-5.035-12.925
						c-0.08-6.012,0.648-8.938,0.648-8.938s-12.588-7.639-19.454-2.52C189.864,37.654,195.618,44.912,189.536,46.266z"/>
					<path fill="#9D9D9D" d="M229.462,77.094l3.216-12.589c0.776,1.296,1.802,2.285,3.133,2.976c1.681,0.878,2.712,0.66,4.278-0.44
						c3.229-2.271,5.842-6.124,6.343-10.081c0.558,1.26,0.19,3.039,0.154,4.385c0.771-2.283,1.288-4.568,1.419-6.979
						c0.623,1.473,0.68,3.111,0.681,4.721c0.05-0.659,0.286-1.29,0.482-1.912c0.673-2.124,0.68-4.181,0.684-6.398
						c0.002-1.138-0.042-2.254-0.134-3.362l1.055,5.136c-0.045,2.878-0.473,6.054-1.441,9.559
						c-4.875,17.628-15.354,17.464-11.861,21.891c0,0-4.234,4.449-8.86,2.328C228.99,82.677,229.462,77.094,229.462,77.094z"/>
					<path fill="#9D9D9D" d="M249.324,44.352c0.182,1.025,0.308,2.041,0.394,3.061l-1.265-6.154
						C249.017,42.152,249.144,43.336,249.324,44.352z"/>
				</g>
				
					<path fill="none" stroke="#000000" stroke-width="0.75" stroke-linecap="round" stroke-linejoin="round" stroke-miterlimit="10" d="
					M216.185,35.055c0,0-12.588-7.639-19.454-2.52c-6.866,5.118-1.112,12.376-7.194,13.73c0.166-2.355-1.648-3.9-1.648-3.9
					s2.393,9.909-5.614,10.639c-0.056,0.814-1.111,10.965-1.111,10.965l-0.674,3.013c0,0-3.378-4.996-3.46-8.552
					c-0.08-3.555,1.219-6.314,0.975-6.314c-0.242,0-2.273-1.3-2.193-4.713c2.438,0.729,5.119-0.486,3.736-3.41
					c-1.38-2.927-3.737-9.016,3.533-15.19c7.273-6.175,16.41-9.833,25.409-11.537c8.998-1.708,17.12,2.11,17.853,6.985
					c4.629-2.843,12.51,2.68,15.841,6.742s12.023,13.487,7.149,31.114c-4.875,17.628-15.354,17.464-11.861,21.891
					c0,0-4.234,4.449-8.86,2.328c0.381-3.648,0.853-9.231,0.853-9.231l3.353-13.125c0,0-2.087,0.516-2.412,2.453
					c-0.324,1.939-2.03,5.158-5.037,2.941c-3.005-2.221-2.193-9.996-4.794-12.446c-2.598-2.447-4.953-6.917-5.035-12.925
					C215.456,37.981,216.185,35.055,216.185,35.055z"/>
				
					<path fill="none" stroke="#000000" stroke-width="0.75" stroke-linecap="round" stroke-linejoin="round" stroke-miterlimit="10" d="
					M226.341,24.25c0,0-5.335,4.171-6.648,7.041"/>
				<path fill="#E7D1C9" d="M226.341,79.24c0,0,1.707,2.525,5.443-0.965c3.736-3.493,7.311-9.882,6.174-12.269
					c-1.501-3.148-6.093-1.703-6.093-1.703"/>
				
					<path fill="none" stroke="#000000" stroke-width="0.75" stroke-linecap="round" stroke-linejoin="round" stroke-miterlimit="10" d="
					M226.341,79.24c0,0,1.707,2.525,5.443-0.965c3.736-3.493,7.311-9.882,6.174-12.269c-1.501-3.148-6.093-1.703-6.093-1.703"/>
				
					<path fill="none" stroke="#000000" stroke-width="0.75" stroke-linecap="round" stroke-linejoin="round" stroke-miterlimit="10" d="
					M234.546,66.469c0,0-2.681-1.273-3.33,0.755c-0.65,2.033,0.649,2.77,0,3.091c-0.65,0.323-2.328-1.353-1.936,0.541
					c0.391,1.894,1.16,1.894,2.604,1.73"/>
				
					<path fill="none" stroke="#000000" stroke-width="0.75" stroke-linecap="round" stroke-linejoin="round" stroke-miterlimit="10" d="
					M231.064,67.878c0,0,3.806-0.427,3.481,1.895"/>
				<circle fill="#FFFFFF" cx="205.008" cy="57.573" r="0.419"/>
				<circle fill="#FFFFFF" cx="188.31" cy="59.265" r="0.422"/>
				
					<path fill="none" stroke="#000000" stroke-width="0.75" stroke-linecap="round" stroke-linejoin="round" stroke-miterlimit="10" d="
					M216.295,86.897c-1.872,3.835-5.46,9.362-11.062,10.836"/>
				<path fill="#EDDDD7" d="M211.132,41.813c0.354-2.324-1.734-6.768-4.563-6.496c-1.19,0.112-2.937,0.682-2.881,2.174
					c0.063,1.659,2.239,3.347,3.258,4.502c0.636,0.721,1.497,2.365,2.649,2.129C210.507,43.934,211.011,42.624,211.132,41.813z"/>
				<path fill="#EDDDD7" d="M194.155,65.264c-0.049,0.145-0.086,0.274-0.105,0.385c-0.18,1.059-0.421,2.258-1.668,2.496
					c-0.594,0.109-1.403,0.072-1.299-0.756c0.123-0.974,1.403-1.748,1.792-2.668c0.234-0.553,0.56-2.811,1.603-2.252
					C195.32,62.917,194.353,64.666,194.155,65.264z"/>
				<path fill="#EDDDD7" d="M214.751,67.318c0.083,0.79-0.408,1.659-1.171,1.979c-0.974,0.4-1.36-0.427-1.997-1.029
					c-1.371-1.289-3.402-0.906-4.891-1.988c-0.551-0.398-1.109-1.052-0.807-1.791c0.33-0.805,1.893-1.229,2.688-1.377
					C211.409,62.577,214.433,64.305,214.751,67.318z"/>
				
					<path fill="none" stroke="#000000" stroke-width="0.75" stroke-linecap="round" stroke-linejoin="round" stroke-miterlimit="10" d="
					M187.888,42.366c0,0-3.719-3.307-2.941-7.06"/>
				
					<path fill="none" stroke="#000000" stroke-width="0.75" stroke-linecap="round" stroke-linejoin="round" stroke-miterlimit="10" d="
					M231.064,65.046c0,0,4.269-6.144,7.616-4.663"/>
				<path fill="#C7C7C7" d="M243.147,38.288c-1.217,0.289-3.256-2.41-4.244-3.046c-1.414-0.904-3.16-1.508-4.482-2.393
					c1.531,0.784,2.342,2.474,3.6,3.558c-1.771-0.978-3.259-2.029-5.34-2.282c-2.066-0.251-4.553,0.279-6.532-0.292
					c-1.448-0.414-2.753-1.993-2.653-3.522c0.227-3.509,4.439-3.937,7.134-4.161c3.069-0.258,6.659,2.335,8.28,4.793
					C239.255,31.465,244.097,38.066,243.147,38.288z"/>
				<path fill="none" stroke="#000000" stroke-linecap="round" stroke-linejoin="round" stroke-miterlimit="10" d="M188.69,57.492
					c0,0-1.076,0-2.174,0.709c-2.308,1.44-2.539,2.943-2.539,2.943l-1.629,0.835"/>
				<path fill="none" stroke="#000000" stroke-linecap="round" stroke-linejoin="round" stroke-miterlimit="10" d="M199.706,56.596
					c0,0,0.514-0.565,2.596-0.869c2.18-0.346,6.218,3.089,6.218,3.089s1.171,1.327,3.609,1.53"/>
			</g>
			<g>
				<g>
					<g>
						<g>
							<g>
								<path fill="#CCCCCC" stroke="#000000" stroke-linecap="round" stroke-linejoin="round" stroke-miterlimit="10" d="
									M146.196,387.133c-0.104,0.002-0.211-0.002-0.316-0.009c-1.857-0.14-3.25-1.758-3.111-3.615l11.637-163.492
									c0.138-1.857,1.752-3.244,3.613-3.108c1.857,0.139,3.25,1.758,3.111,3.613l-11.637,163.492
									C149.364,385.765,147.918,387.102,146.196,387.133z"/>
								
									<rect x="138.13" y="389.739" transform="matrix(0.9972 0.0744 -0.0744 0.9972 32.7029 -9.3838)" fill="#BBBBBB" stroke="#000000" stroke-linecap="round" stroke-linejoin="round" stroke-miterlimit="10" width="8.43" height="89.322"/>
								
									<rect x="140.845" y="383.753" transform="matrix(0.9972 0.0746 -0.0746 0.9972 29.2687 -9.8083)" fill="#B0C7E1" stroke="#000000" stroke-linecap="round" stroke-linejoin="round" stroke-miterlimit="10" width="10.117" height="6.12"/>
							</g>
							<path fill="#666666" stroke="#000000" stroke-linecap="round" stroke-linejoin="round" stroke-miterlimit="10" d="
								M133.265,478.494l-1.007,13.455c0,0,3.778,3.942,11.769,0.882l1.007-13.454L133.265,478.494z"/>
						</g>
						<path opacity="0.2" d="M161.13,220.522c0.13-1.736-1.085-3.247-2.76-3.55c-5.727,79.145-17.434,249.488-19.166,276.979
							c0.345-0.025,0.701-0.063,1.071-0.117c0.022-0.003,0.046-0.007,0.067-0.009c0.346-0.054,0.702-0.119,1.07-0.202
							c0.123-0.026,0.253-0.065,0.379-0.095c0.285-0.071,0.569-0.141,0.867-0.23c0.442-0.133,0.896-0.287,1.367-0.467l1.007-13.454
							l-1.815-0.138l6.661-89.06l0.841,0.062l0.455-6.103l-1.682-0.125L161.13,220.522z"/>
					</g>
					<g>
						<g>
							<g>
								<path fill="#CCCCCC" stroke="#000000" stroke-linecap="round" stroke-linejoin="round" stroke-miterlimit="10" d="
									M314.483,387.133c0.104,0.002,0.211-0.002,0.316-0.009c1.855-0.14,3.25-1.758,3.111-3.615l-11.638-163.492
									c-0.138-1.857-1.751-3.244-3.612-3.108c-1.857,0.139-3.25,1.758-3.111,3.613l11.637,163.492
									C311.315,385.765,312.762,387.102,314.483,387.133z"/>
								
									<rect x="314.121" y="389.739" transform="matrix(-0.9972 0.0744 -0.0744 -0.9972 668.1013 843.9183)" fill="#BBBBBB" stroke="#000000" stroke-linecap="round" stroke-linejoin="round" stroke-miterlimit="10" width="8.429" height="89.322"/>
								
									<rect x="309.718" y="383.753" transform="matrix(-0.9972 0.0746 -0.0746 -0.9972 657.5399 749.0582)" fill="#B0C7E1" stroke="#000000" stroke-linecap="round" stroke-linejoin="round" stroke-miterlimit="10" width="10.116" height="6.119"/>
							</g>
							<path fill="#666666" stroke="#000000" stroke-linecap="round" stroke-linejoin="round" stroke-miterlimit="10" d="
								M327.415,478.494l1.006,13.455c0,0-3.777,3.942-11.768,0.882l-1.008-13.454L327.415,478.494z"/>
						</g>
						<path opacity="0.2" d="M299.55,220.522c-0.131-1.736,1.085-3.247,2.76-3.55c5.727,79.145,17.434,249.488,19.166,276.979
							c-0.344-0.025-0.701-0.063-1.071-0.117c-0.022-0.003-0.045-0.007-0.067-0.009c-0.346-0.054-0.702-0.119-1.07-0.202
							c-0.123-0.026-0.254-0.065-0.379-0.095c-0.285-0.071-0.569-0.141-0.867-0.23c-0.441-0.133-0.896-0.287-1.367-0.467
							l-1.008-13.454l1.816-0.138l-6.661-89.06l-0.841,0.062l-0.456-6.103l1.683-0.125L299.55,220.522z"/>
					</g>
					<g>
						<path fill="#CCCCCC" stroke="#000000" stroke-linecap="round" stroke-linejoin="round" stroke-miterlimit="10" d="
							M312.671,342.296c-1.666,0-2.021-1.473-2.246-3.17c-0.243-1.847-0.037-3.303,1.811-3.544l10.59-1.396
							c1.835-0.259,2.49,1.164,2.734,3.01c0.243,1.848-0.008,3.433-1.854,3.674l-10.589,1.397
							C312.967,342.287,312.817,342.296,312.671,342.296z"/>
						<path opacity="0.2" d="M323.169,338.255l-10.59,1.397c-0.998,0.131-1.507,0.623-1.734,1.333
							c0.312,0.782,0.834,1.311,1.826,1.311c0.146,0,0.296-0.01,0.445-0.029l10.589-1.397c0.974-0.127,1.497-0.635,1.744-1.351
							C325.04,338.625,324.353,338.09,323.169,338.255z"/>
					</g>
					<g>
						<path fill="#CCCCCC" stroke="#000000" stroke-linecap="round" stroke-linejoin="round" stroke-miterlimit="10" d="
							M148.389,342.296c1.335,0,1.62-1.473,1.8-3.17c0.194-1.847,0.029-3.303-1.451-3.544l-8.486-1.396
							c-1.471-0.259-1.996,1.164-2.191,3.01c-0.194,1.848,0.006,3.433,1.485,3.674l8.487,1.397
							C148.151,342.287,148.271,342.296,148.389,342.296z"/>
						<path opacity="0.2" d="M139.975,338.255l8.487,1.397c0.801,0.131,1.207,0.623,1.389,1.333
							c-0.248,0.782-0.667,1.311-1.462,1.311c-0.118,0-0.237-0.01-0.356-0.029l-8.487-1.397c-0.78-0.127-1.199-0.635-1.397-1.351
							C138.476,338.625,139.026,338.09,139.975,338.255z"/>
					</g>
					<g>
						<g>
							<g>
								<g id="XMLID_31_">
									<g>
										<path fill="#DDBDB1" d="M145.284,229.532l-0.201,2.223c-4.721-4.027-4.232-14.598-4.147-15.847
											c0.118,3.794,1.231,8.464,5.395,11.06l-0.202,2.646L145.284,229.532z"/>
										<path fill="#DDBDB1" d="M141.778,212.08c1.197,5.582,2.275,9.847,4.939,9.981l-0.388,4.906
											c-4.163-2.596-5.276-7.266-5.395-11.06c0-0.083,0-0.118,0-0.118c-0.085-3.103,0.472-5.598,0.556-5.916
											C141.509,210.513,141.593,211.256,141.778,212.08z"/>
										<path fill="#E7D1C9" d="M156.126,226.967c-1.45,0.136-1.855-3.051,0-5.444c1.871-2.378,3.27-5.853,3.404-6.931v-0.016
											c0.422-0.811,0.658-1.738,0.658-2.715c0-3.305-2.697-5.986-6.002-5.986c-3.321,0-6.002,2.682-6.002,5.986
											c0,0.253,0.017,0.488,0.051,0.742c-0.521,0.875-0.928,1.955-1.045,3.221l-0.473,6.236
											c-2.664-0.135-3.742-4.399-4.939-9.981c-0.186-0.823-0.27-1.566-0.287-2.206c0-0.018,0-0.036,0-0.036
											c-0.151-3.659,1.922-4.636,3.592-6.658c1.973-2.376,8.531-3.776,11.312-3.979c3.726-0.27,6.912,4.248,8.514,6.373
											c1.585,2.124,1.989,4.653,1.449,7.453c-0.521,2.78,0.305,7.029-3.304,9.559
											C159.447,225.114,157.593,226.833,156.126,226.967z"/>
									</g>
								</g>
							</g>
						</g>
						<path fill="#DDBDB1" d="M159.993,213.347c-0.11,0.431-0.262,0.844-0.463,1.229v0.016c-0.135,1.078-1.533,4.553-3.404,6.931
							c-1.855,2.394-1.45,5.58,0,5.444c1.467-0.135,3.321-1.854,6.929-4.383c3.569-2.503,2.802-6.685,3.29-9.467
							C165.062,214.954,163.065,215.788,159.993,213.347z"/>
					</g>
					<g>
						<path fill="none" stroke="#000000" stroke-linecap="round" stroke-linejoin="round" stroke-miterlimit="10" d="
							M146.708,222.066c-2.658-0.133-3.734-4.39-4.93-9.97c-1.195-5.579,1.328-6.511,3.304-8.901
							c1.975-2.391,8.526-3.789,11.312-3.989c3.721-0.264,6.909,4.25,8.504,6.378s1.992,4.651,1.461,7.442
							c-0.531,2.79,0.303,7.043-3.303,9.567c-3.605,2.523-5.467,4.251-6.928,4.384c-1.461,0.134-1.86-3.058,0-5.448
							c1.861-2.39,3.273-5.886,3.407-6.949"/>
						<path fill="none" stroke="#000000" stroke-linecap="round" stroke-linejoin="round" stroke-miterlimit="10" d="
							M141.484,209.848c0,0-3.011,12.216,4.847,17.132"/>
						<path fill="none" stroke="#000000" stroke-linecap="round" stroke-linejoin="round" stroke-miterlimit="10" d="
							M140.929,215.792c0,0-0.87,11.687,4.153,15.972"/>
					</g>
					<g>
						
							<circle fill="#B0C7E1" stroke="#000000" stroke-linecap="round" stroke-linejoin="round" stroke-miterlimit="10" cx="154.181" cy="211.875" r="6"/>
						<g>
							<g>
								<path fill="#CCCCCC" stroke="#000000" stroke-linecap="round" stroke-linejoin="round" stroke-miterlimit="10" d="
									M133.256,407.544c-0.104,0-0.21-0.005-0.317-0.015c-1.854-0.174-3.217-1.816-3.044-3.67l10.286-110.401
									c0.172-1.855,1.811-3.214,3.67-3.045c1.854,0.174,3.217,1.816,3.044,3.671l-10.286,110.401
									C136.446,406.234,134.978,407.544,133.256,407.544z"/>
								<path fill="#CCCCCC" stroke="#000000" stroke-linecap="round" stroke-linejoin="round" stroke-miterlimit="10" d="
									M149.49,233.302c-0.104,0-0.21-0.004-0.317-0.015c-1.854-0.173-3.217-1.816-3.044-3.67l1.057-13.791
									c0.42-4.479,4.38-6.527,4.829-6.747c1.675-0.813,3.691-0.115,4.508,1.559c0.814,1.676,0.117,3.692-1.559,4.508
									c0,0,0,0,0.002,0c0.005,0-0.998,0.576-1.066,1.308l-1.057,13.79C152.682,231.993,151.212,233.302,149.49,233.302z"/>
								
									<rect x="142.297" y="229.793" transform="matrix(0.9957 0.0929 -0.0929 0.9957 24.9613 -12.4793)" fill="#B0C7E1" stroke="#000000" stroke-linecap="round" stroke-linejoin="round" stroke-miterlimit="10" width="8.43" height="64.116"/>
								
									<rect x="124.326" y="410.072" transform="matrix(0.9957 0.0927 -0.0927 0.9957 42.6964 -9.9557)" fill="#BBBBBB" stroke="#000000" stroke-linecap="round" stroke-linejoin="round" stroke-miterlimit="10" width="8.43" height="89.323"/>
								
									<rect x="127.91" y="404.159" transform="matrix(0.9957 0.0928 -0.0928 0.9957 38.3521 -10.5796)" fill="#B0C7E1" stroke="#000000" stroke-linecap="round" stroke-linejoin="round" stroke-miterlimit="10" width="10.116" height="6.119"/>
							</g>
							<path fill="#666666" stroke="#000000" stroke-linecap="round" stroke-linejoin="round" stroke-miterlimit="10" d="
								M118.658,498.653l-1.253,13.435c0,0,3.707,4.011,11.751,1.097l1.253-13.436L118.658,498.653z"/>
						</g>
						<path opacity="0.2" d="M137.721,410.734l0.567-6.093l-1.68-0.155l10.286-110.399l0.84,0.076l5.948-63.84l-0.84-0.079
							l1.057-13.79c0.068-0.731,1.071-1.308,1.066-1.308c-0.002,0-0.002,0-0.002,0c1.676-0.815,2.373-2.832,1.559-4.508
							c-0.11-0.229-0.247-0.433-0.398-0.623c-2.395,1.458-4.672,3.497-5.043,6.125c-0.762,5.383-23.359,256.196-26.766,298.076
							c1.395-0.073,2.998-0.365,4.841-1.032l1.253-13.436l-1.813-0.169l8.285-88.924L137.721,410.734z"/>
					</g>
					<g>
						<g>
							<g id="XMLID_30_">
								<g>
									<path fill="#E7D1C9" d="M314.671,211.87c0-3.305-2.681-5.985-6.002-5.985c-1.603,0-3.052,0.624-4.114,1.635
										c-0.033,0.052-0.085,0.086-0.118,0.119c-1.82,1.653-3.203,2.815-2.275,6.593c0.927,3.844-3.069,8.632-4.384,5.832
										c-1.332-2.781-4.923-9.964-3.86-12.088c1.062-2.123,4.383-8.361,6.643-9.829c2.259-1.466,12.223,1.197,12.223,1.197
										s2.395,2.259,3.996,2.529c1.584,0.253,5.311,1.331,5.445,5.968c0,0,1.197,1.603,0.927,4.924c0,0,0.657,5.579-2.394,8.902
										c-1.349,1.466-2.951,2.645-4.366,3.522l-0.118-1.433l-0.186-2.445l-0.422-5.479c-0.117-1.264-0.522-2.344-1.045-3.22
										C314.653,212.358,314.671,212.123,314.671,211.87z"/>
								</g>
							</g>
						</g>
						<g>
							<path fill="#DDBDB1" d="M302.161,214.231c-0.43-1.75-0.349-2.925,0.025-3.859c-1.457,0.574-3.418,0.721-5.702-0.356
								c-1.099-0.517-1.919-1.275-2.558-2.061c-0.002,0.007-0.007,0.015-0.01,0.021c-1.062,2.124,2.528,9.307,3.86,12.088
								C299.092,222.863,303.088,218.075,302.161,214.231z"/>
							<path fill="#DDBDB1" d="M322.224,207.84c-0.047-1.613-0.543-2.773-1.219-3.642c-1.587,2.632-2.573,8.926-2.756,11.45
								c-0.094,1.281-1.023,3.402-2.168,5.586l0.006,0.076l0.186,2.445l0.118,1.433c1.415-0.878,3.018-2.057,4.366-3.522
								c3.051-3.323,2.394-8.902,2.394-8.902C323.421,209.443,322.224,207.84,322.224,207.84z"/>
						</g>
					</g>
					<g>
						<g>
							<path fill="none" stroke="#000000" stroke-linecap="round" stroke-linejoin="round" stroke-miterlimit="10" d="
								M304.548,207.526c-1.871,1.706-3.324,2.844-2.394,6.697c0.931,3.855-3.056,8.637-4.385,5.846
								c-1.328-2.791-4.916-9.964-3.853-12.09c1.062-2.125,4.384-8.372,6.643-9.833c2.259-1.459,12.225,1.195,12.225,1.195
								s2.393,2.258,3.987,2.524c1.595,0.268,5.315,1.33,5.448,5.98c0,0,1.194,1.595,0.93,4.916c0,0,0.664,5.581-2.393,8.902
								c-3.055,3.32-7.439,5.18-7.971,5.446"/>
							<path fill="none" stroke="#000000" stroke-linecap="round" stroke-linejoin="round" stroke-miterlimit="10" d="
								M320.093,205.583c0,0-1.328,8.639-2.391,12.226c-1.063,3.589-3.989,7.045-5.715,7.31"/>
							<path fill="none" stroke="#000000" stroke-linecap="round" stroke-linejoin="round" stroke-miterlimit="10" d="
								M321.435,212.41c0,0,0.652,8.723-8.915,14.037"/>
						</g>
						<path fill="none" stroke="#000000" stroke-linecap="round" stroke-linejoin="round" stroke-miterlimit="10" d="
							M311.641,204.463c0,0,1.97,3.421,2.441,4.813"/>
					</g>
					<g>
						
							<circle fill="#B0C7E1" stroke="#000000" stroke-linecap="round" stroke-linejoin="round" stroke-miterlimit="10" cx="308.677" cy="211.875" r="6"/>
						<g>
							<g>
								<path fill="#CCCCCC" stroke="#000000" stroke-linecap="round" stroke-linejoin="round" stroke-miterlimit="10" d="
									M329.603,407.544c0.104,0,0.211-0.005,0.316-0.015c1.854-0.174,3.217-1.816,3.044-3.67l-10.286-110.401
									c-0.172-1.855-1.81-3.214-3.67-3.045c-1.854,0.174-3.217,1.816-3.044,3.671l10.286,110.401
									C326.411,406.234,327.881,407.544,329.603,407.544z"/>
								<path fill="#CCCCCC" stroke="#000000" stroke-linecap="round" stroke-linejoin="round" stroke-miterlimit="10" d="
									M313.367,233.302c0.104,0,0.211-0.004,0.317-0.015c1.854-0.173,3.217-1.816,3.044-3.67l-1.056-13.791
									c-0.42-4.479-4.38-6.527-4.83-6.747c-1.674-0.813-3.691-0.115-4.507,1.559c-0.814,1.676-0.117,3.692,1.558,4.508
									c0,0,0,0-0.002,0c-0.004,0,0.997,0.576,1.066,1.308l1.057,13.79C310.177,231.993,311.646,233.302,313.367,233.302z"/>
								
									<rect x="312.131" y="229.793" transform="matrix(-0.9957 0.0929 -0.0929 -0.9957 655.6508 493.1791)" fill="#B0C7E1" stroke="#000000" stroke-linecap="round" stroke-linejoin="round" stroke-miterlimit="10" width="8.43" height="64.116"/>
								
									<rect x="330.101" y="410.072" transform="matrix(-0.9957 0.0927 -0.0927 -0.9957 709.3327 876.5294)" fill="#BBBBBB" stroke="#000000" stroke-linecap="round" stroke-linejoin="round" stroke-miterlimit="10" width="8.431" height="89.323"/>
								
									<rect x="324.832" y="404.159" transform="matrix(-0.9957 0.0928 -0.0928 -0.9957 696.1362 782.0756)" fill="#B0C7E1" stroke="#000000" stroke-linecap="round" stroke-linejoin="round" stroke-miterlimit="10" width="10.116" height="6.119"/>
							</g>
							<path fill="#666666" stroke="#000000" stroke-linecap="round" stroke-linejoin="round" stroke-miterlimit="10" d="
								M344.199,498.653l1.253,13.435c0,0-3.706,4.011-11.75,1.097l-1.254-13.436L344.199,498.653z"/>
						</g>
						<path opacity="0.2" d="M325.138,410.734l-0.568-6.093l1.68-0.155l-10.286-110.399l-0.84,0.076l-5.948-63.84l0.84-0.079
							l-1.057-13.79c-0.069-0.731-1.07-1.308-1.066-1.308c0.002,0,0.002,0,0.002,0c-1.675-0.815-2.372-2.832-1.558-4.508
							c0.11-0.229,0.247-0.433,0.397-0.623c2.395,1.458,4.672,3.497,5.044,6.125c0.761,5.383,23.358,256.196,26.766,298.076
							c-1.396-0.073-2.999-0.365-4.841-1.032l-1.254-13.436l1.814-0.169l-8.286-88.924L325.138,410.734z"/>
					</g>
					<g>
						<path fill="#B0C7E1" d="M314.066,266.502c-0.294,0-0.594-0.037-0.891-0.117c-0.178-0.051-17.925-4.864-29.114-4.864H178.185
							c-11.188,0-28.936,4.813-29.114,4.864c-1.793,0.491-2.067-0.779-2.558-2.576c-0.492-1.797-1.017-3.439,0.779-3.931
							c0.762-0.208,18.794-5.101,30.893-5.101h105.877c12.098,0,30.131,4.893,30.893,5.101c1.796,0.491,2.282,2.171,1.791,3.967
							C316.336,265.343,315.55,266.502,314.066,266.502z"/>
						<path fill="none" stroke="#000000" stroke-linecap="round" stroke-linejoin="round" stroke-miterlimit="10" d="
							M316.745,263.845c-0.409,1.498-1.195,2.657-2.679,2.657c-0.294,0-0.594-0.037-0.891-0.117
							c-0.178-0.051-17.925-4.864-29.114-4.864H178.185c-11.188,0-28.936,4.813-29.114,4.864c-1.793,0.491-2.067-0.779-2.558-2.576"
							/>
						<path fill="none" stroke="#000000" stroke-linecap="round" stroke-linejoin="round" stroke-miterlimit="10" d="
							M147.292,259.878c0.762-0.208,18.794-5.101,30.893-5.101h105.877c12.098,0,30.131,4.893,30.893,5.101"/>
						<path opacity="0.2" d="M314.954,263.002c-0.762-0.209-18.795-5.102-30.893-5.102H178.185c-12.099,0-30.131,4.893-30.893,5.102
							c-0.4,0.108-0.669,0.284-0.865,0.496c0.029,0.103,0.057,0.206,0.086,0.311c0.49,1.797,0.765,3.067,2.558,2.576
							c0.179-0.051,17.926-4.864,29.114-4.864h105.877c11.189,0,28.937,4.813,29.114,4.864c0.297,0.08,0.597,0.117,0.891,0.117
							c1.327,0,2.095-0.931,2.536-2.201C316.294,263.694,315.764,263.225,314.954,263.002z"/>
					</g>
					<g>
						<path fill="#CCCCCC" stroke="#000000" stroke-linecap="round" stroke-linejoin="round" stroke-miterlimit="10" d="
							M311.369,221.6H151.488c-1.397,0-1.292-1.133-1.292-2.529c0-1.396-0.105-2.529,1.292-2.529h159.881
							c1.397,0,1.293,1.134,1.293,2.529C312.662,220.467,312.767,221.6,311.369,221.6z"/>
						<path opacity="0.2" d="M311.369,219.071H151.488c-0.934,0-1.192,0.512-1.264,1.266c0.071,0.752,0.33,1.264,1.264,1.264
							h159.881c0.935,0,1.192-0.512,1.265-1.264C312.562,219.583,312.304,219.071,311.369,219.071z"/>
					</g>
				</g>
				<g>
					<path d="M316.012,406.485c-0.44,0-0.811-0.342-0.841-0.788l-0.027-0.42c-0.031-0.464,0.32-0.866,0.785-0.897
						c0.455-0.023,0.867,0.321,0.896,0.785l0.028,0.42c0.03,0.465-0.321,0.866-0.785,0.897
						C316.05,406.485,316.03,406.485,316.012,406.485z"/>
					<path d="M319.14,454.074c-0.441,0-0.811-0.343-0.841-0.787l-0.058-0.866c-0.029-0.466,0.322-0.866,0.787-0.896
						c0.451-0.033,0.865,0.323,0.896,0.785l0.057,0.866c0.03,0.466-0.322,0.866-0.787,0.896
						C319.177,454.074,319.158,454.074,319.14,454.074z M318.513,444.555c-0.439,0-0.811-0.342-0.84-0.786l-0.057-0.866
						c-0.031-0.466,0.322-0.866,0.786-0.897c0.458-0.022,0.864,0.323,0.896,0.786l0.058,0.865c0.03,0.467-0.321,0.866-0.786,0.897
						C318.55,444.555,318.532,444.555,318.513,444.555z M317.888,435.038c-0.44,0-0.811-0.342-0.841-0.787l-0.056-0.865
						c-0.031-0.465,0.32-0.865,0.785-0.896c0.465-0.053,0.865,0.32,0.896,0.785l0.057,0.864c0.031,0.466-0.321,0.865-0.785,0.896
						C317.925,435.038,317.907,435.038,317.888,435.038z M317.263,425.52c-0.441,0-0.812-0.343-0.841-0.787l-0.058-0.864
						c-0.029-0.466,0.322-0.866,0.787-0.897c0.451-0.041,0.865,0.321,0.896,0.785l0.057,0.864c0.03,0.466-0.322,0.866-0.787,0.898
						C317.299,425.52,317.28,425.52,317.263,425.52z M316.637,416.003c-0.44,0-0.812-0.342-0.841-0.787l-0.057-0.865
						c-0.031-0.466,0.322-0.866,0.786-0.898c0.483-0.04,0.865,0.323,0.896,0.785l0.057,0.866c0.03,0.467-0.321,0.866-0.786,0.898
						C316.674,416.003,316.655,416.003,316.637,416.003z"/>
					<path d="M319.735,463.146c-0.441,0-0.812-0.342-0.841-0.788l-0.028-0.42c-0.03-0.464,0.321-0.865,0.785-0.896
						c0.467-0.045,0.866,0.318,0.897,0.785l0.028,0.42c0.03,0.464-0.32,0.866-0.785,0.896
						C319.772,463.146,319.754,463.146,319.735,463.146z"/>
				</g>
				<g>
					<path d="M144.444,406.485c0.44,0,0.811-0.342,0.84-0.788l0.028-0.42c0.03-0.464-0.321-0.866-0.785-0.897
						c-0.455-0.023-0.867,0.321-0.897,0.785l-0.028,0.42c-0.03,0.465,0.321,0.866,0.786,0.897
						C144.406,406.485,144.425,406.485,144.444,406.485z"/>
					<path d="M141.261,454.072c-0.465-0.03-0.816-0.431-0.787-0.896l0.058-0.866c0.03-0.462,0.444-0.818,0.897-0.785
						c0.464,0.03,0.816,0.431,0.785,0.896l-0.057,0.866c-0.029,0.444-0.4,0.787-0.841,0.787
						C141.298,454.074,141.28,454.074,141.261,454.072z M141.886,444.554c-0.464-0.031-0.816-0.431-0.785-0.897l0.057-0.865
						c0.031-0.463,0.438-0.809,0.896-0.786c0.464,0.031,0.816,0.432,0.786,0.897l-0.058,0.866c-0.029,0.444-0.399,0.786-0.84,0.786
						C141.924,444.555,141.905,444.555,141.886,444.554z M142.513,435.036c-0.465-0.031-0.817-0.431-0.787-0.896l0.057-0.864
						c0.031-0.465,0.432-0.838,0.896-0.785c0.465,0.03,0.816,0.431,0.786,0.896l-0.057,0.865c-0.03,0.445-0.399,0.787-0.84,0.787
						C142.549,435.038,142.53,435.038,142.513,435.036z M143.138,425.519c-0.464-0.032-0.816-0.433-0.786-0.898l0.057-0.864
						c0.03-0.464,0.445-0.826,0.896-0.785c0.464,0.031,0.817,0.432,0.786,0.897l-0.057,0.864c-0.029,0.444-0.4,0.787-0.841,0.787
						C143.175,425.52,143.157,425.52,143.138,425.519z M143.763,416.002c-0.464-0.032-0.816-0.432-0.785-0.898l0.057-0.866
						c0.031-0.462,0.412-0.825,0.896-0.785c0.464,0.032,0.816,0.433,0.785,0.898l-0.056,0.865c-0.03,0.445-0.4,0.787-0.841,0.787
						C143.8,416.003,143.782,416.003,143.763,416.002z"/>
					<path d="M140.721,463.146c0.44,0,0.811-0.342,0.841-0.788l0.027-0.42c0.031-0.464-0.32-0.865-0.785-0.896
						c-0.467-0.045-0.866,0.318-0.897,0.785l-0.027,0.42c-0.031,0.464,0.321,0.866,0.785,0.896
						C140.683,463.146,140.702,463.146,140.721,463.146z"/>
				</g>
			</g>
		</g>
		<path fill="#0160BA" d="M81.354,195.946c-2.391,4.129-13.421,18.123-13.421,18.123l-8.343,0.852l-3.455-7.772
			c0,0,8.182-14.878,12.898-18.873l8.034,2.481"/>
		<g>
			<g>
				<g id="XMLID_28_">
					<g>
						<path fill="#CB9A80" d="M142.401,239.631c-2.73-1.485-4.821-2.631-4.821-2.631
							C139.148,238.079,140.783,238.941,142.401,239.631z M154.996,238.113c3.237,0.995,5.479,1.838,5.766,2.529
							c0.271,0.709,0.271,3.524-3.237,2.681c-2.765-0.675-8.885-0.979-15.072-3.675c4.52,2.462,10.757,5.817,11.987,6.339
							c1.956,0.843,2.528,2.242,0.979,2.815c-1.552,0.557-13.606-1.13-22.323-6.728c0.221,0.404,3.963,6.913,5.75,8.262
							c1.82,1.416,4.771,6.322,2.95,7.031c-1.837,0.707-16.017-11.246-18.696-14.467c-2.664-3.236-8.7-9.559-11.802-10.402
							c-0.186-0.05-0.522-0.151-0.979-0.303c-7.098-2.344-44.829-16.303-60.694-29.909c-3.321-2.85-5.9-5.26-8.041-7.419
							c-2.125-2.174-3.794-4.128-5.328-6.068c-1.433-1.853-2.748-3.691-4.147-5.749c8.497-4.029,18.731-7.351,28.763-6.827
							c1.854,4.063,3.27,7.484,3.928,9.492c0,0,16.657,9.912,23.604,14.971c4.198,3.068,12.426,7.975,20.096,11.885
							c4.99,2.547,9.729,4.687,12.982,5.598c0,0,10.756-2.95,16.101-2.814c5.327,0.151,6.593-1.113,8.43-1.821
							c1.821-0.708,3.372-2.394,4.485-1.266c1.129,1.131-1.265,8.853-10.387,9.695c0,0,4.064,2.815,7.166,3.929
							c3.086,1.129,8.144,3.658,10.25,5.058c2.107,1.415,4.215,2.815,3.372,4.079s-1.686,1.686-3.793,0.978
							c-2.04-0.675-15.427-4.922-16.269-5.176C141.475,231.202,151.86,237.168,154.996,238.113z"/>
					</g>
				</g>
			</g>
			<path fill="#C18362" d="M53.598,200.25c-1.531-3.981-10.411-6.737-11.942-10.411c-1.115-2.677,11.878-9.888,19.036-13.618
				c-9.975-0.475-20.137,2.825-28.584,6.829c1.399,2.058,2.715,3.896,4.147,5.749c1.534,1.94,3.203,3.895,5.328,6.068
				c2.141,2.159,4.72,4.569,8.041,7.419c15.865,13.606,53.597,27.565,60.694,29.909c0.456,0.151,0.793,0.253,0.979,0.303
				c0.751,0.204,1.679,0.735,2.685,1.463c0.067-0.112,0.067-0.223-0.059-0.332C111.474,231.485,55.129,204.232,53.598,200.25z"/>
			<g>
				<path fill="none" stroke="#000000" stroke-linecap="round" stroke-linejoin="round" stroke-miterlimit="10" d="M59.921,174.17
					c2.302,4.967,4.111,9.199,4.871,11.545c0,0,16.648,9.903,23.604,14.963c6.954,5.057,24.867,15.172,33.086,17.49
					c0,0,10.748-2.952,16.087-2.811s6.603-1.122,8.431-1.825c1.826-0.703,3.371-2.39,4.496-1.266
					c1.123,1.126-1.266,8.853-10.397,9.695c0,0,4.073,2.809,7.165,3.933c3.091,1.125,8.148,3.652,10.256,5.058
					c2.108,1.407,4.215,2.812,3.373,4.075c-0.844,1.264-1.687,1.684-3.795,0.983c-2.106-0.701-16.297-5.198-16.297-5.198
					s10.959,6.32,14.19,7.306c3.231,0.984,5.479,1.825,5.76,2.528c0.282,0.704,0.282,3.514-3.231,2.67
					c-3.512-0.842-12.363-1.122-19.95-6.321c0,0,14.892,8.148,16.86,8.991c1.967,0.843,2.528,2.249,0.982,2.811
					c-1.545,0.562-13.628-1.123-22.338-6.744c0,0,3.933,6.882,5.76,8.289c1.827,1.405,4.776,6.322,2.95,7.025
					c-1.825,0.702-16.016-11.239-18.685-14.472c-2.67-3.231-8.711-9.554-11.802-10.397c-3.091-0.843-44.782-15.725-61.679-30.206
					c-9.834-8.43-13.158-12.911-17.513-19.234"/>
				<path fill="none" stroke="#000000" stroke-linecap="round" stroke-linejoin="round" stroke-miterlimit="10" d="M30.089,184.042
					c8.859-4.449,19.945-8.382,30.776-7.812"/>
				<path fill="none" stroke="#000000" stroke-linecap="round" stroke-linejoin="round" stroke-miterlimit="10" d="M47.301,196.462
					c0,0,2.95,0.842,4.425,3.583"/>
			</g>
		</g>
	</g>
	<path fill="none" stroke="#000000" stroke-linecap="round" stroke-linejoin="round" stroke-miterlimit="10" d="M208.52,58.816
		c0,0,2.762,0.719,4.608-0.196"/>
</g>
</svg>
