<?xml version="1.0" encoding="utf-8"?>
<!-- Generator: Adobe Illustrator 22.0.0, SVG Export Plug-In . SVG Version: 6.00 Build 0)  -->
<svg version="1.1" id="Layer_1" xmlns="http://www.w3.org/2000/svg" xmlns:xlink="http://www.w3.org/1999/xlink" x="0px" y="0px"
	 width="213.971px" height="70.108px" viewBox="0 0 213.971 70.108" enable-background="new 0 0 213.971 70.108"
	 xml:space="preserve">
<g>
	
		<polygon fill="#909090" stroke="#000000" stroke-width="2" stroke-linecap="round" stroke-linejoin="round" stroke-miterlimit="10" points="
		144.178,50.073 210.056,50.073 212.971,52.985 210.061,55.902 144.178,55.897 141.27,52.988 	"/>
	
		<polygon fill="#DB3333" stroke="#000000" stroke-width="2" stroke-linecap="round" stroke-linejoin="round" stroke-miterlimit="10" points="
		177.107,50.085 177.095,55.911 144.159,55.867 141.249,52.951 144.165,50.045 	"/>
	<g>
		<g>
			<g>
				
					<polygon fill="#DB3333" stroke="#000000" stroke-width="2" stroke-linecap="round" stroke-linejoin="round" stroke-miterlimit="10" points="
					140.25,49.005 83.2,16.069 79.22,17.134 80.288,21.113 137.338,54.049 141.32,52.985 				"/>
				<polygon fill="#909090" stroke="#000000" stroke-width="1.9781" stroke-miterlimit="10" points="111.727,32.538 108.813,37.581 
					80.288,21.113 79.22,17.134 83.2,16.069 				"/>
			</g>
			
				<path fill="#DB3333" stroke="#000000" stroke-width="2" stroke-linecap="round" stroke-linejoin="round" stroke-miterlimit="10" d="
				M155.216,61.014c-4.451,7.714-14.317,10.358-22.032,5.904c-7.711-4.452-10.355-14.318-5.903-22.031
				c4.454-7.715,14.319-10.357,22.031-5.905C157.027,43.438,159.671,53.3,155.216,61.014z"/>
		</g>
		<g>
			<g>
				<g>
					
						<polygon fill="#909090" stroke="#000000" stroke-width="2" stroke-linecap="round" stroke-linejoin="round" stroke-miterlimit="10" points="
						46.723,32.555 49.626,37.603 21.079,54.032 17.101,52.965 18.176,48.986 					"/>
					
						<polygon fill="#909090" stroke="#000000" stroke-width="2" stroke-linecap="round" stroke-linejoin="round" stroke-miterlimit="10" points="
						18.201,49.008 75.255,16.067 79.233,17.134 78.17,21.112 21.113,54.052 17.137,52.983 					"/>
					
						<path fill="#909090" stroke="#000000" stroke-width="2" stroke-linecap="round" stroke-linejoin="round" stroke-miterlimit="10" d="
						M3.163,61.04C-1.29,53.323,1.352,43.462,9.07,39.007c7.709-4.453,17.577-1.81,22.031,5.904
						c4.455,7.715,1.808,17.581-5.903,22.034C17.481,71.399,7.617,68.756,3.163,61.04z"/>
				</g>
				
					<path fill="#909090" stroke="#000000" stroke-width="2" stroke-linecap="round" stroke-linejoin="round" stroke-miterlimit="10" d="
					M93.186,9.067c4.456,7.714,1.814,17.578-5.903,22.034c-7.711,4.452-17.579,1.809-22.03-5.908
					c-4.456-7.71-1.812-17.579,5.9-22.031C78.872-1.29,88.736,1.353,93.186,9.067z"/>
			</g>
		</g>
	</g>
</g>
</svg>
