<?xml version="1.0" encoding="utf-8"?>
<!-- Generator: Adobe Illustrator 16.0.0, SVG Export Plug-In . SVG Version: 6.00 Build 0)  -->
<!DOCTYPE svg PUBLIC "-//W3C//DTD SVG 1.1//EN" "http://www.w3.org/Graphics/SVG/1.1/DTD/svg11.dtd">
<svg version="1.1" id="Layer_1" xmlns="http://www.w3.org/2000/svg" xmlns:xlink="http://www.w3.org/1999/xlink" x="0px" y="0px"
	 width="467.422px" height="467.42px" viewBox="0 0 467.422 467.42" enable-background="new 0 0 467.422 467.42"
	 xml:space="preserve">
<g>
	<g>
		<g>
			<path fill="#222222" d="M107.601,91.97c0,0-3.95,2.226-3.411,8.748c0.538,6.529,8.435,21.035,9.911,33.068
				c1.477,12.027-17.567,36.836-27.893,46.233c3.25-5.551,3.801-28.802-0.362-58.354c-3.793-26.919,15.085-33.54,18.477-34.507
				c0.331-0.097,0.513-0.134,0.513-0.134L107.601,91.97z"/>
			<path fill="none" stroke="#000000" stroke-linecap="round" stroke-linejoin="round" stroke-miterlimit="10" d="M107.601,91.97
				c0,0-3.95,2.226-3.411,8.748c0.538,6.529,8.435,21.035,9.911,33.068c1.477,12.027-17.567,36.836-27.893,46.233
				c3.25-5.551,3.801-28.802-0.362-58.354c-3.793-26.919,15.085-33.54,18.477-34.507c0.331-0.097,0.513-0.134,0.513-0.134
				L107.601,91.97z"/>
			<path fill="#7FACCD" d="M110.293,92.26c-0.039,1.523-3.539,2.519-3.539,2.519s-3.5-7.324-3.301-7.952
				c0.201-0.621,3.513-1.939,3.513-1.939S110.333,90.734,110.293,92.26z"/>
			<path fill="none" stroke="#000000" stroke-linecap="round" stroke-linejoin="round" stroke-miterlimit="10" d="M110.293,92.26
				c-0.039,1.523-3.539,2.519-3.539,2.519s-3.5-7.324-3.301-7.952c0.201-0.621,3.513-1.939,3.513-1.939
				S110.333,90.734,110.293,92.26z"/>
			<g>
				<g id="XMLID_26_">
					<g>
						<path fill="#2483D2" d="M201.202,151.604c-1.479-2.005-3.311-3.837-5.334-5.475c-8.753-7.149-21.289-11.022-26.658-12.52
							c-1.655-0.457-4.261-1.128-7.361-1.866c4.526,24.616-2.623,52.277-2.623,52.277s-15.688-20.971-20.83-25.531
							c-5.142-4.543-18.275-24.88-18.275-24.88l-0.265-0.405c-5.706,3.575-11.762,8.434-16.674,13.471
							c-9.456,9.685-21.569,29.053-21.781,40.285c-0.229,11.234,2.642,22.89,4.402,28.385c0.353,1.092,0.793,3.045,1.285,5.511
							c0,0,2.008,29.124,1.127,32.029c-0.88,2.886-3.662,19.332-3.82,24.016c-0.141,4.702-0.141,39.036-1.162,43.579
							c-1.04,4.561-1.32,10.564-1.32,10.564s2.113,0.211,5.458,0.582c9.402,1.037,28.472,3.31,37.24,5.581
							c5.986,1.55,14.967,2.184,23.911,2.077c8.769-0.07,17.501-0.826,23.329-2.077c9.632-2.044,18.454-5.759,21.324-7.044
							c0.633-0.281,0.985-0.439,0.985-0.439s1.901-21.569,1.901-24.793c0-3.221,0-16.602,0-16.602l-1.901-20.496
							c0-7.607,3.099-37.135,4.243-51.097h0.018c0,0,0.141,2.658,4.385,4.26c0.916,0.353,2.658-0.282,4.824-1.515
							c7.817-4.489,21.182-16.989,20.707-19.755C227.754,196.206,209.126,162.311,201.202,151.604z"/>
						<path fill="#0160BA" d="M114.378,237.001c7.678-3.669,14.089,2.655,9.898,4.693c-7.483,4.631-29.019,9.323-30.78,8.213
							C93.497,249.907,102.213,242.777,114.378,237.001z"/>
						<path fill="#2483D2" d="M193.174,330.181v-0.018c-2.87,1.285-11.692,5-21.324,7.044c-5.828,1.251-14.561,2.007-23.329,2.077
							c-8.944,0.106-17.925-0.527-23.911-2.077c-8.769-2.271-27.838-4.544-37.24-5.581c0,0,3.222,15.881,7.694,29.773
							c0,0,2.905,21.165,5.916,34.582c0,0,0.552,15.245,1.192,30.315c13.202,9.033,27.378,16.742,42.341,22.941
							c-0.052-1.026-0.085-1.894-0.096-2.565c-0.07-3.504,0.229-8.381,0.617-13.205c0.598-7.325,1.408-14.492,1.585-16.428
							c0.035-0.475,0.105-2.483,0.192-5.564c0.124,0.933,3.628,16.023,4.932,18.91c0.755,1.684,1.897,12.93,3.093,22.846
							c10.88,3.91,22.135,7.03,33.697,9.3c0.398-7.473,0.951-20.169,0.344-23.923c-0.881-5.439,4.825-15.846,4.243-20.107
							c-0.581-4.261,0.158-31.835-0.44-36.975C192.1,376.384,194.969,343.826,193.174,330.181z"/>
						<path fill="#C18362" d="M272.354,200.748l-1.604,17.907c0,0-37.573,2.2-43.877,2.939c-6.304,0.723-19.245-2.113-19.245-2.113
							c7.817-4.489,21.182-16.989,20.707-19.755L272.354,200.748z"/>
						<path fill="#CB9A80" d="M161.849,131.743c4.526,24.616-2.623,52.277-2.623,52.277s-15.688-20.971-20.83-25.531
							c-5.142-4.543-18.275-24.88-18.275-24.88l-0.265-0.405c5.249-3.31,10.195-5.564,13.7-5.896
							C138.73,126.812,152.518,129.561,161.849,131.743z"/>
					</g>
				</g>
			</g>
			<g>
				<polygon fill="#CB9A80" points="230.849,201.876 227.97,212.431 270.504,211.151 271.143,202.836 				"/>
			</g>
			<g>
				<g>
					<path fill="#0160BA" d="M105.511,417.917c0-4.694,5.576-11.446,1.761-17.901c-3.816-6.458,3.228-16.435-1.467-20.544
						c-2.655-2.325-7.847-12.911-11.855-21.669c0.363,1.206,0.732,2.41,1.115,3.597c0,0,2.905,21.165,5.916,34.582
						c0,0,0.552,15.245,1.192,30.315c1.286,0.879,2.583,1.743,3.887,2.598C105.742,423.687,105.511,419.388,105.511,417.917z"/>
					<path fill="#0160BA" d="M145.034,433.468c0.054-0.664,0.11-1.324,0.167-1.98c-1.825,3.57-4.839,9.469-7.555,14.791
						c2.268,1.026,4.561,2.005,6.866,2.96c-0.052-1.026-0.085-1.894-0.096-2.565C144.347,443.169,144.646,438.292,145.034,433.468z"
						/>
					<path fill="#0160BA" d="M129.868,410.58c-3.521-0.882-3.521,17.902-7.631,22.595c-0.767,0.877-1.75,2.226-2.84,3.838
						c1.197,0.674,2.395,1.347,3.604,2c3.403-7.176,6.257-13.041,7.159-15.521C132.508,417.034,133.389,411.459,129.868,410.58z"/>
					<path fill="#0160BA" d="M193.174,330.163c-2.87,1.285-11.692,5-21.324,7.044c-5.828,1.251-14.561,2.007-23.329,2.077
						c-8.944,0.106-17.925-0.527-23.911-2.077c-8.769-2.271-27.838-4.544-37.24-5.581c0,0,0.409,2.008,1.126,5.185
						c7.882-0.715,20.675-1.546,27.286-0.184c9.979,2.056,30.227,13.793,31.988,15.847c0.115,0.136,0.329,0.185,0.62,0.169
						c-0.879,13.323-1.114,37.677-1.1,61.068c1.024,4.514,3.422,14.394,4.453,16.675c0.755,1.684,1.897,12.93,3.093,22.846
						c3.186,1.145,6.399,2.232,9.648,3.241c-0.217-6.046-1.006-13.924-1.455-16.84c-0.586-3.816,7.63-21.423,6.456-23.771
						s-9.684,9.39-11.151,5.281c-1.468-4.107-4.696-18.487-7.63-23.476c-2.182-3.71-1.931-31.265-1.657-45.155
						c5.303-1.445,24.699-15.088,35.698-18.232c3.888-1.111,6.719-0.992,8.781-0.312c-0.09-1.371-0.204-2.649-0.353-3.787V330.163z"
						/>
					<path fill="#0160BA" d="M185.625,409.993c-4.107,4.987-6.455,8.803-1.467,6.162c2.529-1.338,5.882-3.5,8.73-4.817
						c-0.028-4.859,0.029-11.269,0.041-16.972C190.729,400.28,187.838,407.307,185.625,409.993z"/>
					<path fill="#0160BA" d="M190.027,419.97c-4.695,0.294-5.577-1.175-4.402,2.64c0.934,3.034,1.685,11.8,3.425,17.781
						c-0.042-0.71-0.099-1.317-0.173-1.782c-0.837-5.168,4.258-14.806,4.274-19.411C192.143,419.623,191.079,419.905,190.027,419.97
						z"/>
				</g>
				<path fill="#3196DB" d="M139.551,398.546c-4.107-2.934-17.607-19.368-18.193-12.912c-0.74,8.143,2.347,14.085,7.043,18.195
					c4.696,4.109,7.043,10.565,4.109,17.606c-1.287,3.088-4.716,10.46-8.211,18.262c0.872,0.464,1.742,0.929,2.62,1.382
					c4.717-10.133,9.254-20.258,10.286-22.576C139.551,413.22,143.661,401.479,139.551,398.546z"/>
				<path fill="#3196DB" d="M168.312,398.546c-0.538,5.385-0.588,12.324,4.108,14.087c4.696,1.762,9.39,1.762,10.564-4.108
					c1.174-5.868-1.761-9.393-1.761-18.782S169.486,386.807,168.312,398.546z"/>
			</g>
			<g>
				<path fill="#0160BA" d="M102.284,302.585c-9.098-2.641-13.5-4.401-8.218-9.096c5.282-4.695,0-11.445-0.881-22.89
					c-0.88-11.445,6.457-15.26,14.086-16.142c7.629-0.881-17.021,11.15-5.576,9.685c7.778-0.998,17.178-9.581,22.405-14.98
					c-2.132-2.197-3.832-4.186-5.39-6.157c-5.724,3.543-16.396,6.347-21.894,6.975c-0.145,0.032-0.285,0.062-0.402,0.076
					c-0.173,0.024-0.328,0.016-0.487,0.016c-1.224,0.096-2.093,0.05-2.431-0.164c0,0,0.219-0.176,0.595-0.471
					c-2.128-1.732-2.339-6.549-3.254-9.064c-0.499-1.374-1.85-6.26-3.237-11.416c0.526,8.848,1.19,22.022,0.613,23.929
					c-0.88,2.886-3.662,19.332-3.82,24.016c-0.141,4.702-0.141,39.036-1.162,43.579c-1.04,4.561-1.32,10.564-1.32,10.564
					s1.604,0.162,4.226,0.447c5.724-8.54,5.879-25.74,9.103-25.972c4.108-0.294,30.52,13.501,44.898,16.142
					c14.381,2.641,4.402,10.271,6.75,10.563c2.347,0.295,10.563-3.815,10.576-8.218
					C157.477,319.603,111.379,305.226,102.284,302.585z M208.598,210.646c4.016-2.219,11.442-6.863,18.465-14.133
					c-0.498-1.077-1.126-2.361-1.862-3.815c-3.421,4.741-9.292,12-16.472,17.332c1.028-4.512,5.557-17.564,4.775-22.774
					c-0.88-5.869-2.348-19.073-3.228-13.498c-0.88,5.574-2.056,26.118-3.521,28.173c-1.105,1.545,0.947-31.343-6.863-51.947
					c-1.201-1.381-2.56-2.669-4.023-3.854c-1.697-1.389-3.541-2.647-5.442-3.794c2.966,11.127,8.533,31.835,9.592,34.501
					c1.454,3.669,0.28,20.691-0.307,27.439c-0.257,2.958-0.514,8.565-0.722,13.932c0.554,0.875,1.643,1.97,3.815,2.789
					c0.916,0.353,2.658-0.282,4.824-1.515c1.218-0.699,2.577-1.607,3.989-2.63c-1.541-2.079-3.104-4.085-3.104-5.532
					C208.515,211.159,208.548,210.923,208.598,210.646z M156.279,241.546c-1.168,0.088-2.271,0.414-3.331,0.905
					c3.461,2.101,8.41,5.142,12.867,8.011c10.261-16.263,18.532-36.332,18.636-58.512
					C184.455,191.022,171.833,240.374,156.279,241.546z M151.799,269.39c-4.41-2.33-8.612-4.761-12.321-7.229
					c-4.52,11.435-7.993,24.264-12.251,28.979C123.194,295.605,136.831,286.846,151.799,269.39z M92.892,171.702
					c0,0,13.54-24.985,30.071-33.775c-1.716-2.573-2.842-4.317-2.842-4.317l-0.265-0.405c-5.706,3.575-11.762,8.434-16.674,13.471
					c-9.456,9.685-21.569,29.053-21.781,40.285c-0.022,1.09-0.007,2.182,0.025,3.271C83.549,184.471,87.533,175.529,92.892,171.702z
					 M116.663,175.812c-2.935-3.814-8.217-14.379-12.032-15.555c-3.815-1.175-2.347,4.697,0.88,7.631
					c3.229,2.936,3.815,9.685-0.587,6.164c-4.401-3.521-9.391-0.295-1.173,3.521c8.217,3.816,28.759,28.759,28.759,28.759
					c-4.109-15.847-5.576-30.227-9.391-32.279C119.304,171.997,119.598,179.625,116.663,175.812z"/>
				<path fill="#3196DB" d="M186.506,173.168c0,0,0.69,26.976-16.433,48.13C170.073,221.298,171.246,196.059,186.506,173.168z"/>
				<path fill="#3196DB" d="M192.375,148.519c0,0,13.5,34.042,2.349,69.257L192.375,148.519z"/>
			</g>
			<g>
				<path fill="none" stroke="#000000" stroke-linecap="round" stroke-linejoin="round" stroke-miterlimit="10" d="M144.417,229.87
					c-14.874,13.691-49.166,21.139-50.927,20.037c-1.761-1.1-5.942-29.052-7.703-34.554c-1.761-5.504-4.622-17.167-4.402-28.394
					c0.22-11.225,12.326-30.593,21.789-40.276c9.465-9.685,23.091-18.671,30.374-19.368c6.896-0.661,29.053,4.433,35.656,6.287
					c6.602,1.855,24.062,7.287,31.986,17.997c7.923,10.711,26.559,44.606,27.146,48.127c0.586,3.521-21.275,22.888-25.531,21.274
					s-4.396-4.267-4.396-4.267"/>
				<path fill="none" stroke="#000000" stroke-linecap="round" stroke-linejoin="round" stroke-miterlimit="10" d="M102.294,171.555
					c0,0,17.828,15.187,23.331,22.668c4.325,5.884,14.363,25.639,19.743,37.777"/>
				<path fill="none" stroke="#000000" stroke-linecap="round" stroke-linejoin="round" stroke-miterlimit="10" d="M93.49,249.907
					c0,0,26.104-21.335,50.923-20.03"/>
				<path fill="none" stroke="#000000" stroke-linecap="round" stroke-linejoin="round" stroke-miterlimit="10" d="M120.109,133.603
					c0,0,13.145,20.342,18.281,24.893c5.135,4.55,20.836,25.531,20.836,25.531s7.139-27.664,2.615-52.274"/>
				<path fill="none" stroke="#000000" stroke-linecap="round" stroke-linejoin="round" stroke-miterlimit="10" d="M194.146,148.519
					c0,0,3.963,23.476,5.871,28.317c1.906,4.843-1.027,26.558-1.176,33.454c-0.146,6.898-4.695,48.313-4.695,57.538l1.908,20.495
					c0,0,0,13.379,0,16.607c0,3.229-1.908,24.799-1.908,24.799s-10.563,4.987-22.302,7.482c-11.739,2.495-35.361,3.081-47.247,0
					c-11.885-3.081-42.698-6.163-42.698-6.163s0.292-6.016,1.321-10.563c1.027-4.549,1.026-38.883,1.173-43.579
					c0.147-4.696,2.934-21.128,3.815-24.026c0.88-2.898-1.135-32.03-1.135-32.03"/>
				<path fill="none" stroke="#000000" stroke-linecap="round" stroke-linejoin="round" stroke-miterlimit="10" d="M180.355,205.889
					c0,0-12.913,37.563-20.396,33.455"/>
				<path fill="none" stroke="#000000" stroke-linecap="round" stroke-linejoin="round" stroke-miterlimit="10" d="M109.044,165.683
					c0,0,13.561,19.356,18.152,30.881"/>
				<path fill="none" stroke="#000000" stroke-linecap="round" stroke-linejoin="round" stroke-miterlimit="10" d="M88.355,299.942
					c0,0,15.846,1.172,28.466,6.163c12.62,4.99,39.911,15.26,40.644,17.901c0.733,2.641-3.229,5.721-3.668,5.868"/>
				<path fill="none" stroke="#000000" stroke-linecap="round" stroke-linejoin="round" stroke-miterlimit="10" d="M169.938,328.113
					c0,0-3.669-4.548,2.787-9.829c6.457-5.283,19.955-19.224,19.955-19.224"/>
				<path fill="none" stroke="#000000" stroke-linecap="round" stroke-linejoin="round" stroke-miterlimit="10" d="M104.495,263.407
					c0,0,14.032-6.409,19.781-14.062"/>
				<path fill="none" stroke="#000000" stroke-linecap="round" stroke-linejoin="round" stroke-miterlimit="10" d="M133.254,161.283
					c0,0,8.365,26.851,9.832,36.977"/>
				<path fill="none" stroke="#000000" stroke-linecap="round" stroke-linejoin="round" stroke-miterlimit="10" d="M207.63,219.477
					c0,0,12.928,2.848,19.238,2.112c6.31-0.733,43.872-2.934,43.872-2.934l1.614-17.902l-44.019-1.026"/>
				<path fill="none" stroke="#000000" stroke-linecap="round" stroke-linejoin="round" stroke-miterlimit="10" d="M87.36,331.628
					c0,0,6.571,32.289,13.907,45.056"/>
				<path fill="none" stroke="#000000" stroke-linecap="round" stroke-linejoin="round" stroke-miterlimit="10" d="M95.052,361.394
					c0,0,4.895,35.683,8.563,43.753"/>
				<path fill="none" stroke="#000000" stroke-linecap="round" stroke-linejoin="round" stroke-miterlimit="10" d="M100.968,395.986
					c0,0,0.554,15.244,1.196,30.311"/>
				<path fill="none" stroke="#000000" stroke-linecap="round" stroke-linejoin="round" stroke-miterlimit="10" d="M144.503,449.238
					c-0.052-1.027-0.085-1.894-0.097-2.565c-0.147-8.803,1.908-26.412,2.201-29.641c0.293-3.227,1.906-77.723,1.906-77.723"/>
				<path fill="none" stroke="#000000" stroke-linecap="round" stroke-linejoin="round" stroke-miterlimit="10" d="M186.169,462.056
					c-0.711-2.116-1.179-3.496-1.179-3.496"/>
				<path fill="none" stroke="#000000" stroke-linecap="round" stroke-linejoin="round" stroke-miterlimit="10" d="M146.812,411.442
					c-0.013,0.438,3.609,16.011,4.931,18.943c0.755,1.68,1.896,12.929,3.091,22.846"/>
				<path fill="none" stroke="#000000" stroke-linecap="round" stroke-linejoin="round" stroke-miterlimit="10" d="M188.528,462.531
					c0.396-7.471,0.947-20.174,0.337-23.93c-0.88-5.428,4.838-15.845,4.252-20.101c-0.584-4.256,0.15-31.84-0.438-36.975
					c-0.587-5.137,2.281-37.697,0.479-51.351"/>
				<path fill="none" stroke="#000000" stroke-linecap="round" stroke-linejoin="round" stroke-miterlimit="10" d="M131.494,415.86
					c0,0,1.319,4.254-1.028,8.95c-0.959,1.92-4.08,7.635-7.532,14.168"/>
				<path fill="none" stroke="#000000" stroke-linecap="round" stroke-linejoin="round" stroke-miterlimit="10" d="M145.025,433.472
					c0,0-3.412,7.578-6.679,13.122"/>
				<path fill="none" stroke="#000000" stroke-linecap="round" stroke-linejoin="round" stroke-miterlimit="10" d="M169.965,413.071
					c0,0-1.349,11.885-5.897,17.901"/>
			</g>
			<g>
				<path fill="#CB9A80" d="M136.58,60.285c-11.688,5.782-16.872,18.13-20.179,27.108c-3.31,8.977,3.63,14.755,6.675,28.448
					c3.043,13.69,0.169,16.875,0.169,16.875l35.676,14.748l1.902-15.984c1.684-2.494,13.295,1.386,17.698-3.522
					c2.139-2.385,1.088-6.125,0.781-8.307c-0.305-2.182,2.998-1.494,3.374-3.053c0.377-1.554-7.945-4.571-7.945-4.571l0.398-0.659
					c0,0,7.882,1.977,8.396,0.419c-0.274-0.768,0.146-3.862,0.146-3.862s6.922-2.08,5.347-4.521
					c-1.107-1.721-5.448-6.875-6.777-12.98c-0.552-2.547,0.651-4.915,0.86-7.823c0.707-9.876-5.767-22.48-5.767-22.48
					S148.266,54.505,136.58,60.285z"/>
				<path fill="#C18362" d="M178.171,86.595c-2.136-0.014-7.868,2.829-8.912,4.229c-1.044,1.403,8.47,3.02,8.47,3.02s0,0,1.711-1.52
					c1.712-1.519,1.641-3.921,1.641-3.921C180.701,87.072,179.674,86.601,178.171,86.595z"/>
				<path fill="#C18362" d="M160.449,134.616l0.374-3.136c1.684-2.494,13.295,1.386,17.696-3.522
					c1.218-1.355,1.402-3.155,1.279-4.853c-0.002,0-1.902,7.317-13.116,3.124s-18.128-17.259-18.128-17.259l-10.007-23.151
					l-13.991,2.658l-3.782,12.625c0,0,13.507,6.878,14.112,17.646C135.16,123.607,152.602,134.106,160.449,134.616z"/>
				<path fill="#C18362" d="M127.174,100.62l33.649,30.86c0,0-2.516,21.837-2.802,26.265c-0.285,4.428-3,7.568-3.571,0.429
					c-0.571-7.141-7.567-8.998-15.423-11.567c-2.833-0.928-6.018-0.852-8.719-1.012c0,0-4.527-2.768-5.688-8.162
					c-0.123-0.573,0.334-1.174,0.554-1.823c4.569-13.567-2.286-27.991-2.286-27.991"/>
				<path fill="#C18362" d="M183.482,111.615c-0.179-0.979,0.189-3.69,0.189-3.69s6.922-2.08,5.347-4.521
					c0,0-2.038,1.258-6.595,1.878C178.228,105.849,181.946,109.461,183.482,111.615z"/>
				<path fill="none" stroke="#000000" stroke-linecap="round" stroke-linejoin="round" stroke-miterlimit="10" d="M158.921,147.465
					l1.902-15.984c1.684-2.494,13.295,1.386,17.698-3.522c2.139-2.385,1.088-6.125,0.781-8.307
					c-0.305-2.182,2.998-1.494,3.374-3.053c0.377-1.554-7.945-4.571-7.945-4.571l0.398-0.659c0,0,7.982,1.977,8.396,0.419
					c-0.274-0.768,0.146-3.862,0.146-3.862s6.922-2.08,5.347-4.521c-1.107-1.721-5.448-6.875-6.777-12.98
					c-0.552-2.547,0.651-4.915,0.86-7.823c0.707-9.876-5.767-22.48-5.767-22.48s-29.069-5.614-40.755,0.166
					c-11.688,5.782-16.872,18.13-20.179,27.108c-3.31,8.977,3.63,14.755,6.675,28.448c3.043,13.69,0.169,16.875,0.169,16.875"/>
				<path fill="#222222" d="M105.25,85.08c0,0,1.158,2.413,3.514,6.378c-4.086,12.883,13.906,22.694,13.906,22.694
					s4.195-2.603,5.202-9.034c1.007-6.434,3.281-8.402,8.92-13.504c-2.905,8.391-0.019,17.211,3.704,18.326
					c-7.488-18.01,8.035-21.665,8.035-21.665c23.806-5.45,28.259-20.237,30.127-25.294c1.869-5.055,1.21-9.051-13.139-13.955
					c-14.346-4.898-30.394-1.593-30.394-1.593C104.878,55.093,105.25,85.08,105.25,85.08z"/>
				<path fill="none" stroke="#000000" stroke-linecap="round" stroke-linejoin="round" stroke-miterlimit="10" d="M105.25,85.08
					c0,0,1.158,2.413,3.514,6.378c-4.086,12.883,13.906,22.694,13.906,22.694s4.195-2.603,5.202-9.034
					c1.007-6.434,3.281-8.402,8.92-13.504c-2.905,8.391-0.019,17.211,3.704,18.326c-7.488-18.01,8.035-21.665,8.035-21.665
					c23.806-5.45,28.259-20.237,30.127-25.294c1.869-5.055,1.21-9.051-13.139-13.955c-14.346-4.898-30.394-1.593-30.394-1.593
					C104.878,55.093,105.25,85.08,105.25,85.08z"/>
				<path fill="none" stroke="#000000" stroke-linecap="round" stroke-linejoin="round" stroke-miterlimit="10" d="M181.958,106.821
					c1.082-1.814,3.801-1.08,3.801-1.08"/>
				<path fill="none" stroke="#000000" stroke-linecap="round" stroke-linejoin="round" stroke-miterlimit="10" d="M174.383,113.111
					c0.071-0.994,1.066-2.169,1.066-2.169"/>
				<path fill="#444444" stroke="#000000" stroke-linecap="round" stroke-linejoin="round" stroke-miterlimit="10" d="
					M181.08,88.402c-3.535-3.524-10.51,1.428-10.51,1.428s4.049-3.632,6.907-4.034c2.436-0.344,4.109,1.834,4.109,1.834
					S181.053,88.306,181.08,88.402z"/>
				<path fill="#CB9A80" d="M151.182,106.671c0,0-0.514,1.825-2.627,2.3c-2.11,0.474-5.561-2.393-7.753-5.923
					c-2.19-3.534-3.635-12.658,0.283-15.129c3.919-2.467,7.766,2.712,7.766,2.712"/>
				<path fill="none" stroke="#000000" stroke-linecap="round" stroke-linejoin="round" stroke-miterlimit="10" d="M151.182,106.671
					c0,0-0.514,1.825-2.627,2.3c-2.11,0.474-5.561-2.393-7.753-5.923c-2.19-3.534-3.635-12.658,0.283-15.129
					c3.919-2.467,7.766,2.712,7.766,2.712"/>
				<path fill="none" stroke="#000000" stroke-linecap="round" stroke-linejoin="round" stroke-miterlimit="10" d="M144.716,102.772
					c0.5-1.072,1.575-0.871,3.22,0.143c1.647,1.018,1.693-0.903,0.484-2.172c-1.207-1.267-2.337-2.853-1.36-4.189
					c0.976-1.336,1.165-4.994-2.425-5.841c-3.588-0.841-3.617,3.786-3.617,3.786"/>
				<path fill="none" stroke="#000000" stroke-linecap="round" stroke-linejoin="round" stroke-miterlimit="10" d="M143.352,95.146
					c1.621-1.31,3.929,1.033,3.929,1.033"/>
				<g>
					<g>
						<path fill="#FFFFFF" d="M171.446,93.454c0.845,0.682,3.15,1.796,4.229,3.224c2.013-0.997,1.733-3.052,1.733-3.052l-5.84-0.9
							C171.568,92.726,170.909,93.015,171.446,93.454z"/>
						
							<line fill="none" stroke="#000000" stroke-linecap="round" stroke-linejoin="round" stroke-miterlimit="10" x1="180.341" y1="94.228" x2="170.998" y2="92.563"/>
						
							<line fill="none" stroke="#000000" stroke-linecap="round" stroke-linejoin="round" stroke-miterlimit="10" x1="177.569" y1="91.767" x2="177.544" y2="93.407"/>
						<path stroke="#000000" stroke-width="0.5" stroke-linecap="round" stroke-linejoin="round" stroke-miterlimit="10" d="
							M175.515,93.571l2.214,0.271l-0.374,1.114c-0.444,1.141-1.288,1.872-1.889,1.64c-0.601-0.235-0.729-1.347-0.285-2.485
							L175.515,93.571z"/>
					</g>
				</g>
			</g>
			<g>
				<g>
					<g id="XMLID_25_">
						<g>
							<path fill="#444444" d="M370.74,329.495c-2.254,1.566-5.265,2.924-8.628,4.05c-7.009,2.358-15.566,3.803-22.028,4.56
								c-5.881,0.688-15.494,3.451-22.025,5.493c1.002,0.969,4.56,3.733,4.858,6.233c0.3,2.501-0.581,17.607-0.581,22.15
								c0,4.561,4.104,29.65,3.662,32.434c-0.439,2.781-0.739,25.391,0.583,31.835c0.334,1.635,0.546,5.768,0.688,11.125
								c13.871-6.082,27.034-13.474,39.338-22.021c2.018-14.937,5.816-26.741,6.193-33.264c0.439-7.625,3.38-41.677,4.842-50.323
								c1.478-8.662,3.521-17.553,3.381-22.274C379.298,321.746,375.634,326.062,370.74,329.495z"/>
							<path fill="#444444" d="M326.581,436.25c-1.322-6.444-1.022-29.054-0.583-31.835c0.441-2.783-3.662-27.873-3.662-32.434
								c0-4.543,0.881-19.649,0.581-22.15c-0.299-2.5-3.856-5.265-4.858-6.233c-4.104,1.286-6.99,2.272-6.99,2.272l-0.547-7.624
								l-1.392-0.124l-1.654-0.158l-2.359,7.08c-22.327-1.499-37.979-10.267-42.875-13.365c0,0,3.17,26.023,11.233,43.015
								c0,0,2.201,16.516,2.642,29.423c0.44,12.924-0.44,39.476,3.223,53.702c0.389,1.513,0.768,2.977,1.138,4.408
								c16.281-3.314,31.938-8.337,46.793-14.852C327.127,442.018,326.915,437.885,326.581,436.25z"/>
							<path fill="#FFFFFF" d="M302.052,181.081c-1.585,4.436-3.433,9.104-4.982,13.539c0,0-2.993-6.567-6.338-12.467
								c-0.212-0.37-0.424-0.721-0.616-1.072C290.502,181.186,296.294,182.575,302.052,181.081z"/>
							<path fill="#E7D1C9" d="M321.351,147.29c0.545,5.143-0.423,12.767-5.688,16.798c-0.652,0.511-1.321,0.987-1.954,1.463
								c-4.525,3.292-8.54,6.038-10.125,11.021c-0.458,1.462-0.986,2.977-1.532,4.51c-5.758,1.494-11.55,0.104-11.937,0
								c-0.019,0-0.019,0-0.019,0c-1.813-3.136-3.698-5.935-5.247-7.292c-4.578-4.013-3.75-4.718-3.469-6.513
								c0.281-1.799-0.281-11.234-0.687-13.048c-0.423-1.796,4.858-11.938,23.312-14.016
								C322.46,138.135,320.787,142.167,321.351,147.29z"/>
							<path fill="#B0C7E1" d="M360.58,208.214c-0.193,0.951-1.374,6.848,0.035,10.283c0.669,1.637,1.268,3.714,1.443,5.896
								c0.072,0.897,0.072,1.799-0.034,2.695c-0.018,0.176-0.036,0.354-0.071,0.527c-0.247,1.709-0.862,3.364-2.024,4.755
								c-3.328,4.015-11.356,18.276-12.202,22.449c-2.078-14.491-4.843-38.454-4.454-53.28
								c0.422-16.534,14.385-23.541,14.385-23.541c-0.036,0.545-0.07,1.037-0.088,1.479c-0.281,6.268-1.673,11.815,0.547,16.112
								c1.654,3.202,3.855,8.345,2.499,12.483C360.615,208.073,360.598,208.124,360.58,208.214z"/>
							<path fill="#738AA5" d="M412.787,250.684c-0.264-1.392,1.25-5.282,2.218-9.861c0.986-4.577-1.515-10.194-1.515-10.194
								c0.318-3.521-0.915-7.097-1.972-9.42c-0.721-1.586-1.355-2.587-1.355-2.587c-1.531-5.971-6.533-5.971-9.859-7.767
								c-3.328-1.797-4.437-5.97-7.22-9.314c-2.766-3.346-21.094-33.42-27.063-41.465c-1.566-2.113-3.292-3.822-5.105-5.178
								c-5.09-3.873-10.934-5.195-16.251-6.215c-6.992-1.356-14.386-4.455-14.844-4.632c1.108,1.604,2.357,2.94,3.873,3.804
								c3.893,2.219,5.969,11.92,6.391,16.922c0,0-11.655-1.25-15.406-1.391c-1.901-0.07-4.437,1.179-6.796,2.799l-4.173-0.634
								c-4.525,3.292-8.54,6.038-10.125,11.021c-0.458,1.462-0.986,2.977-1.532,4.51c-1.585,4.436-3.433,9.104-4.982,13.539v0.193
								h1.25v8.135h-1.25c0,0-0.704,40.375,1.25,48.016c1.937,7.624,3.451,14.546,3.451,19.758c0,5.229,0.229,27.432,2.553,37.133
								c2.307,9.72,5.652,19.439,4.807,30.25v0.018l1.392,0.124l0.547,7.624c0,0,2.887-0.986,6.99-2.272
								c6.531-2.042,16.145-4.806,22.025-5.493c6.462-0.757,15.02-2.201,22.028-4.56c3.363-1.126,6.374-2.483,8.628-4.05
								c4.894-3.434,8.558-7.749,10.283-10.003c0.722-0.931,1.108-1.514,1.108-1.514s0.969-8.188,0-11.374
								c0,0,1.655-19.139,0-23.736c-1.672-4.576-8.47-16.938-9.032-22.342c-0.546-5.407-1.937-9.157-3.75-11.375
								c-1.797-2.22-2.905-6.656-2.905-9.298c0-2.587-5.424-4.489-4.491-12.237c-0.247,1.709-0.862,3.364-2.024,4.755
								c-3.328,4.015-11.356,18.276-12.202,22.449c-2.078-14.491-4.843-38.454-4.454-53.28
								c0.422-16.534,14.385-23.541,14.385-23.541c-0.036,0.545-0.07,1.037-0.088,1.479c-0.281,6.268-1.673,11.815,0.547,16.112
								c1.654,3.202,3.855,8.345,2.499,12.483c0,0-0.018,0.051-0.035,0.141c-0.193,0.951-1.374,6.848,0.035,10.283
								c0.669,1.637,1.268,3.714,1.443,5.896c0,0,1.198,4.632,3.558,6.023c2.358,1.391,2.641,10.828,8.592,12.625
								c2.853,0.861,3.961,1.285,4.35,1.829c0.053,0.071,0.105,0.141,0.123,0.229c0,0.02,0,0.02,0.019,0.036
								c0.211,0.562-0.105,1.319-0.036,2.764c0.141,3.188,1.25,6.462,7.906,6.393c0,0,0.722,2.534,3.68,4.277
								c6.162,3.61,24.81,12.238,26.288,1.956C417.4,254.609,413.068,252.076,412.787,250.684z"/>
							<path fill="#738AA5" d="M304.323,307.854c-2.324-9.701-2.553-31.904-2.553-37.133c0-5.212-1.515-12.134-3.451-19.758
								c-1.954-7.641-1.25-48.016-1.25-48.016h-1.251v-8.135h1.251v-0.193c0,0-2.993-6.567-6.338-12.467l-3.276,0.422
								c-1.057-2.021-4.999-5.315-9.824-5.439c-5.123-0.141-21.64,0.266-22.468-0.985c-0.845-1.233,5.688-6.797,9.015-11.233
								c2.766-3.682,5.424-4.703,9.351-11.129c0,0-16.71,4.191-21.429,8.77c-2.764,2.693-7.747,7.693-10.846,16.795
								c-1.691,4.95-2.818,11.076-2.729,18.738c0,0.403-1.269,10.264-3.487,16.515c-2.218,6.233-6.938,20.811-5.688,25.653
								c0,0-1.53,2.236-1.125,6.673c0,0-4.948,8.329-0.07,16.235c4.119,6.654,15.142,14.614,26.059,9.174
								c5.405-2.678,6.303-11.499,6.355-16.711c0.019-2.358-0.141-3.979-0.141-3.979h0.019c0.581,1.373,1.249,2.676,2.007,3.874
								c0,0,0.018,0.034,0.053,0.104c0.334,0.74,2.165,5.142-0.053,11.832c-2.447,7.361-8.417,20.548-6.603,28.314
								c1.795,7.765,5.387,29.422,4.771,34.827c0,0,0.546,0.404,1.619,1.075c4.896,3.099,20.548,11.866,42.875,13.365l2.359-7.08
								l1.654,0.158v-0.018C309.976,327.294,306.63,317.574,304.323,307.854z"/>
							<path fill="#738AA5" d="M304.323,307.854c-2.324-9.701-2.553-31.904-2.553-37.133c0-5.212-1.515-12.134-3.451-19.758
								c-1.954-7.641-1.25-48.016-1.25-48.016h-1.251v-8.135h1.251v-0.193c0,0-2.993-6.567-6.338-12.467l-3.276,0.422
								c-1.057-2.021-4.999-5.315-9.824-5.439c-5.123-0.141-21.64,0.266-22.468-0.985c-0.845-1.233,5.688-6.797,9.015-11.233
								c2.766-3.682,5.424-4.703,9.351-11.129c0,0-16.71,4.191-21.429,8.77c-2.764,2.693-7.747,7.693-10.846,16.795
								c-1.691,4.95-2.818,11.076-2.729,18.738c0,0.403-1.269,10.264-3.487,16.515c-2.218,6.233-6.938,20.811-5.688,25.653
								c0,0-1.53,2.236-1.125,6.673c0,0-4.948,8.329-0.07,16.235c4.119,6.654,15.142,14.614,26.059,9.174
								c5.405-2.678,6.303-11.499,6.355-16.711c0.019-2.358-0.141-3.979-0.141-3.979h0.019c0.581,1.373,1.249,2.676,2.007,3.874
								c0,0,0.018,0.034,0.053,0.104c0.334,0.74,2.165,5.142-0.053,11.832c-2.447,7.361-8.417,20.548-6.603,28.314
								c1.795,7.765,5.387,29.422,4.771,34.827c0,0,0.546,0.404,1.619,1.075c4.896,3.099,20.548,11.866,42.875,13.365l2.359-7.08
								l1.654,0.158v-0.018C309.976,327.294,306.63,317.574,304.323,307.854z"/>
							<path fill="#B0C7E1" d="M246.835,188.246c0,0,8.047,4.561,10.265,11.779c1.92,6.233-0.245,17.31-0.898,23.613l-0.175-0.019
								c-5.811-4.421-8.241-23.806-9.21-35.374H246.835z"/>
							<rect x="295.809" y="194.818" fill="#FFFFFF" width="2.499" height="8.133"/>
							<path fill="#B0C7E1" d="M324.678,163.386c-5.209,0.379-10.037,6.174-12.396,7.794l-5.448-0.454
								c0.635-0.475,8.178-6.127,8.83-6.638c5.265-4.031,6.232-11.655,5.688-16.798c-0.563-5.123,1.109-9.155-17.345-7.077
								c-18.453,2.077-23.734,12.22-23.312,14.016c0.405,1.813,0.968,11.249,0.687,13.048c-0.281,1.795-1.109,2.5,3.469,6.513
								c1.549,1.357,3.434,4.156,5.247,7.292c0,0,0,0,0.019,0c0.192,0.352,0.404,0.702,0.616,1.072l-3.276,0.422
								c-1.057-2.021-4.999-5.315-9.824-5.439c-5.123-0.141-21.64,0.266-22.468-0.985c-0.845-1.233,5.688-6.797,9.015-11.233
								c2.766-3.682,5.424-4.703,9.351-11.129c0.81-1.304,1.672-2.853,2.588-4.684c5.406-10.829,24.826-16.374,32.873-17.624
								c0.424-0.072,12.906-0.847,15.829,4.012c1.763,2.961,3.223,6.06,4.984,8.54c0,0,0,0,0.018,0.019
								c1.108,1.604,2.357,2.94,3.873,3.804c3.893,2.219,5.969,11.92,6.391,16.922C340.084,164.776,328.422,163.11,324.678,163.386z
								"/>
						</g>
					</g>
				</g>
				<g>
					<g>
						<path fill="#383838" d="M322.336,371.981c0-4.543,0.881-19.649,0.581-22.15c-0.299-2.5-3.856-5.265-4.858-6.233
							c-4.104,1.286-6.99,2.272-6.99,2.272l-0.547-7.624l-1.392-0.124l-1.654-0.158l-2.359,7.08
							c-22.327-1.499-37.979-10.267-42.875-13.365c0,0,0.291,2.378,0.915,6.15c9.596,3.383,23.148,7.828,29.091,8.188
							c9.683,0.589-3.229,4.988,3.814,6.164c7.043,1.174,10.857-1.467,15.554-2.348c4.695-0.881,5.281,3.523,0.879,4.696
							c-4.401,1.173-5.869,3.813-1.466,4.694c4.4,0.879,10.856,3.227,9.391,6.163c-1.468,2.935-3.814,5.576-1.175,7.337
							c2.642,1.76,7.043,30.225,6.456,34.041c-0.068,0.446-0.017,0.397,0.122-0.014c0.053-1.112,0.113-1.935,0.176-2.336
							C326.439,401.632,322.336,376.542,322.336,371.981z"/>
						<path fill="#383838" d="M379.697,321.367c0.03-0.095,0.043-0.19,0.045-0.282c-1.979,2.367-5.085,5.662-9.002,8.41
							c-2.254,1.566-5.265,2.924-8.628,4.05c-7.009,2.358-15.566,3.803-22.028,4.56c-5.881,0.688-15.494,3.451-22.025,5.493
							c1.002,0.969,4.56,3.733,4.858,6.233c0.3,2.501-0.581,17.607-0.581,22.15c0,4.561,4.104,29.65,3.662,32.434
							c-0.062,0.401-0.123,1.224-0.176,2.336c1.048-3.104,7.283-27.861,7.802-32.268c0.588-4.988-1.173-9.391-1.467-4.988
							s-3.816,19.957-4.108,17.607c-0.293-2.348-2.641-14.966-3.816-22.01c-1.174-7.042,0-15.848-1.76-17.315
							c0,0,22.303-2.346,30.813-4.987C361.796,340.148,377.644,327.822,379.697,321.367z"/>
						<g>
							<path fill="#383838" d="M321.3,425.546c-1.174,1.762-10.271,6.163-21.717,10.564c-11.444,4.401-14.38,16.434-18.781,16.14
								c-4.402-0.294-0.294-7.925,1.761-13.206c2.056-5.283,10.271-2.348,2.935-9.39c-7.337-7.045-4.695-34.923-6.162-41.964
								c-0.599-2.874-3.009-7.209-5.648-11.338c0.562,4.495,2.072,17.311,2.43,27.764c0.44,12.924-0.44,39.476,3.223,53.702
								c0.389,1.513,0.768,2.977,1.138,4.408c1.336-0.272,2.664-0.568,3.991-0.863c-0.062-1.258-0.109-2.451-0.145-3.538
								c-0.293-9.097,5.868-10.563,8.218-13.5c2.348-2.935,16.139-5.574,19.955-6.162
								C316.311,437.574,322.473,423.784,321.3,425.546z"/>
						</g>
						<g>
							<path fill="#383838" d="M359.155,428.187c-4.988-2.641-16.14,5.869-14.966,4.109c1.175-1.762,7.336-5.283,6.749-8.512
								c-0.588-3.227-11.446,1.762-18.194,0.881c-6.749-0.881-6.75-13.206-6.75-13.206l-0.323,0.422
								c-0.139,8.016,0.006,19.966,0.91,24.369c0.334,1.635,0.546,5.768,0.688,11.125c1.198-0.525,2.394-1.056,3.582-1.601
								c0.288-2.674,0.797-4.136,1.306-2.915c0.227,0.543,0.782,1.072,1.565,1.574c2.442-1.161,4.86-2.363,7.254-3.605
								c-1.148-0.713-2.179-1.416-2.95-2.077C333.919,435.23,364.144,430.828,359.155,428.187z"/>
						</g>
					</g>
				</g>
				<g>
					<path fill="#617A93" d="M367.665,324.739c-14.242,10.01-39.932,13.622-58.519,12.9c-0.01,0.154-0.004,0.307-0.017,0.465v0.018
						l1.392,0.124l0.547,7.624c0,0,2.887-0.986,6.99-2.272c6.531-2.042,16.145-4.806,22.025-5.493
						c6.462-0.757,15.02-2.201,22.028-4.56c3.363-1.126,6.374-2.483,8.628-4.05c4.894-3.434,8.558-7.749,10.283-10.003
						c0.722-0.931,1.108-1.514,1.108-1.514s0.162-1.385,0.288-3.229C378.835,317.062,373.988,320.298,367.665,324.739z"/>
					<path fill="#617A93" d="M307.476,337.964l1.654,0.158v-0.018c0.013-0.158,0.007-0.311,0.017-0.465
						c-2.668-0.106-5.189-0.298-7.511-0.574c-15.633-1.859-35.672-12.22-41.485-15.373c0.445,3.943,0.664,7.221,0.472,8.911
						c0,0,0.546,0.404,1.619,1.075c4.896,3.099,20.548,11.866,42.875,13.365L307.476,337.964z"/>
					<g>
						<path fill="#617A93" d="M259.159,177.056l-4.402,4.623c0,0,14.306-1.32,19.148-1.32c4.842,0,7.264-0.661,11.004,5.062
							c3.742,5.723,7.044,11.004,8.363,17.389c1.321,6.382,2.201-5.283,0.882-8.804c-1.321-3.523-6.383-12.985-9.905-14.969
							C280.729,177.056,266.421,176.397,259.159,177.056z"/>
						<path fill="#617A93" d="M266.201,286.444c-1.1-8.144,1.101-25.751,1.101-25.751s-12.516-8.523-11.101-37.055
							c0,0-7.167-6.524-9.148-32.056c-0.306-3.951-4.622-8.803-5.281-3.301c-0.66,5.501-0.66,20.027,6.603,31.254
							c7.263,11.224,6.163,13.865,1.981,10.562c-4.183-3.3-6.383-1.98-3.303,0.661c3.082,2.642,4.843,5.943-1.54,2.642
							c-6.383-3.303-13.866-0.881-14.526,3.081s11.005-7.923,20.029,2.642c9.022,10.565,0.659,0.22-10.346,0.439
							c-11.004,0.221-11.665,5.503-10.344,7.703c0,0,12.104-11.004,19.809,0.881c7.702,11.885-3.302,12.105-3.302,12.105l4.46,13.2
							c0.972-0.281,1.944-0.628,2.92-1.112c5.405-2.678,6.303-11.499,6.355-16.711c0.019-2.358-0.141-3.979-0.141-3.979h0.019
							c0.581,1.373,1.249,2.676,2.007,3.874c0,0,0.018,0.034,0.053,0.104c0.334,0.74,2.165,5.142-0.053,11.832
							c-2.447,7.361-8.417,20.548-6.603,28.314c1.795,7.765,5.387,29.422,4.771,34.827c0,0,0.546,0.404,1.619,1.075
							c0.378,0.238,0.842,0.521,1.346,0.822c0.791-1.312,1.368-2.833,1.294-4.459C264.66,323.2,267.302,294.587,266.201,286.444z"/>
						<path fill="#617A93" d="M255.856,235.382c0,0,0.221,6.162,8.363,11.225c8.146,5.062,20.47,7.044,31.915,5.062
							c11.445-1.979,16.946-0.218,24.871-0.438c7.923-0.221,22.449-3.303,24.43-10.345l3.081,14.967c0,0-15.627,5.062-25.971,3.521
							c-10.345-1.541-20.028-3.081-31.474-0.44C279.628,261.573,259.159,270.377,255.856,235.382z"/>
						<path fill="#617A93" d="M300.757,200.607c0,0,4.402-24.431,12.985-30.814c8.584-6.382,9.904-7.482,16.727-6.162
							c6.823,1.321,9.615,1.146,9.615,1.146s-12.256,3.916-15.558,4.797c-3.301,0.881-13.866,9.245-15.847,12.766
							C306.699,185.86,300.757,200.607,300.757,200.607z"/>
						<g>
							<path fill="#617A93" d="M387.914,229.439c-4.182,3.521-10.564,0.88-6.163-3.522c4.402-4.401,11.445-10.344,10.564-14.086
								c-0.879-3.741-11.663,7.924-14.746,4.403c-3.082-3.522,9.245-7.704,8.804-10.346c-0.44-2.641-10.124-10.564-15.627-14.746
								c-5.502-4.183-5.062-15.627-8.143-17.827c-3.082-2.201-4.728,10.473-5.062,16.507c-0.087,1.563,0.547,4.292,1.276,7.197
								c1.399,2.98,2.749,6.952,1.945,10.383c-0.028,0.257-0.074,0.485-0.147,0.671c0,0-0.018,0.051-0.035,0.141
								c-0.182,0.888-1.218,6.079-0.212,9.56c0.079,0.242,0.15,0.493,0.247,0.724c0.09,0.212,0.175,0.446,0.257,0.691
								c0.559,1.516,1.034,3.312,1.187,5.205c0,0,1.198,4.632,3.558,6.023c2.358,1.391,2.641,10.828,8.592,12.625
								c2.853,0.861,3.961,1.285,4.35,1.829c0.053,0.071,0.105,0.141,0.123,0.229c0,0.02,0,0.02,0.019,0.036
								c0.211,0.562-0.105,1.319-0.036,2.764c0.141,3.188,1.25,6.462,7.906,6.393c0,0,0.722,2.534,3.68,4.277
								c0.854,0.5,1.955,1.1,3.211,1.728c1.594-2.511,2.459-5.305-0.043-6.869c-5.283-3.301,2.861-6.162,0.439-9.242
								c-2.42-3.083-8.363-4.843-5.502-9.906c2.861-5.062,9.464-9.463,14.526-10.123c5.062-0.66,9.463,0,5.723-3.961
								C404.861,216.234,392.096,225.917,387.914,229.439z"/>
							<path fill="#617A93" d="M382.132,282.868c-1.672-4.576-8.47-16.938-9.032-22.342c-0.546-5.407-1.937-9.157-3.75-11.375
								c-1.797-2.22-2.905-6.656-2.905-9.298c0-2.257-4.125-3.993-4.56-9.544c-1.188,4.658-4.276,16.582-6.545,23.561
								c-2.86,8.804,11.885-8.584,9.686-2.861c-2.201,5.722-12.106,27.071-12.767,34.334c-0.66,7.264,7.924,11.666,7.924,20.249
								c0,6.216,2.884,19.929,4.476,27.023c2.331-0.922,4.415-1.963,6.082-3.12c4.894-3.434,8.558-7.749,10.283-10.003
								c0.722-0.931,1.108-1.514,1.108-1.514s0.969-8.188,0-11.374C382.132,306.604,383.787,287.466,382.132,282.868z"/>
						</g>
					</g>
				</g>
				<g>
					<path fill="none" stroke="#000000" stroke-linecap="round" stroke-linejoin="round" stroke-miterlimit="10" d="
						M297.058,194.613c0,0-7.632-16.791-12.211-20.814c-4.58-4.024-3.747-4.72-3.47-6.522c0.277-1.805-0.277-11.24-0.693-13.045
						c-0.417-1.803,4.857-11.935,23.312-14.014c18.455-2.081,16.789,1.941,17.346,7.076c0.556,5.135-0.415,12.767-5.689,16.791
						c-5.273,4.022-10.268,6.8-12.072,12.488C301.774,182.263,299.14,188.646,297.058,194.613z"/>
					<path fill="none" stroke="#000000" stroke-linecap="round" stroke-linejoin="round" stroke-miterlimit="10" d="
						M312.184,171.163c2.498-2.914,8.742-7.91,12.488-7.773c3.747,0.139,15.403,1.388,15.403,1.388
						c-0.415-4.996-2.498-14.708-6.384-16.929c-3.885-2.22-5.967-7.492-8.881-12.35c-2.915-4.857-15.407-4.089-15.819-4.025
						c-8.049,1.249-27.476,6.8-32.888,17.624c-5.411,10.824-8.603,11.38-11.934,15.819c-3.33,4.439-9.852,9.992-9.019,11.24
						c0.832,1.248,17.344,0.834,22.479,0.973c5.134,0.137,9.296,3.883,9.99,5.827"/>
					<path fill="none" stroke="#000000" stroke-linecap="round" stroke-linejoin="round" stroke-miterlimit="10" d="
						M273.522,153.795c0,0-16.709,4.185-21.427,8.763c-4.719,4.579-15.819,15.82-13.182,42.601"/>
					<path fill="none" stroke="#000000" stroke-linecap="round" stroke-linejoin="round" stroke-miterlimit="10" d="
						M238.515,198.082c0.011,0.417-1.27,10.271-3.488,16.515c-2.22,6.244-6.938,20.812-5.689,25.67c0,0-1.527,2.221-1.11,6.663
						c0,0-4.951,8.337-0.072,16.233c4.119,6.666,15.133,14.628,26.062,9.183c7.82-3.896,6.212-20.7,6.212-20.7"/>
					<path fill="none" stroke="#000000" stroke-linecap="round" stroke-linejoin="round" stroke-miterlimit="10" d="
						M246.267,179.478c0,0,1.355,37.754,9.751,44.138"/>
					<path fill="none" stroke="#000000" stroke-linecap="round" stroke-linejoin="round" stroke-miterlimit="10" d="
						M246.822,188.251c0,0,8.049,4.56,10.269,11.774s-1.034,20.952-1.073,26.226c-0.037,5.275,0.796,26.922,10.926,34.277"/>
					<path fill="none" stroke="#000000" stroke-linecap="round" stroke-linejoin="round" stroke-miterlimit="10" d="
						M262.442,255.521c0,0,2.437,4.592,0,11.947c-2.438,7.354-8.405,20.537-6.601,28.309c1.804,7.769,5.387,29.416,4.774,34.83
						c0,0,17.29,12.628,44.487,14.431l2.358-7.075l3.054,0.277l0.555,7.633c0,0,19.427-6.664,29.002-7.773
						s23.729-3.744,30.668-8.602c6.938-4.858,11.379-11.52,11.379-11.52s0.973-8.187,0-11.378c0,0,1.666-19.143,0-23.726
						c-1.665-4.582-8.466-16.937-9.02-22.346c-0.556-5.411-1.943-9.159-3.747-11.379c-1.805-2.22-2.914-6.66-2.914-9.297
						s-5.662-4.574-4.414-12.76"/>
					<path fill="none" stroke="#000000" stroke-linecap="round" stroke-linejoin="round" stroke-miterlimit="10" d="
						M360.918,154.893c0,0-3.083,18.324-3.359,24.585s-1.666,11.812,0.556,16.114c2.22,4.301,5.411,12.071-0.277,16.234
						c-5.689,4.163-5.136,5.828-6.245,8.327"/>
					<path fill="none" stroke="#000000" stroke-linecap="round" stroke-linejoin="round" stroke-miterlimit="10" d="
						M360.608,208.079c0,0-1.529,6.662,0,10.409c1.53,3.746,2.663,9.852-0.679,13.877"/>
					<path fill="none" stroke="#000000" stroke-linecap="round" stroke-linejoin="round" stroke-miterlimit="10" d="M362.047,224.39
						c0,0,1.201,4.645,3.562,6.031c2.359,1.388,2.636,10.824,8.604,12.629c5.967,1.803,4.301,1.663,4.439,4.854
						c0.141,3.192,1.255,6.454,7.911,6.383c0,0,0.718,2.544,3.687,4.281c6.158,3.606,24.8,12.245,26.286,1.96
						c0.855-5.917-3.47-8.461-3.747-9.849c-0.278-1.388,1.249-5.271,2.22-9.853c0.972-4.581-1.526-10.205-1.526-10.205
						c0.554-5.904-3.33-11.997-3.33-11.997c-1.525-5.966-6.521-5.966-9.853-7.771c-3.331-1.803-4.44-5.967-7.217-9.309
						c-2.773-3.344-21.091-33.431-27.059-41.479s-14.154-9.992-21.37-11.38c-7.216-1.387-14.856-4.654-14.856-4.654"/>
					<path fill="none" stroke="#000000" stroke-linecap="round" stroke-linejoin="round" stroke-miterlimit="10" d="
						M378.693,245.135c-0.59-0.657-0.874-6.249-1.151-9.856c-0.277-3.606,1.805-9.018,6.106-12.35
						c4.302-3.33,10.269-8.465,8.325-10.963c-1.942-2.498-8.603,3.054-9.714,4.858"/>
					<path fill="none" stroke="#000000" stroke-linecap="round" stroke-linejoin="round" stroke-miterlimit="10" d="M411.51,221.214
						c-0.718-1.465-2.744-2.865-8.504-2.311c-5.759,0.557-8.654,1.805-12.757,6.106s-7.571,7.216-8.96,5.55"/>
					<path fill="none" stroke="#000000" stroke-linecap="round" stroke-linejoin="round" stroke-miterlimit="10" d="
						M392.353,227.093c0,0-12.312,11.65-5.79,27.194"/>
					<path fill="none" stroke="#000000" stroke-linecap="round" stroke-linejoin="round" stroke-miterlimit="10" d="
						M236.169,238.613c0,0,17.149-1.056,24.447,17.165"/>
					<path fill="none" stroke="#000000" stroke-linecap="round" stroke-linejoin="round" stroke-miterlimit="10" d="
						M241.712,230.622c0,0,11.259,2.984,16.372,13.814"/>
					<path fill="none" stroke="#000000" stroke-linecap="round" stroke-linejoin="round" stroke-miterlimit="10" d="M244.881,214.33
						c0,0,6.103,11.921,11.307,17.132"/>
					
						<rect x="295.809" y="194.818" fill="none" stroke="#000000" stroke-linecap="round" stroke-linejoin="round" stroke-miterlimit="10" width="2.499" height="8.133"/>
					<path fill="none" stroke="#000000" stroke-linecap="round" stroke-linejoin="round" stroke-miterlimit="10" d="
						M297.058,202.951c0,0-0.689,40.379,1.25,48.011c1.94,7.632,3.466,14.553,3.466,19.766c0,5.214,0.218,27.417,2.538,37.132
						c2.318,9.713,5.651,19.433,4.816,30.253"/>
					<path fill="none" stroke="#000000" stroke-linecap="round" stroke-linejoin="round" stroke-miterlimit="10" d="
						M357.657,177.999c0,0-13.975,7.01-14.391,23.547s3.053,44.398,5.134,57.875c2.082,13.476,0.655,33.317,6.503,41.367
						c5.849,8.049,2.16,30.139,7.196,32.761"/>
					<path fill="none" stroke="#000000" stroke-linecap="round" stroke-linejoin="round" stroke-miterlimit="10" d="
						M290.099,181.074c0,0,5.981,1.56,11.95,0"/>
					<path fill="none" stroke="#000000" stroke-linecap="round" stroke-linejoin="round" stroke-miterlimit="10" d="
						M262.233,331.683c0,0,4.335,35.611,15.779,50.725"/>
					<path fill="none" stroke="#000000" stroke-linecap="round" stroke-linejoin="round" stroke-miterlimit="10" d="M327.27,447.374
						c-0.142-5.355-0.354-9.484-0.688-11.116c-1.321-6.456-1.027-29.053-0.588-31.841s-3.668-27.879-3.668-32.428
						s0.881-19.661,0.587-22.156c-0.294-2.494-3.857-5.273-4.862-6.231"/>
					<path fill="none" stroke="#000000" stroke-linecap="round" stroke-linejoin="round" stroke-miterlimit="10" d="
						M273.475,374.702c0,0,2.19,16.507,2.631,29.421c0.441,12.913-0.44,39.469,3.229,53.702c0.389,1.508,0.769,2.977,1.139,4.404"/>
					<path fill="none" stroke="#000000" stroke-linecap="round" stroke-linejoin="round" stroke-miterlimit="10" d="
						M289.018,442.567c0.44-0.147,8.283-6.751,15.294-8.512c7.01-1.76,11.998-4.842,13.024-6.603"/>
					<path fill="none" stroke="#000000" stroke-linecap="round" stroke-linejoin="round" stroke-miterlimit="10" d="
						M281.682,425.106c0,0,1.85,5.722,8.51,8.949"/>
					<path fill="none" stroke="#000000" stroke-linecap="round" stroke-linejoin="round" stroke-miterlimit="10" d="
						M366.597,425.354c2.014-14.94,5.828-26.732,6.204-33.263c0.44-7.631,3.376-41.669,4.843-50.328
						c1.467-8.656,3.515-17.545,3.371-22.272"/>
					<path fill="none" stroke="#000000" stroke-linecap="round" stroke-linejoin="round" stroke-miterlimit="10" d="
						M334.798,436.258c0,0,1.521,2.508,5.874,4.734"/>
					<path fill="none" stroke="#000000" stroke-linecap="round" stroke-linejoin="round" stroke-miterlimit="10" d="
						M340.961,433.175c0,0,5.575-3.814,10.71-4.842c5.138-1.025,9.099-3.227,9.099-3.227"/>
				</g>
				<g>
					<path fill="#E7D1C9" d="M320.435,103.313c0.39-4.354-1.242-12.429-1.242-13.365c0-0.93-8.619-11.34-9.398-11.963
						c-0.777-0.621-16.778-8.775-24.156-2.248c-7.38,6.523-11.496,13.126-11.886,15.38c-0.39,2.253-2.409,7.454-2.409,7.454
						s-0.079,4.117-1.012,11.809c-0.931,7.691-2.173,14.916,1.477,20.119c3.651,5.204,4.116,7.07,4.66,9.245
						c0.545,2.175,2.799,5.436,5.75,6.835c1.241,3.107,3.053,7.369,0.491,12.188c-2.564,4.814,9.295,18.889,12.401,17.178
						s23.383-20.2,24.005-26.723c0.621-6.523,0.697-6.447,0.465-10.33c-0.131-2.191,0.1-4.406,0.402-6.572
						c0.269-1.927,0.476-3.822,1.015-5.699c0.209-0.735,0.527-1.425,0.709-2.168c0.242-0.99,0.39-2.002,0.676-2.98
						c0.275-0.944,0.693-1.851,1.062-2.762c0.384-0.959,0.97-1.922,1.165-2.945c0.216-1.143-0.101-2.267-0.66-3.264
						c-0.252-0.447-0.606-0.848-0.82-1.313c-0.215-0.466-0.463-0.63-0.809-0.993c-0.806-0.844-1.904-1.694-2.021-2.953
						C320.18,105.98,320.321,104.575,320.435,103.313z"/>
					<path fill="#DDBDB1" d="M276.468,139.744c0.545,2.175,2.799,5.436,5.75,6.835c1.228,3.07,2.518,10.004,0.071,14.817
						c-0.151,2.803,0.017,5.656,1.283,5.973c2.56,0.64,12.153-1.386,13.646-8.955c0.702-3.56,1.901-5.815,3.361-7.457
						c0.513-0.778,1.396-1.409,2.299-2.073c2.014-1.481,4.28-2.9,5.521-5.134c-0.761,0.045-1.332,0.759-1.934,1.177
						c-0.811,0.56-1.733,0.969-2.599,1.433c-1.201,0.643-2.682,1.479-4.021,1.686c-0.058-1.011,1.427-2.277,2.005-3.019
						c1.24-1.606,2.57-3.351,3.566-5.111c1.048-1.847,2.676-4.928,2.367-7.161c-0.521,0.33-0.825,1.345-1.095,1.929
						c-0.52,1.127-1.046,2.131-1.793,3.133c-1.147,1.539-2.26,3.085-3.547,4.51c-1.1,1.213-2.977,3.677-4.845,2.648
						c-0.976-0.534-1.098-1.574-0.808-2.521c0.499-1.627,1.122-3.232,1.612-4.89c0.321-1.077,1.2-9.845-0.309-9.565
						c-0.027,0.008-0.051,0.015-0.076,0.023c-0.901,3.264-0.88,6.468-2.415,9.589c-1.146,2.331-2.562,5.163-5.242,6.029
						c-1.984,0.643-4.146,1.01-6.099,0.227c-1.628-0.659-3.542-1.853-4.343-3.454c-0.591-1.186-1.345-3.321-0.178-4.358
						c0.843-0.748,1.729-0.646,2.801-0.688c1.798-0.071,3.539-0.368,5.256-0.929c1.736-0.565,8.272-3.368,6.654-6.021
						c-0.801-1.323-3.287-1.511-4.622-1.702c-1.501-0.219-2.986-0.145-4.414,0.383c-1.85,0.676-3.423,0.797-5.242-0.226
						c-1.345-0.755-2.872-2.452-1.232-3.81c1.578-1.305,2.96,0.938,4.636,0.906c2.073-0.035,4.149-3.125,5.453-4.538
						c1.014-1.098,1.312-2.6-0.61-3.026c-1.468-0.324-2.853,0.693-4.036,1.314c-1.195,0.627-2.638,1.85-4.032,1.814
						c-1.516-0.035-2.22-1.09-2.134-2.51c-0.736,0.309-0.693,1.564-1.116,2.183c-0.482,0.706-1.313,1.461-2.196,1.542
						c-2.145,0.199-2.772-2.27-2.926-3.938c-0.17-1.879-1.046-4.685,0.404-6.259c0.578-0.623,1.546-0.848,2.093-1.528
						c0.773-0.956,0.88-1.353,2.318-1.287c1.207,0.056,4.399,2.237,5.601,1.217c0.611-0.521,0.347-2.689,0.152-3.341
						c-0.365-1.216-1.374-1.682-2.473-2.139c-0.823-0.344-1.544-0.749-1.966-1.588c-0.613-1.221,0.243-2.047,1.026-3.046
						c0.641-0.821,1.285-1.667,1.756-2.596c0.375-0.747,0.412-1.478,0.606-2.27c0.501-2.021,0.349-4.232,1.074-6.196
						c0.562-1.507,1.405-2.986,2.62-4.083c3.579-3.249,9.698-4.167,14.338-3.204c1.485,0.311,3.002,0.383,4.484,0.657
						c1.327,0.248,2.968,0.874,4.325,0.722c0.823-0.092,1.217-1.044,0.963-1.833c-0.831-2.585-4.196-3.415-6.399-4.099
						c-3.264-1.014-6.786-1.749-10.248-1.554c-2.365,0.138-4.567,1.615-6.346,3.088c-1.608,1.327-2.743,2.999-4.007,4.626
						c-0.521,0.67-1.229,0.866-1.819,1.494c-0.566,0.602-0.98,1.329-1.525,1.947c-1.104,1.256-3.129,2.445-3.787,4.003
						c-0.442,1.04-0.479,2.377-0.805,3.483c-0.373,1.259-0.808,2.503-1.257,3.736c-0.176,0.489-0.675,1.285-0.675,1.811
						c0,0-0.079,4.117-1.012,11.809c-0.931,7.691-2.173,14.916,1.477,20.119C275.459,135.703,275.924,137.569,276.468,139.744z"/>
					<path fill="#DDBDB1" d="M287.729,107.147c-0.104-0.312-0.184-0.596-0.234-0.82c-0.441-1.909,0.353-4.296,1.895-5.417
						c1.708-1.249,4.365-1.239,6.281-0.657c1.681,0.51,2.604,1.667,3.854,2.847c0.383,0.359,0.874,0.718,1.04,1.271
						c0.176,0.587-0.053,0.974,0.381,1.48c0.832,0.975,2.459,0.334,3.542,0.479c-0.1,0.92-2.885,0.883-3.665,1.155
						c0.726,1.293,3.159,0.84,4.354,1.146c0.202,1.733-6.038-0.922-6.893-1.046c0.843,0.705,1.339,1.006,0.551,2.1
						c-0.685,0.949-1.555,1.576-2.698,1.459c0.44-0.656,1.51-0.813,1.813-1.643c0.322-0.881-0.648-1.223-1.363-1.48
						c-1.384-0.499-2.766,0.03-4.156-0.033c-0.744-0.033-2.343-0.291-2.299,0.96c0.019,0.458,0.719,0.919-0.086,0.987
						C288.951,110.028,288.141,108.382,287.729,107.147z"/>
					
						<path fill="none" stroke="#000000" stroke-width="0.75" stroke-linecap="round" stroke-linejoin="round" stroke-miterlimit="10" d="
						M281.401,161.983c2.562-4.817,2.058-12.297,0.816-15.404c-2.951-1.399-5.205-4.66-5.75-6.835
						c-0.544-2.175-1.009-4.041-4.66-9.245c-3.649-5.203-2.407-12.428-1.477-20.119c0.933-7.691,1.012-11.809,1.012-11.809
						s2.02-5.201,2.409-7.454c0.39-2.254,4.506-8.856,11.886-15.38c7.378-6.527,23.379,1.627,24.156,2.248
						c0.779,0.623,9.398,11.033,9.398,11.963c0,0.937,1.632,9.011,1.242,13.365c-0.034,0.403-0.113,0.86-0.063,1.267
						c0.039,0.323,0.217,0.602,0.308,0.908c0.282,0.948,0.447,1.908,0.924,2.79c0.467,0.865,0.9,1.646,1.56,2.383
						c0.602,0.672,1.16,1.478,1.206,2.4c0.044,0.853,0.023,1.86-0.104,2.698c-0.139,0.92-0.385,1.819-0.53,2.739
						c-0.249,1.562-0.971,3.073-1.388,4.6c-0.301,1.119-0.752,2.188-1.066,3.301c-0.27,0.961-0.418,1.946-0.684,2.91
						c-0.148,0.539-0.304,1.072-0.354,1.632c-0.108,1.22-0.416,2.446-0.533,3.705c-0.133,1.406-0.214,2.831-0.129,4.245
						c0.232,3.883,0.156,3.807-0.465,10.33"/>
					
						<path fill="none" stroke="#000000" stroke-width="0.75" stroke-linecap="round" stroke-linejoin="round" stroke-miterlimit="10" d="
						M286.312,115.239c0,0,3.842,1.759,1.712,4.025"/>
					
						<path fill="none" stroke="#000000" stroke-width="0.75" stroke-linecap="round" stroke-linejoin="round" stroke-miterlimit="10" d="
						M285.617,119.079c0,0-2.175-1.249-3.333,0.742"/>
					
						<path fill="none" stroke="#000000" stroke-width="0.75" stroke-linecap="round" stroke-linejoin="round" stroke-miterlimit="10" d="
						M281.22,109.36c0,0-4.723,6.618-4.723,8.47c0,1.851,2.13,3.054,3.056,3.194"/>
					<path fill="#D19C95" d="M295.755,126.854c0,0-4.026-0.367-6.389-1.525c-2.359-1.154-5.37-0.697-6.342-0.369
						c-0.971,0.322-2.962-0.328-3.842,0.277c-0.88,0.604-1.203,3.382-1.203,3.382s-0.462,5.319,5.14,4.905
						C288.718,133.105,293.071,129.404,295.755,126.854z"/>
					
						<path fill="none" stroke="#000000" stroke-width="0.75" stroke-linecap="round" stroke-linejoin="round" stroke-miterlimit="10" d="
						M295.755,126.854c0,0-4.026-0.367-6.389-1.525c-2.359-1.154-5.37-0.697-6.342-0.369c-0.971,0.322-2.962-0.328-3.842,0.277
						c-0.88,0.604-1.203,3.382-1.203,3.382s-0.462,5.319,5.14,4.905C288.718,133.105,293.071,129.404,295.755,126.854z"/>
					<path fill="#888888" d="M299.643,102.431c0,0-4.3-3.76-8.104-3.269c-3.809,0.493-4.047,2.196-4.047,2.196
						s0.318,0.408,0.858,0.23c0.539-0.177,1.813-1.699,4.725-1.34C295.985,100.608,299.643,102.431,299.643,102.431z"/>
					<path fill="#888888" d="M279.527,103.931c0.205,0.157-1.697,0.241-2.746-0.363c-1.051-0.604-2.947-1.291-4.727-0.326
						C273.186,101.667,275.408,100.78,279.527,103.931z"/>
					
						<path fill="none" stroke="#000000" stroke-width="0.75" stroke-linecap="round" stroke-linejoin="round" stroke-miterlimit="10" d="
						M299.643,102.431c0,0-4.3-3.76-8.104-3.269c-3.809,0.493-4.047,2.196-4.047,2.196s0.318,0.408,0.858,0.23
						c0.539-0.177,1.813-1.699,4.725-1.34C295.985,100.608,299.643,102.431,299.643,102.431z"/>
					
						<path fill="none" stroke="#000000" stroke-width="0.75" stroke-linecap="round" stroke-linejoin="round" stroke-miterlimit="10" d="
						M279.527,103.931c0.205,0.157-1.697,0.241-2.746-0.363c-1.051-0.604-2.947-1.291-4.727-0.326
						C273.186,101.667,275.408,100.78,279.527,103.931z"/>
					<path fill="#FFFFFF" d="M298.624,107.247c0,0-4.217-3.587-6.493-3.227c-2.297,0.311-1.986,3.827-1.986,3.827
						S295.814,107.907,298.624,107.247z"/>
					<path fill="#FFFFFF" d="M280.137,109.124c0,0-1.873-3.942-4.492-2.52c-2.41,1.504-2.651,3.074-2.651,3.074
						S277.54,109.657,280.137,109.124z"/>
					<path fill="#5E7496" d="M292.131,104.021c1.254-0.2,3.096,0.802,4.502,1.74c-0.019,0.717-0.259,1.367-0.637,1.869
						c-1.295,0.117-3.182,0.182-4.271,0.207c-0.489-0.543-0.55-1.259-0.55-2.102c0-0.442,0.336-1.099,0.516-1.291
						C291.828,104.284,291.974,104.14,292.131,104.021z"/>
					<path fill="#5E7496" d="M278.57,107.041c0.274,1.099-0.025,2.194-0.091,2.349c-1.571,0.256-2.518,0.208-3.9,0.251
						c-0.276-0.435-0.441-0.946-0.441-1.501c0-0.131,0.021-0.254,0.039-0.378c0.366-0.372,0.841-0.766,1.468-1.157
						C277.897,105.954,277.777,106.401,278.57,107.041z"/>
					<path stroke="#000000" stroke-width="0.5" stroke-linecap="round" stroke-linejoin="round" stroke-miterlimit="10" d="
						M275.23,108.044c0,0.799,0.402,1.449,0.898,1.449c0.495,0,0.901-0.65,0.901-1.449c0-0.805-0.406-1.456-0.901-1.456
						C275.633,106.588,275.23,107.239,275.23,108.044z"/>
					<path stroke="#000000" stroke-width="0.5" stroke-linecap="round" stroke-linejoin="round" stroke-miterlimit="10" d="
						M292.24,105.938c0,0.985,0.402,1.789,0.9,1.789c0.495,0,0.899-0.804,0.899-1.789c0-0.994-0.404-1.797-0.899-1.797
						C292.643,104.142,292.24,104.944,292.24,105.938z"/>
					
						<path fill="none" stroke="#000000" stroke-width="0.75" stroke-linecap="round" stroke-linejoin="round" stroke-miterlimit="10" d="
						M294.323,123.241c0,0,2.446,2.129,2.617,3.194c0.173,1.066,0.275,6.597,0,6.942"/>
					
						<path fill="none" stroke="#000000" stroke-width="0.75" stroke-linecap="round" stroke-linejoin="round" stroke-miterlimit="10" d="
						M276.081,126.71c0,0,0.723,2.511,0.791,3.953c0.069,1.445,0.205,3.541,0.205,3.541"/>
					<path fill="#FFFFFF" d="M294.536,127.193c0,0-4.123-0.103-5.867-0.653c-1.387-0.438-4.785-0.071-6.385,0.17
						c-1.598,0.24-3.157,0.586-3.425,1.597c-0.27,1.017,0.427,2.15,0.985,2.426c1.022,0.191,3.556,0,6.306-0.069
						c2.372-0.058,5.362-1.538,6.393-1.989C293.573,128.224,294.536,127.193,294.536,127.193z"/>
					
						<path fill="none" stroke="#000000" stroke-width="0.75" stroke-linecap="round" stroke-linejoin="round" stroke-miterlimit="10" d="
						M294.536,127.193c0,0-4.123-0.103-5.867-0.653c-1.387-0.438-4.785-0.071-6.385,0.17c-1.598,0.24-3.157,0.586-3.425,1.597
						c-0.27,1.017,0.427,2.15,0.985,2.426c1.022,0.191,3.556,0,6.306-0.069c2.372-0.058,5.362-1.538,6.393-1.989
						C293.573,128.224,294.536,127.193,294.536,127.193z"/>
					
						<path fill="none" stroke="#000000" stroke-width="0.75" stroke-linecap="round" stroke-linejoin="round" stroke-miterlimit="10" d="
						M296.197,139.193c0,0-5.456,6.862-12.246,6.189c-5.152-0.509-7.597-6.092-7.597-6.092"/>
					
						<path fill="none" stroke="#000000" stroke-width="0.75" stroke-linecap="round" stroke-linejoin="round" stroke-miterlimit="10" d="
						M282.218,146.579c0,0,2.92,1.351,3.399,2.625"/>
					<path fill="#B0B0B0" d="M306.63,82.432c0,0-13.147-7.978-20.317-2.632c-7.172,5.346-1.162,12.926-7.514,14.34
						c0.173-2.459-1.722-4.073-1.722-4.073s2.498,10.349-5.864,11.111c-0.058,0.851-1.16,11.451-1.16,11.451l-0.704,3.146
						c0,0-3.527-5.218-3.613-8.932c-0.083-3.712,1.272-6.595,1.018-6.595c-0.253,0-2.374-1.357-2.29-4.922
						c2.545,0.762,5.346-0.508,3.902-3.562c-1.441-3.057-3.903-9.415,3.689-15.864c7.597-6.449,17.139-10.27,26.537-12.049
						c9.397-1.784,17.88,2.203,18.645,7.295c4.834-2.969,13.065,2.799,16.544,7.041c3.479,4.243,12.557,14.086,7.467,32.495
						c-5.092,18.411-16.036,18.239-12.388,22.862c0,0-4.423,4.646-9.254,2.432c0.398-3.811,0.891-9.641,0.891-9.641l3.501-13.708
						c0,0-2.18,0.538-2.519,2.562c-0.339,2.025-2.121,5.388-5.261,3.072c-3.139-2.319-2.291-10.439-5.007-12.998
						c-2.713-2.557-5.173-7.225-5.259-13.499C305.868,85.487,306.63,82.432,306.63,82.432z"/>
					<g>
						<path fill="#9D9D9D" d="M306.33,71.147c0.685-0.516,1.492-0.96,2.06-1.513C308.23,70.453,307.331,70.897,306.33,71.147z"/>
						<path fill="#9D9D9D" d="M264.517,96.364c0.612,0.172,1.219,0.354,1.771,0.482c1.442,0.333,2.595,0.093,3.974-0.426
							c2.381-0.891,3.255-2.604,4.255-4.751c0.153,0.663,0.149,1.403,0.013,2.071c0.583-1.074,0.43-2.94,0.333-4.123
							c-0.097-1.165-0.273-2.512-0.97-3.453c1.801,0.697,2.868,2.361,3.474,4.188c-0.173-0.187-0.289-0.287-0.289-0.287
							s2.498,10.349-5.864,11.111c-0.058,0.851-1.16,11.451-1.16,11.451l-0.704,3.146c0,0-3.527-5.218-3.613-8.932
							c-0.083-3.712,1.272-6.595,1.018-6.595C266.527,100.249,264.813,99.146,264.517,96.364z"/>
						
							<path fill="none" stroke="#000000" stroke-width="0.75" stroke-linecap="round" stroke-linejoin="round" stroke-miterlimit="10" d="
							M271.213,101.178c0,0-1.95,0.28-4.46-0.929"/>
						<path fill="#9D9D9D" d="M278.799,94.14c0.02-0.297,0.009-0.574-0.023-0.845c1.486-1.179,2.967-2.876,3.197-4.726
							c0.242-1.941-0.314-3.873-0.614-5.736c-0.229-1.417-0.159-3.036,0.306-4.376c0.567-1.632,2.387-3.026,3.831-3.887
							c1.344-0.803,2.742-1.575,4.214-2.11c1.918-0.699,4.247-0.744,6.279-0.812c2.565-0.085,5.145-0.052,7.712-0.179
							c0.575-0.027,1.652-0.08,2.63-0.322c-0.325,0.244-0.629,0.496-0.855,0.801c1.793-0.425,3.385,0.27,5.019-0.867
							c0.76-0.529,1.464-1.079,2.207-1.596c0.793-0.552,1.737-1.352,2.735-1.748c0.979,1.031,1.616,2.187,1.801,3.41
							c0.011-0.008,0.021-0.01,0.031-0.016c-1.796,1.975-4.056,3.665-5.623,5.783c-1.395,1.887-2.082,4.463-2.106,6.808
							c-0.035,3.872-0.167,7.704,0.745,11.521c0.479,1.993,1.16,3.752,1.925,5.642c0.559,1.374,2.086,2.651,3.078,3.74
							c1.632,1.795,3.55,3.284,5.374,4.866c1.205,1.045,2.118,1.987,2.923,3.284c-0.647,0.266-1.858,0.944-2.104,2.415
							c-0.339,2.025-2.121,5.388-5.261,3.072c-3.139-2.319-2.291-10.439-5.007-12.998c-2.713-2.557-5.173-7.225-5.259-13.499
							c-0.084-6.278,0.678-9.334,0.678-9.334s-13.147-7.978-20.317-2.632C279.141,85.146,285.15,92.726,278.799,94.14z"/>
						<path fill="#9D9D9D" d="M320.496,126.337l3.358-13.148c0.811,1.354,1.882,2.387,3.271,3.107
							c1.756,0.918,2.833,0.689,4.469-0.459c3.372-2.372,6.101-6.396,6.624-10.529c0.582,1.316,0.199,3.174,0.161,4.58
							c0.805-2.385,1.346-4.771,1.482-7.289c0.65,1.537,0.71,3.249,0.71,4.93c0.053-0.688,0.299-1.348,0.504-1.997
							c0.703-2.218,0.71-4.366,0.715-6.683c0.002-1.188-0.044-2.354-0.141-3.512l1.102,5.364c-0.047,3.006-0.493,6.322-1.505,9.982
							c-5.092,18.411-16.036,18.239-12.388,22.862c0,0-4.423,4.646-9.254,2.432C320.004,132.167,320.496,126.337,320.496,126.337z"
							/>
						<path fill="#9D9D9D" d="M341.24,92.142c0.189,1.07,0.32,2.131,0.41,3.195l-1.32-6.427
							C340.919,89.843,341.051,91.08,341.24,92.142z"/>
					</g>
					
						<path fill="none" stroke="#000000" stroke-width="0.75" stroke-linecap="round" stroke-linejoin="round" stroke-miterlimit="10" d="
						M306.63,82.432c0,0-13.147-7.978-20.317-2.632c-7.172,5.346-1.162,12.926-7.514,14.34c0.173-2.459-1.722-4.073-1.722-4.073
						s2.498,10.349-5.864,11.111c-0.058,0.851-1.16,11.451-1.16,11.451l-0.704,3.146c0,0-3.527-5.218-3.613-8.932
						c-0.083-3.712,1.272-6.595,1.018-6.595c-0.253,0-2.374-1.357-2.29-4.922c2.545,0.762,5.346-0.508,3.902-3.562
						c-1.441-3.057-3.903-9.415,3.689-15.864c7.597-6.449,17.139-10.27,26.537-12.049c9.397-1.784,17.88,2.203,18.645,7.295
						c4.834-2.969,13.065,2.799,16.544,7.041c3.479,4.243,12.557,14.086,7.467,32.495c-5.092,18.411-16.036,18.239-12.388,22.862
						c0,0-4.423,4.646-9.254,2.432c0.398-3.811,0.891-9.641,0.891-9.641l3.501-13.708c0,0-2.18,0.538-2.519,2.562
						c-0.339,2.025-2.121,5.388-5.261,3.072c-3.139-2.319-2.291-10.439-5.007-12.998c-2.713-2.557-5.173-7.225-5.259-13.499
						C305.868,85.487,306.63,82.432,306.63,82.432z"/>
					
						<path fill="none" stroke="#000000" stroke-width="0.75" stroke-linecap="round" stroke-linejoin="round" stroke-miterlimit="10" d="
						M317.236,71.147c0,0-5.571,4.355-6.943,7.354"/>
					<path fill="#E7D1C9" d="M317.236,128.577c0,0,1.783,2.638,5.685-1.008c3.902-3.648,7.636-10.32,6.448-12.812
						c-1.567-3.289-6.363-1.779-6.363-1.779"/>
					
						<path fill="none" stroke="#000000" stroke-width="0.75" stroke-linecap="round" stroke-linejoin="round" stroke-miterlimit="10" d="
						M317.236,128.577c0,0,1.783,2.638,5.685-1.008c3.902-3.648,7.636-10.32,6.448-12.812c-1.567-3.289-6.363-1.779-6.363-1.779"/>
					
						<path fill="none" stroke="#000000" stroke-width="0.75" stroke-linecap="round" stroke-linejoin="round" stroke-miterlimit="10" d="
						M325.806,115.239c0,0-2.8-1.329-3.478,0.789c-0.68,2.123,0.678,2.893,0,3.228c-0.68,0.338-2.432-1.412-2.021,0.565
						c0.407,1.978,1.211,1.978,2.719,1.807"/>
					
						<path fill="none" stroke="#000000" stroke-width="0.75" stroke-linecap="round" stroke-linejoin="round" stroke-miterlimit="10" d="
						M322.17,116.712c0,0,3.975-0.446,3.636,1.979"/>
					<circle fill="#FFFFFF" cx="294.958" cy="105.948" r="0.438"/>
					<circle fill="#FFFFFF" cx="277.518" cy="107.716" r="0.441"/>
					
						<path fill="none" stroke="#000000" stroke-width="0.75" stroke-linecap="round" stroke-linejoin="round" stroke-miterlimit="10" d="
						M306.745,136.574c-1.956,4.005-5.703,9.777-11.554,11.316"/>
					<path fill="#EDDDD7" d="M301.353,89.489c0.369-2.428-1.812-7.068-4.766-6.784c-1.244,0.117-3.067,0.712-3.009,2.271
						c0.066,1.732,2.338,3.495,3.402,4.701c0.664,0.753,1.563,2.471,2.767,2.224C300.7,91.704,301.226,90.336,301.353,89.489z"/>
					<path fill="#EDDDD7" d="M283.622,113.981c-0.051,0.15-0.089,0.286-0.109,0.401c-0.188,1.106-0.44,2.358-1.742,2.607
						c-0.62,0.114-1.466,0.075-1.356-0.79c0.128-1.017,1.466-1.825,1.871-2.786c0.245-0.577,0.585-2.935,1.674-2.352
						C284.839,111.53,283.828,113.356,283.622,113.981z"/>
					<path fill="#EDDDD7" d="M305.132,116.126c0.087,0.825-0.426,1.732-1.223,2.067c-1.017,0.418-1.421-0.445-2.086-1.075
						c-1.432-1.346-3.553-0.946-5.107-2.076c-0.575-0.416-1.158-1.099-0.843-1.871c0.346-0.84,1.978-1.283,2.809-1.438
						C301.643,111.175,304.8,112.979,305.132,116.126z"/>
					
						<path fill="none" stroke="#000000" stroke-width="0.75" stroke-linecap="round" stroke-linejoin="round" stroke-miterlimit="10" d="
						M277.077,90.066c0,0-3.884-3.453-3.072-7.372"/>
					
						<path fill="none" stroke="#000000" stroke-width="0.75" stroke-linecap="round" stroke-linejoin="round" stroke-miterlimit="10" d="
						M322.17,113.754c0,0,4.458-6.416,7.954-4.87"/>
					<path fill="#C7C7C7" d="M334.789,85.808c-1.271,0.302-3.4-2.518-4.433-3.182c-1.477-0.943-3.301-1.574-4.682-2.498
						c1.6,0.818,2.446,2.583,3.76,3.715c-1.851-1.021-3.403-2.119-5.577-2.383c-2.158-0.263-4.755,0.291-6.822-0.305
						c-1.512-0.434-2.875-2.082-2.771-3.68c0.236-3.664,4.636-4.111,7.45-4.346c3.205-0.27,6.955,2.439,8.647,5.006
						C330.724,78.683,335.78,85.576,334.789,85.808z"/>
					<path fill="none" stroke="#000000" stroke-linecap="round" stroke-linejoin="round" stroke-miterlimit="10" d="
						M277.915,105.864c0,0-1.124,0-2.271,0.74c-2.41,1.504-2.651,3.074-2.651,3.074l-1.701,0.871"/>
					<path fill="none" stroke="#000000" stroke-linecap="round" stroke-linejoin="round" stroke-miterlimit="10" d="M289.42,104.929
						c0,0,0.536-0.591,2.711-0.908c2.276-0.36,6.493,3.227,6.493,3.227s1.223,1.386,3.77,1.598"/>
				</g>
				<g>
					<g>
						<g>
							<g>
								<g>
									<path fill="#CCCCCC" stroke="#000000" stroke-linecap="round" stroke-linejoin="round" stroke-miterlimit="10" d="
										M233.535,450.135c-0.108,0.002-0.221-0.002-0.33-0.009c-1.94-0.146-3.395-1.836-3.25-3.776l12.153-170.747
										c0.144-1.94,1.83-3.389,3.773-3.247c1.94,0.146,3.395,1.836,3.25,3.773l-12.153,170.748
										C236.844,448.706,235.333,450.103,233.535,450.135z"/>
									<path fill="#BBBBBB" stroke="#000000" stroke-linecap="round" stroke-linejoin="round" stroke-miterlimit="10" d="
										M236.366,466.887l1.015-13.573l-8.779-0.654l-1.061,14.179"/>
									
										<rect x="227.946" y="446.605" transform="matrix(0.9972 0.0746 -0.0746 0.9972 34.1971 -16.1422)" fill="#B0C7E1" stroke="#000000" stroke-linecap="round" stroke-linejoin="round" stroke-miterlimit="10" width="10.567" height="6.391"/>
								</g>
							</g>
							<path opacity="0.2" d="M246.249,272.422c-3.509,48.499-9.168,129.781-13.612,194.484c0.358,0.002,0.713,0.014,1.072,0.014
								c0.888,0,1.771-0.023,2.657-0.033l1.015-13.571l0.879,0.065l0.475-6.373l-1.756-0.131l12.153-170.748
								C249.268,274.315,247.998,272.738,246.249,272.422z"/>
						</g>
						<g>
							<g>
								<g>
									<path fill="#CCCCCC" stroke="#000000" stroke-linecap="round" stroke-linejoin="round" stroke-miterlimit="10" d="
										M408.706,387.846l-7.989-112.243c-0.145-1.94-1.829-3.389-3.773-3.247c-1.939,0.146-3.394,1.836-3.249,3.773l8.46,118.861"
										/>
								</g>
							</g>
							<path opacity="0.2" d="M393.694,276.129l8.46,118.861c0.963-1.005,1.909-2.025,2.854-3.047
								c-3.104-44.635-6.202-88.7-8.433-119.521C394.827,272.738,393.558,274.315,393.694,276.129z"/>
						</g>
						<g>
							<path fill="#CCCCCC" stroke="#000000" stroke-linecap="round" stroke-linejoin="round" stroke-miterlimit="10" d="
								M235.825,403.308c1.394,0,1.691-1.538,1.879-3.311c0.203-1.929,0.031-3.449-1.515-3.701l-8.863-1.458
								c-1.536-0.271-2.085,1.216-2.289,3.144c-0.203,1.93,0.006,3.584,1.552,3.836l8.863,1.46
								C235.577,403.298,235.701,403.308,235.825,403.308z"/>
							<path opacity="0.2" d="M227.037,399.087l8.864,1.46c0.836,0.137,1.261,0.651,1.45,1.393
								c-0.259,0.816-0.696,1.368-1.526,1.368c-0.124,0-0.248-0.01-0.373-0.03l-8.863-1.46c-0.815-0.132-1.253-0.662-1.46-1.41
								C225.472,399.474,226.047,398.915,227.037,399.087z"/>
						</g>
						<g>
							<g>
								<g>
									<g id="XMLID_19_">
										<g>
											<path fill="#DDBDB1" d="M232.583,285.539l-0.211,2.321c-4.93-4.206-4.42-15.246-4.331-16.55
												c0.123,3.962,1.286,8.839,5.634,11.55l-0.211,2.764L232.583,285.539z"/>
											<path fill="#DDBDB1" d="M228.921,267.312c1.251,5.829,2.377,10.283,5.159,10.424l-0.405,5.124
												c-4.348-2.711-5.511-7.588-5.634-11.55c0-0.087,0-0.124,0-0.124c-0.089-3.24,0.492-5.846,0.58-6.178
												C228.64,265.677,228.728,266.452,228.921,267.312z"/>
											<path fill="#E7D1C9" d="M243.905,282.86c-1.515,0.143-1.938-3.186,0-5.686c1.954-2.483,3.415-6.112,3.556-7.238v-0.017
												c0.44-0.847,0.688-1.815,0.688-2.835c0-3.451-2.817-6.252-6.269-6.252c-3.469,0-6.269,2.801-6.269,6.252
												c0,0.264,0.018,0.51,0.054,0.775c-0.545,0.913-0.97,2.041-1.092,3.363l-0.493,6.513
												c-2.782-0.141-3.908-4.595-5.159-10.424c-0.193-0.86-0.281-1.636-0.3-2.304c0-0.019,0-0.038,0-0.038
												c-0.158-3.821,2.008-4.842,3.751-6.954c2.061-2.481,8.91-3.943,11.815-4.156c3.891-0.281,7.219,4.438,8.891,6.656
												c1.655,2.219,2.078,4.859,1.514,7.784c-0.544,2.903,0.318,7.341-3.45,9.982
												C247.374,280.925,245.438,282.72,243.905,282.86z"/>
										</g>
									</g>
								</g>
							</g>
							<path fill="#DDBDB1" d="M247.944,268.636c-0.115,0.45-0.273,0.882-0.483,1.284v0.017c-0.141,1.126-1.602,4.755-3.556,7.238
								c-1.938,2.5-1.515,5.828,0,5.686c1.532-0.141,3.469-1.936,7.236-4.577c3.728-2.614,2.926-6.981,3.437-9.887
								C253.237,270.313,251.153,271.185,247.944,268.636z"/>
						</g>
						<g>
							<path fill="none" stroke="#000000" stroke-linecap="round" stroke-linejoin="round" stroke-miterlimit="10" d="
								M234.069,277.741c-2.776-0.139-3.899-4.584-5.148-10.412c-1.248-5.826,1.388-6.799,3.45-9.296s8.905-3.957,11.813-4.166
								c3.886-0.275,7.216,4.438,8.882,6.661c1.665,2.222,2.08,4.857,1.525,7.772c-0.555,2.913,0.316,7.355-3.449,9.991
								s-5.709,4.44-7.235,4.579c-1.525,0.14-1.942-3.193,0-5.69c1.944-2.496,3.419-6.146,3.559-7.258"/>
							<path fill="none" stroke="#000000" stroke-linecap="round" stroke-linejoin="round" stroke-miterlimit="10" d="
								M228.614,264.981c0,0-3.145,12.758,5.062,17.893"/>
							<path fill="none" stroke="#000000" stroke-linecap="round" stroke-linejoin="round" stroke-miterlimit="10" d="
								M228.034,271.188c0,0-0.909,12.205,4.337,16.681"/>
						</g>
						<g>
							
								<circle fill="#B0C7E1" stroke="#000000" stroke-linecap="round" stroke-linejoin="round" stroke-miterlimit="10" cx="241.875" cy="267.099" r="6.266"/>
							<g>
								<g>
									<path fill="#CCCCCC" stroke="#000000" stroke-linecap="round" stroke-linejoin="round" stroke-miterlimit="10" d="
										M223.667,466.691l10.597-113.735c0.181-1.937-1.243-3.652-3.18-3.834c-1.941-0.176-3.653,1.242-3.832,3.181
										l-10.621,113.992"/>
									<path fill="#CCCCCC" stroke="#000000" stroke-linecap="round" stroke-linejoin="round" stroke-miterlimit="10" d="
										M236.976,289.477c-0.109,0-0.22-0.004-0.332-0.015c-1.936-0.182-3.359-1.897-3.179-3.833l1.104-14.403
										c0.438-4.678,4.574-6.817,5.043-7.047c1.75-0.85,3.855-0.12,4.708,1.628c0.851,1.75,0.123,3.856-1.628,4.708
										c0,0,0,0,0.002,0c0.006,0-1.042,0.602-1.113,1.365l-1.104,14.402C240.309,288.108,238.773,289.477,236.976,289.477z"/>
									
										<rect x="229.462" y="285.812" transform="matrix(0.9957 0.0929 -0.0929 0.9957 30.6892 -20.3546)" fill="#B0C7E1" stroke="#000000" stroke-linecap="round" stroke-linejoin="round" stroke-miterlimit="10" width="8.805" height="66.962"/>
								</g>
							</g>
							<path opacity="0.2" d="M243.903,265.156c-2.501,1.522-4.879,3.652-5.267,6.396c-0.497,3.513-9.899,107.109-17.75,195.012
								c0.925,0.05,1.854,0.087,2.781,0.127l10.597-113.733l0.877,0.08l6.212-66.673l-0.877-0.083l1.104-14.402
								c0.071-0.764,1.119-1.365,1.113-1.365c-0.002,0-0.002,0-0.002,0c1.751-0.852,2.479-2.958,1.628-4.708
								C244.204,265.568,244.062,265.354,243.903,265.156z"/>
						</g>
						<g>
							<g>
								<g id="XMLID_20_">
									<g>
										<path fill="#E7D1C9" d="M409.486,267.093c0-3.451-2.8-6.251-6.269-6.251c-1.673,0-3.187,0.651-4.297,1.708
											c-0.034,0.054-0.088,0.089-0.123,0.124c-1.901,1.727-3.345,2.94-2.376,6.886c0.968,4.014-3.206,9.015-4.579,6.09
											c-1.391-2.904-5.141-10.405-4.031-12.624c1.108-2.217,4.577-8.732,6.938-10.265c2.359-1.531,12.765,1.25,12.765,1.25
											s2.501,2.359,4.174,2.642c1.654,0.264,5.546,1.39,5.687,6.232c0,0,1.251,1.674,0.968,5.143c0,0,0.687,5.826-2.499,9.297
											c-1.409,1.531-3.082,2.763-4.561,3.679l-0.123-1.496l-0.194-2.554l-0.44-5.722c-0.122-1.319-0.545-2.447-1.091-3.362
											C409.468,267.603,409.486,267.357,409.486,267.093z"/>
									</g>
								</g>
							</g>
							<g>
								<path fill="#DDBDB1" d="M396.422,269.56c-0.449-1.828-0.364-3.055,0.026-4.031c-1.521,0.6-3.569,0.753-5.955-0.372
									c-1.147-0.54-2.005-1.332-2.672-2.152c-0.002,0.007-0.007,0.016-0.01,0.021c-1.109,2.219,2.641,9.72,4.031,12.624
									C393.216,278.574,397.39,273.573,396.422,269.56z"/>
								<path fill="#DDBDB1" d="M417.374,262.885c-0.049-1.685-0.566-2.896-1.272-3.804c-1.657,2.749-2.688,9.322-2.878,11.959
									c-0.099,1.338-1.069,3.553-2.265,5.834l0.006,0.079l0.194,2.554l0.123,1.496c1.479-0.916,3.151-2.147,4.561-3.679
									c3.186-3.471,2.499-9.297,2.499-9.297C418.625,264.559,417.374,262.885,417.374,262.885z"/>
							</g>
						</g>
						<g>
							<g>
								<path fill="none" stroke="#000000" stroke-linecap="round" stroke-linejoin="round" stroke-miterlimit="10" d="
									M398.914,262.557c-1.954,1.781-3.472,2.97-2.5,6.994c0.973,4.026-3.191,9.021-4.579,6.105
									c-1.387-2.915-5.134-10.406-4.023-12.627c1.109-2.219,4.578-8.743,6.938-10.269c2.359-1.524,12.767,1.248,12.767,1.248
									s2.499,2.357,4.165,2.637c1.665,0.279,5.551,1.389,5.689,6.245c0,0,1.247,1.666,0.971,5.135c0,0,0.694,5.828-2.498,9.297
									c-3.19,3.468-7.77,5.41-8.325,5.688"/>
								<path fill="none" stroke="#000000" stroke-linecap="round" stroke-linejoin="round" stroke-miterlimit="10" d="
									M415.149,260.528c0,0-1.388,9.021-2.497,12.768c-1.11,3.748-4.166,7.357-5.969,7.634"/>
								<path fill="none" stroke="#000000" stroke-linecap="round" stroke-linejoin="round" stroke-miterlimit="10" d="
									M416.551,267.657c0,0,0.681,9.109-9.312,14.66"/>
							</g>
							<path fill="none" stroke="#000000" stroke-linecap="round" stroke-linejoin="round" stroke-miterlimit="10" d="
								M406.321,259.358c0,0,2.058,3.572,2.55,5.026"/>
						</g>
						<g>
							
								<circle fill="#B0C7E1" stroke="#000000" stroke-linecap="round" stroke-linejoin="round" stroke-miterlimit="10" cx="403.226" cy="267.099" r="6.266"/>
							<g>
								<g>
									<path fill="#CCCCCC" stroke="#000000" stroke-linecap="round" stroke-linejoin="round" stroke-miterlimit="10" d="
										M419.885,374.165l-2.037-21.862c-0.18-1.938-1.89-3.356-3.833-3.181c-1.936,0.182-3.359,1.897-3.179,3.834l2.723,29.226"/>
									<path fill="#CCCCCC" stroke="#000000" stroke-linecap="round" stroke-linejoin="round" stroke-miterlimit="10" d="
										M408.125,289.477c0.109,0,0.221-0.004,0.331-0.015c1.937-0.182,3.36-1.897,3.18-3.833l-1.103-14.403
										c-0.438-4.678-4.574-6.817-5.045-7.047c-1.748-0.85-3.855-0.12-4.707,1.628c-0.851,1.75-0.122,3.856,1.627,4.708
										c0,0,0,0-0.002,0c-0.004,0,1.041,0.602,1.114,1.365l1.104,14.402C404.793,288.108,406.327,289.477,408.125,289.477z"/>
									
										<rect x="406.834" y="285.812" transform="matrix(-0.9957 0.093 -0.093 -0.9957 850.3712 598.9757)" fill="#B0C7E1" stroke="#000000" stroke-linecap="round" stroke-linejoin="round" stroke-miterlimit="10" width="8.804" height="66.962"/>
								</g>
							</g>
							<path opacity="0.2" d="M401.196,265.156c-0.156,0.198-0.3,0.412-0.415,0.65c-0.851,1.75-0.122,3.856,1.627,4.708
								c0,0,0,0-0.002,0c-0.004,0,1.041,0.602,1.114,1.365l1.104,14.402l-0.878,0.083l6.213,66.673l0.877-0.08l2.723,29.224
								c0.936-1.132,1.854-2.279,2.768-3.43c-5.19-57.466-9.528-104.843-9.861-107.199
								C406.076,268.809,403.697,266.679,401.196,265.156z"/>
						</g>
						<g>
							<path fill="#B0C7E1" d="M408.855,324.15c-0.308,0-0.62-0.039-0.931-0.122c-0.186-0.054-18.72-5.08-30.406-5.08H266.943
								c-11.686,0-30.22,5.026-30.406,5.08c-1.873,0.513-2.159-0.814-2.672-2.691c-0.514-1.876-1.062-3.592,0.814-4.104
								c0.795-0.218,19.628-5.327,32.264-5.327h110.575c12.635,0,31.468,5.109,32.264,5.327c1.876,0.513,2.384,2.267,1.87,4.143
								C411.226,322.939,410.404,324.15,408.855,324.15z"/>
							<path fill="none" stroke="#000000" stroke-linecap="round" stroke-linejoin="round" stroke-miterlimit="10" d="
								M411.652,321.375c-0.427,1.564-1.248,2.775-2.797,2.775c-0.308,0-0.62-0.039-0.931-0.122
								c-0.186-0.054-18.72-5.08-30.406-5.08H266.943c-11.686,0-30.22,5.026-30.406,5.08c-1.873,0.513-2.159-0.814-2.672-2.691"/>
							<path fill="none" stroke="#000000" stroke-linecap="round" stroke-linejoin="round" stroke-miterlimit="10" d="
								M234.68,317.232c0.795-0.218,19.628-5.327,32.264-5.327h110.575c12.635,0,31.468,5.109,32.264,5.327"/>
							<path opacity="0.2" d="M409.782,320.495c-0.796-0.219-19.629-5.328-32.264-5.328H266.943
								c-12.636,0-31.469,5.109-32.264,5.328c-0.418,0.113-0.699,0.297-0.904,0.518c0.031,0.107,0.06,0.216,0.09,0.324
								c0.513,1.877,0.799,3.204,2.672,2.691c0.187-0.054,18.721-5.08,30.406-5.08h110.575c11.687,0,30.221,5.026,30.406,5.08
								c0.311,0.083,0.623,0.122,0.931,0.122c1.386,0,2.188-0.972,2.648-2.299C411.182,321.217,410.628,320.728,409.782,320.495z"/>
						</g>
						<g>
							<path fill="#CCCCCC" stroke="#000000" stroke-linecap="round" stroke-linejoin="round" stroke-miterlimit="10" d="
								M406.038,277.255H239.062c-1.46,0-1.35-1.183-1.35-2.641s-0.11-2.643,1.35-2.643h166.976c1.46,0,1.351,1.185,1.351,2.643
								S407.498,277.255,406.038,277.255z"/>
							<path opacity="0.2" d="M406.038,274.614H239.062c-0.976,0-1.246,0.534-1.32,1.321c0.074,0.785,0.345,1.319,1.32,1.319
								h166.976c0.977,0,1.245-0.534,1.321-1.319C407.283,275.148,407.015,274.614,406.038,274.614z"/>
						</g>
					</g>
				</g>
			</g>
			<path fill="#0160BA" d="M165.815,250.462c-2.496,4.312-14.017,18.928-14.017,18.928l-8.713,0.89l-3.608-8.118
				c0,0,8.545-15.537,13.471-19.71l8.392,2.592"/>
			<g>
				<g>
					<g id="XMLID_27_">
						<g>
							<path fill="#CB9A80" d="M229.572,296.087c-2.853-1.552-5.036-2.748-5.036-2.748
								C226.175,294.465,227.882,295.366,229.572,296.087z M242.726,294.501c3.381,1.039,5.723,1.919,6.021,2.642
								c0.282,0.74,0.282,3.681-3.381,2.8c-2.888-0.705-9.279-1.022-15.741-3.838c4.72,2.57,11.234,6.075,12.52,6.619
								c2.043,0.881,2.641,2.342,1.021,2.941c-1.62,0.581-14.21-1.181-23.313-7.026c0.23,0.422,4.139,7.22,6.005,8.628
								c1.901,1.479,4.983,6.604,3.081,7.344c-1.919,0.738-16.728-11.745-19.526-15.109c-2.782-3.38-9.086-9.982-12.325-10.863
								c-0.193-0.053-0.546-0.158-1.021-0.316c-7.413-2.448-46.819-17.026-63.389-31.236c-3.469-2.977-6.162-5.493-8.397-7.748
								c-2.219-2.271-3.962-4.312-5.564-6.338c-1.497-1.936-2.87-3.855-4.332-6.004c8.875-4.209,19.563-7.678,30.039-7.131
								c1.937,4.244,3.415,7.816,4.103,9.914c0,0,17.396,10.352,24.651,15.635c4.384,3.204,12.977,8.328,20.987,12.412
								c5.212,2.66,10.16,4.895,13.559,5.846c0,0,11.233-3.081,16.814-2.939c5.564,0.158,6.886-1.162,8.804-1.901
								c1.902-0.739,3.522-2.5,4.685-1.322c1.18,1.181-1.32,9.245-10.848,10.126c0,0,4.245,2.94,7.484,4.103
								c3.223,1.18,8.505,3.821,10.705,5.282c2.201,1.479,4.401,2.94,3.521,4.26c-0.88,1.32-1.761,1.761-3.961,1.021
								c-2.131-0.705-16.111-5.141-16.991-5.405C228.604,287.283,239.45,293.515,242.726,294.501z"/>
						</g>
					</g>
				</g>
				<path fill="#C18362" d="M136.827,254.958c-1.6-4.158-10.873-7.036-12.473-10.873c-1.165-2.796,12.405-10.326,19.881-14.223
					c-10.417-0.496-21.03,2.951-29.852,7.133c1.461,2.148,2.835,4.068,4.332,6.004c1.602,2.026,3.345,4.067,5.564,6.338
					c2.235,2.255,4.929,4.771,8.397,7.748c16.569,14.21,55.976,28.788,63.389,31.236c0.476,0.158,0.828,0.264,1.021,0.316
					c0.784,0.213,1.753,0.768,2.804,1.527c0.07-0.117,0.07-0.232-0.062-0.347C197.271,287.579,138.427,259.116,136.827,254.958z"/>
				<g>
					<path fill="none" stroke="#000000" stroke-linecap="round" stroke-linejoin="round" stroke-miterlimit="10" d="
						M143.431,227.721c2.404,5.188,4.294,9.607,5.088,12.058c0,0,17.387,10.343,24.65,15.627
						c7.263,5.28,25.971,15.845,34.555,18.266c0,0,11.225-3.083,16.801-2.935c5.576,0.147,6.896-1.172,8.805-1.906
						c1.907-0.734,3.521-2.496,4.695-1.322c1.173,1.177-1.321,9.245-10.858,10.126c0,0,4.254,2.934,7.482,4.107
						c3.229,1.175,8.511,3.814,10.712,5.281c2.201,1.47,4.401,2.937,3.522,4.256c-0.881,1.32-1.762,1.759-3.964,1.027
						c-2.199-0.732-17.02-5.429-17.02-5.429s11.445,6.601,14.82,7.63c3.374,1.028,5.722,1.906,6.015,2.641
						c0.295,0.735,0.295,3.67-3.374,2.788c-3.668-0.879-12.912-1.172-20.836-6.602c0,0,15.553,8.51,17.608,9.39
						c2.055,0.881,2.641,2.35,1.026,2.936c-1.613,0.587-14.233-1.173-23.329-7.043c0,0,4.106,7.188,6.015,8.656
						c1.908,1.468,4.988,6.604,3.081,7.338c-1.906,0.733-16.726-11.738-19.514-15.114c-2.788-3.375-9.098-9.978-12.325-10.858
						s-46.77-16.423-64.416-31.547c-10.271-8.804-13.742-13.484-18.29-20.088"/>
					<path fill="none" stroke="#000000" stroke-linecap="round" stroke-linejoin="round" stroke-miterlimit="10" d="M112.275,238.03
						c9.252-4.647,20.831-8.754,32.142-8.16"/>
					<path fill="none" stroke="#000000" stroke-linecap="round" stroke-linejoin="round" stroke-miterlimit="10" d="
						M130.251,251.002c0,0,3.081,0.879,4.621,3.742"/>
				</g>
			</g>
		</g>
		<path fill="none" stroke="#000000" stroke-linecap="round" stroke-linejoin="round" stroke-miterlimit="10" d="M298.624,107.247
			c0,0,2.885,0.75,4.813-0.205"/>
	</g>
	
		<circle fill="none" stroke="#000000" stroke-linecap="round" stroke-linejoin="round" stroke-miterlimit="10" cx="233.711" cy="233.71" r="233.211"/>
</g>
</svg>
