<?xml version="1.0" encoding="utf-8"?>
<!-- Generator: Adobe Illustrator 22.0.1, SVG Export Plug-In . SVG Version: 6.00 Build 0)  -->
<svg version="1.1" id="Layer_1" xmlns="http://www.w3.org/2000/svg" xmlns:xlink="http://www.w3.org/1999/xlink" x="0px" y="0px"
	 width="327.8px" height="327.7px" viewBox="0 0 327.8 327.7" style="enable-background:new 0 0 327.8 327.7;" xml:space="preserve"
	>
<style type="text/css">
	.st0{fill:#955E43;}
	.st1{fill:#83482C;}
	.st2{fill:none;stroke:#000000;stroke-linecap:round;stroke-linejoin:round;stroke-miterlimit:10;}
	.st3{fill:#F28474;}
	.st4{fill:#E36E5B;}
	.st5{fill:#101010;stroke:#000000;stroke-linecap:round;stroke-linejoin:round;stroke-miterlimit:10;}
	.st6{fill:#FFFFFF;}
	.st7{fill:#FFC13B;}
	.st8{fill:#E39C00;}
	.st9{fill:#CEEEFB;}
	.st10{opacity:0.2;fill:#006AD1;enable-background:new    ;}
	.st11{fill:#874829;}
	.st12{fill:#A97D67;}
	.st13{fill:#FFFFFF;stroke:#000000;stroke-linecap:round;stroke-linejoin:round;stroke-miterlimit:10;}
	.st14{fill:#864029;}
</style>
<g>
	<g>
		<path class="st0" d="M150.1,132.8c0,0,43.2,30.1,51.1,35.1c7.9,5,36.2,26,44.4,28.1c8.2,2,26.9,7.3,26.9,7.3s-22.8-33.3-23.7-33.6
			c-0.9-0.3-35.1-22.5-43-30.1s-36.5-35.9-51.4-38.9c-14.9-2.9-21,2-21.6,4.4C132.3,107.3,150.1,132.8,150.1,132.8z"/>
		<path class="st1" d="M202.3,159.7c-20.4-14.6-50.6-53.4-50.6-53.4l-5.7,7l-2.8,9.4c3.7,5.5,6.9,10.1,6.9,10.1s43.2,30.1,51.1,35.1
			c7.9,5,36.2,26,44.4,28.1c6.2,1.5,18.3,4.9,23.9,6.5C250.9,191.1,216.7,170.1,202.3,159.7z"/>
		<path class="st2" d="M150.1,132.8c0,0,43.2,30.1,51.1,35.1c7.9,5,36.2,26,44.4,28.1c8.2,2,26.9,7.3,26.9,7.3s-22.8-33.3-23.7-33.6
			c-0.9-0.3-35.1-22.5-43-30.1s-36.5-35.9-51.4-38.9c-14.9-2.9-21,2-21.6,4.4C132.3,107.3,150.1,132.8,150.1,132.8z"/>
	</g>
	<path class="st1" d="M103.3,94.6c0.1,0,0.1,0,0.2-0.1c0-0.6,0-1.1,0.1-1.7c0.1-0.4,0.1-0.9,0.2-1.3c-0.3-0.2-0.6-0.5-0.9-0.7
		c-0.1,1.3-0.1,2.6-0.1,4C103,94.7,103.1,94.7,103.3,94.6z"/>
	<path class="st3" d="M107.5,83.1c0,0-21-3.8-36.5,2c-15.6,5.8-25.9,32.2-27.6,55.8c-1.7,23.6-5.5,39.2-7.1,46.2
		c-1.7,6.9-5.4,7.8-6.1,9.9c-0.7,2,0,4.2-1.1,5.3C7.6,223.8,5,242.9,0.5,252.7c0,0,49.3,23.9,76.4,24c28.9,0.1,44.5-13.8,44.5-13.8
		s-3.9-11.7-2.1-30.1c2-20.2,4.7-30.1,4-30.6c-0.7-0.5,11.8-6.7,16-11.6c4.2-4.9,7.5-8.9,7.7-11c0.2-2.1-1.9-24.6-0.3-28.1
		c1.6-3.5,11.8-37.5,4.4-50.8c-5.9,1.1-13.4,7.2-13.4,7.2s7.9,27.4-7.2,26.6C103.6,133.3,107.5,83.1,107.5,83.1z"/>
	<path class="st4" d="M48.2,138.6c0.7,8.6,1.9,16.8,4,25.1c1.8,7.1,3.2,14.8,1.3,21.8c0,1.9-0.7,3.7-1.9,5.2c-0.9,1-1.4,1.9-2.6,2.5
		c-2.9,1.4-5.2,1.7-8.4,1.2c-2.4-0.3-5.4-1.2-7.6,0c-1.7,0.9-2.7,2.5-3.1,4.3c-1.5,8,3.6,10.6,10.5,14c10,5,19.9,9.9,29.8,15
		c10.5,5.4,21.7,9.2,33.5,5.5c12.4-3.9,13.3-18.6,19.7-31.1c5-4.2,11.7-6.5,16.1-11.5c4.2-4.9,7.5-8.9,7.7-11
		c0.1-1.1-0.4-7.7-0.7-14.3c-1.7,6-4.3,12.6-8,17.6c-10.5,17.8-38.5,9.6-51.2-2.2c-7.4-6.9-12.5-16.1-10.5-26.5
		c1.8-9.2,7.1-16.9,10.6-25.4c1.2-2.9,2.3-5.8,3.2-8.8c0.5-3.6,1.1-7.2,1.8-10.8c0.1-1.6,0-3.2-0.2-4.9c-0.9-7.9-4.1-15.2-8-22
		c-4.4,0.4-9,1.3-13.2,2.8c-8,2.9-14.6,11.3-19.3,22c1.1,1.9,1.3,4.4-0.2,7.1C47.3,121.5,47.6,130.4,48.2,138.6z"/>
	<path class="st2" d="M121.4,263c0,0-3.9-11.7-2.1-30.1c2-20.2,4.7-30.1,4-30.6c-0.7-0.5,11.8-6.7,16-11.6c4.2-4.9,7.5-8.9,7.7-11
		c0.2-2.1-1.9-24.6-0.3-28.1c1.6-3.5,11.8-37.5,4.4-50.8c-5.3,1-13.4,7.2-13.4,7.2s7.9,27.4-7.2,26.6c-27.1-1.3-23.2-51.5-23.2-51.5
		s-21-3.8-36.5,2c-15.6,5.8-25.9,32.2-27.6,55.8c-1.7,23.6-5.5,39.2-7.1,46.2c-1.7,6.9-5.4,7.8-6.1,9.9c-0.7,2,0,4.2-1.1,5.3
		C7.6,223.8,5,242.9,0.5,252.7"/>
	<path class="st2" d="M60,135.5c0,0,10.1,12.8,15.1,15.3"/>
	<path class="st2" d="M61.4,132.4c0.5,0.6,14.2,8.6,17.3,10.3"/>
	<path class="st2" d="M65.8,178.4c0.8,0.7,19.1,8.1,35.3,11.1"/>
	<path class="st2" d="M131.3,196.9c0,0-6.3,3.8-13.3,1.5"/>
	<g>
		<path class="st0" d="M138.9,107.8c3.3-2.7,11.4-8.3,15.1-7.7s7.6,12.3,14.6,12.3c2.8,0,3.6-3.5,4.7-4.7c1.1-1.2,3.5,0.6,4.8-0.3
			c1.6-1.1,0.7-3.8,0.7-3.8s2.3,1.3,2.3,1.2c1.2,0.3,2.3,0.4,2.9-1.6c0.4-1.4,0.5-0.8,1.4-1.6c3,2.1,5.6,1.6,6,0.3
			c0.3-1.3,1.6-7.6,7.4-13.1c5.9-5.5,15.2-20.3,15.2-20.3s0.7-13.9-10.8-27.9s-32.2-21.8-46.8-10.2c-14.6,11.6-13.9,33.7-22.1,41.1
			c-4.1,3.7-12.8,9.9-17.2,10.7c0,0-7.3,0.7-11.7,0.2c-3.7,6.1-0.7,32.3-0.7,32.3s5.8,21.8,23.9,23.7
			C146.7,140.3,138.9,107.8,138.9,107.8z"/>
		<path class="st1" d="M210.7,56.4c-1,1.6-1.7,3.6-3.3,4.8c-1.2,0.9-2.8,1.1-4.3,1.2c-4.9,0.6-9.6-1.1-14.5-0.8
			c-1.1,0.1-3.5,0.3-4,1.6c-0.2,0.6-0.1,1.6-0.2,2.3c-0.1,1,0.1,1.9,0.9,2.5c0.9,0.8,2,1.3,3,2c1,0.8,2.1,1.6,3.1,2.4
			c0.6,0.5,2.2,1.3,2.3,2.2c0.1,0.9-1.3,2.1-1.6,2.9c-0.4,0.9-0.9,1.7-1.8,2.1c-1.3,0.5-3,0.2-3.6,1.6c-0.7,1.8,0,4.1-0.2,6
			c-0.1,1.3-0.3,2.4-0.9,3.7c-0.9,2-2.3,4.3-4,5.6c-1.8,1.4-3.5,1.1-5.7,1.5c-0.6,0.1-1.2,0.3-1.6,0.6c-0.9,0.7-1.3,2.2-2.2,2.6
			c-0.9,0.5-3,0.2-4,0.1c-2.6-0.2-5.9-0.3-8.2-1.6c-2.4-1.4-4.7-3.3-6.2-5.8c-0.7-1.2-1.1-2.4-1.3-3.8c-0.1-0.8-0.1-1.7-0.2-2.5
			c0-0.3-0.5-2.1-0.4-2.3c-0.9,1.1-1.7,2.1-2.5,3.2c-1.1,1.8-2.2,3.6-3.5,5.3c-3.2,4.4-7.4,5.6-6.9,11.8c-0.1-0.7-0.2,2,0.3,1.6
			c1.1-1,2.4-1.9,3.6-2.8c0.5-0.3,1-0.6,1.5-0.8c4.3-3.3,7.3-3.8,9.7-3.4c3.7,0.6,7.6,12.3,14.6,12.3c2.8,0,3.6-3.5,4.7-4.7
			c1.1-1.2,3.5,0.6,4.8-0.3c1.6-1.1,0.7-3.8,0.7-3.8s2.3,1.3,2.3,1.2c1.2,0.3,2.3,0.4,2.9-1.6c0.4-1.4,0.5-0.8,1.4-1.6
			c3,2.1,5.6,1.6,6,0.3c0.3-1.3,1.6-7.6,7.4-13.1c1-0.9,2-2.1,3.1-3.4c0.7-0.9,1.5-1.8,2.2-2.7c0.1-0.1,0.1-0.2,0.2-0.2
			c0.7-0.9,1.4-1.8,2.1-2.8c0,0,0-0.1,0.1-0.1c1.1-1.5,2.2-3.1,3.3-4.7c0.1-0.2,0.2-0.3,0.3-0.5c1.1-1.6,2.1-3.2,3.2-4.8
			c0,0,0,0,0,0c0.2-0.4,0.5-0.8,0.7-1.1c0,0,0.1-1.8-0.3-4.7C212.9,61.3,211.4,58.9,210.7,56.4z"/>
		<path class="st2" d="M138.9,107.8c3.3-2.7,11.4-8.3,15.1-7.7s7.6,12.3,14.6,12.3c2.8,0,3.6-3.5,4.7-4.7c1.1-1.2,3.5,0.6,4.8-0.3
			c1.6-1.1,0.6-3.8,0.6-4c3.4,2.3,4.8,1.7,5.3-0.2c0.4-1.4,0.5-0.8,1.4-1.6c3,2.1,5.6,1.6,6,0.3c0.3-1.3,1.6-7.6,7.4-13.1
			c5.9-5.5,15.2-20.3,15.2-20.3s0.7-13.9-10.8-27.9s-32.2-21.8-46.8-10.2c-14.6,11.6-13.9,33.7-22.1,41.1
			c-4.1,3.7-12.8,9.9-17.2,10.7c0,0-7.3,0.7-11.7,0.2c-3.7,6.1-0.7,32.3-0.7,32.3s5.8,21.8,23.9,23.7
			C146.7,140.3,138.9,107.8,138.9,107.8z"/>
		<path class="st5" d="M146.3,36.2c-0.6-0.6-1.8-0.3-2.6-0.6c-1.1-0.3-2.1-1-3.1-1.6c-1.2-0.8-2.5-1.7-3.1-3
			c-0.2-0.4-0.3-0.8-0.5-1.1c-0.2-0.2-0.4-0.3-0.7-0.5c-1.1-0.6-2.2-1-3.1-1.8c-0.9-0.8-1.6-2-1.3-3.1c0.1-0.5,0.4-0.9,0.4-1.4
			c0.1-0.7-0.3-1.4-0.5-2.1c-0.4-1.3-0.2-2.7,0.6-3.7c0.4-0.6,0.9-1.1,1-1.8c0-0.4-0.2-0.8-0.3-1.2c-0.7-2.2,0.7-4.8,3-5.4
			c0.3-0.1,0.7-0.2,1-0.4c0.2-0.2,0.4-0.4,0.5-0.6c0.7-1.1,1.3-2.2,2.2-3.1s2.1-1.6,3.4-1.6c2.5-2.4,6.6-3,9.8-1.4
			c0.2,0.1,0.4,0.2,0.7,0.2c0.3,0,0.5-0.3,0.7-0.5c0.9-1,2.6-1.3,4-1s2.6,1.1,3.9,1.9c1.3-1,3.2-1.2,4.8-0.6
			c1.6,0.6,2.9,1.9,3.7,3.3c0.2,0.4,0.4,0.8,0.7,1.1c0.3,0.2,0.6,0.4,1,0.5c1.5,0.5,3.1,1.2,4,2.6c0.9,1.4,0.7,3.2-0.3,4.4
			c0.1-0.1,0.9,1.5,1,1.7c0.2,0.8,0.2,1.6,0,2.4c-0.4,1.1-0.9,2-1.8,2.7c-1.8,1.2-3.8,1.9-5.7,2.9c-4.5,2.5-8.9,4.9-13.4,7.4
			C152.8,32.6,149.4,34.4,146.3,36.2z"/>
		<path class="st4" d="M178,19c0,0-8.6-6.7-19.9-1.3c-3.4,1.6-14.2,10.5-12.2,17.1c1.9,6.6,3.8,4.6,3.8,4.6s11.2-9.4,11.5-9.8
			C161.4,29.2,178,19,178,19z"/>
		<path class="st5" d="M217,66.2c-1,1.6-2.6,2.9-4.1,4.1c-2.3-1.3-4.6-2.7-6.8-4c-0.7-0.4-1.4-0.8-2.1-1c-1-0.2-2.1,0-3.2,0.3
			c-1.8,0.5-3.6,1.2-5.2,2.1c-3.4,1.9-5,1.6-8.3-0.3c-2.6-1.5-5.7-3.5-8.8-3.2c-5.6,0.5-7.8,1.5-9.7-0.2c-2-1.7,0-7.9-2.8-9.3
			c-2.9-1.4-13.4,4.8-17.2,7.4c-2.2,1.5-7.7,6.3-10.8,5.2c-1-0.4-0.6-0.6-0.9-1.4c-0.2-1-0.6-1.9-0.9-2.9c-0.7-2.1-0.6-4.4,0.3-6.4
			c0.3-0.7,0.7-1.4,0.8-2.1c0.1-0.5,0-1-0.1-1.5c-0.2-2.1,0.3-4.4,1.6-6.1c0.4-0.5,0.9-1,1.2-1.6c0.2-0.5,0.3-1.1,0.4-1.7
			c0.4-1.6,1.5-3,2.9-3.8c0.5-0.3,1-0.5,1.3-0.9c0.3-0.4,0.4-0.9,0.4-1.4c0.3-2.1,1.1-4.4,3-5.5c0.5-0.3,1-0.4,1.4-0.8
			c1-0.8,1.1-2.3,1.7-3.5c0.9-1.8,3-2.9,5-2.6c0.1-1.4,1.3-2.6,2.6-3.1c1.4-0.5,2.9-0.4,4.4-0.4c1-0.9,2.2-1.5,3.3-2.2
			c1.3-0.8,2.1-0.7,3.5,0c0.6,0.3,1.4,0.6,2,0.4c0.6-0.2,1.1-0.7,1.5-1.2c0.8-0.9,1.8-1.6,3-1.9c1.2-0.3,2.6,0.1,3.3,1.1
			c0.8-0.5,1.8-1,2.7-0.7c0.9,0.4,1.4,1.5,2.3,1.8c0.6,0.2,1.2,0,1.8-0.1c2.7-0.4,5.6,1.3,6.6,3.8c1-0.2,2.1,0,3,0.4
			c0.5,0.2,0.9,0.5,1.2,0.9c0.3,0.3,0.4,0.7,0.6,1c0.6,1.1,1.7,1.9,2.7,2.6c1,0.7,1.9,1.3,3,1.8c0.5,0.3,1.1,0.6,1.4,1
			c0.7,0.9,0.6,2,0.5,3.1c1.7,0,2.9,1.1,4,2.3c1.2,1.4,1.7,3.2,1.6,4.9c0,0.4,0,0.8,0.2,1.1c0.2,0.3,0.5,0.4,0.8,0.6
			c3,1.6,4.4,5.6,2.9,8.6c2.5,2.1,2.9,5.5,1.7,8.3c1.9,1.8,1.6,4.6,0.4,6.6C217,66.2,217,66.2,217,66.2z"/>
		<path class="st5" d="M188.8,77.2c0.2-0.1,4.3,0.9,6.2,1.5c1.8,0.6,4.8,4.3,4.8,4.3l-0.6,1.7c0,0-3.4-4.2-4.7-4.9
			C193.1,79,188.8,77.2,188.8,77.2z"/>
		<path class="st2" d="M183.8,99c0,0,1.7,0.4,2.3,1.7"/>
		<path class="st2" d="M182.4,98.8c0,0,0.1-2.9,2.6-3.4"/>
		<path class="st2" d="M175.8,99.1c0,0-1.7,0.5-2,1.2"/>
		<path class="st2" d="M156,101.5c0,0-5.8-9.8-2.7-20.2"/>
		<path class="st0" d="M167,64.1c0,0,3.1-6,1.2-9.4c-1.9-3.4-9.6-1.2-13,4.4c-3.4,5.6-2.2,11.6,2.9,12.2"/>
		<path class="st2" d="M167,64.1c0,0,3.1-6,1.2-9.4c-1.9-3.4-9.6-1.2-13,4.4c-3.4,5.6-2.2,11.6,2.9,12.2"/>
		<path class="st2" d="M166,56.5c0,0-0.8,4.4-2.4,5.7c-1.7,1.3-3.5,1.5-3.7,2.1c-0.2,0.7-1.1,2-1.4,1.4c-0.2-0.6,0.6-3.5-0.9-4"/>
		<path class="st2" d="M174.8,99.5c0,0,1.4,2.2,3.9,3.9"/>
		<path class="st6" d="M186,82.9c0,0,3.5-0.2,6.9,3.4c-0.3,1.5-1.2,2.4-1.2,2.4s-1.7,0.1-3.6-2.1C186.3,84.4,186,82.9,186,82.9z"/>
		<path class="st2" d="M186,82.9c0,0,3.5-0.2,6.9,3.4"/>
		<path class="st5" d="M189.3,85.3c-0.5,0.6-0.7,1.2-0.8,1.8c0.7,0.7,1.3,1.1,1.8,1.4c0.5-0.2,1-0.6,1.5-1.2
			c0.3-0.4,0.6-0.9,0.7-1.3c-0.7-0.7-1.4-1.2-2.1-1.6C190.1,84.5,189.7,84.8,189.3,85.3z"/>
		<path class="st2" d="M186.7,80.9c0,0,4.4,0.5,8.9,5.6"/>
		<line class="st2" x1="193.7" y1="84.5" x2="192.8" y2="85.6"/>
	</g>
	<path class="st7" d="M165.7,229.4c26.3-14.7,61.7-32.6,70.1-45.9s45.2-16.1,67.6-7.7c22.4,8.4,30.1,36.1,18.6,59.2
		S282,278.8,268,288.3c-14,9.5-54.6,40.3-94.6,38.9s-53.6-8.4-61.3-16.8c-2.7-3-11.4-18.1-5.6-29.4
		C117,260.4,148.8,238.9,165.7,229.4z"/>
	<path class="st8" d="M174,232.4c22.1-12.4,48.8-25.7,55.9-36.9c7.1-11.2,37.8-10.6,56.6-3.5c18.8,7.1,25.3,30.3,15.6,49.8
		c-9.7,19.4-33.6,36.8-45.3,44.8c-11.8,8-45.9,33.9-79.5,32.7c-33.6-1.2-51.5-7.2-58-14.3c-2.3-2.5-9.6-15.2-4.7-24.7
		C123.3,263,159.8,240.3,174,232.4z"/>
	<path class="st9" d="M221.1,213.5c-12.3,9.7-33.7,20.7-50.6,30.2c-14.2,8-40.7,19.5-49.5,36.7c-4.9,9.5,2.4,22.2,4.7,24.7
		c6.5,7.1,18,13,51.5,14.1c33.6,1.2,67.7-24.7,79.5-32.7c11.8-7.9,35.6-25.3,45.3-44.8c1.9-3.8,3.2-7.7,3.9-11.7
		C285.5,216.9,255.1,214.7,221.1,213.5z"/>
	<path class="st10" d="M297.6,248.4c-5.5-3.4-11.8-5.9-18.5-7.3c-7.5-1.5-15.2-1.6-22.8-2.3c-12.3-1.3-22.6-4.5-33.4-9.3
		c-9.6-4.3-19.4-2.5-27.9,3.4c-1.9,1.3-3.7,3-3.6,5c0.1,2.9,3.9,4.6,6.9,5.9c3.1,1.3,6.4,3.9,5.2,6.6c-12.1,1-24.2,1.9-36.3,2.9
		c-2.7,0.2-5.6,0.5-7.4,2.2c-2.5,2.4-1.3,6.3,1.6,8.4c2.8,2.1,6.7,2.8,10.4,3.4c-5.8,2.1-11.9,3.5-18.1,4.1c-0.3,6.1,8.9,8.8,16,9.6
		c11,1.3,22.5,2.5,33-0.7c5.5-1.7,10.4-4.5,15.9-6.2c5.5-1.7,12.1-2.1,16.8,0.9c-9.4,5.7-20.4,9.6-31.8,11.2
		c11.3,3.9,23.7,5.5,35.9,4.8c-4.1,0.2-9.5,3.8-13.6,4.9c-5.3,1.4-10.7,2.4-16.2,3.1c-11.2,1.5-22.2,1.5-33.4,0.4
		c-3-0.3-6-0.6-8.9-1.4c-4.1-1.1-7.9-3-11.8-4.4c-4.5-1.6-9.3-2.5-14.1-2.7c0.2,3.1,3.4,5.1,6.2,6.5c5.6,3,11.1,6.4,16.9,9
		c7.5,3.3,15.6,3.9,23.5,5.2c6.6,1.1,13.4,1.8,20.2,1.9c21.7-7.8,40.3-21.7,48.4-27.2c3.2-2.1,7.2-5,11.6-8.3c-2.8,0-5.6,0-8.4,0
		c5.8-6.8,14.9-10.8,24.3-13.5c5.1-4.9,9.9-10.3,13.7-15.9C297.9,248.6,297.7,248.5,297.6,248.4z"/>
	<path class="st2" d="M298.3,200c9.3,10.4,11.1,27.2,3.9,41.7c-9.7,19.4-33.6,36.8-45.3,44.8c-11.8,8-45.9,33.9-79.5,32.7
		c-33.6-1.2-51.5-7.2-58-14.3c-2.3-2.5-9.6-15.2-4.7-24.7"/>
	<path class="st2" d="M165.7,229.4c26.3-14.7,61.7-32.6,70.1-45.9s45.2-16.1,67.6-7.7c22.4,8.4,30.1,36.1,18.6,59.2
		S282,278.8,268,288.3c-14,9.5-54.6,40.3-94.6,38.9s-53.6-8.4-61.3-16.8c-2.7-3-11.4-18.1-5.6-29.4
		C117,260.4,148.8,238.9,165.7,229.4z"/>
	<path class="st6" d="M258.4,263c0.1,1.2,1.9,1.6,2.5,2.7c0.6,1.2-0.6,2.6-1.8,3.4c-2,1.2-4.2,2-6.5,2.2c0.6,0.3,1.2,0.8,1.5,1.5
		c-2.1,0.4-4.3,0.2-6.5,0.3s-4.5,0.6-6.1,2c1,1.4,3,1.6,4.7,1.5c6.2-0.1,12.4-0.4,18.5-1c-2.9-0.8-5.8-1.6-8.7-2.4
		c2.6-1.5,5.9-0.7,8.9-1.1c0.5-0.1,1.1-0.2,1.3-0.7c0.3-0.5,0-1.2-0.4-1.6c-0.8-0.9-2-1.2-3-1.8c-1-0.6-1.9-1.9-1.3-2.9
		c0.5-0.9,1.8-1.1,2.7-0.7c2.1,0.8,3.6,2.7,5.9,3.1c2.8,0.5,4.8-2.6,1.4-2.9c-1.1-0.1-2.2,0.2-3.2-0.3c-0.2-0.1-0.5-0.3-0.5-0.5
		c-0.2-0.6,0.5-1.1,1.2-1.3c1.8-0.7,3.7-1.3,5.5-2c-2-2.4-6.1-2.7-8.4-0.6c-0.3,0.3-0.6,0.6-1,0.6c-0.4,0.1-0.8-0.2-1.1-0.3
		c-1.8-0.8-3.1,0.1-4.5,1.2c-0.3,0.2-0.5,0.4-0.7,0.7C258.5,262.3,258.4,262.6,258.4,263z"/>
	<path class="st6" d="M218,263.8c1.7,0.5,3.4,0.5,5.1,0.6c2.9,0.1,7.3-0.4,9.7,1.1c-4.4,2.5-11.3,2.4-16.2,1.9
		c-5.3-0.5-10.4,0.4-15.6,2.1c-2.4,0.8-4.9,1.8-7.4,2.2s-5.4-0.1-7.3-1.8c7.8-2.6,15.7-5.2,23.5-7.9c1.6-0.5,3.5-1.5,3.4-3.2
		c-0.1-1.4-1.8-2.2-3.2-2.6c-2.3-0.7-4.6-1.4-6.9-2.1c-0.8-0.3-1.9-0.9-1.6-1.7c0.4-1.1,2.8-0.9,2.6-2.1c-2.8-0.6-5.8-0.2-8.6-0.2
		c-2.9,0-6-0.4-8.1-2.5c0.6,0.6,6-0.2,7-0.2c2.5,0,5,0,7.5,0c2.5,0.1,5,0.2,7.5,0.3c1.5,0.1,4.5-0.2,5.8,0.8
		c1.9,1.5-2.7,1.7-3.4,1.8c-2.1,0.3-4.1,0.6-6.2,1c2.3,3.1,6.3,4.4,10.1,4.9c1.5,0.2,9.1,0.8,5.6,3.5c-1.9,1.5-5.2,1.5-7.5,2.1
		C214.3,261.8,217.3,263.7,218,263.8z"/>
	<path class="st2" d="M237.2,210.3c0,0-2.5-5.2-7.2-9"/>
	<g>
		<path class="st0" d="M232.9,180.9c-5.5,1.5-10.1,11.1-10.1,11.1s-7.6,5.4-11.2,10.1c-3.8-2.3-6.8-1.6-11.4-2.8
			c-4.6-1.2-17-5.6-18.5-5.6c0,0-1.9-3-3.9-5.1c-1.9-2.1-6.2-3-6.2-3s-1.8-3-3.8-4.4c-2-1.4-8.1-3-8.9-2.7c-0.8,0.4-0.8,1.3,0.1,2.3
			c0.9,1,4.4,2.1,4.7,2.4c0,1,0.2,2.2,1.1,3.5c-2.7-0.5-5.2-0.4-6.3-0.2c-1.1,0.3-4.1,2.7-3.9,3.9c0.2,1.1,3.2-0.3,5.1-0.8
			c1.9-0.5,3.9,0.6,3.9,0.6s-3.9,0.9-5,1.9c-1.1,1-1.1,4.4,0.5,4.6c1.7,0.2,2.7-2.1,2.7-2.1l3.7,0.6l0.3,1.2c0,0-2.2,0.1-4.1,1.6
			c0,0-2.1,2.2-1.3,3.3c0.9,1,3.3-0.7,3.3-0.7s3.3-1.3,5.2,0.2c1.8,1.6,4.4,3.4,7.4,2.5c3,2.9,19.6,16.5,32.2,16.9
			c12.5,0.4,23.7-8.3,28.8-12.3"/>
		<path class="st11" d="M161.7,198.2c1.9-1.5,4.1-1.6,4.1-1.6l-0.3-1.2l-3.7-0.6c0,0-1,2.3-2.7,2.1c-1.7-0.2-1.7-3.6-0.5-4.6
			c1.1-1,5-1.9,5-1.9s-2-1.1-3.9-0.6c-1.9,0.5-4.9,1.9-5.1,0.8c-0.2-1.1,2.8-3.6,3.9-3.9c1.1-0.3,3.5-0.3,6.1,0.1
			c0.7,1.2,2.1,2.7,4.5,2.2c0,0,0.3,9.5,10.4,10.5c1.7,1,22.4,23.3,32.7,14.4c7.6-0.4,17.6-4.8,20.2-12.4c2,1.1,4.3,4.9,5.8,8.9
			c-0.5-1-0.8-1.7-1-2.1c-5.1,4-16.2,12.6-28.8,12.3c-12.5-0.4-29.2-13.9-32.2-16.9c-3,0.9-5.6-0.9-7.4-2.5
			c-1.8-1.6-5.2-0.2-5.2-0.2s-2.5,1.7-3.3,0.7C159.5,200.5,161.7,198.2,161.7,198.2z"/>
		<path class="st2" d="M232.9,180.9c-5.5,1.5-10.1,11.1-10.1,11.1s-7.6,5.4-11.2,10.1c-3.8-2.3-6.8-1.6-11.4-2.8
			c-4.6-1.2-17-5.6-18.5-5.6c0,0-1.9-3-3.9-5.1c-1.9-2.1-6.2-3-6.2-3s-1.8-3-3.8-4.4c-2-1.4-8.1-3-8.9-2.7c-0.8,0.4-0.8,1.3,0.1,2.3
			c0.9,1,4.4,2.1,4.7,2.4c0,1,0.2,2.2,1.1,3.5c-2.7-0.5-5.2-0.4-6.3-0.2c-1.1,0.3-4.1,2.7-3.9,3.9c0.2,1.1,3.2-0.3,5.1-0.8
			c1.9-0.5,3.9,0.6,3.9,0.6s-3.9,0.9-5,1.9c-1.1,1-1.1,4.4,0.5,4.6c1.7,0.2,2.7-2.1,2.7-2.1l3.7,0.6l0.3,1.2c0,0-2.2,0.1-4.1,1.6
			c0,0-2.1,2.2-1.3,3.3c0.9,1,3.3-0.7,3.3-0.7s3.3-1.3,5.2,0.2c1.8,1.6,4.4,3.4,7.4,2.5c3,2.9,19.6,16.5,32.2,16.9
			c12.5,0.4,23.7-8.3,28.8-12.3"/>
		<path class="st2" d="M211.6,202c0,0-0.7,2.2,0.1,5"/>
		<path class="st2" d="M181.7,193.7c0,0-0.5,2.2-0.9,2.7"/>
		<path class="st2" d="M176.3,203.5c0,0,0.9-0.4,1.3-1.4"/>
		<path class="st2" d="M171.4,185.5c0,0-4.2-1.9-5.4-2.6c-1.2-0.7-2.3-0.4-2.2,0.4"/>
		<path class="st2" d="M164.8,186.7c0,0,1.8,2.5,4.3,2.1c0.3,3,1.4,6.2,3.5,7.4"/>
		<path class="st2" d="M165.5,195.4c0,0-0.6-5-0.1-7.6"/>
		<path class="st2" d="M161.8,194.7c0,0,0.4-1.8,0.2-2.6"/>
		<path class="st2" d="M163.7,200.8c0,0,1.1-1,1-2"/>
		<path class="st12" d="M214.9,201.9c-0.1,0-0.2,0-0.3-0.1c-0.2-0.2-0.2-0.5,0-0.7c2.9-3.1,7.2-5.9,7.3-6c0.2-0.1,0.5-0.1,0.7,0.1
			c0.2,0.2,0.1,0.5-0.1,0.7c0,0-4.4,2.9-7.2,5.9C215.2,201.8,215,201.9,214.9,201.9z"/>
		<path class="st12" d="M201.8,203.2c-0.7,0-3.6-1-5.2-1.5c-0.3-0.1-0.4-0.4-0.3-0.6c0.1-0.3,0.4-0.4,0.6-0.3
			c2.1,0.7,4.5,1.5,4.9,1.5c0,0,0,0,0,0c0.3,0,0.5,0.2,0.5,0.4S202.2,203.1,201.8,203.2C201.9,203.2,201.9,203.2,201.8,203.2z"/>
		<path class="st12" d="M177,192.3c-0.2,0-0.3-0.1-0.4-0.2c-0.5-0.8-2.2-2.2-2.8-2.7c-0.2-0.2-0.3-0.5-0.1-0.7
			c0.2-0.2,0.5-0.3,0.7-0.1c0.1,0.1,2.3,1.8,3,3c0.1,0.2,0.1,0.5-0.2,0.7C177.2,192.3,177.1,192.3,177,192.3z"/>
	</g>
	<path class="st0" d="M292.8,217.2c0,0-12.9-24.2-26.3-30c-13.4-5.8-13.4-5.8-13.4-5.8l-18.8-0.5c-6.3,4.7-10,8.1-11.9,17.7
		c-1.9,9.6-4.4,25.7-7.4,35.6c-3,9.9,22.8,24.2,38.3,24.3c15.5,0.2,33.8-13.3,35.8-19C291.2,233.9,292.8,217.2,292.8,217.2z"/>
	<path class="st11" d="M289.1,239.6c0.4-1.1,0.8-2.5,1.1-4.2l-0.1-2.3L275.7,219l-6.1,0.3c0,0,0.3,8.6-1.3,12.3
		c-1.6,3.7-0.8,14.1-7.3,18.8c-5.2,3.8-14.9,5.2-21.6,5.4c4.9,1.7,9.8,2.8,13.9,2.8C268.8,258.7,287,245.2,289.1,239.6z"/>
	<path class="st11" d="M246.5,198.3c0,0-1.7,5.1,4.5,6c6.2,0.8,18.7-1.3,21.4-2.6c2.8-1.3,1.3-9.8,1.3-9.8L266,186l-21.9,11.6"/>
	<path class="st2" d="M222.4,198.6c-1.9,9.6-4.4,25.7-7.4,35.6c-3,9.9,22.8,24.2,38.3,24.3c15.5,0.2,33.8-13.3,35.8-19
		c2.1-5.6,3.7-22.3,3.7-22.3s-12.9-24.2-26.3-30c-13.4-5.8-13.4-5.8-13.4-5.8l-18.8-0.5"/>
	<path class="st0" d="M275,187.3c0,0,1,5.8,3.8,9.1c2.8,3.2,2.8,3.2,2.8,3.2s8.7,11.6,11.2,17.6c2.5,6,10.4,25.8,8.9,32.5
		s-13.8,22.3-19.7,27c-5.9,4.7-9.9,7.2-12.5,10.9c-2.6,3.7-5.4,8.6-9.1,10.2c-3.7,1.6-5.1,1.5-5.6,0.7c-0.5-0.8,2-2.1,2-2.1
		s-3.2,2.7-5,2.1s1.2-3,1.2-3s-4.5,3.3-5.9,2.5c-1.4-0.9,2.5-4.5,2.5-4.5s-0.3-1.2-1-0.9c-0.7,0.3-3.8,3-4.7,2.4
		c-0.9-0.7,0.9-3.3,1.9-5.1c1-1.8,1-2.8,0.5-2.5c-0.6,0.2-1.5,3.3-2.3,3s0.4-5.8,2.8-8.2c2.4-2.4,7.8-2.1,12.5-4.2
		c4.7-2,20.9-28.1,20.9-28.1c1-5.5-11.6-33.5-11.6-33.5"/>
	<path class="st11" d="M301.8,249.7c1.4-6.7-6.5-26.5-8.9-32.5c-0.9-2.1-2.5-4.8-4.2-7.5l-5.4-0.2l0.8,8.5c0,0,7.8,11,11.4,18
		c3.6,7.1,0.1,22.3-6.2,29.9c-6.4,7.6-19.5,14.2-21.8,17.4c-2.3,3.2-2.7,10-5.4,12.6c-0.8,0.8-1.6,1.6-2.2,2.3
		c0.2-0.1,0.5-0.2,0.7-0.3c3.7-1.6,6.5-6.5,9.1-10.2c2.6-3.7,6.6-6.3,12.5-10.9C288,272.1,300.3,256.4,301.8,249.7z"/>
	<path class="st2" d="M275,187.3c0,0,1,5.8,3.8,9.1c2.8,3.2,2.8,3.2,2.8,3.2s8.7,11.6,11.2,17.6c2.5,6,10.4,25.8,8.9,32.5
		s-13.8,22.3-19.7,27c-5.9,4.7-9.9,7.2-12.5,10.9c-2.6,3.7-5.4,8.6-9.1,10.2c-3.7,1.6-5.1,1.5-5.6,0.7c-0.5-0.8,2-2.1,2-2.1
		s-3.2,2.7-5,2.1s1.2-3,1.2-3s-4.5,3.3-5.9,2.5c-1.4-0.9,2.5-4.5,2.5-4.5s-0.3-1.2-1-0.9c-0.7,0.3-3.8,3-4.7,2.4
		c-0.9-0.7,0.9-3.3,1.9-5.1c1-1.8,1-2.8,0.5-2.5c-0.6,0.2-1.5,3.3-2.3,3s0.4-5.8,2.8-8.2c2.4-2.4,7.8-2.1,12.5-4.2
		c4.7-2,20.9-28.1,20.9-28.1c1-5.5-11.6-33.5-11.6-33.5"/>
	<path class="st0" d="M273.2,185.9c0,0-2,13.9-0.5,18.3c1.5,4.4,4.6,9,4.5,13c-0.1,4-2.3,13.9,2.1,14.3c4.3,0.3,5.6-1.8,5.4-6.9
		c-0.2-5.1,0.2-9.1,0.2-9.1s8.6,8.3,10.3,9.9c1.7,1.7,4.3,9.1,4.3,9.1s1.2-12.4,0-16.7s-10.7-18.3-14.1-26.1
		c-3.4-7.9-6.8-11.8-12.3-13.9"/>
	<path class="st2" d="M273.2,185.9c0,0-2,13.9-0.5,18.3c1.5,4.4,4.6,9,4.5,13c-0.1,4-2.3,13.9,2.1,14.3c4.3,0.3,5.6-1.8,5.4-6.9
		c-0.2-5.1,0.2-9.1,0.2-9.1s8.6,8.3,10.3,9.9c1.7,1.7,4.3,9.1,4.3,9.1s1.2-12.4,0-16.7s-10.7-18.3-14.1-26.1
		c-3.4-7.9-6.8-11.8-12.3-13.9"/>
	<g>
		<g>
			<path class="st0" d="M50.9,107.5c-3,7.7-2.2,33.8-2.4,56.9s0.6,50.8,7,57.9s40,7.6,61.7,9.1s44.4,0.9,44.4,0.9s6.7-0.6,9.1-6.7
				c2.3-6.1-6.1-13.1-6.1-13.1s-20.2-3.5-30.4-4.4s-46.8-10.5-48.8-13.4c-2-2.9,0.3-16.9,1.5-27.5s5.3-53.2,5.3-53.2
				S92,94,76.7,90.4C61.4,86.9,55.7,95.1,50.9,107.5z"/>
			<path class="st1" d="M102.1,224.9c-13.7-1.6-37.2-1.6-43.9-16.9c-6.7-15.3-5.7-88.7-4.8-101.5c0.1-2,0.3-3.8,0.4-5.5
				c-1.2,1.8-2,4.3-2.9,6.5c-3,7.7-2.2,33.8-2.4,56.9c-0.3,23.1,0.6,50.8,7,57.9c6.4,7,40,7.6,61.7,9.1c21.6,1.5,44.4,0.9,44.4,0.9
				s5.9-0.5,8.6-5.7C157.8,226.4,113.8,226.2,102.1,224.9z"/>
			<path class="st2" d="M50.9,107.5c-3,7.7-2.2,33.8-2.4,56.9s0.6,50.8,7,57.9s40,7.6,61.7,9.1s44.4,0.9,44.4,0.9s6.7-0.6,9.1-6.7
				c2.3-6.1-6.1-13.1-6.1-13.1s-20.2-3.5-30.4-4.4s-46.8-10.5-48.8-13.4c-2-2.9,0.3-16.9,1.5-27.5s5.3-53.2,5.3-53.2
				S92,94,76.7,90.4C61.4,86.9,55.7,95.1,50.9,107.5z"/>
		</g>
		<g>
			<path class="st0" d="M164.3,212.3c0.9-0.5,18.8,7.3,23.8,10.9c5,3.6,9.6,9.3,12.8,11.2c3.2,1.9,1.8,2.8,1,3.4s-3.7-0.2-3.7-0.2
				s8.6,9.2,7.6,11.3c-0.9,2.1-5.3-1.8-9.5-3.3c2.5,3.1,7.8,6.4,9.5,8c1.1,1,0.5,3.4-2.3,3.3c-2.8-0.1-9.4-6.2-15.9-8.5
				c4.9,4.7,8.9,5.9,11.9,7.5c3,1.6,4.4,2.4,3.4,4c-0.9,1.6-9.5-1.3-12-2.4c-2.5-1.1-7.9-4.4-11.2-6.3c1.6,2.3,2.3,5.1,4.2,6.4
				c2,1.3,7.5,4.4,6.9,5.7c-0.6,1.3-8.8-2-12.4-4.7c-3.6-2.7-8.5-7.6-10.5-9.7c-2-2-10-15.7-11.5-18.1"/>
			<path class="st1" d="M156.6,230.9C158,233.3,166,247,168,249c2,2,6.9,6.9,10.5,9.7c3.6,2.7,11.8,6,12.4,4.7
				c0.6-1.3-4.9-4.4-6.9-5.7c-2-1.3-2.7-4.1-4.2-6.4c3.3,1.9,8.7,5.2,11.2,6.3c2.5,1.1,11.1,4,12,2.4c0.9-1.6-0.4-2.4-3.4-4
				c-3-1.6-7-2.9-11.9-7.5c6.6,2.3,13.1,8.4,15.9,8.5c2.8,0.1,3.4-2.3,2.3-3.3c-1.7-1.5-7-4.9-9.5-8c4.1,1.5,8.5,5.4,9.5,3.3
				c0.3-0.7-0.8-1.8-2.5-2.8c-7.4-2.3-15.3-8.3-22-11.5c-11.8-5.5-9.8-2.4-22.1-8.5"/>
			<path class="st2" d="M164.3,212.3c0.9-0.5,18.8,7.3,23.8,10.9c5,3.6,9.6,9.3,12.8,11.2c3.2,1.9,1.8,2.8,1,3.4s-3.7-0.2-3.7-0.2
				s8.6,9.2,7.6,11.3c-0.9,2.1-5.3-1.8-9.5-3.3c2.5,3.1,7.8,6.4,9.5,8c1.1,1,0.5,3.4-2.3,3.3c-2.8-0.1-9.4-6.2-15.9-8.5
				c4.9,4.7,8.9,5.9,11.9,7.5c3,1.6,4.4,2.4,3.4,4c-0.9,1.6-9.5-1.3-12-2.4c-2.5-1.1-7.9-4.4-11.2-6.3c1.6,2.3,2.3,5.1,4.2,6.4
				c2,1.3,7.5,4.4,6.9,5.7c-0.6,1.3-8.8-2-12.4-4.7c-3.6-2.7-8.5-7.6-10.5-9.7c-2-2-10-15.7-11.5-18.1"/>
			<path class="st2" d="M198.1,237.6c0,0-3.5-2.3-5.9-4.4c-2.4-2.1-5-3.7-6.4-4.6"/>
			<path class="st2" d="M196.3,245.7c0,0-5.5-5.7-6.7-5.9"/>
			<path class="st2" d="M187.5,248.4c0,0-3.2-3.1-4.1-3.2"/>
			<path class="st2" d="M179.7,251.3c0,0-2.4-2.1-3.1-2.2"/>
		</g>
	</g>
	<g>
		<path class="st0" d="M248.1,198c-2.9,0.3-5.4-0.4-8.5-3.4c-3.1-3-2-5-5.1-9.2c-3.2-4.2-4.9-8.9-2.8-16.1
			c2.1-7.2,3.6-13.7,6.7-17.4s10.2-11.3,17.8-13c7.6-1.7,18.5,0.9,23.8,7.3c5.3,6.4,9.2,19.4,6.7,27.1c-2.5,7.7-12.9,15.7-17.5,18.5
			c-4.7,2.8-10.8,4.3-13.7,4.3C252.5,196.1,251,197.7,248.1,198z"/>
		<path class="st1" d="M281.7,181.2c-1.6,1-5.8,3.5-8.5,5.1c-3.4,2-12.3,6-17.4,6c-5.1,0-6.8,2.6-10.1,3.6c-2.8,0.9-6.4-2-7.5-3
			c0.4,0.6,0.8,1.1,1.5,1.8c3.1,3,5.6,3.7,8.5,3.4c2.9-0.3,4.4-1.9,7.2-1.9c2.9,0,9-1.5,13.7-4.3C272.1,190,277.6,185.9,281.7,181.2
			z"/>
		<path class="st1" d="M236.6,174.8c0.3-0.2,1.9,1.3,3.4,1.9c1.5,0.6,6.1,0.6,6.9,2.3c0.8,1.7-2.6,1.2-5.3,0.5
			c-2.7-0.7-5.3-2.3-5.4-3.4C236.3,175,236.5,174.9,236.6,174.8z"/>
		<path class="st2" d="M248.1,198c-2.9,0.3-5.4-0.4-8.5-3.4c-3.1-3-2-5-5.1-9.2c-3.2-4.2-4.9-8.9-2.8-16.1
			c2.1-7.2,3.6-13.7,6.7-17.4s10.2-11.3,17.8-13c7.6-1.7,18.5,0.9,23.8,7.3c5.3,6.4,9.2,19.4,6.7,27.1c-2.5,7.7-12.9,15.7-17.5,18.5
			c-4.7,2.8-10.8,4.3-13.7,4.3C252.5,196.1,251,197.7,248.1,198z"/>
		<path class="st5" d="M254.4,161.2c-0.2-0.1,3.6-1.8,6.6-1.3c3,0.5,5.8,3.2,6.2,4.7c-3.7-2-4.3-3.6-7.4-3.3
			C256.7,161.6,255.6,161.9,254.4,161.2z"/>
		<path class="st5" d="M244.1,159c0,0-0.3-3.2-2.5-5.4c-2.2-2.2-3.1-1.9-3.1-1.9s-0.1,0.9,1.8,2.6
			C242.2,155.9,242.9,158.3,244.1,159z"/>
		<path class="st13" d="M252.9,167.8c0.1-0.2,2.1-2.7,5.1-2c3,0.7,4.5,2.8,4.5,2.8s-1.5,1.4-5.1,1.2
			C253.9,169.5,252.9,167.8,252.9,167.8z"/>
		<path class="st13" d="M242.7,163.9c0,0-0.1-3.1-3-4.4c-2-0.9-3.1-0.6-3.1-0.6s0.5,2.9,2.3,4C240.6,164,242.7,163.9,242.7,163.9z"
			/>
		<path class="st2" d="M245.4,164.4c0,0-2.7,4.2-4.4,5.9c-1.8,1.7-2.7,3.4-2.7,3.4"/>
		<path class="st2" d="M238.9,176.3c0,0-1.5-0.6-1.5,0C237.3,176.8,238.3,176.7,238.9,176.3z"/>
		<path class="st2" d="M241.6,177.2c0,0,1.8,0.2,2.2,1.2C244.3,179.4,242.4,178.5,241.6,177.2z"/>
		<path class="st2" d="M246.3,180.4c0.1-0.2,2.8-0.1,1.7-3.5"/>
		<path class="st2" d="M236.5,176.6c0,0-0.8-1.6,1.2-3.7"/>
		<path class="st14" d="M235.1,183.9c0,0,1.8-0.6,3-0.4c1.1,0.2,0.8,1,1.7,0.8c0.8-0.2,1.9,0.1,2.8,0.7c0.9,0.6,6.7,1.7,6.9,3.3
			s-5.4,3.6-8.5,2.4c-3.1-1.2-3.3-2.3-3.5-3.9c-0.2-1.6-0.2-1.8-1-2.2C235.6,184.3,235,184.5,235.1,183.9z"/>
		<path class="st2" d="M235.1,184.2c0,0,1.1,0.1,2.5,0.5c1.4,0.4,2.2,1.6,3,1.8c0.8,0.2,3.4,1,4.9,1.3c1.5,0.3,3.9,0.6,3.9,0.6"/>
		<path class="st5" d="M239.7,159.5c-0.3-0.1-0.6-0.2-0.9-0.3c-0.5,0.2-0.9,0.7-1.2,1.3c-0.1,0.3-0.2,0.5-0.2,0.8
			c0.3,0.7,0.8,1.3,1.4,1.7c0.4,0.2,0.8,0.4,1.2,0.5c0.6-0.2,1.2-0.7,1.5-1.4c0.1-0.3,0.2-0.6,0.2-0.9
			C241.3,160.5,240.6,159.9,239.7,159.5z"/>
		<path class="st5" d="M275.3,164.3c0.1-0.5,0.2-1,0-1.4c-0.2-0.3-0.7-0.4-1-0.7c-0.5-0.5-0.4-1.3-0.6-2c-0.4-1.5-2.3-2.5-1.9-4
			c-1.1,0.6-2.5,0.5-3.5-0.2c-0.5-0.3-0.9-0.8-1.4-1c-0.7-0.3-1.6-0.1-2.3-0.5c-1.4-0.9-0.6-3.4-1.9-4.5c-0.6-0.5-1.5-0.5-2.3-0.8
			c-1.7-0.6-2.6-2.5-4.3-2.9c-0.8-0.2-1.7,0-2.3-0.5c-0.4-0.3-0.7-0.9-1.3-1c-0.4,0-0.7,0.2-1.1,0.3c-0.6,0.1-1.3-0.3-1.9-0.1
			c-0.8,0.2-1.2,1.2-1.9,1.7c-0.8,0.6-2,0.5-3,0.4c-1,0-2.3,0.3-2.6,1.3c0-0.8,0-1.6,0.3-2.4c0.3-0.8,0.8-1.5,1.6-1.7
			c0.2,0,0.4-0.1,0.6-0.2c0.3-0.1,0.4-0.4,0.6-0.6c1.1-1.6,2.7-3,4.2-4.2c0.8-0.7,2.1-1.4,2.9-0.6c0.1-0.8,0.9-1.3,1.7-1.5
			c0.8-0.1,1.6,0,2.4-0.1c1-0.1,1.9-0.4,2.6-1c0.6-0.5,1.2-1.1,2-1.1c0.9,0,1.6,1,2.5,1c0.5,0,0.9-0.2,1.4-0.3c1.5-0.3,3,1,4.5,0.7
			c0.7-0.1,1.5-0.6,2.2-0.4c0.7,0.3,0.9,1.1,1.3,1.6c0.8,1,2.1,1.1,3.3,1.3c1.2,0.2,2.6,0.7,3,1.8c0.1,0.3,0.1,0.6,0.3,0.9
			c0.5,0.9,2,0.4,2.9,1.1c0.3,0.2,0.5,0.5,0.7,0.8c0.6,1.2,1.1,2.4,1.4,3.7c0.1,0.5,0.2,1.1,0.4,1.6c0.3,0.6,0.7,1.2,1.1,1.7
			c0.9,1.2,1.9,2.4,2.8,3.6c0.3,0.4,0.7,0.8,0.9,1.3c0.2,0.4,0.2,0.8,0.3,1.2c0.2,1,0.3,2.1,0.4,3.1c0.1,1.2,0.1,2.5-0.1,3.7
			c-0.2,1.1-0.6,2.2-1.5,2.8c-0.3,0.2-0.7,0.4-1,0.7c-0.3,0.3-0.5,0.8-0.7,1.2c-1,1.8-5.6,3.7-7.5,2.6c-0.7-0.4-0.6-1-1-1.6
			c-0.6-1-0.7-0.6-1.6-1.1C275.4,167.1,274.9,165.8,275.3,164.3z"/>
		<path class="st5" d="M260,169.6c0.5-0.6,0.8-1.3,0.8-2c0-0.2,0-0.5-0.1-0.7c-0.7-0.4-1.6-0.8-2.6-1.1c-1.3-0.3-2.5,0-3.3,0.5
			c-0.2,0.4-0.3,0.8-0.3,1.3c0,0.6,0.2,1.2,0.5,1.7c0.6,0.2,1.4,0.4,2.5,0.5C258.4,169.8,259.3,169.7,260,169.6z"/>
		<path class="st0" d="M279.9,171.6c0.1-0.4,3.7-6,5.7-7.2c2-1.2,4.2-1.4,5.4,1.1c1.3,2.6,0.5,7.2-2.3,11.9s-9,9.2-9,9.2
			c-3.8,1-3.6-2-3.6-2"/>
		<path class="st11" d="M289.6,166.4c0,0,1.1,1.3,0.9,1.9s-1.1-0.9-2.1-0.9c-1,0-1.1,0.5-0.6,0.9c0.5,0.5,2.7,3,1.6,3.9
			s-3.6-0.5-4.3,0.8s0,3.5-0.5,3.9s-5,3.2-5.7,2.5s2.5-2.3,3.4-5.2c0.9-2.8,1.9-6.4,4.2-7.9C288.7,164.8,289.6,166.4,289.6,166.4z"
			/>
		<path class="st2" d="M279.9,171.6c0.1-0.4,3.7-6,5.7-7.2c2-1.2,4.2-1.4,5.4,1.1c1.3,2.6,0.5,7.2-2.3,11.9s-9,9.2-9,9.2
			c-3.8,1-3.6-2-3.6-2"/>
		<path class="st2" d="M285.4,176.7c-0.6,0.2-3.3,1.7-5.2,2.5s-1.3-0.2-1.3-0.2c0.1-0.4,2.9-2.9,3.4-4.9c0.5-2,1.4-5.3,3.5-7.2
			c2.1-1.9,3.5-1.2,4.4,0.2"/>
		<path class="st2" d="M288,167.8c0,0,2.7,1.5,1.4,6s-3.1,5.3-4.6,6.2"/>
	</g>
	<path class="st2" d="M280.5,249.9c0,0,1.9,3.4,7.9,2.4"/>
</g>
</svg>
