<?xml version="1.0" encoding="utf-8"?>
<!-- Generator: Adobe Illustrator 22.0.1, SVG Export Plug-In . SVG Version: 6.00 Build 0)  -->
<svg version="1.1" id="Layer_1" xmlns="http://www.w3.org/2000/svg" xmlns:xlink="http://www.w3.org/1999/xlink" x="0px" y="0px"
	 width="309.6px" height="258.8px" viewBox="0 0 309.6 258.8" style="enable-background:new 0 0 309.6 258.8;" xml:space="preserve"
	>
<style type="text/css">
	.st0{fill:#F28474;stroke:#000000;stroke-linecap:round;stroke-linejoin:round;stroke-miterlimit:10;}
	.st1{fill:#E36E5B;}
	.st2{fill:none;stroke:#000000;stroke-linecap:round;stroke-linejoin:round;stroke-miterlimit:10;}
	.st3{fill:#955E43;stroke:#000000;stroke-linecap:round;stroke-linejoin:round;stroke-miterlimit:10;}
	.st4{fill:#874829;}
	.st5{fill:#83482C;}
	.st6{fill:#FFFFFF;stroke:#000000;stroke-linecap:round;stroke-linejoin:round;stroke-miterlimit:10;}
	.st7{fill:#D3A64A;}
	.st8{fill:#FFFFFF;}
	.st9{fill:#EFBFA0;}
	.st10{fill:#E9A77E;}
	.st11{fill:#955E43;}
	.st12{fill:#75B34B;}
	.st13{fill:#C1C1C1;stroke:#000000;stroke-linecap:round;stroke-linejoin:round;stroke-miterlimit:10;}
	.st14{fill:#161616;stroke:#000000;stroke-linecap:round;stroke-linejoin:round;stroke-miterlimit:10;}
	.st15{fill:#391616;stroke:#000000;stroke-linecap:round;stroke-linejoin:round;stroke-miterlimit:10;}
	.st16{fill:#864029;}
	.st17{fill:#672700;stroke:#000000;stroke-linecap:round;stroke-linejoin:round;stroke-miterlimit:10;}
	.st18{fill:#862E29;stroke:#000000;stroke-linecap:round;stroke-linejoin:round;stroke-miterlimit:10;}
	.st19{fill:#101010;stroke:#000000;stroke-linecap:round;stroke-linejoin:round;stroke-miterlimit:10;}
</style>
<g>
	<path class="st0" d="M3.6,246.7c12.6-25.5-2.7-108.6-2.7-108.6l0.4-7.1c0,0-1.2-20.2,18.2-27.4s48.8-13.2,57.2-9.9
		s58.4,4.8,63.2,29.3c4.8,24.6-25.2,78.3-25.2,85.2V248"/>
	<path class="st1" d="M86.2,200.7c-9-3.4-26.2,7.6-37.4,3c-11.1-4.6-13.9-29.9-10.7-37.1s2.4-31.3,2.4-31.3l-5.1,12.9L6.3,175.9
		c2,18.8,3.4,40.9,1.2,56.8c4.8,5.6,11.1,10.5,16.9,14.2l24.5,0.3c3.5-2.8,8.3-6.5,14.8-11.3c19.1-14.3,47.2-14.3,51.1-18.2v-9.5
		c0-1.2,0.2-4.3,0.2-4.3C104.7,210,93.4,203.4,86.2,200.7z"/>
	<path class="st2" d="M3.6,246.7c12.6-25.5-2.7-108.6-2.7-108.6l0.4-7.1c0,0-1.2-20.2,18.2-27.4s48.8-13.2,57.2-9.9
		s58.4,4.8,63.2,29.3c4.8,24.6-25.2,78.3-25.2,85.2V248"/>
	<path class="st3" d="M148.3,247.2c0,0-8.8-31.5-8.6-40.7c0.2-9.2,0.8-71.3,0.8-71.3s-19.8,1.2-25.4,1.6c1.4,24.6-0.6,66.1-0.4,77.7
		c0.2,11.6,7.6,33.5,7.6,33.5"/>
	<path class="st4" d="M130.2,247.8c-12.5-32.5-1.4-95.8,1.8-112c-6.1,0.4-13.6,0.8-16.7,1.1c1.4,24.6-0.6,66.1-0.4,77.7
		c0.2,11.6,7.6,33.5,7.6,33.5L130.2,247.8z"/>
	<path class="st2" d="M148.3,247.2c0,0-8.8-31.5-8.6-40.7c0.2-9.2,0.8-71.3,0.8-71.3s-19.8,1.2-25.4,1.6c1.4,24.6-0.6,66.1-0.4,77.7
		c0.2,11.6,7.6,33.5,7.6,33.5"/>
	<path class="st0" d="M115.6,142.7c0,0,16,27.3,14.2,40.9c-1.8,13.6-19.8,23-19.8,23"/>
	<path class="st3" d="M62.3,75.4c0,0-1.2,21-5.4,30.2s3,29,23.7,26.7s16.2-37.1,16.2-37.1L62.3,75.4z"/>
	<path class="st5" d="M62.3,75.4c0,0-0.7,11.5-2.7,21.3c2,8,8.1,24.4,25.1,24.2c3.7,0,7.2-0.9,10.3-2.2c3.4-10.6,1.7-23.5,1.7-23.5
		L62.3,75.4z"/>
	<path class="st2" d="M62.3,75.4c0,0-1.2,21-5.4,30.2s3,29,23.7,26.7s16.2-37.1,16.2-37.1L62.3,75.4z"/>
	<path class="st3" d="M59.7,67c0,0,2.2,19.8,7,26c4.8,6.2,20.5,13,29.4,12c8.9-1,14.4-14.5,16.2-20.5c1.9-6,7.9-14.6,4.6-22.8
		c1.5-7.7,2.2-7.6,2.2-10.3c0-2.7,0.9-14-2.4-19.5S93.5,12.2,75.9,17.5S48.4,55.4,52,62.4S59.7,67,59.7,67z"/>
	<path class="st5" d="M92.5,78.3c-1,0.8,3.4,5,6.2,5.3c2.8,0.3,6.2-4.4,4.8-4.5s-3.6,1.6-5.8,0.8C95.5,79.1,93.5,77.4,92.5,78.3z"/>
	<path class="st5" d="M117.9,55.5c-2.5-1.9-6-2-9.1-1.7c-1.8,0.2-3.6,0.6-5.1,1.7c-1.4,1.1-2.3,3.1-1.6,4.8c0.6,1.4,3.9-0.2,4.9-0.6
		c2.1-0.7,4.5-0.8,6.7-0.2c1,0.2,1.9,0.6,3,0.7c0.2,0,0.3,0,0.5,0c0.4-2,0.8-3.4,1-4.4C118.1,55.7,118,55.6,117.9,55.5z"/>
	<path class="st5" d="M77.7,57.1c-1.3,0.8-2.8,1.9-2.7,3.5c1.7,0.4,3.4-0.5,5-0.9c1.7-0.5,3.5-0.5,5.3-0.6c1,0,2,0,2.9,0.3
		c0.9,0.4,1.6,1,2.6,1.3c1.3,0.3,2.7-0.3,3.3-1.5c0.6-1.2,0.2-2.7-0.9-3.5c-0.5-0.4-1.1-0.6-1.8-0.8C86.8,53.7,81.7,54.7,77.7,57.1z
		"/>
	<path class="st5" d="M78.1,98.2c-11.2-5.4-17-24.6-17-24.6l-0.4,0.1c1.1,6.3,3.1,15.4,6,19.3c4.8,6.2,20.5,13,29.4,12
		c1.2-0.1,2.3-0.5,3.4-1C95.1,103.5,86.2,102.1,78.1,98.2z"/>
	<path class="st2" d="M59.7,67c0,0,2.2,19.8,7,26c4.8,6.2,20.5,13,29.4,12c8.9-1,14.4-14.5,16.2-20.5c1.9-6,7.9-14.6,4.6-22.8
		c1.5-7.7,2.2-7.6,2.2-10.3c0-2.7,0.9-14-2.4-19.5S93.5,12.2,75.9,17.5S48.4,55.4,52,62.4S59.7,67,59.7,67z"/>
	<path class="st6" d="M109.7,138.5c4.7-4.2,21.2-4.3,29.8-1.9c8.6,2.4,18.1,3.4,22.2,2.3c4-1,14.6-0.4,14.4,3s-6.6,8.1-13,6.4
		c-6.4-1.7-6.4-5.6-13.8-6.5s-29.1,0.7-29.1,0.7S105,142.7,109.7,138.5z"/>
	
		<ellipse transform="matrix(2.687709e-02 -0.9996 0.9996 2.687709e-02 20.3634 304.2873)" class="st7" cx="166.5" cy="141.7" rx="1.9" ry="7.1"/>
	<path class="st2" d="M156.9,141.8c0,0,9.7,3.6,17.2,0.9"/>
	<g>
		<path class="st8" d="M118.2,63.1c0,0-0.1,0-0.1,0.1C118.1,63.2,118.1,63.1,118.2,63.1z"/>
		<path class="st8" d="M117.5,62.9c0.1,0,0.1,0,0.2,0C117.7,62.9,117.6,62.9,117.5,62.9z"/>
		<path class="st8" d="M118.1,62.8c0,0,0.1,0,0.1,0C118.2,62.8,118.2,62.8,118.1,62.8z"/>
		<path class="st9" d="M128.1,151c0.1,0.1,0.2,0.1,0.3,0.2c0-0.1,0.1-0.2,0.1-0.3C128.3,151,128.2,151,128.1,151z"/>
		<path class="st6" d="M97.2,91c0.5,0,1,0,1.5,0c3.8-0.3,4.7-2.2,5.6-3.9c0.2-0.5,0.5-0.9,0.7-1.3c-6.5,1-15.2,1.6-18,1.8
			C88.7,88.6,93.2,90.8,97.2,91z"/>
		<path class="st3" d="M122.7,137.1c2-0.6,4.8-0.3,5.9-0.1c-0.2-1.2-0.8-4-2.7-4c-2.6,0-11.6,4-11.7,4.1l-8.1,3.2
			C111.8,139.2,121,137.6,122.7,137.1z"/>
		<path class="st10" d="M114.9,144.6c-1.2,0.3-3.9,1.1-6.1,1.8c2.4-0.6,5.9-1.6,9.1-2.4c-0.6,0.1-1.3,0.3-1.9,0.4L114.9,144.6z"/>
		<path class="st10" d="M133.9,143.5c0,0,0.1,0,0.1,0c-0.4-0.1-0.8-0.1-1.2-0.2C133.2,143.3,133.6,143.4,133.9,143.5z"/>
		<path class="st3" d="M135.1,148.2c3.1-1.3,4.7-1.1,4.8-2.9c0-1.6-2.8-2.3-3.7-2.5c0.7,0.1,2.6,0.5,2.9-0.7
			c0.3-1.1-2.4-2.7-4.7-3.8c0,0,0,0,0,0c-0.1-0.1-0.3-0.1-0.4-0.2c-0.6-0.3-1.2-0.5-1.6-0.6c-2-0.7-3.5-1-3.5-1c0,0,0,0,0,0
			c0,0-2.6-0.5-4.3,0c-1.7,0.5-14.6,2.7-15.2,2.8c-2.3,0.5-8.3,2-10.9,4.2c-1.9,1.6-3,7.2-4.1,12.7c-0.8,4.2-1.6,8.1-2.7,10.5
			c-2.7,5.9-58.4,28.8-58.4,28.8s2-42.3,2.1-47.2c-10.1-15.5-31.6-11-34.6-10.2c0.1,2.2-0.2,3.4-0.2,14.1c0,2.9,0.1,3.2,0,7.7
			c-0.4,26.1,0.7,45.8,6.9,58.1c8.5,16.9,16.9,13.8,22.2,13.1c5.3-0.6,20.8-9.5,35.7-19.7c14.9-10.2,52.8-40,55.6-41.9
			c0,0,15.8-8.6,16.3-10.2c0.5-1.7-0.2-2.6-2.2-2.6c-2,0-14.1,3.5-15.6,4.2c0,0,3.5-2.3,5.2-3.3c5.8-3.5,10.3-1.6,14-4.3
			C141.4,151,140.1,147.6,135.1,148.2z"/>
		<path class="st4" d="M121,169.4c0,0,15.8-8.6,16.3-10.2c0.3-0.9,0.2-1.6-0.3-2c-2.4,1.6-8.2,5.3-12.7,7.4
			c-5.9,2.7-14.7,2.5-17.2,7.8c-2.5,5.3-43.1,31.7-51.9,36.4c-8.8,4.6-39.7,13-45.2,0.6c-4.5-10.3-2.1-56.8-1.2-72.4
			c-4,0.2-7,0.9-8,1.2c0.1,2.2-0.2,3.4-0.2,14.1c0,2.9,0.1,3.2,0,7.7c-0.4,26.1,0.7,45.8,6.9,58.1c8.5,16.9,16.9,13.8,22.2,13.1
			c5.3-0.6,20.8-9.5,35.7-19.7C80.3,201.1,118.2,171.3,121,169.4z"/>
		<path class="st2" d="M135.1,148.2c3.1-1.3,4.7-1.1,4.8-2.9c0-1.6-2.8-2.3-3.7-2.5c0.7,0.1,2.6,0.5,2.9-0.7
			c0.3-1.1-2.4-2.7-4.7-3.8c0,0,0,0,0,0c-0.1-0.1-0.3-0.1-0.4-0.2c-0.6-0.3-1.2-0.5-1.6-0.6c-2-0.7-3.5-1-3.5-1c0,0,0,0,0,0
			c0,0-2.6-0.5-4.3,0c-1.7,0.5-14.6,2.7-15.2,2.8c-2.3,0.5-8.3,2-10.9,4.2c-1.9,1.6-3,7.2-4.1,12.7c-0.8,4.2-1.6,8.1-2.7,10.5
			c-2.7,5.9-58.4,28.8-58.4,28.8s2-42.3,2.1-47.2c-10.1-15.5-31.6-11-34.6-10.2c0.1,2.2-0.2,3.4-0.2,14.1c0,2.9,0.1,3.2,0,7.7
			c-0.4,26.1,0.7,45.8,6.9,58.1c8.5,16.9,16.9,13.8,22.2,13.1c5.3-0.6,20.8-9.5,35.7-19.7c14.9-10.2,52.8-40,55.6-41.9
			c0,0,15.8-8.6,16.3-10.2c0.5-1.7-0.2-2.6-2.2-2.6c-2,0-14.1,3.5-15.6,4.2c0,0,3.5-2.3,5.2-3.3c5.8-3.5,10.3-1.6,14-4.3
			C141.4,151,140.1,147.6,135.1,148.2z"/>
	</g>
	<g>
		<g>
			<path class="st11" d="M184.2,201.7c-4.8,1.2-6.6,4.2-11.2,6.9c-4.6,2.7-17.9,9.1-19.1,10.4c0,0-3.9-0.8-7.2-1
				c-3.2-0.1-7.3,2.6-7.3,2.6s-3.8-0.9-6.5-0.4c-2.8,0.5-8.9,4.1-9.2,5c-0.3,0.9,0.4,1.7,1.9,1.8c1.5,0.1,5.2-1.9,5.6-1.9
				c0.8,0.8,1.9,1.6,3.7,1.9c-2.5,1.8-4.4,3.8-5.1,4.9c-0.7,1.1-1.1,5.4,0,6.2c1.1,0.7,2.3-2.8,3.4-4.7c1.1-1.9,3.6-2.6,3.6-2.6
				s-2.4,3.8-2.4,5.5c-0.1,1.7,2.6,4.4,4.1,3.2c1.5-1.1,0.5-3.8,0.5-3.8l3.4-2.5l1.2,0.7c0,0-1.6,1.9-2,4.6c0,0,0.1,3.5,1.6,3.6
				c1.5,0.1,2.1-3.2,2.1-3.2s1.6-3.7,4.3-3.9c2.7-0.2,6.2-0.8,7.8-4c4.7-0.1,28.7-2.6,38.9-12.3c10.2-9.7,12.2-25.5,13-32.7"/>
			<path class="st4" d="M141.7,238.5c0.3-2.7,2-4.6,2-4.6l-1.2-0.7l-3.4,2.5c0,0,1,2.6-0.5,3.8c-1.5,1.2-4.2-1.5-4.1-3.2
				c0.1-1.7,2.4-5.5,2.4-5.5s-2.5,0.7-3.6,2.6c-1.1,1.9-2.3,5.4-3.4,4.7c-1.1-0.7-0.7-5.1,0-6.2c0.6-1.1,2.5-3,4.9-4.7
				c1.6,0.4,3.8,0.4,5.3-1.9c0,0,7.9,7.3,16.6,0c2.1-0.5,36.3,0.5,37.4-14.7c5.7-6.4,10.1-17.9,6.1-25.9c2.5-0.7,7.3,0.5,11.7,2.4
				c-1.2-0.4-2-0.7-2.5-0.9c-0.8,7.2-2.8,23-13,32.7c-10.2,9.7-34.2,12.3-38.9,12.3c-1.6,3.1-5.1,3.7-7.8,4
				c-2.7,0.2-4.3,3.9-4.3,3.9s-0.6,3.3-2.1,3.2C141.7,242,141.7,238.5,141.7,238.5z"/>
			<path class="st2" d="M184.2,201.7c-4.8,1.2-6.6,4.2-11.2,6.9c-4.6,2.7-17.9,9.1-19.1,10.4c0,0-3.9-0.8-7.2-1
				c-3.2-0.1-7.3,2.6-7.3,2.6s-3.8-0.9-6.5-0.4c-2.8,0.5-8.9,4.1-9.2,5c-0.3,0.9,0.4,1.7,1.9,1.8c1.5,0.1,5.2-1.9,5.6-1.9
				c0.8,0.8,1.9,1.6,3.7,1.9c-2.5,1.8-4.4,3.8-5.1,4.9c-0.7,1.1-1.1,5.4,0,6.2c1.1,0.7,2.3-2.8,3.4-4.7c1.1-1.9,3.6-2.6,3.6-2.6
				s-2.4,3.8-2.4,5.5c-0.1,1.7,2.6,4.4,4.1,3.2c1.5-1.1,0.5-3.8,0.5-3.8l3.4-2.5l1.2,0.7c0,0-1.6,1.9-2,4.6c0,0,0.1,3.5,1.6,3.6
				c1.5,0.1,2.1-3.2,2.1-3.2s1.6-3.7,4.3-3.9c2.7-0.2,6.2-0.8,7.8-4c4.7-0.1,28.7-2.6,38.9-12.3c10.2-9.7,12.2-25.5,13-32.7"/>
			<path class="st2" d="M184.2,201.7c0,0,1.2,2.3,4,3.9"/>
			<path class="st2" d="M153.9,218.9c0,0,1.3,2.1,1.5,2.9"/>
			<path class="st2" d="M157.5,231c0,0,0.4-1.1-0.1-2.1"/>
			<path class="st2" d="M139.3,220.7c0,0-4.8,1.8-6.3,2.2c-1.5,0.4-2.2,1.5-1.5,2.1"/>
			<path class="st2" d="M134.9,226.9c0,0,3.4,0.6,5.1-1.7c2.6,2.1,6.1,3.8,8.6,3.1"/>
			<path class="st2" d="M142.4,233.2c0,0-4.4-3.5-6.2-6"/>
			<path class="st2" d="M139,235.7c0,0-1.1-1.8-1.9-2.2"/>
			<path class="st2" d="M145.3,239c0,0,0.1-1.7-0.9-2.4"/>
		</g>
		<path id="changecolor_19_" class="st12" d="M210.2,165.8c0,0-7.6,2.7-11,10.4c-2.3,5.2-17.9,25.3-17.9,25.3s12.9,8.6,17.2,15.3
			c7.5-5.6,15.7-14.6,15.7-14.6"/>
		<path class="st2" d="M210.2,165.8c0,0-7.6,2.7-11,10.4c-2.3,5.2-17.9,25.3-17.9,25.3s12.9,8.6,17.2,15.3
			c7.5-5.6,15.7-14.6,15.7-14.6"/>
		<path class="st12" d="M207.3,223c-0.4,2.6-5,14-8.9,23.9h91.8c-0.6-9-1.4-18.1-1.9-20.4c-1.2-5-6.9-14-6.9-14l9.1-8.9
			c0,0-2.6-20.7-2.6-21.2c0-0.6-4.5-12.3-28.8-22.1c-3.6-1.4-8.5-1.4-8.5-1.4l-25.5,0c0,0-8.5,1.6-14.1,5.5
			c-5.6,3.9-9.8,6.5-11.8,11.8l3.9,16.8C203.4,194,208,218.3,207.3,223z"/>
		<path class="st2" d="M290.3,247c-0.6-9-1.4-18.1-1.9-20.4c-1.2-5-6.9-14-6.9-14l9.1-8.9c0,0-2.6-20.7-2.6-21.2
			c0-0.6-4.5-12.3-28.8-22.1c-3.6-1.4-8.5-1.4-8.5-1.4l-25.5,0c0,0-8.5,1.6-14.1,5.5c-5.6,3.9-9.8,6.5-11.8,11.8"/>
		<path class="st2" d="M203.2,193.1c0.2,0.9,4.8,25.2,4.1,30c-0.4,2.6-5,14-8.9,23.9"/>
		<path class="st13" d="M229.4,242.6l-43.5,0.3c-0.9,0-1.8,0-2.8,0c-1.7,0-3.3,0-4.9,0.1l-42.3,0.3l13.9,8.1
			c1.7,3.9,16,6.9,33.3,6.9s31.6-3,33.3-6.9L229.4,242.6z"/>
		<ellipse class="st6" cx="183.1" cy="239.9" rx="49.3" ry="11.4"/>
		<ellipse class="st7" cx="183.1" cy="241.8" rx="33.7" ry="7.8"/>
		<g>
			<g>
				<path class="st11" d="M245.3,227.5c1.6-1,3.6-2,3.6-2s9.6-3.3,11.9-3.7c2.3-0.4,8.2-2.3,8.2-2.3s6.5-1.5,13.6-3.5l-9-14.2
					c0,0-4.2-20.2,10.8-24.9c0,0,24.2,34.4,24.9,45.2c0.5,7.7-10.1,11.7-12.1,12.1c-1.5,0.4-2.6,0.5-2.7,0.5
					c-1.6,0.3-3.2,0.5-4.5,0.6c-7.6,0.5-15.5-1.7-18.2-1.4c-2.7,0.3-4.7,1.2-5.9,3c-1.2,1.8-2.8,5.4-3.5,6.7c-0.6,1.3-3,3.6-4.2,3.4
					c-1.2-0.2-0.8-2.9-0.8-2.9s-1.6,3.6-1.9,4.2c-0.2,0.5-1.7,1.9-3,0.9c-1.3-0.9-1.1-3.4-1.1-3.4s-0.7,3.4-2.4,2.6
					c-1.7-0.8-2.4-2-2.5-3.9c-0.1-1.1,0.1-3,0.4-5c0.2-1.3,0.4-2.6,0.7-3.7c0.6-2.6,1.7-4.5,1.7-4.5s-4.1,3-4.2,4
					c-0.2,1-0.5,2.3-0.2,3c0.3,0.8,0.5,3.8,0.2,4.2c-0.3,0.4-1.8,1.4-2.9,0.5s-1.6-4.9-1.3-7.1C240.9,233.8,243.7,228.5,245.3,227.5
					z"/>
				<path class="st4" d="M264.2,239.6c-0.1,0.2-0.2,0.5-0.3,0.7c0,0.1-0.1,0.2-0.1,0.2c-0.5,1-1,2-1.3,2.6c0,0,0,0,0,0
					c-0.1,0.1-0.1,0.3-0.2,0.4c-0.1,0.1-0.1,0.2-0.2,0.3c0,0,0,0.1-0.1,0.1c-0.1,0.1-0.2,0.3-0.3,0.5c1.8-3.5,4.2-8.4,5.5-11.4
					c2.2-5.2-0.9-4.3,9.7-1.9c7.3,1.7,15.2,0.3,22.5-1.4c1.1-0.3,2.3-0.4,3.3-1c1.1-0.6,2.2-1.3,3.3-2c1-0.6,1.9-1.3,2.9-1.9
					c-1.8,5.9-10.1,8.9-11.8,9.2c-1.5,0.4-2.6,0.5-2.7,0.5c-1.6,0.3-3.2,0.5-4.5,0.6c-7.6,0.5-15.5-1.7-18.2-1.4
					c-2.4,0.3-4.2,1-5.4,2.4c-0.2,0.2-0.3,0.4-0.5,0.6c-0.1,0.2-0.3,0.5-0.5,0.7c-0.2,0.3-0.3,0.6-0.5,0.9c-0.2,0.3-0.3,0.6-0.5,0.9
					C264.3,239.4,264.2,239.5,264.2,239.6z"/>
				<path class="st2" d="M245.3,227.5c1.6-1,3.6-2,3.6-2s9.6-3.3,11.9-3.7c2.3-0.4,8.2-2.3,8.2-2.3s6.5-1.5,13.6-3.5l-9-14.2
					c0,0-4.2-20.2,10.8-24.9c0,0,24.2,34.4,24.9,45.2c0.5,7.7-10.1,11.7-12.1,12.1c-1.5,0.4-2.6,0.5-2.7,0.5
					c-1.6,0.3-3.2,0.5-4.5,0.6c-7.6,0.5-15.5-1.7-18.2-1.4c-2.7,0.3-4.7,1.2-5.9,3c-1.2,1.8-2.8,5.4-3.5,6.7c-0.6,1.3-3,3.6-4.2,3.4
					c-1.2-0.2-0.8-2.9-0.8-2.9s-1.6,3.6-1.9,4.2c-0.2,0.5-1.7,1.9-3,0.9c-1.3-0.9-1.1-3.4-1.1-3.4s-0.7,3.4-2.4,2.6
					c-1.7-0.8-2.4-2-2.5-3.9c-0.1-1.1,0.1-3,0.4-5c0.2-1.3,0.4-2.6,0.7-3.7c0.6-2.6,1.7-4.5,1.7-4.5s-4.1,3-4.2,4
					c-0.2,1-0.5,2.3-0.2,3c0.3,0.8,0.5,3.8,0.2,4.2c-0.3,0.4-1.8,1.4-2.9,0.5s-1.6-4.9-1.3-7.1C240.9,233.8,243.7,228.5,245.3,227.5
					z"/>
				<path class="st2" d="M257.2,244.7c0,0,0.9-3.7,1.9-5.9c0.9-2.2,2.4-4.6,2.4-4.6"/>
				<path class="st2" d="M251.2,246.1c0,0,0.7-5.4,1.6-8.2c0.9-2.8,3.3-7.4,3.3-7.4"/>
				<path class="st2" d="M249.2,231.3c0,0,1.3-2.8,1.9-3.5"/>
			</g>
			<line class="st2" x1="282.5" y1="216" x2="293.4" y2="213.3"/>
			<path id="changecolor_17_" class="st12" d="M282.6,174.6c0,0,12.4,17.6,17.4,26.8c-7.2,7.8-21,13.8-21,13.8s-13.1-18.6-16.1-24.7
				"/>
			<path class="st2" d="M282.6,174.6c0,0,12.4,17.6,17.4,26.8c-7.2,7.8-21,13.8-21,13.8s-13.1-18.6-16.1-24.7"/>
		</g>
		<path class="st11" d="M249.9,149.9c0,0,2.5,6.3,4,12.1c-0.3,8.5-12.1,19.4-21.3,19.1c-9.1-0.3-11.5-4.6-11.5-4.6s0.6-7.6,0.6-12.1
			C226.6,153.5,244.1,148.1,249.9,149.9z"/>
		<path class="st4" d="M254,162c-1.5-5.8-4-12.1-4-12.1c0,0-0.1,0-0.1,0c-6.6,1.4-13.1,3.1-19.5,5.3c-3.7,2.4-6.9,5.5-8.6,9.3
			c0,1.5-0.1,3.4-0.2,5.2c0.1,0,0.1,0,0.2,0c2.7-0.6,5.6-0.4,8.3,0.3c4.1,1.1,7.8,3.4,11.2,5.9c0.7,0.5,1.4,1,2.2,1.5
			C249.1,173.5,253.8,167.3,254,162z"/>
		<path class="st2" d="M249.9,149.9c0,0,2.5,6.3,4,12.1c-0.3,8.5-12.1,19.4-21.3,19.1c-9.1-0.3-11.5-4.6-11.5-4.6s0.6-7.6,0.6-12.1
			C226.6,153.5,244.1,148.1,249.9,149.9z"/>
		<g>
			<path class="st11" d="M198.7,129c0,0-1-1.7-2.5-0.8c-1.4,0.9-0.5,4-0.3,5.4c0.1,1.4,0.8,5.9,0.8,5.9"/>
			<path class="st2" d="M198.7,129c0,0-1-1.7-2.5-0.8c-1.4,0.9-0.5,4-0.3,5.4c0.1,1.4,0.8,5.9,0.8,5.9"/>
			<path class="st11" d="M200.3,124.3c-0.6,0.8-1.1,1.6-1.4,2.4c-0.5,1.5-0.8,3.3-1.2,4.8c-1.1,4.1-1.8,8.4-1.1,12.7
				c1.1,6.5,7.4,14.5,9.6,17.7c2.1,3.2,7,7.5,11.6,7.4c4.6-0.1,11.6-2.3,15.3-4.2c3.7-1.8,12.8-8.6,16.9-15.3
				c4.1-6.7,4.5-11.7,5.1-21.2c0.6-9.5-5.7-22.2-16.3-26.2c-10.2-3.8-13.2-0.1-23.7,1.7c-3.4,0.6-5.7,3.4-7.9,6
				c-1,1.1-3.6,4-4.2,5.4c-0.5,1.3-0.1,1.6-0.1,3c0,0.7,0.1,1.3-0.1,1.9c-0.2,0.7-0.6,1.3-1.1,2
				C201.3,123.1,200.8,123.7,200.3,124.3z"/>
			<path class="st2" d="M200.3,124.3c-0.6,0.8-1.1,1.6-1.4,2.4c-0.5,1.5-0.8,3.3-1.2,4.8c-1.1,4.1-1.8,8.4-1.1,12.7
				c1.1,6.5,7.4,14.5,9.6,17.7c2.1,3.2,7,7.5,11.6,7.4c4.6-0.1,11.6-2.3,15.3-4.2c3.7-1.8,12.8-8.6,16.9-15.3
				c4.1-6.7,4.5-11.7,5.1-21.2c0.6-9.5-5.7-22.2-16.3-26.2c-10.2-3.8-13.2-0.1-23.7,1.7c-3.4,0.6-5.7,3.4-7.9,6
				c-1,1.1-3.6,4-4.2,5.4c-0.5,1.3-0.1,1.6-0.1,3c0,0.7,0.1,1.3-0.1,1.9c-0.2,0.7-0.6,1.3-1.1,2
				C201.3,123.1,200.8,123.7,200.3,124.3z"/>
			<path class="st4" d="M211.5,135c0.5-0.6,1.7-0.7,2.7-0.7c1.7,0.1,3.3,0.5,4.9,0.5c1.9,0,3.9-0.6,5.5,0.1c1.1,0.5,1.5,1.5,1.5,2.4
				c0,0.1,0,0.3-0.1,0.4c-0.2,0.2-0.6,0.3-0.9,0.3c-0.9,0.1-1.7,0.2-2.6,0.3c-1.3,0.2-2.6,0.3-3.9,0.3c-1.9,0-3.8-0.3-5.4-0.9
				C211.9,137.2,210.5,136.2,211.5,135z"/>
			<path class="st14" d="M215.8,102c-1.2,0.1-1.5,0.9-2.4,1.6c-0.9,0.7-1.8,1.4-2.6,2.1c-0.3,0.3-0.6,0.6-0.9,1
				c-0.2,0.2-0.7,1.1-0.9,1.1c1.8-0.3,3.7-0.6,5.3-1.5c0.5-0.3,1.1-0.6,1.6-0.4c0.4,0.2,0.6,0.7,0.9,0.8c0.5,0.2,1.1-0.1,1.6-0.4
				c1.5-0.7,2.5,0.2,3.9,0.4c1.2,0.2,2.6-0.3,3.4-1.3c0.2-0.2,0.3-0.4,0.5-0.6c0.8-0.5,1.6,0.6,2.3,1.2c1,0.7,2.6,0.3,3.1-0.8
				c1.6,1.7,5,2.7,7.3,2.5c-0.2,0.8,0.2,1.6,0.8,2.1s1.4,0.7,2.2,0.8c0.4,0,0.7,0.1,1.1,0.2c0.3,0.1,0.6,0.2,1,0.3
				c1.4,0.6,3.2,0.9,3.4,2.8c0.1,1.2-1,2.4-0.5,3.5c0.9-0.1,1.9,0,2.7,0.4s1.5,1.1,1.8,2c0.2,0.8,0.1,1.6-0.1,2.4
				c-0.3,1.5-0.6,3.1-0.9,4.6c-0.2,0.9-0.3,2,0.5,2.6c0.3,0.2,0.7,0.3,1,0.5c0.8,0.5,1.1,1.5,1,2.4s-0.5,1.8-0.8,2.7
				s-0.5,1.9-0.2,2.7c0.1,0.2,0.2,0.4,0.4,0.5c0.4,0.3,0.9,0.1,1.4-0.1c1-0.3,2.9,0.4,3.4-0.6c0.2-0.3,0.2-0.6,0.3-0.9
				c0.3-1.2,1.4-1.9,2.1-2.9c0.7-1,0.8-2.6-0.3-3.2c0.8-0.3,1.7-0.8,2.2-1.5c0.5-0.8,0.5-1.9-0.2-2.4c-0.2-0.1-0.4-0.3-0.4-0.5
				c0-0.2,0.1-0.4,0.2-0.5c1.7-2.1,0.9-5.6-0.9-7.4c-0.3-0.3-0.6-0.5-0.8-0.9c-0.3-0.7,0.1-1.5-0.2-2.1c-0.6-1.1-1.6-1.6-1.8-3
				c-0.1-1,0.1-2.2-0.7-2.9c-0.8-0.8-2.5-0.4-3-1.5c-0.2-0.4-0.1-1,0-1.4c0.1-1.4-0.9-2.8-2.2-3.2c-0.7-0.2-1.4-0.2-2-0.4
				c-2-0.8-4.6-2.7-6.9-1.9c-0.6,0.2-1.5,0.4-1.7-0.2c0-0.1,0-0.3,0-0.4c0-1-1.3-1.6-2.3-1.5c-1,0.1-1.9,0.7-2.9,0.8
				c-1.5,0.2-2.6-0.3-3.9-0.8c-1.6-0.6-2.7,0.2-4.3,0.2c-0.4,0-0.9-0.1-1.3,0c-0.4,0.1-0.7,0.5-1.1,0.8c-0.8,0.5-1.9,0.5-2.8,0.5
				c-1.4-0.1-2.9-0.1-3.9,0.8c-0.3,0.3-0.6,0.6-1.1,0.7C216.6,102,216.2,102,215.8,102z"/>
			<path class="st11" d="M252.6,136.4c0,0,3.2-0.9,5.3-1.7c2.1-0.8,4.4-0.2,4.8,2.4c0.5,2.6-1,9-4.2,12.3c-3.2,3.4-7.1,5-9.2,4.1
				c-2.1-0.9-2.6-2.7-2.6-2.7"/>
			<path class="st4" d="M256,139.7c0.5,0.2,0.9,0.6,1.2,1c0.9,1.2,1.1,2.9,0.6,4.4c-0.8-0.5-1.5-1.3-2.1-2.1
				c-0.4,0.1-0.4,0.6-0.4,0.9c0,0.4-0.1,0.9-0.4,0.9c-0.3,0-0.4-0.3-0.5-0.5c-0.4-0.9-0.7-1.8-1-2.7c-0.6,0.1-1.1,0.6-1.5,1.2
				c-0.3,0.6-0.5,1.2-0.6,1.8c-0.2,0.9-0.4,1.8-0.6,2.6c-0.1,0.3-0.1,0.6,0,0.8c0.1,0.2,0.3,0.2,0.5,0.3c1.2,0.2,2.2-1.1,3.4-1.4
				c0.9-0.2,1.8,0.1,2.6-0.2c0.6-0.3,1-0.9,1.3-1.6c0.8-1.6,1.3-3.4,1.4-5.2c0.2-2.6-1.7-2.7-3.8-2.8c-1.5,0-3,0.7-3.6,2.2
				C253.6,139.8,254.9,139.2,256,139.7z"/>
			<path class="st2" d="M252.6,136.4c0,0,3.2-0.9,5.3-1.7c2.1-0.8,4.4-0.2,4.8,2.4c0.5,2.6-1,9-4.2,12.3c-3.2,3.4-7.1,5-9.2,4.1
				c-2.1-0.9-2.6-2.7-2.6-2.7"/>
			<path class="st2" d="M253.6,137.8c0,0,4.1-1.3,5.7,0c1.6,1.3,1,4.7-0.7,7.6"/>
			<path class="st2" d="M254,139.5c-1.5,1.2-2,1-2,3.1c0,2.1-1.9,4.7-1.9,4.7c0.9,1.7,3.5,0.6,4,0.3"/>
			<path class="st2" d="M254.2,141.6c0,0,2.5,0.3,1.9,3.2"/>
			<path class="st6" d="M227.8,127.1c0,0,2.8-1.7,6.4-0.7s5,2.8,5.3,2.9C239.8,129.3,230.9,129,227.8,127.1z"/>
			<path class="st6" d="M213.9,125.7c0,0-2.5-1.9-5.8-1.8c-3.4,0.1-5.8,1.9-5.8,1.9S211.6,126.7,213.9,125.7z"/>
			<path class="st15" d="M216.1,136.5c0,0-0.2-1.3-1.2-1.3s-1.1,0.6-0.5,1.2C214.9,137,216.1,136.5,216.1,136.5z"/>
			<path class="st15" d="M220.3,136.7c0,0,0.1-1.1,1.1-1c1,0.1,1,1,0.4,1.2S220.3,136.7,220.3,136.7z"/>
			<path class="st2" d="M211.9,137.1c0,0-1.8-2-0.5-3.6"/>
			<path class="st2" d="M225.5,133.8c0,0,1.8,3.2-0.6,4.6"/>
			<path class="st16" d="M216.6,141.3c-1.4,0.1-3.5-0.6-4.8,0.5s-3.7,4.2-3.7,6.5c0,2.2,1.3,3.5,1.4,6.9c0.1,3.4,3.6,4.2,6.3,4.7
				c2.7,0.5,8.2-2,9.6-3.5c1.3-1.5,3.6-4.6,3.8-6.7c0.2-2.2-5.7-6.2-5.7-6.2c-1.6-2-5.1-2.5-5.1-2.5
				C217.3,141.1,217.5,141.3,216.6,141.3z"/>
			<path class="st17" d="M209.3,147.1C209.3,147,209.3,147,209.3,147.1c1.2-1.2,3.6-2.9,4.9-2.9c1.3-0.1,2.7,0.3,4.9,0.1
				c2.2-0.3,5.5,2.8,6.7,3.4c1.2,0.6,2.8,1.3,2.5,2.5c-0.4,1.1-1.8,3-4.4,3.9c-2.5,1-5.9,2.3-9.2,1.7c-3.3-0.6-3.7-1.1-4-2.9
				c-0.3-1.9-1.2-2.7-1.6-3.8C208.8,147.9,209.3,147.1,209.3,147.1z"/>
			<path class="st18" d="M226.6,152.3c-0.4,0-1.3,0.1-2.2,0.5c-1.7,0.7-5.3,0.9-7.1,1c-1.8,0.1-3.7-2-4.4-2.3
				c-0.7-0.3-2.1,0.6-2.1,0.6s-0.1,0.1-0.1,0.3c0,0.1,0.1,0.2,0.1,0.4c0.3,1.9,0.7,2.3,4,2.9c3.3,0.6,6.6-0.7,9.2-1.7
				C225,153.6,225.9,153,226.6,152.3z"/>
			<path class="st18" d="M219.1,144.2c-2.2,0.3-3.6-0.1-4.9-0.1c-0.5,0-1.3,0.3-2,0.7c0.3,0.2,1,0.4,2.1,0.6
				c1.9,0.3,5.5,0.4,6.7,0.5c0.8,0.1,1.8,0.1,2.5-0.1C222,145,220.4,144.1,219.1,144.2z"/>
			<path class="st14" d="M206.6,124.1c-0.2,0.4-0.3,0.9-0.2,1.4c0.1,0.2,0.2,0.5,0.3,0.7c1.3,0.1,2.7,0.1,4,0
				c0.4-0.5,0.5-1.1,0.4-1.7c0-0.1,0-0.1,0-0.1c-0.9-0.3-1.8-0.4-2.9-0.4C207.5,124,207,124,206.6,124.1z"/>
			<path class="st14" d="M235.3,127c0-0.1-0.1-0.2-0.1-0.2c-0.3-0.1-0.6-0.2-1-0.3c-1.1-0.3-2.2-0.4-3.1-0.3
				c-0.4,0.5-0.7,1.2-0.5,1.9c0,0.1,0,0.1,0.1,0.2c1.3,0.3,2.7,0.5,4,0.7C235.2,128.4,235.5,127.7,235.3,127z"/>
			<path class="st14" d="M228.1,119.5c0,0,8.4-1.8,13.3,2c-3.1-4.3-8.7-5.1-13-4.8C227.5,117.8,228.1,119.5,228.1,119.5z"/>
			<path class="st14" d="M216.7,117.7c0,0,0.7-1.6,0.6-2.5c-2.4-2.5-11.2-1-13.9,2.1C208.8,115.8,212.8,115.2,216.7,117.7z"/>
		</g>
		<path class="st6" d="M214.6,144.6c0,0-0.2,1.2,0.3,1.4s1.6,0.4,1.8,0.1s0.1-1.1,0.1-1.1L214.6,144.6z"/>
		<path class="st6" d="M217.7,145.1c0,0,0,1,0.3,1.2s1.7,0.4,2.2,0c0.5-0.4,0.2-1.2,0.2-1.2L217.7,145.1z"/>
		<path class="st6" d="M212.8,152c0,0-0.6,0.4-0.7,0.7c-0.1,0.4-0.3,1.5,0.3,1.4c0.7-0.1,1-0.1,1-0.1s0.2,0.5,1,0.6
			c0.8,0.2,1.3-0.1,1.3-0.1s0.3,0.7,0.9,0.7c0.6,0,1-0.3,1-0.3s0.9,0.4,1.6,0.2c0.7-0.1,1-0.5,1-0.5s-0.1-1.4-0.8-1.5
			s-1.7,0.4-1.7,0.4s-0.6-0.7-1.1-0.7c-0.6,0-0.9,0.8-0.9,0.8s-0.2-0.9-0.9-1c-0.7-0.1-1.1,0.3-1.1,0.3S213.5,151.9,212.8,152z"/>
		<path class="st2" d="M213.5,131.5c0,0-0.3-0.6,1.7-3.7c2-3.1,3.4-5.8,3.4-7.1"/>
	</g>
	<g>
		<path class="st19" d="M45.8,39.3c-0.8-0.2-1.6,0.6-2.4,0.7c-1.1,0.2-2.3,0.1-3.4,0.1c-1.4-0.1-2.9-0.3-4-1.1
			c-0.3-0.2-0.6-0.5-1-0.7c-0.3-0.1-0.5-0.1-0.8-0.1c-1.2,0-2.4,0.2-3.5-0.1c-1.1-0.2-2.3-0.9-2.6-2c-0.1-0.5-0.1-0.9-0.3-1.4
			c-0.3-0.6-0.9-1-1.4-1.5c-0.9-0.9-1.4-2.2-1.3-3.4c0.1-0.7,0.3-1.3,0-1.9c-0.2-0.4-0.5-0.6-0.8-0.9c-1.6-1.5-1.6-4.4,0-6
			c0.2-0.2,0.5-0.5,0.7-0.8c0.1-0.2,0.1-0.5,0.2-0.7c0.1-1.2,0.1-2.5,0.4-3.6s1-2.3,2.1-2.9c1-3.2,4.2-5.7,7.6-5.8
			c0.2,0,0.5,0,0.7-0.2c0.2-0.2,0.3-0.5,0.3-0.8c0.3-1.3,1.6-2.3,2.9-2.7c1.3-0.4,2.8-0.3,4.2-0.2c0.7-1.5,2.2-2.5,3.8-2.8
			s3.3,0.2,4.7,1.1c0.3,0.2,0.7,0.5,1.1,0.6c0.3,0.1,0.7,0,1.1-0.1c1.5-0.3,3.2-0.4,4.6,0.3c1.4,0.7,2.1,2.4,1.8,3.9
			c0-0.1,1.5,0.9,1.6,1c0.5,0.5,0.9,1.3,1.1,2c0.2,1.1,0.2,2.1-0.3,3.1c-1,1.8-2.3,3.4-3.4,5.1c-2.6,4.2-5.2,8.4-7.9,12.6
			C49.6,33.2,47.6,36.2,45.8,39.3z"/>
		<path class="st1" d="M64.6,9.7c0,0-10.4-1.6-17.4,8.3c-2.1,3-7.1,15.6-2.3,20.2c4.7,4.7,5.4,2.2,5.4,2.2s5.1-13.2,5.1-13.7
			C55.4,26.2,64.6,9.7,64.6,9.7z"/>
		<path class="st19" d="M119.8,31.5c0,0.8-0.4,4.7-1.7,4.4c-0.4-0.1-0.7-0.6-0.9-1c-0.8-1.5-1.7-3.1-3.2-3.8
			c-1.3-0.6-2.8-0.5-4.2-0.1c-1.4,0.4-2.7,1-4,1.5c-5.4,1.8-11.2,0.2-16.9,0.4c-6.9,0.2-14.7,3-17.3,10c-0.6,1.7-0.9,3.6-2.1,4.9
			c-0.8,0.9-1.9,1.4-2.7,2.3c-1.3,1.6-1.1,3.6-1.1,5.5c-0.1,2.4-0.1,4.9-0.4,7.3c-0.1,1.2-0.5,2.5-1.6,2.9c-1.1,0.4-2.2-0.4-2.8-1.4
			c-0.6-1-0.9-2.1-1.5-3.1c-0.6,0.8-0.6,1.8-0.9,2.7c-0.3,0.8-0.8,1.5-1.3,2.2c-0.8,1.4-2.1,3.2-3.8,3.5c-1,0.2-0.8-0.2-1.4-0.8
			c-0.7-0.7-1.4-1.3-2.1-2c-1.5-1.5-2.6-3.4-2.7-5.5c-0.1-0.7,0-1.5-0.3-2.2c-0.2-0.5-0.5-0.8-0.8-1.3c-1.2-1.7-1.8-3.8-1.5-5.9
			c0.1-0.6,0.3-1.3,0.2-1.9c-0.1-0.6-0.3-1.1-0.4-1.6c-0.4-1.5-0.2-3.2,0.7-4.6c0.3-0.5,0.6-0.9,0.7-1.4c0.1-0.5-0.1-0.9-0.3-1.4
			c-0.7-2-1.2-4.3,0-6.1c0.3-0.4,0.6-0.8,0.8-1.3c0.5-1.2-0.1-2.5-0.2-3.7c-0.1-1.9,1.2-3.8,3-4.5c-0.6-1.2-0.1-2.8,0.8-3.9
			c0.9-1.1,2.2-1.7,3.5-2.4c0.4-1.2,1.1-2.3,1.8-3.4c0.8-1.3,1.5-1.5,3-1.6c0.7,0,1.4-0.1,1.9-0.6c0.5-0.4,0.6-1.1,0.8-1.7
			c0.3-1.1,0.8-2.2,1.6-3c0.9-0.8,2.2-1.1,3.3-0.6c0.4-0.8,1-1.7,2-1.9c1-0.1,1.9,0.6,2.8,0.4c0.6-0.1,1-0.6,1.5-0.9
			c2.1-1.6,5.3-1.5,7.3,0.1c0.8-0.6,1.7-1,2.7-1.1c0.5,0,1,0,1.4,0.2c0.4,0.2,0.7,0.4,1,0.6c1.1,0.6,2.3,0.8,3.6,0.9
			c1.1,0.1,2.2,0.2,3.4,0.2c0.6,0,1.2,0,1.7,0.2c1,0.4,1.5,1.4,1.9,2.4c1.5-0.8,3-0.5,4.5,0.1c1.6,0.6,2.9,1.9,3.6,3.4
			c0.2,0.3,0.3,0.7,0.6,0.8c0.3,0.1,0.6,0.1,0.9,0.1c3.3-0.1,6.4,2.7,6.5,5.9c3.1,0.6,5.1,3.3,5.3,6.3c2.4,0.7,3.5,3.1,3.4,5.4
			C119.8,31.4,119.8,31.5,119.8,31.5z"/>
	</g>
	<path class="st3" d="M33.3,195.4c-8.9,2-13.8,3.7-19.9,6.4"/>
	<path class="st2" d="M136.5,142.8c0,0-4.9-1.4-7.3-1.5c-2.3-0.1-19.1,3.2-19.1,3.2"/>
	<path class="st3" d="M135.1,148.2c0,0-11.4,1.2-14.1,2.1c-2.7,1-7.6,2-7.6,2"/>
	<path class="st3" d="M59.8,61.9c0,0-3.4-6.2-5.6-5.4c-2.2,0.9-5.5,2.5-3.7,9.2c1.9,6.7,5.8,9.2,7.7,9.5s3.3-1.1,3.5-1.9"/>
	<path class="st3" d="M58.8,64.4c0,0-0.5-3.8-3.5-4.1c-3.1-0.3-3.8,2.9-3.8,2.9"/>
	<path class="st3" d="M55.7,62.7c0,0,0,1.5,0.3,2.9c0.3,1.4,2.7,1.3,3.1,2.1c0.5,0.8-0.1,2.9-1.6,2.6c-1.5-0.3-4.1-1.2-4.5-3.6"/>
	<path class="st3" d="M93.8,78.1c0,0,4.4,3,6.9,2.5c3.5-0.7,4.2-3.2,3.3-6.3c-0.8-2.8-1.4-12.6-1.4-12.8"/>
	<g>
		<path class="st19" d="M118.3,55.9c-5-5.3-12-2-12-2l0.1-2.3c0,0,5.3-1.5,8.3-0.2C117.8,52.5,118.3,55.9,118.3,55.9z"/>
		<path class="st19" d="M74.7,55.3c8.5-5,15.8-2.7,15.8-2.7l-0.1-2C90.3,50.7,81.3,48.7,74.7,55.3z"/>
		<path class="st8" d="M116.3,62.3c0,0-3.4-3.1-10.5,0.6C105.8,62.9,110.5,66.3,116.3,62.3z"/>
		<path class="st6" d="M116.3,62.3c0,0-3.4-3.1-10.5,0.6"/>
		<path class="st19" d="M109,64.1c-0.2-0.5-0.4-1.1-0.4-1.7c0-0.3,0-0.5,0.1-0.8c2.5-0.8,4.4-0.7,5.6-0.3c0.1,0.3,0.2,0.7,0.2,1.1
			c0,0.3,0,0.6-0.1,0.9C112.3,64.3,110.5,64.4,109,64.1z"/>
		<path class="st8" d="M90.1,63.1c0,0-3.5-3.7-11.4-0.4C78.7,62.7,83.6,66.9,90.1,63.1z"/>
		<path class="st6" d="M90.1,63.1c0,0-3.5-3.7-11.4-0.4"/>
		<path class="st19" d="M82.1,64.3c-0.2-0.6-0.3-1.2-0.3-1.8c0-0.3,0.1-0.6,0.1-0.9c2.8-0.6,4.8-0.3,6.1,0.3
			c0.1,0.4,0.1,0.8,0.1,1.2c0,0.3-0.1,0.7-0.2,1C85.7,64.9,83.6,64.8,82.1,64.3z"/>
		<path class="st2" d="M117.4,60.6c-0.2,0-5.2-3.9-12.4,0.1"/>
		<path class="st2" d="M91.2,61.2c0,0-6.2-4.5-13.9,0.3"/>
	</g>
	<path class="st2" d="M90.3,92.7c0,0,8.9,5.9,12.8-0.2"/>
</g>
</svg>
