<?xml version="1.0" encoding="utf-8"?>
<!-- Generator: Adobe Illustrator 22.0.1, SVG Export Plug-In . SVG Version: 6.00 Build 0)  -->
<svg version="1.1" id="Layer_1" xmlns="http://www.w3.org/2000/svg" xmlns:xlink="http://www.w3.org/1999/xlink" x="0px" y="0px"
	 width="309.6px" height="243.8px" viewBox="0 0 309.6 243.8" style="enable-background:new 0 0 309.6 243.8;" xml:space="preserve"
	>
<style type="text/css">
	.st0{fill:#75904B;stroke:#000000;stroke-linecap:round;stroke-linejoin:round;stroke-miterlimit:10;}
	.st1{fill:#618031;}
	.st2{fill:none;stroke:#000000;stroke-linecap:round;stroke-linejoin:round;stroke-miterlimit:10;}
	.st3{fill:#FFD1C2;}
	.st4{fill:#FFC7B4;}
	.st5{fill:#EFBFA0;}
	.st6{fill:#FFFFFF;stroke:#000000;stroke-linecap:round;stroke-linejoin:round;stroke-miterlimit:10;}
	.st7{fill:#D3A64A;}
	.st8{fill:#E9A77E;}
	.st9{fill:#CB9A80;}
	.st10{fill:#C18362;}
	.st11{fill:#F38B24;}
	.st12{fill:#C1C1C1;stroke:#000000;stroke-linecap:round;stroke-linejoin:round;stroke-miterlimit:10;}
	.st13{fill:#161616;stroke:#000000;stroke-linecap:round;stroke-linejoin:round;stroke-miterlimit:10;}
	.st14{fill:#F38B24;stroke:#000000;stroke-linecap:round;stroke-linejoin:round;stroke-miterlimit:10;}
	.st15{fill:#391616;stroke:#000000;stroke-linecap:round;stroke-linejoin:round;stroke-miterlimit:10;}
	.st16{fill:#9F6856;}
	.st17{fill:#672700;stroke:#000000;stroke-linecap:round;stroke-linejoin:round;stroke-miterlimit:10;}
	.st18{fill:#862E29;stroke:#000000;stroke-linecap:round;stroke-linejoin:round;stroke-miterlimit:10;}
	.st19{fill:#955E43;stroke:#000000;stroke-linecap:round;stroke-linejoin:round;stroke-miterlimit:10;}
	.st20{fill:#744626;}
	.st21{fill:#0095CF;stroke:#000000;stroke-linecap:round;stroke-linejoin:round;stroke-miterlimit:10;}
	.st22{fill:#FFAB9B;}
	.st23{fill:#FFFFFF;}
	.st24{fill:#744626;stroke:#000000;stroke-linecap:round;stroke-linejoin:round;stroke-miterlimit:10;}
	.st25{fill:#FFEEE9;stroke:#000000;stroke-linecap:round;stroke-linejoin:round;stroke-miterlimit:10;}
	.st26{fill:#070707;stroke:#000000;stroke-linecap:round;stroke-linejoin:round;stroke-miterlimit:10;}
	.st27{fill:#FFD9CC;}
</style>
<g>
	<g>
		<path class="st0" d="M3.6,231.7c12.6-25.5-2.7-108.6-2.7-108.6l0.4-7.1c0,0-1.2-20.2,18.2-27.4s48.8-13.2,57.2-9.9
			c8.4,3.3,58.4,4.8,63.2,29.3c4.8,24.6-25.2,78.3-25.2,85.2v39.8"/>
		<path class="st1" d="M86.2,185.7c-9-3.4-26.2,7.6-37.4,3c-11.1-4.6-13.9-29.9-10.7-37.1s2.4-31.3,2.4-31.3l-5.1,12.9L6.3,160.9
			c2,18.8,3.4,40.9,1.2,56.8c4.8,5.6,11.1,10.5,16.9,14.2l24.5,0.3c3.5-2.8,8.3-6.5,14.8-11.3c19.1-14.3,47.2-14.3,51.1-18.2v-9.5
			c0-1.2,0.2-4.3,0.2-4.3C104.7,195,93.4,188.4,86.2,185.7z"/>
		<path class="st2" d="M3.6,231.7c12.6-25.5-2.7-108.6-2.7-108.6l0.4-7.1c0,0-1.2-20.2,18.2-27.4s48.8-13.2,57.2-9.9
			c8.4,3.3,58.4,4.8,63.2,29.3c4.8,24.6-25.2,78.3-25.2,85.2v39.8"/>
		<path class="st3" d="M148.3,232.2c0,0-8.8-31.5-8.6-40.7s0.8-71.3,0.8-71.3s-19.8,1.2-25.4,1.6c1.4,24.6-0.6,66.1-0.4,77.7
			s7.6,33.5,7.6,33.5"/>
		<path class="st4" d="M130.2,232.7c-12.5-32.5-1.4-95.8,1.8-112c-6.1,0.4-13.6,0.8-16.7,1.1c1.4,24.6-0.6,66.1-0.4,77.7
			c0.2,11.6,7.6,33.5,7.6,33.5L130.2,232.7z"/>
		<path class="st2" d="M148.3,232.2c0,0-8.8-31.5-8.6-40.7s0.8-71.3,0.8-71.3s-19.8,1.2-25.4,1.6c1.4,24.6-0.6,66.1-0.4,77.7
			s7.6,33.5,7.6,33.5"/>
		<path class="st0" d="M115.6,127.7c0,0,16,27.3,14.2,40.9c-1.8,13.6-19.8,23-19.8,23"/>
		<path class="st3" d="M62.3,60.4c0,0-1.2,21-5.4,30.2s3,29,23.7,26.7c20.7-2.4,16.2-37.1,16.2-37.1L62.3,60.4z"/>
		<path class="st4" d="M62.3,60.4c0,0-0.7,11.5-2.7,21.3c2,8,8.1,24.4,25.1,24.2c3.7,0,7.2-0.9,10.3-2.2c3.4-10.6,1.7-23.5,1.7-23.5
			L62.3,60.4z"/>
		<path class="st2" d="M62.3,60.4c0,0-1.2,21-5.4,30.2s3,29,23.7,26.7c20.7-2.4,16.2-37.1,16.2-37.1L62.3,60.4z"/>
		<g>
			<path class="st5" d="M128.1,136c0.1,0.1,0.2,0.1,0.3,0.2c0-0.1,0.1-0.2,0.1-0.3C128.3,136,128.2,136,128.1,136z"/>
			<path class="st3" d="M122.7,122.1c2-0.6,4.8-0.3,5.9-0.1c-0.2-1.2-0.8-4-2.7-4c-2.6,0-11.6,4-11.7,4.1l-8.1,3.2
				C111.8,124.2,121,122.5,122.7,122.1z"/>
			<path class="st2" d="M122.7,122.1c2-0.6,4.8-0.3,5.9-0.1c-0.2-1.2-0.8-4-2.7-4c-2.6,0-11.6,4-11.7,4.1l-8.1,3.2
				C111.8,124.2,121,122.5,122.7,122.1z"/>
			<path class="st6" d="M108.3,123.2c4.7-4.2,21.2-4.3,29.8-1.9c8.6,2.4,18.1,3.4,22.2,2.3c4-1,14.6-0.4,14.4,3
				c-0.3,3.5-6.6,8.1-13,6.4c-6.4-1.7-6.4-5.6-13.8-6.5s-29.1,0.7-29.1,0.7S103.6,127.4,108.3,123.2z"/>
			
				<ellipse transform="matrix(2.687709e-02 -0.9996 0.9996 2.687709e-02 34.2668 288.0083)" class="st7" cx="165.1" cy="126.4" rx="1.9" ry="7.1"/>
			<path class="st2" d="M155.5,126.6c0,0,9.7,3.6,17.2,0.9"/>
			<path class="st8" d="M114.9,129.6c-1.2,0.3-3.9,1.1-6.1,1.8c2.4-0.6,5.9-1.6,9.1-2.4c-0.6,0.1-1.3,0.3-1.9,0.4L114.9,129.6z"/>
			<path class="st8" d="M133.9,128.5c0,0,0.1,0,0.1,0c-0.4-0.1-0.8-0.1-1.2-0.2C133.2,128.3,133.6,128.4,133.9,128.5z"/>
			<path class="st3" d="M135.1,133.1c3.1-1.3,4.7-1.1,4.8-2.9c0-1.6-2.8-2.3-3.7-2.5c0.7,0.1,2.6,0.5,2.9-0.7
				c0.3-1.1-2.4-2.7-4.7-3.8c0,0,0,0,0,0c-0.1-0.1-0.3-0.1-0.4-0.2c-0.6-0.3-1.2-0.5-1.6-0.6c-2-0.7-3.5-1-3.5-1c0,0,0,0,0,0
				c0,0-2.6-0.5-4.3,0c-1.7,0.5-14.6,2.7-15.2,2.8c-2.3,0.5-8.3,2-10.9,4.2c-1.9,1.6-3,7.2-4.1,12.7c-0.8,4.2-1.6,8.1-2.7,10.5
				c-2.7,5.9-58.4,28.8-58.4,28.8s2-42.3,2.1-47.2c-10.1-15.5-31.6-11-34.6-10.2c0.1,2.2-0.2,3.4-0.2,14.1c0,2.9,0.1,3.2,0,7.7
				c-0.4,26.1,0.7,45.8,6.9,58.1c8.5,16.9,16.9,13.8,22.2,13.1c5.3-0.6,20.8-9.5,35.7-19.7c14.9-10.2,52.8-40,55.6-41.9
				c0,0,15.8-8.6,16.3-10.2c0.5-1.7-0.2-2.6-2.2-2.6c-2,0-14.1,3.5-15.6,4.2c0,0,3.5-2.3,5.2-3.3c5.8-3.5,10.3-1.6,14-4.3
				C141.4,136,140.1,132.6,135.1,133.1z"/>
			<path class="st4" d="M121,154.3c0,0,15.8-8.6,16.3-10.2c0.3-0.9,0.2-1.6-0.3-2c-2.4,1.6-8.2,5.3-12.7,7.4
				c-5.9,2.7-14.7,2.5-17.2,7.8c-2.5,5.3-43.1,31.7-51.9,36.4c-8.8,4.6-39.7,13-45.2,0.6c-4.5-10.3-2.1-56.8-1.2-72.4
				c-4,0.2-7,0.9-8,1.2c0.1,2.2-0.2,3.4-0.2,14.1c0,2.9,0.1,3.2,0,7.7c-0.4,26.1,0.7,45.8,6.9,58.1c8.5,16.9,16.9,13.8,22.2,13.1
				c5.3-0.6,20.8-9.5,35.7-19.7C80.3,186.1,118.2,156.3,121,154.3z"/>
			<path class="st2" d="M135.1,133.1c3.1-1.3,4.7-1.1,4.8-2.9c0-1.6-2.8-2.3-3.7-2.5c0.7,0.1,2.6,0.5,2.9-0.7
				c0.3-1.1-2.4-2.7-4.7-3.8c0,0,0,0,0,0c-0.1-0.1-0.3-0.1-0.4-0.2c-0.6-0.3-1.2-0.5-1.6-0.6c-2-0.7-3.5-1-3.5-1c0,0,0,0,0,0
				c0,0-2.6-0.5-4.3,0c-1.7,0.5-14.6,2.7-15.2,2.8c-2.3,0.5-8.3,2-10.9,4.2c-1.9,1.6-3,7.2-4.1,12.7c-0.8,4.2-1.6,8.1-2.7,10.5
				c-2.7,5.9-58.4,28.8-58.4,28.8s2-42.3,2.1-47.2c-10.1-15.5-31.6-11-34.6-10.2c0.1,2.2-0.2,3.4-0.2,14.1c0,2.9,0.1,3.2,0,7.7
				c-0.4,26.1,0.7,45.8,6.9,58.1c8.5,16.9,16.9,13.8,22.2,13.1c5.3-0.6,20.8-9.5,35.7-19.7c14.9-10.2,52.8-40,55.6-41.9
				c0,0,15.8-8.6,16.3-10.2c0.5-1.7-0.2-2.6-2.2-2.6c-2,0-14.1,3.5-15.6,4.2c0,0,3.5-2.3,5.2-3.3c5.8-3.5,10.3-1.6,14-4.3
				C141.4,136,140.1,132.6,135.1,133.1z"/>
		</g>
		<g>
			<g>
				<path class="st9" d="M184.2,186.7c-4.8,1.2-6.6,4.2-11.2,6.9c-4.6,2.7-17.9,9.1-19.1,10.4c0,0-3.9-0.8-7.2-1
					c-3.2-0.1-7.3,2.6-7.3,2.6s-3.8-0.9-6.5-0.4c-2.8,0.5-8.9,4.1-9.2,5c-0.3,0.9,0.4,1.7,1.9,1.8c1.5,0.1,5.2-1.9,5.6-1.9
					c0.8,0.8,1.9,1.6,3.7,1.9c-2.5,1.8-4.4,3.8-5.1,4.9c-0.7,1.1-1.1,5.4,0,6.2c1.1,0.7,2.3-2.8,3.4-4.7c1.1-1.9,3.6-2.6,3.6-2.6
					s-2.4,3.8-2.4,5.5c-0.1,1.7,2.6,4.4,4.1,3.2c1.5-1.1,0.5-3.8,0.5-3.8l3.4-2.5l1.2,0.7c0,0-1.6,1.9-2,4.6c0,0,0.1,3.5,1.6,3.6
					c1.5,0.1,2.1-3.2,2.1-3.2s1.6-3.7,4.3-3.9c2.7-0.2,6.2-0.8,7.8-4c4.7-0.1,28.7-2.6,38.9-12.3c10.2-9.7,12.2-25.5,13-32.7"/>
				<path class="st10" d="M141.7,223.5c0.3-2.7,2-4.6,2-4.6l-1.2-0.7l-3.4,2.5c0,0,1,2.6-0.5,3.8c-1.5,1.2-4.2-1.5-4.1-3.2
					c0.1-1.7,2.4-5.5,2.4-5.5s-2.5,0.7-3.6,2.6c-1.1,1.9-2.3,5.4-3.4,4.7c-1.1-0.7-0.7-5.1,0-6.2c0.6-1.1,2.5-3,4.9-4.7
					c1.6,0.4,3.8,0.4,5.3-1.9c0,0,7.9,7.3,16.6,0c2.1-0.5,36.3,0.5,37.4-14.7c5.7-6.4,10.1-17.9,6.1-25.9c2.5-0.7,7.3,0.5,11.7,2.4
					c-1.2-0.4-2-0.7-2.5-0.9c-0.8,7.2-2.8,23-13,32.7c-10.2,9.7-34.2,12.3-38.9,12.3c-1.6,3.1-5.1,3.7-7.8,4
					c-2.7,0.2-4.3,3.9-4.3,3.9s-0.6,3.3-2.1,3.2C141.7,227,141.7,223.5,141.7,223.5z"/>
				<path class="st2" d="M184.2,186.7c-4.8,1.2-6.6,4.2-11.2,6.9c-4.6,2.7-17.9,9.1-19.1,10.4c0,0-3.9-0.8-7.2-1
					c-3.2-0.1-7.3,2.6-7.3,2.6s-3.8-0.9-6.5-0.4c-2.8,0.5-8.9,4.1-9.2,5c-0.3,0.9,0.4,1.7,1.9,1.8c1.5,0.1,5.2-1.9,5.6-1.9
					c0.8,0.8,1.9,1.6,3.7,1.9c-2.5,1.8-4.4,3.8-5.1,4.9c-0.7,1.1-1.1,5.4,0,6.2c1.1,0.7,2.3-2.8,3.4-4.7c1.1-1.9,3.6-2.6,3.6-2.6
					s-2.4,3.8-2.4,5.5c-0.1,1.7,2.6,4.4,4.1,3.2c1.5-1.1,0.5-3.8,0.5-3.8l3.4-2.5l1.2,0.7c0,0-1.6,1.9-2,4.6c0,0,0.1,3.5,1.6,3.6
					c1.5,0.1,2.1-3.2,2.1-3.2s1.6-3.7,4.3-3.9c2.7-0.2,6.2-0.8,7.8-4c4.7-0.1,28.7-2.6,38.9-12.3c10.2-9.7,12.2-25.5,13-32.7"/>
				<path class="st2" d="M184.2,186.7c0,0,1.2,2.3,4,3.9"/>
				<path class="st2" d="M153.9,203.9c0,0,1.3,2.1,1.5,2.9"/>
				<path class="st2" d="M157.5,216c0,0,0.4-1.1-0.1-2.1"/>
				<path class="st2" d="M139.3,205.7c0,0-4.8,1.8-6.3,2.2c-1.5,0.4-2.2,1.5-1.5,2.1"/>
				<path class="st2" d="M134.9,211.9c0,0,3.4,0.6,5.1-1.7c2.6,2.1,6.1,3.8,8.6,3.1"/>
				<path class="st2" d="M142.4,218.2c0,0-4.4-3.5-6.2-6"/>
				<path class="st2" d="M139,220.6c0,0-1.1-1.8-1.9-2.2"/>
				<path class="st2" d="M145.3,223.9c0,0,0.1-1.7-0.9-2.4"/>
			</g>
			<path id="changecolor_23_" class="st11" d="M210.2,150.8c0,0-7.6,2.7-11,10.4c-2.3,5.2-17.9,25.3-17.9,25.3s12.9,8.6,17.2,15.3
				c7.5-5.6,15.7-14.6,15.7-14.6"/>
			<path class="st2" d="M210.2,150.8c0,0-7.6,2.7-11,10.4c-2.3,5.2-17.9,25.3-17.9,25.3s12.9,8.6,17.2,15.3
				c7.5-5.6,15.7-14.6,15.7-14.6"/>
			<path class="st11" d="M207.3,208c-0.4,2.6-5,14-8.9,23.9h91.8c-0.6-9-1.4-18.1-1.9-20.4c-1.2-5-6.9-14-6.9-14l9.1-8.9
				c0,0-2.6-20.7-2.6-21.2c0-0.6-4.5-12.3-28.8-22.1c-3.6-1.4-8.5-1.4-8.5-1.4l-25.5,0c0,0-8.5,1.6-14.1,5.5
				c-5.6,3.9-9.8,6.5-11.8,11.8l3.9,16.8C203.4,179,208,203.3,207.3,208z"/>
			<path class="st2" d="M290.3,231.9c-0.6-9-1.4-18.1-1.9-20.4c-1.2-5-6.9-14-6.9-14l9.1-8.9c0,0-2.6-20.7-2.6-21.2
				c0-0.6-4.5-12.3-28.8-22.1c-3.6-1.4-8.5-1.4-8.5-1.4l-25.5,0c0,0-8.5,1.6-14.1,5.5c-5.6,3.9-9.8,6.5-11.8,11.8"/>
			<path class="st2" d="M203.2,178c0.2,0.9,4.8,25.2,4.1,30c-0.4,2.6-5,14-8.9,23.9"/>
			<path class="st12" d="M229.4,227.6l-43.5,0.3c-0.9,0-1.8,0-2.8,0c-1.7,0-3.3,0-4.9,0.1l-42.3,0.3l13.9,8.1
				c1.7,3.9,16,6.9,33.3,6.9s31.6-3,33.3-6.9L229.4,227.6z"/>
			<ellipse class="st6" cx="183.1" cy="224.9" rx="49.3" ry="11.4"/>
			<ellipse class="st7" cx="183.1" cy="226.8" rx="33.7" ry="7.8"/>
			<g>
				<g>
					<path class="st9" d="M245.3,212.5c1.6-1,3.6-2,3.6-2s9.6-3.3,11.9-3.7c2.3-0.4,8.2-2.3,8.2-2.3s6.5-1.5,13.6-3.5l-9-14.2
						c0,0-4.2-20.2,10.8-24.9c0,0,24.2,34.4,24.9,45.2c0.5,7.7-10.1,11.7-12.1,12.1c-1.5,0.4-2.6,0.5-2.7,0.5
						c-1.6,0.3-3.2,0.5-4.5,0.6c-7.6,0.5-15.5-1.7-18.2-1.4c-2.7,0.3-4.7,1.2-5.9,3c-1.2,1.8-2.8,5.4-3.5,6.7
						c-0.6,1.3-3,3.6-4.2,3.4c-1.2-0.2-0.8-2.9-0.8-2.9s-1.6,3.6-1.9,4.2c-0.2,0.5-1.7,1.9-3,0.9c-1.3-0.9-1.1-3.4-1.1-3.4
						s-0.7,3.4-2.4,2.6c-1.7-0.8-2.4-2-2.5-3.9c-0.1-1.1,0.1-3,0.4-5c0.2-1.3,0.4-2.6,0.7-3.7c0.6-2.6,1.7-4.5,1.7-4.5s-4.1,3-4.2,4
						c-0.2,1-0.5,2.3-0.2,3c0.3,0.8,0.5,3.8,0.2,4.2c-0.3,0.4-1.8,1.4-2.9,0.5s-1.6-4.9-1.3-7.1
						C240.9,218.7,243.7,213.5,245.3,212.5z"/>
					<path class="st10" d="M264.2,224.5c-0.1,0.2-0.2,0.5-0.3,0.7c0,0.1-0.1,0.2-0.1,0.2c-0.5,1-1,2-1.3,2.6c0,0,0,0,0,0
						c-0.1,0.1-0.1,0.3-0.2,0.4c-0.1,0.1-0.1,0.2-0.2,0.3c0,0,0,0.1-0.1,0.1c-0.1,0.1-0.2,0.3-0.3,0.5c1.8-3.5,4.2-8.4,5.5-11.4
						c2.2-5.2-0.9-4.3,9.7-1.9c7.3,1.7,15.2,0.3,22.5-1.4c1.1-0.3,2.3-0.4,3.3-1c1.1-0.6,2.2-1.3,3.3-2c1-0.6,1.9-1.3,2.9-1.9
						c-1.8,5.9-10.1,8.9-11.8,9.2c-1.5,0.4-2.6,0.5-2.7,0.5c-1.6,0.3-3.2,0.5-4.5,0.6c-7.6,0.5-15.5-1.7-18.2-1.4
						c-2.4,0.3-4.2,1-5.4,2.4c-0.2,0.2-0.3,0.4-0.5,0.6c-0.1,0.2-0.3,0.5-0.5,0.7c-0.2,0.3-0.3,0.6-0.5,0.9
						c-0.2,0.3-0.3,0.6-0.5,0.9C264.3,224.4,264.2,224.5,264.2,224.5z"/>
					<path class="st2" d="M245.3,212.5c1.6-1,3.6-2,3.6-2s9.6-3.3,11.9-3.7c2.3-0.4,8.2-2.3,8.2-2.3s6.5-1.5,13.6-3.5l-9-14.2
						c0,0-4.2-20.2,10.8-24.9c0,0,24.2,34.4,24.9,45.2c0.5,7.7-10.1,11.7-12.1,12.1c-1.5,0.4-2.6,0.5-2.7,0.5
						c-1.6,0.3-3.2,0.5-4.5,0.6c-7.6,0.5-15.5-1.7-18.2-1.4c-2.7,0.3-4.7,1.2-5.9,3c-1.2,1.8-2.8,5.4-3.5,6.7
						c-0.6,1.3-3,3.6-4.2,3.4c-1.2-0.2-0.8-2.9-0.8-2.9s-1.6,3.6-1.9,4.2c-0.2,0.5-1.7,1.9-3,0.9c-1.3-0.9-1.1-3.4-1.1-3.4
						s-0.7,3.4-2.4,2.6c-1.7-0.8-2.4-2-2.5-3.9c-0.1-1.1,0.1-3,0.4-5c0.2-1.3,0.4-2.6,0.7-3.7c0.6-2.6,1.7-4.5,1.7-4.5s-4.1,3-4.2,4
						c-0.2,1-0.5,2.3-0.2,3c0.3,0.8,0.5,3.8,0.2,4.2c-0.3,0.4-1.8,1.4-2.9,0.5s-1.6-4.9-1.3-7.1
						C240.9,218.7,243.7,213.5,245.3,212.5z"/>
					<path class="st2" d="M257.2,229.7c0,0,0.9-3.7,1.9-5.9c0.9-2.2,2.4-4.6,2.4-4.6"/>
					<path class="st2" d="M251.2,231c0,0,0.7-5.4,1.6-8.2s3.3-7.4,3.3-7.4"/>
					<path class="st2" d="M249.2,216.3c0,0,1.3-2.8,1.9-3.5"/>
				</g>
				<line class="st2" x1="282.5" y1="201" x2="293.4" y2="198.3"/>
				<path id="changecolor_18_" class="st11" d="M282.6,159.6c0,0,12.4,17.6,17.4,26.8c-7.2,7.8-21,13.8-21,13.8
					s-13.1-18.6-16.1-24.7"/>
				<path class="st2" d="M282.6,159.6c0,0,12.4,17.6,17.4,26.8c-7.2,7.8-21,13.8-21,13.8s-13.1-18.6-16.1-24.7"/>
			</g>
			<path class="st9" d="M249.9,134.9c0,0,2.5,6.3,4,12.1c-0.3,8.5-12.1,19.4-21.3,19.1c-9.1-0.3-11.5-4.6-11.5-4.6s0.6-7.6,0.6-12.1
				C226.6,138.5,244.1,133.1,249.9,134.9z"/>
			<path class="st10" d="M254,147c-1.5-5.8-4-12.1-4-12.1c0,0-0.1,0-0.1,0c-6.6,1.4-13.1,3.1-19.5,5.3c-3.7,2.4-6.9,5.5-8.6,9.3
				c0,1.5-0.1,3.4-0.2,5.2c0.1,0,0.1,0,0.2,0c2.7-0.6,5.6-0.4,8.3,0.3c4.1,1.1,7.8,3.4,11.2,5.9c0.7,0.5,1.4,1,2.2,1.5
				C249.1,158.5,253.8,152.3,254,147z"/>
			<path class="st2" d="M249.9,134.9c0,0,2.5,6.3,4,12.1c-0.3,8.5-12.1,19.4-21.3,19.1c-9.1-0.3-11.5-4.6-11.5-4.6s0.6-7.6,0.6-12.1
				C226.6,138.5,244.1,133.1,249.9,134.9z"/>
			<g>
				<path class="st9" d="M198.7,114c0,0-1-1.7-2.5-0.8c-1.4,0.9-0.5,4-0.3,5.4c0.1,1.4,0.8,5.9,0.8,5.9"/>
				<path class="st2" d="M198.7,114c0,0-1-1.7-2.5-0.8c-1.4,0.9-0.5,4-0.3,5.4c0.1,1.4,0.8,5.9,0.8,5.9"/>
				<path class="st9" d="M200.3,109.3c-0.6,0.8-1.1,1.6-1.4,2.4c-0.5,1.5-0.8,3.3-1.2,4.8c-1.1,4.1-1.8,8.4-1.1,12.7
					c1.1,6.5,7.4,14.5,9.6,17.7c2.1,3.2,7,7.5,11.6,7.4c4.6-0.1,11.6-2.3,15.3-4.2s12.8-8.6,16.9-15.3c4.1-6.7,4.5-11.7,5.1-21.2
					s-5.7-22.2-16.3-26.2c-10.2-3.8-13.2-0.1-23.7,1.7c-3.4,0.6-5.7,3.4-7.9,6c-1,1.1-3.6,4-4.2,5.4c-0.5,1.3-0.1,1.6-0.1,3
					c0,0.7,0.1,1.3-0.1,1.9c-0.2,0.7-0.6,1.3-1.1,2C201.3,108.1,200.8,108.7,200.3,109.3z"/>
				<path class="st13" d="M210.3,109c0,0-2.9-1-4.8-0.5c-1.1,0.3-3.7,1.7-4.8,1.2s-1.1-0.5-1.1-0.5s0.6,1.8,2.8,1.7
					S210.3,109,210.3,109z"/>
				<path class="st13" d="M239.3,114.2c0,0,1.8,0.7,2.7-0.2c-1.3-0.2-3.3-1.2-4.7-2.1c-1.5-0.9-4.6-0.9-4.6-0.9L239.3,114.2z"/>
				<path d="M259.1,83.3c1.2-3.3,6.8,1,7,3.3c1.3-0.1,2.7-0.2,3.9,0.3c1.2,0.5,2.3,1.7,2.1,3c-0.1,0.7-0.5,1.3-0.3,2
					c0.1,0.4,0.4,0.8,0.6,1.1c1.1,1.7,0.9,4.2-0.5,5.6c-0.5,0.6-1.3,1-1.5,1.8c-0.1,0.6,0,1.1,0,1.7c0,1.7-1.9,3-3.5,2.5
					c0.5,0.9,0,2.1-0.8,2.6c-0.8,0.6-1.9,0.7-2.9,0.8c-1.9,0.2-4.1,0.3-5.6-0.9c-1.4-1.1-1.9-3.3-1-4.9c-1.4,0.3-2.8-0.9-3.2-2.2
					s0-2.9,0.6-4.1c-3.7-1.1-5.3-9.7-0.6-10.5C256.5,84.9,258.4,85.1,259.1,83.3z"/>
				<path class="st14" d="M249.2,87.9c0,0,5.9,1.2,9.5,5.9c3.6,4.6,5.5,11.5,3.6,15.2c-1.9,3.7-9.9-10.3-9.9-10.3L249.2,87.9z"/>
				<path class="st2" d="M200.3,109.3c-0.6,0.8-1.1,1.6-1.4,2.4c-0.5,1.5-0.8,3.3-1.2,4.8c-1.1,4.1-1.8,8.4-1.1,12.7
					c1.1,6.5,7.4,14.5,9.6,17.7c2.1,3.2,7,7.5,11.6,7.4c4.6-0.1,11.6-2.3,15.3-4.2s12.8-8.6,16.9-15.3c4.1-6.7,4.5-11.7,5.1-21.2
					s-5.7-22.2-16.3-26.2c-10.2-3.8-13.2-0.1-23.7,1.7c-3.4,0.6-5.7,3.4-7.9,6c-1,1.1-3.6,4-4.2,5.4c-0.5,1.3-0.1,1.6-0.1,3
					c0,0.7,0.1,1.3-0.1,1.9c-0.2,0.7-0.6,1.3-1.1,2C201.3,108.1,200.8,108.7,200.3,109.3z"/>
				<path class="st10" d="M211.5,120c0.5-0.6,1.7-0.7,2.7-0.7c1.7,0.1,3.3,0.5,4.9,0.5c1.9,0,3.9-0.6,5.5,0.1
					c1.1,0.5,1.5,1.5,1.5,2.4c0,0.1,0,0.3-0.1,0.4c-0.2,0.2-0.6,0.3-0.9,0.3c-0.9,0.1-1.7,0.2-2.6,0.3c-1.3,0.2-2.6,0.3-3.9,0.3
					c-1.9,0-3.8-0.3-5.4-0.9C211.9,122.2,210.5,121.1,211.5,120z"/>
				<path class="st13" d="M215.8,87c-1.2,0.1-1.5,0.9-2.4,1.6c-0.9,0.7-1.8,1.4-2.6,2.1c-0.3,0.3-0.6,0.6-0.9,1
					c-0.2,0.2-0.7,1.1-0.9,1.1c1.8-0.3,3.7-0.6,5.3-1.5c0.5-0.3,1.1-0.6,1.6-0.4c0.4,0.2,0.6,0.7,0.9,0.8c0.5,0.2,1.1-0.1,1.6-0.4
					c1.5-0.7,2.5,0.2,3.9,0.4c1.2,0.2,2.6-0.3,3.4-1.3c0.2-0.2,0.3-0.4,0.5-0.6c0.8-0.5,1.6,0.6,2.3,1.2c1,0.7,2.6,0.3,3.1-0.8
					c1.6,1.7,5,2.7,7.3,2.5c-0.2,0.8,0.2,1.6,0.8,2.1s1.4,0.7,2.2,0.8c0.4,0,0.7,0.1,1.1,0.2c0.3,0.1,0.6,0.2,1,0.3
					c1.4,0.6,3.2,0.9,3.4,2.8c0.1,1.2-1,2.4-0.5,3.5c0.9-0.1,1.9,0,2.7,0.4s1.5,1.1,1.8,2c0.2,0.8,0.1,1.6-0.1,2.4
					c-0.3,1.5-0.6,3.1-0.9,4.6c-0.2,0.9-0.3,2,0.5,2.6c0.3,0.2,0.7,0.3,1,0.5c0.8,0.5,1.1,1.5,1,2.4s-0.5,1.8-0.8,2.7
					s-0.5,1.9-0.2,2.7c0.1,0.2,0.2,0.4,0.4,0.5c0.4,0.3,0.9,0.1,1.4-0.1c1-0.3,2.9,0.4,3.4-0.6c0.2-0.3,0.2-0.6,0.3-0.9
					c0.3-1.2,1.4-1.9,2.1-2.9c0.7-1,0.8-2.6-0.3-3.2c0.8-0.3,1.7-0.8,2.2-1.5c0.5-0.8,0.5-1.9-0.2-2.4c-0.2-0.1-0.4-0.3-0.4-0.5
					c0-0.2,0.1-0.4,0.2-0.5c1.7-2.1,0.9-5.6-0.9-7.4c-0.3-0.3-0.6-0.5-0.8-0.9c-0.3-0.7,0.1-1.5-0.2-2.1c-0.6-1.1-1.6-1.6-1.8-3
					c-0.1-1,0.1-2.2-0.7-2.9c-0.8-0.8-2.5-0.4-3-1.5c-0.2-0.4-0.1-1,0-1.4c0.1-1.4-0.9-2.8-2.2-3.2c-0.7-0.2-1.4-0.2-2-0.4
					c-2-0.8-4.6-2.7-6.9-1.9c-0.6,0.2-1.5,0.4-1.7-0.2c0-0.1,0-0.3,0-0.4c0-1-1.3-1.6-2.3-1.5c-1,0.1-1.9,0.7-2.9,0.8
					c-1.5,0.2-2.6-0.3-3.9-0.8c-1.6-0.6-2.7,0.2-4.3,0.2c-0.4,0-0.9-0.1-1.3,0c-0.4,0.1-0.7,0.5-1.1,0.8c-0.8,0.5-1.9,0.5-2.8,0.5
					c-1.4-0.1-2.9-0.1-3.9,0.8c-0.3,0.3-0.6,0.6-1.1,0.7C216.6,87,216.2,86.9,215.8,87z"/>
				<path class="st9" d="M252.6,121.4c0,0,3.2-0.9,5.3-1.7c2.1-0.8,4.4-0.2,4.8,2.4s-1,9-4.2,12.3c-3.2,3.4-7.1,5-9.2,4.1
					c-2.1-0.9-2.6-2.7-2.6-2.7"/>
				<g>
					<circle class="st6" cx="250.9" cy="136.5" r="1.2"/>
				</g>
				<path class="st10" d="M256,124.7c0.5,0.2,0.9,0.6,1.2,1c0.9,1.2,1.1,2.9,0.6,4.4c-0.8-0.5-1.5-1.3-2.1-2.1
					c-0.4,0.1-0.4,0.6-0.4,0.9c0,0.4-0.1,0.9-0.4,0.9c-0.3,0-0.4-0.3-0.5-0.5c-0.4-0.9-0.7-1.8-1-2.7c-0.6,0.1-1.1,0.6-1.5,1.2
					s-0.5,1.2-0.6,1.8c-0.2,0.9-0.4,1.8-0.6,2.6c-0.1,0.3-0.1,0.6,0,0.8c0.1,0.2,0.3,0.2,0.5,0.3c1.2,0.2,2.2-1.1,3.4-1.4
					c0.9-0.2,1.8,0.1,2.6-0.2c0.6-0.3,1-0.9,1.3-1.6c0.8-1.6,1.3-3.4,1.4-5.2c0.2-2.6-1.7-2.7-3.8-2.8c-1.5,0-3,0.7-3.6,2.2
					C253.6,124.8,254.9,124.2,256,124.7z"/>
				<path class="st2" d="M252.6,121.4c0,0,3.2-0.9,5.3-1.7c2.1-0.8,4.4-0.2,4.8,2.4s-1,9-4.2,12.3c-3.2,3.4-7.1,5-9.2,4.1
					c-2.1-0.9-2.6-2.7-2.6-2.7"/>
				<path class="st2" d="M253.6,122.8c0,0,4.1-1.3,5.7,0c1.6,1.3,1,4.7-0.7,7.6"/>
				<path class="st2" d="M254,124.5c-1.5,1.2-2,1-2,3.1c0,2.1-1.9,4.7-1.9,4.7c0.9,1.7,3.5,0.6,4,0.3"/>
				<path class="st2" d="M254.2,126.6c0,0,2.5,0.3,1.9,3.2"/>
				<path class="st6" d="M227.8,112.1c0,0,2.8-1.7,6.4-0.7c3.7,1,5,2.8,5.3,2.9C239.8,114.3,230.9,114,227.8,112.1z"/>
				<path class="st6" d="M213.9,110.7c0,0-2.5-1.9-5.8-1.8c-3.4,0.1-5.8,1.9-5.8,1.9S211.6,111.7,213.9,110.7z"/>
				<path class="st15" d="M216.1,121.5c0,0-0.2-1.3-1.2-1.3s-1.1,0.6-0.5,1.2C214.9,121.9,216.1,121.5,216.1,121.5z"/>
				<path class="st15" d="M220.3,121.7c0,0,0.1-1.1,1.1-1s1,1,0.4,1.2C221.2,122.1,220.3,121.7,220.3,121.7z"/>
				<path class="st2" d="M211.9,122.1c0,0-1.8-2-0.5-3.6"/>
				<path class="st2" d="M225.5,118.8c0,0,1.8,3.2-0.6,4.6"/>
				<path class="st16" d="M216.6,126.3c-1.4,0.1-3.5-0.6-4.8,0.5c-1.3,1.1-3.7,4.2-3.7,6.5s1.3,3.5,1.4,6.9c0.1,3.4,3.6,4.2,6.3,4.7
					c2.7,0.5,8.2-2,9.6-3.5c1.3-1.5,3.6-4.6,3.8-6.7c0.2-2.2-5.7-6.2-5.7-6.2c-1.6-2-5.1-2.5-5.1-2.5
					C217.3,126.1,217.5,126.2,216.6,126.3z"/>
				<path class="st17" d="M209.3,132C209.3,132,209.3,132,209.3,132c1.2-1.2,3.6-2.9,4.9-2.9c1.3-0.1,2.7,0.3,4.9,0.1
					c2.2-0.3,5.5,2.8,6.7,3.4c1.2,0.6,2.8,1.3,2.5,2.5c-0.4,1.1-1.8,3-4.4,3.9c-2.5,1-5.9,2.3-9.2,1.7c-3.3-0.6-3.7-1.1-4-2.9
					c-0.3-1.9-1.2-2.7-1.6-3.8C208.8,132.9,209.3,132,209.3,132z"/>
				<path class="st18" d="M226.6,137.3c-0.4,0-1.3,0.1-2.2,0.5c-1.7,0.7-5.3,0.9-7.1,1c-1.8,0.1-3.7-2-4.4-2.3
					c-0.7-0.3-2.1,0.6-2.1,0.6s-0.1,0.1-0.1,0.3c0,0.1,0.1,0.2,0.1,0.4c0.3,1.9,0.7,2.3,4,2.9c3.3,0.6,6.6-0.7,9.2-1.7
					C225,138.5,225.9,137.9,226.6,137.3z"/>
				<path class="st18" d="M219.1,129.2c-2.2,0.3-3.6-0.1-4.9-0.1c-0.5,0-1.3,0.3-2,0.7c0.3,0.2,1,0.4,2.1,0.6
					c1.9,0.3,5.5,0.4,6.7,0.5c0.8,0.1,1.8,0.1,2.5-0.1C222,130,220.4,129,219.1,129.2z"/>
				<path class="st13" d="M206.6,109.1c-0.2,0.4-0.3,0.9-0.2,1.4c0.1,0.2,0.2,0.5,0.3,0.7c1.3,0.1,2.7,0.1,4,0
					c0.4-0.5,0.5-1.1,0.4-1.7c0-0.1,0-0.1,0-0.1c-0.9-0.3-1.8-0.4-2.9-0.4C207.5,108.9,207,109,206.6,109.1z"/>
				<path class="st13" d="M235.3,112c0-0.1-0.1-0.2-0.1-0.2c-0.3-0.1-0.6-0.2-1-0.3c-1.1-0.3-2.2-0.4-3.1-0.3
					c-0.4,0.5-0.7,1.2-0.5,1.9c0,0.1,0,0.1,0.1,0.2c1.3,0.3,2.7,0.5,4,0.7C235.2,113.4,235.5,112.7,235.3,112z"/>
				<path class="st13" d="M228.1,104.5c0,0,8.4-1.8,13.3,2c-3.1-4.3-8.7-5.1-13-4.8C227.5,102.8,228.1,104.5,228.1,104.5z"/>
				<path class="st13" d="M216.7,102.6c0,0,0.7-1.6,0.6-2.5c-2.4-2.5-11.2-1-13.9,2.1C208.8,100.7,212.8,100.1,216.7,102.6z"/>
			</g>
			<path class="st6" d="M214.6,129.6c0,0-0.2,1.2,0.3,1.4s1.6,0.4,1.8,0.1c0.2-0.3,0.1-1.1,0.1-1.1L214.6,129.6z"/>
			<path class="st6" d="M217.7,130c0,0,0,1,0.3,1.2c0.3,0.2,1.7,0.4,2.2,0s0.2-1.2,0.2-1.2L217.7,130z"/>
			<path class="st6" d="M212.8,137c0,0-0.6,0.4-0.7,0.7c-0.1,0.4-0.3,1.5,0.3,1.4c0.7-0.1,1-0.1,1-0.1s0.2,0.5,1,0.6
				c0.8,0.2,1.3-0.1,1.3-0.1s0.3,0.7,0.9,0.7c0.6,0,1-0.3,1-0.3s0.9,0.4,1.6,0.2c0.7-0.1,1-0.5,1-0.5s-0.1-1.4-0.8-1.5
				c-0.6,0-1.7,0.4-1.7,0.4s-0.6-0.7-1.1-0.7c-0.6,0-0.9,0.8-0.9,0.8s-0.2-0.9-0.9-1c-0.7-0.1-1.1,0.3-1.1,0.3
				S213.5,136.9,212.8,137z"/>
			<path class="st2" d="M213.5,116.5c0,0-0.3-0.6,1.7-3.7c2-3.1,3.4-5.8,3.4-7.1"/>
		</g>
		<path class="st19" d="M33.3,180.4c-8.9,2-13.8,3.7-19.9,6.4"/>
		<path class="st2" d="M136.5,127.8c0,0-4.9-1.4-7.3-1.5c-2.3-0.1-19.1,3.2-19.1,3.2"/>
		<path class="st19" d="M135.1,133.1c0,0-11.4,1.2-14.1,2.1c-2.7,1-7.6,2-7.6,2"/>
	</g>
	<path class="st2" d="M228.2,109.5c0.1-0.2,6.6-2.1,12.6,2.6"/>
	<path class="st2" d="M213.2,107.8c0,0-4.3-1.8-7.4-1.3s-3.6,1.8-3.6,1.8"/>
	<g>
		<g>
			<path class="st20" d="M54.8,38.1c0,0-17.5,4-23.5,21.4c-5.9,17.4-17.7,30.8-18.8,32.4c-1.1,1.6,19.7-6.5,19.7-6.5
				s15-4.3,15.1-4.3c0-0.1-2.6-28,5.7-33.2C61.3,42.5,54.8,38.1,54.8,38.1z"/>
			<path class="st2" d="M54.8,38.1c0,0-17.5,4-23.5,21.4c-5.9,17.4-17.7,30.8-18.8,32.4c-1.1,1.6,19.7-6.5,19.7-6.5s15-4.3,15.1-4.3
				c0-0.1-2.6-28,5.7-33.2C61.3,42.5,54.8,38.1,54.8,38.1z"/>
			<path class="st21" d="M54.3,36.4c0,0-7.2,4.9-1.6,14.8C59.9,48.9,54.3,36.4,54.3,36.4z"/>
			<g>
				<path class="st2" d="M125.5,26.3c0,0,4.7,12.1,2.1,21.8c-2.6,9.8-4.2,13.5-4.8,16.2c-0.6,2.6-2.9,11.3-4.8,16.2
					c-1.9,4.8-8.2,10-10.7,13.6c-2.5,3.6-4.5,5.9-9.3,5.7c-4.8-0.3-17.6-9.3-23.6-13c-6-3.8-10.5-9.8-10.2-23.6
					c-2-10.1,4.2-32.3,3.8-32.9c-0.4-0.6,13.4-22,22-23.5c8.6-1.4,23.6,4.1,26.5,5.8C119.3,14.1,124.5,23.2,125.5,26.3z"/>
				<path class="st2" d="M128.1,36.9c0,0.3,0.1-8.8-2-15.6c-1.4-4.6-1.3-8-5.7-11.2C116,6.8,98.1-2.7,85.2,1.6
					C72.3,5.8,61,12.9,56.8,26c-4.2,13.1-5.4,30.9-1.5,38.1c3.8,7.2,5.1,8.8,5.1,8.8s1.7-7,1.7-9.6c0-2.7,2.2-13.9,4.2-13.5
					c2,0.4,1.2,4.4,3,2.6c1.8-1.8,4-3.6,5-8.5c1.1-5,7.8-11.5,13.7-14.7c-2-1.4-4.9-9.4,2.3-11.9c7.2-2.5,20.2-1.4,26.9,6
					C119.2,21.6,126.1,17.4,128.1,36.9z"/>
				<path class="st2" d="M66.6,49.7c0,0-2.8-6.3-3.3-8.8c-0.5-2.6-6.8-3.9-9.1-0.3c-2.3,3.6-1.1,13.2,1.9,17.6
					c3.1,4.3,6,8.1,9.5,4.3"/>
				<path class="st2" d="M61.3,44c0,0,3.8,4.9,3.2,6.1c-0.6,1.1-2.4,1.8-1.6,3.2c0.8,1.4,2.9,4.6,2.2,5c-0.7,0.4-1.6-2.1-3.4-2.7
					c-1.8-0.5-2.9-0.3-4.4-2c-1.5-1.6-3.8-5.6,0.7-8.8"/>
				<path class="st2" d="M90.7,75.9c-0.2-0.1,5.2,0.7,8.1,1c2.9,0.2,4.4,1.7,5.1,2c0.7,0.2,3.2,0.1,4.3,0.9c1.1,0.8,1.3,2.1,1.3,2.1
					s-4.4,0.1-6.6-0.4C100.9,81.1,92.4,77.1,90.7,75.9z"/>
				<path class="st2" d="M90.4,75.2c0,0,9-0.4,11.3,0.7c2.3,1.1,3.3,1.4,3.8,1.5c0.5,0.1,3.5,0.1,4.5,1.7c1.1,1.6,0.2,2.7,0,3.1
					c-0.2,0.4-4,3.4-9.5,1.5c-5.3-1.9-9.2-6.5-10.3-7.6C90.2,76,89.7,75.7,90.4,75.2z"/>
				<path class="st2" d="M88.3,41.3c0,0,5.8-2.8,11.1-0.9c5.3,1.9,7.7,4.8,6.8,5.9c-0.9,1.1-3.8-1.7-5.9-3.1
					C98.1,41.8,92.8,40,88.3,41.3z"/>
				<path class="st2" d="M126.8,51.1c0,0-1-2.6-4-3.3c-3-0.6-6.3,2.7-5.1,3.3C118.9,51.7,123.8,49.4,126.8,51.1z"/>
				<path class="st2" d="M91,49.2c0,0,5.2-0.8,8.4,0.5c3.2,1.3,1.9,3.5,1.9,3.5S98.6,55.8,91,49.2z"/>
				<path class="st2" d="M89.8,47.6c0-0.1,6.2-1.7,10,0c3.8,1.7,2.6,4.2,2.6,4.2"/>
				<path class="st2" d="M114.1,57.7c0,0,8.4-3.5,8.5,2.1C119.7,62.7,115.4,59.3,114.1,57.7z"/>
				<path class="st2" d="M114.2,56.5c0,0,8.8-4.9,9,1.3"/>
				<path class="st2" d="M100.6,52.1c0.2-0.6,0.1-1.3-0.2-1.9c-0.3-0.2-0.6-0.4-1-0.5c-0.8-0.3-1.7-0.5-2.7-0.6
					c-0.5,0.3-1,0.8-1.2,1.4c-0.2,0.7-0.1,1.5,0.3,2.1c1.4,0.7,2.4,1,3.3,1C99.8,53.4,100.4,52.9,100.6,52.1z"/>
				<path class="st2" d="M121.5,57.4c-0.8-0.7-1.9-0.8-3-0.8c-0.5,0.3-0.9,0.8-1.1,1.4c-0.3,0.8-0.1,1.7,0.3,2.3c1,0.4,2,0.6,3,0.4
					c0.4-0.3,0.8-0.8,1-1.3C122,58.8,121.9,58,121.5,57.4z"/>
				<path class="st2" d="M99.4,52.3c-0.2,0.6-0.7,0.9-1.1,0.8c-0.4-0.1-0.6-0.7-0.4-1.3c0.2-0.6,0.7-0.9,1.1-0.8
					C99.4,51.1,99.6,51.7,99.4,52.3z"/>
				<path class="st2" d="M120.7,59.6c-0.2,0.5-0.6,0.8-0.9,0.7c-0.3-0.1-0.5-0.6-0.3-1.1c0.2-0.5,0.6-0.8,0.9-0.7
					C120.8,58.6,120.9,59.1,120.7,59.6z"/>
				<path class="st2" d="M119,58.1c-0.1,0.2-0.3,0.3-0.5,0.3c-0.2-0.1-0.3-0.3-0.3-0.5c0.1-0.2,0.3-0.3,0.5-0.3
					C118.9,57.7,119.1,57.9,119,58.1z"/>
				<path class="st2" d="M97.3,50.9c-0.1,0.2-0.3,0.3-0.5,0.3c-0.2-0.1-0.3-0.3-0.3-0.5c0.1-0.2,0.3-0.3,0.5-0.3
					C97.2,50.4,97.3,50.7,97.3,50.9z"/>
			</g>
			<g>
				<path class="st3" d="M125.5,26.3c0,0,4.7,12.1,2.1,21.8c-2.6,9.8-4.2,13.5-4.8,16.2c-0.6,2.7-2.4,10.2-4.8,16.2
					c-1.9,4.8-8.2,10-10.7,13.6c-2.5,3.6-4.5,5.9-9.3,5.7c-4.8-0.3-17.6-9.3-23.6-13c-6-3.8-10.5-9.8-10.2-23.6
					c-2-10.1,4.2-32.3,3.8-32.9c-0.4-0.6,13.4-22,22-23.5c8.6-1.4,23.6,4.1,26.5,5.8C119.3,14.1,124.5,23.2,125.5,26.3z"/>
				<path class="st4" d="M127.6,48.1c2.6-9.8-2.1-21.8-2.1-21.8c-1-3.1-6.2-12.1-9-13.8c-0.1-0.1-0.2-0.1-0.3-0.2
					c-0.3,0.8-0.1,1.7,0.2,2.9c0.9,3.2,1.9,6.4,2.9,9.5c1.9,5.9,2.5,12.2,0.8,18.3c-0.9,3.2-2.6,6-5.9,7.4c-1.5,0.6-3.1,0.7-4.2,2.1
					c-1.7,2.2-1.1,5.3-0.9,7.9c0.2,2.9,0.9,5.6-2.7,5.5c-2.4-0.1-7.8-0.5-8.6,2.6c-0.6,2.7,2,6.8,4.4,7.7c1.9,0.7,4.2,1.5,6.2,1.6
					c1,0,3-0.7,4-0.3c1.7,0.7,0.1,2.8-1.1,3.4c-2.1,0.9-5.1,1-7.3,1.4c-2.6,0.5-6.8,1.3-7.8,4c-0.6,1.6-0.4,3.2-1.5,4.6
					c-1.4,1.9-3.7,3.5-6.1,3.7L88,95.3c4.1,2.4,7.9,4.3,10.1,4.4c4.8,0.3,6.7-2,9.3-5.7c2.5-3.6,8.8-8.8,10.7-13.6
					c2.3-5.9,4.2-13.5,4.8-16.2C123.4,61.6,124.9,57.9,127.6,48.1z"/>
				<path class="st22" d="M90.4,75.2c0,0,9-0.4,11.3,0.7c2.3,1.1,3.3,1.4,3.8,1.5c0.5,0.1,3.5,0.1,4.5,1.7c1.1,1.6,0.2,2.7,0,3.1
					c-0.2,0.4-4,3.4-9.5,1.5c-5.3-1.9-9.2-6.5-10.3-7.6C90.2,76,89.7,75.7,90.4,75.2z"/>
				<path class="st2" d="M110.1,70.4c0.1-0.1,1.9-0.6,2-2.7c0-2.1-0.6-3.3-0.6-3.3"/>
				<path class="st2" d="M125.5,26.3c0,0,4.7,12.1,2.1,21.8c-2.6,9.8-4.2,13.5-4.8,16.2c-0.6,2.7-2.4,10.2-4.8,16.2
					c-1.9,4.8-8.2,10-10.7,13.6c-2.5,3.6-4.5,5.9-9.3,5.7c-4.8-0.3-17.6-9.3-23.6-13c-6-3.8-10.5-9.8-10.2-23.6
					c-2-10.1,4.2-32.3,3.8-32.9c-0.4-0.6,13.4-22,22-23.5c8.6-1.4,23.6,4.1,26.5,5.8C119.3,14.1,124.5,23.2,125.5,26.3z"/>
				<path class="st2" d="M111.9,51.6c0,0-3,0.5-1.7,6.5c1.3,5.9,2,8.7,0.4,10"/>
				<path class="st2" d="M104,68.8c-0.3-0.1-1.5-1.7-2.6-1.2c-1.1,0.6,0.4,0.5,0.4,0.5"/>
				<path class="st2" d="M97.8,63.9c-0.6,1.1-1,3,1.9,4.4"/>
				<path class="st20" d="M128.1,36.9c0,0.3,0.1-8.8-2-15.6c-1.4-4.6-1.3-8-5.7-11.2C116,6.8,98.1-2.7,85.2,1.6
					C72.3,5.8,61,12.9,56.8,26c-4.2,13.1-5.4,30.9-1.5,38.1c3.8,7.2,5.1,8.8,5.1,8.8s1.7-7,1.7-9.6c0-2.7,2.2-13.9,4.2-13.5
					c2,0.4,1.2,4.4,3,2.6c1.8-1.8,4-3.6,5-8.5c1.1-5,7.8-11.5,13.7-14.7c-2-1.4-4.9-9.4,2.3-11.9c7.2-2.5,20.2-1.4,26.9,6
					C119.2,21.6,126.1,17.4,128.1,36.9z"/>
				<path class="st2" d="M128.1,36.9c0,0.3,0.1-8.8-2-15.6c-1.4-4.6-1.3-8-5.7-11.2C116,6.8,98.1-2.7,85.2,1.6
					C72.3,5.8,61,12.9,56.8,26c-4.2,13.1-5.4,30.9-1.5,38.1c3.8,7.2,5.1,8.8,5.1,8.8s1.7-7,1.7-9.6c0-2.7,2.2-13.9,4.2-13.5
					c2,0.4,1.2,4.4,3,2.6c1.8-1.8,4-3.6,5-8.5c1.1-5,7.8-11.5,13.7-14.7c-2-1.4-4.9-9.4,2.3-11.9c7.2-2.5,20.2-1.4,26.9,6
					C119.2,21.6,126.1,17.4,128.1,36.9z"/>
				<path class="st3" d="M66.6,49.7c0,0-2.8-6.3-3.3-8.8c-0.5-2.6-6.8-3.9-9.1-0.3c-2.3,3.6-1.1,13.2,1.9,17.6
					c3.1,4.3,6,8.1,9.5,4.3"/>
				<path class="st2" d="M66.6,49.7c0,0-2.8-6.3-3.3-8.8c-0.5-2.6-6.8-3.9-9.1-0.3c-2.3,3.6-1.1,13.2,1.9,17.6
					c3.1,4.3,6,8.1,9.5,4.3"/>
				<path class="st2" d="M61.3,44c0,0,3.8,4.9,3.2,6.1c-0.6,1.1-2.4,1.8-1.6,3.2c0.8,1.4,2.9,4.6,2.2,5c-0.7,0.4-1.6-2.1-3.4-2.7
					c-1.8-0.5-2.9-0.3-4.4-2c-1.5-1.6-3.8-5.6,0.7-8.8"/>
				<path class="st23" d="M90.7,75.9c-0.2-0.1,5.2,0.7,8.1,1c2.9,0.2,4.4,1.7,5.1,2c0.7,0.2,3.2,0.1,4.3,0.9
					c1.1,0.8,1.3,2.1,1.3,2.1s-4.4,0.1-6.6-0.4C100.9,81.1,92.4,77.1,90.7,75.9z"/>
				<path class="st2" d="M90.7,75.9c-0.2-0.1,5.2,0.7,8.1,1c2.9,0.2,4.4,1.7,5.1,2c0.7,0.2,3.2,0.1,4.3,0.9c1.1,0.8,1.3,2.1,1.3,2.1
					s-4.4,0.1-6.6-0.4C100.9,81.1,92.4,77.1,90.7,75.9z"/>
				<path class="st24" d="M88.3,41.4c0,0,5.5-3.4,10.9-2.1c5.4,1.3,8.2,3.9,7.4,5.2c-0.8,1.2-3.9-1.3-6.2-2.5
					C98.1,40.8,92.6,39.6,88.3,41.4z"/>
				<path class="st24" d="M126.3,51.9c0,0,0-2.8-2.6-4.5c-2.6-1.7-6.9,0.2-5.9,1.2C118.8,49.7,124.2,49.3,126.3,51.9z"/>
				<path class="st25" d="M91,49.2c0,0,5.2-0.8,8.4,0.5c3.2,1.3,1.9,3.5,1.9,3.5S98.6,55.8,91,49.2z"/>
				<path class="st2" d="M89.8,47.6c0-0.1,6.2-1.7,10,0c3.8,1.7,2.6,4.2,2.6,4.2"/>
				<path class="st25" d="M114.1,57.7c0,0,8.4-3.5,8.5,2.1C119.7,62.7,115.4,59.3,114.1,57.7z"/>
				<path class="st2" d="M114.2,56.5c0,0,8.8-4.9,9,1.3"/>
				<path class="st26" d="M100.6,52.1c0.2-0.6,0.1-1.3-0.2-1.9c-0.3-0.2-0.6-0.4-1-0.5c-0.8-0.3-1.7-0.5-2.7-0.6
					c-0.5,0.3-1,0.8-1.2,1.4c-0.2,0.7-0.1,1.5,0.3,2.1c1.4,0.7,2.4,1,3.3,1C99.8,53.4,100.4,52.9,100.6,52.1z"/>
				<path class="st26" d="M121.5,57.4c-0.8-0.7-1.9-0.8-3-0.8c-0.5,0.3-0.9,0.8-1.1,1.4c-0.3,0.8-0.1,1.7,0.3,2.3c1,0.4,2,0.6,3,0.4
					c0.4-0.3,0.8-0.8,1-1.3C122,58.8,121.9,58,121.5,57.4z"/>
				<path class="st26" d="M99.4,52.3c-0.2,0.6-0.7,0.9-1.1,0.8c-0.4-0.1-0.6-0.7-0.4-1.3c0.2-0.6,0.7-0.9,1.1-0.8
					C99.4,51.1,99.6,51.7,99.4,52.3z"/>
				<path class="st26" d="M120.7,59.6c-0.2,0.5-0.6,0.8-0.9,0.7c-0.3-0.1-0.5-0.6-0.3-1.1c0.2-0.5,0.6-0.8,0.9-0.7
					C120.8,58.6,120.9,59.1,120.7,59.6z"/>
				<path class="st23" d="M119,58.1c-0.1,0.2-0.3,0.3-0.5,0.3c-0.2-0.1-0.3-0.3-0.3-0.5c0.1-0.2,0.3-0.3,0.5-0.3
					C118.9,57.7,119.1,57.9,119,58.1z"/>
				<path class="st23" d="M97.3,50.9c-0.1,0.2-0.3,0.3-0.5,0.3c-0.2-0.1-0.3-0.3-0.3-0.5c0.1-0.2,0.3-0.3,0.5-0.3
					C97.2,50.4,97.3,50.7,97.3,50.9z"/>
			</g>
		</g>
		<path class="st2" d="M96.2,81.5c0,0,5.6,4.4,10,2.6"/>
		<path class="st27" d="M79.9,57.5c0.3-1.3,0.8-2.3,1.3-3.5c1.1-2.7-1.7-2.6-3.5-1.5c-1.9,1.2-2.8,3.4-2.5,5.6
			c0.2,1.6,1.4,4.7,3.4,4.8C81,62.8,79.6,58.8,79.9,57.5z"/>
		<path class="st27" d="M105.8,58c-0.1,0.9-0.6,3.9,0.3,4.6c1.1,0.9,1.5-2.6,1.6-3.3c0.1-1,0.9-5.1-0.5-5.6
			C106.3,53.3,105.8,57.3,105.8,58z"/>
		<path class="st27" d="M94,26.5c0.1,1.5-0.4,3.9,1.2,4.8c1.5,0.9,3.7-0.4,4.5-1.7c1.1-1.8,0.4-4.1-0.8-5.7C98,22.8,96,21.2,94.5,22
			C92.9,22.8,93.9,25.2,94,26.5z"/>
		<path class="st2" d="M107.7,69.9c0,0,1.9-0.2,1,0.3"/>
		<path class="st2" d="M117.3,23.1c0,0-0.6-15.6-20-20.5"/>
		<path class="st2" d="M121.5,57.4c0,0,1.2,1.3,2.3,1"/>
		<path class="st2" d="M100.8,50.5c0,0,1.8,2.4,3.4,1.2"/>
	</g>
</g>
</svg>
