<?xml version="1.0" encoding="utf-8"?>
<!-- Generator: Adobe Illustrator 16.0.0, SVG Export Plug-In . SVG Version: 6.00 Build 0)  -->
<!DOCTYPE svg PUBLIC "-//W3C//DTD SVG 1.1//EN" "http://www.w3.org/Graphics/SVG/1.1/DTD/svg11.dtd">
<svg version="1.1" id="Layer_1" xmlns="http://www.w3.org/2000/svg" xmlns:xlink="http://www.w3.org/1999/xlink" x="0px" y="0px"
	 width="467.421px" height="467.42px" viewBox="0 0 467.421 467.42" enable-background="new 0 0 467.421 467.42"
	 xml:space="preserve">
<g>
	<g>
		<g>
			<path fill="#C18362" stroke="#000000" stroke-linecap="round" stroke-linejoin="round" stroke-miterlimit="10" d="
				M208.146,222.71l16.46,6.434l3.764-4.774C228.371,224.369,221.161,213.395,208.146,222.71z"/>
			<g>
				<g>
					<path fill="#383838" d="M174.633,442.846c0,0-1.368,4.097-4.285,5.284s-23.235,1.343-29.259-1.152
						c-1.171-1.851-3.038-3.555-5.181-5.112c0,0,8.821,0.887,17.848,1.798C162.784,444.576,174.633,442.846,174.633,442.846z"/>
					<path fill="#444444" d="M173.265,435.075c2.557,2.934,1.368,7.771,1.368,7.771s-11.85,1.73-20.877,0.817
						c-9.027-0.911-17.848-1.798-17.848-1.798c-1.316-0.956-2.745-1.851-4.165-2.686c-2.005-1.179-3.321-2.702-4.182-4.104
						c0,0,12.194-0.817,21.188-9.062c0,0,9.113,4.157,11.48,5.706C162.603,433.268,170.719,432.149,173.265,435.075z"/>
					<path fill="#444444" d="M131.743,439.18c-2.005-1.179-3.321-2.702-4.182-4.104c-1.256-2.039-1.523-3.812-1.523-3.812
						c-1.188,0.783-3.202,1.911-4.476,2.496c-0.907,0.421-2.604,0.876-4.979,1.646c8.062,4.691,16.431,8.912,25.069,12.628
						c-0.165-0.356-0.348-0.71-0.563-1.056c-1.171-1.851-3.038-3.555-5.181-5.112C134.591,440.909,133.163,440.015,131.743,439.18z"
						/>
					<path fill="#2483D2" d="M144.943,265.215c0,0,0,0,0,0.009c-0.498,0.181-0.963,0.335-1.368,0.438
						c-3.33,0.86-20.541-6.454-30.008-8.296c-6.781-1.316-18.657-2.453-24.828-2.986c-2.444-0.215-4.001-0.336-4.001-0.336
						l1.179-18.932c-4.948,8.278-5.051,18.398-5.051,18.398c-4.466-0.989-9.828-4.922-12.065-6.678c0,0,6.575,55.98,8.15,64.439
						c1.583,8.46,3.012,11.618,4.879,14.199c0.335,0.465,0.731,1.085,1.145,1.782l-0.009,0.009c0,0,0.568,8.391,0,13.846
						c-0.361,3.537,0.895,6.162,2.418,8.081c0,0,0.034,10.129,1.033,16.729c1.007,6.601,2.728,25.672,4.019,28.83
						c1.145,2.805-1.566,16.738,0.052,20.783v0.008c-0.006,0.456-0.475,0.883-1.059,1.397c8.583,6.769,17.658,12.94,27.155,18.468
						c2.375-0.771,4.072-1.226,4.979-1.646c1.274-0.585,3.288-1.713,4.476-2.496c0,0,0.267,1.773,1.523,3.812
						c0,0,12.194-0.817,21.188-9.062c0.146-0.129,0.283-0.258,0.421-0.387c0,0-3.657-5.164-5.163-7.642
						c-1.506-2.479-1.291-4.2,0.43-7.101c0.19-0.318,0.379-0.637,0.551-0.938c1.411-2.427,2.323-4.346,2.03-7.022
						c-0.317-3.012,0.758-21.188,1.619-27.538c0.861-6.352,0.103-14.415-0.758-17.212c-0.861-2.797-1.506-26.678-1.506-32.702
						c0-6.023,4.518-63.045,4.518-63.045C149.066,263.391,146.769,264.535,144.943,265.215z"/>
					<g>
						<path fill="#0160BA" d="M114.101,430.463c-0.551-2.724-7.215-4.122-13.139-5.005c3.635,2.521,7.339,4.947,11.12,7.263
							C113.486,432.159,114.296,431.431,114.101,430.463z"/>
						<path fill="#0160BA" d="M144.943,265.224c-0.498,0.181-0.963,0.335-1.368,0.438c-3.33,0.86-20.541-6.454-30.008-8.296
							c-6.781-1.316-18.657-2.453-24.828-2.986c-2.444-0.215-4.001-0.336-4.001-0.336l1.179-18.932
							c-4.948,8.278-5.051,18.398-5.051,18.398c-4.466-0.989-9.828-4.922-12.065-6.678c0,0,6.575,55.98,8.15,64.439
							c1.583,8.46,3.012,11.618,4.879,14.199c0.335,0.465,0.731,1.085,1.145,1.782l-0.009,0.009c0,0,0.568,8.391,0,13.846
							c-0.361,3.537,0.895,6.162,2.418,8.081c0,0,0.034,10.129,1.033,16.729c1.007,6.601,2.728,25.672,4.019,28.83
							c1.145,2.805-1.566,16.738,0.052,20.783v0.008c-0.006,0.456-0.475,0.883-1.059,1.397c0.618,0.488,1.247,0.964,1.87,1.446
							c-0.717-1.016-1.092-1.78-0.003-1.832c3.012-0.144,6.885-0.288,7.1-7.838c0.215-7.551,3.227-4.929,6.239-9.679
							s17.211-25.8,15.49-26.661c-1.721-0.86-12.048,16.352-16.351,15.061c-4.303-1.291-4.303-27.108-4.733-33.993
							c-0.43-6.884-0.86-17.211,7.315-14.199s18.072,5.163,10.757-0.431s-18.933-8.175-21.515-13.339
							c-2.582-5.163-3.012-41.308-4.733-53.355s1.721-12.908,8.175-13.339c6.455-0.43,26.248,3.873,39.586,7.314
							c2.395,0.618,4.282,0.815,5.78,0.73c-9.223,16.481-10.354,30.77-12.665,44.02c-3.228,18.503,0.43,6.885-3.442,75.301
							c-1.462,25.826-1.145,40.551-0.185,48.879c1.203-0.132,4.248-0.564,7.96-1.794c-1.157-0.477-2.344-0.856-3.472-1.044
							c-5.164-0.861-1.291-4.733,5.164-7.745c3.069-1.433,5.449-2.969,7.156-5.013c-0.347-0.531-0.664-1.026-0.917-1.442
							c-1.506-2.479-1.291-4.2,0.43-7.101c0.19-0.318,0.379-0.637,0.551-0.938c0.432-0.744,0.81-1.438,1.128-2.123
							c-2.776,1.173-7.859,6.981-11.361,8.44c-5.164,2.151-4.733-4.733-5.164-15.06c-0.43-10.327,3.442-38.727,3.873-45.611
							c0.431-6.885,3.873-1.721,6.885-3.012c3.012-1.291-1.721-6.023-5.594-12.479c-3.873-6.454-3.012-16.781-2.151-24.096
							s9.896-29.26,16.351-35.714c0.204-0.204,0.401-0.413,0.593-0.624c0.753-9.795,1.343-17.242,1.343-17.242
							c-1.824,0.964-4.121,2.108-5.947,2.788C144.943,265.215,144.943,265.215,144.943,265.224z"/>
					</g>
					<path fill="#0160BA" d="M175.099,105.269c0.317,3.872-0.758,33.355-0.758,33.355c-6.454-4.957-13.554-20.017-14.982-25.181
						c-1.419-5.163-3.837-9.242-3.837-9.242s-0.861-2.694-2.049-6.454c-1.178-3.77-4.862-8.339-4.862-8.339
						c2.797-1.188,5.835-1.988,5.835-1.988c5.826-0.921,12.324,2.461,17.926,6.756c0.189,0.146,0.387,0.301,0.577,0.447
						c0.008,0.008,0.017,0.017,0.025,0.025C174.729,96.542,174.807,101.757,175.099,105.269z"/>
					<path fill="#0160BA" d="M101.141,192.194c-1.015-0.568-1.454-0.972-1.454-0.972s6.807-1.377,11.996-1.953
						c0,0,0.232,2.538,0.766,6.04C106.433,194.63,102.914,193.159,101.141,192.194z"/>
					<path fill="#2483D2" d="M188.98,117.747c-0.439-1.929-0.655-6.559-2.909-9.785c-1.213-1.729-6.472-8.099-13.099-13.313
						c1.757,1.894,1.834,7.108,2.126,10.62c0.317,3.872-0.758,33.355-0.758,33.355c-6.454-4.957-13.554-20.017-14.982-25.181
						c-1.419-5.163-3.837-9.242-3.837-9.242s-0.861-2.694-2.049-6.454c-1.178-3.77-4.862-8.339-4.862-8.339
						c-1.782,0.757-3.46,1.669-4.174,2.633c-1.824,2.47-16.997,10.112-20.756,12.59c-3.77,2.47-16.136,7.092-22.591,16.885
						c-6.454,9.794-12.59,18.933-13.02,27.538c-0.129,2.625-0.104,5.104-0.043,7.315c0,0-6.412,13.674-9.527,18.726
						c-3.124,5.043-4.948,18.176-5.921,24.199c-0.964,6.024-4.836,46.678-4.836,46.678s0.388,0.336,1.059,0.861
						c2.238,1.756,7.599,5.688,12.065,6.678c0,0,0.103-10.12,5.051-18.398l-1.179,18.932c0,0,1.558,0.121,4.001,0.336
						c6.171,0.533,18.046,1.67,24.828,2.986c9.467,1.842,26.678,9.156,30.008,8.296c0.405-0.104,0.87-0.258,1.368-0.438
						c0-0.009,0-0.009,0-0.009c1.826-0.68,4.123-1.824,5.947-2.788c1.79-0.938,3.125-1.713,3.125-1.713s-0.758-10.111,0.646-12.367
						c1.041-1.686,6.936-11.944,10.886-18.777c-1.084-0.086-2.083-0.189-2.969-0.336c-7.169-1.152-36.145-10.757-42.453-13.631
						c-4.233-1.928-6.591-13.132-7.676-20.293c-6.016-0.68-9.535-2.15-11.308-3.115c-1.015-0.568-1.454-0.972-1.454-0.972
						s6.807-1.377,11.996-1.953c1.919-0.207,3.623-0.311,4.682-0.198c3.907,0.43,21.118,8.175,21.118,8.175
						c2.049,0.775,26.515,14.862,34.733,18.046c3.657-10.317,8.528-25.799,9.44-28.906c0.921-3.158,4.751-9.982,6.472-16.566
						c0,0,0,0,0.008,0c0.31-0.206,6.497-4.216,8.615-8.114c0.284-0.525,0.5-1.05,0.61-1.567c0.767-3.468,2.187-12.168,2.763-15.748
						c0.155-0.98,0.249-1.574,0.249-1.574S189.41,119.691,188.98,117.747z"/>
					<g>
						<path fill="#0160BA" d="M154.66,248.347c0.099-0.158,0.24-0.395,0.419-0.696c-11.779,0.495-22.547-5.903-28.93-9.096
							c-7.746-3.872-10.327-9.466-27.969-13.339c-17.642-3.873-3.894,5.709,3.012,6.885c20.224,3.442,40.447,24.526,45.611,26.678
							c1.336,0.558,4.03-0.329,7.033-1.865C153.756,253.796,153.827,249.687,154.66,248.347z"/>
						<path fill="#0160BA" d="M117.113,124.099c5.54-1.887-10.327,11.617-12.048,21.944s-5.594,38.726-5.594,41.308
							s-24.526-1.291-14.629-6.023c9.896-4.733,13.124-3.873,7.745-9.467c-5.379-5.594-5.594-12.908-1.721-18.072
							c3.873-5.163,7.315,14.63,7.745,8.176C99.041,155.509,96.889,130.983,117.113,124.099z"/>
						<path fill="#0160BA" d="M193.704,144.321c-1.721,7.315-3.442-20.223-4.733-13.769s-8.605-18.933-8.605-18.933
							s6.131,37.973,7.314,44.319c0.75,4.023,0.892,8.655,0.568,13.807c0.83-0.55,5.81-3.896,8.081-7.343
							c0.524-9.373,1.248-20.232,1.248-20.232S195.425,137.007,193.704,144.321z"/>
						<path fill="#0160BA" d="M138.627,192.944c0,0,21.515,0.43,32.271-7.745c10.757-8.176-4.733,18.072-19.793,15.06
							C136.045,197.247,138.627,201.12,138.627,192.944z"/>
						<path fill="#0160BA" d="M139.488,181.327c0,0,7.315-45.611,1.721-52.926c-5.594-7.315,9.036,12.479,8.605,20.224
							s-7.315-32.272-3.442-30.12c3.873,2.151,13.339,23.235,3.442,44.319S139.488,181.327,139.488,181.327z"/>
						<path fill="#0160BA" d="M121.846,139.158c0,0-3.012,26.248-3.012,33.132c0,6.885,0.43,14.631-3.873,15.491
							c-4.303,0.86-8.606-1.291-12.909,1.29c0,0,6.884-4.303,11.188-6.454C117.543,180.466,113.67,149.915,121.846,139.158z"/>
					</g>
				</g>
				<g>
					<path fill="#C18362" d="M261.664,140.19l0.181,0.043c0,0,5.121-0.111,6.729,3.511c1.618,3.623,0.043,9.458-0.748,10.043
						c-0.8,0.585-10.225,2.366-10.225,2.366s-3.545,3.658-7.417,5.552s-10.757-0.276-12.806,0c-22.899,3.158-40.103,0.094-40.627,0
						c0.284-0.525,0.5-1.05,0.61-1.567c0.767-3.468,2.187-12.168,2.763-15.748c0,0,13.916,2.513,17.891,3.907
						c3.985,1.402,20.336,3.124,21.945,2.263c1.619-0.86,9.476-9.19,13.124-10.326c3.649-1.137,3.649-1.137,3.649-1.137
						s2.917-1.308,4.526-1.161C261.922,137.996,261.965,138.993,261.664,140.19z"/>
					<path fill="#CB9A80" d="M238.251,154.078c4.012-2.89,11.876-7.224,13-10.112c0.468-1.202,0.488-2.234,0.355-3.034
						c-3.966,2.331-10.222,8.871-11.646,9.628c-1.608,0.861-17.959-0.86-21.945-2.263c-3.263-1.145-13.217-3.041-16.682-3.685
						c-0.068,0.521-0.089,1.109,0.004,1.762l1.284,8.828C202.621,155.202,234.239,156.968,238.251,154.078z"/>
					<path fill="none" stroke="#000000" stroke-linecap="round" stroke-linejoin="round" stroke-miterlimit="10" d="
						M200.122,144.388c0,0,13.914,2.516,17.894,3.914s20.331,3.12,21.945,2.26c1.613-0.861,9.477-9.194,13.124-10.327
						s3.647-1.133,3.647-1.133"/>
					<path fill="none" stroke="#000000" stroke-linecap="round" stroke-linejoin="round" stroke-miterlimit="10" d="M256.73,139.102
						c0,0,2.915-1.313,4.529-1.166c1.613,0.147-0.44,5.874-2.264,6.452c-1.824,0.58-3.652,1.117-4.19,2.086
						c-0.538,0.968-1.829,6.992-6.454,8.283"/>
					<path fill="none" stroke="#000000" stroke-linecap="round" stroke-linejoin="round" stroke-miterlimit="10" d="
						M196.745,161.707c0,0,17.37,3.205,40.633,0c2.044-0.281,8.929,1.896,12.801,0c3.873-1.895,7.422-5.552,7.422-5.552
						s9.425-1.778,10.219-2.367c0.795-0.589,2.367-6.422,0.753-10.042c-1.614-3.62-6.731-3.512-6.731-3.512"/>
				</g>
				<g>
					<path fill="none" stroke="#000000" stroke-linecap="round" stroke-linejoin="round" stroke-miterlimit="10" d="M88.021,156.366
						c0,0-6.407,13.682-9.527,18.729c-3.119,5.048-4.948,18.171-5.916,24.195c-0.968,6.024-4.841,46.687-4.841,46.687
						s7.315,6.239,13.124,7.529c0,0,0.107-10.111,5.056-18.395l-1.184,18.933c0,0,19.363,1.487,28.83,3.325
						c9.466,1.839,26.678,9.153,30.012,8.293c3.335-0.86,10.435-4.948,10.435-4.948s-0.753-10.112,0.646-12.371
						s11.51-19.9,13.984-24.096s11.726-33.455,13.016-37.865c1.291-4.411,8.283-16.028,7.208-24.097
						c-1.076-8.067-7.53-41.415-7.53-41.415"/>
					<path fill="none" stroke="#000000" stroke-linecap="round" stroke-linejoin="round" stroke-miterlimit="10" d="
						M187.035,128.509c0,0,1.258,20.888,1.326,30.475"/>
					<path fill="none" stroke="#000000" stroke-linecap="round" stroke-linejoin="round" stroke-miterlimit="10" d="
						M193.166,140.234c0,0-1.819,17.104-4.19,24.419"/>
					<path fill="none" stroke="#000000" stroke-linecap="round" stroke-linejoin="round" stroke-miterlimit="10" d="
						M188.129,169.821c0,0,8.264-5.275,9.232-9.687c0.968-4.41,3.012-17.319,3.012-17.319s-10.963-23.128-11.398-25.064
						c-0.435-1.936-0.65-6.562-2.909-9.789c-2.259-3.227-18.61-22.59-31.626-20.546c0,0-8.175,2.151-10.004,4.626
						s-16.997,10.111-20.761,12.586c-3.765,2.474-16.136,7.1-22.59,16.889s-12.586,18.933-13.016,27.538
						c-0.43,8.606,0.86,15.599-0.861,17.212"/>
					<path fill="none" stroke="#000000" stroke-linecap="round" stroke-linejoin="round" stroke-miterlimit="10" d="
						M136.045,124.099c0,0,7.638,4.55,11.402,12.279c3.765,7.729-1.007,9.57-5.021,29.627"/>
					<path fill="none" stroke="#000000" stroke-linecap="round" stroke-linejoin="round" stroke-miterlimit="10" d="M149.384,126.68
						c0.323,0.323,5.849,15.978-1.721,34.961"/>
					<path fill="none" stroke="#000000" stroke-linecap="round" stroke-linejoin="round" stroke-miterlimit="10" d="
						M136.648,124.485c0,0,6.066-11.359,18.867-20.288"/>
					<path fill="none" stroke="#000000" stroke-linecap="round" stroke-linejoin="round" stroke-miterlimit="10" d="M93.976,163.685
						c0,0,3.344,10.243,6.517,13.996"/>
					<path fill="none" stroke="#000000" stroke-linecap="round" stroke-linejoin="round" stroke-miterlimit="10" d="M79.893,185.414
						c0,0-1.183-4.841,4.949-4.087c6.131,0.752,11.082-2.905,15.491-1.398"/>
					<path fill="none" stroke="#000000" stroke-linecap="round" stroke-linejoin="round" stroke-miterlimit="10" d="M85.917,235.112
						c0,0,5.271-27.107,8.713-33.132c3.442-6.024,6.516-9.792,6.516-9.792"/>
					<path fill="none" stroke="#000000" stroke-linecap="round" stroke-linejoin="round" stroke-miterlimit="10" d="M92.371,223.817
						c0,0,12.693,0.431,24.204,9.251c11.51,8.821,28.076,12.417,31.949,13.362"/>
					<path fill="none" stroke="#000000" stroke-linecap="round" stroke-linejoin="round" stroke-miterlimit="10" d="M165.95,189.611
						c-7.315,6.671-20.761,4.839-20.761,4.839"/>
					<path fill="none" stroke="#000000" stroke-linecap="round" stroke-linejoin="round" stroke-miterlimit="10" d="M68.796,246.835
						c0,0,6.579,55.978,8.156,64.439s3.012,11.617,4.876,14.199s5.307,9.753,5.307,9.753"/>
					<path fill="none" stroke="#000000" stroke-linecap="round" stroke-linejoin="round" stroke-miterlimit="10" d="M82.967,327.259
						c0,0,0.564,8.399,0,13.85c-0.564,5.449,2.734,8.748,4.886,10.613"/>
					<path fill="none" stroke="#000000" stroke-linecap="round" stroke-linejoin="round" stroke-miterlimit="10" d="M85.378,349.188
						c0,0,0.037,10.136,1.041,16.733s2.725,25.674,4.016,28.829c1.291,3.156-2.295,20.366,0.86,21.802
						c3.155,1.434,5.307,3.729,4.016,4.303"/>
					<path fill="none" stroke="#000000" stroke-linecap="round" stroke-linejoin="round" stroke-miterlimit="10" d="
						M116.395,435.463c2.475-0.804,4.231-1.271,5.164-1.7c1.865-0.86,5.308-2.868,5.451-3.299c0.143-0.43,0.972-41.523,1.347-46.902
						c0.375-5.378,1.666-22.159,2.311-27.753c0.645-5.594-0.215-21.945-1.291-27.323c-1.076-5.379,5.809-30.551,5.594-36.145
						c-0.215-5.594,9.971-27.122,9.971-27.122"/>
					<path fill="none" stroke="#000000" stroke-linecap="round" stroke-linejoin="round" stroke-miterlimit="10" d="M90.341,415.103
						c0.418,0.636-0.146,1.158-0.913,1.835"/>
					<path fill="none" stroke="#000000" stroke-linecap="round" stroke-linejoin="round" stroke-miterlimit="10" d="
						M126.033,431.262c0,0,0.761,5.025,5.709,7.923c4.158,2.435,8.316,5.405,9.921,8.846"/>
					<path fill="none" stroke="#000000" stroke-linecap="round" stroke-linejoin="round" stroke-miterlimit="10" d="
						M127.562,435.079c0,0,12.571-0.851,21.606-9.457c0,0-3.657-5.163-5.163-7.637c-1.506-2.475-1.291-4.195,0.43-7.1
						c1.721-2.905,2.904-4.949,2.582-7.961s0.753-21.191,1.614-27.538c0.86-6.347,0.107-14.415-0.753-17.212
						c-0.861-2.797-1.506-26.678-1.506-32.702c0-6.023,4.514-63.046,4.514-63.046"/>
					<path fill="none" stroke="#000000" stroke-linecap="round" stroke-linejoin="round" stroke-miterlimit="10" d="M87.853,327.259
						c0,0,13.124,1.586,23.021,7.968s15.706,12.065,15.92,13.526"/>
					<path fill="none" stroke="#000000" stroke-linecap="round" stroke-linejoin="round" stroke-miterlimit="10" d="
						M119.049,376.032c0,0-9.251,19.113-14.415,23.003s-4.948,4.71-6.239,9.679c-1.291,4.969-2.703,8.041-2.703,8.041"/>
					<path fill="none" stroke="#000000" stroke-linecap="round" stroke-linejoin="round" stroke-miterlimit="10" d="
						M103.337,426.878c2.622,0.76,5.095,1.389,6.891,1.688c5.387,0.896,6.443,4.112,3.171,4.954"/>
					<path fill="none" stroke="#000000" stroke-linecap="round" stroke-linejoin="round" stroke-miterlimit="10" d="
						M114.762,434.349c2.168-0.741,4.355-1.742,6.438-3.087"/>
					<path fill="none" stroke="#000000" stroke-linecap="round" stroke-linejoin="round" stroke-miterlimit="10" d="
						M144.006,408.714c0,0-2.797,5.004-7.53,9.182c-4.733,4.178-9.682,6.393-4.948,7.866c4.733,1.475,10.838-3.904,10.838-3.904"/>
					<path fill="none" stroke="#000000" stroke-linecap="round" stroke-linejoin="round" stroke-miterlimit="10" d="M88.741,254.379
						c0,0,4.258,58.808,5.235,63.768s-0.354,10.13,1.716,10.714s2.488,8.23,2.918,13.824s1.415,28.184,2.536,34.854
						c1.122,6.669-0.814,14.334,1.337,17.916c2.151,3.581,1.035,4.558,0.015,5.279"/>
					<path fill="none" stroke="#000000" stroke-linecap="round" stroke-linejoin="round" stroke-miterlimit="10" d="
						M148.746,426.018c0,0,9.11,4.151,11.481,5.702c2.371,1.551,10.485,0.429,13.039,3.359c2.553,2.932,1.368,7.764,1.368,7.764
						s-11.854,1.733-20.88,0.821c-9.026-0.911-17.849-1.796-17.849-1.796"/>
					<path fill="none" stroke="#000000" stroke-linecap="round" stroke-linejoin="round" stroke-miterlimit="10" d="
						M174.633,442.843c0,0-1.367,4.104-4.285,5.289c-2.918,1.186-23.238,1.342-29.262-1.152"/>
				</g>
				<g>
					<g>
						<path fill="#C18362" d="M216.724,214.564c0,0,4.949-1.077,8.068,0c3.12,1.077,6.98,9.942,6.98,9.942s-1.063,0.925-2.179-0.025
							"/>
						<path fill="#CB9A80" d="M226.552,218.046c-1.291-1.583-6.455-4.303-11.188-3.304c-4.733,1.007-23.236,3.158-25.964,3.442
							c-2.728,0.292-5.292-1.368-15.042-2.255c-0.456-0.043-1.188-0.267-2.143-0.638c-8.219-3.184-32.685-17.271-34.733-18.046
							c0,0-17.211-7.745-21.118-8.175c-1.059-0.112-2.762-0.009-4.682,0.198c0,0,0.232,2.538,0.766,6.04
							c1.084,7.161,3.442,18.365,7.676,20.293c6.308,2.874,35.284,12.479,42.453,13.631c0.886,0.146,1.885,0.25,2.969,0.336
							c7.66,0.56,19.26-0.197,22.28,0.81c3.442,1.145,9.604,2.151,13.046,0.576c3.442-1.583,15.353-9.036,16.781-10.189
							c1.437-1.145,4.311,0.431,5.456,0.293c0,0,3.296,5.731,4.871,6.592c1.583,0.86,2.728-0.284,2.728-0.284
							S227.843,219.621,226.552,218.046z"/>
						<path fill="#C18362" d="M201.019,229.519c-6.454,3.442-15.49-6.023-25.387-5.594c-9.896,0.431-27.108-3.442-40.017-6.454
							c-12.909-3.012-16.351-15.49-16.351-15.49c2.905-3.486,12.472-4.421,18.386-4.662c-0.061-0.026-0.126-0.056-0.167-0.072
							c0,0-17.211-7.745-21.118-8.175c-1.059-0.112-2.762-0.009-4.682,0.198c0,0,0.232,2.538,0.766,6.04
							c1.084,7.161,3.442,18.365,7.676,20.293c6.308,2.874,35.284,12.479,42.453,13.631c0.886,0.146,1.885,0.25,2.969,0.336
							c7.66,0.56,19.26-0.197,22.28,0.81c3.442,1.145,9.604,2.151,13.046,0.576c1.577-0.726,4.932-2.684,8.242-4.702
							C206.368,227.132,203.424,228.236,201.019,229.519z"/>
					</g>
					<g>
						<path fill="none" stroke="#000000" stroke-linecap="round" stroke-linejoin="round" stroke-miterlimit="10" d="
							M133.033,123.022c0,0-19.147-3.442-25.387,10.758c-6.239,14.199-7.96,57.443-7.96,57.443s3.294,3.012,12.76,4.088"/>
						<path fill="none" stroke="#000000" stroke-linecap="round" stroke-linejoin="round" stroke-miterlimit="10" d="
							M111.683,189.273c0,0,2.13,23.465,8.441,26.333c6.311,2.869,35.284,12.478,42.456,13.626
							c7.171,1.147,21.801,0.001,25.244,1.147c3.442,1.147,9.609,2.15,13.052,0.573s15.347-9.036,16.781-10.183
							c1.434-1.147,4.303,0.43,5.451,0.286c0,0,3.298,5.737,4.876,6.599c1.578,0.86,2.725-0.287,2.725-0.287
							s-2.868-7.746-4.159-9.323c-1.291-1.577-6.454-4.303-11.188-3.299c-4.733,1.005-23.236,3.155-25.961,3.442
							s-5.291-1.371-15.048-2.254c-4.422-0.4-34.579-17.826-36.874-18.687c0,0,5.594-35.856,7.028-43.745
							c1.434-7.89-1.004-18.79-2.151-20.941"/>
						<path fill="none" stroke="#000000" stroke-linecap="round" stroke-linejoin="round" stroke-miterlimit="10" d="
							M99.686,191.224c0,0,12.765-2.581,16.674-2.151c3.908,0.431,21.12,8.176,21.12,8.176"/>
						<path fill="none" stroke="#000000" stroke-linecap="round" stroke-linejoin="round" stroke-miterlimit="10" d="
							M216.724,214.564c0,0,4.949-1.077,8.068,0c3.12,1.077,6.98,9.942,6.98,9.942s-1.063,0.925-2.179-0.025"/>
					</g>
				</g>
				<g>
					<g>
						<g id="XMLID_29_">
							<g>
								<path fill="#CB9A80" d="M175.121,112.248c-0.172,9.939-0.773,26.376-0.773,26.376c-6.454-4.957-13.554-20.017-14.983-25.181
									c-1.42-5.163-3.839-9.242-3.839-9.242s-0.86-2.694-2.047-6.454c-0.774-2.479-2.642-5.311-3.831-6.954l0.009-0.009
									c0,0,6.997-8.235,7.918-14.045c0.921-5.809,1.454-26.505,7.564-34.457c6.118-7.951,21.721-11.669,34.732-7.908
									c13.021,3.761,18.452,15.637,18.891,21.256c1.153,14.596-4.518,20.283-6.791,21.945c-0.56,0.412-0.913,0.585-0.913,0.585
									c1.249,3.941,0.587,7.788-0.654,10.98h-0.008c-0.249,0.663-0.533,1.3-0.833,1.894c0,0.008,0,0.017,0,0.017
									c-0.81,1.644-1.721,3.038-2.479,4.088c-0.998,1.36-1.746,2.151-1.746,2.151s-0.146,1.214-0.439,2.797
									c-0.43,2.35-1.197,5.508-2.297,6.627c-4.597,4.716-14.063-4.526-16.929-4.285
									C183.392,102.609,178.099,108.719,175.121,112.248z"/>
								<path fill="#C18362" d="M211.971,77.575c0.309,1.626,1.42,6.875,3.425,9.982c0,0-0.585,3.27-4.992,1.583
									c1.241-3.192,1.903-7.039,0.654-10.98C211.058,78.16,211.334,77.626,211.971,77.575z"/>
								<path fill="#C18362" d="M209.562,95.139h-2.479c0.758-1.05,1.669-2.444,2.479-4.088
									C209.519,91.275,209.141,93.607,209.562,95.139z"/>
								<path fill="#C18362" d="M208.322,97.29c0.689,1.584-2.271,1.102-3.424,2.797c0.292-1.583,0.439-2.797,0.439-2.797
									s0.748-0.791,1.746-2.151C207.083,95.139,207.634,95.707,208.322,97.29z"/>
							</g>
						</g>
					</g>
					<path fill="#C18362" d="M202.357,106.934c-1.489-2.427-3.315-5.967-5.21-11.234c-5.809-16.136,4.518-28.399,4.518-28.399
						c-20.008,2.797-18.933,27.539-20.869,32.057c-1.321,3.082-0.138,4.659,1.84,4.875c1.21-1.037,2.287-1.743,3.036-1.803
						C188.488,102.191,197.678,111.106,202.357,106.934z"/>
					<path fill="#C18362" d="M170.253,123.668c-0.345,4.735-0.552,7.571-1.159,9.11c1.715,2.422,3.507,4.505,5.253,5.846
						c0,0,0.595-16.262,0.771-26.216C172.805,114.834,170.632,118.458,170.253,123.668z"/>
					<g>
						<g>
							<path fill="none" stroke="#000000" stroke-linecap="round" stroke-linejoin="round" stroke-miterlimit="10" d="
								M211.968,77.563c0,0,0.96,6.18,3.424,9.993c0,0-0.585,3.281-4.997,1.587"/>
							<path fill="none" stroke="#000000" stroke-linecap="round" stroke-linejoin="round" stroke-miterlimit="10" d="
								M209.561,91.032c0,0-0.455,2.5,0,4.107h-2.485c0,0,0.554,0.568,1.243,2.151c0.689,1.583-2.273,1.104-3.424,2.8"/>
							<path fill="none" stroke="#000000" stroke-linecap="round" stroke-linejoin="round" stroke-miterlimit="10" d="
								M211.059,78.158c0,0,1.513,0.155,3.539-0.595"/>
							<path fill="none" stroke="#000000" stroke-linecap="round" stroke-linejoin="round" stroke-miterlimit="10" d="
								M149.648,90.79c0,0,7-8.24,7.919-14.05s1.455-26.505,7.57-34.458s21.719-11.666,34.733-7.908s18.445,15.638,18.888,21.258
								c1.432,18.164-7.701,22.526-7.701,22.526c3.125,9.855-5.723,19.133-5.723,19.133s-0.902,7.544-2.739,9.427
								c-4.596,4.711-14.064-4.528-16.933-4.292s-10.555,9.909-12.327,11.915c-1.771,2.006-3.155,7.493-3.155,7.493"/>
						</g>
						<path fill="none" stroke="#000000" stroke-linecap="round" stroke-linejoin="round" stroke-miterlimit="10" d="
							M148.608,89.405c0,0,3.68,4.572,4.864,8.338c1.183,3.765,2.043,6.454,2.043,6.454s2.417,4.088,3.844,9.251
							c1.427,5.164,8.527,20.224,14.981,25.172c0,0,0.6-16.428,0.77-26.366"/>
					</g>
					<g>
						<g>
							<path fill="#222222" stroke="#000000" stroke-linecap="round" stroke-linejoin="round" stroke-miterlimit="10" d="
								M157.246,89.405c4.138,4.389,9.995,4.569,14.662-2.33c6.235-12.448,15.417-10.473,21.088-14.603
								c-3.61,7.789-2.072,16.909,1.134,18.587c-4.57-18.868,9.799-20.035,9.799-20.035c26.291-10.266,20.753-26.126,8.463-33.188
								c-12.291-7.057-24.694-8.34-24.694-8.34C156.034,25.845,142.431,73.694,157.246,89.405z"/>
							
								<circle fill="#006AD1" stroke="#000000" stroke-linecap="round" stroke-linejoin="round" stroke-miterlimit="10" cx="164.113" cy="48.912" r="6.63"/>
							<path fill="#222222" stroke="#000000" stroke-linecap="round" stroke-linejoin="round" stroke-miterlimit="10" d="
								M119.882,106.718c19.668-16.126-7.947-37.46,11.202-61.193c17.524-21.719,35.082-0.857,35.082-0.857s4.303,4.578-3.442,9.733
								c0,0-12.628,1.208-16.641,14.691C142.069,82.575,134.241,102.892,119.882,106.718z"/>
						</g>
						<g>
							<path fill="#CB9A80" d="M200.663,86.039c-5.441,3.87-7.163-2.785-5.037-8.476c1.847-4.945,3.377-7.38,6.215-7.031
								c3.315,0.408,0.784,6.208,0.784,6.208"/>
							<path fill="#C18362" d="M198.731,77.369c0,0,1.521-3.261,3.333-3.551s1.087,0.362,1.087,1.015s-1.377,3.986-1.377,3.986
								s-2.609,1.231-2.464,2.608c0.145,1.376,2.028,2.03,1.231,2.755C199.744,84.907,195.253,85.051,198.731,77.369z"/>
							<path fill="none" stroke="#000000" stroke-linecap="round" stroke-linejoin="round" stroke-miterlimit="10" d="
								M200.663,86.039c-5.441,3.87-7.163-2.785-5.037-8.476c1.847-4.945,3.377-7.38,6.215-7.031
								c3.315,0.408,0.784,6.208,0.784,6.208"/>
							<path fill="none" stroke="#000000" stroke-linecap="round" stroke-linejoin="round" stroke-miterlimit="10" d="
								M203.368,73.964c0,0-2.898-1.74-5.072,4.348c-2.213,6.196,1.232,6.087,1.232,6.087"/>
						</g>
					</g>
					<path fill="#444444" stroke="#000000" stroke-linecap="round" stroke-linejoin="round" stroke-miterlimit="10" d="
						M211.165,75.864c0,0,2.642-1.318,4.145-0.227l0.44-1.614C215.75,74.023,213.806,72.196,211.165,75.864z"/>
				</g>
			</g>
		</g>
		<g>
			<path fill="#DDBDB1" d="M227.149,240.276c3.193,0.758,5.637,3.073,5.637,3.073c0.129-0.138,0.267-0.284,0.404-0.439l-6.592-4.991
				L227.149,240.276z"/>
			<path fill="#DDBDB1" d="M236.633,245.526c0.542-0.482,1.076-1.007,1.558-1.506c0,0,1.076,0.852,0.783,1.953
				c-0.043,0.189-0.129,0.336-0.25,0.457c-0.138,0.137-0.31,0.24-0.508,0.301c-0.688,0.224-1.721,0.061-2.642-0.301l-0.008-0.01
				C235.91,246.154,236.271,245.845,236.633,245.526z"/>
			<path fill="#DDBDB1" d="M235.566,246.421c-0.491,0.405-0.947,0.732-1.326,0.964l4.484,0.964c0.353-0.283,0.542-0.542,0.611-0.773
				l-1.119-0.844c-0.688,0.224-1.721,0.061-2.642-0.301L235.566,246.421z"/>
			<path fill="#E7D1C9" d="M227.149,240.276l-0.551-2.357l-3.433-2.599c0,0-0.422,4.956,0,6.893
				c0.431,1.937,8.356,4.218,8.356,4.218c-0.095-0.371-0.104-0.775,0-1.162c0.171-0.604,0.654-1.23,1.265-1.919
				C232.786,243.35,230.342,241.034,227.149,240.276z"/>
			<path fill="#E7D1C9" d="M232.786,243.35c0.129-0.138,0.267-0.284,0.404-0.439c0.8-0.852,1.755-1.79,2.556-2.883
				c0.8-1.076,0.465-2.788-0.078-4.252l-6.971-6.635l5.654-3.709c2.504,3.743,6.79,5.206,8.924,5.724v0.008
				c0.534,2.926-1.506,5.138-1.936,5.998c-0.293,0.585-0.508,1.928-0.87,3.185c-0.163,0.603-0.37,1.179-0.637,1.652
				c-0.275,0.508-0.895,1.248-1.644,2.022c-0.482,0.499-1.016,1.023-1.558,1.506c-0.361,0.318-0.723,0.628-1.067,0.895
				c-0.491,0.405-0.947,0.732-1.326,0.964c-0.129,0.087-0.258,0.155-0.37,0.207c-1.136,0.55-2.083-0.164-2.349-1.161
				c-0.095-0.371-0.104-0.775,0-1.162C231.693,244.665,232.175,244.038,232.786,243.35z"/>
		</g>
		<path fill="#999999" d="M228.697,229.14L85.454,92.816l-22.882,21.851l160.523,121.659l3.804,2.891l2.409,1.825
			c2.074,0.981,3.477,2.307,3.477,2.307l0.008,0.008c0.86-0.972,2.005-2.048,2.952-3.321c0.801-1.085,0.465-2.806-0.077-4.261
			L228.697,229.14z M254.299,253.512l-13.83-13.158c-0.172,0.594-0.37,1.171-0.637,1.644c-0.284,0.508-0.895,1.248-1.644,2.022
			c0,0,1.076,0.852,0.784,1.962c-0.052,0.181-0.129,0.327-0.25,0.448c0,0,1.386,0.688,0.112,1.823l12.031,9.114
			C255.125,257.031,254.299,253.512,254.299,253.512z"/>
		<g>
			<path fill="#848484" d="M229.308,241.042c2.074,0.981,3.477,2.307,3.477,2.307l0.008,0.008c0.663-0.749,1.493-1.562,2.273-2.478
				L74.275,103.491l-11.704,11.176l160.523,121.659l3.804,2.891L229.308,241.042z"/>
			<path fill="#848484" d="M238.434,243.756c-0.083,0.089-0.159,0.175-0.246,0.264c0,0,1.076,0.852,0.784,1.962
				c-0.052,0.181-0.129,0.327-0.25,0.448c0,0,1.386,0.688,0.112,1.823l12.031,9.114c1.177-0.093,1.956-0.433,2.481-0.87
				L238.434,243.756z"/>
		</g>
		<g>
			<g>
				
					<line fill="none" stroke="#000000" stroke-linecap="round" stroke-linejoin="round" stroke-miterlimit="10" x1="234.348" y1="225.434" x2="228.694" y2="229.144"/>
				<path fill="none" stroke="#000000" stroke-linecap="round" stroke-linejoin="round" stroke-miterlimit="10" d="M234.348,233.071
					c0,0,3.011,4.777,1.397,6.96c-1.614,2.184-3.824,3.78-4.225,5.241s0.798,3.074,2.35,2.321s5.147-4.115,5.962-5.594
					c0.814-1.479,1.076-3.98,1.506-4.841c0.43-0.861,2.464-3.08,1.931-6.004"/>
				<path fill="none" stroke="#000000" stroke-linecap="round" stroke-linejoin="round" stroke-miterlimit="10" d="M223.092,236.321
					c-0.099,1.551-0.233,4.502,0.072,5.894c0.425,1.937,8.356,4.216,8.356,4.216"/>
				<path fill="none" stroke="#000000" stroke-linecap="round" stroke-linejoin="round" stroke-miterlimit="10" d="M232.786,243.35
					c0,0-2.957-2.794-6.614-3.255"/>
				
					<line fill="none" stroke="#000000" stroke-linecap="round" stroke-linejoin="round" stroke-miterlimit="10" x1="227.149" y1="240.274" x2="226.896" y2="239.202"/>
				<path fill="none" stroke="#000000" stroke-linecap="round" stroke-linejoin="round" stroke-miterlimit="10" d="M238.189,244.022
					c0,0,1.073,0.853,0.783,1.957c-0.29,1.105-1.971,1.009-3.406,0.451"/>
				<path fill="none" stroke="#000000" stroke-linecap="round" stroke-linejoin="round" stroke-miterlimit="10" d="M238.719,246.431
					c0,0,1.468,0.732,0,1.916l-4.477-0.958"/>
			</g>
			<polyline fill="none" stroke="#000000" stroke-linecap="round" stroke-linejoin="round" stroke-miterlimit="10" points="
				235.665,235.779 85.453,92.82 62.568,114.665 229.44,241.134 			"/>
			<path fill="none" stroke="#000000" stroke-linecap="round" stroke-linejoin="round" stroke-miterlimit="10" d="M238.807,248.233
				l12.059,9.137c4.264-0.342,3.432-3.857,3.432-3.857l-13.831-13.163"/>
		</g>
		<g>
			<g>
				<path fill="#666666" stroke="#000000" stroke-linecap="round" stroke-linejoin="round" stroke-miterlimit="10" d="
					M140.584,447.565c4.038,1.762,8.131,3.42,12.284,4.954V172.305h-12.284V447.565z"/>
				<path fill="#444444" stroke="#000000" stroke-linecap="round" stroke-linejoin="round" stroke-miterlimit="10" d="
					M152.869,452.52c1.438,0.532,2.885,1.042,4.336,1.546V176.167l-4.336-3.862V452.52z"/>
			</g>
		</g>
		<g>
			
				<circle fill="#444444" stroke="#000000" stroke-linecap="round" stroke-linejoin="round" stroke-miterlimit="10" cx="74.01" cy="103.743" r="15.818"/>
			
				<circle fill="#666666" stroke="#000000" stroke-linecap="round" stroke-linejoin="round" stroke-miterlimit="10" cx="70.292" cy="100.088" r="15.819"/>
			<circle fill="#707070" cx="69.104" cy="98.841" r="13.393"/>
		</g>
		<g>
			
				<rect x="199.048" y="401.488" fill="#444444" stroke="#000000" stroke-linecap="round" stroke-linejoin="round" stroke-miterlimit="10" width="63.564" height="4.213"/>
			<polygon fill="#666666" stroke="#000000" stroke-linecap="round" stroke-linejoin="round" stroke-miterlimit="10" points="
				265.113,399.263 201.549,399.263 199.048,401.488 262.612,401.488 			"/>
			<g>
				
					<rect x="241.917" y="250.591" fill="#666666" stroke="#000000" stroke-linecap="round" stroke-linejoin="round" stroke-miterlimit="10" width="4.667" height="150.036"/>
				<polygon fill="#444444" stroke="#000000" stroke-linecap="round" stroke-linejoin="round" stroke-miterlimit="10" points="
					246.585,400.627 248.233,400.627 248.233,252.058 246.585,250.591 				"/>
			</g>
		</g>
		<g>
			<path fill="#999999" d="M462.762,189.732c-1.289-6.756-2.854-13.414-4.713-19.949l-62.368,59.356l-25.602,24.372
				c0,0-0.826,3.52,3.434,3.855l21.557-16.325l2.41-1.825l3.805-2.891L462.762,189.732z"/>
			<path fill="#848484" d="M462.762,189.732c-0.63-3.3-1.323-6.578-2.09-9.827l-71.36,60.974c0,0-3.287,2.966-3.369,2.877
				l-14.91,12.741c0.525,0.438,1.303,0.777,2.48,0.87l12.258-9.299l9.299-7.026l2.41-1.825l3.805-2.891L462.762,189.732z"/>
			<g>
				<path fill="#444444" stroke="#000000" stroke-linecap="round" stroke-linejoin="round" stroke-miterlimit="10" d="
					M361.765,401.488v4.213h29.433c1.511-1.384,3-2.79,4.474-4.213H361.765z"/>
				<path fill="#666666" stroke="#000000" stroke-linecap="round" stroke-linejoin="round" stroke-miterlimit="10" d="
					M359.265,399.263l2.5,2.226h33.906c0.765-0.737,1.526-1.478,2.279-2.226H359.265z"/>
				<g>
					
						<rect x="377.792" y="250.591" fill="#666666" stroke="#000000" stroke-linecap="round" stroke-linejoin="round" stroke-miterlimit="10" width="4.668" height="150.036"/>
					<polygon fill="#444444" stroke="#000000" stroke-linecap="round" stroke-linejoin="round" stroke-miterlimit="10" points="
						377.792,400.627 376.146,400.627 376.146,252.058 377.792,250.591 					"/>
				</g>
			</g>
			<g>
				<path fill="#DDBDB1" d="M391.812,245.436c-3.191,0.757-5.637,3.072-5.637,3.072c-0.127-0.138-0.266-0.284-0.404-0.439
					l6.594-4.991L391.812,245.436z"/>
				<path fill="#DDBDB1" d="M382.33,250.685c-0.541-0.481-1.076-1.007-1.559-1.506c0,0-1.074,0.852-0.783,1.953
					c0.045,0.189,0.131,0.336,0.25,0.457c0.139,0.137,0.311,0.24,0.508,0.301c0.689,0.224,1.723,0.061,2.643-0.301l0.01-0.01
					C383.052,251.313,382.691,251.003,382.33,250.685z"/>
				<path fill="#DDBDB1" d="M383.398,251.579c0.49,0.405,0.945,0.732,1.324,0.965l-4.484,0.963
					c-0.352-0.283-0.541-0.541-0.611-0.773l1.119-0.844c0.689,0.224,1.723,0.061,2.643-0.301L383.398,251.579z"/>
				<path fill="#E7D1C9" d="M391.812,245.436l0.553-2.358l3.432-2.599c0,0,0.422,4.957,0,6.894c-0.43,1.936-8.355,4.217-8.355,4.217
					c0.096-0.371,0.104-0.775,0-1.162c-0.172-0.603-0.654-1.23-1.266-1.919C386.175,248.508,388.621,246.192,391.812,245.436z"/>
				<path fill="#E7D1C9" d="M386.175,248.508c-0.127-0.138-0.266-0.284-0.404-0.439c-0.799-0.852-1.754-1.789-2.555-2.883
					c-0.801-1.075-0.465-2.788,0.078-4.251l6.969-6.636l-5.652-3.708c-2.504,3.742-6.791,5.206-8.926,5.723v0.008
					c-0.533,2.926,1.506,5.138,1.938,5.998c0.293,0.586,0.508,1.929,0.869,3.185c0.164,0.603,0.369,1.18,0.637,1.652
					c0.275,0.508,0.895,1.248,1.643,2.022c0.482,0.499,1.018,1.024,1.559,1.506c0.361,0.318,0.723,0.629,1.068,0.895
					c0.49,0.405,0.945,0.732,1.324,0.965c0.129,0.086,0.258,0.155,0.369,0.206c1.137,0.551,2.084-0.164,2.35-1.161
					c0.096-0.371,0.104-0.775,0-1.162C387.269,249.824,386.787,249.196,386.175,248.508z"/>
			</g>
			<g>
				
					<line fill="none" stroke="#000000" stroke-linecap="round" stroke-linejoin="round" stroke-miterlimit="10" x1="384.609" y1="230.595" x2="390.263" y2="234.304"/>
				<path fill="none" stroke="#000000" stroke-linecap="round" stroke-linejoin="round" stroke-miterlimit="10" d="M384.609,238.232
					c0,0-3.01,4.776-1.396,6.96s3.824,3.78,4.225,5.24c0.4,1.461-0.799,3.074-2.352,2.322c-1.551-0.754-5.146-4.115-5.961-5.594
					c-0.814-1.479-1.076-3.98-1.506-4.842c-0.43-0.86-2.465-3.078-1.932-6.004"/>
				<path fill="none" stroke="#000000" stroke-linecap="round" stroke-linejoin="round" stroke-miterlimit="10" d="M395.792,240.484
					c0,0,0.426,4.955,0,6.892c-0.424,1.936-8.355,4.215-8.355,4.215"/>
				<path fill="none" stroke="#000000" stroke-linecap="round" stroke-linejoin="round" stroke-miterlimit="10" d="M386.171,248.511
					c0,0,2.957-2.794,6.615-3.256"/>
				
					<line fill="none" stroke="#000000" stroke-linecap="round" stroke-linejoin="round" stroke-miterlimit="10" x1="391.808" y1="245.436" x2="392.365" y2="243.084"/>
				<path fill="none" stroke="#000000" stroke-linecap="round" stroke-linejoin="round" stroke-miterlimit="10" d="M380.769,249.184
					c0,0-1.072,0.853-0.783,1.957c0.289,1.105,1.971,1.009,3.404,0.45"/>
				<path fill="none" stroke="#000000" stroke-linecap="round" stroke-linejoin="round" stroke-miterlimit="10" d="M380.238,251.591
					c0,0-1.467,0.733,0,1.916l4.479-0.957"/>
			</g>
			<g>
				
					<line fill="none" stroke="#000000" stroke-linecap="round" stroke-linejoin="round" stroke-miterlimit="10" x1="462.758" y1="189.728" x2="385.771" y2="248.068"/>
				
					<line fill="none" stroke="#000000" stroke-linecap="round" stroke-linejoin="round" stroke-miterlimit="10" x1="383.294" y1="240.935" x2="458.05" y2="169.789"/>
				<path fill="none" stroke="#000000" stroke-linecap="round" stroke-linejoin="round" stroke-miterlimit="10" d="M378.492,245.504
					l-8.412,8.009c0,0-0.831,3.516,3.432,3.857l2.635-1.996"/>
			</g>
		</g>
		<g>
			<g>
				
					<path fill="#444444" stroke="#000000" stroke-width="0.9394" stroke-linecap="round" stroke-linejoin="round" stroke-miterlimit="10" d="
					M233.709,466.92c55.039,0,105.615-19.078,145.504-50.966l-13.852-27.027H259.015l-39.735,77.536
					C224.054,466.754,228.862,466.92,233.709,466.92z"/>
				
					<polygon fill="#666666" stroke="#000000" stroke-width="0.9394" stroke-linecap="round" stroke-linejoin="round" stroke-miterlimit="10" points="
					253.65,397.658 370.727,397.658 369.436,395.139 254.941,395.139 				"/>
				
					<path fill="#666666" stroke="#000000" stroke-width="0.9394" stroke-linecap="round" stroke-linejoin="round" stroke-miterlimit="10" d="
					M218.417,466.408c5.057,0.327,10.153,0.512,15.292,0.512c13.446,0,26.621-1.153,39.443-3.338h-53.287L218.417,466.408z"/>
			</g>
			<path fill="#333333" d="M312.177,414.399c-24.276,0-43.956,6.906-43.956,15.426c0,8.519,19.679,15.426,43.956,15.426
				c9.716,0,18.691-1.108,25.967-2.982c5.882-2.95,11.624-6.137,17.208-9.557c0.505-0.936,0.78-1.899,0.78-2.887
				C356.132,421.306,336.454,414.399,312.177,414.399z"/>
		</g>
		<g>
			<g>
				<path fill="#746060" d="M344.854,429.229l-3.437,1.117l-8.521,2.288l-6.401-0.771l-6.253-2.635l-5.697-0.82l-6.439-2.095
					l-1.716-2.905l-0.067-3.393c0,0,14.418-3.256,14.568-3.262c0.15-0.004,11.342,1.716,11.342,1.716s2.461,0.844,6.922,2.938
					c4.461,2.092,5.651,6.138,5.651,6.138L344.854,429.229z"/>
				<path fill="#5F4848" d="M314.542,428.41l5.697,0.82l6.254,2.635l5.641,0.679l2.155-2.253c-3.546,0.1-7.452-1.67-10.011-4.005
					c-0.944-0.861-1.406-1.728-1.169-3.061c0.154-0.863,1.483-2.271,1.272-3.054c-0.227-0.841-2.447-1.131-3.176-1.288
					c-1.817-0.396-3.638-0.692-5.463-0.988c-4.192,0.939-9.422,2.121-9.422,2.121l0.067,3.393l1.716,2.905L314.542,428.41z"/>
				
					<path fill="none" stroke="#000000" stroke-width="1.0434" stroke-linecap="round" stroke-linejoin="round" stroke-miterlimit="10" d="
					M344.854,429.229l-3.437,1.117l-8.521,2.288l-6.401-0.771l-6.253-2.635l-5.697-0.82l-6.439-2.095l-1.716-2.905l-0.067-3.393
					c0,0,14.418-3.256,14.568-3.262c0.15-0.004,11.342,1.716,11.342,1.716s2.461,0.844,6.922,2.938
					c4.461,2.092,5.651,6.138,5.651,6.138L344.854,429.229z"/>
				<g>
					
						<path fill="#EFEFEF" stroke="#000000" stroke-width="1.0114" stroke-linecap="round" stroke-linejoin="round" stroke-miterlimit="10" d="
						M283.046,445.934c-5.789-1.524-8.633-4.023-8.633-4.023s-0.221-2.061,0.604-3.327c12.202-5.303,25.305-0.189,25.305-0.189
						s0.123,0.953,0.953,3.227c0.136,4.682-7.222,4.987-7.222,4.987S286.644,446.883,283.046,445.934z"/>
					
						<path fill="#3B3B3B" stroke="#000000" stroke-width="1.0114" stroke-linecap="round" stroke-linejoin="round" stroke-miterlimit="10" d="
						M281.488,445.245c2.471-0.55,2.732-4.764,2.732-4.764s1.717-0.145,5.256-0.15c0.299,3.722,4.578,6.276,4.578,6.276
						S282.488,446.745,281.488,445.245z"/>
					<path fill="#746060" d="M288.652,424.796l-12.82,2.689c0,0-0.684,3.309-1.368,6.16c-0.684,2.85,0.243,5.194,1.708,6.203
						c1.463,1.011,3.828,0.904,5.156-0.242c1.328-1.145,5.679-2.074,8.947-1.498s4.871,3.112,6.975,3.147
						c2.105,0.034,3.074-2.862,3.074-2.862s-0.559-2.756-0.615-3.52c-0.059-0.764,0.043-3.061,0.4-3.931
						c0.359-0.872-0.631-4.163-0.631-4.163L288.652,424.796z"/>
					<g>
						<path fill="#5F4848" d="M299.478,426.778l-5.545-1.017c0.005,0.114,0.025,0.235,0.072,0.361
							c0.237,0.659,1.361,0.597,1.912,0.803c1.025,0.384,2.01,1.193,2.558,2.149c1.06,1.851-0.423,3.681-0.308,5.521
							c0.1,1.581,1.41,2.676,2.039,4.098c0.076-0.184,0.117-0.301,0.117-0.301s-0.559-2.756-0.615-3.52
							c-0.059-0.764,0.043-3.061,0.4-3.931C300.467,430.071,299.478,426.78,299.478,426.778z"/>
						<path fill="#5F4848" d="M275.832,427.486c0,0-0.684,3.309-1.368,6.16c-0.563,2.349-0.024,4.341,0.999,5.538
							c-0.011-0.578,0.002-1.164,0.021-1.748c0.062-1.947,0.986-3.773,1.252-5.72c0.148-1.074,1.145-2.185,1.142-3.272
							c-0.001-0.454,0.038-0.914,0.083-1.37L275.832,427.486z"/>
					</g>
					
						<path fill="none" stroke="#000000" stroke-width="1.0114" stroke-linecap="round" stroke-linejoin="round" stroke-miterlimit="10" d="
						M288.652,424.796l-12.82,2.689c0,0-0.684,3.309-1.368,6.16c-0.684,2.85,0.243,5.194,1.708,6.203
						c1.463,1.011,3.828,0.904,5.156-0.242c1.328-1.145,5.679-2.074,8.947-1.498s4.871,3.112,6.975,3.147
						c2.105,0.034,3.074-2.862,3.074-2.862s-0.559-2.756-0.615-3.52c-0.059-0.764,0.043-3.061,0.4-3.931
						c0.359-0.872-0.631-4.163-0.631-4.163L288.652,424.796z"/>
				</g>
				<path fill="#D39292" d="M269.875,234.871l-3.997,15.83c0,0,0.15,13.97-0.27,16.718c-0.418,2.748,0.292,10.189,1.75,17.633
					c1.457,7.443,4.231,34.935,4.34,42.91c0.109,7.976-1.171,45.518-0.702,53.224c0.47,7.707,3.623,16.719,3.21,19.716
					c-0.412,2.998-0.717,16.548-0.43,17.931c0.288,1.382,2.443,9.373,2.443,9.373s16.141-0.961,23.115-0.661
					c1.84-5.277-1.248-8.92-0.914-10.529c0.336-1.608-0.987-5.02,0.275-9.035c1.262-4.018,2.418-12.464,1.559-16.42
					c-0.861-3.956,1.598-27.16,1.598-27.16s0.836,7.936,0.496,13.419c-0.34,5.481,1.351,21.108,2.33,22.323
					c0.979,1.216-1.556,4.771-1.461,8.061c0.094,3.289,2.148,5.603,3.075,11.855c5.831,3.873,26.583-1.256,26.583-1.256
					l-1.864-4.286c0,0-0.085-2.939-0.202-7.103c-0.121-4.162-3.639-5.432-2.921-6.447c0.717-1.016,0.907-3.012,1.854-4.708
					s-2.694-7.208-3.289-10.609c-0.594-3.401,2.199-27.493,4.095-30.781c1.896-3.29,1.314-6.256,0.903-11.966
					c-0.412-5.711,3.726-26.228,7.393-37.279c3.664-11.051,6.197-35.502,7.303-45.484c1.104-9.982-0.861-21.867-0.861-21.867
					L269.875,234.871z"/>
				<path fill="#C97979" d="M296.376,404.318c-2.127,3.84-8.393,7.787-5.107,9.913c3.283,2.128,5.812,7.312,7.232,8.516
					c0.489,0.414,0.969,1.229,1.391,2.115c0.277-3.835-1.746-6.527-1.471-7.847c0.335-1.609-0.988-5.02,0.274-9.036
					s2.418-12.463,1.558-16.419c-0.859-3.956,1.599-27.16,1.599-27.16s0.837,7.936,0.496,13.42
					c-0.34,5.479,1.351,21.106,2.329,22.321c0.979,1.217-1.555,4.772-1.46,8.061c0.094,3.29,2.149,5.603,3.075,11.855
					c1.236,0.821,3.147,1.235,5.386,1.382l-0.053-0.241c0,0,7.224-2.457,5.099-4.408c-2.125-1.95-7.916-2.345-9.881-6.248
					c-1.964-3.902,1.736-4.203,1.984-5.701c0.605-3.668-2.547-11.262-2.943-13.388c-0.398-2.126,3.549-28.55,3.247-32.802
					c-0.304-4.252-0.911-7.592-0.911-7.592s2.304-0.912,2.822-2.431s-0.555-3.341-0.555-3.341s-1.66-11.032-1.965-15.387
					c-0.303-4.355,2.608-39.896,2.52-41.259c-0.09-1.363,4.467-11.058,7.807-13.195c3.341-2.14-2.659-1.005-3.607-0.661
					c-0.948,0.345,9.885-5.743,9.885-5.743s-10.743,2.719-19.141,0c-8.397-2.72-15.99-3.023-14.472-1.505
					c1.521,1.519,9.13,9,10.336,10.877c1.206,1.879-1.46,2.457-1.46,2.457s0.629,9.444,0.887,12.178
					c0.26,2.733,2.17,47.987,0,54.062c-2.17,6.072-10.76,29.837-9.957,36.025C292.122,389.328,298.501,400.478,296.376,404.318z"/>
				<path fill="#C97979" d="M271.694,327.962c0.109,7.977-1.171,45.519-0.702,53.225c0.47,7.707,3.623,16.719,3.21,19.715
					c-0.412,2.998-0.717,16.549-0.43,17.931s2.443,9.374,2.443,9.374s10.346-0.615,18.051-0.708
					c-4.373-0.995-17.011-3.924-17.969-4.752c-1.159-1.001,1.82-6.052,3.583-5.99c1.764,0.061,4.628-1.604,2.204-6.214
					s-9.863-21.008-9.381-31.925c0.483-10.917-0.097-41.487,0.83-50.304c0.925-8.815-2.542-41.959-2.542-41.959l1.713-4.503
					c0,0-0.317-6.438-0.829-7.065c-0.512-0.626-2.329-14.655-1.738-19.73c0.59-5.074,1.01-9.789,1.01-9.789
					s14.252,1.175,19.719,3.023c5.465,1.851,19.619,0.27,19.619,0.27l1.138-1.853l2.263,2.159
					c11.771,1.128,32.004-5.851,32.012-5.854c-0.305-2.872-0.612-4.742-0.612-4.742l-75.416-3.4l-3.996,15.83
					c0,0,0.15,13.97-0.27,16.718c-0.418,2.748,0.292,10.19,1.749,17.634C268.812,292.495,271.587,319.986,271.694,327.962z"/>
				<path fill="none" stroke="#000000" stroke-linecap="round" stroke-linejoin="round" stroke-miterlimit="10" d="M269.875,234.871
					l-3.997,15.83c0,0,0.15,13.97-0.27,16.718c-0.418,2.748,0.292,10.189,1.75,17.633c1.457,7.443,4.231,34.935,4.34,42.91
					c0.109,7.976-1.171,45.518-0.702,53.224c0.47,7.707,3.623,16.719,3.21,19.716c-0.412,2.998-0.717,16.548-0.43,17.931
					c0.288,1.382,2.443,9.373,2.443,9.373s16.141-0.961,23.115-0.661c1.84-5.277-1.248-8.92-0.914-10.529
					c0.336-1.608-0.987-5.02,0.275-9.035c1.262-4.018,2.418-12.464,1.559-16.42c-0.861-3.956,1.598-27.16,1.598-27.16
					s0.836,7.936,0.496,13.419c-0.34,5.481,1.351,21.108,2.33,22.323c0.979,1.216-1.556,4.771-1.461,8.061
					c0.094,3.289,2.148,5.603,3.075,11.855c5.831,3.873,26.583-1.256,26.583-1.256l-1.864-4.286c0,0-0.085-2.939-0.202-7.103
					c-0.121-4.162-3.639-5.432-2.921-6.447c0.717-1.016,0.907-3.012,1.854-4.708s-2.694-7.208-3.289-10.609
					c-0.594-3.401,2.199-27.493,4.095-30.781c1.896-3.29,1.314-6.256,0.903-11.966c-0.412-5.711,3.726-26.228,7.393-37.279
					c3.664-11.051,6.197-35.502,7.303-45.484c1.104-9.982-0.861-21.867-0.861-21.867L269.875,234.871z"/>
				<path fill="none" stroke="#000000" stroke-linecap="round" stroke-linejoin="round" stroke-miterlimit="10" d="M305.986,271.894
					c-0.092,2.927,0.582,11.854,0.828,18.128c0.244,6.275-1.105,31.196-1.59,34.384s-0.076,8.522-0.346,12.598
					c-0.27,4.074,0.428,4.036-0.734,10.592c-1.16,6.558-2.295,16.805-2.295,16.805"/>
				<path fill="none" stroke="#000000" stroke-linecap="round" stroke-linejoin="round" stroke-miterlimit="10" d="M315.241,271.894
					c-2.23,1.514-8.399,5.785-8.399,5.785"/>
				
					<path fill="#EFEFEF" stroke="#000000" stroke-width="1.0434" stroke-linecap="round" stroke-linejoin="round" stroke-miterlimit="10" d="
					M333.947,435.697c-7.947-0.239-11.066-3.19-12.404-5.085c-1.342-1.896-5.393-0.713-8.659-0.619s-7.444-2.003-7.444-2.003
					s0.176-3.026,0.95-4.581c1.335,1.814,11.991,2.809,14.005,3.803c2.014,0.993,5.524,3.614,8.361,3.497
					c2.839-0.118,8.381-1.613,11.082-1.457c2.703,0.156,4.435-0.81,4.968-1.708c0.985,1.822,0.97,5.322,0.97,5.322l-1.581,1.838
					C344.194,434.704,342.664,434.283,333.947,435.697z"/>
				<path fill="#CDCDCD" d="M321.542,430.612c0.656,0.931,1.748,2.115,3.629,3.11c-0.03-0.189-0.049-0.382-0.053-0.587
					c-0.021-1.547,0.604-2.096,1.473-2.769c-2.297-0.724-4.676-2.405-6.197-3.155c-2.016-0.994-12.67-1.988-14.005-3.803
					c-0.774,1.555-0.95,4.581-0.95,4.581s4.178,2.097,7.444,2.003S320.201,428.717,321.542,430.612z"/>
				
					<path fill="none" stroke="#000000" stroke-width="1.0434" stroke-linecap="round" stroke-linejoin="round" stroke-miterlimit="10" d="
					M333.947,435.697c-7.947-0.239-11.066-3.19-12.404-5.085c-1.342-1.896-5.393-0.713-8.659-0.619s-7.444-2.003-7.444-2.003
					s0.176-3.026,0.95-4.581c1.335,1.814,11.991,2.809,14.005,3.803c2.014,0.993,5.524,3.614,8.361,3.497
					c2.839-0.118,8.381-1.613,11.082-1.457c2.703,0.156,4.435-0.81,4.968-1.708c0.985,1.822,0.97,5.322,0.97,5.322l-1.581,1.838
					C344.194,434.704,342.664,434.283,333.947,435.697z"/>
				
					<path fill="#3B3B3B" stroke="#000000" stroke-width="1.0434" stroke-linecap="round" stroke-linejoin="round" stroke-miterlimit="10" d="
					M333.947,435.697c5.235-0.616,6.619-5.325,6.619-5.325s1.753,0.066,3.498-0.102c0.636,1.734,0.13,4.434,0.13,4.434
					S340.615,436.091,333.947,435.697z"/>
				<path fill="none" stroke="#000000" stroke-linecap="round" stroke-linejoin="round" stroke-miterlimit="10" d="M276.298,410.542
					c0.052-2.61-2.146-11.507-2.146-11.507"/>
				<path fill="none" stroke="#000000" stroke-linecap="round" stroke-linejoin="round" stroke-miterlimit="10" d="M322.414,408.714
					c-0.668-1.814,5.474-7.748,5.474-7.748"/>
				<path fill="none" stroke="#000000" stroke-linecap="round" stroke-linejoin="round" stroke-miterlimit="10" d="M306.841,404.317
					c0.391-0.574-1.963-3.69-1.963-3.69"/>
			</g>
			<g>
				<path fill="#B0B0B0" d="M277.457,81.319c0.549-10.471,2.516-11.846,14.391-23.986c11.514-11.77,29.721-1.388,31.896,0.148
					c2.176,1.534,1.499,5.838,1.499,5.838s2.287-0.516,4.386,0.812c8.791,5.565,12.785,21.533,4.026,33.088
					c-4.845,6.395-10.913,10.225-9.234,11.045c-1.14,2.22-7.562,5.373-9.771,6.107c-2.207,0.732-19.318,5.539-26.385-8.831
					c1.533-0.186-0.067-1.821-0.144-2.869C288.044,101.623,276.738,95.091,277.457,81.319z"/>
				<path fill="#9D9D9D" d="M288.119,102.675c0.078,1.051,1.68,2.684,0.145,2.871c7.066,14.369,24.178,9.562,26.385,8.83
					c2.209-0.735,8.631-3.887,9.771-6.109c-1.677-0.819,4.39-4.651,9.234-11.044c1.53-2.018,2.663-4.174,3.458-6.384
					c0.057-0.449,0.106-0.898,0.152-1.354c0.135-1.362,0.271-3.058-0.076-4.374c-0.329,2.027-1.334,3.864-1.807,5.842
					c0.012-1.722-0.132-3.614-0.654-5.039c0.209,2.079-1.789,4.239-3.475,5.104c-0.485,0.248-1.314,0.943-1.855,0.802
					c-0.73-0.19-0.805-1.328-0.681-1.953c0.153-0.758,0.571-1.323,0.476-2.269c-0.087-0.887-0.426-1.88-0.775-2.704
					c-0.605-1.43-1.52-2.723-2.445-3.923c-1.975-2.556-1.951-5.569-1.947-8.753c0.002-1.944-0.156-3.725,0.282-5.63
					c0.263-1.145,0.606-2.188,0.945-3.269c-0.002,0.001-0.009,0.003-0.009,0.003s0.646-4.149-1.395-5.75
					c0.093,0.955,0.32,1.967,0.251,2.887c-0.242-0.583-0.647-1.115-1.013-1.634c-0.322,0.674-0.143,1.263-0.754,1.827
					c-0.753,0.693-1.821,0.881-2.786,0.978c-2.683,0.271-5.763-0.39-8.313,0.563c-4.051,1.513-3.592,6.156-5.207,9.273
					c-0.691,1.328-2.156,1.502-3.057,2.528c-0.18-0.616,0.022-1.297,0.031-1.942c0.01-0.884-0.253-1.738-0.567-2.557
					c-0.569-1.486-1.517-3.366-2.704-4.406c0.01,1.901,0.916,3.816,0.521,5.813c-0.283,1.445-1.975,2.74-3.262,3.36
					c-3.001,1.444-7.42,1.681-10.217-0.254c-0.073,1.092-0.041,2.089,0.336,3.089c0.5,1.324,1.604,2.628,1.969,3.935
					c-1.088-0.189-2.459-1.084-3.058-2.029c0.159,0.641,0.573,1.332,0.989,1.871c0.344,0.444,1.055,0.85,1.317,1.316
					c0.622,1.107-0.454,2.235-1.291,2.792c-0.847,0.563-1.767,0.916-2.183,1.951c-0.555,1.384,0.393,2.689,0.595,3.994
					c-1.442-0.093-2.761-2.391-3.661-3.366c0.225,1.066,0.788,2.523,1.398,3.41c0.004,0.006-2.603-0.1-2.872-0.137
					c-0.652-0.091-1.05-0.146-1.288,0.019C281.992,98.191,288.065,101.903,288.119,102.675z"/>
				<path fill="none" stroke="#000000" stroke-miterlimit="10" d="M277.457,81.319c0.549-10.471,2.516-11.846,14.391-23.986
					c11.514-11.77,29.721-1.388,31.896,0.148c2.176,1.534,1.499,5.838,1.499,5.838s2.287-0.516,4.386,0.812
					c8.791,5.565,12.785,21.533,4.026,33.088c-4.845,6.395-10.913,10.225-9.234,11.045c-1.14,2.22-7.562,5.373-9.771,6.107
					c-2.207,0.732-19.318,5.539-26.385-8.831c1.533-0.186-0.067-1.821-0.144-2.869C288.044,101.623,276.738,95.091,277.457,81.319z"
					/>
				<path fill="#DDBDB2" stroke="#000000" stroke-width="0.9394" stroke-miterlimit="10" d="M290.349,86.594
					c-2.37,2.062-1.617,1.304-3.638,1.591c0.156,2.107,2.401,7.89,3.26,8.62c0.858,0.729,1.876,0.276,1.876,0.276"/>
				<path fill="#DDBDB2" stroke="#000000" stroke-width="0.9394" stroke-miterlimit="10" d="M325.615,87.655
					c2.371,2.061,1.619,1.304,3.639,1.59c-0.156,2.108-2.401,7.892-3.26,8.62c-0.859,0.729-1.876,0.277-1.876,0.277"/>
				<path fill="#E7D1C9" d="M288.052,120.548c0,0,0.338,16.146,10.438,24.083c10.102,7.938,26.051-1.419,27.713-3.724
					c1.66-2.305,0.744-17.898-3.836-21.418c-5.191-3.478-3.613-8.967-1.67-11.117c1.943-2.149,3.096-5.941,3.646-8.263
					c0.388-1.639,1.384-7.673,1.94-11.099c-0.316,0.014-0.393-0.467-0.332-1.215c0.098-1.189-0.025-4.557-1.979-7.692
					c-1.697-2.729-1.674-9.292-1.639-10.956c-0.142-0.207-0.29-0.415-0.444-0.617c-1.825-0.884-8.766-4.001-12.868-2.424
					c-4.756,1.829-2.82,5.473-5.9,8.128c0.297-2.201-0.792-4.817-1.428-5.667c0.603,3.93-3.677,12.133-11.439,11.238
					c-0.211,2.566-1.121,8.426-1.124,8.446c0.003,0.616,0.017,1.228,0.044,1.825c0.348,7.322,3.49,14.097,3.965,15.884
					c0.479,1.789,1.307,3.408-0.49,7.386C290.847,117.322,288.052,120.548,288.052,120.548z"/>
				<path fill="#DDBDB1" d="M312.703,85.097c1.284-0.119,1.869-1.248,3.214-1.073c1.804,0.238,3.685,2.509,5.537,1.7
					c1.847-0.808,0.806-2.538-0.291-3.552c-1.396-1.29-3.151-1.601-5.001-1.54c-1.656,0.057-3.391,0.535-4.6,1.785
					c-0.44,0.453-0.996,1.453-0.648,2.146c0.44,0.877,1.238-0.002,1.936,0.016c-0.235,0.306-0.53,0.512-0.58,0.863
					c0.347,0.041,0.643-0.124,0.79-0.434"/>
				<path fill="#DDBDB1" d="M299.363,120.802c5.371-0.993,10.667-2.427,15.848,0.239c1.658,0.854,5.422,1.655,5.502-1.216
					c0.023-0.87-0.24-1.662-0.574-2.442c-0.878-1.222-1.238-2.536-1.271-3.797c-0.001-0.026-0.008-0.052-0.01-0.079
					c0-0.014,0.002-0.029,0.002-0.045c0-0.053,0.004-0.107,0.004-0.161c0.003-0.2,0.01-0.4,0.028-0.601
					c0.004-0.04,0.011-0.078,0.014-0.115c0.14-1.338,0.622-2.677,1.421-3.75c0.121-0.166,0.246-0.32,0.371-0.46
					c0.252-0.278,0.488-0.586,0.713-0.913c0.053-0.072,0.097-0.156,0.148-0.233c0.171-0.262,0.34-0.529,0.496-0.812
					c0.037-0.066,0.068-0.14,0.105-0.206c0.163-0.308,0.321-0.621,0.469-0.943c0.017-0.035,0.029-0.069,0.045-0.104
					c0.164-0.361,0.316-0.728,0.458-1.096c-0.451,0.166-0.606,0.969-0.829,1.448c-0.512,1.092-1.384,2.088-2.171,2.989
					c-0.696,0.801-2.204,3.214-3.528,2.993c-1.137-0.191-0.707-2.613-0.643-3.609c0.111-1.756,0.141-3.486,0.219-5.236
					c-0.305,1.58-0.709,2.889-1.289,4.38c-0.479,1.233-1.094,2.438-2.082,3.424c-1.288,1.285-3.971,2.546-5.849,2.274
					c-1.831-0.264-3.47-1.744-4.671-3.039c-1.338-1.441-2.109-3.062-3.037-4.771c-0.902-1.664-1.746-3.52-1.391-5.459
					c0.506-2.768,3.305-3.778,5.746-3.914c0.189-0.726-0.523-1.201-0.752-1.844c-0.26-0.732-0.143-1.092,0.186-1.77
					c0.498-1.032,1.046-2.054,1.509-3.156c0.531-1.264,0.89-2.185,0.487-3.526c-0.52-1.738,0.592-2.023,1.361-3.437
					c-0.71-0.428-1.357-0.313-2.126-0.274c-0.954,0.049-1.972-0.232-2.899-0.442c-0.854-0.193-1.694-0.19-2.57-0.158
					c-0.611,0.023-1.248,0.07-1.832,0.244c-0.914,0.272-1.988,0.502-2.771,1.068c-0.67,0.486-0.579,1.284-0.357,2.024
					c0.195,0.644,0.657,0.572,1.223,0.601c-0.03,0.354-0.317,0.623-0.161,0.996c0.137,0.329,0.346,0.396,0.633,0.246
					c0.756-0.39,0.835-1.267,1.341-1.87c0.813-0.972,2.176-0.878,3.339-0.843c0.75,0.025,1.336,0.223,1.979,0.592
					c1.036,0.599,2.082,1.454,2.076,2.742c-0.004,0.817-0.285,1.49-0.625,2.233c-1.025,2.245-2.375,4.419-4.109,6.197
					c-2.568,2.631-6.149,1.819-7.711-1.47c-1.094-2.301-1.577-5.605-0.861-8.096c0.354-1.227,0.674-2.653,1.695-3.512
					c0.939-0.789,2.311-1.09,3.418-1.576c1.85-0.812,3.129-2.286,4.127-3.974c0.686-1.156,0.953-2.423,1.256-3.755
					c0.209-0.916,0.581-2.008,0.488-2.953c-0.036-0.366-0.093-0.597-0.207-0.743c0.183,4.088-4.053,11.57-11.486,10.716
					c-0.212,2.565-1.121,8.426-1.125,8.445c0.002,0.616,0.016,1.227,0.045,1.824c0.346,7.323,3.488,14.097,3.965,15.884
					c0.328,1.233,0.823,2.388,0.512,4.286c-0.103,1.06-0.572,2.146-1.004,3.1c-0.699,1.541-1.546,2.969-2.32,4.141
					c-0.072,0.248-0.121,0.491-0.11,0.715c0.021,0.436,0.198,0.841,0.464,1.198c0.453,0.614,1.163,1.093,1.789,1.346
					C294.579,121.596,297.194,121.2,299.363,120.802z"/>
				<path fill="#DDBDB1" d="M312.007,94.81c-0.203,0.639-4.553,3.483-5.455,3.528c-0.998,0.052-1.594-0.985-2.242-1.604
					c-0.574-0.545-2.008-1.315-1.82-2.244c0.217-1.076,1.199-0.175,1.924,0.082c0.811,0.289,1.796,0.385,2.673,0.345
					c1.753-0.08,3.571-1.053,5.331-0.839c0.04,0.559-0.353,1.321-0.945,1.374"/>
				<path fill="none" stroke="#000000" stroke-linecap="round" stroke-linejoin="round" stroke-miterlimit="10" d="M288.052,120.548
					c0,0,0.338,16.146,10.438,24.083c10.102,7.938,26.051-1.419,27.713-3.724c1.66-2.305,0.744-17.898-3.836-21.418
					c-5.191-3.478-3.613-8.967-1.67-11.117c1.943-2.149,3.096-5.941,3.646-8.263c0.388-1.639,1.384-7.673,1.94-11.099
					c-0.316,0.014-0.393-0.467-0.332-1.215c0.098-1.189-0.025-4.557-1.979-7.692c-1.697-2.729-1.674-9.292-1.639-10.956
					c-0.142-0.207-0.29-0.415-0.444-0.617c-1.825-0.884-8.766-4.001-12.868-2.424c-4.756,1.829-2.82,5.473-5.9,8.128
					c0.297-2.201-0.792-4.817-1.428-5.667c0.603,3.93-3.677,12.133-11.439,11.238c-0.211,2.566-1.121,8.426-1.124,8.446
					c0.003,0.616,0.017,1.228,0.044,1.825c0.348,7.322,3.49,14.097,3.965,15.884c0.479,1.789,1.307,3.408-0.49,7.386
					C290.847,117.322,288.052,120.548,288.052,120.548z"/>
				<path fill="#D19C95" stroke="#000000" stroke-miterlimit="10" d="M307.231,104.833c-4.674,0.109-8.144-4.771-8.144-4.771
					s3.01-0.771,4.18-0.801c1.168-0.025,2.236,0.12,3.369,0.374c1.133,0.253,1.099-0.247,2.535-0.404
					c1.438-0.157,5.543,1.11,5.543,1.11S311.904,104.722,307.231,104.833z"/>
				<path fill="#FFFFFF" stroke="#000000" stroke-miterlimit="10" d="M308.715,100.104c-1.378,0.326-2.88,0.177-4.175,0.044
					c-1.295-0.136-4.219,0.435-4.219,0.435s2.708,2.576,6.797,2.664c4.088,0.086,6.445-2.463,6.445-2.463
					C311.784,100.232,310.089,99.78,308.715,100.104z"/>
				<path fill="none" stroke="#000000" stroke-linecap="round" stroke-linejoin="round" stroke-miterlimit="10" d="M311.345,95.055
					c1.58-1.007,0.18-2.124,0.18-2.124"/>
				<path fill="none" stroke="#000000" stroke-linecap="round" stroke-linejoin="round" stroke-miterlimit="10" d="M303.3,95.629
					c-1.918-1.31-0.418-2.965-0.418-2.965"/>
				<path fill="none" stroke="#000000" stroke-linecap="round" stroke-linejoin="round" stroke-miterlimit="10" d="M305.402,95.684
					c-0.572-0.786-1.924-0.93-1.924-0.93"/>
				<path fill="none" stroke="#000000" stroke-linecap="round" stroke-linejoin="round" stroke-miterlimit="10" d="M308.541,95.769
					c0.457-0.821,1.685-0.911,1.685-0.911"/>
				<path fill="#FFFFFF" d="M296.75,85.83c3.708-3.497,5.917,0.47,5.917,0.47S298.521,87.208,296.75,85.83z"/>
				
					<path fill="#9D9D9D" stroke="#000000" stroke-width="0.75" stroke-linecap="round" stroke-linejoin="round" stroke-miterlimit="10" d="
					M293.394,81.892c2.83-2.427,7.262-0.804,7.7-0.572c0.436,0.229,1.665-0.32,1.665-0.32
					C297.898,79.186,294.185,80.483,293.394,81.892z"/>
				<path fill="none" stroke="#000000" stroke-linecap="round" stroke-linejoin="round" stroke-miterlimit="10" d="M295.421,86.592
					c0.547,0.038,1.329-0.763,1.329-0.763"/>
				
					<path fill="none" stroke="#000000" stroke-width="0.75" stroke-linecap="round" stroke-linejoin="round" stroke-miterlimit="10" d="
					M302.945,85.278c-3.285-4.166-7.008-0.111-7.008-0.111"/>
				<path fill="#5E7496" d="M298.382,86.476c0.771,0.139,1.614,0.137,2.347,0.085c0.255-0.278,0.401-0.646,0.373-1.041
					c-0.028-0.401-0.231-0.749-0.532-0.989c-0.574-0.187-1.262-0.203-2.049,0.111c-0.287,0.283-0.459,0.671-0.43,1.093
					C298.112,86.015,298.218,86.267,298.382,86.476z"/>
				
					<circle fill="#141414" stroke="#000000" stroke-width="0.75" stroke-linecap="round" stroke-linejoin="round" stroke-miterlimit="10" cx="299.589" cy="85.518" r="0.497"/>
				<path fill="#FFFFFF" d="M318.521,85.458c-3.732-3.472-5.914,0.514-5.914,0.514S316.761,86.849,318.521,85.458z"/>
				<path fill="#5E7496" d="M316.895,86.117c-0.772,0.143-1.614,0.147-2.348,0.101c-0.259-0.273-0.405-0.644-0.38-1.039
					c0.025-0.399,0.226-0.749,0.524-0.99c0.573-0.191,1.261-0.213,2.05,0.095c0.291,0.282,0.464,0.668,0.438,1.09
					C317.162,85.653,317.056,85.905,316.895,86.117z"/>
				<path fill="none" stroke="#000000" stroke-linecap="round" stroke-linejoin="round" stroke-miterlimit="10" d="M318.521,85.458
					c-3.732-3.472-5.914,0.514-5.914,0.514"/>
				
					<path fill="#9D9D9D" stroke="#000000" stroke-width="0.75" stroke-linecap="round" stroke-linejoin="round" stroke-miterlimit="10" d="
					M321.753,82.376c-2.453-2.809-7.074-1.835-7.539-1.67c-0.464,0.166-1.604-0.555-1.604-0.555
					C317.683,79.053,321.171,80.87,321.753,82.376z"/>
				<path fill="none" stroke="#000000" stroke-linecap="round" stroke-linejoin="round" stroke-miterlimit="10" d="M319.851,86.013
					c-0.548,0.041-1.33-0.555-1.33-0.555"/>
				
					<path fill="none" stroke="#000000" stroke-width="0.75" stroke-linecap="round" stroke-linejoin="round" stroke-miterlimit="10" d="
					M312.322,84.95c3.257-4.188,7.008-0.161,7.008-0.161"/>
				
					<circle fill="#141414" stroke="#000000" stroke-width="0.75" stroke-linecap="round" stroke-linejoin="round" stroke-miterlimit="10" cx="315.68" cy="85.164" r="0.497"/>
				<path fill="none" stroke="#000000" stroke-linecap="round" stroke-linejoin="round" stroke-miterlimit="10" d="M315.51,104.249
					c0,0,1.136-4.094,1.024-4.56c-0.109-0.466-1.867-2.767-1.867-2.767"/>
				<path fill="none" stroke="#000000" stroke-linecap="round" stroke-linejoin="round" stroke-miterlimit="10" d="M298.246,103.92
					c0,0-1.156-3.855-1.098-4.669c0.057-0.813,1.835-1.95,1.973-1.96"/>
				<path fill="none" stroke="#000000" stroke-linecap="round" stroke-linejoin="round" stroke-miterlimit="10" d="M301.319,110.443
					c7.317,8.188,13.163-0.021,13.163-0.021"/>
				<path fill="none" stroke="#000000" stroke-linecap="round" stroke-linejoin="round" stroke-miterlimit="10" d="M298.384,112.706
					c-2.969-2.571-5.17-6.443-5.17-6.443"/>
				<path fill="none" stroke="#000000" stroke-linecap="round" stroke-linejoin="round" stroke-miterlimit="10" d="M313.453,113.976
					c2.826-0.773,6.182-4.255,6.182-4.255"/>
				
					<path fill="#9D9D9D" stroke="#000000" stroke-width="0.9394" stroke-linecap="round" stroke-linejoin="round" stroke-miterlimit="10" d="
					M289.127,70.108c-0.796,3.753-2.72,3.979-2.72,3.979c0,6.281,3.846,5.719,3.846,5.719"/>
				
					<path fill="#9D9D9D" stroke="#000000" stroke-width="0.9394" stroke-linecap="round" stroke-linejoin="round" stroke-miterlimit="10" d="
					M323.367,66.576c0.168-1.197,1.876-3.257,1.876-3.257"/>
				<path fill="#C7C7C7" d="M332.185,73.203c-0.092-0.829-0.533-1.69-0.723-2.529c1.066,0.926,2.158,1.739,2.834,3.021
					c-0.17-0.801-0.105-1.528-0.473-2.318c-1.165-2.51-3.715-6.584-6.961-6.024c-2.404,0.413-1.74,2.913-0.523,4.258
					C327.941,71.382,330.345,71.81,332.185,73.203z"/>
				<path fill="#C7C7C7" d="M293.781,62.131c0.742,2.167-0.963,6.256-0.963,6.256s0.715-2.044-0.338-3.438
					c0.248,1.64-0.633,5.421-2.644,6.659c0.95-1.425,0.419-3.406,0.176-7.619c-0.28-4.863,8.063-9.588,8.063-9.588
					C295.632,56.195,293.038,59.962,293.781,62.131z"/>
				<path fill="#EDDDD7" d="M314.224,70.206c0.158,1.465,1.014,2.959,1.808,4.167c0.571,0.872,1.692,2.544,2.931,2.473
					c2.286-0.13,1.23-5.015,0.768-6.214C318.984,68.696,313.856,66.759,314.224,70.206z"/>
				<path fill="#EDDDD7" d="M318.533,87.806c-0.617,0.115-1.83,0.444-2.086,1.07c-0.234,0.57,0.199,1.078,0.626,1.388
					c1.155,0.839,2.731,0.542,3.795,1.544c0.493,0.467,0.794,1.111,1.549,0.797c0.593-0.246,0.973-0.922,0.908-1.534
					C323.078,88.733,320.732,87.392,318.533,87.806z"/>
				<circle fill="#FFFFFF" cx="314.675" cy="85.095" r="0.234"/>
				<circle fill="#FFFFFF" cx="298.631" cy="85.329" r="0.233"/>
				<g>
					<g>
						<path fill="#FFFFFF" stroke="#000000" stroke-linecap="round" stroke-linejoin="round" stroke-miterlimit="10" d="
							M327.425,169.722c-0.404,1.423-6.066,52.104-6.028,52.77c0.039,0.666-12.796-0.522-12.796-0.522l-6.118-16.588l-8.949-50.582
							c0,0,1.897-15.802,4.966-19.89c11.561,5.031,21.322,0.279,21.322,0.279S327.83,168.299,327.425,169.722z"/>
						<path fill="#CFD4D4" d="M332.148,153.958c2.125,8.594,0.414,16.58-2.504,24.709c-3.533,9.837-5.994,20.146-9.977,29.797
							c-1.703,4.127-4.141,11.336-9.213,12.437c-4.201,0.912-8.733-2.363-10.524-5.899c-4.343-8.568-4.81-18.727-7.468-27.839
							c-2.965-10.159-4.916-21.108-4.053-31.731c0.531-6.572,3.198-12.502,6.312-18.168c0.857-1.559,1.625-4.398,3.686-2.739
							c0.912,0.733,1.615,3.166,1.872,4.265c0.803,3.43-2.843,6.275-4.17,9.357c-2.112,4.904-4.261,12.41-2.888,17.672
							c1.736,6.656,5.943,8.564,12.428,9.299c3.65,0.412,7.139,0.904,10.902,0.725c3.65-0.176,6.562-2.228,8.257-5.565
							c1.567-3.088,0.409-7.154-0.682-10.173c-1.811-5.008-3.979-10.081-4.851-15.354c-0.273-1.65-0.333-3.548,0.006-5.184
							c0.391-1.894,1.072-5.369,3.383-4.204c1.693,0.854,2.609,3.344,3.684,4.776c1.424,1.9,2.48,3.856,3.26,6.131
							C330.464,148.764,331.519,151.397,332.148,153.958z"/>
					</g>
					<g>
						<g>
							<g>
								<g>
									<path fill="#88A9B1" d="M244.335,232.483c-8.304,1.026-13.455-5.453-13.455-5.453c0.155-0.25,2.963-9.957,3.291-18.021
										c0.327-8.072,3.915-25.49,5.482-28.416c1.566-2.927,3.933-6.911,4.363-8.735s4.63-14.63,6.781-20.98
										c2.151-6.343,7.315-17.212,9.57-18.821s18.322-7.642,21.136-8.468c2.822-0.834,6.661-4.811,6.661-4.811l11.016,13.95
										c0,0-3.383,23.063-2.307,29.775c1.075,6.722,11.367,14.363,11.102,17.573c-0.268,3.201,0.938,7.908,0.973,9.208
										c0.043,1.3,4.535,19.329,4.535,19.329s0.98,25.859-0.104,28.769c-1.076,2.908-2.591,7.874-2.591,7.874
										s-35.095-1.127-41.54-2.84c0,0,0.714-8.312,0.878-10.921c0.155-2.616,1.075-12.021,1.024-13.847
										c-0.052-1.815,0.094-5.025-0.207-7.091c-0.293-2.057-1.506-10.232-0.224-11.608c0.181-0.19,0.327-0.552,0.447-1.043
										c0.767-2.959,0.595-10.566,0.714-13.502c0.139-3.407-1.669-13.58-1.101-18.459c0.112-0.98,0.292-2.539,0.507-4.414
										c0,0-3.252,8.063-6.195,10.49c-2.952,2.435-3.923,6.694-5.231,10.938c-1.317,4.234-4.69,7.986-5.061,11.17
										c-0.379,3.185-4.501,18.356-6.179,24.906c-1.385,5.378-4.63,10.813-4.286,13.438V232.483z M282.992,217.366
										c0,0-0.93-1.18-3.598-1.645c-0.293,6.473-6.688,19.054-6.688,19.054s0.113,1.377,3.606,1.799
										C280.117,232.417,282.992,217.366,282.992,217.366z"/>
									<path fill="#88A9B1" d="M279.394,215.722c2.668,0.465,3.598,1.645,3.598,1.645s-2.875,15.051-6.679,19.208
										c-3.493-0.422-3.606-1.799-3.606-1.799S279.101,222.194,279.394,215.722z"/>
								</g>
								<path fill="#5E8B96" d="M272.707,234.775c0,0,0.153-0.3,0.41-0.828c0.192-0.842,0.39-1.618,0.588-2.277
									c1.29-4.303,0.859-24.096,3.872-21.944c3.012,2.151,7.314,4.303,6.454,0.86c-0.861-3.442-12.908-8.175-2.151-10.757
									s16.781-8.605,19.793-14.63c3.013-6.024-19.362,1.291-23.665-4.303s-2.51-12.695-3.622-39.479
									c-0.134-3.205-2.748-7.56-2.978-3.207c-0.229,4.352-1.833,14.89-1.833,18.783s-4.352-13.516-3.894-8.018
									c0.458,5.498,0,9.851,0.688,13.286s-2.291,5.726-3.665,8.704c-1.374,2.979-4.123,6.873-4.352,9.851s-6.872,6.644-5.04,8.934
									s-0.917,7.329-1.604,11.682s-6.414,21.762-8.017,22.22s1.604,7.788-6.872,6.872c-0.755-0.082-1.469-0.18-2.162-0.283
									c2.319,1.451,5.619,2.744,9.678,2.243v-0.009c-0.344-2.625,2.9-8.061,4.286-13.438c1.678-6.55,5.8-21.722,6.179-24.906
									c0.37-3.184,3.744-6.936,5.061-11.17c1.308-4.243,2.279-8.503,5.231-10.938c2.943-2.427,6.195-10.49,6.195-10.49
									c-0.215,1.875-0.395,3.434-0.507,4.414c-0.568,4.879,1.239,15.052,1.101,18.459c-0.119,2.936,0.053,10.543-0.714,13.502
									c-0.12,0.491-0.266,0.853-0.447,1.043c-1.282,1.376-0.069,9.552,0.224,11.608c0.3,2.065,0.155,5.275,0.207,7.091
									c0.051,1.825-0.87,11.23-1.024,13.847c-0.164,2.608-0.878,10.921-0.878,10.921c0.553,0.147,1.32,0.289,2.254,0.428
									c0.312-2.051,0.803-5.064,1.356-7.71C272.721,234.923,272.707,234.775,272.707,234.775z"/>
								<g>
									<path fill="#5E8B96" d="M296.907,135.657c0.494-0.787,1.484-1.475,1.892-2.232c0.815-1.516-1.406-2.146-2.598-2.854
										c-1.168-0.694-2.615-0.871-3.914-1.182c-2.104-0.504-3.043-0.913-3.982,1.157c-0.847,1.864-0.557,3.691-0.371,5.7
										c0.238,2.578,1.943,8.141,1.943,8.141s4.676-4.452,5.71-6.355C296.018,137.236,296.423,136.424,296.907,135.657z"/>
									<path fill="#96B3BA" d="M281.316,125.812c-2.021,0.787-4.249,0.793-6.24,1.736c-2.311,1.094-4.521,2.438-6.421,4.157
										c-1.179,1.065-3.815,3.177-3.549,5.017c1.167-0.581,2.228-0.946,3.557-1.184c0.853-0.154,1.575-0.296,2.43-0.096
										c0.577,0.133,1.175,0.636,1.761,0.686c2.323,0.197,4.931-3.264,6.834-4.395c1.377-0.817,2.768-1.553,4.301-2.004
										c0.454-0.135,1.211-0.138,1.51-0.574c0.309-0.451,0.166-2.198,0.227-2.763c0.104-0.967,0.176-1.915,0.128-2.884
										C284.173,123.236,282.781,125.243,281.316,125.812z"/>
								</g>
							</g>
							<g>
								<path fill="none" stroke="#000000" stroke-linecap="round" stroke-linejoin="round" stroke-miterlimit="10" d="
									M273.535,141.841c0,0-2.186,19.235-2.755,24.109c-0.572,4.875,1.236,15.045,1.097,18.459s0.115,13.159-1.162,14.539
									c-1.276,1.382-0.069,9.555,0.227,11.616c0.297,2.061,0.152,5.269,0.205,7.089c0.053,1.819-0.863,11.232-1.026,13.842
									c-0.162,2.612-0.871,10.923-0.871,10.923c6.444,1.71,41.534,2.837,41.534,2.837s1.518-4.961,2.596-7.87
									c1.081-2.909,0.102-28.765,0.102-28.765s-4.496-18.03-4.533-19.332c-0.038-1.303-1.238-6.005-0.973-9.211
									c0.262-3.205-10.024-10.847-11.102-17.568c-1.076-6.72,2.307-29.781,2.307-29.781l-11.019-13.947
									c0,0-3.839,3.979-6.657,4.808c-2.819,0.83-18.879,6.857-21.139,8.471c-2.259,1.613-7.422,12.479-9.574,18.825
									s-6.347,19.147-6.777,20.977c-0.431,1.828-2.797,5.809-4.364,8.735c-1.566,2.926-5.153,20.345-5.479,28.413
									c-0.326,8.068-3.133,17.77-3.293,18.023c0,0,5.255,6.596,13.463,5.451l-0.004-0.004c-0.349-2.625,2.896-8.061,4.279-13.439
									c1.685-6.556,5.807-21.727,6.181-24.91c0.375-3.185,3.746-6.931,5.057-11.17c1.311-4.24,2.287-8.498,5.232-10.933
									c2.946-2.435,6.202-10.492,6.202-10.492"/>
								<path fill="none" stroke="#000000" stroke-linecap="round" stroke-linejoin="round" stroke-miterlimit="10" d="
									M279.388,215.72c-0.289,6.476-6.683,19.061-6.683,19.061s0.108,1.376,3.604,1.791c3.805-4.151,6.684-19.201,6.684-19.201
									S282.062,216.191,279.388,215.72z"/>
								<path fill="none" stroke="#000000" stroke-linecap="round" stroke-linejoin="round" stroke-miterlimit="10" d="
									M277.85,204.812c-0.522-1.757-6.702-6.921-6.702-6.921"/>
								<path fill="none" stroke="#000000" stroke-linecap="round" stroke-linejoin="round" stroke-miterlimit="10" d="
									M279.49,187.123c-9.616-5.807-8.212-10.341-8.212-10.341"/>
							</g>
							<g>
								
									<path fill="#88A9B1" stroke="#000000" stroke-width="0.9394" stroke-linecap="round" stroke-linejoin="round" stroke-miterlimit="10" d="
									M299.179,132.729c0,0-7.568,3.037-10.828,8.365c-2.145-5.242-3.877-20.614-3.877-20.614s3.447-4.677,4.209-4.632
									c0.761,0.047,2.189,0.79,2.189,0.79C289.556,121.774,299.179,132.729,299.179,132.729z"/>
								<path fill="#96B3BA" d="M291.687,124.069c-0.9-2.151-1.771-4.309-2.858-6.374c-2.583,0.8,0.316,6.642,0.714,8.11
									c0.387,1.429,1.41,5.232,3.159,5.682c0.655,0.168,1.87-0.246,2.565-0.348c-0.191-0.693-0.877-1.359-1.262-2.011
									C293.115,127.626,292.367,125.694,291.687,124.069z"/>
							</g>
						</g>
						<g>
							<g>
								<path fill="#88A9B1" d="M345.428,234.772c0,0-0.112,1.377-3.606,1.799c-3.803-4.156-6.687-19.208-6.687-19.208
									s0.93-1.179,3.606-1.644C339.035,222.191,345.428,234.772,345.428,234.772z"/>
								<path fill="#88A9B1" d="M345.428,234.772c0,0-6.394-12.581-6.687-19.053c-2.677,0.465-3.606,1.644-3.606,1.644
									s2.884,15.052,6.687,19.208C345.316,236.149,345.428,234.772,345.428,234.772z M344.817,225.978
									c0.044,1.352,2.272,13.262,2.272,13.262c-6.996,4.226-26.377,5.258-34.053,5.946c-0.896-2.341-2.17-21.962-0.826-28.812
									c1.342-6.852,3.666-25.043,3.52-27.814c-0.146-2.771,4.432-10.945,7.297-19.664c2.875-8.718-3.889-36.531-3.889-36.531
									l3.975-11.644c0,0,17.074,6.867,24.828,11.506c3.898,2.144,4.63,5.267,6.549,8.641c1.928,3.364,5.224,26.815,5.758,30.446
									c0.541,3.641,9.165,22.642,11.592,27.496c2.426,4.845,13.469,30.585,13.469,30.585c-0.217,0.421-0.449,0.826-0.697,1.196
									c-2.504,3.742-6.791,5.206-8.926,5.723v0.008c-0.791,0.189-1.291,0.25-1.291,0.25s-3.363-9.604-8.08-13.881
									c-4.716-4.277-11.858-17.152-15.232-22.607c-3.312-5.387-6.324-19.26-6.42-19.672c-0.559,3.897-1.23,8.184-1.29,9.345
									c-0.061,1.05-0.155,2.28-0.155,3.407c0,1.076,0.095,2.058,0.422,2.66c0.482,0.887,0.129,2.556,0.061,4.26
									c-0.025,0.653-0.009,1.309,0.12,1.928c0.456,2.221,1.454,15.018,0.774,16.213
									C343.922,219.429,344.783,224.618,344.817,225.978z"/>
							</g>
							<g>
								<path fill="#96B3BA" d="M342.208,130.038c-2.546-0.732-5.233-1.815-7.627-2.953c-0.319-0.151-2.498-1.495-2.831-1.152
									c-0.34,0.35,0.378,1.306,0.504,1.637c0.739,1.938,2.145,2.651,3.617,4.079c1.92,1.866,3.32,3.585,4.248,6.106
									c1.211,3.291,4.299,1.768,6.98,1.767c0.787,0,1.607-0.061,2.346,0.17c1.117,0.351,1.823,1.46,3.002,1.668
									c0.162-1.613-1.049-3.323-1.814-4.636C348.748,133.494,345.885,131.099,342.208,130.038z"/>
								<path fill="#5E8B96" d="M330.214,134.058c-0.76-2.502-3.965-2.158-6.229-2.458c-1.223-0.163-2.988-0.292-3.988,0.602
									c-1.057,0.944,0.586,2.862,1.256,3.835c1.154,1.679,2.414,3.098,4.002,4.403c1.225,1.005,4.18,4.23,5.873,3.93
									c0.517-1.287,0.166-3.526,0.02-4.88C330.953,137.684,330.746,135.798,330.214,134.058z"/>
							</g>
							<path fill="#5E8B96" d="M344.662,180.411c0.096,0.412,3.107,14.285,6.42,19.672c3.374,5.455,10.517,18.33,15.232,22.607
								c4.717,4.277,8.08,13.881,8.08,13.881s0.5-0.061,1.291-0.25v-0.008c1.986-0.48,5.832-1.783,8.375-4.977
								c-1.23,0.232-2.566,0.439-4.027,0.598c-8.602,0.929-5.346-6.511-6.975-6.976c-1.627-0.465-7.439-18.135-8.137-22.553
								s-3.488-9.532-1.628-11.856s-4.882-6.045-5.114-9.066c-0.232-3.023-3.023-6.976-4.418-9.999
								c-1.396-3.022-4.418-5.348-3.72-8.835c0.696-3.486,0.231-7.904,0.697-13.484s-3.952,12.09-3.952,8.138
								s-1.627-14.648-1.86-19.065c-0.233-4.418-2.887,0.002-3.022,3.255c-1.129,27.187,0.691,34.394-3.676,40.071
								c-3.055,3.973-15.082,1.535-20.988,1.804c-0.944,2.324-1.564,4.143-1.51,5.189c3.401,5.173,9.219,9.979,18.568,12.223
								c10.918,2.621-1.311,7.425-2.184,10.919c-0.874,3.493,3.494,1.311,6.551-0.873c2.215-1.583,2.596,8.529,3.137,15.881
								c1.762,4.396,3.626,8.066,3.626,8.066s-0.08,0.93-2.048,1.495c0.296,1.382,0.576,2.882,0.824,4.31
								c1.1-0.407,2.077-0.851,2.885-1.338c0,0-2.229-11.91-2.272-13.262c-0.034-1.359-0.895-6.549-0.224-7.754
								c0.68-1.195-0.318-13.992-0.774-16.213c-0.129-0.619-0.146-1.274-0.12-1.928c0.068-1.704,0.422-3.373-0.061-4.26
								c-0.327-0.603-0.422-1.584-0.422-2.66c0-1.127,0.095-2.357,0.155-3.407C343.431,188.595,344.103,184.309,344.662,180.411z"/>
							<g>
								<path fill="none" stroke="#000000" stroke-linecap="round" stroke-linejoin="round" stroke-miterlimit="10" d="
									M338.74,215.72c0.29,6.476,6.684,19.061,6.684,19.061s-0.109,1.376-3.605,1.791c-3.803-4.151-6.684-19.201-6.684-19.201
									S336.066,216.191,338.74,215.72z"/>
								<path fill="none" stroke="#000000" stroke-linecap="round" stroke-linejoin="round" stroke-miterlimit="10" d="
									M339.054,204.136c1.863-1.315,4.643-4.051,4.643-4.051"/>
								<path fill="none" stroke="#000000" stroke-linecap="round" stroke-linejoin="round" stroke-miterlimit="10" d="
									M338.086,192.624c0.671-0.302,5.126,0.546,5.126,0.546"/>
								<path fill="none" stroke="#000000" stroke-linecap="round" stroke-linejoin="round" stroke-miterlimit="10" d="
									M335.134,184.409c4.16,0,10.018-7.627,10.018-7.627"/>
								<path fill="none" stroke="#000000" stroke-linecap="round" stroke-linejoin="round" stroke-miterlimit="10" d="
									M346.482,147.608c-0.162,2.561-1.124,23.842-1.06,26.069c0.064,2.229-1.938,14.029-2.05,16.08
									c-0.113,2.05-0.4,4.834,0.267,6.066c0.667,1.233-0.282,3.968,0.177,6.191c0.457,2.223,1.455,15.014,0.779,16.217
									s0.182,6.39,0.221,7.747c0.04,1.355,2.275,13.263,2.275,13.263l0.002,0.002c-6.986,4.228-26.381,5.255-34.061,5.948
									c-0.896-2.343-2.166-21.969-0.824-28.818c1.343-6.85,3.668-25.035,3.521-27.807c-0.146-2.773,4.426-10.951,7.299-19.667
									c2.871-8.716-3.891-36.536-3.891-36.536l3.975-11.638c0,0,17.072,6.863,24.825,11.503c3.899,2.141,4.629,5.271,6.552,8.639
									c1.924,3.369,5.219,26.815,5.758,30.453c0.538,3.639,9.162,22.638,11.588,27.488s13.475,30.586,13.475,30.586
									c-3.1,6.198-10.914,7.176-10.914,7.176s-3.369-9.601-8.086-13.877c-4.716-4.277-11.856-17.148-15.226-22.609
									c-3.368-5.463-6.423-19.676-6.423-19.676"/>
							</g>
							<g>
								
									<path fill="#88A9B1" stroke="#000000" stroke-width="0.9394" stroke-linecap="round" stroke-linejoin="round" stroke-miterlimit="10" d="
									M319.138,132.364c0,0,9.57,6.535,11.299,6.744c0.445-5.701-4.143-17.961-4.143-17.961s-3.043-3.239-3.602-3.371
									c-0.56-0.134-1.902,0.396-1.902,0.396C322.941,122.993,319.138,132.364,319.138,132.364z"/>
								<path fill="#96B3BA" d="M323.101,120.569c-0.744,0.655-0.369,2.238-0.404,3.107c-0.077,1.984-0.7,3.762-0.9,5.682
									c-0.148,1.442,0.311,1.996,1.602,1.291c0.75-0.408,2.262-1.584,2.654-2.375c0.531-1.073-0.263-2.969-0.355-4.136
									C325.62,123.202,324.571,119.275,323.101,120.569z"/>
							</g>
						</g>
					</g>
				</g>
				<path fill="none" stroke="#000000" stroke-linecap="round" stroke-linejoin="round" stroke-miterlimit="10" d="M296.75,85.83
					c3.708-3.497,5.917,0.47,5.917,0.47"/>
			</g>
		</g>
	</g>
	
		<circle fill="none" stroke="#000000" stroke-linecap="round" stroke-linejoin="round" stroke-miterlimit="10" cx="233.711" cy="233.71" r="233.211"/>
</g>
</svg>
