<?xml version="1.0" encoding="utf-8"?>
<!-- Generator: Adobe Illustrator 16.0.0, SVG Export Plug-In . SVG Version: 6.00 Build 0)  -->
<!DOCTYPE svg PUBLIC "-//W3C//DTD SVG 1.1//EN" "http://www.w3.org/Graphics/SVG/1.1/DTD/svg11.dtd">
<svg version="1.1" id="Layer_2" xmlns="http://www.w3.org/2000/svg" xmlns:xlink="http://www.w3.org/1999/xlink" x="0px" y="0px"
	 width="275.156px" height="392.1px" viewBox="0 0 275.156 392.1" enable-background="new 0 0 275.156 392.1" xml:space="preserve">
<g>
	<path fill="#231F20" d="M123.789,96.013c-3.319,0.042-12.565,3.144-12.61-3.333c-2.259-0.37-2.981,0.189-5.029-1.479
		c-1.883-1.534-1.298-2.878-2.396-4.335c-0.861-1.147-2.889-1.034-3.8-2.645c-0.72-1.275-0.791-3.216,0.743-3.654
		c-1.668-1.159-3.851-1.951-4.792-4.098c-0.663-1.506-0.886-4.512,0.409-5.472c-1.226-1.872-3.162-2.19-3.862-4.819
		c-0.57-2.14,0.711-4.406,0.216-5.774c-0.247-0.684-1.691-1.491-2.13-2.218c-0.68-1.129-0.905-2.146-1.077-3.501
		c-0.216-1.697-0.042-3.147,1.594-3.999c-0.436-1.354-1.941-2.896-2.022-4.298c-0.093-1.646,1.473-2.939,2.159-4.298
		c0.733-1.456,0.47-0.669,0.263-2.087c-0.659-4.528-1.934-8.225,3.731-9.953c-0.037,0.013,0.793-5.319,1.421-6.058
		c1.026-1.213,2.627-1.143,3.411-2.504c1.026-1.779,0.335-4.236,2.23-5.89c1.119-0.975,2.905-0.216,3.854-0.896
		c0.968-0.694,1.04-3.01,1.754-4.342c1.406-2.631,4.425-3.613,6.935-2.671c0.945-1.782,5.702-6.025,7.129-3.126
		c1.856-2.588,3.583-3.284,6.614-2.364c1.857,0.565,1.801,0.682,3.358,0.043c1.649-0.68,2.758-1.821,4.643-1.741
		c1.453,0.063,2.446,0.974,3.677,1.386c0.526,0.175,0.52,0.661,1.104,0.74c0.572,0.075,2.125-0.886,2.687-1.103
		c2.521-0.971,5.293-1.67,6.263,1.824c2.142-0.098,4.161-2.505,6.571-1.595c1.519,0.576,2.912,2.879,3.233,4.479
		c1.697-0.038,3.806-1.737,5.506-0.688c1.582,0.973,1.058,3.576,2.065,4.411c0.746,0.619,2.185-0.231,3.104-0.083
		c1.07,0.174,2.479,1.042,3.196,1.937c1.151,1.443,1.271,3.237,0.827,5.013c4.403-0.46,4.528,3.881,4.694,7.457
		c-0.026-0.615,3.199,1.901,3.566,2.589c0.857,1.602,1.218,4.272-0.404,5.558c4.854,1.263,5.024,7.437,2.441,10.782
		c0.733-0.954,2.449,3.244,2.389,3.857c-0.128,1.29-1.516,3.569-2.618,4.2c1.208,1.177,2.621,3.483,2.032,5.389
		c-0.484,1.575-2.351,2.177-2.339,3.914c0.019,2.412,1.052,4.371,0.041,6.769c-0.324,0.774-4.299,3.921-4.272,3.212
		c-0.12,3.153,0.642,6.731-3.396,6.817c-0.155,3.104-0.347,5.435-4.089,5.224c0.693,0.041-0.87,4.521-1.221,4.927
		c-1.019,1.18-2.983,1.924-4.494,1.795c-0.239,3.089-5.524,8.306-7.92,4.988c-1.386,2.258-1.948,2.707-3.895,2.197
		c-3.262-0.854-8.26,3.606-11.186,1.71c-2.007,2.215-6.37,2.049-8.8,0.93"/>
	<g>
		<path fill="#955E43" d="M132.109,27.797c0.104,0.078,0.212,0.164,0.31,0.242C132.408,27.942,132.187,27.865,132.109,27.797z"/>
		<path fill="#955E43" d="M125.002,31.678c0.022,0.006,0.043,0.011,0.064,0.017C125.056,31.689,125.032,31.684,125.002,31.678z"/>
		<path fill="#955E43" d="M271.383,381.593c-3.392-1.459-4.192-2.05-6.136-5.487c-1.584-2.821-9.294-12.859-9.835-16.337
			c-1.932-5.072-2.676-22.977-2.173-44.924c0,0,1.825-84.379,0-94.195c-1.816-9.814-6.841-20.277-15.941-23.186
			c-0.743-0.242-1.381-0.427-2.26-0.562h-0.029c0.067-1.439,0.01-2.812-0.163-4.126c-4.34-32.132-24.732-60.902-24.732-60.902
			s-1.971-15.796-12.695-21.429c-10.714-5.643-17.312-2.482-28.393-2.087c-9.362,0.338-12.366-5.989-13.313-9.536l-0.348-2.318
			c-0.231-4.338,0.654-10.135,1.543-14.154c2.55-3.498,4.532-8.328,5.354-14.849c0.144,0.039,0.562,0.154,0.907,0.146
			c0.821,0.029,2.241-0.299,3.77-2.347c1.807-2.416,3.234-4.812,3.807-7.816c0.531-2.792-0.271-1.738-1.672-3.42
			c-0.928-1.11-0.087-2.541-0.677-3.516c-0.512-0.852-1.854-0.86-2.734-1.063c0,0.011,0,0.029,0,0.039
			c-0.058-0.02-0.115-0.028-0.173-0.039c-0.02,1.459-0.618,2.898-2.174,3.237c0.048,0.783-0.406,1.71-1.103,1.768
			c-0.174-0.01-0.366-0.087-0.561-0.231c-1.033-0.772-0.453-3.463,0.406-4.102c-2.059-0.135-1.487-5.181-0.348-6.156
			c-1.787-0.029-3.142-3.702-1.798-4.766c-0.146,0.106,0,0,0.105-0.077c-0.513,0.405-1.093,0.608-1.671,0.628
			c-0.938-0.029-2.021-0.518-2.631-1.387c-1.158-1.671-0.065-3.724-0.849-5.473c-0.956,0.3-1.894,0.502-2.763,0.551
			c-0.202,0.01-0.405-0.001-0.608,0c-2.123,0.008-3.672-1.294-3.826-4.144c-0.83,0.386-1.546,0.771-2.271,0.966
			c0.021,0.01,0.049,0.02,0.067,0.029c-0.821,0.202-1.672,0.125-2.704-0.57c-1.701-1.149-0.986-2.879-2.57-2.687
			c-1.556,0.175-2.984,2.349-4.6,2.474c-1.633,0.125-2.356-0.908-3.486-1.749c0.841,0.628-2.29,3.313-2.677,3.556
			c-0.83,0.512-1.469,0.734-2.146,0.753c-0.59-0.018-1.37-0.175-2.222-0.41c0.002,0.002,0.01,0.003,0.01,0.005
			c-0.028-0.01-0.058-0.017-0.087-0.023c0.005,0.001,0.009,0.001,0.013,0.002c-0.033-0.009-0.064-0.017-0.1-0.026
			c-0.068,3.054-1.519,6.192-4.977,6.231c-0.066,0-0.135,0-0.213-0.009v0.009c-0.058,0-0.114,0-0.173-0.009
			c-0.059,2.058-0.301,4.512-1.721,6.125c-0.453,0.502-4.203,2.743-4.184,3.101c0.067,1.401-0.541,2.522-0.656,3.806
			c-0.088,1.055,0.435,1.527,0.628,2.753c0.261,1.701-0.55,2.696-1.401,2.88c0,0.01,0,0.028,0,0.039
			c-0.937,0.097-1.864-0.813-1.361-2.89c-1.738-0.105-2.879-2.242-2.677-3.835c-0.453,1.44-2.55,4.521-4.027,3.208
			c1.11,0.995,0.53,4.966,1.043,6.531c0.704,2.125,1.962,3.932,3.284,5.71c2,2.676,3.815,2.415,4.349,2.26
			c0.801,6.367,2.694,11.063,5.169,14.53c0.048,0.078,0.105,0.155,0.154,0.231c0.202,0.908,0.414,1.923,0.617,2.977
			c0.098,0.532,0.193,1.062,0.301,1.613c0.048,0.328,0.104,0.646,0.152,0.976c0.039,0.231,0.068,0.463,0.107,0.705h0.009
			c-0.009,0.009-0.009,0.009,0,0.009c0.406,2.715,0.658,5.526,0.532,7.895c0.01,0.076,0,0.145-0.01,0.212
			c0,0.028-0.011,0.048-0.011,0.077c-0.213,1.875-1.933,11.999-13.719,11.573c-4.802-0.174-8.762-0.859-12.578-1.13
			c-5.854-0.966-12.541,1.71-14.145,2.386c-0.551,0.262-1.102,0.532-1.671,0.832c-10.715,5.633-12.686,21.429-12.686,21.429
			s-20.395,28.771-24.742,60.902c-0.174,1.313-0.231,2.687-0.165,4.126h-0.028c-0.869,0.135-1.508,0.318-2.262,0.562
			c-9.091,2.907-14.125,13.37-15.939,23.186c-1.816,9.816,0,94.195,0,94.195c0.502,21.948-0.242,39.852-2.174,44.924
			c-0.541,3.478-8.241,13.516-9.825,16.337c-1.942,3.438-2.753,4.028-6.146,5.487c-3.391,1.458-3.545,3.07-3.062,5.485
			c0.482,2.426,3.546,2.262,3.546,2.262s2.106,1.623,5.98,0.482c0,0,3.227,1.941,5.814,0c0,0,5.333,2.425,7.749-0.638
			c0,0,1.256,0.87,3.024,1.564c0.048,0.021,0.105,0.038,0.154,0.058c0.241,0.087,0.483,0.186,0.743,0.263
			c0.146,0.038,0.291,0.087,0.426,0.125c0.125,0.039,0.241,0.067,0.357,0.096c0.251,0.068,0.512,0.128,0.773,0.164
			c0.067,0.021,0.135,0.021,0.202,0.03c0.242,0.038,0.475,0.068,0.716,0.087c0.076,0,0.153,0.01,0.231,0.01
			c0.29,0.02,0.579,0.02,0.878,0c0.06,0,0.106-0.01,0.165-0.01c0.271-0.029,0.541-0.067,0.813-0.126
			c0.048-0.01,0.096-0.02,0.144-0.027c0.3-0.068,0.59-0.165,0.879-0.291c0.06-0.02,0.116-0.048,0.174-0.068
			c0.271-0.124,0.532-0.271,0.792-0.434c0.029-0.02,0.059-0.028,0.086-0.05c0.271-0.184,0.542-0.415,0.792-0.656
			c0.068-0.058,0.125-0.115,0.175-0.174c0.261-0.271,0.512-0.552,0.743-0.889c4.202-5.971,3.72-6.782,2.426-10.337
			c0-0.01-0.01-0.021-0.01-0.03c0.541-0.868,1.218-1.642,1.999-2.087c2.705-1.506,3.306-1.351,4.513-4.955
			c1.196-3.612,0.3-11.273-2.106-18.037c-2.405-6.763,2.657-25.081,4.146-36.15c2.058-11.042,8.858-30.818,11.015-49.813
			c1.014,1.131,12.664,14.153,23.795,24.646c6.095,5.75,12.027,10.744,15.97,12.6c11.457,5.391,30.354,0.521,35.05-3.033
			c2.028-1.536,3.227-2.908,3.902-3.874c0,0,1.701,2.251,5.536,3.874c5.43,2.288,23.592,8.424,35.061,3.033
			c4.114-1.94,10.425-7.305,16.81-13.382c10.859-10.347,21.96-22.761,22.945-23.861c2.154,18.993,8.956,38.771,11.014,49.812
			c1.497,11.069,6.551,29.389,4.154,36.15c-2.406,6.764-3.313,14.425-2.105,18.037c1.198,3.604,1.808,3.449,4.502,4.955
			c0.791,0.445,1.458,1.219,1.999,2.087c0,0.011-0.01,0.021-0.01,0.03c-1.285,3.555-1.777,4.366,2.425,10.337
			c0.232,0.337,0.483,0.618,0.745,0.889c0.057,0.059,0.115,0.116,0.173,0.174c0.263,0.241,0.522,0.474,0.793,0.656
			c0.029,0.021,0.059,0.03,0.087,0.05c0.261,0.164,0.531,0.31,0.803,0.434c0.048,0.021,0.105,0.05,0.164,0.068
			c0.289,0.126,0.59,0.223,0.889,0.291c0.048,0.009,0.087,0.019,0.135,0.027c0.271,0.059,0.542,0.097,0.813,0.126
			c0.058,0,0.114,0.011,0.174,0.011c0.289,0.019,0.579,0.019,0.879,0c0.077,0,0.145-0.011,0.222-0.011
			c0.242-0.019,0.483-0.049,0.715-0.087c0.068-0.01,0.137-0.01,0.213-0.03c0.262-0.036,0.513-0.096,0.764-0.163
			c0.126-0.028,0.242-0.058,0.357-0.097c0.146-0.038,0.289-0.087,0.426-0.125c0.261-0.077,0.512-0.176,0.753-0.263
			c0.049-0.02,0.098-0.037,0.146-0.057c1.77-0.695,3.023-1.565,3.023-1.565c2.425,3.062,7.759,0.638,7.759,0.638
			c2.579,1.941,5.814,0,5.814,0c3.874,1.141,5.972-0.482,5.972-0.482s3.071,0.164,3.555-2.262
			C274.938,384.664,274.773,383.051,271.383,381.593z M76.131,208.899c-2.896-2.695-6.365-5.016-10.27-6.897l-0.06,0.027
			c-2.239-4.366-2.878-5.971-1.312-7.806c3.507-4.116,17.969-42.702,17.969-42.702c0.415-0.473,0.803-0.917,1.15-1.333l0.116,0.106
			c0,0-0.56,12.704,3.4,31.233C87.127,181.528,79.126,192.271,76.131,208.899z M209.355,202.029L209.299,202
			c-3.895,1.883-7.371,4.202-10.27,6.897c-2.995-16.628-10.996-27.371-10.996-27.371c3.96-18.529,3.401-31.233,3.401-31.233
			l0.115-0.106c0.35,0.416,0.734,0.86,1.15,1.333c0,0,14.462,38.586,17.969,42.702C212.235,196.058,211.598,197.662,209.355,202.029
			z"/>
	</g>
</g>
<g>
	<g>
		<g>
			<g>
				<path fill="#83482C" d="M132.542,46.059c-0.121,0-0.242-0.043-0.338-0.131c-0.271-0.248-6.713-6.034-12.355-1.492
					c-0.216,0.172-0.529,0.14-0.703-0.076c-0.173-0.215-0.14-0.529,0.076-0.703c6.312-5.076,13.586,1.469,13.658,1.535
					c0.203,0.188,0.218,0.502,0.03,0.706C132.812,46.004,132.677,46.059,132.542,46.059z"/>
				<path fill="#83482C" d="M142.979,45.908c-0.132,0-0.264-0.053-0.361-0.154c-0.189-0.2-0.184-0.517,0.016-0.707
					c0.068-0.065,6.89-6.478,13.215-1.392c0.215,0.174,0.249,0.488,0.075,0.703c-0.173,0.215-0.487,0.249-0.702,0.076
					c-5.647-4.543-11.833,1.274-11.896,1.333C143.229,45.861,143.104,45.908,142.979,45.908z"/>
			</g>
			<path fill="#83482C" d="M141.979,65.39c-0.276,0-0.5-0.224-0.5-0.5s0.224-0.5,0.5-0.5c0.556,0,2.367-0.144,2.367-1.992
				c0-1.742-1.863-3.536-1.883-3.553c-0.199-0.19-0.208-0.507-0.018-0.707c0.191-0.2,0.508-0.207,0.707-0.018
				c0.09,0.085,2.192,2.111,2.192,4.277C145.347,64.465,143.655,65.39,141.979,65.39z"/>
			<path fill="#83482C" d="M132.731,65.39c-1.676,0-3.367-0.925-3.367-2.992c0-2.166,2.103-4.191,2.192-4.277
				c0.198-0.189,0.517-0.184,0.706,0.018c0.189,0.2,0.184,0.516-0.018,0.707c-0.019,0.018-1.882,1.819-1.882,3.554
				c0,1.85,1.812,1.992,2.367,1.992c0.275,0,0.5,0.224,0.5,0.5S133.008,65.39,132.731,65.39z"/>
			<path fill="#83482C" d="M137.38,66.104c-1.254,0-1.563-0.902-1.769-1.5c-0.127-0.371-0.237-0.691-0.494-0.87
				c-1.189-0.829-2.134,0.433-2.174,0.485c-0.162,0.223-0.474,0.271-0.699,0.108c-0.223-0.164-0.271-0.477-0.106-0.699
				c0.535-0.73,1.965-1.821,3.551-0.716c0.525,0.364,0.717,0.92,0.87,1.366c0.215,0.626,0.307,0.824,0.821,0.824
				c0.52,0,0.614-0.189,0.843-0.793c0.166-0.44,0.372-0.991,0.935-1.331c1.603-0.965,3.03-0.037,3.563,0.589
				c0.179,0.21,0.152,0.526-0.059,0.705c-0.209,0.178-0.523,0.153-0.703-0.057c-0.105-0.122-1.041-1.133-2.284-0.381
				c-0.265,0.16-0.381,0.469-0.516,0.826C138.941,65.237,138.615,66.104,137.38,66.104z"/>
			<g>
				<g>
					<path fill="#83482C" d="M120.22,51.492c-0.214,0-0.409-0.137-0.478-0.351c-0.083-0.263,0.063-0.544,0.326-0.627
						c2.364-0.746,4.816-0.832,6.455-0.832c1.387,0.002,2.091,0.056,2.558,0.091c0.51,0.038,0.723,0.055,1.307-0.034
						c0.582-0.088,0.771-0.553,0.779-0.571c0.102-0.254,0.387-0.383,0.645-0.288c0.255,0.097,0.387,0.376,0.295,0.633
						c-0.14,0.384-0.625,1.072-1.569,1.215c-0.697,0.105-0.993,0.083-1.53,0.042c-0.451-0.034-1.135-0.085-2.482-0.088
						c-1.571,0-3.921,0.082-6.153,0.786C120.32,51.485,120.27,51.492,120.22,51.492z"/>
					<path fill="#83482C" d="M132.127,51.472c-0.58,0-1.771-0.15-4.309-0.778c-0.269-0.065-0.432-0.337-0.365-0.604
						s0.338-0.431,0.605-0.365c1.725,0.427,3.823,0.836,4.203,0.75c0.255-0.151,0.722-1.432,0.921-1.978l0.954,0.302
						c-0.465,1.271-0.854,2.241-1.443,2.572C132.629,51.406,132.512,51.472,132.127,51.472z"/>
					<path fill="#83482C" d="M123.676,54.943c-0.254,0-0.471-0.192-0.495-0.45c-0.027-0.274,0.174-0.52,0.447-0.547
						c0.042-0.004,4.232-0.438,7.961-2.596c0.234-0.14,0.543-0.058,0.684,0.182c0.139,0.239,0.057,0.546-0.184,0.684
						c-3.921,2.269-8.184,2.708-8.362,2.726C123.709,54.942,123.692,54.943,123.676,54.943z"/>
				</g>
				<g>
					<path fill="#83482C" d="M155.12,51.492c-0.05,0-0.101-0.008-0.149-0.023c-2.232-0.705-4.583-0.786-6.156-0.786
						c-1.349,0.002-2.029,0.054-2.48,0.088c-0.538,0.04-0.833,0.064-1.527-0.042c-0.946-0.144-1.434-0.832-1.571-1.215
						c-0.094-0.26,0.041-0.546,0.301-0.64c0.261-0.095,0.542,0.039,0.639,0.295c0.014,0.033,0.206,0.483,0.782,0.572
						c0.583,0.087,0.793,0.07,1.303,0.033c0.467-0.035,1.171-0.088,2.556-0.091c1.641,0,4.094,0.086,6.458,0.832
						c0.264,0.083,0.409,0.364,0.326,0.627C155.529,51.356,155.333,51.492,155.12,51.492z"/>
					<path fill="#83482C" d="M143.211,51.472c-0.385,0-0.502-0.066-0.565-0.102c-0.588-0.332-0.979-1.302-1.428-2.532
						c-0.095-0.26,0.032-0.567,0.291-0.662c0.263-0.094,0.539,0.019,0.635,0.278c0.214,0.587,0.681,1.867,0.993,2.044
						c0.318,0.063,2.422-0.35,4.146-0.775c0.271-0.068,0.539,0.098,0.605,0.365c0.065,0.268-0.099,0.539-0.365,0.604
						C144.981,51.322,143.791,51.472,143.211,51.472z"/>
					<path fill="#83482C" d="M151.664,54.943c-0.017,0-0.033-0.001-0.05-0.002c-0.18-0.018-4.442-0.457-8.363-2.726
						c-0.238-0.138-0.32-0.444-0.183-0.684c0.139-0.24,0.448-0.319,0.683-0.182c3.729,2.157,7.919,2.591,7.961,2.596
						c0.274,0.027,0.477,0.272,0.448,0.547C152.135,54.75,151.918,54.943,151.664,54.943z"/>
				</g>
			</g>
			<g>
				<path fill="#83482C" d="M137.351,79.856c-3.346,0-7.736-2.382-10.027-7.702c-0.06-0.1-0.086-0.218-0.066-0.336
					c0.041-0.24,0.326-0.425,0.57-0.425c0.131,0,0.37,0.016,0.37,0.016c0.109,0.006,0.213,0.049,0.296,0.119
					c0.042,0.036,4.227,3.584,8.857,3.584c5.38,0,8.787-3.514,8.82-3.55c0.087-0.092,0.205-0.146,0.332-0.155
					c0,0,0.24-0.015,0.372-0.015c0.244,0,0.529,0.185,0.57,0.425c0.018,0.108-0.003,0.218-0.052,0.312
					C145.693,76.967,140.961,79.856,137.351,79.856z M128.894,73.088c2.21,3.972,5.728,5.769,8.457,5.769
					c2.841,0,6.621-2.139,8.499-5.686c-1.478,1.144-4.441,2.941-8.499,2.941C133.747,76.112,130.5,74.212,128.894,73.088z"/>
				<path fill="#83482C" d="M137.364,73.205c-0.019,0-0.042-0.001-0.061-0.003l0,0l-0.724,0.001c-1.704,0-3.636,0-5.631-0.414
					c-1.231-0.254-2.381-0.36-3.129-0.404c-0.248-0.014-0.448-0.209-0.469-0.457c-0.021-0.248,0.144-0.473,0.386-0.529
					c0.117-0.026,0.354-0.109,0.67-0.217c1.313-0.448,3.643-1.225,5.059-1.027c1.824,0.262,3.869,0.287,3.891,0.287
					c0.009,0,2.053-0.024,3.878-0.287c1.431-0.201,3.75,0.579,5.062,1.027c0.314,0.107,0.553,0.19,0.669,0.217
					c0.242,0.057,0.407,0.281,0.387,0.529c-0.021,0.248-0.222,0.443-0.47,0.457c-0.748,0.044-1.896,0.149-3.129,0.404
					c-1.984,0.412-3.906,0.414-5.604,0.414c-0.009,0-0.018,0-0.025,0h-0.757L137.364,73.205z M136.906,72.203h0.434
					c0.016,0,0.028,0,0.042,0.002l0.74-0.002c0.009,0,0.019,0,0.026,0c1.729,0,3.517-0.002,5.4-0.394
					c0.315-0.064,0.625-0.121,0.926-0.168c-1.072-0.32-2.297-0.614-3.099-0.496c-1.891,0.271-4,0.296-4.021,0.297
					c-0.032,0-2.144-0.026-4.032-0.297c-0.797-0.112-2.021,0.176-3.096,0.496c0.3,0.048,0.608,0.104,0.925,0.168
					c1.895,0.394,3.69,0.394,5.428,0.394H136.906z"/>
				<path fill="#83482C" d="M148.244,72.817c-0.612,0-1.206-0.253-1.573-0.49c-0.23-0.149-0.297-0.458-0.147-0.689
					c0.149-0.232,0.458-0.297,0.689-0.15c0.011,0.007,1.063,0.669,1.639,0.094c0.194-0.195,0.512-0.195,0.707,0
					c0.194,0.194,0.194,0.512,0,0.707C149.167,72.677,148.7,72.817,148.244,72.817z"/>
				<path fill="#83482C" d="M126.447,72.817c-0.456,0-0.922-0.141-1.312-0.531c-0.194-0.195-0.194-0.513,0.001-0.707
					c0.194-0.194,0.513-0.195,0.708,0.001c0.57,0.573,1.625-0.087,1.635-0.094c0.23-0.146,0.54-0.082,0.689,0.15
					c0.148,0.232,0.083,0.54-0.147,0.689C127.653,72.564,127.06,72.817,126.447,72.817z"/>
			</g>
		</g>
	</g>
</g>
<path fill="#83482C" d="M137.361,70.928c0,0-9.189-1.597-9.189,0.515c0,2.114,6.943,4.412,9.188,4.412
	c2.247,0,9.188-2.407,9.188-4.52C146.549,69.222,137.36,70.927,137.361,70.928L137.361,70.928L137.361,70.928z"/>
<path fill="#83482C" d="M146.95,71.906c-1.612,4.672-6.238,7.45-9.591,7.45c-3.351,0-7.441-2.414-9.591-7.45
	c-0.013-0.003-0.013-0.005-0.009-0.008c-0.005,0.002-0.004,0.005,0.009,0.011c2.148,5.82,6.24,8.608,9.591,8.608
	c3.353,0,7.979-3.212,9.591-8.608c0.012-0.006,0.013-0.009,0.007-0.011C146.962,71.901,146.96,71.904,146.95,71.906z"/>
<g>
	<path fill="#83482C" d="M125.517,45.993c-1.403-1.982-3.869-1.869-3.198-4.896c0.56-2.521,4.305-3.714,2.629-6.458
		c2.158,0.251,5.555-1.233,5.157-3.798c1.304-0.168,2.635-0.845,3.55-1.815c-0.466-0.345-0.997-0.822-1.545-1.229
		c0.838,0.624-2.282,3.314-2.669,3.554c-1.673,1.034-2.546,0.875-4.53,0.299c-0.072,3.175-1.624,6.427-5.366,6.23
		c-0.058,2.052-0.295,4.511-1.724,6.119c-0.447,0.505-4.201,2.744-4.183,3.103c0.071,1.406-0.54,2.525-0.649,3.809
		c-0.091,1.057,0.43,1.528,0.62,2.754c0.264,1.696-0.546,2.69-1.4,2.882c-0.138,1.772-0.795,3.262-0.688,5.262
		c0.104,1.971,0.396,3.9,0.648,5.832c0.403-0.027,0.642-0.136,0.642-0.136c0.824,6.537,2.781,11.32,5.337,14.826
		c0.406,1.82,0.844,4.011,1.181,6.268c2.906,1.252,5.767,1.297,4.807-2.568c-0.755-3.037-3.817-6.707-5.424-9.464
		c-4.845-8.321-5.51-22.167,4.672-26.478c1.462-0.618,3.604-1.667,2.313-3.825C125.637,46.168,125.577,46.078,125.517,45.993z"/>
	<path fill="#83482C" d="M156.906,82.352c2.562-3.506,4.529-8.295,5.354-14.849c0,0,1.239,0.573,2.889-0.573
		c0.228-1.698,0.464-3.393,0.556-5.123c0.131-2.467-0.919-4.15-0.689-6.562c0.162-1.733,1.265-3.32,0.966-5.025
		c-0.039-0.225-0.103-0.448-0.175-0.669c-0.109-0.021-0.219-0.041-0.315-0.063c-0.018,1.464-0.613,2.897-2.176,3.239
		c0.075,1.027-0.761,2.324-1.828,1.532c-1.031-0.767-0.289-3.468,0.572-4.103c-2.267,0.124-1.512-5.152-0.348-6.156
		c-1.783-0.032-3.029-3.777-1.688-4.838c-1.378,1.092-3.287,0.703-4.304-0.763c-1.164-1.677-0.06-3.717-0.843-5.467
		c-3.615,1.16-6.972,0.768-7.196-3.595c-0.831,0.38-1.547,0.767-2.271,0.963c0.539,0.271,1.113,0.465,1.707,0.541
		c-0.396,2.564,3,4.049,5.159,3.798c-1.917,3.136,3.08,3.965,2.332,7.198c-0.528,2.281-4.2,3.136-3.77,5.668
		c0.334,1.952,3.626,2.488,5.161,2.79c2.466,0.482,3.56,1.131,4.459,3.694c2.597,7.387,2.006,15.786-1.945,22.574
		c-1.604,2.757-4.668,6.426-5.424,9.464c-0.701,2.825,0.64,3.56,2.543,3.269C155.979,86.806,156.461,84.356,156.906,82.352z"/>
</g>
<path fill="#83482C" d="M151.119,87.178l-1.161,0.694c-4.347,3.032-12.593,3.01-12.593,3.01c-14.116,0-19.373-9.011-19.373-9.011
	l-0.158-0.008c0.05,0.071,0.097,0.149,0.146,0.22c0.055,0.083,0.108,0.167,0.166,0.246c0.028,0.131,0.055,0.271,0.083,0.405
	c0.175,0.803,0.354,1.663,0.528,2.564c0.098,0.532,0.193,1.062,0.301,1.613c0.048,0.329,0.104,0.646,0.152,0.976
	c0.039,0.231,0.068,0.463,0.107,0.705h0.009c-0.009,0.009-0.009,0.009,0,0.009c0.406,2.715,0.658,5.526,0.532,7.895
	c0.01,0.076,0,0.145-0.01,0.212c0,0.028-0.011,0.048-0.011,0.077c-0.075,0.675-0.352,2.42-1.219,4.356l0.095,0.005l-0.095-0.005
	c-1.541,3.442-4.957,7.489-12.5,7.217c-4.802-0.174-8.762-0.859-12.578-1.13c-0.185-0.029-0.371-0.047-0.556-0.069l3.374,1.109
	c16.676,3.439,17.974-0.52,21.473-3.495c5.134-4.364,7.351-7.427,11.758-5.028c4.409,2.398,5.726-3.403,10.058-4.487
	C143.98,94.177,145.604,91.547,151.119,87.178z"/>
<path fill="#83482C" d="M153.34,88.88c-1.453,4.532-4.444,22.963-2.221,18.245c1.51-3.203,2.882-6.931,4.256-10.541l-0.012-0.078
	c-0.231-4.338,0.654-10.135,1.543-14.154c0.111-0.153,0.215-0.322,0.324-0.479h-0.49C156.74,81.872,154.794,84.348,153.34,88.88z"/>
<g>
	<path fill="#83482C" d="M141.072,62.952c-1.508,1.126-3.328,2.502-5.316,1.439c-1.497-0.8-2.647-3.78-4.681-2.153
		c-0.789,0.635-0.49,2.897-1.39,3.188c4.13-1.331,4.703-0.111,5.64,0.88c0.938,0.99,2.053,0.646,2.053,0.646
		s1.114,0.344,2.052-0.646c1.688-1.789,3.269-1.585,5.597-0.901c-0.21-1.53-1.425-4.019-3.255-2.922
		C141.511,62.636,141.281,62.795,141.072,62.952z"/>
	<path fill="#83482C" d="M137.388,65.632c0,0-1.771,1.7-1.264,2.833c0.508,1.131,1.264,1.252,1.264,1.252s0.756-0.121,1.263-1.252
		C139.157,67.332,137.388,65.632,137.388,65.632z"/>
</g>
<g>
	<g>
		<path fill="#83482C" d="M156.619,250.542c0,0-8.486,2.022-19.044,2.022c-10.559,0-19.045-2.022-19.045-2.022
			c7.745,8.475,4.251,29.817,4.251,29.817h14.794h14.793C152.368,280.36,148.875,259.016,156.619,250.542z"/>
		<g>
			<circle fill="#83482C" cx="98.636" cy="163.225" r="5.188"/>
			<path fill="#83482C" d="M123.685,110.005c0,0-1.16,5.103-5.156,4.933c-1.902-0.081-14.343-5.982-25.098-7.722
				c-5.815-0.913-12.407,1.716-14.021,2.395c-0.006,0.007-0.014,0.013-0.021,0.019c0,0,8.02-3.267,18.014,0.141
				c10.712,3.652,17.264,6.992,21.182,7.382C123.805,117.671,123.685,110.005,123.685,110.005z"/>
			<g>
				<path fill="#83482C" d="M100.173,190.406c11.3-9.159,23.979-20.479,23.979-20.479c-7.252,3.698-20.444,8.513-29.831,1.455
					s-7.195-25.502-7.195-25.502l-4.668,5.642l-0.004,0.019c0.003-0.007,0.007-0.019,0.007-0.019
					c0.415-0.473,0.803-0.917,1.15-1.333l0.116,0.106c0,0-0.56,12.704,3.4,31.233c0,0-7.892,10.604-10.933,27.041
					c5.844,6.856,17.518,19.071,24.563,26.364C86.78,218.33,90.103,198.57,100.173,190.406z"/>
				<path fill="#83482C" d="M106.542,240.887c0,0-2.343-2.393-5.784-5.954C102.465,236.96,104.38,238.955,106.542,240.887z"/>
			</g>
			<path fill="#83482C" d="M45.259,210.669c-6.375-17.615-0.645-16.103,0-26.407c0.646-10.305,10.306-28.983,18.369-38.383
				c8.063-9.4,10.292-15.718,12.566-24.233c2.109-7.896,11.333-13.716,12.665-14.521c-4.335,0.413-8.278,1.993-9.461,2.491
				c-0.55,0.261-1.102,0.531-1.671,0.831c-10.714,5.633-12.686,21.429-12.686,21.429S44.647,160.647,40.3,192.779
				c-0.174,1.313-0.231,2.687-0.164,4.126h-0.029c-0.869,0.135-1.507,0.318-2.261,0.562c-3.255,1.04-5.98,3.061-8.233,5.662
				c2.569,0.456,6.252,1.475,7.754,3.679c2.416,3.543,4.831,9.018,11.915,23.025c7.085,14.008,21.354,24.798,21.354,24.798
				s0.384-2.739-0.081-4.087C70.09,249.195,51.633,228.285,45.259,210.669z"/>
			<path fill="#83482C" d="M36.241,224.517c-5.474,0.644-7.406,0.322-10.17-3.57c-1.275-1.798-1.373-6.145-1.108-10.307
				c-1.418,3.193-2.432,6.638-3.056,10.01c-1.816,9.816,0,94.195,0,94.195c0.502,21.947-0.242,39.852-2.174,44.924
				c-0.174,1.117-1.09,2.914-2.302,4.93c0.001-0.001,0.002-0.002,0.004-0.004c4.057-5.06,5.925-11.042,6.964-18.127
				c1.04-7.084,1.858-29.627,1.672-39.474c-0.188-9.846-4.923-68.1-3.344-72.161c0.873-2.246,3.137-2.139,4.56-1.759
				c-2.461-1.863-5.232-8.812,0.615-5.893C34.247,230.45,41.716,223.874,36.241,224.517z M27.287,233.174
				c0.209,0.158,0.416,0.284,0.615,0.36C29.039,233.966,28.437,233.481,27.287,233.174z M27.902,386.814
				c-5.155-2.212-5.407,1.149-5.125,3.27c0.372-0.226,0.715-0.52,1.013-0.896c0,0,1.256,0.87,3.024,1.565
				c0.048,0.02,0.105,0.037,0.155,0.057c0.24,0.087,0.482,0.186,0.742,0.263c0.146,0.038,0.291,0.087,0.427,0.125
				c0.125,0.039,0.24,0.067,0.356,0.097c0.251,0.067,0.512,0.127,0.773,0.163c0.067,0.021,0.135,0.021,0.203,0.03
				c0.241,0.038,0.474,0.068,0.715,0.087c0.077,0,0.153,0.011,0.231,0.011c0.29,0.019,0.579,0.019,0.878,0
				c0.06,0,0.106-0.011,0.165-0.011c0.271-0.029,0.541-0.067,0.813-0.126c0.048-0.01,0.096-0.02,0.144-0.027
				c0.3-0.068,0.59-0.165,0.879-0.291c0.06-0.02,0.116-0.048,0.175-0.068c0.271-0.124,0.531-0.271,0.792-0.434
				c0.028-0.02,0.058-0.028,0.086-0.05c0.271-0.184,0.542-0.415,0.792-0.656c0.067-0.058,0.125-0.115,0.174-0.174
				c0.261-0.271,0.512-0.552,0.744-0.889c0.002-0.004,0.005-0.007,0.007-0.011C34.423,389.156,31.846,388.505,27.902,386.814z
				 M40.114,370.719c-3.739,4.897-1.574,10.564-1.555,14.179c1.358-2.669,0.857-3.815-0.074-6.377c0-0.01-0.009-0.021-0.009-0.03
				c0.541-0.868,1.217-1.642,1.999-2.087c2.705-1.506,3.305-1.351,4.512-4.955c1.175-3.547,0.329-10.988-1.979-17.657
				C44.614,363.292,43.818,365.866,40.114,370.719z M126.08,283.778c0,0-5.107,10.612-18.024,9.18
				c-2.371-0.264-5.553-1.915-9.16-4.432c0.344,0.723,0.628,1.312,0.825,1.704c1.747,3.488-1.749,4.57-2.957,3.229
				c-0.735-0.813-5.616-8.446-9.342-14.32c-0.509-0.462-1.018-0.931-1.526-1.402c1.944,4.942,5.616,14.346,6.01,15.819
				c0.54,2.01-1.344,2.821-2.957,1.208c-0.27-0.271-0.734-0.946-1.324-1.903c-2.771-1.188-5.448-4.377-6.375-5.95
				c-0.938-1.604-8.104-11.951-9.585-15.979c-0.591-1.613-0.799-4.87-0.838-8.198c-7.249-7.639-12.518-13.72-12.518-13.72
				s0.071,10.431-0.041,18.692c1.922,2.14,12.977,14.406,23.566,24.39c6.096,5.75,12.027,10.744,15.971,12.6
				c11.457,5.392,30.354,0.521,35.049-3.033c2.028-1.536,3.227-2.908,3.902-3.874c0,0,0.271,0.351,0.819,0.867V283.78H126.08
				V283.778z M42.273,349.77c-0.396-8.313,3.479-23.054,4.751-32.51c0.379-2.032,0.92-4.365,1.562-6.931
				C40.34,329.121,39.785,336.901,42.273,349.77z"/>
			<circle fill="#83482C" cx="176.509" cy="163.225" r="5.188"/>
			<path fill="#83482C" d="M151.462,110.005c0,0,1.159,5.103,5.155,4.933c1.902-0.081,14.343-5.982,25.099-7.722
				c5.815-0.913,12.407,1.716,14.021,2.395c0.006,0.007,0.013,0.013,0.02,0.019c0,0-8.02-3.267-18.014,0.141
				c-10.712,3.652-17.263,6.992-21.181,7.382C151.341,117.671,151.462,110.005,151.462,110.005z"/>
			<g>
				<path fill="#83482C" d="M174.974,190.406c-11.3-9.159-23.979-20.479-23.979-20.479c7.253,3.698,20.445,8.513,29.831,1.455
					c9.387-7.058,7.195-25.502,7.195-25.502l4.668,5.642l0.004,0.019c-0.003-0.007-0.007-0.019-0.007-0.019
					c-0.415-0.473-0.803-0.917-1.149-1.333l-0.116,0.106c0,0,0.56,12.704-3.401,31.233c0,0,7.892,10.604,10.933,27.041
					c-5.844,6.856-17.517,19.071-24.563,26.364C188.366,218.33,185.043,198.57,174.974,190.406z"/>
				<path fill="#83482C" d="M168.604,240.887c0,0,2.343-2.393,5.783-5.954C172.681,236.96,170.766,238.955,168.604,240.887z"/>
			</g>
			<path fill="#83482C" d="M229.888,210.669c6.374-17.615,0.644-16.103,0-26.407c-0.646-10.305-10.307-28.983-18.369-38.383
				c-8.063-9.4-10.292-15.718-12.567-24.233c-2.109-7.896-11.332-13.716-12.665-14.521c4.336,0.413,8.279,1.993,9.461,2.491
				c0.551,0.261,1.103,0.531,1.671,0.831c10.714,5.633,12.687,21.429,12.687,21.429s20.395,28.771,24.741,60.902
				c0.173,1.313,0.23,2.687,0.164,4.126h0.029c0.867,0.135,1.506,0.318,2.26,0.562c3.255,1.04,5.98,3.061,8.233,5.662
				c-2.569,0.456-6.252,1.475-7.755,3.679c-2.415,3.543-4.83,9.018-11.915,23.025c-7.084,14.008-21.353,24.798-21.353,24.798
				s-0.386-2.739,0.08-4.087C205.056,249.195,223.514,228.285,229.888,210.669z"/>
			<path fill="#83482C" d="M247.244,227.283c5.85-2.92,3.076,4.027,0.615,5.892c1.423-0.38,3.688-0.487,4.56,1.759
				c1.578,4.063-3.156,62.315-3.345,72.161c-0.187,9.847,0.633,32.39,1.673,39.474c1.039,7.085,2.907,13.067,6.965,18.127
				c0.001,0.002,0.002,0.003,0.004,0.004c-1.213-2.016-2.129-3.812-2.302-4.93c-1.933-5.072-2.678-22.976-2.174-44.924
				c0,0,1.814-84.379,0-94.195c-0.625-3.372-1.639-6.815-3.057-10.01c0.264,4.162,0.166,8.509-1.109,10.307
				c-2.763,3.894-4.695,4.214-10.169,3.57C233.43,223.874,240.899,230.45,247.244,227.283z M247.244,233.535
				c0.199-0.076,0.406-0.202,0.615-0.36C246.709,233.481,246.107,233.966,247.244,233.535z M239.078,388.847
				c0.002,0.004,0.005,0.007,0.008,0.011c0.232,0.337,0.483,0.618,0.744,0.889c0.049,0.059,0.105,0.116,0.173,0.174
				c0.251,0.241,0.522,0.474,0.793,0.656c0.028,0.021,0.06,0.03,0.087,0.05c0.261,0.163,0.522,0.31,0.792,0.434
				c0.06,0.021,0.115,0.05,0.175,0.068c0.29,0.126,0.579,0.223,0.879,0.291c0.05,0.009,0.097,0.019,0.146,0.027
				c0.271,0.059,0.542,0.097,0.813,0.126c0.059,0,0.104,0.011,0.164,0.011c0.3,0.019,0.589,0.019,0.88,0
				c0.077,0,0.154-0.011,0.23-0.011c0.241-0.019,0.475-0.049,0.716-0.087c0.067-0.01,0.135-0.01,0.201-0.03
				c0.262-0.036,0.522-0.096,0.773-0.163c0.115-0.028,0.231-0.058,0.356-0.097c0.137-0.038,0.281-0.087,0.427-0.125
				c0.261-0.077,0.502-0.176,0.744-0.263c0.047-0.02,0.104-0.037,0.153-0.057c1.769-0.695,3.022-1.565,3.022-1.565
				c0.299,0.378,0.642,0.672,1.014,0.896c0.283-2.119,0.031-5.48-5.124-3.27C243.3,388.505,240.722,389.156,239.078,388.847z
				 M232.138,353.792c-2.308,6.668-3.153,14.109-1.979,17.656c1.208,3.604,1.807,3.449,4.512,4.955c0.783,0.445,1.458,1.219,2,2.087
				c0,0.011-0.01,0.021-0.01,0.03c-0.933,2.563-1.434,3.708-0.074,6.377c0.02-3.613,2.186-9.28-1.555-14.179
				C231.327,365.866,230.531,363.292,232.138,353.792z M137.571,283.778v14.874l0,0c0.677,0.967,2.438,1.839,4.722,3.007
				c5.243,2.681,23.592,8.425,35.05,3.033c3.941-1.854,9.874-6.85,15.971-12.6c10.59-9.982,21.645-22.25,23.565-24.39
				c-0.112-8.263-0.04-18.692-0.04-18.692s-5.269,6.081-12.519,13.72c-0.038,3.328-0.247,6.585-0.838,8.198
				c-1.479,4.028-8.647,14.375-9.584,15.979c-0.928,1.573-3.604,4.763-6.376,5.95c-0.59,0.957-1.055,1.632-1.323,1.903
				c-1.613,1.613-3.498,0.802-2.957-1.208c0.395-1.475,4.064-10.877,6.01-15.819c-0.511,0.473-1.02,0.94-1.526,1.402
				c-3.726,5.874-8.606,13.509-9.343,14.32c-1.207,1.343-4.704,0.261-2.955-3.229c0.195-0.394,0.479-0.981,0.824-1.704
				c-3.607,2.517-6.789,4.168-9.161,4.432c-12.917,1.434-18.023-9.18-18.023-9.18h-11.496V283.778z M226.56,310.33
				c0.642,2.564,1.184,4.897,1.562,6.931c1.271,9.456,5.146,24.195,4.751,32.51C235.361,336.901,234.806,329.121,226.56,310.33z"/>
		</g>
	</g>
	<g>
		<path fill="#83482C" d="M131,116.762c1.005,1.625,2.013,10.288,7.116,9.745c5.105-0.541,5.879-6.187,6.033-8.814
			c0,0-1.702,7.658-6.574,6.729C132.702,123.491,131,116.762,131,116.762z"/>
	</g>
	<circle fill="#83482C" cx="137.579" cy="224.791" r="1.958"/>
</g>
<circle fill="#83482C" cx="176.521" cy="163.225" r="5.188"/>
<path fill="#83482C" d="M149.188,50.185c0,0-2.004,0.226-4.458,0.604c-2.455,0.379-3.183,1.211-3.906,0
	c0.793,0.067,1.378-0.845,1.378-0.845s1.112,0.948,1.82-0.141C145.353,50.062,149.188,50.185,149.188,50.185z"/>
<path fill="#83482C" d="M126.201,50.185c0,0,2.004,0.226,4.459,0.604s3.033,1.211,3.758,0c-0.794,0.067-1.23-0.845-1.23-0.845
	s-1.112,0.948-1.818-0.141C130.037,50.062,126.201,50.185,126.201,50.185z"/>
<g>
	<g>
		<path fill="#FFFFFF" d="M137.359,75.612c1.223,0,4.921-0.539,7.062-1.95c-0.065-0.095-0.144-0.175-0.236-0.23
			c-0.479-0.29-1.3-0.084-1.158,0.271c0.002-0.007-0.896-0.317-0.906,0.281c-0.337-0.043-0.492,0.006-0.534,0.322
			c-0.343-0.285-0.872-0.353-1.188,0.348c-0.342-0.194-1.439-0.138-1.574,0.193c-0.07-0.088-1.201-0.258-1.448,0.056
			c-0.244-0.313-1.376-0.144-1.446-0.056c-0.133-0.331-1.229-0.388-1.574-0.193c-0.313-0.7-0.845-0.633-1.188-0.348
			c-0.042-0.316-0.197-0.365-0.534-0.322c-0.01-0.599-0.904-0.288-0.904-0.281c0.14-0.355-0.682-0.562-1.158-0.271
			c-0.061,0.036-0.103,0.094-0.148,0.146C132.55,74.808,136.191,75.612,137.359,75.612z"/>
		<path fill="#FFFFFF" d="M130.391,73.558c0.015-0.019,0.031-0.032,0.045-0.057c0.023,0.036,0.061,0.087,0.102,0.143
			c0.17,0.096,0.353,0.188,0.538,0.277c0.132-0.043,0.275-0.165,0.43-0.447c0.37,0.66,1.058,0.872,1.581-0.007
			c0.209,1.067,1.402,0.96,1.762,0.234c0.121,0.742,0.91,0.76,1.492,0.735c0.582-0.026,0.787-0.099,0.958-0.202
			c0.035-0.021,0.061-0.077,0.078-0.153c0.021,0.077,0.045,0.133,0.08,0.153c0.171,0.104,0.375,0.176,0.958,0.202
			c0.584,0.023,1.37,0.007,1.495-0.735c0.357,0.726,1.549,0.833,1.758-0.234c0.523,0.878,1.211,0.667,1.582,0.007
			c0.509,0.938,0.932,0.229,1.068,0.027c0.042,0.074,0.093,0.111,0.146,0.134c0.714-0.479,1.247-1.055,1.45-1.743
			c-0.179-0.041-0.565,0.281-0.563,0.282c-0.002,0,0.058-0.27,0.009-0.415c-0.063-0.014-0.123-0.031-0.185-0.044
			c-0.218,0.154-0.575,0.678-0.572,0.679c0,0,0.147-0.578-0.066-0.626c-0.221-0.05-0.918,0.812-0.914,0.814
			c-0.002,0.001,0.33-1.072-0.285-1.146c-0.007-0.001-0.014-0.001-0.02-0.002c-0.641-0.049-1.525,1.302-1.519,1.305
			c0.001,0.002-0.027-1.117-0.48-1.096c-0.454,0.021-1.115,0.813-1.333,1.218c-0.07-0.459-0.236-1.15-0.752-1.402
			c-0.402,0.041-0.754,0.086-1.039,0.129c-0.438,0.341-0.659,0.974-0.746,1.235c-0.03,0.085-0.052,0.195-0.071,0.319
			c-0.017-0.124-0.04-0.234-0.069-0.319c-0.08-0.243-0.276-0.811-0.656-1.162c-0.338-0.031-0.783-0.065-1.307-0.094
			c-0.38,0.309-0.513,0.892-0.574,1.294c-0.219-0.406-0.878-1.196-1.333-1.218c-0.45-0.021-0.481,1.099-0.48,1.096
			c0.005-0.002-0.564-0.866-1.121-1.185c-0.227,0.012-0.455,0.026-0.684,0.043c-0.218,0.317-0.017,0.984-0.018,0.983
			c0.004-0.003-0.694-0.864-0.915-0.814c-0.215,0.048-0.065,0.626-0.065,0.626c0.001-0.001-0.295-0.437-0.512-0.632
			c-0.086,0.012-0.171,0.027-0.258,0.041c-0.025,0.151,0.021,0.372,0.021,0.372c0-0.001-0.388-0.322-0.566-0.282
			C128.935,72.501,129.543,73.062,130.391,73.558z"/>
	</g>
	<path fill="#955E43" d="M141.314,70.65c-1.808,0.26-3.822,0.291-3.955,0.292c-0.132-0.001-2.147-0.032-3.955-0.292
		c-1.696-0.244-4.967,1.104-5.545,1.236c0.767,0.045,1.944,0.154,3.2,0.413c2.148,0.446,4.152,0.398,6.287,0.404v0.002
		c0.005,0,0.009-0.001,0.013-0.001c0.005,0,0.01,0.001,0.013,0.001v-0.002c2.136-0.005,4.14,0.042,6.288-0.404
		c1.256-0.259,2.435-0.368,3.201-0.413C146.282,71.753,143.011,70.406,141.314,70.65z"/>
	<g>
		<path fill="#BC775B" d="M146.861,71.886c-0.057-0.013-0.146-0.04-0.251-0.074c0.08,0.035,0.146,0.063,0.199,0.078
			C146.825,71.889,146.845,71.887,146.861,71.886z"/>
	</g>
</g>
<g>
	
		<radialGradient id="SVGID_1_" cx="-358.7825" cy="52.2063" r="22.8924" gradientTransform="matrix(0.9608 0.2772 0.194 -0.6726 471.5035 333.389)" gradientUnits="userSpaceOnUse">
		<stop  offset="0.3688" style="stop-color:#B0816A;stop-opacity:0.8"/>
		<stop  offset="1" style="stop-color:#B0816A;stop-opacity:0"/>
	</radialGradient>
	<path fill="url(#SVGID_1_)" d="M147.093,181.534c-6.793-0.735-13.736-0.05-20.255,2.003c-4.229,1.332-8.357,3.288-11.52,6.396
		c-3.162,3.109-5.255,7.501-4.87,11.918c0.395,4.546,3.364,8.595,7.157,11.131c3.795,2.534,8.337,3.722,12.856,4.342
		c5.302,0.729,10.768,0.722,15.929-0.695c5.157-1.419,10.004-4.33,13.167-8.648c3.159-4.316,4.47-10.1,2.865-15.204
		c-0.591-1.878-1.603-3.662-2.927-5.119c-1.2-1.316-2.243-3.051-3.818-3.937C153.194,182.32,149.883,181.836,147.093,181.534z"/>
	<g>
		<path fill="#B0816A" d="M159.78,60.818c-0.077,0-0.153-0.005-0.23-0.02c-0.701-0.126-1.166-0.797-1.035-1.496
			c0.526-2.918-0.606-4.656-0.655-4.731c-0.394-0.586-0.243-1.383,0.34-1.782c0.579-0.397,1.372-0.262,1.778,0.316
			c0.07,0.106,1.802,2.633,1.068,6.657C160.934,60.383,160.393,60.818,159.78,60.818z"/>
		<path fill="#B0816A" d="M138.971,61.567c-0.713,0-1.287-0.574-1.287-1.288v-0.752c0-0.708,0.574-1.287,1.287-1.287
			c0.711,0,1.286,0.579,1.286,1.287v0.752C140.258,60.992,139.682,61.567,138.971,61.567z"/>
		<path fill="#B0816A" d="M140.15,86.678c-0.712,0-1.288-0.577-1.288-1.288v-1.288c0-0.711,0.576-1.288,1.288-1.288
			c0.711,0,1.288,0.577,1.288,1.288v1.288C141.438,86.101,140.861,86.678,140.15,86.678z"/>
		<path fill="#B0816A" d="M133.298,122.611c-0.213,0-0.43-0.067-0.61-0.209c-2.093-1.616-2.832-4.768-2.862-4.901
			c-0.124-0.537,0.212-1.072,0.751-1.195c0.539-0.127,1.072,0.211,1.198,0.748c0.006,0.025,0.615,2.592,2.137,3.768
			c0.438,0.339,0.519,0.966,0.18,1.402C133.894,122.477,133.598,122.611,133.298,122.611z"/>
		<path fill="#B0816A" d="M248.352,220.862c-0.041,0-0.084-0.002-0.125-0.008c-0.549-0.067-0.938-0.567-0.869-1.115
			c0.711-5.686-0.451-9.541-0.463-9.579c-0.162-0.527,0.133-1.087,0.66-1.25c0.522-0.164,1.086,0.129,1.25,0.655
			c0.053,0.17,1.307,4.277,0.536,10.422C249.279,220.493,248.848,220.862,248.352,220.862z"/>
	</g>
</g>
<g>
	<g>
		<g>
			<g>
				<g>
					<path fill="none" stroke="#000000" stroke-linecap="round" stroke-linejoin="round" stroke-miterlimit="10" d="M132.551,45.559
						c0,0-6.954-6.382-13.008-1.513"/>
					<path fill="none" stroke="#000000" stroke-linecap="round" stroke-linejoin="round" stroke-miterlimit="10" d="M142.988,45.408
						c0,0,6.499-6.231,12.555-1.362"/>
				</g>
				<path fill="none" stroke="#000000" stroke-linecap="round" stroke-linejoin="round" stroke-miterlimit="10" d="M123.17,86.881
					c4.661,3.159,9.981,3.999,14.205,3.999c4.227,0,9.542-0.84,14.203-3.999"/>
				<g>
					<path fill="none" stroke="#000000" stroke-linecap="round" stroke-linejoin="round" stroke-miterlimit="10" d="M167.529,51.913
						c0,0-2.575,5.795-2.36,9.227c1.073-1.071,1.718-1.179,2.254-0.965"/>
					<path fill="none" stroke="#000000" stroke-linecap="round" stroke-linejoin="round" stroke-miterlimit="10" d="M107.532,51.913
						c0,0,2.576,5.795,2.361,9.227c-1.073-1.071-1.719-1.179-2.253-0.965"/>
				</g>
				<path fill="none" stroke="#000000" stroke-linecap="round" stroke-linejoin="round" stroke-miterlimit="10" d="M142.817,58.482
					c0,0,2.037,1.939,2.037,3.916c0,1.97-1.718,2.492-2.867,2.492"/>
				<path fill="none" stroke="#000000" stroke-linecap="round" stroke-linejoin="round" stroke-miterlimit="10" d="M131.91,58.482
					c0,0-2.038,1.939-2.038,3.916c0,1.97,1.719,2.492,2.867,2.492"/>
				<path fill="none" stroke="#000000" stroke-linecap="round" stroke-linejoin="round" stroke-miterlimit="10" d="M142.345,63.894
					c0,0-1.262-1.485-2.923-0.484c-0.994,0.601-0.514,2.194-2.034,2.194c-1.52,0-1.021-1.617-1.979-2.281
					c-1.602-1.116-2.861,0.602-2.861,0.602"/>
				<g>
					<g>
						<path fill="none" stroke="#000000" stroke-linecap="round" stroke-linejoin="round" stroke-miterlimit="10" d="
							M131.644,49.344c0,0-0.271,0.753-1.174,0.891c-1.207,0.183-1.026-0.046-3.938-0.051c-1.567,0-4.001,0.083-6.305,0.81"/>
						<path fill="none" stroke="#000000" stroke-linecap="round" stroke-linejoin="round" stroke-miterlimit="10" d="
							M127.946,50.208c0,0,4.028,0.997,4.511,0.726c0.482-0.271,0.917-1.482,1.219-2.308"/>
						<path fill="none" stroke="#000000" stroke-linecap="round" stroke-linejoin="round" stroke-miterlimit="10" d="
							M123.685,54.443c0,0,4.289-0.42,8.162-2.661"/>
					</g>
					<g>
						<path fill="none" stroke="#000000" stroke-linecap="round" stroke-linejoin="round" stroke-miterlimit="10" d="
							M143.713,49.344c0,0,0.271,0.753,1.176,0.891c1.206,0.183,1.025-0.046,3.935-0.051c1.569,0,4.003,0.083,6.307,0.81"/>
						<path fill="none" stroke="#000000" stroke-linecap="round" stroke-linejoin="round" stroke-miterlimit="10" d="M147.41,50.208
							c0,0-4.029,0.997-4.512,0.726c-0.481-0.271-0.917-1.482-1.218-2.308"/>
						<path fill="none" stroke="#000000" stroke-linecap="round" stroke-linejoin="round" stroke-miterlimit="10" d="
							M151.672,54.443c0,0-4.29-0.42-8.162-2.661"/>
					</g>
				</g>
				<g>
					<path fill="none" stroke="#000000" stroke-linecap="round" stroke-linejoin="round" stroke-miterlimit="10" d="M126.08,168.051
						c0,0-10.79,12.174-26.047,10.174c-15.263-1.999-16.096-17.157-14.267-30.385"/>
					<path fill="none" stroke="#000000" stroke-linecap="round" stroke-linejoin="round" stroke-miterlimit="10" d="M83.725,150.292
						c0,0-0.563,12.703,3.398,31.232c0,0.001-7.999,10.739-10.992,27.369"/>
					<path fill="none" stroke="#000000" stroke-linecap="round" stroke-linejoin="round" stroke-miterlimit="10" d="M23.794,389.184
						c-1.848-1.05-0.884-5.383-0.161-6.668c0.725-1.288,2.438-1.288,2.438-1.288"/>
					<path fill="none" stroke="#000000" stroke-linecap="round" stroke-linejoin="round" stroke-miterlimit="10" d="M24.351,381.752
						"/>
					<path fill="none" stroke="#000000" stroke-linecap="round" stroke-linejoin="round" stroke-miterlimit="10" d="M32.71,383.798
						c0,0-5.096-3.21-9.618,0"/>
					<path fill="none" stroke="#000000" stroke-linecap="round" stroke-linejoin="round" stroke-miterlimit="10" d="M16.044,389.828
						c-0.962-0.521-2.488-5.812,1.392-6.029"/>
					<path fill="none" stroke="#000000" stroke-linecap="round" stroke-linejoin="round" stroke-miterlimit="10" d="M10.229,389.828
						c-1.539-0.853-2.027-5.922,0.377-6.029"/>
					<path fill="none" stroke="#000000" stroke-linecap="round" stroke-linejoin="round" stroke-miterlimit="10" d="M4.253,389.345
						c-1.354-0.914-1.459-6.32,1.655-6.259"/>
					<path fill="none" stroke="#000000" stroke-linecap="round" stroke-linejoin="round" stroke-miterlimit="10" d="M65.857,202
						c3.898,1.876,7.374,4.199,10.273,6.894c10.184,9.454,33.651,39.485,46.649,43.671"/>
					<path fill="none" stroke="#000000" stroke-linecap="round" stroke-linejoin="round" stroke-miterlimit="10" d="M37.844,367.385
						c-1.294,5.165-0.646,7.588,0.646,11.142c1.292,3.552,1.777,4.361-2.423,10.336c-0.235,0.333-0.486,0.62-0.745,0.887
						c-0.056,0.058-0.114,0.117-0.174,0.174c-0.258,0.245-0.521,0.469-0.795,0.654c-0.028,0.019-0.058,0.032-0.085,0.052
						c-0.261,0.168-0.525,0.309-0.796,0.431c-0.058,0.025-0.113,0.054-0.169,0.076c-0.292,0.117-0.586,0.217-0.885,0.286
						c-0.048,0.01-0.094,0.018-0.143,0.026c-0.269,0.059-0.54,0.1-0.811,0.121c-0.056,0.005-0.11,0.014-0.167,0.016
						c-0.295,0.02-0.588,0.02-0.883,0.004c-0.076-0.003-0.148-0.01-0.225-0.015c-0.24-0.021-0.479-0.044-0.715-0.083
						c-0.069-0.012-0.139-0.018-0.208-0.03c-0.26-0.043-0.517-0.103-0.768-0.164c-0.122-0.032-0.237-0.063-0.356-0.098
						c-0.144-0.04-0.285-0.085-0.428-0.131c-0.258-0.078-0.506-0.167-0.746-0.261c-0.051-0.019-0.101-0.034-0.149-0.055
						c-1.771-0.697-3.028-1.569-3.028-1.569c-2.42,3.068-7.75,0.645-7.75,0.645c-2.584,1.938-5.814,0-5.814,0
						c-3.874,1.135-5.977-0.482-5.977-0.482s-3.066,0.163-3.553-2.26c-0.482-2.422-0.321-4.036,3.068-5.491
						c3.392-1.453,4.197-2.043,6.139-5.49c1.584-2.819,9.292-12.858,9.829-16.333c1.932-5.072,2.677-22.977,2.174-44.924
						c0,0-1.818-84.375,0-94.195c1.819-9.818,6.849-20.276,15.941-23.186c0.75-0.24,1.387-0.427,2.262-0.563"/>
					<path fill="none" stroke="#000000" stroke-linecap="round" stroke-linejoin="round" stroke-miterlimit="10" d="M57.979,267.373
						c0,0,28.368,31.924,39.828,37.316c11.461,5.394,30.354,0.527,35.055-3.032c3.915-2.968,4.717-5.327,4.717-5.327"/>
					<path fill="none" stroke="#000000" stroke-linecap="round" stroke-linejoin="round" stroke-miterlimit="10" d="M38.47,378.516
						c0.544-0.883,1.211-1.666,2.009-2.109c2.704-1.503,3.306-1.354,4.507-4.96c1.202-3.604,0.302-11.271-2.104-18.032
						c-2.403-6.762,2.656-25.082,4.146-36.151c2.91-15.638,15.354-48.819,10.628-72.457"/>
					<path fill="none" stroke="#000000" stroke-linecap="round" stroke-linejoin="round" stroke-miterlimit="10" d="M88.015,144.571
						c0,0-0.408,1.022-5.56,6.95c0,0-14.458,38.58-17.966,42.699c-3.642,4.276,4.659,7.293,17.3,46.857c0,0,3.185,4.282,7.615,4.282
						c4.435,0,9.673-0.672,13.167,1.073c3.495,1.747,6.854,3.763,8.871,5.106c2.013,1.344,0.534,4.837-1.884,4.03
						c-2.419-0.807-10.479-2.688-10.479-2.688s-2.498,1.183-2.364,4.271c0.135,3.092,9.388,24.638,10.464,26.786
						c1.074,2.149-0.94,3.897-3.764,1.076c-2.821-2.823-11.222-18.826-12.431-19.901c-1.21-1.073-3.189-0.242-2.384,1.64
						c0.808,1.882,9.107,19.979,10.854,23.473c1.746,3.493-1.747,4.568-2.957,3.227c-1.208-1.344-13.676-21.189-13.676-21.189
						c-1.477-1.612-2.831-2.641-2.831-2.641"/>
					<path fill="none" stroke="#000000" stroke-linecap="round" stroke-linejoin="round" stroke-miterlimit="10" d="M84.438,274.707
						c0,0,6.664,16.83,7.202,18.847c0.539,2.016-1.345,2.822-2.955,1.21c-1.613-1.613-10.295-18.062-10.295-18.062
						c-1.073-1.748-2.025-3.995-3.721-4.766"/>
					<path fill="none" stroke="#000000" stroke-linecap="round" stroke-linejoin="round" stroke-miterlimit="10" d="M70.829,252.565
						c0,0-0.904,14.327,0.573,18.358c1.479,4.029,8.646,14.376,9.586,15.988c0.939,1.612,3.739,4.928,6.583,6.045"/>
					<path fill="none" stroke="#000000" stroke-linecap="round" stroke-linejoin="round" stroke-miterlimit="10" d="
						M149.077,168.051c0,0,10.79,12.174,26.047,10.174c15.264-1.999,16.097-17.157,14.268-30.385"/>
					<path fill="none" stroke="#000000" stroke-linecap="round" stroke-linejoin="round" stroke-miterlimit="10" d="
						M191.433,150.292c0,0,0.562,12.703-3.399,31.232c0,0.001,7.999,10.739,10.992,27.369"/>
					<path fill="none" stroke="#000000" stroke-linecap="round" stroke-linejoin="round" stroke-miterlimit="10" d="
						M251.363,389.184c1.848-1.05,0.884-5.383,0.16-6.668c-0.724-1.288-2.438-1.288-2.438-1.288"/>
					<path fill="none" stroke="#000000" stroke-linecap="round" stroke-linejoin="round" stroke-miterlimit="10" d="
						M250.807,381.752"/>
					<path fill="none" stroke="#000000" stroke-linecap="round" stroke-linejoin="round" stroke-miterlimit="10" d="
						M242.446,383.798c0,0,5.096-3.21,9.618,0"/>
					<path fill="none" stroke="#000000" stroke-linecap="round" stroke-linejoin="round" stroke-miterlimit="10" d="
						M259.113,389.828c0.962-0.521,2.489-5.812-1.391-6.029"/>
					<path fill="none" stroke="#000000" stroke-linecap="round" stroke-linejoin="round" stroke-miterlimit="10" d="
						M264.929,389.828c1.536-0.853,2.025-5.922-0.379-6.029"/>
					<path fill="none" stroke="#000000" stroke-linecap="round" stroke-linejoin="round" stroke-miterlimit="10" d="
						M270.904,389.345c1.353-0.914,1.459-6.32-1.655-6.259"/>
					<path fill="none" stroke="#000000" stroke-linecap="round" stroke-linejoin="round" stroke-miterlimit="10" d="
						M237.313,367.385c1.293,5.165,0.646,7.588-0.646,11.142c-1.292,3.552-1.776,4.361,2.423,10.336
						c0.235,0.333,0.486,0.62,0.744,0.887c0.058,0.058,0.115,0.117,0.174,0.174c0.26,0.245,0.521,0.469,0.796,0.654
						c0.026,0.019,0.057,0.032,0.085,0.052c0.26,0.168,0.525,0.309,0.797,0.431c0.057,0.025,0.112,0.054,0.17,0.076
						c0.291,0.117,0.585,0.217,0.884,0.286c0.049,0.01,0.094,0.018,0.143,0.026c0.269,0.059,0.539,0.1,0.812,0.121
						c0.055,0.005,0.109,0.014,0.166,0.016c0.294,0.02,0.589,0.02,0.883,0.004c0.075-0.003,0.149-0.01,0.226-0.015
						c0.238-0.021,0.479-0.044,0.715-0.083c0.068-0.012,0.138-0.018,0.208-0.03c0.259-0.043,0.515-0.103,0.768-0.164
						c0.121-0.032,0.238-0.063,0.356-0.098c0.144-0.04,0.284-0.085,0.428-0.131c0.258-0.078,0.506-0.167,0.747-0.261
						c0.05-0.019,0.101-0.034,0.147-0.055c1.771-0.697,3.028-1.569,3.028-1.569c2.421,3.068,7.75,0.645,7.75,0.645
						c2.585,1.938,5.815,0,5.815,0c3.873,1.135,5.976-0.482,5.976-0.482s3.067,0.163,3.552-2.26
						c0.482-2.422,0.321-4.036-3.066-5.491c-3.394-1.453-4.199-2.043-6.141-5.49c-1.584-2.819-9.291-12.858-9.828-16.333
						c-1.932-5.072-2.677-22.977-2.175-44.924c0,0,1.819-84.375,0-94.195c-1.817-9.818-6.848-20.276-15.939-23.186
						c-0.75-0.24-1.388-0.427-2.264-0.563"/>
					<path fill="none" stroke="#000000" stroke-linecap="round" stroke-linejoin="round" stroke-miterlimit="10" d="
						M217.179,267.373c0,0-28.368,31.924-39.828,37.316c-11.461,5.394-29.621-0.742-35.056-3.032
						c-3.833-1.617-5.539-3.875-5.539-3.875"/>
					<path fill="none" stroke="#000000" stroke-linecap="round" stroke-linejoin="round" stroke-miterlimit="10" d="
						M236.687,378.516c-0.544-0.883-1.211-1.666-2.009-2.109c-2.703-1.503-3.307-1.354-4.509-4.96
						c-1.2-3.604-0.301-11.271,2.104-18.032c2.403-6.762-2.656-25.082-4.146-36.151c-2.91-15.638-15.354-48.819-10.628-72.457"/>
					<g>
						<path fill="none" stroke="#000000" stroke-linecap="round" stroke-linejoin="round" stroke-miterlimit="10" d="
							M204.521,254.628c4.512-3.665,33.146-40.988,30.328-61.853c-4.344-32.126-24.734-60.901-24.734-60.901
							s-1.973-15.789-12.688-21.429c-10.716-5.639-17.317-2.478-28.396-2.083c-12.979,0.463-13.744-11.865-13.744-11.865
							c1.763,0.293,2.234,0.732,3.895-2.197c2.396,3.317,7.681-1.899,7.92-4.988c1.511,0.128,3.477-0.616,4.495-1.795
							c0.35-0.405,1.913-4.886,1.22-4.927c3.742,0.211,3.934-2.12,4.089-5.225c4.037-0.085,3.275-3.664,3.396-6.816
							c-0.025,0.708,3.948-2.438,4.272-3.212c1.011-2.396-0.022-4.356-0.041-6.769c-0.012-1.737,1.854-2.339,2.339-3.914
							c0.589-1.905-0.824-4.212-2.032-5.389c1.104-0.631,2.49-2.91,2.618-4.2c0.062-0.613-1.653-4.812-2.389-3.857
							c2.583-3.346,2.412-9.52-2.441-10.782c1.622-1.285,1.263-3.956,0.404-5.558c-0.367-0.688-3.594-3.204-3.566-2.589
							c-0.166-3.576-0.291-7.917-4.694-7.457c0.444-1.775,0.325-3.568-0.827-5.013c-0.717-0.896-2.126-1.763-3.196-1.937
							c-0.921-0.148-2.358,0.702-3.104,0.083c-1.009-0.835-0.483-3.438-2.065-4.411c-1.7-1.049-3.809,0.65-5.506,0.688
							c-0.321-1.6-1.716-3.902-3.233-4.479c-2.409-0.91-4.431,1.497-6.571,1.595c-0.97-3.494-3.741-2.794-6.263-1.824
							c-0.562,0.217-2.113,1.178-2.687,1.103c-0.586-0.079-0.578-0.564-1.104-0.74c-1.229-0.413-2.224-1.323-3.677-1.386
							c-1.885-0.08-2.992,1.062-4.643,1.741c-1.559,0.639-1.501,0.522-3.358-0.043c-3.031-0.92-4.758-0.225-6.614,2.364
							c-1.427-2.898-6.184,1.344-7.129,3.126c-2.51-0.942-5.527,0.04-6.935,2.671c-0.714,1.332-0.786,3.646-1.754,4.342
							c-0.948,0.681-2.734-0.078-3.854,0.896c-1.896,1.653-1.204,4.11-2.23,5.89c-0.784,1.361-2.385,1.291-3.411,2.504
							c-0.628,0.738-1.458,6.07-1.421,6.058c-5.665,1.729-4.392,5.425-3.731,9.953c0.207,1.418,0.473,0.631-0.263,2.087
							c-0.688,1.357-2.252,2.653-2.159,4.298c0.081,1.403,1.588,2.944,2.022,4.298c-1.636,0.851-1.81,2.301-1.594,3.999
							c0.172,1.355,0.397,2.372,1.077,3.501c0.438,0.728,1.883,1.534,2.13,2.218c0.495,1.368-0.786,3.635-0.216,5.774
							c0.7,2.628,2.638,2.947,3.862,4.819c-1.295,0.96-1.072,3.966-0.409,5.472c0.941,2.146,3.124,2.938,4.792,4.098
							c-1.534,0.438-1.463,2.378-0.743,3.654c0.911,1.609,2.938,1.497,3.8,2.644c1.1,1.458,0.515,2.802,2.396,4.336
							c2.048,1.668,2.771,1.108,5.029,1.479c0.03,4.637,4.778,4.364,8.693,3.817c0,0-0.766,12.328-13.744,11.865
							c-11.079-0.395-17.682-3.556-28.396,2.083c-10.716,5.64-12.688,21.429-12.688,21.429s-20.392,28.774-24.733,60.901
							c-2.819,20.863,25.815,58.188,30.328,61.853"/>
						<path fill="none" stroke="#000000" stroke-linecap="round" stroke-linejoin="round" stroke-miterlimit="10" d="
							M187.143,144.571c0,0,0.407,1.022,5.559,6.95c0,0,14.458,38.58,17.966,42.699c3.643,4.276-4.659,7.293-17.3,46.857
							c0,0-3.184,4.282-7.615,4.282c-4.435,0-9.673-0.672-13.167,1.073c-3.495,1.747-6.854,3.763-8.871,5.106
							c-2.013,1.344-0.533,4.837,1.885,4.03c2.419-0.807,10.479-2.688,10.479-2.688s2.498,1.183,2.364,4.271
							c-0.134,3.092-9.387,24.638-10.463,26.786c-1.075,2.149,0.939,3.897,3.763,1.076c2.822-2.823,11.222-18.826,12.431-19.901
							c1.21-1.073,3.189-0.242,2.385,1.64c-0.809,1.882-9.108,19.979-10.855,23.473s1.747,4.568,2.956,3.227
							c1.209-1.343,13.677-21.189,13.677-21.189c1.478-1.612,2.831-2.641,2.831-2.641"/>
						<path fill="none" stroke="#000000" stroke-linecap="round" stroke-linejoin="round" stroke-miterlimit="10" d="
							M190.72,274.707c0,0-6.665,16.83-7.202,18.847c-0.539,2.016,1.344,2.822,2.955,1.21c1.612-1.613,10.295-18.062,10.295-18.062
							c1.072-1.748,2.024-3.995,3.72-4.766"/>
						<path fill="none" stroke="#000000" stroke-linecap="round" stroke-linejoin="round" stroke-miterlimit="10" d="
							M204.328,252.565c0,0,0.904,14.327-0.573,18.358c-1.479,4.029-8.646,14.376-9.586,15.988
							c-0.938,1.612-3.738,4.928-6.583,6.045"/>
					</g>
					<path fill="none" stroke="#000000" stroke-linecap="round" stroke-linejoin="round" stroke-miterlimit="10" d="M209.3,202
						c-3.898,1.876-7.374,4.199-10.273,6.894c-10.185,9.454-33.651,39.485-46.649,43.671"/>
					<path fill="none" stroke="#000000" stroke-linecap="round" stroke-linejoin="round" stroke-miterlimit="10" d="
						M109.471,243.587c0,0,5.536,4.669,14.68,6.954"/>
					<path fill="none" stroke="#000000" stroke-linecap="round" stroke-linejoin="round" stroke-miterlimit="10" d="
						M165.679,243.587c0,0-5.537,4.669-14.681,6.954"/>
				</g>
				<g>
					<path fill="none" stroke="#000000" stroke-linecap="round" stroke-linejoin="round" stroke-miterlimit="10" d="M146.543,71.906
						c0,0-3.508,3.706-9.184,3.706c-4.882,0-9.186-3.706-9.186-3.706s-0.493-0.029-0.405,0c2.148,5.036,6.24,7.45,9.591,7.45
						c3.353,0,7.979-2.778,9.591-7.45C147.039,71.876,146.543,71.906,146.543,71.906z"/>
					<path fill="none" stroke="#000000" stroke-linecap="round" stroke-linejoin="round" stroke-miterlimit="10" d="M141.314,70.65
						c-1.808,0.26-3.822,0.291-3.955,0.292c-0.132-0.001-2.147-0.032-3.955-0.292c-1.696-0.244-4.967,1.104-5.545,1.236
						c0.767,0.045,1.944,0.154,3.2,0.413c2.148,0.446,4.152,0.398,6.287,0.404v0.002c0.005,0,0.009-0.001,0.013-0.001
						c0.005,0,0.01,0.001,0.013,0.001v-0.002c2.136-0.005,4.14,0.042,6.288-0.404c1.256-0.259,2.435-0.368,3.201-0.413
						C146.282,71.753,143.011,70.406,141.314,70.65z"/>
					<path fill="none" stroke="#000000" stroke-linecap="round" stroke-linejoin="round" stroke-miterlimit="10" d="M146.95,71.906
						c0,0,1.39,0.899,2.263,0.026"/>
					<path fill="none" stroke="#000000" stroke-linecap="round" stroke-linejoin="round" stroke-miterlimit="10" d="M127.757,71.906
						c0,0-1.388,0.899-2.26,0.026"/>
				</g>
			</g>
		</g>
		<path fill="none" stroke="#000000" stroke-linecap="round" stroke-linejoin="round" stroke-miterlimit="10" d="M155.285,96.498
			c-0.23-4.338,0.732-10.127,1.621-14.146c2.55-3.498,4.532-8.328,5.354-14.849c0.144,0.039,0.562,0.155,0.907,0.146
			c0.821,0.029,2.241-0.299,3.77-2.347c1.807-2.416,3.234-4.811,3.807-7.816c0.531-2.792-0.271-1.738-1.672-3.42
			c-0.928-1.11-0.087-2.541-0.677-3.516c-0.512-0.851-1.854-0.86-2.734-1.063c0,0.011,0,0.029,0,0.039
			c-0.058-0.02-0.115-0.028-0.173-0.039c-0.02,1.459-0.618,2.898-2.174,3.237c0.048,0.783-0.406,1.71-1.103,1.769
			c-0.174-0.011-0.366-0.088-0.561-0.232c-1.033-0.772-0.453-3.463,0.406-4.101c-2.059-0.136-1.487-5.182-0.348-6.157
			c-1.787-0.029-3.142-3.702-1.798-4.766c-0.146,0.106,0,0,0.105-0.076c-0.513,0.404-1.093,0.607-1.671,0.627
			c-0.938-0.029-2.021-0.518-2.631-1.387c-1.158-1.671-0.065-3.724-0.849-5.473c-0.956,0.3-1.894,0.502-2.763,0.551
			c-0.202,0.01-0.405-0.001-0.608,0c-2.123,0.008-3.672-1.294-3.826-4.144c-0.83,0.386-1.546,0.771-2.271,0.966
			c0.021,0.01,0.049,0.02,0.067,0.029c-0.821,0.203-1.672,0.125-2.704-0.57c-1.701-1.149-0.986-2.879-2.57-2.687
			c-1.556,0.175-2.984,2.349-4.6,2.474c-1.633,0.125-2.356-0.908-3.486-1.749c0.841,0.628-2.29,3.313-2.677,3.556
			c-0.83,0.513-1.469,0.734-2.146,0.753c-0.59-0.018-1.37-0.175-2.222-0.41c0.002,0.002,0.01,0.004,0.01,0.006
			c-0.028-0.011-0.058-0.018-0.087-0.024c0.005,0.001,0.009,0.001,0.013,0.002c-0.033-0.009-0.064-0.017-0.1-0.026
			c-0.068,3.054-1.519,6.192-4.977,6.231c-0.066,0-0.135,0-0.213-0.009v0.009c-0.058,0-0.114,0-0.173-0.009
			c-0.059,2.058-0.301,4.512-1.721,6.125c-0.453,0.502-4.203,2.744-4.184,3.101c0.067,1.401-0.541,2.522-0.656,3.807
			c-0.088,1.054,0.435,1.526,0.628,2.753c0.261,1.7-0.55,2.695-1.401,2.879c0,0.01,0,0.028,0,0.039
			c-0.937,0.097-1.864-0.813-1.361-2.89c-1.738-0.105-2.879-2.242-2.677-3.835c-0.453,1.44-2.55,4.521-4.027,3.208
			c1.11,0.995,0.53,4.966,1.043,6.531c0.704,2.125,1.962,3.932,3.284,5.71c2,2.676,3.815,2.415,4.349,2.26
			c0.801,6.367,2.694,11.063,5.169,14.53c0.048,0.078,0.105,0.155,0.154,0.232c0.202,0.907,0.414,1.922,0.617,2.976
			c0.098,0.532,0.193,1.062,0.301,1.613c0.048,0.329,0.104,0.646,0.152,0.976c0.039,0.231,0.068,0.463,0.107,0.705h0.009
			c-0.009,0.009-0.009,0.009,0,0.009c0.406,2.715,0.671,5.528,0.545,7.896"/>
	</g>
	
		<circle fill="none" stroke="#83482C" stroke-linecap="round" stroke-linejoin="round" stroke-miterlimit="10" cx="98.636" cy="163.225" r="5.188"/>
	
		<circle fill="none" stroke="#83482C" stroke-linecap="round" stroke-linejoin="round" stroke-miterlimit="10" cx="176.521" cy="163.225" r="5.188"/>
</g>
<g>
	<path fill="#955E43" d="M121.608,275.538v-0.002c1.063,6.061,4.704,11.203,7.132,13.872c2.124,2.336,4.536,2.883,6.691,3.011
		c-0.011,0.142-0.04,1.008,0.617,1.008c0.714,0,0.867,0.963,1.529,0.964c0,0,0,0,0.002,0c0.663-0.001,0.814-0.964,1.529-0.964
		c0.656,0,0.628-0.866,0.617-1.008c2.155-0.128,4.567-0.675,6.691-3.011c2.427-2.669,6.068-7.813,7.132-13.872v0.002
		c0,0,1.884-1.656,1.825-3.638c-0.06-1.98-0.912-2.031-0.912-2.031s0.014-0.827-0.913-1.12v0.418
		c-1.31-6.533-6.874-12.711-15.971-12.711c-0.002,0-0.002,0-0.002,0c-9.098,0-14.661,6.178-15.972,12.711v-0.418
		c-0.927,0.293-0.912,1.12-0.912,1.12s-0.854,0.051-0.911,2.031C119.724,273.882,121.608,275.538,121.608,275.538z"/>
	<path fill="#83482C" d="M128.74,289.408c2.707,2.977,5.881,3.051,8.394,3.051c-2.227,0-5.024-0.096-7.412-3.031
		c-2.551-3.134-6.609-9.7-6.609-17.146c0-7.447,5.151-15.59,14.468-15.59c0,0,0,0,0.002,0c9.314,0,14.469,8.143,14.469,15.59
		c0,7.446-4.061,14.014-6.611,17.146c-2.388,2.937-5.186,3.031-7.411,3.031c2.513,0,5.688-0.074,8.394-3.051
		c2.868-3.156,7.435-9.766,7.435-17.262c0-7.494-5.796-15.69-16.272-15.69c-0.002,0-0.002,0-0.002,0
		c-10.479,0-16.272,8.196-16.272,15.69C121.305,279.643,125.872,286.252,128.74,289.408z"/>
</g>
<g>
	<path fill="none" stroke="#000000" stroke-linecap="round" stroke-linejoin="round" stroke-miterlimit="10" d="M135.432,292.398
		c0,0-0.1,1.028,0.616,1.028c0.714,0,0.867,0.963,1.529,0.964l0,0c0,0,0,0,0.002,0l0,0l0,0c0.663-0.001,0.814-0.964,1.529-0.964
		c0.716,0,0.615-1.028,0.615-1.028"/>
	<path fill="none" stroke="#000000" stroke-linecap="round" stroke-linejoin="round" stroke-miterlimit="10" d="M121.305,272.147
		c0,7.496,4.565,14.104,7.435,17.262c2.868,3.154,6.265,3.05,8.841,3.05c2.574,0,5.971,0.104,8.839-3.05
		c2.868-3.156,7.435-9.766,7.435-17.262c0-7.494-5.796-15.69-16.272-15.69l0,0l0,0c-0.002,0-0.002,0-0.002,0l0,0
		C127.1,256.456,121.305,264.653,121.305,272.147z"/>
	<g>
		<path fill="none" stroke="#000000" stroke-linecap="round" stroke-linejoin="round" stroke-miterlimit="10" d="M153.552,275.538
			c0,0,1.884-1.656,1.825-3.638c-0.06-1.98-0.912-2.031-0.912-2.031s0.014-0.827-0.913-1.12"/>
		<path fill="none" stroke="#000000" stroke-linecap="round" stroke-linejoin="round" stroke-miterlimit="10" d="M121.608,275.538
			c0,0-1.884-1.656-1.824-3.638c0.059-1.98,0.911-2.031,0.911-2.031s-0.015-0.827,0.913-1.12"/>
	</g>
</g>
</svg>
