<?xml version="1.0" encoding="utf-8"?>
<!-- Generator: Adobe Illustrator 22.0.0, SVG Export Plug-In . SVG Version: 6.00 Build 0)  -->
<svg version="1.1" id="Layer_1" xmlns="http://www.w3.org/2000/svg" xmlns:xlink="http://www.w3.org/1999/xlink" x="0px" y="0px"
	 width="218.137px" height="501.001px" viewBox="0 0 218.137 501.001" enable-background="new 0 0 218.137 501.001"
	 xml:space="preserve">
<g>
	<g>
		<g>
			<path fill="none" stroke="#000000" stroke-linecap="round" stroke-linejoin="round" stroke-miterlimit="10" d="M213.872,248.492
				c-2.493-1.154-5.385-1.424-8.117-4.781c-2.734-3.357-3.553-2.751-8.148-5.283c-4.599-2.534-6.232-4.447-6.738-6.885
				c-0.507-2.44-2.986-16.518-3.791-31.807c-0.807-15.287-4.777-28.004-7.457-31.354c-2.68-3.35-1.17-9.758-3.18-17.463
				c-2.012-7.706-6.197-30.82-6.699-37.687c-0.504-6.871-1.174-12.564-5.695-18.26c-4.523-5.695-12.395-5.193-19.598-7.537
				c-5.822-3.518-8.754-11.558-10.512-20.478c-1.761-8.921,3.391-22.99,3.266-26.509c-0.125-3.516,1.383-4.899,0-12.312
				c-1.381-7.412-2.514-11.18-9.297-19.22c-6.715-7.959-18.592-8.409-18.832-8.417h-0.006h-0.006
				c-0.24,0.008-12.117,0.458-18.834,8.417c-6.783,8.041-7.914,11.808-9.297,19.22c-1.381,7.412,0.127,8.795,0,12.312
				c-0.125,3.519,5.025,17.588,3.268,26.509c-1.758,8.92-4.692,16.96-10.512,20.478c-7.203,2.344-15.076,1.842-19.6,7.537
				c-4.521,5.695-5.191,11.389-5.693,18.26c-0.504,6.867-4.689,29.981-6.701,37.687c-2.01,7.705-0.5,14.113-3.18,17.463
				c-2.68,3.35-6.65,16.066-7.457,31.354c-0.805,15.288-3.033,27.781-3.566,30.35c-0.533,2.566-2.358,5.953-6.956,8.486
				c-4.597,2.533-5.415,1.928-8.149,5.283c-2.73,3.357-5.624,3.629-8.117,4.781c-2.492,1.154-5.529,2.121-2.497,3.625
				c3.031,1.504,5.185,0.932,6.827-0.324c1.643-1.258,4.494-1.684,5.99-2.245c1.498-0.559,3.978,0.101,3.375,4.046
				c-0.601,3.945-0.185,6.141-1.422,8.936c-1.234,2.797-6.032,13.283-7.049,15.034c-1.019,1.751,1.049,3.345,2.69,2.087
				c1.644-1.259,6.706-11.982,7.95-14.121c1.246-2.139,4.525-2.184,3.792,0.645c-0.731,2.826-2.204,16.551-2.608,18.137
				c-0.402,1.588,3.724,4.119,4.326,0.172c0.603-3.945,1.834-15.465,2.084-17.012c0.248-1.547,3.041-3.438,3.258,1.114
				c0.215,4.552,0.6,12.845,0.657,14.312c0.058,1.465,3.462,1.883,3.507-0.436c0.045-2.316-0.094-15.283-0.111-16.596
				c-0.02-1.311,1.104-3.912,2.922-0.773c1.818,3.141,4.47,10.67,5.298,11.933c0.827,1.263,3.33,0.765,1.974-2.497
				c-1.356-3.262-3.587-11.067-4.035-12.76c-0.449-1.693-0.67-3.773-0.162-6.213c0.507-2.438,1.323-10.555,1.178-15.455
				c-0.143-4.899,1.982-9.9,3.687-15.896c1.705-5.994,8.412-24.211,12.096-35.268c3.684-11.054,2.023-16.143,4.869-24.351
				c2.85-8.208,3.119-16.825,3.789-24.028c0,0,1.34,18.09,4.523,27.639c3.182,9.549,4.523,18.426,3.518,21.105
				c-1.006,2.681-10.555,21.273-13.234,35.846c-2.68,14.573-6.197,24.791-6.701,37.522c-0.502,12.73,1.678,34.505,4.523,48.91
				c2.848,14.406,2.682,19.766,2.01,24.792c-0.67,5.024-0.502,15.242-0.838,19.43c-0.334,4.189-3.182,13.234-4.018,23.116
				c-0.838,9.882-3.352,22.11-0.336,40.704c3.014,18.592,5.695,33.165,4.188,43.048c-1.508,9.884-1.34,12.898-1.508,15.913
				c-0.168,3.017-1.34,7.035-2.846,9.716c-1.51,2.681-2.137,3.142-4.775,4.271c-2.637,1.13-2.764,2.388-2.387,4.271
				c0.377,1.885,2.764,1.759,2.764,1.759s1.635,1.259,4.648,0.377c0,0,2.512,1.508,4.523,0c0,0,4.146,1.885,6.029-0.501
				c0,0,6.281,4.397,9.547-0.252c3.268-4.648,2.891-5.276,1.885-8.04c-1.004-2.764-1.508-4.648-0.502-8.669
				c1.006-4.02,2.011-6.406,0.879-10.302c-1.129-3.895-2.135-8.038,1.132-20.352c3.267-12.311,11.431-40.829,11.306-57.036
				c-0.125-16.205-1.885-24.119,0.629-31.783c2.512-7.664,3.77-15.201,3.77-21.482c0-6.282,2.764-24.874,3.266-32.412
				c0.504-7.539,6.532-26.382,6.406-35.051c-0.126-8.668-1.131-11.305-0.376-13.316c0.751-2.006,3.257-2.01,4.392-2.01
				c1.133,0,3.639,0.004,4.393,2.01c0.752,2.012-0.254,4.648-0.379,13.316c-0.125,8.669,5.906,27.512,6.408,35.051
				c0.502,7.538,3.266,26.13,3.266,32.412c0,6.281,1.256,13.818,3.77,21.482c2.512,7.664,0.752,15.578,0.627,31.783
				c-0.125,16.207,8.041,44.725,11.307,57.036c3.268,12.314,2.262,16.457,1.131,20.352c-1.131,3.896-0.125,6.282,0.88,10.302
				c1.005,4.02,0.503,5.905-0.503,8.669c-1.004,2.764-1.381,3.392,1.885,8.04c3.266,4.648,9.547,0.252,9.547,0.252
				c1.885,2.386,6.029,0.501,6.029,0.501c2.012,1.508,4.523,0,4.523,0c3.014,0.882,4.648-0.377,4.648-0.377s2.387,0.126,2.764-1.759
				c0.377-1.883,0.25-3.141-2.387-4.271c-2.639-1.13-3.266-1.591-4.773-4.271c-1.508-2.681-2.68-6.699-2.848-9.716
				c-0.168-3.015,0-6.029-1.508-15.913c-1.508-9.883,1.174-24.456,4.188-43.048c3.016-18.594,0.502-30.822-0.334-40.704
				c-0.838-9.882-3.686-18.927-4.02-23.116c-0.336-4.188-0.168-14.405-0.839-19.43c-0.671-5.026-0.837-10.386,2.011-24.792
				c2.846-14.405,5.025-36.18,4.523-48.91c-0.504-12.731-4.021-22.949-6.701-37.522c-2.68-14.572-12.227-33.165-13.232-35.846
				c-1.006-2.68,0.336-11.557,3.518-21.105c3.182-9.549,4.523-27.639,4.523-27.639c0.668,7.203,0.938,15.82,3.787,24.028
				c2.848,8.208,1.186,13.297,4.869,24.351c3.686,11.057,10.391,29.273,12.096,35.268c1.705,5.996,3.839,10.852,3.692,15.752
				c-0.143,4.9,0.673,13.018,1.179,15.455c0.508,2.439,0.287,4.52-0.161,6.213c-0.449,1.691-2.679,9.498-4.034,12.76
				c-1.358,3.262,1.145,3.76,1.973,2.496c0.828-1.262,3.477-8.791,5.297-11.932c1.818-3.139,2.941-0.539,2.923,0.773
				c-0.018,1.313-0.157,14.279-0.112,16.596c0.047,2.316,3.448,1.9,3.507,0.435c0.059-1.467,0.442-9.76,0.659-14.312
				c0.218-4.551,3.008-2.66,3.259-1.113c0.247,1.547,1.48,13.066,2.081,17.012c0.604,3.946,4.729,1.416,4.326-0.172
				c-0.402-1.588-1.875-15.31-2.608-18.139c-0.731-2.826,2.547-2.783,3.792-0.642c1.244,2.139,6.309,12.861,7.951,14.121
				c1.642,1.257,3.709-0.337,2.691-2.088c-1.018-1.751-5.814-12.237-7.051-15.033c-1.234-2.795-0.82-4.99-1.422-8.937
				c-0.602-3.944,1.877-4.606,3.376-4.046c1.497,0.562,4.349,0.988,5.991,2.246c1.641,1.256,3.795,1.827,6.825,0.324
				C219.4,250.613,216.364,249.646,213.872,248.492z"/>
			<path fill="#404041" d="M133.936,66.958c-1.761-8.921,3.391-22.99,3.266-26.509c-0.125-3.516,1.383-4.899,0-12.312
				c-1.381-7.412-2.514-11.18-9.297-19.22c-6.715-7.959-18.592-8.409-18.832-8.417l0,0h-0.006h-0.006l0,0
				c-0.24,0.008-12.117,0.458-18.834,8.417c-6.783,8.041-7.914,11.808-9.297,19.22c-1.381,7.412,0.127,8.795,0,12.312
				c-0.125,3.519,5.025,17.588,3.268,26.509c-1.758,8.92-4.692,16.96-10.512,20.478h35.375h0.012h35.375
				C138.625,83.918,135.694,75.878,133.936,66.958z"/>
			
				<path fill="none" stroke="#000000" stroke-width="0.75" stroke-linecap="round" stroke-linejoin="round" stroke-miterlimit="10" d="
				M133.936,66.958c-1.761-8.921,3.391-22.99,3.266-26.509c-0.125-3.516,1.383-4.899,0-12.312c-1.381-7.412-2.514-11.18-9.297-19.22
				c-6.715-7.959-18.592-8.409-18.832-8.417l0,0h-0.006h-0.006l0,0c-0.24,0.008-12.117,0.458-18.834,8.417
				c-6.783,8.041-7.914,11.808-9.297,19.22c-1.381,7.412,0.127,8.795,0,12.312c-0.125,3.519,5.025,17.588,3.268,26.509
				c-1.758,8.92-4.692,16.96-10.512,20.478h35.375h0.012h35.375C138.625,83.918,135.694,75.878,133.936,66.958z"/>
			<path fill="#FCDCCE" d="M213.991,248.85c-2.494-1.156-5.385-1.426-8.117-4.783c-2.735-3.355-3.553-2.75-8.149-5.283
				c-4.598-2.533-6.231-4.446-6.738-6.885c-0.507-2.439-2.98-16.498-3.784-31.788c-0.807-15.287-4.777-28.003-7.457-31.354
				c-2.68-3.349-1.17-9.757-3.18-17.462c-2.012-7.706-6.197-30.82-6.699-37.688c-0.504-6.87-1.174-12.563-5.695-18.259
				c-4.523-5.695-12.395-5.193-19.598-7.538c-7.203-2.345-18.092-7.706-20.773-11.724c-1.811-2.719-0.561-10.097,0.441-14.599
				c1.99-2.722,3.518-6.441,4.158-11.532c0,0,1.646,0.774,3.502-1.707c1.852-2.479,2.951-4.127,3.225-8.381
				c0.273-4.255-0.688-5.148-2.266-5.148c-1.578,0-1.99,2.748-4.324-0.341c-2.332-3.088-11.391-11.805-10.225-18.737
				C99.028,19.486,95.389,31.152,90.45,35.477c-2.914,2.549-3.336-0.758-4.916-0.758c-1.578,0-2.539,0.893-2.266,5.148
				c0.273,4.254,1.373,5.902,3.225,8.381c1.855,2.481,3.502,1.707,3.502,1.707c0.64,5.078,2.16,8.792,4.145,11.514
				c1.002,4.499,2.258,11.894,0.443,14.617c-2.682,4.018-13.568,9.379-20.772,11.724c-7.203,2.345-15.076,1.843-19.6,7.538
				c-4.521,5.696-5.191,11.389-5.693,18.259c-0.504,6.868-4.689,29.982-6.701,37.688c-2.01,7.705-0.5,14.113-3.18,17.462
				c-2.68,3.351-6.65,16.066-7.457,31.354c-0.805,15.29-3.033,27.781-3.566,30.35c-0.533,2.566-2.365,5.935-6.963,8.469
				c-4.596,2.532-5.414,1.927-8.149,5.283c-2.731,3.356-5.624,3.628-8.118,4.782c-2.491,1.154-5.528,2.12-2.497,3.625
				c3.031,1.502,5.186,0.932,6.828-0.326c1.643-1.258,4.494-1.682,5.989-2.244c1.498-0.561,3.977,0.101,3.375,4.045
				c-0.601,3.946-0.186,6.141-1.421,8.936c-1.234,2.797-6.032,13.283-7.049,15.035c-1.02,1.75,1.048,3.344,2.689,2.086
				c1.644-1.258,6.707-11.98,7.951-14.121c1.245-2.139,4.525-2.183,3.791,0.645c-0.731,2.826-2.203,16.551-2.607,18.138
				c-0.402,1.587,3.723,4.118,4.325,0.173c0.603-3.945,1.835-15.465,2.084-17.014c0.248-1.545,3.041-3.436,3.259,1.115
				c0.215,4.551,0.599,12.844,0.657,14.31c0.058,1.467,3.462,1.883,3.507-0.436c0.045-2.314-0.094-15.281-0.112-16.594
				c-0.018-1.313,1.104-3.913,2.923-0.773c1.818,3.139,4.469,10.669,5.298,11.932c0.827,1.262,3.329,0.766,1.974-2.496
				c-1.357-3.262-3.587-11.068-4.035-12.76c-0.451-1.694-0.671-3.775-0.162-6.214c0.506-2.439,1.322-10.556,1.178-15.454
				c-0.144-4.9,1.988-9.883,3.693-15.879c1.705-5.995,8.412-24.211,12.096-35.268c3.684-11.053,2.023-16.143,4.869-24.35
				c2.85-8.209,3.119-16.826,3.789-24.029c0,0,1.34,18.09,4.523,27.639c3.182,9.548,4.523,18.426,3.518,21.105
				c-1.006,2.682-10.555,21.273-13.234,35.846c-2.68,14.573-6.197,24.791-6.701,37.522c-0.502,12.73,1.678,34.505,4.523,48.911
				c2.848,14.405,2.682,19.765,2.01,24.79c-0.67,5.026-0.502,15.243-0.838,19.431c-0.334,4.188-3.182,13.234-4.018,23.116
				c-0.838,9.882-3.352,22.11-0.336,40.704c3.014,18.592,5.695,33.165,4.188,43.048c-1.508,9.884-1.34,12.898-1.508,15.913
				c-0.168,3.018-1.34,7.035-2.846,9.717c-1.51,2.68-2.137,3.14-4.775,4.27c-2.637,1.13-2.764,2.388-2.387,4.271
				c0.377,1.885,2.764,1.76,2.764,1.76s1.635,1.257,4.648,0.376c0,0,2.512,1.508,4.523,0c0,0,4.146,1.885,6.029-0.502
				c0,0,6.281,4.397,9.547-0.251c3.268-4.648,2.891-5.275,1.885-8.04c-1.004-2.764-1.508-4.648-0.502-8.669
				c1.006-4.02,2.011-6.406,0.879-10.301c-1.129-3.896-2.135-8.04,1.132-20.353c3.267-12.311,11.431-40.829,11.306-57.036
				c-0.125-16.205-1.885-24.119,0.629-31.784c2.512-7.663,3.77-15.201,3.77-21.481c0-6.282,2.764-24.874,3.266-32.412
				c0.504-7.539,6.532-26.381,6.406-35.051c-0.126-8.668-1.131-11.306-0.376-13.316c0.751-2.007,3.257-2.01,4.392-2.01
				c1.133,0,3.639,0.003,4.393,2.01c0.752,2.011-0.254,4.648-0.379,13.316c-0.125,8.67,5.906,27.512,6.408,35.051
				c0.502,7.538,3.266,26.13,3.266,32.412c0,6.28,1.256,13.818,3.77,21.481c2.512,7.665,0.752,15.579,0.627,31.784
				c-0.125,16.207,8.041,44.725,11.307,57.036c3.268,12.313,2.262,16.457,1.131,20.353c-1.131,3.895-0.125,6.281,0.881,10.301
				c1.004,4.02,0.502,5.905-0.504,8.669c-1.004,2.765-1.381,3.392,1.885,8.04c3.266,4.648,9.547,0.251,9.547,0.251
				c1.885,2.387,6.029,0.502,6.029,0.502c2.012,1.508,4.523,0,4.523,0c3.014,0.881,4.648-0.376,4.648-0.376s2.387,0.125,2.764-1.76
				c0.377-1.883,0.25-3.141-2.387-4.271c-2.639-1.131-3.266-1.591-4.773-4.27c-1.508-2.682-2.68-6.699-2.848-9.717
				c-0.168-3.015,0-6.029-1.508-15.913c-1.508-9.883,1.174-24.456,4.188-43.048c3.016-18.594,0.502-30.822-0.334-40.704
				c-0.838-9.882-3.686-18.928-4.02-23.116c-0.337-4.188-0.168-14.404-0.839-19.431c-0.671-5.025-0.837-10.385,2.011-24.79
				c2.846-14.406,5.025-36.181,4.523-48.911c-0.504-12.731-4.021-22.949-6.701-37.522c-2.68-14.572-12.227-33.164-13.232-35.846
				c-1.006-2.68,0.336-11.558,3.518-21.105c3.182-9.549,4.523-27.639,4.523-27.639c0.668,7.203,0.938,15.82,3.787,24.029
				c2.848,8.207,1.186,13.297,4.869,24.35c3.686,11.057,10.391,29.272,12.096,35.268c1.705,5.996,3.832,10.834,3.688,15.732
				c-0.146,4.9,0.671,13.018,1.178,15.455c0.508,2.439,0.287,4.52-0.162,6.213c-0.449,1.693-2.679,9.498-4.033,12.762
				c-1.358,3.261,1.145,3.758,1.973,2.495c0.827-1.263,3.477-8.792,5.296-11.931c1.818-3.141,2.942-0.539,2.923,0.772
				c-0.018,1.314-0.157,14.281-0.111,16.596c0.047,2.318,3.448,1.902,3.506,0.436c0.059-1.467,0.443-9.76,0.66-14.311
				c0.217-4.552,3.008-2.659,3.258-1.114c0.246,1.547,1.48,13.067,2.082,17.012c0.603,3.947,4.729,1.416,4.325-0.172
				c-0.402-1.587-1.874-15.311-2.607-18.138c-0.732-2.827,2.546-2.783,3.792-0.644c1.244,2.141,6.309,12.863,7.95,14.121
				c1.642,1.258,3.71-0.336,2.692-2.087c-1.018-1.751-5.815-12.237-7.051-15.034c-1.234-2.795-0.82-4.99-1.422-8.936
				c-0.603-3.945,1.877-4.605,3.375-4.047c1.498,0.564,4.35,0.988,5.992,2.246c1.641,1.258,3.794,1.828,6.824,0.324
				C219.518,250.969,216.483,250.002,213.991,248.85z"/>
			<g>
				<path fill="#F2C4B3" d="M115.563,54.521c-1.102-0.292-1.793-1.462-3.525-2.058c-1.99-0.687-2.965,0-2.965,0
					s-0.977-0.687-2.967,0c-1.732,0.596-2.424,1.766-3.525,2.058c1.252-0.161,4.486-0.548,6.492-0.548
					C111.077,53.973,114.311,54.36,115.563,54.521z"/>
			</g>
			<g>
				<path fill="#F2C4B3" d="M110.682,202.558c0,0.888-0.721,1.61-1.609,1.61c-0.891,0-1.611-0.723-1.611-1.61
					c0-0.89,0.721-1.61,1.611-1.61C109.961,200.947,110.682,201.668,110.682,202.558z"/>
				<path fill="#F2C4B3" d="M143.067,136.77c0,2.346-1.904,4.248-4.25,4.248c-2.346,0-4.248-1.902-4.248-4.248
					s1.902-4.25,4.248-4.25C141.163,132.52,143.067,134.424,143.067,136.77z"/>
				<path fill="#F2C4B3" d="M68.461,125.248c-1.498,10.83-0.5,27.522,11.996,29.156c12.496,1.639,21.328-8.329,21.328-8.329
					c2.174-2.979,4.049-4.854,4.299-7.103c0.25-2.251-14.123,17.405-28.375,11C66.3,144.844,68.461,125.248,68.461,125.248z"/>
				<path fill="#F2C4B3" d="M75.067,136.77c0,2.346,1.904,4.248,4.25,4.248c2.346,0,4.248-1.902,4.248-4.248s-1.902-4.25-4.248-4.25
					C76.971,132.52,75.067,134.424,75.067,136.77z"/>
				<path fill="#F2C4B3" d="M118.844,65.774c-3.376,2.355-9.779,2.337-9.779,2.337c-10.963,0-15.045-6.998-15.045-6.998
					l-0.125-0.005c0.082,0.119,0.16,0.246,0.244,0.361c1.002,4.499,2.258,11.894,0.443,14.617
					c-2.682,4.018-13.568,9.379-20.772,11.724c-0.795,0.259-1.6,0.479-2.404,0.679c10.004-1.037,18.492-6.867,22.49-9.588
					c4.326-2.944,5.707-5.767,9.131-3.905c3.424,1.862,4.445-2.642,7.811-3.484c3.363-0.839,4.625-2.883,8.908-6.275L118.844,65.774
					z"/>
				<path fill="#F2C4B3" d="M122.948,69.734c0.193-2.824,0.773-5.918,1.293-8.247c0.086-0.118,0.168-0.25,0.252-0.373h-0.381
					c0,0-1.512,1.925-2.641,5.444c-1.13,3.519-4.553,17.628-2.824,13.964c1.502-3.186,3.664-5.586,4.025-9.251
					C122.718,70.799,122.815,70.279,122.948,69.734z"/>
				<g>
					<path fill="#F2C4B3" d="M104.084,88.21c0.781,1.263,1.563,7.991,5.527,7.569c3.965-0.421,4.564-4.806,4.686-6.848
						c0,0-1.322,5.947-5.107,5.226C105.407,93.438,104.084,88.21,104.084,88.21z"/>
					<path fill="#F2C4B3" d="M154.384,90.256c-2.853-0.67-5.898-1.132-8.868-1.982c-7.672,0.484-19.889,2.484-23.779,2.879
						c-4.949,0.505-5.348-1.379-3.965-6.785c0,0-3.123,6.926-0.361,7.638c2.764,0.712,8.59-0.905,16.398-1.567
						C140.641,89.855,146.557,89.533,154.384,90.256z"/>
					<path fill="#F2C4B3" d="M100.971,92.005c2.762-0.712-0.361-7.638-0.361-7.638c1.383,5.406,0.984,7.29-3.965,6.785
						c-3.977-0.402-16.654-2.484-24.285-2.91c-3.215,0.886-6.506,1.34-9.529,2.129c8.412-0.866,14.576-0.544,21.742,0.067
						C92.381,91.1,98.207,92.717,100.971,92.005z"/>
				</g>
				<path fill="#F2C4B3" d="M112.959,139.918c1,2.429,8.074,16.993,25.285,14.392c15.465-2.337,11.514-28.392,11.514-28.392
					s1.667,21.555-10.941,24.179C126.209,152.722,112.959,139.918,112.959,139.918z"/>
				<g>
					<path fill="#F2C4B3" d="M144.666,176.215c0.582-2.379,1.303-4.912,2.166-7.5c3.182-9.549,4.521-27.639,4.521-27.639
						c0.105,1.136,0.203,2.309,0.299,3.508c0.09-9.505,0.088-18.963,0.088-18.963l-1.361,2.695l-0.553,10.486
						c-2.969,20.203-21.235,14.85-21.235,14.85c6.62,3.02,9.706,2.444,14.472,3.944C147.776,159.08,144.866,171.313,144.666,176.215
						z"/>
					<path fill="#F2C4B3" d="M161.528,379.436c-0.836-9.882-3.684-18.928-4.018-23.116c-0.335-4.188-0.168-14.404-0.837-19.431
						c-0.672-5.025-0.838-10.385,2.01-24.79c2.846-14.406,5.025-36.181,4.523-48.911c-0.504-12.731-4.021-22.949-6.701-37.522
						c-0.084-0.449-0.174-0.91-0.271-1.378c-2.996-14.343-11.988-31.87-12.963-34.468c-0.732-1.953-0.213-7.207,1.352-13.607v0.001
						c0.283-1.158,0.602-2.355,0.951-3.574c0.012-0.041,0.023-0.083,0.035-0.125c0.156-0.542,0.322-1.091,0.49-1.642
						c0.029-0.089,0.055-0.179,0.082-0.269c0.193-0.626,0.396-1.256,0.607-1.891c0.148-0.444,0.291-0.912,0.432-1.392
						c0.018-0.062,0.035-0.122,0.055-0.185c2.832-9.827,4.037-26.063,4.037-26.063c0.105,1.136,0.201,2.309,0.299,3.508
						c0.09-9.505,0.086-18.963,0.086-18.963l-1.359,2.695l-0.553,10.486c-2.971,20.203-28.348,12.115-28.348,12.115
						c4.133,1.885,8.531,5.557,12.414,8.414l0,0c10.158,7.236,8.309,10.898,7.041,23.057c-1.266,12.16,2.786,12.16,5.32,27.863
						c2.533,15.706-1.5,18.715-13.041,27.101c-11.533,8.38-14.566,11.681-24.127,11.686c-9.561-0.005-12.594-3.306-24.127-11.686
						c-11.541-8.386-15.574-11.395-13.041-27.101c2.533-15.703,6.586-15.703,5.32-27.863c-1.268-12.158-3.117-15.82,7.041-23.057
						l0,0c3.883-2.857,8.281-6.529,12.414-8.414c0,0-25.377,8.088-28.348-12.115l-0.553-10.486l-1.359-2.695
						c0,0-0.004,9.458,0.086,18.963c0.098-1.199,0.193-2.372,0.299-3.508c0,0,1.205,16.235,4.037,26.063
						c0.02,0.063,0.037,0.123,0.055,0.185c0.141,0.479,0.283,0.947,0.432,1.392c0.21,0.635,0.414,1.265,0.607,1.891
						c0.027,0.09,0.053,0.18,0.082,0.269c0.168,0.551,0.334,1.1,0.49,1.642c0.012,0.042,0.023,0.084,0.035,0.125
						c0.35,1.22,0.668,2.416,0.951,3.574v-0.001c1.564,6.399,2.084,11.653,1.352,13.607c-0.975,2.598-9.967,20.125-12.963,34.468
						c-0.098,0.468-0.187,0.929-0.271,1.378c-2.68,14.573-6.197,24.791-6.701,37.522c-0.502,12.73,1.678,34.505,4.523,48.911
						c2.848,14.405,2.682,19.765,2.01,24.79c-0.67,5.026-0.502,15.243-0.838,19.431c-0.334,4.188-3.182,13.234-4.018,23.116
						c-0.838,9.882-3.352,22.11-0.336,40.704c3.014,18.592,5.695,33.165,4.188,43.048c-1.508,9.884-1.34,12.898-1.508,15.913
						c-0.023,0.398-0.064,0.814-0.119,1.242c-0.002,0.002-0.002,0.004-0.002,0.006c5.611-9.087,4.631-26.84,3.131-40.753
						c-1.672-15.5-5.078-51.5-3.328-64c1.75-12.5,16.5-3,13.75-6.5s-5.5-2.25-6.225-6.25c-0.726-4-0.775-6.5,5.975-4.5
						s14.5-8,11.48-6c-3.018,2-6.23,6.75-11.98,3s-6-14-7.25-20s5.5-10.25,7-17.5s-6.25-19.75-9.5-35.5s-0.004-39.457,2.326-51.49
						c0.744-3.843,3.248-7.737,6.158-4.849c3.9,3.869,4.672,6.767,13.918,12.109c9.045,5.224,12.463,9.372,16.77,15.199
						c4.168,5.641,7.809,4.642,8.037,4.572c0.229,0.069,3.869,1.068,8.037-4.572c4.307-5.827,7.725-9.976,16.769-15.199
						c9.246-5.342,10.018-8.24,13.918-12.109c2.91-2.889,5.414,1.006,6.157,4.849c2.331,12.033,5.577,35.74,2.327,51.49
						s-11,28.25-9.5,35.5s8.25,11.5,7,17.5s-1.5,16.25-7.25,20s-8.963-1-11.98-3c-3.02-2,4.73,8,11.48,6s6.699,0.5,5.975,4.5
						c-0.725,4-3.475,2.75-6.225,6.25s12-6,13.75,6.5c1.75,12.5-1.656,48.5-3.328,64c-1.5,13.913-2.48,31.666,3.131,40.753
						c0-0.002,0-0.004-0.002-0.006c-0.055-0.428-0.096-0.844-0.119-1.242c-0.168-3.015,0-6.029-1.508-15.913
						c-1.508-9.883,1.174-24.456,4.188-43.048C164.879,401.547,162.366,389.318,161.528,379.436z"/>
				</g>
				<path fill="#F2C4B3" d="M109.065,251.611l-12.424-3.786c3.457,4.7-0.729,5.813,3.822,14.759c4.551,8.943,1.279,22.219,0,35.613
					c-0.049,0.515-0.086,0.994-0.117,1.457c1.935-8.709,4.92-19.912,4.83-26.039c-0.126-8.668-1.131-11.306-0.376-13.316
					c0.751-2.007,3.257-2.01,4.392-2.01c1.133,0,3.639,0.003,4.393,2.01c0.752,2.011-0.254,4.648-0.379,13.316
					c-0.082,5.711,2.506,15.837,4.426,24.238c-1.301-13.276-4.475-26.402,0.037-35.27c4.55-8.945,0.365-10.059,3.82-14.759
					L109.065,251.611z"/>
				<path fill="#F2C4B3" d="M34.235,188.553c1.365-12.549,7.568-13.369,9.182-16.956c1.613-3.586,0.925-4.196-0.508-8.86
					c-1.434-4.659,1.433-20.794,7.35-32.086c5.916-11.294,4.66-14.343,4.521-20.975c-0.131-6.22,0.264-13.702,4.059-17.9
					c-1.752,0.826-3.33,1.942-4.627,3.572c-4.521,5.696-5.191,11.389-5.693,18.259c-0.504,6.868-4.689,29.982-6.701,37.688
					c-2.01,7.705-0.5,14.113-3.18,17.462c-2.68,3.351-6.65,16.066-7.457,31.354c-0.805,15.29-3.033,27.781-3.566,30.35
					c-0.404,1.947-1.646,4.981-4.13,6.728C34.739,232.261,32.922,200.619,34.235,188.553z"/>
				<path fill="#F2C4B3" d="M45.762,225.635c0.088-0.307,0.168-0.594,0.26-0.912c1.705-5.995,8.412-24.211,12.096-35.268
					c3.684-11.053,2.023-16.143,4.869-24.35c2.85-8.209,3.119-16.826,3.789-24.029c0,0,0.281,3.777,0.889,8.785l0.266-2.888
					l-1.539-21.353c0,0-0.494-1.215-1.627-1.544c0,0,1.123,11.949-1.135,23.781c-2.256,11.831-4.227,13.804-5.303,22.767
					c-1.076,8.963-6.988,36.048-11.651,51.188C46.192,223.387,45.905,224.635,45.762,225.635z"/>
				<path fill="#F2C4B3" d="M184.127,188.553c-1.365-12.549-7.568-13.369-9.182-16.956c-1.613-3.586-0.926-4.196,0.508-8.86
					c1.434-4.659-1.434-20.794-7.35-32.086c-5.916-11.294-4.66-14.343-4.521-20.975c0.131-6.22-0.264-13.702-4.059-17.9
					c1.752,0.826,3.33,1.942,4.627,3.572c4.521,5.696,5.19,11.389,5.693,18.259c0.504,6.868,4.689,29.982,6.701,37.688
					c2.01,7.705,0.5,14.113,3.18,17.462c2.68,3.351,6.65,16.066,7.457,31.354c0.805,15.29,3.279,29.349,3.785,31.788
					c0.385,1.85,1.422,3.398,3.906,5.144C183.619,232.115,185.44,200.619,184.127,188.553z"/>
				<path fill="#F2C4B3" d="M172.6,225.635c-0.088-0.307-0.168-0.594-0.26-0.912c-1.706-5.995-8.412-24.211-12.096-35.268
					c-3.686-11.053-2.023-16.143-4.869-24.35c-2.85-8.209-3.119-16.826-3.789-24.029c0,0-0.281,3.777-0.889,8.785l-0.266-2.888
					l1.539-21.353c0,0,0.494-1.215,1.627-1.544c0,0-1.123,11.949,1.135,23.781c2.256,11.831,4.227,13.804,5.303,22.767
					c1.076,8.963,6.988,36.048,11.65,51.188C172.17,223.387,172.457,224.635,172.6,225.635z"/>
				<path fill="#F2C4B3" d="M76.407,498.742c3.268-4.648,2.891-5.275,1.885-8.04c-1.004-2.764-1.508-4.648-0.502-8.669
					c1.006-4.02,2.011-6.406,0.879-10.301c-0.787-2.715-1.51-5.561-0.772-11.199c-0.105-0.053-0.166-0.084-0.166-0.084
					c-0.922,5.979-3.445,10.096-2.117,15.276c1.328,5.181-0.918,9.165,0.869,13.15c1.789,3.984-1.326,10.899-7.01,11.108
					c-0.244,0.009-0.451,0.035-0.645,0.069C70.95,500.975,74.301,501.74,76.407,498.742z"/>
				<path fill="#F2C4B3" d="M141.995,498.742c-3.268-4.648-2.889-5.275-1.885-8.04c1.006-2.764,1.51-4.648,0.502-8.669
					c-1.004-4.02-2.01-6.406-0.879-10.301c0.789-2.715,1.51-5.561,0.773-11.199c0.104-0.053,0.164-0.084,0.164-0.084
					c0.922,5.979,3.445,10.096,2.117,15.276c-1.328,5.181,0.92,9.165-0.869,13.15c-1.787,3.984,1.328,10.899,7.012,11.108
					c0.242,0.009,0.451,0.035,0.645,0.069C147.454,500.975,144.1,501.74,141.995,498.742z"/>
			</g>
			<g>
				<path fill="#F2C4B3" d="M110.313,43.505c0,0,2.182,2.711-1.24,2.711c-3.422,0-1.24-2.711-1.24-2.711
					c-2.527,0.254-3.02,3.252-3.02,3.252c2.287-0.974,2.605-0.082,3.123,0.643c0.52,0.725,1.137,0.474,1.137,0.474
					s0.617,0.251,1.135-0.474c0.52-0.725,0.836-1.618,3.123-0.643C113.331,46.757,112.838,43.759,110.313,43.505z"/>
				<path fill="#F2C4B3" d="M109.082,48.503c0,0-1.375,1.32-0.98,2.199c0.393,0.879,0.98,0.972,0.98,0.972s0.586-0.093,0.98-0.972
					C110.456,49.823,109.082,48.503,109.082,48.503z"/>
				<path fill="#F2C4B3" d="M119.51,30.785c-2.328-0.235-5-0.244-7.083,0.968c-1.331,0.774-2.985,2.856-1.931,4.419
					c1.027,1.524,3.908,1.259,5.486,1.115c1.284-0.116,2.534-0.461,3.814-0.589c2.586-0.259,7.01-1.663,8.031,1.596
					c0.433,1.382,0.444,2.935,0.174,4.346c-0.164,0.852-0.441,1.68-0.824,2.458c-0.198,0.403-1.529,1.91-1.492,2.218
					c0,0,1.449,12.191-6.281,16.789c-6.076,3.614-7.773,1.484-10.34,1.484c-2.564,0-4.263,2.13-10.338-1.484
					c-7.732-4.598-6.281-16.789-6.281-16.789c-2.08-2.355-3.037-5.739-2.195-8.808c0.231-0.845,0.669-2.096,1.512-2.539
					c1.436-0.755,3.973,0.361,5.471,0.609c1.3,0.215,2.709,0.458,4.008,0.514c1.882,0.08,4.443,0.617,5.881-0.966
					c1.453-1.602,0.149-3.464-1.421-4.375c-2.024-1.174-4.804-1.29-7.081-0.967c-2.27-4.528,8.39-11.724,15.281-14.46
					C98.329,20.917,94.872,31.12,90.325,35.101c-2.914,2.549-3.336-0.757-4.916-0.757c-1.578,0-2.539,0.893-2.266,5.147
					c0.273,4.255,1.373,5.902,3.225,8.382c1.855,2.481,3.502,1.707,3.502,1.707c0.64,5.077,2.16,8.791,4.15,11.534
					c4.657,7.289,15.045,6.997,15.045,6.997s10.389,0.292,15.047-6.997c0.021-0.034,0.049-0.065,0.07-0.101
					c1.957-2.713,3.459-6.401,4.092-11.433c0,0,1.646,0.774,3.502-1.707c1.852-2.48,2.951-4.127,3.225-8.382
					c0.273-4.254-0.688-5.147-2.266-5.147c-1.578,0-1.99,2.747-4.324-0.341c-2.332-3.088-11.391-11.805-10.225-18.738
					C115.563,22.079,127.461,31.587,119.51,30.785z"/>
			</g>
			
				<path fill="none" stroke="#000000" stroke-width="0.75" stroke-linecap="round" stroke-linejoin="round" stroke-miterlimit="10" d="
				M116.348,146.075c0,0,8.829,9.968,21.326,8.329c12.496-1.635,13.496-18.326,11.996-29.156"/>
			
				<path fill="none" stroke="#000000" stroke-width="0.75" stroke-linecap="round" stroke-linejoin="round" stroke-miterlimit="10" d="
				M150.077,129.241c0,0,1.426-5.327,4.426-5.493"/>
			
				<path fill="none" stroke="#000000" stroke-width="0.75" stroke-linecap="round" stroke-linejoin="round" stroke-miterlimit="10" d="
				M151.483,140.701c-0.146-5.789,0.539-15.453,0.539-15.453"/>
			
				<path fill="none" stroke="#000000" stroke-width="0.75" stroke-linecap="round" stroke-linejoin="round" stroke-miterlimit="10" d="
				M111.286,258.135c3.563,0,9.561-10.591,20.39-18.921"/>
			
				<path fill="none" stroke="#000000" stroke-width="0.75" stroke-linecap="round" stroke-linejoin="round" stroke-miterlimit="10" d="
				M151.397,498.619c1.438-0.816,0.563-3.814,0-4.815c-0.563-1-1.895-1-1.895-1"/>
			
				<path fill="none" stroke="#000000" stroke-width="0.75" stroke-linecap="round" stroke-linejoin="round" stroke-miterlimit="10" d="
				M144.336,494.803c0,0,3.963-2.498,7.48,0"/>
			
				<path fill="none" stroke="#000000" stroke-width="0.75" stroke-linecap="round" stroke-linejoin="round" stroke-miterlimit="10" d="
				M157.426,499.12c0.748-0.407,1.813-4.147-1.207-4.317"/>
			
				<path fill="none" stroke="#000000" stroke-width="0.75" stroke-linecap="round" stroke-linejoin="round" stroke-miterlimit="10" d="
				M161.95,499.12c1.197-0.662,1.453-4.232-0.418-4.317"/>
			
				<path fill="none" stroke="#000000" stroke-width="0.75" stroke-linecap="round" stroke-linejoin="round" stroke-miterlimit="10" d="
				M166.598,498.743c1.053-0.71,1.01-4.542-1.41-4.495"/>
			
				<path fill="none" stroke="#000000" stroke-width="0.75" stroke-linecap="round" stroke-linejoin="round" stroke-miterlimit="10" d="
				M155.688,468.341c0,0,0.443,5.473,2.076,8.219c1.633,2.744,1.643,4.325,2.344,6.55"/>
			
				<path fill="none" stroke="#000000" stroke-width="0.75" stroke-linecap="round" stroke-linejoin="round" stroke-miterlimit="10" d="
				M101.786,146.075c0,0-8.832,9.968-21.328,8.329c-12.496-1.635-13.494-18.326-11.996-29.156"/>
			
				<path fill="none" stroke="#000000" stroke-width="0.75" stroke-linecap="round" stroke-linejoin="round" stroke-miterlimit="10" d="
				M68.055,129.241c0,0-1.426-5.327-4.426-5.493"/>
			
				<path fill="none" stroke="#000000" stroke-width="0.75" stroke-linecap="round" stroke-linejoin="round" stroke-miterlimit="10" d="
				M66.651,140.701c0.146-5.789-0.541-15.453-0.541-15.453"/>
			
				<path fill="none" stroke="#000000" stroke-width="0.75" stroke-linecap="round" stroke-linejoin="round" stroke-miterlimit="10" d="
				M106.846,258.135c-3.563,0-9.559-10.591-20.389-18.921"/>
			
				<path fill="none" stroke="#000000" stroke-width="0.75" stroke-linecap="round" stroke-linejoin="round" stroke-miterlimit="10" d="
				M66.735,498.619c-1.438-0.816-0.563-3.814,0-4.814c0.563-1.001,1.896-1.001,1.896-1.001"/>
			
				<path fill="none" stroke="#000000" stroke-width="0.75" stroke-linecap="round" stroke-linejoin="round" stroke-miterlimit="10" d="
				M73.795,494.803c0,0-3.963-2.498-7.48,0"/>
			
				<path fill="none" stroke="#000000" stroke-width="0.75" stroke-linecap="round" stroke-linejoin="round" stroke-miterlimit="10" d="
				M60.705,499.12c-0.748-0.407-1.813-4.147,1.207-4.317"/>
			
				<path fill="none" stroke="#000000" stroke-width="0.75" stroke-linecap="round" stroke-linejoin="round" stroke-miterlimit="10" d="
				M56.182,499.12c-1.197-0.662-1.453-4.232,0.418-4.317"/>
			
				<path fill="none" stroke="#000000" stroke-width="0.75" stroke-linecap="round" stroke-linejoin="round" stroke-miterlimit="10" d="
				M51.534,498.743c-1.053-0.71-1.012-4.542,1.412-4.495"/>
			
				<path fill="none" stroke="#000000" stroke-width="0.75" stroke-linecap="round" stroke-linejoin="round" stroke-miterlimit="10" d="
				M62.444,468.341c0,0-0.443,5.473-2.076,8.219c-1.633,2.744-1.643,4.325-2.342,6.55"/>
			
				<path fill="none" stroke="#000000" stroke-width="0.75" stroke-linecap="round" stroke-linejoin="round" stroke-miterlimit="10" d="
				M14.586,249.693c2.619-0.535,3.673-0.096,9.064-0.533c5.393-0.439,9.146-1.314,10.027-7.289"/>
			
				<path fill="none" stroke="#000000" stroke-width="0.75" stroke-linecap="round" stroke-linejoin="round" stroke-miterlimit="10" d="
				M105.968,43.968c-0.753,0.944-1.166,1.699-1.166,2.593c0,0.891,0.482,1.302,1.579,1.302"/>
			
				<path fill="none" stroke="#000000" stroke-width="0.75" stroke-linecap="round" stroke-linejoin="round" stroke-miterlimit="10" d="
				M112.174,43.968c0.756,0.944,1.166,1.699,1.166,2.593c0,0.891-0.48,1.302-1.578,1.302"/>
			
				<path fill="none" stroke="#000000" stroke-width="0.75" stroke-linecap="round" stroke-linejoin="round" stroke-miterlimit="10" d="
				M112.038,46.834c0,0-1.166-0.341-1.717,0.413c-0.547,0.755-0.553,0.616-1.238,0.616h-0.021c-0.684,0-0.689,0.139-1.238-0.616
				c-0.551-0.754-1.717-0.413-1.717-0.413"/>
			<g>
				
					<path fill="none" stroke="#000000" stroke-width="0.75" stroke-linecap="round" stroke-linejoin="round" stroke-miterlimit="10" d="
					M102.581,54.521c1.252-0.161,4.486-0.548,6.492-0.548c2.004,0,5.238,0.387,6.49,0.548"/>
			</g>
			
				<path fill="none" stroke="#000000" stroke-width="0.75" stroke-linecap="round" stroke-linejoin="round" stroke-miterlimit="10" d="
				M113.34,57.335c0,0-1.676,1.03-4.267,1.03c-2.594,0-4.271-1.03-4.271-1.03"/>
			<g>
				<path fill="#FFFFFF" d="M96.889,36.918c0,0,1.424-2.469,4.061-2.469c2.639,0,3.225,1.466,3.852,2.595
					C104.802,37.044,101.844,37.962,96.889,36.918z"/>
				
					<path fill="none" stroke="#000000" stroke-width="0.75" stroke-linecap="round" stroke-linejoin="round" stroke-miterlimit="10" d="
					M96.889,36.918c0,0,1.424-2.469,4.061-2.469c2.639,0,3.225,1.466,3.852,2.595"/>
				<path d="M102.581,35.875c0,0.784-0.637,1.42-1.42,1.42c-0.787,0-1.422-0.637-1.422-1.42c0-0.787,0.635-1.422,1.422-1.422
					C101.944,34.453,102.581,35.089,102.581,35.875z"/>
				
					<path fill="none" stroke="#000000" stroke-width="0.75" stroke-linecap="round" stroke-linejoin="round" stroke-miterlimit="10" d="
					M104.186,30.995c0,0-4.6-2.044-9.302,1.737"/>
				<path fill="#FFFFFF" d="M121.256,36.918c0,0-1.424-2.469-4.063-2.469c-2.639,0-3.226,1.466-3.854,2.595
					C113.34,37.044,116.557,37.864,121.256,36.918z"/>
				
					<path fill="none" stroke="#000000" stroke-width="0.75" stroke-linecap="round" stroke-linejoin="round" stroke-miterlimit="10" d="
					M121.256,36.918c0,0-1.424-2.469-4.063-2.469c-2.639,0-3.226,1.466-3.854,2.595"/>
				<path d="M115.563,35.875c0,0.784,0.637,1.42,1.42,1.42c0.787,0,1.422-0.637,1.422-1.42c0-0.787-0.635-1.422-1.422-1.422
					C116.2,34.453,115.563,35.089,115.563,35.875z"/>
				
					<path fill="none" stroke="#000000" stroke-width="0.75" stroke-linecap="round" stroke-linejoin="round" stroke-miterlimit="10" d="
					M113.957,30.995c0,0,4.6-2.044,9.302,1.737"/>
			</g>
			<g>
				
					<path fill="none" stroke="#000000" stroke-width="0.75" stroke-linecap="round" stroke-linejoin="round" stroke-miterlimit="10" d="
					M90.262,35.761c0,0-4.299,4.057,0,9.682"/>
				
					<path fill="none" stroke="#000000" stroke-width="0.75" stroke-linecap="round" stroke-linejoin="round" stroke-miterlimit="10" d="
					M127.899,35.761c0,0,4.303,4.057,0,9.682"/>
			</g>
			
				<path fill="none" stroke="#000000" stroke-width="0.75" stroke-linecap="round" stroke-linejoin="round" stroke-miterlimit="10" d="
				M203.552,249.549c-2.62-0.536-3.674-0.096-9.065-0.533c-5.393-0.439-9.146-1.314-10.025-7.29"/>
			
				<path fill="none" stroke="#000000" stroke-width="0.75" stroke-linecap="round" stroke-linejoin="round" stroke-miterlimit="10" d="
				M213.872,248.492c-2.493-1.154-5.385-1.424-8.117-4.781c-2.734-3.357-3.553-2.751-8.148-5.283
				c-4.599-2.534-6.232-4.447-6.738-6.885c-0.507-2.44-2.986-16.518-3.791-31.807c-0.807-15.287-4.777-28.004-7.457-31.354
				c-2.68-3.35-1.17-9.758-3.18-17.463c-2.012-7.706-6.197-30.82-6.699-37.687c-0.504-6.871-1.174-12.564-5.695-18.26
				c-4.523-5.695-12.395-5.193-19.598-7.537c-7.203-2.346-18.092-7.707-20.773-11.726c-1.807-2.713-0.564-10.069,0.434-14.575
				c1.996-2.724,3.523-6.456,4.166-11.555c0,0,1.646,0.774,3.502-1.707c1.852-2.48,2.951-4.127,3.225-8.382
				c0.273-4.254-0.688-5.147-2.266-5.147c-1.578,0-1.99,2.747-4.324-0.341c-2.332-3.088-11.391-11.805-10.225-18.738
				C98.903,19.11,95.264,30.777,90.325,35.101c-2.914,2.549-3.336-0.757-4.916-0.757c-1.578,0-2.539,0.893-2.266,5.147
				c0.273,4.255,1.373,5.902,3.225,8.382c1.855,2.481,3.502,1.707,3.502,1.707c0.643,5.086,2.16,8.812,4.15,11.534
				c1,4.501,2.248,11.879,0.438,14.596c-2.682,4.019-13.568,9.38-20.772,11.726c-7.203,2.344-15.076,1.842-19.6,7.537
				c-4.521,5.695-5.191,11.389-5.693,18.26c-0.504,6.867-4.689,29.981-6.701,37.687c-2.01,7.705-0.5,14.113-3.18,17.463
				c-2.68,3.35-6.65,16.066-7.457,31.354c-0.805,15.288-3.033,27.781-3.566,30.35c-0.533,2.566-2.358,5.953-6.956,8.486
				c-4.597,2.533-5.415,1.928-8.149,5.283c-2.73,3.357-5.624,3.629-8.117,4.781c-2.492,1.154-5.529,2.121-2.497,3.625
				c3.031,1.504,5.185,0.932,6.827-0.324c1.643-1.258,4.494-1.684,5.99-2.245c1.498-0.559,3.978,0.101,3.375,4.046
				c-0.601,3.945-0.185,6.141-1.422,8.936c-1.234,2.797-6.032,13.283-7.049,15.034c-1.019,1.751,1.049,3.345,2.69,2.087
				c1.644-1.259,6.706-11.982,7.95-14.121c1.246-2.139,4.525-2.184,3.792,0.645c-0.731,2.826-2.204,16.551-2.608,18.137
				c-0.402,1.588,3.724,4.119,4.326,0.172c0.603-3.945,1.834-15.465,2.084-17.012c0.248-1.547,3.041-3.438,3.258,1.114
				c0.215,4.552,0.6,12.845,0.657,14.312c0.058,1.465,3.462,1.883,3.507-0.436c0.045-2.316-0.094-15.283-0.111-16.596
				c-0.02-1.311,1.104-3.912,2.922-0.773c1.818,3.141,4.47,10.67,5.298,11.933c0.827,1.263,3.33,0.765,1.974-2.497
				c-1.356-3.262-3.587-11.067-4.035-12.76c-0.449-1.693-0.67-3.773-0.162-6.213c0.507-2.438,1.323-10.555,1.178-15.455
				c-0.143-4.899,1.982-9.9,3.687-15.896c1.705-5.994,8.412-24.211,12.096-35.268c3.684-11.054,2.023-16.143,4.869-24.351
				c2.85-8.208,3.119-16.825,3.789-24.028c0,0,1.34,18.09,4.523,27.639c3.182,9.549,4.523,18.426,3.518,21.105
				c-1.006,2.681-10.555,21.273-13.234,35.846c-2.68,14.573-6.197,24.791-6.701,37.522c-0.502,12.73,1.678,34.505,4.523,48.91
				c2.848,14.406,2.682,19.766,2.01,24.792c-0.67,5.024-0.502,15.242-0.838,19.43c-0.334,4.189-3.182,13.234-4.018,23.116
				c-0.838,9.882-3.352,22.11-0.336,40.704c3.014,18.592,5.695,33.165,4.188,43.048c-1.508,9.884-1.34,12.898-1.508,15.913
				c-0.168,3.017-1.34,7.035-2.846,9.716c-1.51,2.681-2.137,3.142-4.775,4.271c-2.637,1.13-2.764,2.388-2.387,4.271
				c0.377,1.885,2.764,1.759,2.764,1.759s1.635,1.259,4.648,0.377c0,0,2.512,1.508,4.523,0c0,0,4.146,1.885,6.029-0.501
				c0,0,6.281,4.397,9.547-0.252c3.268-4.648,2.891-5.276,1.885-8.04c-1.004-2.764-1.508-4.648-0.502-8.669
				c1.006-4.02,2.011-6.406,0.879-10.302c-1.129-3.895-2.135-8.038,1.132-20.352c3.267-12.311,11.431-40.829,11.306-57.036
				c-0.125-16.205-1.885-24.119,0.629-31.783c2.512-7.664,3.77-15.201,3.77-21.482c0-6.282,2.764-24.874,3.266-32.412
				c0.504-7.539,6.532-26.382,6.406-35.051c-0.126-8.668-1.131-11.305-0.376-13.316c0.751-2.006,3.257-2.01,4.392-2.01
				c1.133,0,3.639,0.004,4.393,2.01c0.752,2.012-0.254,4.648-0.379,13.316c-0.125,8.669,5.906,27.512,6.408,35.051
				c0.502,7.538,3.266,26.13,3.266,32.412c0,6.281,1.256,13.818,3.77,21.482c2.512,7.664,0.752,15.578,0.627,31.783
				c-0.125,16.207,8.041,44.725,11.307,57.036c3.268,12.314,2.262,16.457,1.131,20.352c-1.131,3.896-0.125,6.282,0.88,10.302
				c1.005,4.02,0.503,5.905-0.503,8.669c-1.004,2.764-1.381,3.392,1.885,8.04c3.266,4.648,9.547,0.252,9.547,0.252
				c1.885,2.386,6.029,0.501,6.029,0.501c2.012,1.508,4.523,0,4.523,0c3.014,0.882,4.648-0.377,4.648-0.377s2.387,0.126,2.764-1.759
				c0.377-1.883,0.25-3.141-2.387-4.271c-2.639-1.13-3.266-1.591-4.773-4.271c-1.508-2.681-2.68-6.699-2.848-9.716
				c-0.168-3.015,0-6.029-1.508-15.913c-1.508-9.883,1.174-24.456,4.188-43.048c3.016-18.594,0.502-30.822-0.334-40.704
				c-0.838-9.882-3.686-18.927-4.02-23.116c-0.336-4.188-0.168-14.405-0.839-19.43c-0.671-5.026-0.837-10.386,2.011-24.792
				c2.846-14.405,5.025-36.18,4.523-48.91c-0.504-12.731-4.021-22.949-6.701-37.522c-2.68-14.572-12.227-33.165-13.232-35.846
				c-1.006-2.68,0.336-11.557,3.518-21.105c3.182-9.549,4.523-27.639,4.523-27.639c0.668,7.203,0.938,15.82,3.787,24.028
				c2.848,8.208,1.186,13.297,4.869,24.351c3.686,11.057,10.391,29.273,12.096,35.268c1.705,5.996,3.839,10.852,3.692,15.752
				c-0.143,4.9,0.673,13.018,1.179,15.455c0.508,2.439,0.287,4.52-0.161,6.213c-0.449,1.691-2.679,9.498-4.034,12.76
				c-1.358,3.262,1.145,3.76,1.973,2.496c0.828-1.262,3.477-8.791,5.297-11.932c1.818-3.139,2.941-0.539,2.923,0.773
				c-0.018,1.313-0.157,14.279-0.112,16.596c0.047,2.316,3.448,1.9,3.507,0.435c0.059-1.467,0.442-9.76,0.659-14.312
				c0.218-4.551,3.008-2.66,3.259-1.113c0.247,1.547,1.48,13.066,2.081,17.012c0.604,3.946,4.729,1.416,4.326-0.172
				c-0.402-1.588-1.875-15.31-2.608-18.139c-0.731-2.826,2.547-2.783,3.792-0.642c1.244,2.139,6.309,12.861,7.951,14.121
				c1.642,1.257,3.709-0.337,2.691-2.088c-1.018-1.751-5.814-12.237-7.051-15.033c-1.234-2.795-0.82-4.99-1.422-8.937
				c-0.602-3.944,1.877-4.606,3.376-4.046c1.497,0.562,4.349,0.988,5.991,2.246c1.641,1.256,3.795,1.827,6.825,0.324
				C219.4,250.613,216.364,249.646,213.872,248.492z"/>
			
				<path fill="none" stroke="#000000" stroke-width="0.75" stroke-linecap="round" stroke-linejoin="round" stroke-miterlimit="10" d="
				M98.041,65.004c3.619,2.453,7.75,3.106,11.031,3.106c3.281,0,7.41-0.653,11.029-3.106"/>
			<g>
				
					<path fill="none" stroke="#000000" stroke-width="0.75" stroke-linecap="round" stroke-linejoin="round" stroke-miterlimit="10" d="
					M132.35,37.67c0,0-2,4.5-1.834,7.166c0.834-0.833,1.334-0.916,1.75-0.749"/>
				
					<path fill="none" stroke="#000000" stroke-width="0.75" stroke-linecap="round" stroke-linejoin="round" stroke-miterlimit="10" d="
					M85.756,37.67c0,0,2,4.5,1.834,7.166c-0.834-0.833-1.334-0.916-1.75-0.749"/>
			</g>
		</g>
		<g>
			<path fill="#FFFFFF" d="M127.479,43.013c-0.059,0-0.119-0.004-0.18-0.016c-0.543-0.099-0.904-0.619-0.805-1.162
				c0.412-2.266-0.471-3.617-0.508-3.674c-0.305-0.455-0.189-1.075,0.264-1.385c0.449-0.308,1.066-0.203,1.381,0.246
				c0.057,0.083,1.398,2.045,0.83,5.17C128.375,42.675,127.954,43.013,127.479,43.013z"/>
			<path fill="#FFFFFF" d="M110.311,45.347c-0.553,0-1-0.447-1-1v-0.584c0-0.551,0.447-1,1-1c0.553,0,1,0.449,1,1v0.584
				C111.311,44.9,110.864,45.347,110.311,45.347z"/>
			<path fill="#FFFFFF" d="M106.811,93.93c-0.213,0-0.43-0.068-0.611-0.208c-2.094-1.616-2.832-4.769-2.863-4.903
				c-0.123-0.535,0.213-1.071,0.752-1.195c0.539-0.126,1.072,0.213,1.197,0.749c0.006,0.026,0.615,2.592,2.137,3.767
				c0.438,0.338,0.518,0.967,0.18,1.403C107.407,93.796,107.11,93.93,106.811,93.93z"/>
			<path fill="#FFFFFF" d="M161.145,97.264c-0.414,0-0.801-0.259-0.945-0.672c-1.133-3.258-4.637-4.008-4.672-4.015
				c-0.541-0.11-0.889-0.639-0.779-1.179c0.111-0.543,0.641-0.892,1.18-0.781c0.189,0.037,4.656,0.996,6.16,5.318
				c0.182,0.521-0.094,1.091-0.615,1.272C161.364,97.245,161.254,97.264,161.145,97.264z"/>
			<path fill="#FFFFFF" d="M144.477,211.597c-0.488,0-0.916-0.357-0.988-0.855c-0.016-0.102-1.512-10.197-3.934-16.009
				c-2.592-6.222-1.117-13.064-1.055-13.353c0.119-0.539,0.652-0.88,1.193-0.761c0.539,0.12,0.879,0.655,0.76,1.193
				c-0.014,0.065-1.396,6.527,0.947,12.149c2.52,6.047,4.004,16.066,4.065,16.489c0.081,0.549-0.298,1.056-0.845,1.135
				C144.573,211.593,144.524,211.597,144.477,211.597z"/>
			<path fill="#FFFFFF" d="M152.729,341.597c-0.041,0-0.084-0.002-0.125-0.008c-0.549-0.068-0.938-0.568-0.869-1.116
				c0.711-5.685-0.451-9.541-0.463-9.579c-0.162-0.526,0.133-1.087,0.66-1.251c0.523-0.164,1.086,0.129,1.25,0.656
				c0.053,0.171,1.307,4.277,0.537,10.422C153.657,341.227,153.225,341.597,152.729,341.597z"/>
			<path fill="#FFFFFF" d="M111.227,64.847c-0.553,0-1-0.447-1-1v-1c0-0.553,0.447-1,1-1c0.553,0,1,0.447,1,1v1
				C112.227,64.4,111.78,64.847,111.227,64.847z"/>
		</g>
	</g>
	<g>
		<g>
			<path fill-rule="evenodd" clip-rule="evenodd" fill="#FCDCCE" d="M160.317,242.212c0,0-2.818-12.958-3.5-18.303
				c-0.657-5.151,2.995-21.238-3.108-45.482c-1.18-4.686-1.216-4.653-4.531-18.761H68.982c-3.349,14.105-3.38,14.075-4.559,18.761
				c-6.103,24.243-2.422,40.33-3.079,45.482c-0.682,5.345-3.5,18.303-3.5,18.303H160.317z"/>
		</g>
		<path fill="#F2C4B3" d="M64.15,207.417c0,0,6.064,26.333,43.365,26.333s47.232-26.333,47.232-26.333l-1.431,17.333l-11.565,12.292
			c0,0-18.769,10.208-23.102,19.875c-11-2.833-19.978,1.218-19.978,1.218s-9.224-12.274-20.706-19.829
			C64.817,225.417,60.65,216.917,64.15,207.417z"/>
		
			<path fill="none" stroke="#000000" stroke-width="0.75" stroke-linecap="round" stroke-linejoin="round" stroke-miterlimit="10" d="
			M111.286,258.135c3.563,0,9.561-10.591,20.39-18.921"/>
		
			<path fill="none" stroke="#000000" stroke-width="0.75" stroke-linecap="round" stroke-linejoin="round" stroke-miterlimit="10" d="
			M106.846,258.135c-3.563,0-9.559-10.591-20.389-18.921"/>
		<path fill="#F2C4B3" d="M66.887,223.671c-4.244-10.028-2.657-34.688,1.735-42.859c4.372-8.133,15.15-21.144,15.152-21.145H68.982
			c-3.349,14.105-3.38,14.075-4.559,18.761c-6.103,24.243-2.422,40.331-3.079,45.482c-0.682,5.345-3.5,18.303-3.5,18.303h4.986
			h0.001c0,0-0.964-3.895,5.286-5.487c3.909-0.996,12.975,2.515,20.04,5.487h1.697C81.801,237.916,69.832,230.631,66.887,223.671z"
			/>
		<path fill="#F2C4B3" d="M151.274,223.671c4.244-10.028,2.657-34.688-1.735-42.859c-4.372-8.133-15.225-21.144-15.227-21.145
			h14.866c3.314,14.108,3.351,14.075,4.531,18.761c6.103,24.243,2.451,40.331,3.108,45.482c0.682,5.345,3.5,18.303,3.5,18.303
			h-4.986h-0.001c0,0,0.964-3.895-5.286-5.487c-3.909-0.996-12.975,2.515-20.04,5.487h-1.697
			C136.36,237.916,148.328,230.631,151.274,223.671z"/>
		<g>
			
				<path fill-rule="evenodd" clip-rule="evenodd" fill="none" stroke="#000000" stroke-width="0.75" stroke-linecap="round" stroke-linejoin="round" stroke-miterlimit="10" d="
				M68.982,159.667c-3.349,14.105-3.38,14.075-4.559,18.761c-6.103,24.243-2.422,40.33-3.079,45.482
				c-0.682,5.345-3.5,18.303-3.5,18.303"/>
			
				<path fill-rule="evenodd" clip-rule="evenodd" fill="none" stroke="#000000" stroke-width="0.75" stroke-linecap="round" stroke-linejoin="round" stroke-miterlimit="10" d="
				M160.317,242.212c0,0-2.818-12.958-3.5-18.303c-0.657-5.151,2.995-21.238-3.108-45.482c-1.18-4.686-1.216-4.653-4.531-18.761"/>
		</g>
		<path fill="#F2C4B3" d="M110.665,204.389c0,0.838-0.713,1.521-1.593,1.521c-0.882,0-1.595-0.683-1.595-1.521
			c0-0.84,0.714-1.519,1.595-1.519C109.952,202.869,110.665,203.549,110.665,204.389z"/>
		<path fill="none" stroke="#000000" stroke-linecap="round" stroke-linejoin="round" stroke-miterlimit="10" d="M110.665,204.089
			c0,0-0.439-1.483-1.879-1.194c-1.441,0.289-1.264,1.841-1.264,1.841"/>
	</g>
	
		<radialGradient id="SVGID_1_" cx="-402.3035" cy="379.8417" r="23.6958" gradientTransform="matrix(0.9608 0.2772 -0.194 0.6726 569.4446 38.4713)" gradientUnits="userSpaceOnUse">
		<stop  offset="0.3688" style="stop-color:#FEEEE7"/>
		<stop  offset="1" style="stop-color:#FEEEE7;stop-opacity:0"/>
	</radialGradient>
	<path fill-rule="evenodd" clip-rule="evenodd" fill="url(#SVGID_1_)" d="M119.742,164.542c-7.031-0.761-14.218-0.051-20.964,2.073
		c-4.378,1.378-8.652,3.403-11.924,6.621s-5.439,7.764-5.041,12.336c0.409,4.705,3.484,8.897,7.41,11.52
		c3.927,2.624,8.628,3.853,13.307,4.495c5.487,0.753,11.146,0.747,16.487-0.721s10.357-4.483,13.629-8.952
		c3.272-4.469,4.627-10.454,2.966-15.738c-0.611-1.944-1.657-3.79-3.03-5.298c-1.24-1.363-2.322-3.158-3.952-4.075
		C126.059,165.356,122.631,164.855,119.742,164.542z"/>
</g>
</svg>
